#barricade_door2m_B_11123_12.obj

v -0.2499704 0.3766686 -1.164794
v -0.3299706 0.6510503 -1.140787
v -0.3299721 0.3766686 -1.164791
v -0.2499689 0.6510503 -1.14079
v -0.3299721 0.3766686 -1.164791
v -0.329964 0.4458513 1.204652
v -0.3299654 0.17147 1.180648
v -0.3299706 0.6510503 -1.140787
v -0.329964 0.4458513 1.204652
v -0.2499638 0.17147 1.180649
v -0.3299654 0.17147 1.180648
v -0.2499623 0.4458513 1.204653
v -0.2499638 0.17147 1.180649
v -0.2499689 0.6510503 -1.14079
v -0.2499704 0.3766686 -1.164794
v -0.2499623 0.4458513 1.204653
v -0.2499623 0.4458513 1.204653
v -0.3299706 0.6510503 -1.140787
v -0.2499689 0.6510503 -1.14079
v -0.329964 0.4458513 1.204652
v -0.3299654 0.17147 1.180648
v -0.2499704 0.3766686 -1.164794
v -0.3299721 0.3766686 -1.164791
v -0.2499638 0.17147 1.180649
v -0.3299694 1.127431 -1.121546
v -0.2499714 0.8859354 -1.100418
v -0.2499713 1.127431 -1.121545
v -0.3299696 0.8859354 -1.100419
v -0.2499713 1.127431 -1.121545
v -0.249964 1.090575 1.238625
v -0.2499639 1.332071 1.217498
v -0.2499714 0.8859354 -1.100418
v -0.3299696 0.8859354 -1.100419
v -0.329962 1.332071 1.217497
v -0.3299622 1.090575 1.238628
v -0.3299694 1.127431 -1.121546
v -0.3299622 1.090575 1.238628
v -0.2499639 1.332071 1.217498
v -0.249964 1.090575 1.238625
v -0.329962 1.332071 1.217497
v -0.329962 1.332071 1.217497
v -0.2499713 1.127431 -1.121545
v -0.2499639 1.332071 1.217498
v -0.3299694 1.127431 -1.121546
v -0.249964 1.090575 1.238625
v -0.3299696 0.8859354 -1.100419
v -0.3299622 1.090575 1.238628
v -0.2499714 0.8859354 -1.100418
v -0.249969 1.492542 -1.119695
v -0.3299723 1.824607 -1.148748
v -0.3299707 1.492542 -1.119696
v -0.2499706 1.824607 -1.148747
v -0.3299707 1.492542 -1.119696
v -0.3299654 2.053673 1.107278
v -0.3299638 1.721608 1.136326
v -0.3299723 1.824607 -1.148748
v -0.3299654 2.053673 1.107278
v -0.2499657 1.721608 1.136327
v -0.3299638 1.721608 1.136326
v -0.2499637 2.053673 1.107278
v -0.2499637 2.053673 1.107278
v -0.3299723 1.824607 -1.148748
v -0.2499706 1.824607 -1.148747
v -0.3299654 2.053673 1.107278
v -0.3299638 1.721608 1.136326
v -0.249969 1.492542 -1.119695
v -0.3299707 1.492542 -1.119696
v -0.2499657 1.721608 1.136327
v -0.2499637 2.053673 1.107278
v -0.249969 1.492542 -1.119695
v -0.2499657 1.721608 1.136327
v -0.2499706 1.824607 -1.148747

vn 0.996195 0.08715073 -0.0006814852
vn 0.996195 0.08715079 -0.0006812125
vn 0.996195 0.08715071 -0.0006814852
vn 0.996195 0.0871508 -0.0006811527
vn -0.0006842829 -7.105456E-15 -0.9999998
vn -0.0006842829 -7.105456E-15 -0.9999998
vn -0.0006842829 -7.105456E-15 -0.9999998
vn -0.0006842829 -7.105456E-15 -0.9999998
vn -0.996195 -0.08715056 0.0006814852
vn -0.996195 -0.08715055 0.0006814852
vn -0.996195 -0.08715055 0.0006814852
vn -0.996195 -0.08715059 0.0006814852
vn 0.0006842829 7.105456E-15 0.9999998
vn 0.0006842829 7.105456E-15 0.9999998
vn 0.0006842829 7.105456E-15 0.9999998
vn 0.0006842829 7.105456E-15 0.9999998
vn -0.08715562 0.9961936 6.06338E-05
vn -0.08715555 0.9961936 6.336063E-05
vn -0.08715553 0.9961936 6.342225E-05
vn -0.08715563 0.9961936 6.057218E-05
vn 0.08715547 -0.9961936 -5.962202E-05
vn 0.08715547 -0.9961936 -5.962202E-05
vn 0.08715547 -0.9961936 -5.962202E-05
vn 0.08715547 -0.9961936 -5.962202E-05
vn 0.9961946 -0.08715483 -0.0006814849
vn 0.9961946 -0.08715483 -0.0006814849
vn 0.9961946 -0.08715484 -0.0006814849
vn 0.9961946 -0.08715484 -0.0006814849
vn 0.0006842829 7.105456E-15 0.9999998
vn 0.0006842829 7.105456E-15 0.9999998
vn 0.0006842829 7.105456E-15 0.9999998
vn 0.0006842829 7.105456E-15 0.9999998
vn -0.0006842829 -7.105456E-15 -0.9999998
vn -0.0006842829 -7.105456E-15 -0.9999998
vn -0.0006842829 -7.105456E-15 -0.9999998
vn -0.0006842829 -7.105456E-15 -0.9999998
vn -0.9961945 0.08715491 0.0006814848
vn -0.9961945 0.08715491 0.0006814848
vn -0.9961945 0.08715492 0.0006814848
vn -0.9961945 0.08715492 0.0006814848
vn 0.08715593 0.9961936 -5.962234E-05
vn 0.08715593 0.9961936 -5.962234E-05
vn 0.08715593 0.9961936 -5.962234E-05
vn 0.08715593 0.9961936 -5.962234E-05
vn -0.08715566 -0.9961936 5.962216E-05
vn -0.08715566 -0.9961936 5.962216E-05
vn -0.08715566 -0.9961936 5.962216E-05
vn -0.08715566 -0.9961936 5.962216E-05
vn 0.9961942 -0.08715839 -0.0006814846
vn 0.9961942 -0.08715839 -0.0006814846
vn 0.9961942 -0.08715837 -0.0006814846
vn 0.9961942 -0.08715837 -0.0006814846
vn -0.0006842829 -7.105456E-15 -0.9999998
vn -0.0006842829 -7.105456E-15 -0.9999998
vn -0.0006842829 -7.105456E-15 -0.9999998
vn -0.0006842829 -7.105456E-15 -0.9999998
vn -0.9961956 0.08714345 0.0006814856
vn -0.9961956 0.08714344 0.0006814856
vn -0.9961956 0.08714344 0.0006814856
vn -0.9961956 0.08714344 0.0006814856
vn 0.1010158 0.9948837 -6.910368E-05
vn 0.1010158 0.9948837 -6.910368E-05
vn 0.1010158 0.9948837 -6.910368E-05
vn 0.1010158 0.9948837 -6.910368E-05
vn -0.1010157 -0.9948837 6.910366E-05
vn -0.1010157 -0.9948837 6.910366E-05
vn -0.1010157 -0.9948837 6.910365E-05
vn -0.1010157 -0.9948837 6.910365E-05
vn 0.0006842829 7.105456E-15 0.9999998
vn 0.0006842829 7.105456E-15 0.9999998
vn 0.0006842829 7.105456E-15 0.9999998
vn 0.0006842829 7.105456E-15 0.9999998

vt 0.2338867 0.9960938
vt 0.2408447 0.9672852
vt 0.2408447 0.9960938
vt 0.2338867 0.9672852
vt 0.2338867 0.9672852
vt 0.01158142 0.9960938
vt 0.01158142 0.9672852
vt 0.2338867 0.9960938
vt 0.004631042 0.9672852
vt 0.01158142 0.9960938
vt 0.004631042 0.9960938
vt 0.01158142 0.9672852
vt 0.01158142 0.9960938
vt 0.2338867 0.9672852
vt 0.2338867 0.9960938
vt 0.01158142 0.9672852
vt 0.01158142 0.9672852
vt 0.2338867 0.9604492
vt 0.2338867 0.9672852
vt 0.01158142 0.9604492
vt 0.01158142 0.9672852
vt 0.2338867 0.9604492
vt 0.2338867 0.9672852
vt 0.01158142 0.9604492
vt 0.2250977 0.9487305
vt 0.2181396 0.9194336
vt 0.2181396 0.9487305
vt 0.2250977 0.9194336
vt 0.2181396 0.9487305
vt 0.01422882 0.9194336
vt 0.01422882 0.9487305
vt 0.2181396 0.9194336
vt 0.2181396 0.9487305
vt 0.01422882 0.9194336
vt 0.01422882 0.9487305
vt 0.2181396 0.9194336
vt 0.007274628 0.9194336
vt 0.01422882 0.9487305
vt 0.01422882 0.9194336
vt 0.007274628 0.9487305
vt 0.01422882 0.9194336
vt 0.2181396 0.9125977
vt 0.01422882 0.9125977
vt 0.2181396 0.9194336
vt 0.01422882 0.9194336
vt 0.2181396 0.9125977
vt 0.01422882 0.9125977
vt 0.2181396 0.9194336
vt 0.01478577 0.8730469
vt 0.007820129 0.9023438
vt 0.007820129 0.8730469
vt 0.01478577 0.9023438
vt 0.01478577 0.9023438
vt 0.2215576 0.8730469
vt 0.2215576 0.9023438
vt 0.01478577 0.8730469
vt 0.2285156 0.9023438
vt 0.2215576 0.8730469
vt 0.2285156 0.8730469
vt 0.2215576 0.9023438
vt 0.2215576 0.8662109
vt 0.01478577 0.8730469
vt 0.01478577 0.8662109
vt 0.2215576 0.8730469
vt 0.2215576 0.8662109
vt 0.01478577 0.8730469
vt 0.01478577 0.8662109
vt 0.2215576 0.8730469
vt 0.2215576 0.9023438
vt 0.01478577 0.8730469
vt 0.2215576 0.8730469
vt 0.01478577 0.9023438

g barricade_door2m_B_11123_12
usemtl barricade_door2m_B_11123_12
usemap barricade_door2m_B_11123_12
f 1/1/1 3/3/3 2/2/2
f 2/2/2 4/4/4 1/1/1
f 5/5/5 7/7/7 6/6/6
f 6/6/6 8/8/8 5/5/5
f 9/9/9 11/11/11 10/10/10
f 10/10/10 12/12/12 9/9/9
f 13/13/13 15/15/15 14/14/14
f 14/14/14 16/16/16 13/13/13
f 17/17/17 19/19/19 18/18/18
f 18/18/18 20/20/20 17/17/17
f 21/21/21 23/23/23 22/22/22
f 22/22/22 24/24/24 21/21/21
f 25/25/25 27/27/27 26/26/26
f 26/26/26 28/28/28 25/25/25
f 29/29/29 31/31/31 30/30/30
f 30/30/30 32/32/32 29/29/29
f 33/33/33 35/35/35 34/34/34
f 34/34/34 36/36/36 33/33/33
f 37/37/37 39/39/39 38/38/38
f 38/38/38 40/40/40 37/37/37
f 41/41/41 43/43/43 42/42/42
f 42/42/42 44/44/44 41/41/41
f 45/45/45 47/47/47 46/46/46
f 46/46/46 48/48/48 45/45/45
f 49/49/49 51/51/51 50/50/50
f 50/50/50 52/52/52 49/49/49
f 53/53/53 55/55/55 54/54/54
f 54/54/54 56/56/56 53/53/53
f 57/57/57 59/59/59 58/58/58
f 58/58/58 60/60/60 57/57/57
f 61/61/61 63/63/63 62/62/62
f 62/62/62 64/64/64 61/61/61
f 65/65/65 67/67/67 66/66/66
f 66/66/66 68/68/68 65/65/65
f 69/69/69 71/71/71 70/70/70
f 70/70/70 72/72/72 69/69/69
