#barrel01_A_1_10751_1006.obj

v -0.1495257 0.9918047 -0.2589111
v -0.2990272 0.9918047 3.936226E-05
v -0.25897 0.9918047 -0.1494678
v 0.1494885 0.9918042 -0.2589121
v 0.1494886 0.9918047 0.2589896
v -0.1495242 0.9918047 0.2589858
v -0.2589675 0.9918047 0.1495415
v -1.361451E-05 0.9918047 0.2990493
v 0.2989901 0.9918042 3.918217E-05
v 0.2589312 0.9918042 0.1495432
v 0.2589318 0.9918042 -0.1494678
v -1.23889E-05 0.9918042 -0.2989727
v -1.459581E-05 1.010607 -0.3447025
v -0.1495257 0.9918047 -0.2589111
v -0.1723838 1.010607 -0.2985148
v -1.23889E-05 0.9918042 -0.2989727
v -0.25897 0.9918047 -0.1494678
v -0.2985678 1.010607 -0.1723317
v -0.2990272 0.9918047 3.936226E-05
v -0.3447587 1.010607 3.843568E-05
v -0.2589675 0.9918047 0.1495415
v -0.2985679 1.010607 0.1724059
v -0.1495242 0.9918047 0.2589858
v -0.1723879 1.010607 0.2985916
v -1.361451E-05 0.9918047 0.2990493
v -1.310925E-05 1.010607 0.3447759
v 0.1494886 0.9918047 0.2589896
v 0.1723499 1.010607 0.2985917
v 0.2589312 0.9918042 0.1495432
v 0.2985338 1.010607 0.1724086
v 0.2989901 0.9918042 3.918217E-05
v 0.3447247 1.010607 3.840486E-05
v 0.2589318 0.9918042 -0.1494678
v 0.2985322 1.010607 -0.1723322
v 0.1494885 0.9918042 -0.2589121
v 0.1723491 1.010607 -0.2985161
v -0.01736795 1.012706 0.2249982
v 0.06635446 1.012706 0.2249968
v 0.02449863 1.012706 0.2491688
v 0.06635508 1.012706 0.1766602
v -0.01736733 1.012706 0.1766616
v 0.02449817 1.012706 0.1524924
v -0.01736733 1.012706 0.1766616
v 0.02449816 0.9937004 0.1524924
v 0.02449817 1.012706 0.1524924
v -0.01736733 0.9937004 0.1766616
v -0.01736795 1.012706 0.2249982
v -0.01736795 0.9937004 0.2249982
v 0.02449863 1.012706 0.2491688
v 0.02449863 0.9937004 0.2491688
v 0.06635446 1.012706 0.2249968
v 0.06635446 0.9937004 0.2249968
v 0.06635508 1.012706 0.1766602
v 0.06635507 0.9937004 0.1766602
v 0.06635446 0.9937004 0.2249968
v 0.06635446 1.012706 0.2249968
v -0.1723838 1.010607 -0.2985148
v -2.260178E-05 -2.683916E-07 -0.3447022
v -1.459581E-05 1.010607 -0.3447025
v -0.1723839 -3.79884E-08 -0.2985148
v -0.2985678 1.010607 -0.1723317
v -0.2985678 -3.050641E-08 -0.1723317
v -0.3447587 1.010607 3.843568E-05
v -0.3447587 -2.512945E-08 3.845681E-05
v -0.2985679 1.010607 0.1724059
v -0.2985679 -2.32988E-08 0.172406
v 0.172349 -2.740428E-07 -0.2985161
v 0.1723491 1.010607 -0.2985161
v 0.2985322 -2.762484E-07 -0.1723322
v 0.2985322 1.010607 -0.1723322
v 0.3447247 -2.744178E-07 3.842599E-05
v 0.3447247 1.010607 3.840486E-05
v 0.2985338 -2.690408E-07 0.1724086
v 0.2985338 1.010607 0.1724086
v 0.1723498 -2.615588E-07 0.2985917
v 0.1723499 1.010607 0.2985917
v -2.424726E-05 -3.115513E-08 0.3447779
v -1.310925E-05 1.010607 0.3447759
v -0.1723879 1.010607 0.2985916
v -0.1723879 -2.550425E-08 0.2985916
v -0.2985679 1.010607 0.1724059
v -0.2985679 -2.32988E-08 0.172406
v 0.1494885 0.01880204 -0.2589121
v 0.29899 0.01880204 3.920251E-05
v 0.2589318 0.01880204 -0.1494678
v 0.1494886 0.01880205 0.2589896
v 0.2589312 0.01880205 0.1495432
v -0.2990272 0.01880207 3.93826E-05
v -0.1495242 0.01880207 0.2589859
v -2.332213E-05 0.01880228 0.2990464
v -0.2589675 0.01880207 0.1495416
v -0.1495257 0.01880205 -0.258911
v -0.2589701 0.01880206 -0.1494677
v -2.352546E-05 0.01880205 -0.2989707
v -2.260178E-05 -2.683916E-07 -0.3447022
v -0.1495257 0.01880205 -0.258911
v -2.352546E-05 0.01880205 -0.2989707
v -0.1723839 -3.79884E-08 -0.2985148
v -0.2589701 0.01880206 -0.1494677
v -0.2985678 -3.050641E-08 -0.1723317
v -0.2990272 0.01880207 3.93826E-05
v -0.3447587 -2.512945E-08 3.845681E-05
v -0.2589675 0.01880207 0.1495416
v -0.2985679 -2.32988E-08 0.172406
v -0.1495242 0.01880207 0.2589859
v -0.1723879 -2.550425E-08 0.2985916
v -2.332213E-05 0.01880228 0.2990464
v -2.424726E-05 -3.115513E-08 0.3447779
v 0.1494886 0.01880205 0.2589896
v 0.1723498 -2.615588E-07 0.2985917
v 0.2589312 0.01880205 0.1495432
v 0.2985338 -2.690408E-07 0.1724086
v 0.29899 0.01880204 3.920251E-05
v 0.3447247 -2.744178E-07 3.842599E-05
v 0.2589318 0.01880204 -0.1494678
v 0.2985322 -2.762484E-07 -0.1723322
v 0.1494885 0.01880204 -0.2589121
v 0.172349 -2.740428E-07 -0.2985161

vn 5.889464E-07 0.999999 -3.465829E-07
vn 1.389684E-07 0.999999 -2.118001E-07
vn 1.624513E-06 0.999999 -9.50394E-07
vn 7.563111E-08 0.999999 -9.532125E-08
vn -6.294367E-08 0.999999 -4.880781E-07
vn -3.07604E-07 0.999999 -2.765652E-07
vn -2.3072E-07 0.999999 1.00218E-06
vn -7.146814E-07 0.999999 -6.353603E-07
vn 2.072472E-07 0.999999 -3.373665E-07
vn 1.358152E-06 0.999999 -1.385677E-06
vn 4.867712E-08 0.999999 1.947605E-06
vn 2.438065E-07 0.999999 -4.046E-07
vn 0.3340737 0.9248739 0.1816622
vn 0.3801605 0.9248685 -0.009722263
vn 0.3801615 0.9248682 -0.009714618
vn 0.3340724 0.9248742 0.1816634
vn 0.3243755 0.9248646 -0.1985052
vn 0.3243752 0.9248663 -0.1984975
vn 0.1816584 0.9248797 -0.3340599
vn 0.1816566 0.9248794 -0.3340618
vn -0.009718224 0.9248655 -0.3801678
vn -0.009722248 0.9248641 -0.3801711
vn -0.1984911 0.9248689 -0.3243719
vn -0.1984972 0.9248694 -0.3243669
vn -0.3340747 0.9248747 -0.1816569
vn -0.3340746 0.9248745 -0.1816573
vn -0.3801605 0.9248685 0.009725228
vn -0.3801612 0.9248682 0.009716243
vn -0.3243748 0.924865 0.1985045
vn -0.3243748 0.9248667 0.1984961
vn -0.1816576 0.9248801 0.3340589
vn -0.1816558 0.92488 0.3340607
vn 0.009717375 0.9248665 0.3801654
vn 0.009722352 0.924865 0.3801691
vn 0.1984885 0.9248688 0.3243741
vn 0.1984959 0.9248689 0.324369
vn -6.93238E-07 0.999999 -3.332644E-07
vn -6.933382E-07 0.999999 -3.333189E-07
vn -2.773177E-06 0.999999 -1.464265E-06
vn 2.981953E-11 0.999999 4.371139E-08
vn 2.981953E-11 0.999999 4.371139E-08
vn 2.981953E-11 0.999999 4.371139E-08
vn -0.8529776 -4.049255E-07 0.5219476
vn -0.8784943 -2.18436E-07 -0.4777533
vn -0.8784943 2.090943E-08 -0.4777533
vn -0.8529773 -5.245924E-07 0.5219482
vn 0.02556834 4.581028E-07 0.9996731
vn 0.02556828 4.581028E-07 0.9996731
vn 0.8785427 9.826662E-07 0.4776645
vn 0.8785426 9.826661E-07 0.4776646
vn 0.8529496 5.245483E-07 -0.5219933
vn 0.8529496 5.245483E-07 -0.5219933
vn -0.02552086 -3.383855E-07 -0.9996743
vn -0.02552029 -4.58061E-07 -0.9996744
vn 0.8529496 5.245483E-07 -0.5219933
vn 0.8529496 5.245483E-07 -0.5219933
vn -0.9996737 1.043442E-06 0.02555302
vn -0.8785222 -1.25126E-06 -0.4777021
vn -0.8785147 1.049822E-06 -0.4777158
vn -0.9996735 -1.032212E-07 0.02555922
vn -0.8529727 -2.278995E-08 0.5219555
vn -0.8529727 -2.278994E-08 0.5219554
vn -0.4777087 -3.838697E-08 0.8785182
vn -0.4777087 -3.838697E-08 0.8785182
vn 0.02556145 -4.369782E-08 0.9996732
vn 0.02556145 -4.369782E-08 0.9996732
vn -0.5219632 -1.219283E-06 -0.8529683
vn -0.5219579 -6.483367E-08 -0.8529714
vn -0.02556196 4.369782E-08 -0.9996732
vn -0.02556187 4.369782E-08 -0.9996733
vn 0.477709 3.838696E-08 -0.8785181
vn 0.4777089 3.838696E-08 -0.8785181
vn 0.8529727 2.278995E-08 -0.5219555
vn 0.8529727 2.278994E-08 -0.5219554
vn 0.9996737 1.087125E-09 -0.02555227
vn 0.9996735 -1.076185E-06 -0.02555838
vn 0.8785151 -2.090775E-08 0.4777151
vn 0.8785226 -2.090715E-08 0.4777013
vn 0.5219626 1.186594E-06 0.8529686
vn 0.5219574 -3.73001E-08 0.8529718
vn 0.02556145 -4.369782E-08 0.9996732
vn 0.02556145 -4.369782E-08 0.9996732
vn 7.879825E-08 -0.999999 3.27041E-07
vn 9.994416E-08 -0.999999 1.065112E-08
vn 9.540808E-08 -0.999999 8.184546E-09
vn 1.864798E-07 -0.999999 3.881397E-07
vn 9.540845E-08 -0.999999 8.184749E-09
vn -6.257512E-08 -0.999999 3.09528E-07
vn 2.615949E-07 -0.999999 6.200613E-07
vn 1.586141E-06 -0.999999 1.399667E-06
vn 9.540808E-08 -0.999999 8.184546E-09
vn -2.199628E-07 -0.999999 3.607508E-07
vn 9.540817E-08 -0.999999 8.184596E-09
vn 1.53397E-06 -0.999999 1.3713E-06
vn 0.3340747 -0.9248745 0.1816577
vn 0.3801609 -0.9248683 -0.009724945
vn 0.3340745 -0.9248747 0.1816573
vn 0.3801618 -0.924868 -0.009716332
vn 0.3243746 -0.9248651 -0.1985043
vn 0.3243743 -0.9248669 -0.1984965
vn 0.1816573 -0.9248807 -0.3340577
vn 0.1816554 -0.9248805 -0.3340595
vn -0.009717822 -0.9248666 -0.3801651
vn -0.009721965 -0.9248652 -0.3801686
vn -0.1984871 -0.9248696 -0.3243725
vn -0.1984944 -0.9248698 -0.3243673
vn -0.3340714 -0.9248748 -0.1816622
vn -0.3340726 -0.9248747 -0.181661
vn -0.3801589 -0.9248692 0.009722725
vn -0.3801597 -0.9248689 0.009714633
vn -0.3243734 -0.9248655 0.1985041
vn -0.3243734 -0.9248673 0.1984958
vn -0.1816571 -0.9248807 0.3340577
vn -0.1816552 -0.9248805 0.3340594
vn 0.009717479 -0.924867 0.3801642
vn 0.009722352 -0.9248656 0.3801677
vn 0.1984906 -0.9248696 0.3243704
vn 0.1984968 -0.9248699 0.3243656

vt 0.3127441 0.940918
vt 0.3205566 0.9711914
vt 0.3208008 0.9545898
vt 0.2824707 0.9321289
vt 0.2680664 0.9848633
vt 0.2980957 0.9931641
vt 0.3122559 0.9848633
vt 0.2819824 0.9931641
vt 0.2600098 0.9545898
vt 0.2600098 0.9707031
vt 0.2683105 0.9404297
vt 0.298584 0.9326172
vt 0.3000488 0.9272461
vt 0.3127441 0.940918
vt 0.3164063 0.9370117
vt 0.298584 0.9326172
vt 0.3208008 0.9545898
vt 0.3256836 0.9536133
vt 0.3205566 0.9711914
vt 0.3256836 0.9726563
vt 0.3122559 0.9848633
vt 0.315918 0.9887695
vt 0.2980957 0.9931641
vt 0.2995605 0.9980469
vt 0.2819824 0.9931641
vt 0.2805176 0.9980469
vt 0.2680664 0.9848633
vt 0.2641602 0.9882813
vt 0.2600098 0.9707031
vt 0.2548828 0.972168
vt 0.2600098 0.9545898
vt 0.255127 0.953125
vt 0.2683105 0.9404297
vt 0.2646484 0.9365234
vt 0.2824707 0.9321289
vt 0.2810059 0.9272461
vt 0.2700195 0.9140625
vt 0.2700195 0.9228516
vt 0.2727051 0.918457
vt 0.2651367 0.9228516
vt 0.2651367 0.9140625
vt 0.2624512 0.918457
vt 0.2578125 0.9116211
vt 0.2597656 0.9067383
vt 0.2578125 0.9067383
vt 0.2597656 0.9116211
vt 0.2578125 0.9165039
vt 0.2597656 0.9165039
vt 0.2578125 0.921875
vt 0.2597656 0.921875
vt 0.2578125 0.9267578
vt 0.2597656 0.9267578
vt 0.2578125 0.9013672
vt 0.2597656 0.9013672
vt 0.2597656 0.8964844
vt 0.2578125 0.8964844
vt 0.1834717 0.9946289
vt 0.1638184 0.8935547
vt 0.1638184 0.9946289
vt 0.1834717 0.8935547
vt 0.2032471 0.9946289
vt 0.2032471 0.8935547
vt 0.2229004 0.9946289
vt 0.2229004 0.8935547
vt 0.2425537 0.9946289
vt 0.2425537 0.8935547
vt 0.144165 0.8935547
vt 0.144165 0.9946289
vt 0.1244507 0.8935547
vt 0.1244507 0.9946289
vt 0.1047974 0.8935547
vt 0.1047974 0.9946289
vt 0.08508301 0.8935547
vt 0.08508301 0.9946289
vt 0.06536865 0.8935547
vt 0.06536865 0.9946289
vt 0.04571533 0.8935547
vt 0.04571533 0.9946289
vt 0.02601624 0.9946289
vt 0.02601624 0.8935547
vt 0.006336212 0.9946289
vt 0.006336212 0.8935547
vt 0.3127441 0.940918
vt 0.3205566 0.9711914
vt 0.3208008 0.9545898
vt 0.2980957 0.9931641
vt 0.3122559 0.9848633
vt 0.2600098 0.9545898
vt 0.2680664 0.9848633
vt 0.2819824 0.9931641
vt 0.2600098 0.9707031
vt 0.2824707 0.9321289
vt 0.2683105 0.9404297
vt 0.298584 0.9326172
vt 0.3000488 0.9272461
vt 0.2824707 0.9321289
vt 0.298584 0.9326172
vt 0.2810059 0.9272461
vt 0.2683105 0.9404297
vt 0.2646484 0.9365234
vt 0.2600098 0.9545898
vt 0.255127 0.953125
vt 0.2600098 0.9707031
vt 0.2548828 0.972168
vt 0.2680664 0.9848633
vt 0.2641602 0.9882813
vt 0.2819824 0.9931641
vt 0.2805176 0.9980469
vt 0.2980957 0.9931641
vt 0.2995605 0.9980469
vt 0.3122559 0.9848633
vt 0.315918 0.9887695
vt 0.3205566 0.9711914
vt 0.3256836 0.9726563
vt 0.3208008 0.9545898
vt 0.3256836 0.9536133
vt 0.3127441 0.940918
vt 0.3164063 0.9370117

g barrel01_A_1_10751_1006
usemtl barrel01_A_1_10751_1006
usemap barrel01_A_1_10751_1006
f 1/1/1 3/3/3 2/2/2
f 1/1/1 2/2/2 4/4/4
f 2/2/2 5/5/5 4/4/4
f 2/2/2 6/6/6 5/5/5
f 2/2/2 7/7/7 6/6/6
f 6/6/6 8/8/8 5/5/5
f 5/5/5 9/9/9 4/4/4
f 5/5/5 10/10/10 9/9/9
f 9/9/9 11/11/11 4/4/4
f 12/12/12 1/1/1 4/4/4
f 13/13/13 15/15/15 14/14/14
f 14/14/14 16/16/16 13/13/13
f 17/17/17 14/14/14 15/15/15
f 15/15/15 18/18/18 17/17/17
f 19/19/19 17/17/17 18/18/18
f 18/18/18 20/20/20 19/19/19
f 21/21/21 19/19/19 20/20/20
f 20/20/20 22/22/22 21/21/21
f 23/23/23 21/21/21 22/22/22
f 22/22/22 24/24/24 23/23/23
f 25/25/25 23/23/23 24/24/24
f 24/24/24 26/26/26 25/25/25
f 27/27/27 25/25/25 26/26/26
f 26/26/26 28/28/28 27/27/27
f 29/29/29 27/27/27 28/28/28
f 28/28/28 30/30/30 29/29/29
f 31/31/31 29/29/29 30/30/30
f 30/30/30 32/32/32 31/31/31
f 33/33/33 31/31/31 32/32/32
f 32/32/32 34/34/34 33/33/33
f 35/35/35 33/33/33 34/34/34
f 34/34/34 36/36/36 35/35/35
f 16/16/16 35/35/35 36/36/36
f 36/36/36 13/13/13 16/16/16
f 37/37/37 39/39/39 38/38/38
f 37/37/37 38/38/38 40/40/40
f 41/41/41 37/37/37 40/40/40
f 42/42/42 41/41/41 40/40/40
f 43/43/43 45/45/45 44/44/44
f 44/44/44 46/46/46 43/43/43
f 47/47/47 43/43/43 46/46/46
f 46/46/46 48/48/48 47/47/47
f 49/49/49 47/47/47 48/48/48
f 48/48/48 50/50/50 49/49/49
f 51/51/51 49/49/49 50/50/50
f 50/50/50 52/52/52 51/51/51
f 44/44/44 45/45/45 53/53/53
f 53/53/53 54/54/54 44/44/44
f 55/55/55 54/54/54 53/53/53
f 53/53/53 56/56/56 55/55/55
f 57/57/57 59/59/59 58/58/58
f 58/58/58 60/60/60 57/57/57
f 61/61/61 57/57/57 60/60/60
f 60/60/60 62/62/62 61/61/61
f 63/63/63 61/61/61 62/62/62
f 62/62/62 64/64/64 63/63/63
f 65/65/65 63/63/63 64/64/64
f 64/64/64 66/66/66 65/65/65
f 67/67/67 58/58/58 59/59/59
f 59/59/59 68/68/68 67/67/67
f 69/69/69 67/67/67 68/68/68
f 68/68/68 70/70/70 69/69/69
f 71/71/71 69/69/69 70/70/70
f 70/70/70 72/72/72 71/71/71
f 73/73/73 71/71/71 72/72/72
f 72/72/72 74/74/74 73/73/73
f 75/75/75 73/73/73 74/74/74
f 74/74/74 76/76/76 75/75/75
f 77/77/77 75/75/75 76/76/76
f 76/76/76 78/78/78 77/77/77
f 77/77/77 78/78/78 79/79/79
f 79/79/79 80/80/80 77/77/77
f 80/80/80 79/79/79 81/81/81
f 81/81/81 82/82/82 80/80/80
f 83/83/83 85/85/85 84/84/84
f 83/83/83 84/84/84 86/86/86
f 84/84/84 87/87/87 86/86/86
f 83/83/83 86/86/86 88/88/88
f 86/86/86 89/89/89 88/88/88
f 86/86/86 90/90/90 89/89/89
f 89/89/89 91/91/91 88/88/88
f 83/83/83 88/88/88 92/92/92
f 88/88/88 93/93/93 92/92/92
f 94/94/94 83/83/83 92/92/92
f 95/95/95 97/97/97 96/96/96
f 96/96/96 98/98/98 95/95/95
f 98/98/98 96/96/96 99/99/99
f 99/99/99 100/100/100 98/98/98
f 100/100/100 99/99/99 101/101/101
f 101/101/101 102/102/102 100/100/100
f 102/102/102 101/101/101 103/103/103
f 103/103/103 104/104/104 102/102/102
f 104/104/104 103/103/103 105/105/105
f 105/105/105 106/106/106 104/104/104
f 106/106/106 105/105/105 107/107/107
f 107/107/107 108/108/108 106/106/106
f 108/108/108 107/107/107 109/109/109
f 109/109/109 110/110/110 108/108/108
f 110/110/110 109/109/109 111/111/111
f 111/111/111 112/112/112 110/110/110
f 112/112/112 111/111/111 113/113/113
f 113/113/113 114/114/114 112/112/112
f 114/114/114 113/113/113 115/115/115
f 115/115/115 116/116/116 114/114/114
f 116/116/116 115/115/115 117/117/117
f 117/117/117 118/118/118 116/116/116
f 118/118/118 117/117/117 97/97/97
f 97/97/97 95/95/95 118/118/118
