#barricade_window1m_C_9075_10.obj

v -0.3000003 1.171494 -0.6855449
v -0.3800007 1.434266 -0.6625562
v -0.3800004 1.171494 -0.6855451
v -0.3000006 1.434266 -0.6625561
v -0.3800004 1.171494 -0.6855451
v -0.3800006 1.321379 0.6277558
v -0.3800004 1.058606 0.6047652
v -0.3800007 1.434266 -0.6625562
v -0.3800006 1.321379 0.6277558
v -0.3000007 1.058606 0.6047654
v -0.3800004 1.058606 0.6047652
v -0.3000005 1.321379 0.6277559
v -0.3000007 1.058606 0.6047654
v -0.3000006 1.434266 -0.6625561
v -0.3000003 1.171494 -0.6855449
v -0.3000005 1.321379 0.6277559
v -0.3000005 1.321379 0.6277559
v -0.3800007 1.434266 -0.6625562
v -0.3000006 1.434266 -0.6625561
v -0.3800006 1.321379 0.6277558
v -0.3800004 1.058606 0.6047652
v -0.3000003 1.171494 -0.6855449
v -0.3800004 1.171494 -0.6855451
v -0.3000007 1.058606 0.6047654
v -0.4599835 1.095052 -0.5081008
v -0.3799833 0.9610358 -0.2759794
v -0.3799834 1.095052 -0.5081006
v -0.4599834 0.9610358 -0.2759788
v -0.3799834 1.095052 -0.5081006
v -0.3799834 2.283776 0.487705
v -0.3799835 2.417791 0.255583
v -0.3799833 0.9610358 -0.2759794
v -0.4599834 0.9610358 -0.2759788
v -0.4599836 2.417791 0.2555828
v -0.4599835 2.283776 0.4877048
v -0.4599835 1.095052 -0.5081008
v -0.4599835 2.283776 0.4877048
v -0.3799835 2.417791 0.255583
v -0.3799834 2.283776 0.487705
v -0.4599836 2.417791 0.2555828
v -0.4599836 2.417791 0.2555828
v -0.3799834 1.095052 -0.5081006
v -0.3799835 2.417791 0.255583
v -0.4599835 1.095052 -0.5081008
v -0.3799834 2.283776 0.487705
v -0.4599834 0.9610358 -0.2759788
v -0.4599835 2.283776 0.4877048
v -0.3799833 0.9610358 -0.2759794
v -0.3000007 1.71277 -0.642849
v -0.3800007 1.9509 -0.7066556
v -0.3800004 1.71277 -0.6428491
v -0.3000006 1.9509 -0.7066554
v -0.3800004 1.71277 -0.6428491
v -0.3800005 2.307384 0.623759
v -0.3800005 2.069254 0.6875656
v -0.3800007 1.9509 -0.7066556
v -0.3800005 2.307384 0.623759
v -0.3000004 2.069254 0.6875657
v -0.3800005 2.069254 0.6875656
v -0.3000004 2.307384 0.6237592
v -0.3000004 2.307384 0.6237592
v -0.3800007 1.9509 -0.7066556
v -0.3000006 1.9509 -0.7066554
v -0.3800005 2.307384 0.623759
v -0.3800005 2.069254 0.6875656
v -0.3000007 1.71277 -0.642849
v -0.3800004 1.71277 -0.6428491
v -0.3000004 2.069254 0.6875657
v -0.3000004 2.307384 0.6237592
v -0.3000007 1.71277 -0.642849
v -0.3000004 2.069254 0.6875657
v -0.3000006 1.9509 -0.7066554

vn -0.001168501 0.08715076 -0.9961944
vn -0.001168231 0.08715083 -0.9961944
vn -0.001168501 0.08715075 -0.9961944
vn -0.001168168 0.08715085 -0.9961944
vn -0.9999993 1.165043E-16 0.001172964
vn -0.9999993 1.165043E-16 0.001172964
vn -0.9999993 1.165043E-16 0.001172964
vn -0.9999993 1.165043E-16 0.001172964
vn 0.0011685 -0.0871598 0.9961935
vn 0.0011685 -0.08715981 0.9961935
vn 0.0011685 -0.0871598 0.9961935
vn 0.001168334 -0.08715986 0.9961935
vn 0.9999993 -1.165043E-16 -0.001172964
vn 0.9999993 -1.165043E-16 -0.001172964
vn 0.9999993 -1.165043E-16 -0.001172964
vn 0.9999993 -1.165043E-16 -0.001172964
vn 0.0001042052 0.9961945 0.0871556
vn 0.0001059559 0.9961945 0.08715549
vn 0.0001060305 0.9961945 0.08715549
vn 0.0001041306 0.9961945 0.08715561
vn -0.0001022306 -0.9961945 -0.0871557
vn -0.0001022306 -0.9961945 -0.0871557
vn -0.0001022306 -0.9961945 -0.0871557
vn -0.0001022306 -0.9961945 -0.0871557
vn -0.0005864835 -0.8660244 -0.500001
vn -0.0005864835 -0.8660244 -0.500001
vn -0.0005864835 -0.8660244 -0.500001
vn -0.0005864835 -0.8660244 -0.500001
vn 0.9999993 -1.165043E-16 -0.001172964
vn 0.9999993 -1.165043E-16 -0.001172964
vn 0.9999993 -1.165043E-16 -0.001172964
vn 0.9999993 -1.165043E-16 -0.001172964
vn -0.9999993 1.165043E-16 0.001172964
vn -0.9999993 1.165043E-16 0.001172964
vn -0.9999993 1.165043E-16 0.001172964
vn -0.9999993 1.165043E-16 0.001172964
vn 0.0005864826 0.8660249 0.5000002
vn 0.0005864826 0.8660249 0.5000002
vn 0.0005864826 0.8660249 0.5000002
vn 0.0005864826 0.8660249 0.5000002
vn -0.001015817 0.4999998 -0.8660247
vn -0.001015817 0.4999998 -0.8660247
vn -0.001015817 0.4999998 -0.8660247
vn -0.001015817 0.4999998 -0.8660247
vn 0.001015817 -0.4999997 0.8660248
vn 0.001015817 -0.4999997 0.8660248
vn 0.001015817 -0.4999997 0.8660248
vn 0.001015817 -0.4999997 0.8660248
vn -0.001132997 -0.2588173 -0.9659255
vn -0.001132997 -0.2588173 -0.9659255
vn -0.001132997 -0.2588173 -0.9659255
vn -0.001132997 -0.2588173 -0.9659255
vn -0.9999993 1.165043E-16 0.001172964
vn -0.9999993 1.165043E-16 0.001172964
vn -0.9999993 1.165043E-16 0.001172964
vn -0.9999993 1.165043E-16 0.001172964
vn 0.001132997 0.2588174 0.9659255
vn 0.001132997 0.2588174 0.9659255
vn 0.001132997 0.2588175 0.9659255
vn 0.001132997 0.2588175 0.9659255
vn -0.0003035854 0.9659256 -0.2588189
vn -0.0003035854 0.9659256 -0.2588189
vn -0.0003035854 0.9659256 -0.2588189
vn -0.0003035854 0.9659256 -0.2588189
vn 0.0003035853 -0.9659256 0.2588188
vn 0.0003035853 -0.9659256 0.2588188
vn 0.0003035853 -0.9659256 0.2588188
vn 0.0003035853 -0.9659256 0.2588188
vn 0.9999993 -1.165043E-16 -0.001172964
vn 0.9999993 -1.165043E-16 -0.001172964
vn 0.9999993 -1.165043E-16 -0.001172964
vn 0.9999993 -1.165043E-16 -0.001172964

vt 0.2541504 0.918457
vt 0.2612305 0.9428711
vt 0.2612305 0.918457
vt 0.2541504 0.9428711
vt 0.2612305 0.918457
vt 0.3735352 0.9428711
vt 0.3735352 0.918457
vt 0.2612305 0.9428711
vt 0.3735352 0.9428711
vt 0.3806152 0.918457
vt 0.3735352 0.918457
vt 0.3806152 0.9428711
vt 0.3735352 0.9428711
vt 0.2612305 0.918457
vt 0.2612305 0.9428711
vt 0.3735352 0.918457
vt 0.3735352 0.918457
vt 0.2612305 0.9116211
vt 0.2612305 0.918457
vt 0.3735352 0.9116211
vt 0.3735352 0.918457
vt 0.2612305 0.9116211
vt 0.2612305 0.918457
vt 0.3735352 0.9116211
vt 0.3947754 0.871582
vt 0.3876953 0.8950195
vt 0.3876953 0.871582
vt 0.3947754 0.8950195
vt 0.3876953 0.871582
vt 0.255127 0.8950195
vt 0.255127 0.871582
vt 0.3876953 0.8950195
vt 0.3876953 0.871582
vt 0.255127 0.8950195
vt 0.255127 0.871582
vt 0.3876953 0.8950195
vt 0.2480469 0.8950195
vt 0.255127 0.871582
vt 0.255127 0.8950195
vt 0.2480469 0.871582
vt 0.255127 0.8647461
vt 0.3876953 0.871582
vt 0.255127 0.871582
vt 0.3876953 0.8647461
vt 0.255127 0.8647461
vt 0.3876953 0.871582
vt 0.255127 0.871582
vt 0.3876953 0.8647461
vt 0.3884277 0.9931641
vt 0.3815918 0.96875
vt 0.3815918 0.9931641
vt 0.3884277 0.96875
vt 0.3815918 0.9931641
vt 0.2619629 0.96875
vt 0.2619629 0.9931641
vt 0.3815918 0.96875
vt 0.2619629 0.96875
vt 0.2548828 0.9931641
vt 0.2619629 0.9931641
vt 0.2548828 0.96875
vt 0.2619629 0.9619141
vt 0.3815918 0.96875
vt 0.3815918 0.9619141
vt 0.2619629 0.96875
vt 0.2619629 0.9619141
vt 0.3815918 0.96875
vt 0.3815918 0.9619141
vt 0.2619629 0.96875
vt 0.2619629 0.9931641
vt 0.3815918 0.96875
vt 0.2619629 0.96875
vt 0.3815918 0.9931641

g barricade_window1m_C_9075_10
usemtl barricade_window1m_C_9075_10
usemap barricade_window1m_C_9075_10
f 1/1/1 3/3/3 2/2/2
f 2/2/2 4/4/4 1/1/1
f 5/5/5 7/7/7 6/6/6
f 6/6/6 8/8/8 5/5/5
f 9/9/9 11/11/11 10/10/10
f 10/10/10 12/12/12 9/9/9
f 13/13/13 15/15/15 14/14/14
f 14/14/14 16/16/16 13/13/13
f 17/17/17 19/19/19 18/18/18
f 18/18/18 20/20/20 17/17/17
f 21/21/21 23/23/23 22/22/22
f 22/22/22 24/24/24 21/21/21
f 25/25/25 27/27/27 26/26/26
f 26/26/26 28/28/28 25/25/25
f 29/29/29 31/31/31 30/30/30
f 30/30/30 32/32/32 29/29/29
f 33/33/33 35/35/35 34/34/34
f 34/34/34 36/36/36 33/33/33
f 37/37/37 39/39/39 38/38/38
f 38/38/38 40/40/40 37/37/37
f 41/41/41 43/43/43 42/42/42
f 42/42/42 44/44/44 41/41/41
f 45/45/45 47/47/47 46/46/46
f 46/46/46 48/48/48 45/45/45
f 49/49/49 51/51/51 50/50/50
f 50/50/50 52/52/52 49/49/49
f 53/53/53 55/55/55 54/54/54
f 54/54/54 56/56/56 53/53/53
f 57/57/57 59/59/59 58/58/58
f 58/58/58 60/60/60 57/57/57
f 61/61/61 63/63/63 62/62/62
f 62/62/62 64/64/64 61/61/61
f 65/65/65 67/67/67 66/66/66
f 66/66/66 68/68/68 65/65/65
f 69/69/69 71/71/71 70/70/70
f 70/70/70 72/72/72 69/69/69
