#barricade_concrete_1_19103_208.obj

v -1 0.8000001 0.08510025
v 1 0.7999996 -0.08510245
v 1 0.7999995 0.08510021
v -1 0.8000003 -0.08510093
v 1 -7.874457E-07 0.2657912
v -1 0.3370946 0.1096083
v 0.9999999 0.3370942 0.1096083
v -0.9999999 -2.295132E-08 0.2657912
v 1 0.7999995 0.08510021
v -1 0.8000001 0.08510025
v 1 -7.38855E-07 -0.2657921
v 0.9999999 0.3370942 0.1096083
v 0.9999998 0.3370939 -0.1096103
v 1 -7.874457E-07 0.2657912
v 1 0.7999996 -0.08510245
v 1 0.7999995 0.08510021
v -0.9999998 -2.82102E-07 -0.2657921
v 0.9999998 0.3370939 -0.1096103
v -0.9999998 0.3370946 -0.1096105
v 1 -7.38855E-07 -0.2657921
v -1 0.8000003 -0.08510093
v 1 0.7999996 -0.08510245
v -0.9999999 -2.295132E-08 0.2657912
v -0.9999998 0.3370946 -0.1096105
v -1 0.3370946 0.1096083
v -0.9999998 -2.82102E-07 -0.2657921
v -1 0.8000001 0.08510025
v -1 0.8000003 -0.08510093

vn -1.2989E-07 1 9.276163E-07
vn 3.633767E-08 1 5.624165E-07
vn 4.641053E-08 1 5.402866E-07
vn -1.399629E-07 1 9.497462E-07
vn -0.4445598 0.4203903 0.7909731
vn -0.4755175 0.2409894 0.8460539
vn -0.4755175 0.2409893 0.8460539
vn -0.4445596 0.4203907 0.7909731
vn -0.4892724 0.05286995 0.870527
vn -0.4892724 0.05286992 0.870527
vn 0.8717462 0 0.4899577
vn 0.8717462 0 0.4899577
vn 0.8717462 0 0.4899577
vn 0.8717462 0 0.4899577
vn 0.8717462 0 0.4899577
vn 0.8717462 0 0.4899577
vn 0.4445605 0.4203879 -0.7909741
vn 0.4755175 0.2409882 -0.8460543
vn 0.4755175 0.2409891 -0.846054
vn 0.4445604 0.420388 -0.7909741
vn 0.4892723 0.05287215 -0.8705269
vn 0.4892719 0.0528699 -0.8705273
vn -0.8717462 0 -0.4899577
vn -0.8717462 0 -0.4899577
vn -0.8717462 0 -0.4899577
vn -0.8717462 0 -0.4899577
vn -0.8717462 0 -0.4899577
vn -0.8717462 0 -0.4899577

vt 0.003793716 0.3591309
vt 0.3337402 0.387207
vt 0.3337402 0.3591309
vt 0.003793716 0.387207
vt 0.3337402 0.2214355
vt 0.003793716 0.2827148
vt 0.3337402 0.2827148
vt 0.003793716 0.2214355
vt 0.3337402 0.3591309
vt 0.003793716 0.3591309
vt 0.4475098 0.2214355
vt 0.385498 0.2770996
vt 0.4216309 0.2770996
vt 0.3598633 0.2214355
vt 0.4177246 0.3532715
vt 0.3896484 0.3532715
vt 0.3337402 0.2214355
vt 0.003793716 0.2827148
vt 0.3337402 0.2827148
vt 0.003793716 0.2214355
vt 0.3337402 0.3591309
vt 0.003793716 0.3591309
vt 0.4475098 0.2214355
vt 0.385498 0.2770996
vt 0.4216309 0.2770996
vt 0.3598633 0.2214355
vt 0.4177246 0.3532715
vt 0.3896484 0.3532715

g barricade_concrete_1_19103_208
usemtl barricade_concrete_1_19103_208
usemap barricade_concrete_1_19103_208
f 1/1/1 3/3/3 2/2/2
f 2/2/2 4/4/4 1/1/1
f 5/5/5 7/7/7 6/6/6
f 6/6/6 8/8/8 5/5/5
f 6/6/6 7/7/7 9/9/9
f 9/9/9 10/10/10 6/6/6
f 11/11/11 13/13/13 12/12/12
f 12/12/12 14/14/14 11/11/11
f 12/12/12 13/13/13 15/15/15
f 15/15/15 16/16/16 12/12/12
f 17/17/17 19/19/19 18/18/18
f 18/18/18 20/20/20 17/17/17
f 18/18/18 19/19/19 21/21/21
f 21/21/21 22/22/22 18/18/18
f 23/23/23 25/25/25 24/24/24
f 24/24/24 26/26/26 23/23/23
f 24/24/24 25/25/25 27/27/27
f 27/27/27 28/28/28 24/24/24
