#barricade_window1m_A_2_20355_206.obj

v -0.3 1.646866 -0.6825686
v -0.38 1.894734 -0.5923513
v -0.3800001 1.646866 -0.6825685
v -0.3 1.894734 -0.5923514
v -0.3800001 1.646866 -0.6825685
v -0.3800001 1.451736 0.6247773
v -0.3800001 1.203867 0.53456
v -0.38 1.894734 -0.5923513
v -0.3800001 1.451736 0.6247773
v -0.3 1.203867 0.5345599
v -0.3800001 1.203867 0.53456
v -0.3 1.451736 0.6247771
v -0.3 1.203867 0.5345599
v -0.3 1.894734 -0.5923514
v -0.3 1.646866 -0.6825686
v -0.3 1.451736 0.6247771
v -0.3 1.451736 0.6247771
v -0.38 1.894734 -0.5923513
v -0.3 1.894734 -0.5923514
v -0.3800001 1.451736 0.6247773
v -0.3800001 1.203867 0.53456
v -0.3 1.646866 -0.6825686
v -0.3800001 1.646866 -0.6825685
v -0.3 1.203867 0.5345599

vn 0.1117451 -0.003831878 -0.9937295
vn 0.1117453 -0.003832688 -0.9937294
vn 0.111745 -0.003831635 -0.9937295
vn 0.1117454 -0.003832931 -0.9937294
vn -0.02177918 0.9997429 -0.006303891
vn -0.02177918 0.9997429 -0.006303891
vn -0.02177918 0.9997429 -0.006303891
vn -0.02177918 0.9997429 -0.006303891
vn -0.111745 0.003831634 0.9937295
vn -0.1117451 0.003831634 0.9937295
vn -0.111745 0.003831635 0.9937295
vn -0.1117452 0.003832281 0.9937294
vn 0.02177918 -0.9997429 0.006303891
vn 0.02177918 -0.9997429 0.006303891
vn 0.02177918 -0.9997429 0.006303891
vn 0.02177918 -0.9997429 0.006303891
vn 0.9934983 0.02234518 0.111631
vn 0.9934984 0.02234353 0.1116309
vn 0.9934984 0.02234346 0.1116309
vn 0.9934984 0.02234525 0.111631
vn -0.9934983 -0.02234704 -0.1116309
vn -0.9934983 -0.02234704 -0.1116309
vn -0.9934983 -0.02234704 -0.1116309
vn -0.9934983 -0.02234704 -0.1116309

vt 0.2541504 0.9428711
vt 0.2612305 0.918457
vt 0.2612305 0.9428711
vt 0.2541504 0.918457
vt 0.2612305 0.9428711
vt 0.3735352 0.918457
vt 0.3735352 0.9428711
vt 0.2612305 0.918457
vt 0.3735352 0.918457
vt 0.3806152 0.9428711
vt 0.3735352 0.9428711
vt 0.3806152 0.918457
vt 0.3735352 0.918457
vt 0.2612305 0.9428711
vt 0.2612305 0.918457
vt 0.3735352 0.9428711
vt 0.3735352 0.9116211
vt 0.2612305 0.918457
vt 0.2612305 0.9116211
vt 0.3735352 0.918457
vt 0.3735352 0.9116211
vt 0.2612305 0.918457
vt 0.2612305 0.9116211
vt 0.3735352 0.918457

g barricade_window1m_A_2_20355_206
usemtl barricade_window1m_A_2_20355_206
usemap barricade_window1m_A_2_20355_206
f 1/1/1 3/3/3 2/2/2
f 2/2/2 4/4/4 1/1/1
f 5/5/5 7/7/7 6/6/6
f 6/6/6 8/8/8 5/5/5
f 9/9/9 11/11/11 10/10/10
f 10/10/10 12/12/12 9/9/9
f 13/13/13 15/15/15 14/14/14
f 14/14/14 16/16/16 13/13/13
f 17/17/17 19/19/19 18/18/18
f 18/18/18 20/20/20 17/17/17
f 21/21/21 23/23/23 22/22/22
f 22/22/22 24/24/24 21/21/21
