#barrel03_A_1_19683_155.obj

v -0.1495116 0.9918047 -0.2589509
v -0.2990129 0.9918047 -9.529304E-07
v -0.2589545 0.9918048 -0.1495056
v 0.1495026 0.9918045 -0.2589501
v 0.1495026 0.9918047 0.2589498
v -0.1495116 0.9918048 0.258949
v -0.2589545 0.9918047 0.1495045
v 4.737481E-07 0.9918048 0.2990091
v 0.2990047 0.9918045 -1.236484E-07
v 0.2589454 0.9918046 0.1495045
v 0.2589454 0.9918045 -0.1495056
v 4.737481E-07 0.9918045 -0.2990102
v 4.737481E-07 1.010607 -0.3447401
v -0.1495116 0.9918047 -0.2589509
v -0.1723724 1.010607 -0.2985533
v 4.737481E-07 0.9918045 -0.2990102
v -0.2589545 0.9918048 -0.1495056
v -0.2985543 1.010607 -0.1723705
v -0.2990129 0.9918047 -9.529304E-07
v -0.3447453 1.010607 -9.537523E-07
v -0.2589545 0.9918047 0.1495045
v -0.2985543 1.010607 0.1723686
v -0.1495116 0.9918048 0.258949
v -0.1723724 1.010607 0.2985522
v 4.737481E-07 0.9918048 0.2990091
v 4.737481E-07 1.010607 0.344739
v 0.1495026 0.9918047 0.2589498
v 0.1723634 1.010607 0.2985522
v 0.2589454 0.9918046 0.1495045
v 0.2985453 1.010607 0.1723695
v 0.2990047 0.9918045 -1.236484E-07
v 0.3447372 1.010607 -1.244703E-07
v 0.2589454 0.9918045 -0.1495056
v 0.2985453 1.010607 -0.1723705
v 0.1495026 0.9918045 -0.2589501
v 0.1723634 1.010607 -0.2985533
v -0.01735308 1.012706 0.2249592
v 0.06636792 1.012706 0.2249592
v 0.02451239 1.012706 0.2491286
v 0.06636792 1.012706 0.1766212
v -0.01735308 1.012706 0.1766212
v 0.02451239 1.012706 0.1524526
v -0.01735308 1.012706 0.1766212
v 0.02451239 0.9937004 0.1524526
v 0.02451239 1.012706 0.1524526
v -0.01735308 0.9937004 0.1766212
v -0.01735308 1.012706 0.2249592
v -0.01735308 0.9937004 0.2249592
v 0.02451239 1.012706 0.2491286
v 0.02451239 0.9937005 0.2491286
v 0.06636792 1.012706 0.2249592
v 0.06636792 0.9937004 0.2249592
v 0.06636792 1.012706 0.1766212
v 0.06636792 0.9937004 0.1766212
v 0.06636792 0.9937004 0.2249592
v 0.06636792 1.012706 0.2249592
v -0.1723724 1.010607 -0.2985533
v -9.477636E-06 -1.951143E-07 -0.3447401
v 4.737481E-07 1.010607 -0.3447401
v -0.1723724 -3.720007E-08 -0.2985532
v -0.2985543 1.010607 -0.1723705
v -0.2985543 -2.19663E-08 -0.1723705
v -0.3447453 1.010607 -9.537523E-07
v -0.3447453 -1.474253E-09 -9.095772E-07
v -0.2985543 1.010607 0.1723686
v -0.2985543 1.901779E-08 0.1723687
v 0.1723634 -1.894511E-07 -0.2985532
v 0.1723634 1.010607 -0.2985533
v 0.2985453 -1.746222E-07 -0.1723705
v 0.2985453 1.010607 -0.1723705
v 0.3447372 -1.541301E-07 -8.029523E-08
v 0.3447372 1.010607 -1.244703E-07
v 0.2985453 -1.336381E-07 0.1723695
v 0.2985453 1.010607 0.1723695
v 0.1723634 -1.184043E-07 0.2985522
v 0.1723634 1.010607 0.2985522
v -9.477636E-06 3.950987E-08 0.3447391
v 4.737481E-07 1.010607 0.344739
v -0.1723724 1.010607 0.2985522
v -0.1723724 3.42516E-08 0.2985522
v -0.2985543 1.010607 0.1723686
v -0.2985543 1.901779E-08 0.1723687
v 0.1495026 0.018802 -0.25895
v 0.2990047 0.01880203 -8.11171E-08
v 0.2589454 0.01880201 -0.1495055
v 0.1495026 0.01880206 0.2589499
v 0.2589454 0.01880205 0.1495045
v -0.2990129 0.01880218 -9.103991E-07
v -0.1495116 0.01880221 0.258949
v -9.477636E-06 0.01880222 0.2990092
v -0.2589545 0.0188022 0.1495045
v -0.1495116 0.01880215 -0.2589509
v -0.2589545 0.01880217 -0.1495055
v -9.477636E-06 0.018802 -0.2990102
v -9.477636E-06 -1.951143E-07 -0.3447401
v -0.1495116 0.01880215 -0.2589509
v -9.477636E-06 0.018802 -0.2990102
v -0.1723724 -3.720007E-08 -0.2985532
v -0.2589545 0.01880217 -0.1495055
v -0.2985543 -2.19663E-08 -0.1723705
v -0.2990129 0.01880218 -9.103991E-07
v -0.3447453 -1.474253E-09 -9.095772E-07
v -0.2589545 0.0188022 0.1495045
v -0.2985543 1.901779E-08 0.1723687
v -0.1495116 0.01880221 0.258949
v -0.1723724 3.42516E-08 0.2985522
v -9.477636E-06 0.01880222 0.2990092
v -9.477636E-06 3.950987E-08 0.3447391
v 0.1495026 0.01880206 0.2589499
v 0.1723634 -1.184043E-07 0.2985522
v 0.2589454 0.01880205 0.1495045
v 0.2985453 -1.336381E-07 0.1723695
v 0.2990047 0.01880203 -8.11171E-08
v 0.3447372 -1.541301E-07 -8.029523E-08
v 0.2589454 0.01880201 -0.1495055
v 0.2985453 -1.746222E-07 -0.1723705
v 0.1495026 0.018802 -0.25895
v 0.1723634 -1.894511E-07 -0.2985532

vn 6.242113E-07 1 3.746382E-07
vn 2.908436E-07 1 4.371139E-08
vn 1.64937E-06 1 9.959563E-07
vn 1.582581E-07 1 4.371139E-08
vn 4.371038E-07 1 -2.656524E-07
vn 1.344094E-07 1 -3.795494E-07
vn -9.522635E-07 1 2.988623E-07
vn 2.55153E-07 1 -9.085737E-07
vn 4.337735E-07 1 4.371139E-08
vn 1.90453E-06 1 5.540151E-07
vn -1.649366E-06 1 9.959552E-07
vn 5.103041E-07 1 4.371139E-08
vn -3.561245E-06 0.9248749 0.3802713
vn 0.1901472 0.9248695 0.3293334
vn 0.190141 0.9248692 0.329338
vn -5.252697E-06 0.9248752 0.3802709
vn 0.3293475 0.9248655 0.1901421
vn 0.3293406 0.9248673 0.1901455
vn 0.3802575 0.9248806 6.882883E-06
vn 0.3802584 0.9248803 4.441351E-06
vn 0.3293419 0.9248664 -0.1901471
vn 0.3293429 0.924865 -0.1901521
vn 0.1901457 0.9248698 -0.3293333
vn 0.1901384 0.9248703 -0.3293362
vn -1.458565E-06 0.9248756 -0.3802697
vn -1.129794E-06 0.9248755 -0.3802698
vn -0.1901498 0.9248694 -0.329332
vn -0.1901422 0.9248692 -0.3293369
vn -0.3293465 0.924866 -0.1901418
vn -0.3293392 0.9248677 -0.1901458
vn -0.3802563 0.9248811 -6.611956E-06
vn -0.380257 0.9248809 -4.146365E-06
vn -0.3293402 0.9248675 0.1901452
vn -0.329341 0.924866 0.1901513
vn -0.1901488 0.9248697 0.3293321
vn -0.1901408 0.9248698 0.3293361
vn 0 1 -7.454215E-07
vn 0 1 -7.455355E-07
vn 0 1 -3.112974E-06
vn 0 1 4.371139E-08
vn 0 1 4.371139E-08
vn 0 1 4.371139E-08
vn -0.8660154 -3.602798E-07 -0.5000173
vn 5.054172E-05 -1.956343E-07 -1
vn 5.05417E-05 4.371139E-08 -1
vn -0.8660158 -4.799468E-07 -0.5000168
vn -0.8660169 4.799447E-07 0.5000147
vn -0.8660169 4.799447E-07 0.5000147
vn 5.060764E-05 9.598614E-07 1
vn 5.047612E-05 9.598613E-07 1
vn 0.8660423 4.799028E-07 0.4999709
vn 0.8660423 4.799028E-07 0.4999709
vn 0.8660406 -3.602293E-07 -0.4999736
vn 0.866041 -4.799048E-07 -0.4999731
vn 0.8660423 4.799028E-07 0.4999709
vn 0.8660423 4.799028E-07 0.4999709
vn -0.5000017 1.082385E-06 -0.8660244
vn -7.846999E-06 -1.228457E-06 -1
vn 7.85191E-06 1.072627E-06 -1
vn -0.5000071 -6.427889E-08 -0.8660213
vn -0.8660201 2.18561E-08 -0.5000092
vn -0.86602 2.18561E-08 -0.5000093
vn -1 0 0
vn -1 0 0
vn -0.8660203 -2.185608E-08 0.5000088
vn -0.8660203 -2.185608E-08 0.5000088
vn 0.5000018 -1.218729E-06 -0.8660244
vn 0.5000071 -6.427887E-08 -0.8660212
vn 0.8660201 2.18561E-08 -0.5000092
vn 0.8660201 2.185609E-08 -0.5000091
vn 1 -1.116163E-14 2.553483E-07
vn 1 -9.444454E-15 2.160639E-07
vn 0.8660201 -2.18561E-08 0.5000093
vn 0.86602 -2.18561E-08 0.5000093
vn 0.5000011 -3.785514E-08 0.8660248
vn 0.5000064 -1.115128E-06 0.8660218
vn -6.991339E-06 -4.371139E-08 1
vn 8.642502E-06 -4.371139E-08 1
vn -0.5000023 1.18604E-06 0.8660241
vn -0.5000076 -3.785498E-08 0.866021
vn -0.8660203 -2.185608E-08 0.5000088
vn -0.8660203 -2.185608E-08 0.5000088
vn -2.880559E-07 -1 2.026521E-07
vn 0 -1 7.0087E-08
vn 0 -1 6.492366E-08
vn -2.902917E-07 -1 3.264396E-07
vn 0 -1 6.492409E-08
vn -3.402057E-07 -1 7.008695E-08
vn -4.58156E-07 -1 5.032206E-07
vn -5.103062E-07 -1 2.039282E-06
vn 0 -1 6.492366E-08
vn -4.603913E-07 -1 -4.371139E-08
vn 0 -1 6.492377E-08
vn -5.103082E-07 -1 1.979898E-06
vn 8.057883E-07 -0.9248755 0.3802701
vn 0.1901497 -0.9248693 0.3293325
vn 1.012319E-06 -0.9248756 0.3802697
vn 0.1901426 -0.924869 0.3293374
vn 0.3293463 -0.924866 0.1901417
vn 0.3293392 -0.9248679 0.1901451
vn 0.380255 -0.9248816 6.92185E-06
vn 0.3802557 -0.9248815 4.473196E-06
vn 0.3293397 -0.9248676 -0.1901455
vn 0.3293407 -0.9248661 -0.1901507
vn 0.1901481 -0.9248706 -0.32933
vn 0.19014 -0.9248707 -0.329334
vn 4.652535E-06 -0.9248758 -0.3802693
vn 3.04495E-06 -0.9248756 -0.3802699
vn -0.1901469 -0.9248701 -0.3293318
vn -0.1901402 -0.9248699 -0.3293364
vn -0.3293456 -0.9248664 -0.1901408
vn -0.3293382 -0.9248683 -0.1901448
vn -0.380255 -0.9248816 -6.804374E-06
vn -0.3802556 -0.9248815 -4.358939E-06
vn -0.3293391 -0.924868 0.1901447
vn -0.3293398 -0.9248666 0.1901506
vn -0.1901447 -0.9248706 0.3293321
vn -0.1901374 -0.9248708 0.3293353

vt 0.3205566 0.7666016
vt 0.3283691 0.796875
vt 0.3286133 0.7807617
vt 0.2902832 0.7583008
vt 0.2758789 0.8105469
vt 0.3061523 0.8188477
vt 0.3203125 0.8110352
vt 0.2897949 0.8188477
vt 0.2680664 0.7802734
vt 0.2678223 0.7963867
vt 0.276123 0.7661133
vt 0.3066406 0.7583008
vt 0.3078613 0.753418
vt 0.3205566 0.7666016
vt 0.3242188 0.7626953
vt 0.3066406 0.7583008
vt 0.3286133 0.7807617
vt 0.3334961 0.7792969
vt 0.3283691 0.796875
vt 0.3334961 0.7983398
vt 0.3203125 0.8110352
vt 0.3239746 0.8144531
vt 0.3061523 0.8188477
vt 0.307373 0.8237305
vt 0.2897949 0.8188477
vt 0.2885742 0.8237305
vt 0.2758789 0.8105469
vt 0.2722168 0.8144531
vt 0.2678223 0.7963867
vt 0.2629395 0.7978516
vt 0.2680664 0.7802734
vt 0.2629395 0.7788086
vt 0.276123 0.7661133
vt 0.2724609 0.7626953
vt 0.2902832 0.7583008
vt 0.2890625 0.753418
vt 0.2717285 0.7397461
vt 0.2717285 0.7485352
vt 0.2741699 0.7441406
vt 0.2666016 0.7485352
vt 0.2666016 0.7397461
vt 0.2641602 0.7441406
vt 0.2592773 0.7373047
vt 0.2612305 0.7319336
vt 0.2592773 0.7319336
vt 0.2612305 0.7373047
vt 0.2592773 0.7421875
vt 0.2612305 0.7421875
vt 0.2592773 0.7470703
vt 0.2612305 0.7470703
vt 0.2592773 0.7524414
vt 0.2612305 0.7524414
vt 0.2592773 0.7270508
vt 0.2612305 0.7270508
vt 0.2612305 0.7216797
vt 0.2592773 0.7216797
vt 0.1846924 0.7607422
vt 0.1650391 0.6601563
vt 0.1650391 0.7607422
vt 0.1846924 0.6601563
vt 0.2043457 0.7607422
vt 0.2043457 0.6601563
vt 0.2241211 0.7607422
vt 0.2241211 0.6601563
vt 0.2437744 0.7607422
vt 0.2437744 0.6601563
vt 0.1452637 0.6601563
vt 0.1452637 0.7607422
vt 0.1256104 0.6601563
vt 0.1256104 0.7607422
vt 0.105957 0.6601563
vt 0.105957 0.7607422
vt 0.08624268 0.6601563
vt 0.08624268 0.7607422
vt 0.06658936 0.6601563
vt 0.06658936 0.7607422
vt 0.046875 0.6601563
vt 0.046875 0.7607422
vt 0.02719116 0.7607422
vt 0.02719116 0.6601563
vt 0.007511139 0.7607422
vt 0.007511139 0.6601563
vt 0.3205566 0.7666016
vt 0.3283691 0.796875
vt 0.3286133 0.7807617
vt 0.3061523 0.8188477
vt 0.3203125 0.8110352
vt 0.2680664 0.7802734
vt 0.2758789 0.8105469
vt 0.2897949 0.8188477
vt 0.2678223 0.7963867
vt 0.2902832 0.7583008
vt 0.276123 0.7661133
vt 0.3066406 0.7583008
vt 0.3078613 0.753418
vt 0.2902832 0.7583008
vt 0.3066406 0.7583008
vt 0.2890625 0.753418
vt 0.276123 0.7661133
vt 0.2724609 0.7626953
vt 0.2680664 0.7802734
vt 0.2629395 0.7788086
vt 0.2678223 0.7963867
vt 0.2629395 0.7978516
vt 0.2758789 0.8105469
vt 0.2722168 0.8144531
vt 0.2897949 0.8188477
vt 0.2885742 0.8237305
vt 0.3061523 0.8188477
vt 0.307373 0.8237305
vt 0.3203125 0.8110352
vt 0.3239746 0.8144531
vt 0.3283691 0.796875
vt 0.3334961 0.7983398
vt 0.3286133 0.7807617
vt 0.3334961 0.7792969
vt 0.3205566 0.7666016
vt 0.3242188 0.7626953

g barrel03_A_1_19683_155
usemtl barrel03_A_1_19683_155
usemap barrel03_A_1_19683_155
f 1/1/1 3/3/3 2/2/2
f 1/1/1 2/2/2 4/4/4
f 2/2/2 5/5/5 4/4/4
f 2/2/2 6/6/6 5/5/5
f 2/2/2 7/7/7 6/6/6
f 6/6/6 8/8/8 5/5/5
f 5/5/5 9/9/9 4/4/4
f 5/5/5 10/10/10 9/9/9
f 9/9/9 11/11/11 4/4/4
f 12/12/12 1/1/1 4/4/4
f 13/13/13 15/15/15 14/14/14
f 14/14/14 16/16/16 13/13/13
f 17/17/17 14/14/14 15/15/15
f 15/15/15 18/18/18 17/17/17
f 19/19/19 17/17/17 18/18/18
f 18/18/18 20/20/20 19/19/19
f 21/21/21 19/19/19 20/20/20
f 20/20/20 22/22/22 21/21/21
f 23/23/23 21/21/21 22/22/22
f 22/22/22 24/24/24 23/23/23
f 25/25/25 23/23/23 24/24/24
f 24/24/24 26/26/26 25/25/25
f 27/27/27 25/25/25 26/26/26
f 26/26/26 28/28/28 27/27/27
f 29/29/29 27/27/27 28/28/28
f 28/28/28 30/30/30 29/29/29
f 31/31/31 29/29/29 30/30/30
f 30/30/30 32/32/32 31/31/31
f 33/33/33 31/31/31 32/32/32
f 32/32/32 34/34/34 33/33/33
f 35/35/35 33/33/33 34/34/34
f 34/34/34 36/36/36 35/35/35
f 16/16/16 35/35/35 36/36/36
f 36/36/36 13/13/13 16/16/16
f 37/37/37 39/39/39 38/38/38
f 37/37/37 38/38/38 40/40/40
f 41/41/41 37/37/37 40/40/40
f 42/42/42 41/41/41 40/40/40
f 43/43/43 45/45/45 44/44/44
f 44/44/44 46/46/46 43/43/43
f 47/47/47 43/43/43 46/46/46
f 46/46/46 48/48/48 47/47/47
f 49/49/49 47/47/47 48/48/48
f 48/48/48 50/50/50 49/49/49
f 51/51/51 49/49/49 50/50/50
f 50/50/50 52/52/52 51/51/51
f 44/44/44 45/45/45 53/53/53
f 53/53/53 54/54/54 44/44/44
f 55/55/55 54/54/54 53/53/53
f 53/53/53 56/56/56 55/55/55
f 57/57/57 59/59/59 58/58/58
f 58/58/58 60/60/60 57/57/57
f 61/61/61 57/57/57 60/60/60
f 60/60/60 62/62/62 61/61/61
f 63/63/63 61/61/61 62/62/62
f 62/62/62 64/64/64 63/63/63
f 65/65/65 63/63/63 64/64/64
f 64/64/64 66/66/66 65/65/65
f 67/67/67 58/58/58 59/59/59
f 59/59/59 68/68/68 67/67/67
f 69/69/69 67/67/67 68/68/68
f 68/68/68 70/70/70 69/69/69
f 71/71/71 69/69/69 70/70/70
f 70/70/70 72/72/72 71/71/71
f 73/73/73 71/71/71 72/72/72
f 72/72/72 74/74/74 73/73/73
f 75/75/75 73/73/73 74/74/74
f 74/74/74 76/76/76 75/75/75
f 77/77/77 75/75/75 76/76/76
f 76/76/76 78/78/78 77/77/77
f 77/77/77 78/78/78 79/79/79
f 79/79/79 80/80/80 77/77/77
f 80/80/80 79/79/79 81/81/81
f 81/81/81 82/82/82 80/80/80
f 83/83/83 85/85/85 84/84/84
f 83/83/83 84/84/84 86/86/86
f 84/84/84 87/87/87 86/86/86
f 83/83/83 86/86/86 88/88/88
f 86/86/86 89/89/89 88/88/88
f 86/86/86 90/90/90 89/89/89
f 89/89/89 91/91/91 88/88/88
f 83/83/83 88/88/88 92/92/92
f 88/88/88 93/93/93 92/92/92
f 94/94/94 83/83/83 92/92/92
f 95/95/95 97/97/97 96/96/96
f 96/96/96 98/98/98 95/95/95
f 98/98/98 96/96/96 99/99/99
f 99/99/99 100/100/100 98/98/98
f 100/100/100 99/99/99 101/101/101
f 101/101/101 102/102/102 100/100/100
f 102/102/102 101/101/101 103/103/103
f 103/103/103 104/104/104 102/102/102
f 104/104/104 103/103/103 105/105/105
f 105/105/105 106/106/106 104/104/104
f 106/106/106 105/105/105 107/107/107
f 107/107/107 108/108/108 106/106/106
f 108/108/108 107/107/107 109/109/109
f 109/109/109 110/110/110 108/108/108
f 110/110/110 109/109/109 111/111/111
f 111/111/111 112/112/112 110/110/110
f 112/112/112 111/111/111 113/113/113
f 113/113/113 114/114/114 112/112/112
f 114/114/114 113/113/113 115/115/115
f 115/115/115 116/116/116 114/114/114
f 116/116/116 115/115/115 117/117/117
f 117/117/117 118/118/118 116/116/116
f 118/118/118 117/117/117 97/97/97
f 97/97/97 95/95/95 118/118/118
