#barrel02_A_2_9327_1004.obj

v -0.1495153 0.9918046 -0.2589568
v -0.2990168 0.9918046 -5.673611E-06
v -0.2589592 0.9918046 -0.1495114
v 0.1494977 0.9918046 -0.2589566
v 0.1494977 0.9918046 0.2589432
v -0.1495156 0.9918046 0.2589433
v -0.2589591 0.9918046 0.1494989
v -2.89989E-06 0.9918046 0.2990038
v 0.2990013 0.9918046 -5.375658E-06
v 0.2589413 0.9918046 0.1494981
v 0.2589409 0.9918046 -0.1495118
v -3.713518E-06 0.9918046 -0.2990161
v -2.774067E-06 1.010607 -0.3447452
v -0.1495153 0.9918046 -0.2589568
v -0.1723771 1.010607 -0.2985597
v -3.713518E-06 0.9918046 -0.2990161
v -0.2589592 0.9918046 -0.1495114
v -0.2985595 1.010607 -0.1723771
v -0.2990168 0.9918046 -5.673611E-06
v -0.3447491 1.010607 -5.784113E-06
v -0.2589591 0.9918046 0.1494989
v -0.2985573 1.010607 0.1723639
v -0.1495156 0.9918046 0.2589433
v -0.172378 1.010607 0.2985459
v -2.89989E-06 0.9918046 0.2990038
v -4.074855E-06 1.010607 0.3447333
v 0.1494977 0.9918046 0.2589432
v 0.1723594 1.010607 0.2985461
v 0.2589413 0.9918046 0.1494981
v 0.2985415 1.010607 0.1723638
v 0.2990013 0.9918046 -5.375658E-06
v 0.3447338 1.010607 -5.598503E-06
v 0.2589409 0.9918046 -0.1495118
v 0.2985423 1.010607 -0.1723756
v 0.1494977 0.9918046 -0.2589566
v 0.1723601 1.010607 -0.2985592
v -0.01735745 1.012706 0.2249536
v 0.06636307 1.012706 0.2249538
v 0.02450811 1.012706 0.2491229
v 0.06636425 1.012706 0.1766157
v -0.01735675 1.012706 0.1766161
v 0.02450685 1.012706 0.1524461
v -0.01735675 1.012706 0.1766161
v 0.02450685 0.9937001 0.1524461
v 0.02450685 1.012706 0.1524461
v -0.01735675 0.9937001 0.1766161
v -0.01735745 1.012706 0.2249536
v -0.01735745 0.9937001 0.2249536
v 0.02450811 1.012706 0.2491229
v 0.02450811 0.9937005 0.2491229
v 0.06636307 1.012706 0.2249538
v 0.06636307 0.9937001 0.2249538
v 0.06636425 1.012706 0.1766157
v 0.06636425 0.9937001 0.1766157
v 0.06636307 0.9937001 0.2249538
v 0.06636307 1.012706 0.2249538
v -0.1723771 1.010607 -0.2985597
v -1.407161E-05 -2.725764E-07 -0.3447462
v -2.774067E-06 1.010607 -0.3447452
v -0.1723771 -6.850059E-08 -0.2985597
v -0.2985595 1.010607 -0.1723771
v -0.2985595 -6.850059E-08 -0.1723771
v -0.3447491 1.010607 -5.784113E-06
v -0.3447491 -6.850058E-08 -5.784113E-06
v -0.2985573 1.010607 0.1723639
v -0.2985573 -6.850058E-08 0.1723639
v 0.1723601 -2.725764E-07 -0.2985592
v 0.1723601 1.010607 -0.2985592
v 0.2985423 -2.725764E-07 -0.1723756
v 0.2985423 1.010607 -0.1723756
v 0.3447338 -2.725764E-07 -5.598503E-06
v 0.3447338 1.010607 -5.598503E-06
v 0.2985415 -2.725764E-07 0.1723638
v 0.2985415 1.010607 0.1723638
v 0.1723594 -2.725764E-07 0.2985461
v 0.1723594 1.010607 0.2985461
v -1.270562E-05 -6.850058E-08 0.3447342
v -4.074855E-06 1.010607 0.3447333
v -0.172378 1.010607 0.2985459
v -0.172378 -6.850058E-08 0.2985459
v -0.2985573 1.010607 0.1723639
v -0.2985573 -6.850058E-08 0.1723639
v 0.1494977 0.01880185 -0.2589566
v 0.2990013 0.01880205 -5.375658E-06
v 0.2589409 0.01880205 -0.1495118
v 0.1494977 0.01880205 0.2589432
v 0.2589413 0.01880205 0.1494981
v -0.2990168 0.01880205 -5.673611E-06
v -0.1495156 0.01880205 0.2589433
v -1.419743E-05 0.01880205 0.2990028
v -0.2589591 0.01880205 0.1494989
v -0.1495153 0.01880205 -0.2589568
v -0.2589592 0.01880205 -0.1495114
v -1.234428E-05 0.01880185 -0.2990152
v -1.407161E-05 -2.725764E-07 -0.3447462
v -0.1495153 0.01880205 -0.2589568
v -1.234428E-05 0.01880185 -0.2990152
v -0.1723771 -6.850059E-08 -0.2985597
v -0.2589592 0.01880205 -0.1495114
v -0.2985595 -6.850059E-08 -0.1723771
v -0.2990168 0.01880205 -5.673611E-06
v -0.3447491 -6.850058E-08 -5.784113E-06
v -0.2589591 0.01880205 0.1494989
v -0.2985573 -6.850058E-08 0.1723639
v -0.1495156 0.01880205 0.2589433
v -0.172378 -6.850058E-08 0.2985459
v -1.419743E-05 0.01880205 0.2990028
v -1.270562E-05 -6.850058E-08 0.3447342
v 0.1494977 0.01880205 0.2589432
v 0.1723594 -2.725764E-07 0.2985461
v 0.2589413 0.01880205 0.1494981
v 0.2985415 -2.725764E-07 0.1723638
v 0.2990013 0.01880205 -5.375658E-06
v 0.3447338 -2.725764E-07 -5.598503E-06
v 0.2589409 0.01880205 -0.1495118
v 0.2985423 -2.725764E-07 -0.1723756
v 0.1494977 0.01880185 -0.2589566
v 0.1723601 -2.725764E-07 -0.2985592

vn 7.259855E-07 0.999999 -5.420983E-08
vn 2.62762E-07 0.999999 -1.321243E-07
vn 1.921775E-06 0.999999 -1.383069E-07
vn 1.54476E-07 0.999999 -5.561892E-08
vn 2.037053E-07 0.999999 -4.691856E-07
vn -1.092345E-07 0.999999 -3.875455E-07
vn -6.052863E-07 0.999999 7.935696E-07
vn -3.158813E-07 0.999999 -8.892854E-07
vn 3.794965E-07 0.999999 -2.145985E-07
vn 1.87516E-06 0.999999 -6.464861E-07
vn -7.723867E-07 0.999999 1.76515E-06
vn 4.42001E-07 0.999999 -2.587587E-07
vn 0.2194238 0.9248739 0.3105794
vn 0.3453323 0.9248685 0.159255
vn 0.3453298 0.9248682 0.1592624
vn 0.2194221 0.9248742 0.31058
vn 0.3787036 0.9248646 -0.03474832
vn 0.3787 0.9248663 -0.03474154
vn 0.31057 0.9248797 -0.219413
vn 0.3105693 0.9248794 -0.2194155
vn 0.159262 0.9248655 -0.345337
vn 0.1592599 0.9248641 -0.3453417
vn -0.03473726 0.9248689 -0.378694
vn -0.03474492 0.9248694 -0.3786922
vn -0.2194269 0.9248747 -0.3105752
vn -0.2194267 0.9248745 -0.3105754
vn -0.3453335 0.9248685 -0.1592524
vn -0.3453302 0.9248682 -0.1592608
vn -0.3787026 0.924865 0.03474799
vn -0.3786989 0.9248667 0.03474048
vn -0.3105688 0.9248801 0.2194125
vn -0.3105679 0.92488 0.2194149
vn -0.1592617 0.9248665 0.3453345
vn -0.1592588 0.924865 0.3453399
vn 0.03473398 0.9248688 0.3786948
vn 0.03474289 0.9248689 0.3786935
vn -4.301281E-07 0.999999 -6.088047E-07
vn -4.301939E-07 0.999999 -6.088979E-07
vn -1.796269E-06 0.999999 -2.542445E-06
vn 2.522261E-08 0.999999 3.57002E-08
vn 2.522261E-08 0.999999 3.57002E-08
vn 2.522261E-08 0.999999 3.57002E-08
vn -0.9958202 -3.602794E-07 0.09133688
vn -0.5769854 -1.956341E-07 -0.8167547
vn -0.5769854 4.371134E-08 -0.8167547
vn -0.9958202 -4.799463E-07 0.09133747
vn -0.4187763 4.799443E-07 0.9080894
vn -0.4187763 4.799443E-07 0.9080894
vn 0.577068 9.598604E-07 0.8166963
vn 0.5770679 9.598602E-07 0.8166964
vn 0.9958153 4.799023E-07 -0.09139022
vn 0.9958153 4.799023E-07 -0.09139022
vn 0.4188194 -3.602289E-07 -0.9080696
vn 0.4188199 -4.799044E-07 -0.9080694
vn 0.9958153 4.799023E-07 -0.09139022
vn 0.9958153 4.799023E-07 -0.09139022
vn -0.9080833 1.082384E-06 -0.4187901
vn -0.5770331 -1.228456E-06 -0.816721
vn -0.5770202 1.072626E-06 -0.8167301
vn -0.9080859 -6.427884E-08 -0.4187844
vn -0.9958193 2.185606E-08 0.09134614
vn -0.9958193 2.185607E-08 0.09134603
vn -0.8167255 -1.065813E-14 0.5770264
vn -0.8167255 -1.065813E-14 0.5770264
vn -0.4187825 -2.185606E-08 0.9080865
vn -0.4187825 -2.185606E-08 0.9080865
vn -0.09135494 -1.218728E-06 -0.9958185
vn -0.0913488 -6.42788E-08 -0.995819
vn 0.418782 2.185608E-08 -0.9080868
vn 0.4187821 2.185608E-08 -0.9080868
vn 0.8167256 -5.034865E-16 -0.5770262
vn 0.8167256 1.213688E-15 -0.5770262
vn 0.9958193 -2.185607E-08 -0.09134609
vn 0.9958193 -2.185607E-08 -0.09134603
vn 0.908083 -3.78551E-08 0.4187908
vn 0.9080856 -1.115127E-06 0.4187852
vn 0.5770209 -4.371134E-08 0.8167296
vn 0.5770337 -4.371134E-08 0.8167205
vn 0.0913544 1.186039E-06 0.9958185
vn 0.09134823 -3.785494E-08 0.9958191
vn -0.4187825 -2.185606E-08 0.9080865
vn -0.4187825 -2.185606E-08 0.9080865
vn -1.183269E-07 -0.999999 3.317271E-07
vn 4.044209E-08 -0.999999 5.724185E-08
vn 3.746271E-08 -0.999999 5.302482E-08
vn -4.872425E-08 -0.999999 4.341176E-07
vn 3.746295E-08 -0.999999 5.302517E-08
vn -2.374126E-07 -0.999999 2.535495E-07
vn -8.381591E-08 -0.999999 6.753613E-07
vn 7.5994E-07 -0.999999 1.959994E-06
vn 3.746271E-08 -0.999999 5.302482E-08
vn -4.01236E-07 -0.999999 2.299578E-07
vn 3.746277E-08 -0.999999 5.302491E-08
vn 7.256724E-07 -0.999999 1.911495E-06
vn 0.2194266 -0.9248745 0.3105758
vn 0.3453338 -0.9248683 0.1592529
vn 0.2194266 -0.9248747 0.3105754
vn 0.3453308 -0.924868 0.159261
vn 0.3787023 -0.9248651 -0.03474791
vn 0.3786986 -0.9248669 -0.03474103
vn 0.310568 -0.9248807 -0.2194116
vn 0.3105671 -0.9248805 -0.219414
vn 0.1592611 -0.9248666 -0.3453344
vn 0.1592589 -0.9248652 -0.3453393
vn -0.03473337 -0.9248696 -0.3786927
vn -0.0347423 -0.9248698 -0.3786913
vn -0.2194218 -0.9248748 -0.3105784
vn -0.2194234 -0.9248747 -0.3105779
vn -0.3453311 -0.9248692 -0.1592539
vn -0.3453282 -0.9248689 -0.1592616
vn -0.3787012 -0.9248655 0.03474829
vn -0.3786975 -0.9248673 0.03474079
vn -0.3105679 -0.9248807 0.2194117
vn -0.310567 -0.9248805 0.219414
vn -0.1592611 -0.924867 0.3453334
vn -0.1592583 -0.9248656 0.3453386
vn 0.03473741 -0.9248696 0.3786924
vn 0.03474514 -0.9248699 0.3786909

vt 0.3178711 0.8535156
vt 0.3256836 0.8837891
vt 0.3256836 0.8676758
vt 0.2875977 0.8452148
vt 0.2729492 0.8974609
vt 0.3032227 0.90625
vt 0.3173828 0.8979492
vt 0.2871094 0.9057617
vt 0.2651367 0.8671875
vt 0.2651367 0.8837891
vt 0.2734375 0.8535156
vt 0.3037109 0.8452148
vt 0.3051758 0.840332
vt 0.3178711 0.8535156
vt 0.3215332 0.8500977
vt 0.3037109 0.8452148
vt 0.3256836 0.8676758
vt 0.3308105 0.8662109
vt 0.3256836 0.8837891
vt 0.3305664 0.8852539
vt 0.3173828 0.8979492
vt 0.3210449 0.9018555
vt 0.3032227 0.90625
vt 0.3046875 0.9111328
vt 0.2871094 0.9057617
vt 0.2856445 0.9111328
vt 0.2729492 0.8974609
vt 0.2692871 0.9013672
vt 0.2651367 0.8837891
vt 0.2600098 0.8847656
vt 0.2651367 0.8671875
vt 0.2602539 0.8657227
vt 0.2734375 0.8535156
vt 0.2697754 0.8496094
vt 0.2875977 0.8452148
vt 0.2861328 0.840332
vt 0.269043 0.8266602
vt 0.269043 0.8354492
vt 0.2714844 0.8310547
vt 0.263916 0.8354492
vt 0.263916 0.8266602
vt 0.2614746 0.8310547
vt 0.2565918 0.8242188
vt 0.2585449 0.8193359
vt 0.2565918 0.8193359
vt 0.2585449 0.8242188
vt 0.2565918 0.8295898
vt 0.2585449 0.8295898
vt 0.2565918 0.8344727
vt 0.2585449 0.8344727
vt 0.2565918 0.8393555
vt 0.2585449 0.8393555
vt 0.2565918 0.8144531
vt 0.2585449 0.8144531
vt 0.2585449 0.809082
vt 0.2565918 0.809082
vt 0.1846924 0.8745117
vt 0.1650391 0.7734375
vt 0.1650391 0.8745117
vt 0.1846924 0.7734375
vt 0.2043457 0.8745117
vt 0.2043457 0.7734375
vt 0.2241211 0.8745117
vt 0.2241211 0.7734375
vt 0.2437744 0.8745117
vt 0.2437744 0.7734375
vt 0.1452637 0.7734375
vt 0.1452637 0.8745117
vt 0.1256104 0.7734375
vt 0.1256104 0.8745117
vt 0.105957 0.7734375
vt 0.105957 0.8745117
vt 0.08624268 0.7734375
vt 0.08624268 0.8745117
vt 0.06658936 0.7734375
vt 0.06658936 0.8745117
vt 0.046875 0.7734375
vt 0.046875 0.8745117
vt 0.02719116 0.8745117
vt 0.02719116 0.7734375
vt 0.007511139 0.8745117
vt 0.007511139 0.7734375
vt 0.3178711 0.8535156
vt 0.3256836 0.8837891
vt 0.3256836 0.8676758
vt 0.3032227 0.90625
vt 0.3173828 0.8979492
vt 0.2651367 0.8671875
vt 0.2729492 0.8974609
vt 0.2871094 0.9057617
vt 0.2651367 0.8837891
vt 0.2875977 0.8452148
vt 0.2734375 0.8535156
vt 0.3037109 0.8452148
vt 0.3051758 0.840332
vt 0.2875977 0.8452148
vt 0.3037109 0.8452148
vt 0.2861328 0.840332
vt 0.2734375 0.8535156
vt 0.2697754 0.8496094
vt 0.2651367 0.8671875
vt 0.2602539 0.8657227
vt 0.2651367 0.8837891
vt 0.2600098 0.8847656
vt 0.2729492 0.8974609
vt 0.2692871 0.9013672
vt 0.2871094 0.9057617
vt 0.2856445 0.9111328
vt 0.3032227 0.90625
vt 0.3046875 0.9111328
vt 0.3173828 0.8979492
vt 0.3210449 0.9018555
vt 0.3256836 0.8837891
vt 0.3305664 0.8852539
vt 0.3256836 0.8676758
vt 0.3308105 0.8662109
vt 0.3178711 0.8535156
vt 0.3215332 0.8500977

g barrel02_A_2_9327_1004
usemtl barrel02_A_2_9327_1004
usemap barrel02_A_2_9327_1004
f 1/1/1 3/3/3 2/2/2
f 1/1/1 2/2/2 4/4/4
f 2/2/2 5/5/5 4/4/4
f 2/2/2 6/6/6 5/5/5
f 2/2/2 7/7/7 6/6/6
f 6/6/6 8/8/8 5/5/5
f 5/5/5 9/9/9 4/4/4
f 5/5/5 10/10/10 9/9/9
f 9/9/9 11/11/11 4/4/4
f 12/12/12 1/1/1 4/4/4
f 13/13/13 15/15/15 14/14/14
f 14/14/14 16/16/16 13/13/13
f 17/17/17 14/14/14 15/15/15
f 15/15/15 18/18/18 17/17/17
f 19/19/19 17/17/17 18/18/18
f 18/18/18 20/20/20 19/19/19
f 21/21/21 19/19/19 20/20/20
f 20/20/20 22/22/22 21/21/21
f 23/23/23 21/21/21 22/22/22
f 22/22/22 24/24/24 23/23/23
f 25/25/25 23/23/23 24/24/24
f 24/24/24 26/26/26 25/25/25
f 27/27/27 25/25/25 26/26/26
f 26/26/26 28/28/28 27/27/27
f 29/29/29 27/27/27 28/28/28
f 28/28/28 30/30/30 29/29/29
f 31/31/31 29/29/29 30/30/30
f 30/30/30 32/32/32 31/31/31
f 33/33/33 31/31/31 32/32/32
f 32/32/32 34/34/34 33/33/33
f 35/35/35 33/33/33 34/34/34
f 34/34/34 36/36/36 35/35/35
f 16/16/16 35/35/35 36/36/36
f 36/36/36 13/13/13 16/16/16
f 37/37/37 39/39/39 38/38/38
f 37/37/37 38/38/38 40/40/40
f 41/41/41 37/37/37 40/40/40
f 42/42/42 41/41/41 40/40/40
f 43/43/43 45/45/45 44/44/44
f 44/44/44 46/46/46 43/43/43
f 47/47/47 43/43/43 46/46/46
f 46/46/46 48/48/48 47/47/47
f 49/49/49 47/47/47 48/48/48
f 48/48/48 50/50/50 49/49/49
f 51/51/51 49/49/49 50/50/50
f 50/50/50 52/52/52 51/51/51
f 44/44/44 45/45/45 53/53/53
f 53/53/53 54/54/54 44/44/44
f 55/55/55 54/54/54 53/53/53
f 53/53/53 56/56/56 55/55/55
f 57/57/57 59/59/59 58/58/58
f 58/58/58 60/60/60 57/57/57
f 61/61/61 57/57/57 60/60/60
f 60/60/60 62/62/62 61/61/61
f 63/63/63 61/61/61 62/62/62
f 62/62/62 64/64/64 63/63/63
f 65/65/65 63/63/63 64/64/64
f 64/64/64 66/66/66 65/65/65
f 67/67/67 58/58/58 59/59/59
f 59/59/59 68/68/68 67/67/67
f 69/69/69 67/67/67 68/68/68
f 68/68/68 70/70/70 69/69/69
f 71/71/71 69/69/69 70/70/70
f 70/70/70 72/72/72 71/71/71
f 73/73/73 71/71/71 72/72/72
f 72/72/72 74/74/74 73/73/73
f 75/75/75 73/73/73 74/74/74
f 74/74/74 76/76/76 75/75/75
f 77/77/77 75/75/75 76/76/76
f 76/76/76 78/78/78 77/77/77
f 77/77/77 78/78/78 79/79/79
f 79/79/79 80/80/80 77/77/77
f 80/80/80 79/79/79 81/81/81
f 81/81/81 82/82/82 80/80/80
f 83/83/83 85/85/85 84/84/84
f 83/83/83 84/84/84 86/86/86
f 84/84/84 87/87/87 86/86/86
f 83/83/83 86/86/86 88/88/88
f 86/86/86 89/89/89 88/88/88
f 86/86/86 90/90/90 89/89/89
f 89/89/89 91/91/91 88/88/88
f 83/83/83 88/88/88 92/92/92
f 88/88/88 93/93/93 92/92/92
f 94/94/94 83/83/83 92/92/92
f 95/95/95 97/97/97 96/96/96
f 96/96/96 98/98/98 95/95/95
f 98/98/98 96/96/96 99/99/99
f 99/99/99 100/100/100 98/98/98
f 100/100/100 99/99/99 101/101/101
f 101/101/101 102/102/102 100/100/100
f 102/102/102 101/101/101 103/103/103
f 103/103/103 104/104/104 102/102/102
f 104/104/104 103/103/103 105/105/105
f 105/105/105 106/106/106 104/104/104
f 106/106/106 105/105/105 107/107/107
f 107/107/107 108/108/108 106/106/106
f 108/108/108 107/107/107 109/109/109
f 109/109/109 110/110/110 108/108/108
f 110/110/110 109/109/109 111/111/111
f 111/111/111 112/112/112 110/110/110
f 112/112/112 111/111/111 113/113/113
f 113/113/113 114/114/114 112/112/112
f 114/114/114 113/113/113 115/115/115
f 115/115/115 116/116/116 114/114/114
f 116/116/116 115/115/115 117/117/117
f 117/117/117 118/118/118 116/116/116
f 118/118/118 117/117/117 97/97/97
f 97/97/97 95/95/95 118/118/118
