#barricade_window1m_B_1_9319_11.obj

v -0.3000009 1.174425 -0.6855478
v -0.3800009 1.437198 -0.6625566
v -0.380001 1.174425 -0.6855479
v -0.3000008 1.437198 -0.6625565
v -0.380001 1.174425 -0.6855479
v -0.3800008 1.324311 0.6277558
v -0.380001 1.061538 0.6047648
v -0.3800009 1.437198 -0.6625566
v -0.3800008 1.324311 0.6277558
v -0.3000009 1.061538 0.604765
v -0.380001 1.061538 0.6047648
v -0.3000008 1.32431 0.6277555
v -0.3000009 1.061538 0.604765
v -0.3000008 1.437198 -0.6625565
v -0.3000009 1.174425 -0.6855478
v -0.3000008 1.32431 0.6277555
v -0.3000008 1.32431 0.6277555
v -0.3800009 1.437198 -0.6625566
v -0.3000008 1.437198 -0.6625565
v -0.3800008 1.324311 0.6277558
v -0.380001 1.061538 0.6047648
v -0.3000009 1.174425 -0.6855478
v -0.380001 1.174425 -0.6855479
v -0.3000009 1.061538 0.604765
v -0.3000008 1.529284 -0.614527
v -0.380001 1.760946 -0.698846
v -0.3800009 1.529284 -0.6145271
v -0.3000009 1.760946 -0.6988458
v -0.3800009 1.529284 -0.6145271
v -0.3800012 2.232027 0.5954363
v -0.380001 2.000364 0.6797552
v -0.380001 1.760946 -0.698846
v -0.3800012 2.232027 0.5954363
v -0.3000009 2.000364 0.6797553
v -0.380001 2.000364 0.6797552
v -0.3000011 2.232027 0.5954365
v -0.3000011 2.232027 0.5954365
v -0.380001 1.760946 -0.698846
v -0.3000009 1.760946 -0.6988458
v -0.3800012 2.232027 0.5954363
v -0.380001 2.000364 0.6797552
v -0.3000008 1.529284 -0.614527
v -0.3800009 1.529284 -0.6145271
v -0.3000009 2.000364 0.6797553
v -0.3000011 2.232027 0.5954365
v -0.3000008 1.529284 -0.614527
v -0.3000009 2.000364 0.6797553
v -0.3000009 1.760946 -0.6988458

vn -0.001168203 0.08715986 -0.9961935
vn -0.001167933 0.08715993 -0.9961935
vn -0.001168203 0.08715986 -0.9961935
vn -0.001167871 0.08715995 -0.9961935
vn -0.9999993 1.300934E-15 0.001172666
vn -0.9999993 1.300934E-15 0.001172666
vn -0.9999993 1.300934E-15 0.001172666
vn -0.9999993 1.300934E-15 0.001172666
vn 0.001168203 -0.08715969 0.9961935
vn 0.001168203 -0.08715968 0.9961935
vn 0.001168203 -0.08715969 0.9961935
vn 0.001167871 -0.08715977 0.9961935
vn 0.9999993 -1.300934E-15 -0.001172666
vn 0.9999993 -1.300934E-15 -0.001172666
vn 0.9999993 -1.300934E-15 -0.001172666
vn 0.9999993 -1.300934E-15 -0.001172666
vn 0.0001060045 0.9961945 0.08715549
vn 0.0001060045 0.9961945 0.08715549
vn 0.0001060045 0.9961945 0.08715549
vn 0.0001060045 0.9961945 0.08715549
vn -0.0001022044 -0.9961945 -0.08715555
vn -0.0001022044 -0.9961945 -0.08715555
vn -0.0001022044 -0.9961945 -0.08715555
vn -0.0001022044 -0.9961945 -0.08715555
vn -0.001101944 -0.3420224 -0.9396909
vn -0.001101944 -0.3420224 -0.9396909
vn -0.001101944 -0.3420224 -0.9396909
vn -0.001101944 -0.3420224 -0.9396909
vn -0.9999993 1.300934E-15 0.001172666
vn -0.9999993 1.300934E-15 0.001172666
vn -0.9999993 1.300934E-15 0.001172666
vn -0.9999993 1.300934E-15 0.001172666
vn 0.001101944 0.3420223 0.939691
vn 0.001101944 0.3420223 0.939691
vn 0.001101944 0.3420223 0.939691
vn 0.001101944 0.3420223 0.939691
vn -0.0004010756 0.9396923 -0.34202
vn -0.0004010756 0.9396923 -0.34202
vn -0.0004010756 0.9396923 -0.34202
vn -0.0004010756 0.9396923 -0.34202
vn 0.0004010754 -0.9396923 0.3420199
vn 0.0004010754 -0.9396923 0.3420199
vn 0.0004010754 -0.9396923 0.3420199
vn 0.0004010754 -0.9396923 0.3420199
vn 0.9999993 -1.300934E-15 -0.001172666
vn 0.9999993 -1.300934E-15 -0.001172666
vn 0.9999993 -1.300934E-15 -0.001172666
vn 0.9999993 -1.300934E-15 -0.001172666

vt 0.2548828 0.96875
vt 0.2619629 0.9931641
vt 0.2619629 0.96875
vt 0.2548828 0.9931641
vt 0.2619629 0.96875
vt 0.3815918 0.9931641
vt 0.3815918 0.96875
vt 0.2619629 0.9931641
vt 0.3815918 0.9931641
vt 0.3886719 0.96875
vt 0.3815918 0.96875
vt 0.3886719 0.9931641
vt 0.3815918 0.9931641
vt 0.2619629 0.96875
vt 0.2619629 0.9931641
vt 0.3815918 0.96875
vt 0.3815918 0.96875
vt 0.2619629 0.9619141
vt 0.2619629 0.96875
vt 0.3815918 0.9619141
vt 0.3815918 0.96875
vt 0.2619629 0.9619141
vt 0.2619629 0.96875
vt 0.3815918 0.9619141
vt 0.2480469 0.871582
vt 0.255127 0.8950195
vt 0.255127 0.871582
vt 0.2480469 0.8950195
vt 0.255127 0.871582
vt 0.3876953 0.8950195
vt 0.3876953 0.871582
vt 0.255127 0.8950195
vt 0.3876953 0.8950195
vt 0.3945313 0.871582
vt 0.3876953 0.871582
vt 0.3945313 0.8950195
vt 0.3876953 0.871582
vt 0.255127 0.8647461
vt 0.255127 0.871582
vt 0.3876953 0.8647461
vt 0.3876953 0.871582
vt 0.255127 0.8647461
vt 0.255127 0.871582
vt 0.3876953 0.8647461
vt 0.3876953 0.871582
vt 0.255127 0.8950195
vt 0.3876953 0.8950195
vt 0.255127 0.871582

g barricade_window1m_B_1_9319_11
usemtl barricade_window1m_B_1_9319_11
usemap barricade_window1m_B_1_9319_11
f 1/1/1 3/3/3 2/2/2
f 2/2/2 4/4/4 1/1/1
f 5/5/5 7/7/7 6/6/6
f 6/6/6 8/8/8 5/5/5
f 9/9/9 11/11/11 10/10/10
f 10/10/10 12/12/12 9/9/9
f 13/13/13 15/15/15 14/14/14
f 14/14/14 16/16/16 13/13/13
f 17/17/17 19/19/19 18/18/18
f 18/18/18 20/20/20 17/17/17
f 21/21/21 23/23/23 22/22/22
f 22/22/22 24/24/24 21/21/21
f 25/25/25 27/27/27 26/26/26
f 26/26/26 28/28/28 25/25/25
f 29/29/29 31/31/31 30/30/30
f 30/30/30 32/32/32 29/29/29
f 33/33/33 35/35/35 34/34/34
f 34/34/34 36/36/36 33/33/33
f 37/37/37 39/39/39 38/38/38
f 38/38/38 40/40/40 37/37/37
f 41/41/41 43/43/43 42/42/42
f 42/42/42 44/44/44 41/41/41
f 45/45/45 47/47/47 46/46/46
f 46/46/46 48/48/48 45/45/45
