#cabinetWall02_droorR_19763_350.obj

v -0.02681819 8.029617E-08 -6.655736E-07
v -0.02681819 0.5400003 -0.3180012
v -0.02681819 0.54 -1.126304E-06
v -0.02681819 3.189908E-07 -0.3180007
v -0.02681819 0.54 -1.126304E-06
v -4.145327E-08 8.029617E-08 -6.655736E-07
v -0.02681819 8.029617E-08 -6.655736E-07
v -4.145329E-08 0.54 -1.126304E-06
v -0.02681819 0.5400003 -0.3180012
v -4.145329E-08 0.54 -1.126304E-06
v -0.02681819 0.54 -1.126304E-06
v -4.145329E-08 0.5400003 -0.3180012
v -0.02681819 3.189908E-07 -0.3180007
v -4.145329E-08 0.5400003 -0.3180012
v -0.02681819 0.5400003 -0.3180012
v -4.145327E-08 3.189908E-07 -0.3180007
v -0.02681819 8.029617E-08 -6.655736E-07
v -4.145327E-08 3.189908E-07 -0.3180007
v -0.02681819 3.189908E-07 -0.3180007
v -4.145327E-08 8.029617E-08 -6.655736E-07
v -4.145327E-08 8.029617E-08 -6.655736E-07
v -4.145329E-08 0.5400003 -0.3180012
v -4.145327E-08 3.189908E-07 -0.3180007
v -4.145329E-08 0.54 -1.126304E-06
v -0.05734904 0.1014332 -0.2927511
v -0.04840689 0.1125725 -0.3030799
v -0.04840689 0.1171863 -0.2927505
v -0.04840689 0.1014333 -0.3073584
v -0.04840689 0.09029409 -0.3030801
v -0.04840689 0.08567999 -0.2927518
v -0.04840689 0.09029399 -0.282424
v -0.04840689 0.1014332 -0.2781455
v -0.04840689 0.1125724 -0.2824237
v -0.02681902 0.1171864 -0.3073578
v -0.02681902 0.1237116 -0.2927508
v -0.02681902 0.1014331 -0.3134073
v -0.02681902 0.08567992 -0.3073574
v -0.02681902 0.07915472 -0.2927514
v -0.02681902 0.08567989 -0.2781444
v -0.02681902 0.1014331 -0.272095
v -0.02681902 0.1171864 -0.2781448

vn -1 -2.468461E-08 -2.235645E-07
vn -1 -2.468461E-08 -2.235645E-07
vn -1 -2.468461E-08 -2.235645E-07
vn -1 -1.151947E-08 -1.043301E-07
vn -3.556046E-07 0.1097466 0.9939596
vn -3.556045E-07 0.1097466 0.9939596
vn -3.556045E-07 0.1097466 0.9939596
vn -3.556041E-07 0.1097466 0.9939596
vn 2.842171E-14 0.9939596 -0.1097464
vn 2.842171E-14 0.9939596 -0.1097464
vn 2.842171E-14 0.9939596 -0.1097464
vn 2.842171E-14 0.9939596 -0.1097464
vn -3.56074E-15 -0.1097468 -0.9939595
vn -3.56074E-15 -0.1097468 -0.9939595
vn -3.56074E-15 -0.1097468 -0.9939595
vn -3.56074E-15 -0.1097468 -0.9939595
vn -2.842171E-14 -0.9939596 0.1097465
vn -2.842171E-14 -0.9939596 0.1097465
vn -2.842171E-14 -0.9939596 0.1097465
vn -2.842171E-14 -0.9939596 0.1097465
vn 1 1.151947E-08 1.043301E-07
vn 1 1.151947E-08 1.043301E-07
vn 1 1.151947E-08 1.043301E-07
vn 1 -2.864081E-14 -4.200403E-16
vn -1 2.774508E-07 -3.053912E-07
vn -0.5732157 0.4947575 -0.6531758
vn -0.5805937 0.8092754 -0.08935447
vn -0.5657018 -0.09049398 -0.8196294
vn -0.5732178 -0.6253442 -0.5294959
vn -0.5805932 -0.8092762 0.08935164
vn -0.5732164 -0.4947595 0.6531737
vn -0.5657033 0.09049413 0.8196283
vn -0.5732184 0.6253436 0.5294961
vn -0.2793576 0.5831402 -0.7628281
vn -0.2893365 0.9514459 -0.1050488
vn -0.2698523 -0.105672 -0.9570858
vn -0.2793523 -0.7355244 -0.6172246
vn -0.2893361 -0.9514458 0.1050496
vn -0.2793579 -0.5831434 0.7628256
vn -0.2698545 0.1056704 0.9570854
vn -0.2793525 0.7355217 0.6172276

vt 0.1942139 0.875
vt 0.1191406 0.9926758
vt 0.1942139 0.9926758
vt 0.1191406 0.875
vt 0.1942139 0.9926758
vt 0.1984863 0.875
vt 0.1942139 0.875
vt 0.1984863 0.9926758
vt 0.1191406 0.9926758
vt 0.1942139 0.9970703
vt 0.1942139 0.9926758
vt 0.1191406 0.9970703
vt 0.1191406 0.875
vt 0.1148682 0.9926758
vt 0.1191406 0.9926758
vt 0.1148682 0.875
vt 0.1942139 0.875
vt 0.1191406 0.8706055
vt 0.1191406 0.875
vt 0.1942139 0.8706055
vt 0.01537323 0.8666992
vt 0.09039307 0.9848633
vt 0.09039307 0.8666992
vt 0.01537323 0.9848633
vt 0.1199951 0.8544922
vt 0.1177368 0.8564453
vt 0.1199951 0.8574219
vt 0.1167603 0.8544922
vt 0.1177368 0.8520508
vt 0.1199951 0.8510742
vt 0.1223145 0.8520508
vt 0.12323 0.8544922
vt 0.1223145 0.8564453
vt 0.1153564 0.8588867
vt 0.1199951 0.8608398
vt 0.1134033 0.8544922
vt 0.1153564 0.8496094
vt 0.1199951 0.8476563
vt 0.1246948 0.8496094
vt 0.1265869 0.8544922
vt 0.1246948 0.8588867

g cabinetWall02_droorR_19763_350
usemtl cabinetWall02_droorR_19763_350
usemap cabinetWall02_droorR_19763_350
f 1/1/1 3/3/3 2/2/2
f 2/2/2 4/4/4 1/1/1
f 5/5/5 7/7/7 6/6/6
f 6/6/6 8/8/8 5/5/5
f 9/9/9 11/11/11 10/10/10
f 10/10/10 12/12/12 9/9/9
f 13/13/13 15/15/15 14/14/14
f 14/14/14 16/16/16 13/13/13
f 17/17/17 19/19/19 18/18/18
f 18/18/18 20/20/20 17/17/17
f 21/21/21 23/23/23 22/22/22
f 22/22/22 24/24/24 21/21/21
f 25/25/25 27/27/27 26/26/26
f 25/25/25 26/26/26 28/28/28
f 25/25/25 28/28/28 29/29/29
f 25/25/25 29/29/29 30/30/30
f 25/25/25 30/30/30 31/31/31
f 25/25/25 31/31/31 32/32/32
f 25/25/25 32/32/32 33/33/33
f 25/25/25 33/33/33 27/27/27
f 34/34/34 26/26/26 27/27/27
f 27/27/27 35/35/35 34/34/34
f 35/35/35 27/27/27 33/33/33
f 36/36/36 28/28/28 26/26/26
f 26/26/26 34/34/34 36/36/36
f 37/37/37 29/29/29 28/28/28
f 28/28/28 36/36/36 37/37/37
f 38/38/38 30/30/30 29/29/29
f 29/29/29 37/37/37 38/38/38
f 39/39/39 31/31/31 30/30/30
f 30/30/30 38/38/38 39/39/39
f 40/40/40 32/32/32 31/31/31
f 31/31/31 39/39/39 40/40/40
f 41/41/41 33/33/33 32/32/32
f 32/32/32 40/40/40 41/41/41
f 33/33/33 41/41/41 35/35/35
