#cashRegister_10050_670.obj

v -0.2999969 1.382595E-08 0.2477347
v 0.3000025 1.382595E-08 -0.2522675
v -0.2999969 1.382595E-08 -0.2522661
v 0.3000028 1.382595E-08 0.2477333
v -0.2999969 0.1500002 0.2477347
v 0.3000025 0.1499998 -0.2522675
v 0.3000028 0.1500002 0.2477333
v -0.2999969 0.1499998 -0.2522661
v -0.2999969 1.382595E-08 0.2477347
v 0.3000028 0.1500002 0.2477333
v 0.3000028 1.382595E-08 0.2477333
v -0.2999969 0.1500002 0.2477347
v 0.3000028 1.382595E-08 0.2477333
v 0.3000025 0.1499998 -0.2522675
v 0.3000025 1.382595E-08 -0.2522675
v 0.3000028 0.1500002 0.2477333
v 0.3000025 1.382595E-08 -0.2522675
v -0.2999969 0.1499998 -0.2522661
v -0.2999969 1.382595E-08 -0.2522661
v 0.3000025 0.1499998 -0.2522675
v -0.2999969 1.382595E-08 -0.2522661
v -0.2999969 0.1500002 0.2477347
v -0.2999969 1.382595E-08 0.2477347
v -0.2999969 0.1499998 -0.2522661
v -0.02713022 0.2488481 0.2106866
v -0.2556116 0.211816 -0.2152214
v -0.02713008 0.2488481 -0.2152199
v -0.2556107 0.211816 0.2106882
v 0.09989347 0.3367496 0.210686
v 0.09989361 0.3367496 -0.2152205
v 0.1471658 0.3565511 -0.2152188
v 0.1471657 0.3565511 0.2106877
v 0.1899725 0.3474416 -0.2152205
v 0.1899724 0.3474416 0.210686
v 0.2283162 0.3094214 -0.2152193
v 0.2283161 0.3094214 0.2106872
v 0.2699998 0.2488481 0.2106861
v 0.27 0.2488481 -0.2152204
v -0.02713022 0.1500002 0.2106866
v -0.2556107 0.211816 0.2106882
v -0.02713022 0.2488481 0.2106866
v -0.2556107 0.1500002 0.2106882
v 0.08795287 0.1500002 0.210686
v 0.09989347 0.3367496 0.210686
v 0.1471657 0.3565511 0.2106877
v 0.1454173 0.1500002 0.2106879
v 0.1899724 0.3474416 0.210686
v 0.2028807 0.1500002 0.2106867
v 0.2283161 0.3094214 0.2106872
v 0.2699998 0.1500002 0.2106861
v 0.2699998 0.2488481 0.2106861
v 0.2699998 0.1500002 0.2106861
v 0.27 0.2488481 -0.2152204
v 0.27 0.1499998 -0.2152204
v 0.2699998 0.2488481 0.2106861
v 0.27 0.1499998 -0.2152204
v 0.27 0.2488481 -0.2152204
v 0.2283162 0.3094214 -0.2152193
v 0.1899725 0.3474416 -0.2152205
v 0.2028808 0.1499998 -0.2152198
v 0.1471658 0.3565511 -0.2152188
v 0.1454174 0.1499998 -0.2152186
v 0.09989361 0.3367496 -0.2152205
v 0.087953 0.1499998 -0.2152205
v -0.02713008 0.1499998 -0.2152199
v -0.02713008 0.2488481 -0.2152199
v -0.2556116 0.1499998 -0.2152214
v -0.2556116 0.211816 -0.2152214
v -0.2556116 0.1499998 -0.2152214
v -0.2556107 0.211816 0.2106882
v -0.2556107 0.1500002 0.2106882
v -0.2556116 0.211816 -0.2152214
v 0.2210436 0.2741584 0.15145
v 0.2135439 0.4070399 0.1384605
v 0.2135439 0.2741584 0.1384605
v 0.2210436 0.4070399 0.15145
v 0.1985438 0.4070399 0.1384601
v 0.1985438 0.2741584 0.1384601
v 0.2135441 0.2741584 0.1644422
v 0.2135441 0.4070399 0.1644422
v 0.1985441 0.2741584 0.1644417
v 0.1985441 0.4070399 0.1644417
v 0.1910443 0.2741584 0.1514523
v 0.1910443 0.4070399 0.1514523
v 0.1985438 0.2741584 0.1384601
v 0.1985438 0.4070399 0.1384601
v 0.2200922 0.4070399 0.2433664
v 0.1919947 0.4070399 0.05953272
v 0.1577231 0.4070399 0.07200796
v 0.2543648 0.4070399 0.2308943
v 0.2200922 0.4982185 0.2433664
v 0.1919947 0.4982185 0.05953272
v 0.2543648 0.4982185 0.2308943
v 0.1577231 0.4982185 0.07200796
v 0.2200922 0.4070399 0.2433664
v 0.2543648 0.4982185 0.2308943
v 0.2543648 0.4070399 0.2308943
v 0.2200922 0.4982185 0.2433664
v 0.2543648 0.4070399 0.2308943
v 0.1919947 0.4982185 0.05953272
v 0.1919947 0.4070399 0.05953272
v 0.2543648 0.4982185 0.2308943
v 0.1919947 0.4070399 0.05953272
v 0.1577231 0.4982185 0.07200796
v 0.1577231 0.4070399 0.07200796
v 0.1919947 0.4982185 0.05953272
v 0.1577231 0.4070399 0.07200796
v 0.2200922 0.4982185 0.2433664
v 0.2200922 0.4070399 0.2433664
v 0.1577231 0.4982185 0.07200796

vn 1.128104E-07 -0.9999993 3.853154E-08
vn 1.128104E-07 -0.9999993 3.853154E-08
vn 1.128104E-07 -0.9999993 3.853155E-08
vn 1.128104E-07 -0.9999993 3.853155E-08
vn -1.030322E-07 0.9999993 -3.519171E-08
vn -1.030322E-07 0.9999993 -3.519171E-08
vn -1.030322E-07 0.9999993 -3.519171E-08
vn -1.030322E-07 0.9999993 -3.519171E-08
vn 0.9463221 8.344514E-08 0.3232261
vn 0.9463221 8.344514E-08 0.3232261
vn 0.9463221 8.344513E-08 0.3232261
vn 0.9463221 8.344513E-08 0.3232261
vn 0.3232259 1.376676E-14 -0.9463219
vn 0.3232259 1.376676E-14 -0.9463219
vn 0.3232259 1.376676E-14 -0.9463219
vn 0.3232259 1.376676E-14 -0.9463219
vn -0.9463221 -8.344514E-08 -0.3232261
vn -0.9463221 -8.344514E-08 -0.3232261
vn -0.9463221 -8.344513E-08 -0.3232261
vn -0.9463221 -8.344513E-08 -0.3232261
vn -0.3232259 -1.376676E-14 0.9463219
vn -0.3232259 -1.376676E-14 0.9463219
vn -0.3232259 -1.376676E-14 0.9463219
vn -0.3232259 -1.376676E-14 0.9463219
vn -0.1207949 0.9275426 0.3536556
vn -0.05171349 0.9871177 0.1514032
vn -0.1207949 0.9275426 0.3536557
vn -0.05171351 0.9871178 0.1514031
vn -0.1552497 0.8770965 0.4545307
vn -0.1552497 0.8770965 0.4545307
vn -0.03017908 0.995631 0.08835614
vn -0.03017904 0.995631 0.08835603
vn 0.1536615 0.879769 -0.4498816
vn 0.1536615 0.8797691 -0.4498816
vn 0.2480099 0.6412926 -0.7261091
vn 0.2480099 0.6412927 -0.7261091
vn 0.26627 0.566896 -0.7795698
vn 0.26627 0.566896 -0.7795698
vn 0.9463221 1.589684E-07 0.3232261
vn 0.9463221 2.364737E-07 0.3232261
vn 0.9463221 1.531776E-07 0.3232261
vn 0.9463221 2.648409E-07 0.3232261
vn 0.9463221 1.501626E-07 0.3232261
vn 0.9463221 1.642689E-07 0.3232261
vn 0.9463221 1.496917E-07 0.3232261
vn 0.9463221 1.4461E-07 0.3232261
vn 0.9463221 1.479011E-07 0.3232261
vn 0.9463221 1.711661E-07 0.3232261
vn 0.9463221 1.658651E-07 0.323226
vn 0.9463221 1.880301E-07 0.3232261
vn 0.946322 1.492462E-07 0.3232263
vn 0.3232259 1.376676E-14 -0.9463219
vn 0.3232259 1.376676E-14 -0.9463219
vn 0.3232259 1.376676E-14 -0.9463219
vn 0.3232259 1.376676E-14 -0.9463219
vn -0.9463221 -1.601449E-07 -0.3232261
vn -0.946322 -1.492462E-07 -0.3232263
vn -0.9463221 -2.640489E-07 -0.3232259
vn -0.9463221 -1.718884E-07 -0.3232261
vn -0.9463221 -1.461211E-07 -0.3232261
vn -0.9463221 -1.461456E-07 -0.3232261
vn -0.9463221 -1.493267E-07 -0.3232261
vn -0.9463221 -1.479841E-07 -0.3232261
vn -0.9463221 -1.605566E-07 -0.3232261
vn -0.9463221 -1.52751E-07 -0.3232261
vn -0.9463221 -1.572282E-07 -0.3232261
vn -0.9463221 -2.347931E-07 -0.3232261
vn -0.9463221 -2.64841E-07 -0.3232261
vn -0.3232259 3.085524E-07 0.9463219
vn -0.3232259 3.085522E-07 0.9463219
vn -0.3232259 3.085522E-07 0.9463219
vn -0.3232259 3.085524E-07 0.9463219
vn 0.3232258 2.238535E-14 -0.946322
vn -0.6579258 -2.107585E-07 -0.7530831
vn -0.6579259 -2.107585E-07 -0.753083
vn 0.3232261 5.148164E-15 -0.9463218
vn -0.981152 -2.107586E-07 0.1932389
vn -0.9811519 -2.107586E-07 0.1932389
vn 0.9811519 2.96595E-07 -0.1932391
vn 0.9811519 3.350654E-07 -0.1932389
vn 0.6579258 3.350654E-07 0.7530831
vn 0.6579261 2.965949E-07 0.7530829
vn -0.3232259 -1.376676E-14 0.9463219
vn -0.3232258 -1.951249E-14 0.946322
vn -0.9811519 -2.107586E-07 0.1932389
vn -0.981152 -2.107586E-07 0.1932389
vn 1.446561E-07 -0.9999993 4.940878E-08
vn 1.446561E-07 -0.9999993 4.940878E-08
vn 1.446561E-07 -0.9999993 4.940878E-08
vn 1.446561E-07 -0.9999993 4.940878E-08
vn -1.446562E-07 0.9999993 -4.94088E-08
vn -1.446562E-07 0.9999993 -4.94088E-08
vn -1.446562E-07 0.9999993 -4.940881E-08
vn -1.446562E-07 0.9999993 -4.94088E-08
vn 0.9998016 3.520702E-07 -0.01992777
vn 0.9998016 3.520702E-07 -0.01992777
vn 0.9998016 3.520702E-07 -0.0199278
vn 0.9998016 3.520702E-07 -0.0199278
vn -0.01992816 -9.646572E-08 -0.9998015
vn -0.0199281 1.495018E-08 -0.9998015
vn -0.0199281 1.495018E-08 -0.9998015
vn -0.01992819 -1.281431E-07 -0.9998015
vn -0.9998016 4.107525E-08 0.01992783
vn -0.9998016 4.107525E-08 0.01992798
vn -0.9998016 4.107525E-08 0.0199278
vn -0.9998016 4.107524E-08 0.01992804
vn 0.01992816 -1.495018E-08 0.9998015
vn 0.0199281 8.590663E-08 0.9998015
vn 0.01992807 1.28143E-07 0.9998015
vn 0.01992819 -1.495018E-08 0.9998015

vt 1.254883 0.7099609
vt 1.3125 0.7797852
vt 1.3125 0.7099609
vt 1.254883 0.7797852
vt 0.3129883 0.7099609
vt 0.2543945 0.7797852
vt 0.3129883 0.7797852
vt 0.2543945 0.7099609
vt 0.3305664 0.7099609
vt 0.3129883 0.7797852
vt 0.3305664 0.7797852
vt 0.3129883 0.7099609
vt 0.3129883 0.7973633
vt 0.2543945 0.7797852
vt 0.2543945 0.7973633
vt 0.3129883 0.7797852
vt 0.2369385 0.7797852
vt 0.2543945 0.7099609
vt 0.2369385 0.7099609
vt 0.2543945 0.7797852
vt 0.2543945 0.6923828
vt 0.3129883 0.7099609
vt 0.3129883 0.6923828
vt 0.2543945 0.7099609
vt 0.3991699 0.7978516
vt 0.4262695 0.7480469
vt 0.3991699 0.7480469
vt 0.4262695 0.7978516
vt 0.3811035 0.7978516
vt 0.3811035 0.7480469
vt 0.3752441 0.7480469
vt 0.3752441 0.7978516
vt 0.3701172 0.7480469
vt 0.3701172 0.7978516
vt 0.3637695 0.7480469
vt 0.3637695 0.7978516
vt 0.3552246 0.7978516
vt 0.3552246 0.7480469
vt 0.3764648 0.7138672
vt 0.4030762 0.7207031
vt 0.3764648 0.7250977
vt 0.4030762 0.7138672
vt 0.3630371 0.7138672
vt 0.3615723 0.7353516
vt 0.355957 0.737793
vt 0.3562012 0.7138672
vt 0.3510742 0.7368164
vt 0.3496094 0.7138672
vt 0.3466797 0.7324219
vt 0.3417969 0.7138672
vt 0.3417969 0.7250977
vt 0.34375 0.7978516
vt 0.3552246 0.7480469
vt 0.34375 0.7480469
vt 0.3552246 0.7978516
vt 0.3417969 0.7138672
vt 0.3417969 0.7250977
vt 0.3466797 0.7324219
vt 0.3510742 0.7368164
vt 0.3496094 0.7138672
vt 0.355957 0.737793
vt 0.3562012 0.7138672
vt 0.3615723 0.7353516
vt 0.3630371 0.7138672
vt 0.3764648 0.7138672
vt 0.3764648 0.7250977
vt 0.4030762 0.7138672
vt 0.4030762 0.7207031
vt 0.4335938 0.7480469
vt 0.4262695 0.7978516
vt 0.4335938 0.7978516
vt 0.4262695 0.7480469
vt 0.4914551 0.78125
vt 0.4934082 0.796875
vt 0.4934082 0.78125
vt 0.4914551 0.796875
vt 0.4951172 0.796875
vt 0.4951172 0.78125
vt 0.4897461 0.78125
vt 0.4897461 0.796875
vt 0.4880371 0.78125
vt 0.4880371 0.796875
vt 0.4863281 0.78125
vt 0.4863281 0.796875
vt 0.4846191 0.78125
vt 0.4846191 0.796875
vt 0.4753418 0.7783203
vt 0.4484863 0.7729492
vt 0.4484863 0.7783203
vt 0.4753418 0.7729492
vt 0.4753418 0.7539063
vt 0.4484863 0.7592773
vt 0.4753418 0.7592773
vt 0.4484863 0.7539063
vt 0.4807129 0.7729492
vt 0.4753418 0.7592773
vt 0.4753418 0.7729492
vt 0.4807129 0.7592773
vt 0.4753418 0.7729492
vt 0.4484863 0.7592773
vt 0.4484863 0.7729492
vt 0.4753418 0.7592773
vt 0.4484863 0.7729492
vt 0.4431152 0.7592773
vt 0.4431152 0.7729492
vt 0.4484863 0.7592773
vt 0.4484863 0.7783203
vt 0.4753418 0.7915039
vt 0.4753418 0.7783203
vt 0.4484863 0.7915039

g cashRegister_10050_670
usemtl cashRegister_10050_670
usemap cashRegister_10050_670
f 1/1/1 3/3/3 2/2/2
f 2/2/2 4/4/4 1/1/1
f 5/5/5 7/7/7 6/6/6
f 6/6/6 8/8/8 5/5/5
f 9/9/9 11/11/11 10/10/10
f 10/10/10 12/12/12 9/9/9
f 13/13/13 15/15/15 14/14/14
f 14/14/14 16/16/16 13/13/13
f 17/17/17 19/19/19 18/18/18
f 18/18/18 20/20/20 17/17/17
f 21/21/21 23/23/23 22/22/22
f 22/22/22 24/24/24 21/21/21
f 25/25/25 27/27/27 26/26/26
f 26/26/26 28/28/28 25/25/25
f 27/27/27 25/25/25 29/29/29
f 29/29/29 30/30/30 27/27/27
f 31/31/31 30/30/30 29/29/29
f 29/29/29 32/32/32 31/31/31
f 33/33/33 31/31/31 32/32/32
f 32/32/32 34/34/34 33/33/33
f 35/35/35 33/33/33 34/34/34
f 34/34/34 36/36/36 35/35/35
f 35/35/35 36/36/36 37/37/37
f 37/37/37 38/38/38 35/35/35
f 39/39/39 41/41/41 40/40/40
f 40/40/40 42/42/42 39/39/39
f 41/41/41 39/39/39 43/43/43
f 43/43/43 44/44/44 41/41/41
f 45/45/45 44/44/44 43/43/43
f 43/43/43 46/46/46 45/45/45
f 47/47/47 45/45/45 46/46/46
f 46/46/46 48/48/48 47/47/47
f 49/49/49 47/47/47 48/48/48
f 48/48/48 50/50/50 49/49/49
f 50/50/50 51/51/51 49/49/49
f 52/52/52 54/54/54 53/53/53
f 53/53/53 55/55/55 52/52/52
f 56/56/56 58/58/58 57/57/57
f 59/59/59 58/58/58 56/56/56
f 56/56/56 60/60/60 59/59/59
f 61/61/61 59/59/59 60/60/60
f 60/60/60 62/62/62 61/61/61
f 63/63/63 61/61/61 62/62/62
f 62/62/62 64/64/64 63/63/63
f 63/63/63 64/64/64 65/65/65
f 65/65/65 66/66/66 63/63/63
f 66/66/66 65/65/65 67/67/67
f 67/67/67 68/68/68 66/66/66
f 69/69/69 71/71/71 70/70/70
f 70/70/70 72/72/72 69/69/69
f 73/73/73 75/75/75 74/74/74
f 74/74/74 76/76/76 73/73/73
f 77/77/77 74/74/74 75/75/75
f 75/75/75 78/78/78 77/77/77
f 79/79/79 73/73/73 76/76/76
f 76/76/76 80/80/80 79/79/79
f 81/81/81 79/79/79 80/80/80
f 80/80/80 82/82/82 81/81/81
f 83/83/83 81/81/81 82/82/82
f 82/82/82 84/84/84 83/83/83
f 85/85/85 83/83/83 84/84/84
f 84/84/84 86/86/86 85/85/85
f 87/87/87 89/89/89 88/88/88
f 88/88/88 90/90/90 87/87/87
f 91/91/91 93/93/93 92/92/92
f 92/92/92 94/94/94 91/91/91
f 95/95/95 97/97/97 96/96/96
f 96/96/96 98/98/98 95/95/95
f 99/99/99 101/101/101 100/100/100
f 100/100/100 102/102/102 99/99/99
f 103/103/103 105/105/105 104/104/104
f 104/104/104 106/106/106 103/103/103
f 107/107/107 109/109/109 108/108/108
f 108/108/108 110/110/110 107/107/107
