#door_frontR_9104_1855.obj

v 0.0607825 0.1056129 -0.02839688
v 0.002735019 -0.001049789 -0.1696686
v 0.06214912 0.11543 -0.1671387
v 3.31245E-05 -2.807442E-07 1.899954E-05
v 0.001582547 -0.2370494 -0.1485101
v -4.561513E-05 -0.2358132 1.740119E-05
v 0.3508794 0.5204305 -0.6339793
v 0.312812 0.475053 -0.652799
v 0.3711384 0.5855352 -1.243299
v 0.3468345 0.533338 -1.163227
v 0.06214828 0.1382882 -1.140419
v 0.06214973 0.1364936 -1.064016
v 0.001959376 0.00920523 -1.020543
v 0.0003209428 0.01339158 -1.109003
v 0.01468888 -0.5361284 -0.0283975
v 0.01468945 -0.5361285 -0.1510987
v 0.01394337 -0.5361288 -1.058434
v 0.001511994 -0.245113 -1.020937
v 0.001134623 -0.2438884 -1.111244
v 0.01389499 -0.5361288 -1.126908
v 0.113124 -0.008272759 -0.1697922
v 0.1117608 0.09003595 -0.02902683
v 0.1131258 0.0995134 -0.1682352
v 0.1117837 -0.007260684 0.0002627638
v 0.113127 -0.2363703 -0.1484759
v 0.1160418 -0.2351118 7.148767E-05
v 0.3938615 0.5012224 -0.6356681
v 0.3558843 0.455959 -0.6545565
v 0.4162007 0.5691814 -1.245401
v 0.3926117 0.5180551 -1.164632
v 0.1131238 0.1224674 -1.140928
v 0.1131268 0.1219808 -1.064474
v 0.1131262 0.00256516 -1.020981
v 0.1131269 0.006046507 -1.109761
v 0.1125014 -0.5361284 -0.02839871
v 0.1125 -0.5361285 -0.1511145
v 0.1117476 -0.5361288 -1.058458
v 0.1130888 -0.2444374 -1.021
v 0.1130871 -0.243187 -1.111394
v 0.1116976 -0.5361288 -1.126917
v 0.1117608 0.09003595 -0.02902683
v 3.31245E-05 -2.807442E-07 1.899954E-05
v 0.0607825 0.1056129 -0.02839688
v 0.1117837 -0.007260684 0.0002627638
v -4.561513E-05 -0.2358132 1.740119E-05
v 0.1160418 -0.2351118 7.148767E-05
v 0.3938615 0.5012224 -0.6356681
v 0.3508794 0.5204305 -0.6339793
v 0.01468888 -0.5361284 -0.0283975
v 0.1125014 -0.5361284 -0.02839871
v 0.1131258 0.0995134 -0.1682352
v 0.312812 0.475053 -0.652799
v 0.06214912 0.11543 -0.1671387
v 0.312812 0.475053 -0.652799
v 0.3558843 0.455959 -0.6545565
v 0.3558843 0.455959 -0.6545565
v 0.3468345 0.533338 -1.163227
v 0.3926117 0.5180551 -1.164632
v 0.3926117 0.5180551 -1.164632
v 0.06214973 0.1364936 -1.064016
v 0.3468345 0.533338 -1.163227
v 0.06214973 0.1364936 -1.064016
v 0.3926117 0.5180551 -1.164632
v 0.1131268 0.1219808 -1.064474
v 0.1131238 0.1224674 -1.140928
v 0.3711384 0.5855352 -1.243299
v 0.06214828 0.1382882 -1.140419
v 0.4162007 0.5691814 -1.245401
v 0.1131269 0.006046507 -1.109761
v 0.0003209428 0.01339158 -1.109003
v 0.1130871 -0.243187 -1.111394
v 0.001134623 -0.2438884 -1.111244
v 0.1116976 -0.5361288 -1.126917
v 0.01389499 -0.5361288 -1.126908
v 0.4162007 0.5691814 -1.245401
v 0.3508794 0.5204305 -0.6339793
v 0.3711384 0.5855352 -1.243299
v 0.3938615 0.5012224 -0.6356681
v 0.1131268 0.1219808 -1.064474
v 0.06214912 0.11543 -0.1671387
v 0.06214973 0.1364936 -1.064016
v 0.1131258 0.0995134 -0.1682352
v 0.1125 -0.5361285 -0.1511145
v 0.01394337 -0.5361288 -1.058434
v 0.01468945 -0.5361285 -0.1510987
v 0.1117476 -0.5361288 -1.058458
v 0.1125014 -0.5361284 -0.02839871
v 0.01468888 -0.5361284 -0.0283975
v 0.01389499 -0.5361288 -1.126908
v 0.1116976 -0.5361288 -1.126917
v 0.02797716 0.1682394 -0.2666397
v 0.01816921 0.2238663 -0.2666383
v 0.0511407 0.2003079 -0.2666407
v 0.02412262 0.2670709 -0.3221793
v 0.09671958 0.2079292 -0.3221793
v -0.1101374 0.2264408 -0.3221768
v -0.03196026 0.2060691 -0.2666381
v -0.09353488 0.132281 -0.3221793
v -0.02566809 0.1703941 -0.2666379
v 0.04826176 0.1301638 -0.3221788
v 0.1061197 0.1611916 -0.2370773
v 0.08481115 0.1136104 -0.2362448
v 0.1258749 0.2037509 -0.3282547
v 0.06903836 0.1229711 -0.3180915
v -0.09353488 0.132281 -0.3221793
v 0.02412262 0.2670709 -0.3221793
v -0.1101374 0.2264408 -0.3221768
v 0.09671958 0.2079292 -0.3221793
v 0.04826176 0.1301638 -0.3221788
v 0.06903836 0.1229711 -0.3180915
v 0.1258749 0.2037509 -0.3282547
v 0.09312604 0.0995134 -0.1682321
v 0.180143 0.2272817 -0.3425578
v 0.09312672 0.1038571 -0.3415148
v 0.180143 0.2272817 -0.3425578
v 0.06215002 0.1195071 -0.3407442
v 0.09312672 0.1038571 -0.3415148
v 0.1519521 0.2442682 -0.3411314
v 0.1519521 0.2442682 -0.3411314
v 0.06214912 0.11543 -0.1671387
v 0.06215002 0.1195071 -0.3407442

vn -0.8526934 0.5119212 0.1041633
vn -0.9649063 0.2397607 0.1071015
vn -0.8436446 0.5235894 0.1188163
vn -0.967043 0.2373947 0.09204122
vn -0.9941338 -0.02120427 0.1060584
vn -0.9946859 -0.02296284 0.1003626
vn -0.7659613 0.6283315 0.1360222
vn -0.7686766 0.6245939 0.1379056
vn -0.8272848 0.5338703 0.1748768
vn -0.8568663 0.4931406 0.1503063
vn -0.8421628 0.5273939 0.1123254
vn -0.8679779 0.4837625 0.1121956
vn -0.9675728 0.2206891 0.1228783
vn -0.9606366 0.2441327 0.132576
vn -0.9931343 -0.04499742 0.1079788
vn -0.9928117 -0.04379467 0.1113868
vn -0.992776 -0.04329817 0.111898
vn -0.9933695 -0.02075591 0.1130763
vn -0.9929904 -0.02152129 0.1162184
vn -0.9927828 -0.04366701 0.1116941
vn 0.9942579 0.0004042299 -0.1070097
vn 0.9822282 -0.1510173 -0.1114524
vn 0.9524271 -0.2802868 -0.1196729
vn 0.9940506 0.005212008 -0.1087952
vn 0.9931082 0.0003490032 -0.1172013
vn 0.9914227 0.004917493 -0.1306019
vn 0.7664545 -0.6270967 -0.1389122
vn 0.7688165 -0.6236094 -0.141533
vn 0.8309516 -0.5293388 -0.1712293
vn 0.8624908 -0.4849116 -0.1448096
vn 0.9305517 -0.348459 -0.1124714
vn 0.9769943 -0.182483 -0.1103718
vn 0.9938099 -7.034784E-05 -0.111094
vn 0.9938108 -6.930327E-05 -0.111086
vn 0.9931662 -0.004325113 -0.1166292
vn 0.9937622 -0.002087935 -0.1115005
vn 0.9937554 -0.004389571 -0.1114951
vn 0.9938047 -0.002387633 -0.1111149
vn 0.993798 -0.002399793 -0.1111755
vn 0.9937187 -0.004705388 -0.1118085
vn 0.2411382 0.521681 0.8183525
vn 0.1247716 0.114663 0.9855376
vn 0.2525161 0.471678 0.8448403
vn 0.117105 0.1387748 0.9833758
vn 0.1105526 -0.04690196 0.992763
vn 0.1107898 -0.04749374 0.9927084
vn 0.4273803 0.8411242 0.3314436
vn 0.4272187 0.8289098 0.3610975
vn 0.1106023 -0.09416424 0.989394
vn 0.1105677 -0.09415259 0.989399
vn -0.3130277 -0.7161818 -0.6237759
vn -0.4235904 -0.8197256 -0.3855124
vn -0.3093578 -0.7177041 -0.6238571
vn -0.4235904 -0.8197256 -0.3855124
vn -0.4244606 -0.8352171 -0.3496345
vn -0.4244606 -0.8352171 -0.3496345
vn -0.3357242 -0.9366291 -0.1000674
vn -0.3307154 -0.9383121 -0.1009758
vn 0.1965575 0.1817544 0.9634992
vn 0.1757786 0.199231 0.9640586
vn 0.1984127 0.1801815 0.9634143
vn 0.1757786 0.199231 0.9640586
vn 0.1965575 0.1817544 0.9634992
vn 0.1739927 0.2007211 0.9640735
vn -0.1862015 -0.2186062 -0.9578832
vn -0.2101871 -0.1603478 -0.9644222
vn -0.1691202 -0.218632 -0.9610401
vn -0.2121252 -0.1592537 -0.9641791
vn -0.1318422 -0.1124412 -0.9848729
vn -0.1228534 -0.09977348 -0.9873967
vn -0.1132106 0.03041277 -0.9931055
vn -0.1124162 0.03063084 -0.9931891
vn -0.1114087 0.05338366 -0.9923399
vn -0.111045 0.0535214 -0.9923732
vn 0.3571452 0.9312619 0.07209011
vn 0.4272187 0.8289098 0.3610975
vn 0.3538301 0.9325175 0.07220586
vn 0.4273803 0.8411242 0.3314436
vn 0.2756791 0.9612151 -0.008041125
vn 0.2983157 0.9544207 -0.009327142
vn 0.2747477 0.9614822 -0.007988306
vn 0.2992401 0.9541308 -0.009379746
vn 7.662972E-10 -0.999999 6.8557E-09
vn 7.636505E-10 -0.999999 6.832011E-09
vn 7.708012E-10 -0.999999 6.895988E-09
vn -9.866575E-08 -0.999999 1.89382E-07
vn -1.324219E-08 -0.999999 -1.184715E-07
vn -1.324219E-08 -0.999999 -1.184715E-07
vn -1.398574E-07 -0.999999 1.137942E-07
vn -3.388773E-07 -0.999999 4.788806E-07
vn -0.1791607 -0.3661529 0.9131447
vn 0.1792589 0.5206407 0.8347449
vn 0.2675377 0.5188638 0.8119134
vn 0.207429 0.7805955 0.5896123
vn 0.3517953 0.8726195 0.3387826
vn -0.4224833 0.2670266 0.8661434
vn -0.2289757 0.2836248 0.9311965
vn -0.328922 -0.4214058 0.8451195
vn -0.1201372 -0.4080149 0.9050362
vn -0.3308955 -0.88389 0.3305222
vn 0.0137013 0.5027533 0.8643211
vn -0.5240393 -0.298835 0.7975463
vn 0.324432 0.8755655 0.3579488
vn -0.3217763 -0.9467484 -0.01121463
vn -0.1110835 -5.486721E-08 -0.9938111
vn -0.1110835 8.185282E-09 -0.9938111
vn -0.1110835 -7.309448E-08 -0.9938111
vn -0.1955769 0.00217525 -0.9806861
vn -0.04892365 -0.03878468 -0.9980493
vn -0.009887993 -0.08057345 -0.9966996
vn -0.3089788 0.01851527 -0.9508888
vn 0.8104929 -0.5762364 -0.1051291
vn 0.8104929 -0.5762364 -0.1051291
vn 0.8104929 -0.5762364 -0.1051291
vn -0.1324631 0.006776002 -0.9911647
vn -0.1324631 0.006776002 -0.9911647
vn -0.1324631 0.006776002 -0.9911647
vn -0.1472842 0.02319835 -0.9888223
vn -0.8049703 0.5841675 0.1037813
vn -0.8049703 0.5841674 0.1037813
vn -0.8049703 0.5841675 0.1037813

vt 0.5883789 0.25
vt 0.609375 0.2319336
vt 0.6088867 0.2514648
vt 0.5839844 0.2320557
vt 0.6064453 0.1968994
vt 0.5839844 0.1970215
vt 0.6777344 0.3251953
vt 0.6806641 0.3164063
vt 0.7680664 0.3349609
vt 0.7558594 0.326416
vt 0.753418 0.2546387
vt 0.7421875 0.2543945
vt 0.7358398 0.2335205
vt 0.7490234 0.2340088
vt 0.5883789 0.1524658
vt 0.6064453 0.1524658
vt 0.7412109 0.1524658
vt 0.7358398 0.1956787
vt 0.7490234 0.1959229
vt 0.7514648 0.1524658
vt 0.6381836 0.4379883
vt 0.6196289 0.4511719
vt 0.6381836 0.4523926
vt 0.6157227 0.4382324
vt 0.6357422 0.4074707
vt 0.6157227 0.4074707
vt 0.7001953 0.5185547
vt 0.703125 0.5107422
vt 0.7822266 0.527832
vt 0.7714844 0.5205078
vt 0.7685547 0.4555664
vt 0.7583008 0.4555664
vt 0.7524414 0.4394531
vt 0.7646484 0.4399414
vt 0.6191406 0.3671875
vt 0.6357422 0.3671875
vt 0.7578125 0.3671875
vt 0.7524414 0.40625
vt 0.7646484 0.4064941
vt 0.7666016 0.3671875
vt 0.9833984 0.2449951
vt 0.9990234 0.2325439
vt 0.9902344 0.2470703
vt 0.9838867 0.2312012
vt 0.9995117 0.2009277
vt 0.9838867 0.2009277
vt 0.9326172 0.3371582
vt 0.9384766 0.3393555
vt 0.9980469 0.1605225
vt 0.9848633 0.1602783
vt 0.6230469 0.2519531
vt 0.6806641 0.3164063
vt 0.6088867 0.2514648
vt 0.6806641 0.3164063
vt 0.6860352 0.3120117
vt 0.6821289 0.3095703
vt 0.7558594 0.326416
vt 0.7475586 0.3181152
vt 0.7475586 0.3190918
vt 0.7421875 0.2543945
vt 0.7558594 0.326416
vt 0.7421875 0.2543945
vt 0.7475586 0.3190918
vt 0.7363281 0.2624512
vt 0.9511719 0.2502441
vt 0.9165039 0.3137207
vt 0.9580078 0.2521973
vt 0.9106445 0.3117676
vt 0.9511719 0.2340088
vt 0.9663086 0.2349854
vt 0.9511719 0.2005615
vt 0.9663086 0.2004395
vt 0.9516602 0.1612549
vt 0.9648438 0.1612549
vt 0.7822266 0.527832
vt 0.699707 0.5249023
vt 0.78125 0.5341797
vt 0.7001953 0.5185547
vt 0.7368164 0.262207
vt 0.6088867 0.2514648
vt 0.7421875 0.2543945
vt 0.6181641 0.2592773
vt 0.6357422 0.3671875
vt 0.7578125 0.3540039
vt 0.6357422 0.3540039
vt 0.7578125 0.3671875
vt 0.6191406 0.3671875
vt 0.6191406 0.3540039
vt 0.7666016 0.3540039
vt 0.7666016 0.3671875
vt 0.5678711 0.01525879
vt 0.5737305 0.02468872
vt 0.5664063 0.02406311
vt 0.5795898 0.03707886
vt 0.5615234 0.03762817
vt 0.5996094 0.01887512
vt 0.5810547 0.0188446
vt 0.5922852 0.001438141
vt 0.578125 0.0135498
vt 0.5649414 0.001422882
vt 0.5522461 0.02171326
vt 0.5512695 0.01274872
vt 0.5566406 0.04058838
vt 0.5610352 0.0006093979
vt 0.5336914 0.005210876
vt 0.5073242 0.02792358
vt 0.5151367 0.002006531
vt 0.519043 0.04193115
vt 0.5341797 0.03259277
vt 0.5351563 0.03656006
vt 0.5195313 0.04760742
vt 0.6352539 0.2617188
vt 0.6757813 0.2617188
vt 0.6582031 0.2814941
vt 0.6757813 0.2617188
vt 0.6621094 0.2861328
vt 0.6582031 0.2814941
vt 0.6796875 0.2658691
vt 0.6757813 0.2617188
vt 0.6352539 0.2617188
vt 0.6582031 0.2814941

g door_frontR_9104_1855
usemtl door_frontR_9104_1855
usemap door_frontR_9104_1855
f 1/1/1 3/3/3 2/2/2
f 2/2/2 4/4/4 1/1/1
f 4/4/4 2/2/2 5/5/5
f 5/5/5 6/6/6 4/4/4
f 3/3/3 1/1/1 7/7/7
f 7/7/7 8/8/8 3/3/3
f 8/8/8 7/7/7 9/9/9
f 9/9/9 10/10/10 8/8/8
f 10/10/10 9/9/9 11/11/11
f 11/11/11 12/12/12 10/10/10
f 13/13/13 2/2/2 3/3/3
f 3/3/3 12/12/12 13/13/13
f 5/5/5 2/2/2 13/13/13
f 14/14/14 13/13/13 12/12/12
f 12/12/12 11/11/11 14/14/14
f 15/15/15 6/6/6 5/5/5
f 5/5/5 16/16/16 15/15/15
f 17/17/17 16/16/16 5/5/5
f 5/5/5 18/18/18 17/17/17
f 13/13/13 18/18/18 5/5/5
f 17/17/17 18/18/18 19/19/19
f 13/13/13 14/14/14 19/19/19
f 19/19/19 18/18/18 13/13/13
f 19/19/19 20/20/20 17/17/17
f 21/21/21 23/23/23 22/22/22
f 22/22/22 24/24/24 21/21/21
f 25/25/25 21/21/21 24/24/24
f 24/24/24 26/26/26 25/25/25
f 27/27/27 22/22/22 23/23/23
f 23/23/23 28/28/28 27/27/27
f 29/29/29 27/27/27 28/28/28
f 28/28/28 30/30/30 29/29/29
f 31/31/31 29/29/29 30/30/30
f 30/30/30 32/32/32 31/31/31
f 23/23/23 21/21/21 33/33/33
f 33/33/33 32/32/32 23/23/23
f 33/33/33 21/21/21 25/25/25
f 32/32/32 33/33/33 34/34/34
f 34/34/34 31/31/31 32/32/32
f 25/25/25 26/26/26 35/35/35
f 35/35/35 36/36/36 25/25/25
f 25/25/25 36/36/36 37/37/37
f 37/37/37 38/38/38 25/25/25
f 25/25/25 38/38/38 33/33/33
f 39/39/39 38/38/38 37/37/37
f 39/39/39 34/34/34 33/33/33
f 33/33/33 38/38/38 39/39/39
f 37/37/37 40/40/40 39/39/39
f 41/41/41 43/43/43 42/42/42
f 42/42/42 44/44/44 41/41/41
f 44/44/44 42/42/42 45/45/45
f 45/45/45 46/46/46 44/44/44
f 43/43/43 41/41/41 47/47/47
f 47/47/47 48/48/48 43/43/43
f 46/46/46 45/45/45 49/49/49
f 49/49/49 50/50/50 46/46/46
f 51/51/51 53/53/53 52/52/52
f 54/54/54 55/55/55 51/51/51
f 56/56/56 54/54/54 57/57/57
f 57/57/57 58/58/58 56/56/56
f 59/59/59 61/61/61 60/60/60
f 62/62/62 64/64/64 63/63/63
f 65/65/65 67/67/67 66/66/66
f 66/66/66 68/68/68 65/65/65
f 67/67/67 65/65/65 69/69/69
f 69/69/69 70/70/70 67/67/67
f 70/70/70 69/69/69 71/71/71
f 71/71/71 72/72/72 70/70/70
f 72/72/72 71/71/71 73/73/73
f 73/73/73 74/74/74 72/72/72
f 75/75/75 77/77/77 76/76/76
f 76/76/76 78/78/78 75/75/75
f 79/79/79 81/81/81 80/80/80
f 80/80/80 82/82/82 79/79/79
f 83/83/83 85/85/85 84/84/84
f 84/84/84 86/86/86 83/83/83
f 85/85/85 83/83/83 87/87/87
f 87/87/87 88/88/88 85/85/85
f 86/86/86 84/84/84 89/89/89
f 89/89/89 90/90/90 86/86/86
f 91/91/91 93/93/93 92/92/92
f 94/94/94 92/92/92 93/93/93
f 93/93/93 95/95/95 94/94/94
f 92/92/92 94/94/94 96/96/96
f 96/96/96 97/97/97 92/92/92
f 91/91/91 92/92/92 97/97/97
f 97/97/97 96/96/96 98/98/98
f 98/98/98 99/99/99 97/97/97
f 91/91/91 97/97/97 99/99/99
f 99/99/99 98/98/98 100/100/100
f 100/100/100 91/91/91 99/99/99
f 101/101/101 93/93/93 91/91/91
f 91/91/91 102/102/102 101/101/101
f 102/102/102 91/91/91 100/100/100
f 93/93/93 101/101/101 103/103/103
f 103/103/103 95/95/95 93/93/93
f 100/100/100 104/104/104 102/102/102
f 105/105/105 107/107/107 106/106/106
f 105/105/105 106/106/106 108/108/108
f 109/109/109 105/105/105 108/108/108
f 110/110/110 109/109/109 108/108/108
f 108/108/108 111/111/111 110/110/110
f 112/112/112 114/114/114 113/113/113
f 115/115/115 117/117/117 116/116/116
f 116/116/116 118/118/118 115/115/115
f 119/119/119 121/121/121 120/120/120
