#door07_9982_257.obj

v -0.07506573 6.265385E-09 -1.511897E-05
v 0.02493338 -8.213563E-07 0.999983
v 0.02493369 1.06334E-08 -1.842908E-05
v -0.07506604 -8.257243E-07 0.9999864
v -0.07506613 1.999999 0.999986
v 0.02493361 2 -1.875193E-05
v 0.0249333 1.999999 0.9999827
v -0.07506581 2 -1.544181E-05
v -0.07506581 2 -1.544181E-05
v 0.02493369 1.06334E-08 -1.842908E-05
v 0.02493361 2 -1.875193E-05
v -0.07506573 6.265385E-09 -1.511897E-05
v 0.0249333 1.999999 0.9999827
v -0.07506604 -8.257243E-07 0.9999864
v -0.07506613 1.999999 0.999986
v 0.02493338 -8.213563E-07 0.999983
v 0.02493338 -8.213563E-07 0.999983
v 0.02493361 2 -1.875193E-05
v 0.02493369 1.06334E-08 -1.842908E-05
v 0.0249333 1.999999 0.9999827
v -0.07506613 1.999999 0.999986
v -0.07506573 6.265385E-09 -1.511897E-05
v -0.07506581 2 -1.544181E-05
v -0.07506604 -8.257243E-07 0.9999864
v -0.1250668 1.104778 0.922891
v -0.1104187 1.129778 0.8978939
v -0.1104179 1.140133 0.9228954
v -0.1104179 1.104778 0.8875333
v -0.1104187 1.079778 0.8978939
v -0.1104179 1.069422 0.9228954
v -0.1104186 1.079777 0.9478968
v -0.1104182 1.104777 0.9582447
v -0.1104186 1.129778 0.9478968
v -0.07506695 1.140133 0.8875336
v -0.07506697 1.154778 0.9228957
v -0.07506711 1.104778 0.8728927
v -0.07506695 1.069422 0.8875337
v -0.07506697 1.054778 0.9228957
v -0.07506573 1.069422 0.958245
v -0.075067 1.104777 0.9728922
v -0.07506574 1.140133 0.958245
v 0.07493392 1.104778 0.922897
v 0.06028582 1.129778 0.9478941
v 0.06028496 1.140133 0.9228926
v 0.06028477 1.104777 0.9582483
v 0.06028582 1.079777 0.9478941
v 0.06028496 1.069422 0.9228926
v 0.06028568 1.079778 0.8978912
v 0.06028498 1.104778 0.8875306
v 0.06028568 1.129778 0.8978912
v 0.02493385 1.140133 0.958248
v 0.02493404 1.154778 0.9228923
v 0.02493418 1.104777 0.9728953
v 0.02493386 1.069422 0.958248
v 0.02493405 1.054778 0.9228923
v 0.02493406 1.069422 0.8875303
v 0.02493407 1.104778 0.8728958
v 0.02493406 1.140133 0.8875303

vn 2.79348E-08 -0.9999995 -1.049466E-06
vn 2.79348E-08 -0.9999995 -1.049466E-06
vn 2.79348E-08 -0.9999995 -1.049466E-06
vn 2.79348E-08 -0.9999995 -1.049466E-06
vn -2.869608E-08 0.9999995 1.078066E-06
vn -2.869608E-08 0.9999995 1.078066E-06
vn -2.869608E-08 0.9999995 1.078066E-06
vn -2.869608E-08 0.9999995 1.078066E-06
vn 0.02660874 3.345819E-07 -0.9996461
vn 0.02660874 3.345819E-07 -0.9996461
vn 0.02660874 3.345819E-07 -0.9996461
vn 0.02660874 3.345819E-07 -0.9996461
vn -0.02660874 -3.155084E-07 0.9996461
vn -0.02660874 -3.155084E-07 0.9996461
vn -0.02660874 -3.155084E-07 0.9996461
vn -0.02660874 -3.155084E-07 0.9996461
vn 0.9996459 -6.798625E-14 0.02660899
vn 0.9996459 -6.798625E-14 0.02660899
vn 0.9996459 -6.798625E-14 0.02660899
vn 0.9996459 -6.798625E-14 0.02660899
vn -0.9996459 6.798625E-14 -0.02660899
vn -0.9996459 6.798625E-14 -0.02660899
vn -0.9996459 6.798625E-14 -0.02660899
vn -0.9996459 6.798625E-14 -0.02660899
vn -0.9996466 8.360826E-07 -0.02658496
vn -0.64869 0.529377 -0.5467734
vn -0.6627634 0.748621 -0.01763062
vn -0.6428089 5.868946E-05 -0.766027
vn -0.6487199 -0.5294061 -0.5467101
vn -0.6627533 -0.7486297 -0.01763677
vn -0.6768312 -0.5293505 0.5115539
vn -0.6826941 3.656719E-05 0.7307042
vn -0.6768159 0.5293279 0.5115975
vn -0.3652816 0.6531994 -0.6632494
vn -0.3825786 0.9238668 -0.01014824
vn -0.3579342 5.572618E-05 -0.9337471
vn -0.3652264 -0.6532615 -0.6632186
vn -0.382595 -0.9238599 -0.01015259
vn -0.3999118 -0.6533173 0.6428427
vn -0.4072059 3.414146E-05 0.9133365
vn -0.39995 0.6532759 0.6428611
vn 0.9996453 8.417319E-07 0.026633
vn 0.6486592 0.529348 0.5468383
vn 0.6627541 0.7486287 0.01765019
vn 0.6428548 -3.733451E-05 0.7659883
vn 0.6486407 -0.52933 0.5468774
vn 0.6627625 -0.7486212 0.01764995
vn 0.6768603 -0.5293742 -0.5114908
vn 0.68265 -5.818666E-05 -0.7307455
vn 0.6768851 0.5294071 -0.5114238
vn 0.3651493 0.6533152 0.6632083
vn 0.382595 0.9238592 0.01021721
vn 0.3580413 -3.547348E-05 0.9337059
vn 0.3651822 -0.6532777 0.663227
vn 0.382573 -0.9238683 0.01021831
vn 0.4000489 -0.653199 -0.6428775
vn 0.4071017 -5.43719E-05 -0.9133829
vn 0.3999895 0.6532611 -0.6428514

vt 0.5141602 0.2631836
vt 0.6245117 0.2521973
vt 0.5141602 0.2521973
vt 0.6245117 0.2631836
vt 0.6245117 0.4836426
vt 0.5141602 0.4946289
vt 0.6245117 0.4946289
vt 0.5141602 0.4836426
vt 0.5141602 0.4836426
vt 0.503418 0.2631836
vt 0.503418 0.4836426
vt 0.5141602 0.2631836
vt 0.6357422 0.4836426
vt 0.6245117 0.2631836
vt 0.6245117 0.4836426
vt 0.6357422 0.2631836
vt 0.6245117 0.2631836
vt 0.5141602 0.4836426
vt 0.5141602 0.2631836
vt 0.6245117 0.4836426
vt 0.6245117 0.4836426
vt 0.5141602 0.2631836
vt 0.5141602 0.4836426
vt 0.6245117 0.2631836
vt 0.6333008 0.4924316
vt 0.6313477 0.4941406
vt 0.6333008 0.4946289
vt 0.6308594 0.4924316
vt 0.6313477 0.4907227
vt 0.6333008 0.4899902
vt 0.6347656 0.4907227
vt 0.6352539 0.4924316
vt 0.6347656 0.4941406
vt 0.6298828 0.4958496
vt 0.6333008 0.4973145
vt 0.628418 0.4924316
vt 0.6298828 0.4890137
vt 0.6333008 0.4875488
vt 0.6362305 0.4890137
vt 0.6376953 0.4924316
vt 0.6362305 0.4958496
vt 0.6333008 0.4924316
vt 0.6313477 0.4941406
vt 0.6333008 0.4946289
vt 0.6308594 0.4924316
vt 0.6313477 0.4907227
vt 0.6333008 0.4899902
vt 0.6347656 0.4907227
vt 0.6352539 0.4924316
vt 0.6347656 0.4941406
vt 0.6298828 0.4958496
vt 0.6333008 0.4973145
vt 0.628418 0.4924316
vt 0.6298828 0.4890137
vt 0.6333008 0.4875488
vt 0.6362305 0.4890137
vt 0.6376953 0.4924316
vt 0.6362305 0.4958496

g door07_9982_257
usemtl door07_9982_257
usemap door07_9982_257
f 1/1/1 3/3/3 2/2/2
f 2/2/2 4/4/4 1/1/1
f 5/5/5 7/7/7 6/6/6
f 6/6/6 8/8/8 5/5/5
f 9/9/9 11/11/11 10/10/10
f 10/10/10 12/12/12 9/9/9
f 13/13/13 15/15/15 14/14/14
f 14/14/14 16/16/16 13/13/13
f 17/17/17 19/19/19 18/18/18
f 18/18/18 20/20/20 17/17/17
f 21/21/21 23/23/23 22/22/22
f 22/22/22 24/24/24 21/21/21
f 25/25/25 27/27/27 26/26/26
f 25/25/25 26/26/26 28/28/28
f 25/25/25 28/28/28 29/29/29
f 25/25/25 29/29/29 30/30/30
f 25/25/25 30/30/30 31/31/31
f 25/25/25 31/31/31 32/32/32
f 25/25/25 32/32/32 33/33/33
f 25/25/25 33/33/33 27/27/27
f 34/34/34 26/26/26 27/27/27
f 27/27/27 35/35/35 34/34/34
f 35/35/35 27/27/27 33/33/33
f 36/36/36 28/28/28 26/26/26
f 26/26/26 34/34/34 36/36/36
f 37/37/37 29/29/29 28/28/28
f 28/28/28 36/36/36 37/37/37
f 38/38/38 30/30/30 29/29/29
f 29/29/29 37/37/37 38/38/38
f 39/39/39 31/31/31 30/30/30
f 30/30/30 38/38/38 39/39/39
f 40/40/40 32/32/32 31/31/31
f 31/31/31 39/39/39 40/40/40
f 41/41/41 33/33/33 32/32/32
f 32/32/32 40/40/40 41/41/41
f 33/33/33 41/41/41 35/35/35
f 42/42/42 44/44/44 43/43/43
f 42/42/42 43/43/43 45/45/45
f 42/42/42 45/45/45 46/46/46
f 42/42/42 46/46/46 47/47/47
f 42/42/42 47/47/47 48/48/48
f 42/42/42 48/48/48 49/49/49
f 42/42/42 49/49/49 50/50/50
f 42/42/42 50/50/50 44/44/44
f 51/51/51 43/43/43 44/44/44
f 44/44/44 52/52/52 51/51/51
f 52/52/52 44/44/44 50/50/50
f 53/53/53 45/45/45 43/43/43
f 43/43/43 51/51/51 53/53/53
f 54/54/54 46/46/46 45/45/45
f 45/45/45 53/53/53 54/54/54
f 55/55/55 47/47/47 46/46/46
f 46/46/46 54/54/54 55/55/55
f 56/56/56 48/48/48 47/47/47
f 47/47/47 55/55/55 56/56/56
f 57/57/57 49/49/49 48/48/48
f 48/48/48 56/56/56 57/57/57
f 58/58/58 50/50/50 49/49/49
f 49/49/49 57/57/57 58/58/58
f 50/50/50 58/58/58 52/52/52
