#door_frontL_9794_25.obj

v 0.01748143 0.003669639 -0.1696296
v 0.0242968 0.00412197 3.748251E-05
v -0.04599547 0.1080252 -0.02837683
v -0.04815275 0.1176779 -0.1670845
v 0.03331271 -0.2364393 -0.1484891
v 0.04434839 -0.2352525 3.932237E-05
v -0.2652608 0.4390924 -0.6277103
v -0.2333836 0.3995132 -0.6467506
v -0.2021751 0.4192711 -1.195487
v -0.1976 0.3896858 -1.128337
v 0.07855802 0.01738738 -1.015733
v 0.02080218 0.1336038 -1.054294
v 0.02414361 0.1339206 -1.128356
v -0.1976 0.3896858 -1.128337
v 0.08449831 0.02141464 -1.102681
v 0.03877099 -0.5361279 -0.02837974
v 0.02982418 -0.5361279 -0.1510762
v 0.1202189 -0.5361282 -1.058413
v 0.1055321 -0.2443602 -1.020224
v 0.1117638 -0.2431324 -1.110314
v 0.1251739 -0.5361282 -1.126886
v -0.09587502 0.09298126 -0.02900757
v -0.08681222 -0.003147788 0.0002820168
v -0.09248256 -0.003563576 -0.1697539
v -0.09835319 0.1024485 -0.1681784
v -0.07827018 -0.235749 -0.1484566
v -0.07178334 -0.2345408 9.155701E-05
v -0.3108936 0.4274674 -0.6295717
v -0.2787277 0.3881609 -0.648675
v -0.248859 0.4162283 -1.197812
v -0.2445486 0.3869772 -1.129926
v -0.02748886 0.1207291 -1.129564
v -0.03073552 0.1212991 -1.055268
v -0.03226779 0.01088412 -1.016339
v -0.02793938 0.01427991 -1.103663
v -0.05903969 -0.5361279 -0.02837846
v -0.06798408 -0.5361279 -0.1510899
v 0.02242013 -0.5361282 -1.058438
v -0.006123362 -0.2436627 -1.02028
v -0.0002778501 -0.2424069 -1.110461
v 0.02737564 -0.5361284 -1.126898
v 0.0242968 0.00412197 3.748251E-05
v -0.08681222 -0.003147788 0.0002820168
v -0.09587502 0.09298126 -0.02900757
v -0.04599547 0.1080252 -0.02837683
v 0.04434839 -0.2352525 3.932237E-05
v -0.07178334 -0.2345408 9.155701E-05
v -0.3108936 0.4274674 -0.6295717
v -0.2652608 0.4390924 -0.6277103
v 0.03877099 -0.5361279 -0.02837974
v -0.05903969 -0.5361279 -0.02837846
v -0.2333836 0.3995132 -0.6467506
v -0.2787277 0.3881609 -0.648675
v -0.09835319 0.1024485 -0.1681784
v -0.2333836 0.3995132 -0.6467506
v -0.04815275 0.1176779 -0.1670845
v -0.1976 0.3896858 -1.128337
v -0.2787277 0.3881609 -0.648675
v -0.2445486 0.3869772 -1.129926
v 0.02080218 0.1336038 -1.054294
v -0.03073552 0.1212991 -1.055268
v -0.2445486 0.3869772 -1.129926
v 0.02080218 0.1336038 -1.054294
v -0.2445486 0.3869772 -1.129926
v -0.1976 0.3896858 -1.128337
v -0.2021751 0.4192711 -1.195487
v -0.248859 0.4162283 -1.197812
v -0.02748886 0.1207291 -1.129564
v 0.02414361 0.1339206 -1.128356
v -0.02793938 0.01427991 -1.103663
v 0.08449831 0.02141464 -1.102681
v -0.0002778501 -0.2424069 -1.110461
v 0.1117638 -0.2431324 -1.110314
v 0.02737564 -0.5361284 -1.126898
v 0.1251739 -0.5361282 -1.126886
v -0.2652608 0.4390924 -0.6277103
v -0.3108936 0.4274674 -0.6295717
v -0.248859 0.4162283 -1.197812
v -0.2021751 0.4192711 -1.195487
v -0.04815275 0.1176779 -0.1670845
v -0.09835319 0.1024485 -0.1681784
v -0.03073552 0.1212991 -1.055268
v 0.02080218 0.1336038 -1.054294
v 0.1202189 -0.5361282 -1.058413
v 0.02242013 -0.5361282 -1.058438
v -0.06798408 -0.5361279 -0.1510899
v 0.02982418 -0.5361279 -0.1510762
v -0.05903969 -0.5361279 -0.02837846
v 0.03877099 -0.5361279 -0.02837974
v 0.1251739 -0.5361282 -1.126886
v 0.02737564 -0.5361284 -1.126898
v -0.01188222 0.1670149 -0.2664488
v -0.03565334 0.1957544 -0.266427
v -0.00300424 0.2163439 -0.2664089
v -0.004814896 0.2521972 -0.3217323
v -0.07750985 0.2020495 -0.3218085
v 0.1292975 0.2181064 -0.3217833
v 0.04735719 0.2008418 -0.2664204
v 0.1137101 0.1337455 -0.3218977
v 0.04171525 0.1689771 -0.2664473
v -0.02804481 0.1317838 -0.3218986
v -0.09138741 0.1606195 -0.2369416
v -0.06857595 0.1160691 -0.2361304
v -0.106193 0.1983721 -0.3278704
v -0.04891361 0.1250381 -0.3178293
v 0.1137101 0.1337455 -0.3218977
v 0.1292975 0.2181064 -0.3217833
v -0.004814896 0.2521972 -0.3217323
v -0.02804481 0.1317838 -0.3218986
v -0.07750985 0.2020495 -0.3218085
v -0.04891361 0.1250381 -0.3178293
v -0.106193 0.1983721 -0.3278704
v -0.07835217 0.1024489 -0.1681796
v -0.07109232 0.1070101 -0.3412177
v -0.1593471 0.2185467 -0.3420832
v -0.1593471 0.2185467 -0.3420832
v -0.07109232 0.1070101 -0.3412177
v -0.04052135 0.1218054 -0.3404302
v -0.1311888 0.2329053 -0.3406366
v -0.1311888 0.2329053 -0.3406366
v -0.04052135 0.1218054 -0.3404302
v -0.04815275 0.1176779 -0.1670845

vn 0.5775602 0.3010318 -0.7588175
vn 0.5307264 0.2895448 -0.7965508
vn 0.4921074 0.5436494 -0.6799084
vn 0.5175617 0.5476513 -0.6574249
vn 0.5907201 0.04011837 -0.8058786
vn 0.5311573 0.03185733 -0.8466741
vn 0.5277001 0.5540895 -0.64383
vn 0.5317761 0.5475671 -0.6460526
vn 0.5514717 0.6048549 -0.5744815
vn 0.555313 0.5696518 -0.6059073
vn 0.6179112 0.2894257 -0.7310393
vn 0.5639632 0.5312775 -0.6322098
vn 0.5576993 0.5740646 -0.5995171
vn 0.555313 0.5696518 -0.6059073
vn 0.6113536 0.3040781 -0.7306046
vn 0.5239002 -0.01126648 -0.8517052
vn 0.5925323 0.0007254782 -0.8055464
vn 0.6477827 0.02815672 -0.7613047
vn 0.6455012 0.0596807 -0.7614239
vn 0.6396616 0.07034674 -0.7654309
vn 0.6403714 0.04127582 -0.7669555
vn -0.5663179 -0.1843237 0.8033112
vn -0.5575387 -0.06528381 0.8275801
vn -0.6032299 -0.06281275 0.7950901
vn -0.5838653 -0.3086546 0.7508886
vn -0.596981 -0.0613708 0.7999046
vn -0.5452437 -0.05148868 0.836695
vn -0.5318395 -0.5518137 0.6423768
vn -0.5354176 -0.5466721 0.643799
vn -0.5534477 -0.5923536 0.5855016
vn -0.5569546 -0.5623853 0.611166
vn -0.6153359 -0.3761177 0.6927461
vn -0.6350263 -0.21452 0.7421069
vn -0.636325 -0.05846687 0.7692024
vn -0.6263294 -0.05002703 0.7779517
vn -0.5374475 -0.04110546 0.842295
vn -0.5982622 -0.05018552 0.7997273
vn -0.6452584 -0.07521326 0.760253
vn -0.6416717 -0.08339033 0.7624326
vn -0.633126 -0.09592004 0.7680825
vn -0.6368052 -0.08889724 0.7658828
vn 0.7976955 0.1056439 0.5937354
vn 0.7924324 0.1335139 0.5951685
vn 0.5666211 0.5729654 0.592158
vn 0.5995942 0.5323077 0.597608
vn 0.810393 -0.04840313 0.5838841
vn 0.810531 -0.04544286 0.5839306
vn 0.07678392 0.9482156 0.3082044
vn 0.0983285 0.9391483 0.3291359
vn 0.8073639 -0.09400626 0.5825176
vn 0.8073639 -0.09400626 0.5825176
vn -0.1228312 -0.931006 -0.3437132
vn -0.0955281 -0.9436362 -0.3168968
vn -0.3145136 -0.7935265 -0.5209568
vn -0.1228312 -0.931006 -0.3437132
vn -0.3145136 -0.7935265 -0.5209568
vn 0.1056035 -0.9884743 -0.108465
vn -0.0955281 -0.9436362 -0.3168968
vn 0.1056035 -0.9884743 -0.108465
vn 0.7531836 0.2273522 0.617273
vn 0.7531836 0.2273522 0.6172729
vn 0.7531836 0.2273522 0.6172729
vn 0.7531836 0.2273522 0.617273
vn 0.7531836 0.2273522 0.6172729
vn 0.7531836 0.2273522 0.6172729
vn -0.7582558 -0.1788496 -0.626946
vn -0.7582558 -0.1788497 -0.6269461
vn -0.7627785 -0.1980437 -0.6155877
vn -0.7639427 -0.2032573 -0.6124367
vn -0.7941055 -0.09523267 -0.600273
vn -0.7972431 -0.07524569 -0.5989507
vn -0.8087237 0.04123005 -0.5867424
vn -0.8087814 0.04291795 -0.5865419
vn -0.8091543 0.05624022 -0.5848989
vn -0.8091543 0.05624022 -0.5848989
vn 0.0983285 0.9391483 0.3291359
vn 0.07678392 0.9482156 0.3082044
vn -0.1262845 0.9869617 0.09978428
vn -0.1262845 0.9869617 0.09978428
vn -0.1537918 0.9652776 0.211153
vn -0.1537918 0.9652776 0.211153
vn -0.1537918 0.9652776 0.211153
vn -0.1537918 0.9652776 0.211153
vn 4.835033E-07 -0.9999991 9.52202E-08
vn 4.582205E-07 -0.9999991 1.03171E-07
vn -1.441744E-14 -0.9999991 -1.775375E-14
vn -1.441744E-14 -0.9999991 -1.775375E-14
vn -2.521258E-07 -0.9999991 -1.818869E-07
vn -2.521258E-07 -0.9999991 -1.818869E-07
vn 7.028718E-07 -0.9999991 2.623437E-08
vn 7.028718E-07 -0.9999991 2.623437E-08
vn 0.8632316 -0.4003502 0.3074919
vn 0.5624515 0.564581 0.6040667
vn 0.6077068 0.5554082 0.5676391
vn 0.3685949 0.8270384 0.424434
vn 0.1222065 0.836462 0.5342244
vn 0.9620761 0.2641304 0.06815222
vn 0.9027424 0.3389915 0.2648413
vn 0.9009293 -0.4140504 0.1299571
vn 0.8359406 -0.4255181 0.3466086
vn 0.5141923 -0.8489202 -0.1222265
vn 0.7180077 0.5622869 0.4102418
vn 0.9698136 -0.2431519 -0.01841411
vn 0.1332703 0.8761838 0.4631842
vn 0.501521 -0.7563772 -0.4199635
vn -0.8109892 0.00137993 -0.58506
vn -0.8109892 0.00137993 -0.58506
vn -0.8109892 0.00137993 -0.58506
vn -0.8005624 -0.01171601 -0.5991355
vn -0.7948528 -0.01868854 -0.6065149
vn -0.7819337 -0.03399417 -0.6224344
vn -0.7819337 -0.03399417 -0.6224344
vn -0.4980384 -0.6199971 0.6062678
vn -0.4980385 -0.619997 0.6062679
vn -0.4980384 -0.6199971 0.6062678
vn -0.7935979 0.01842697 -0.6081638
vn -0.7935979 0.01842697 -0.6081638
vn -0.7935979 0.01842697 -0.6081638
vn -0.7935979 0.01842697 -0.6081638
vn 0.4925222 0.6315593 -0.5987939
vn 0.4925222 0.6315594 -0.5987939
vn 0.4925222 0.6315594 -0.5987939

vt 0.609375 0.2319336
vt 0.5839844 0.2320557
vt 0.5883789 0.25
vt 0.6088867 0.2514648
vt 0.6064453 0.1968994
vt 0.5839844 0.1970215
vt 0.6777344 0.3251953
vt 0.6806641 0.3164063
vt 0.7680664 0.3349609
vt 0.7558594 0.326416
vt 0.7358398 0.2335205
vt 0.7421875 0.2543945
vt 0.753418 0.2546387
vt 0.7558594 0.326416
vt 0.7490234 0.2340088
vt 0.5883789 0.1524658
vt 0.6064453 0.1524658
vt 0.7412109 0.1524658
vt 0.7358398 0.1956787
vt 0.7490234 0.1959229
vt 0.7514648 0.1524658
vt 0.6196289 0.4511719
vt 0.6157227 0.4382324
vt 0.6381836 0.4379883
vt 0.6381836 0.4523926
vt 0.6357422 0.4074707
vt 0.6157227 0.4074707
vt 0.7001953 0.5185547
vt 0.703125 0.5107422
vt 0.7822266 0.527832
vt 0.7714844 0.5205078
vt 0.7685547 0.4555664
vt 0.7583008 0.4555664
vt 0.7524414 0.4394531
vt 0.7646484 0.4399414
vt 0.6191406 0.3671875
vt 0.6357422 0.3671875
vt 0.7578125 0.3671875
vt 0.7524414 0.40625
vt 0.7646484 0.4064941
vt 0.7666016 0.3671875
vt 0.9990234 0.2325439
vt 0.9838867 0.2312012
vt 0.9833984 0.2449951
vt 0.9902344 0.2470703
vt 0.9995117 0.2009277
vt 0.9838867 0.2009277
vt 0.9326172 0.3371582
vt 0.9384766 0.3393555
vt 0.9980469 0.1605225
vt 0.9848633 0.1602783
vt 0.6806641 0.3164063
vt 0.6860352 0.3120117
vt 0.6230469 0.2519531
vt 0.6806641 0.3164063
vt 0.6088867 0.2514648
vt 0.7558594 0.326416
vt 0.6821289 0.3095703
vt 0.7475586 0.3181152
vt 0.7421875 0.2543945
vt 0.7363281 0.2624512
vt 0.7475586 0.3190918
vt 0.7421875 0.2543945
vt 0.7475586 0.3190918
vt 0.7558594 0.326416
vt 0.9165039 0.3137207
vt 0.9106445 0.3117676
vt 0.9511719 0.2502441
vt 0.9580078 0.2521973
vt 0.9511719 0.2340088
vt 0.9663086 0.2349854
vt 0.9511719 0.2005615
vt 0.9663086 0.2004395
vt 0.9516602 0.1612549
vt 0.9648438 0.1612549
vt 0.699707 0.5249023
vt 0.7001953 0.5185547
vt 0.7822266 0.527832
vt 0.78125 0.5341797
vt 0.6088867 0.2514648
vt 0.6181641 0.2592773
vt 0.7368164 0.262207
vt 0.7421875 0.2543945
vt 0.7578125 0.3540039
vt 0.7578125 0.3671875
vt 0.6357422 0.3671875
vt 0.6357422 0.3540039
vt 0.6191406 0.3671875
vt 0.6191406 0.3540039
vt 0.7666016 0.3540039
vt 0.7666016 0.3671875
vt 0.5678711 0.01525879
vt 0.5664063 0.02406311
vt 0.5737305 0.02468872
vt 0.5795898 0.03707886
vt 0.5615234 0.03762817
vt 0.5996094 0.01887512
vt 0.5810547 0.0188446
vt 0.5922852 0.001438141
vt 0.578125 0.0135498
vt 0.5649414 0.001422882
vt 0.5522461 0.02171326
vt 0.5512695 0.01274872
vt 0.5566406 0.04058838
vt 0.5610352 0.0006093979
vt 0.5336914 0.005210876
vt 0.5151367 0.002006531
vt 0.5073242 0.02792358
vt 0.5341797 0.03259277
vt 0.519043 0.04193115
vt 0.5351563 0.03656006
vt 0.5195313 0.04760742
vt 0.6352539 0.2617188
vt 0.6582031 0.2814941
vt 0.6757813 0.2617188
vt 0.6757813 0.2617188
vt 0.6582031 0.2814941
vt 0.6621094 0.2861328
vt 0.6796875 0.2658691
vt 0.6757813 0.2617188
vt 0.6582031 0.2814941
vt 0.6352539 0.2617188

g door_frontL_9794_25
usemtl door_frontL_9794_25
usemap door_frontL_9794_25
f 1/1/1 3/3/3 2/2/2
f 1/1/1 4/4/4 3/3/3
f 5/5/5 1/1/1 2/2/2
f 5/5/5 2/2/2 6/6/6
f 7/7/7 3/3/3 4/4/4
f 7/7/7 4/4/4 8/8/8
f 8/8/8 9/9/9 7/7/7
f 8/8/8 10/10/10 9/9/9
f 4/4/4 1/1/1 11/11/11
f 5/5/5 11/11/11 1/1/1
f 4/4/4 11/11/11 12/12/12
f 10/10/10 12/12/12 13/13/13
f 14/14/14 13/13/13 9/9/9
f 12/12/12 15/15/15 13/13/13
f 12/12/12 11/11/11 15/15/15
f 5/5/5 6/6/6 16/16/16
f 5/5/5 16/16/16 17/17/17
f 5/5/5 17/17/17 18/18/18
f 5/5/5 18/18/18 19/19/19
f 5/5/5 19/19/19 11/11/11
f 18/18/18 20/20/20 19/19/19
f 20/20/20 11/11/11 19/19/19
f 20/20/20 15/15/15 11/11/11
f 18/18/18 21/21/21 20/20/20
f 22/22/22 24/24/24 23/23/23
f 22/22/22 25/25/25 24/24/24
f 23/23/23 24/24/24 26/26/26
f 23/23/23 26/26/26 27/27/27
f 25/25/25 22/22/22 28/28/28
f 25/25/25 28/28/28 29/29/29
f 30/30/30 29/29/29 28/28/28
f 30/30/30 31/31/31 29/29/29
f 32/32/32 31/31/31 30/30/30
f 32/32/32 33/33/33 31/31/31
f 34/34/34 25/25/25 33/33/33
f 34/34/34 24/24/24 25/25/25
f 34/34/34 26/26/26 24/24/24
f 35/35/35 33/33/33 32/32/32
f 35/35/35 34/34/34 33/33/33
f 36/36/36 27/27/27 26/26/26
f 36/36/36 26/26/26 37/37/37
f 38/38/38 37/37/37 26/26/26
f 38/38/38 26/26/26 39/39/39
f 34/34/34 39/39/39 26/26/26
f 40/40/40 38/38/38 39/39/39
f 34/34/34 40/40/40 39/39/39
f 34/34/34 35/35/35 40/40/40
f 40/40/40 41/41/41 38/38/38
f 42/42/42 44/44/44 43/43/43
f 42/42/42 45/45/45 44/44/44
f 46/46/46 42/42/42 43/43/43
f 46/46/46 43/43/43 47/47/47
f 45/45/45 48/48/48 44/44/44
f 45/45/45 49/49/49 48/48/48
f 50/50/50 46/46/46 47/47/47
f 50/50/50 47/47/47 51/51/51
f 52/52/52 54/54/54 53/53/53
f 55/55/55 56/56/56 54/54/54
f 57/57/57 52/52/52 58/58/58
f 57/57/57 58/58/58 59/59/59
f 60/60/60 62/62/62 61/61/61
f 63/63/63 65/65/65 64/64/64
f 66/66/66 68/68/68 67/67/67
f 66/66/66 69/69/69 68/68/68
f 69/69/69 70/70/70 68/68/68
f 69/69/69 71/71/71 70/70/70
f 71/71/71 72/72/72 70/70/70
f 71/71/71 73/73/73 72/72/72
f 73/73/73 74/74/74 72/72/72
f 73/73/73 75/75/75 74/74/74
f 76/76/76 78/78/78 77/77/77
f 76/76/76 79/79/79 78/78/78
f 80/80/80 82/82/82 81/81/81
f 80/80/80 83/83/83 82/82/82
f 84/84/84 86/86/86 85/85/85
f 84/84/84 87/87/87 86/86/86
f 87/87/87 88/88/88 86/86/86
f 87/87/87 89/89/89 88/88/88
f 90/90/90 84/84/84 85/85/85
f 90/90/90 85/85/85 91/91/91
f 92/92/92 94/94/94 93/93/93
f 93/93/93 94/94/94 95/95/95
f 93/93/93 95/95/95 96/96/96
f 94/94/94 97/97/97 95/95/95
f 94/94/94 98/98/98 97/97/97
f 92/92/92 98/98/98 94/94/94
f 98/98/98 99/99/99 97/97/97
f 98/98/98 100/100/100 99/99/99
f 92/92/92 100/100/100 98/98/98
f 100/100/100 101/101/101 99/99/99
f 100/100/100 92/92/92 101/101/101
f 92/92/92 93/93/93 102/102/102
f 92/92/92 102/102/102 103/103/103
f 101/101/101 92/92/92 103/103/103
f 93/93/93 104/104/104 102/102/102
f 93/93/93 96/96/96 104/104/104
f 101/101/101 103/103/103 105/105/105
f 106/106/106 108/108/108 107/107/107
f 108/108/108 106/106/106 109/109/109
f 108/108/108 109/109/109 110/110/110
f 110/110/110 109/109/109 111/111/111
f 110/110/110 111/111/111 112/112/112
f 113/113/113 115/115/115 114/114/114
f 116/116/116 118/118/118 117/117/117
f 116/116/116 119/119/119 118/118/118
f 120/120/120 122/122/122 121/121/121
