#door_frontR_11351_116.obj

v -0.1227486 -0.4128607 -0.9536081
v -0.2045265 -0.6219537 -0.9273885
v -0.1969308 -0.6036485 -0.9864355
v -0.1166046 -0.4219494 -0.9000209
v -0.08442999 -0.2656555 -0.8928104
v -0.04648554 -0.4222738 -0.3199849
v -0.03389997 -0.297807 -0.1308978
v -0.04035467 0.2182624 -0.9401743
v 0.04535303 0.2176598 -0.08396625
v 0.04500208 0.216674 -7.655184E-06
v -0.03000333 -0.2647838 0.0001096583
v 0.1671666 0.6939653 -0.3793309
v 0.1519215 0.6313825 -0.4081517
v 0.1650079 0.6410173 -0.9864401
v 0.1357721 0.6035306 -0.9290112
v -0.06447266 0.2171562 -0.9855406
v -0.09771737 -0.2625892 -0.9449397
v -0.1194501 -0.6754639 -0.4026676
v 0.05130565 -0.4167052 -0.3196172
v -0.1352084 -0.6211355 -0.9271149
v -0.05022083 -0.6727983 -0.4025669
v -0.02236979 -0.4206603 -0.9000446
v -0.1278929 -0.6029338 -0.9857169
v -0.02882382 -0.4116649 -0.9533553
v 0.0321524 -0.2678491 -0.8929512
v 0.01867973 -0.2644691 -0.9448506
v -0.0005150107 0.2070752 -0.9849076
v 0.02995527 0.2160734 -0.9293514
v 0.183303 0.5872048 -0.9174575
v 0.2182562 0.6409677 -0.985899
v 0.2036017 0.6088032 -0.4152693
v 0.2203374 0.6935883 -0.379803
v 0.1126746 0.2149189 -0.1019366
v 0.1109874 0.206633 0.0002634059
v 0.08792816 -0.3036066 -0.1301583
v 0.1109851 -0.27325 0.001921184
v -0.1227486 -0.4128607 -0.9536081
v 0.01867973 -0.2644691 -0.9448506
v -0.09771737 -0.2625892 -0.9449397
v -0.02882382 -0.4116649 -0.9533553
v -0.06447266 0.2171562 -0.9855406
v -0.0005150107 0.2070752 -0.9849076
v 0.1650079 0.6410173 -0.9864401
v 0.2182562 0.6409677 -0.985899
v -0.1969308 -0.6036485 -0.9864355
v -0.1278929 -0.6029338 -0.9857169
v 0.05130565 -0.4167052 -0.3196172
v -0.1194501 -0.6754639 -0.4026676
v -0.04648554 -0.4222738 -0.3199849
v -0.05022083 -0.6727983 -0.4025669
v 0.08792816 -0.3036066 -0.1301583
v -0.03389997 -0.297807 -0.1308978
v 0.1109851 -0.27325 0.001921184
v -0.03000333 -0.2647838 0.0001096583
v -0.2045265 -0.6219537 -0.9273885
v -0.1278929 -0.6029338 -0.9857169
v -0.1969308 -0.6036485 -0.9864355
v -0.1352084 -0.6211355 -0.9271149
v -0.1194501 -0.6754639 -0.4026676
v -0.05022083 -0.6727983 -0.4025669
v 0.1109874 0.206633 0.0002634059
v -0.03000333 -0.2647838 0.0001096583
v 0.04500208 0.216674 -7.655184E-06
v 0.1109851 -0.27325 0.001921184
v 0.2203374 0.6935883 -0.379803
v 0.1671666 0.6939653 -0.3793309
v 0.1109874 0.206633 0.0002634059
v 0.183303 0.5872048 -0.9174575
v -0.04035467 0.2182624 -0.9401743
v 0.1357721 0.6035306 -0.9290112
v 0.02995527 0.2160734 -0.9293514
v 0.2182562 0.6409677 -0.985899
v 0.1671666 0.6939653 -0.3793309
v 0.1650079 0.6410173 -0.9864401
v 0.2203374 0.6935883 -0.379803
v 0.2036017 0.6088032 -0.4152693
v 0.1357721 0.6035306 -0.9290112
v 0.1519215 0.6313825 -0.4081517
v 0.183303 0.5872048 -0.9174575
v 0.1126746 0.2149189 -0.1019366
v 0.1519215 0.6313825 -0.4081517
v 0.04535303 0.2176598 -0.08396625
v 0.1519215 0.6313825 -0.4081517
v 0.1126746 0.2149189 -0.1019366
v 0.2036017 0.6088032 -0.4152693
v 0.02995527 0.2160734 -0.9293514
v 0.04535303 0.2176598 -0.08396625
v -0.04035467 0.2182624 -0.9401743
v 0.1126746 0.2149189 -0.1019366
v 0.01048037 0.05001969 -0.1247899
v -0.0810577 -0.1374789 -0.2287726
v -0.1076025 0.007020054 -0.204633
v -0.135654 -0.04930845 -0.3396987
v -0.04416573 0.1382706 -0.2358146
v 0.06643611 0.06881282 -0.01238834
v -0.07179143 0.0152708 -0.2180867
v -0.07209504 -0.01956636 -0.2033063
v 0.04266396 0.1119446 -0.05484135
v 0.03503564 0.1180433 -0.01201122
v -0.09247727 0.01225472 -0.2032095
v 0.04266396 0.1119446 -0.05484135
v -0.07179143 0.0152708 -0.2180867
v 0.06643611 0.06881282 -0.01238834
v -0.04416573 0.1382706 -0.2358146
v -0.0810577 -0.1374789 -0.2287726
v 0.01048037 0.05001969 -0.1247899
v -0.135654 -0.04930845 -0.3396987

vn -0.94941 0.2797359 0.142717
vn -0.9231648 0.3717785 0.0977094
vn -0.931444 0.3634562 -0.01764975
vn -0.9495948 0.2804669 0.1400276
vn -0.9795623 0.1333823 0.1505544
vn -0.9928106 0.09269343 0.07573096
vn -0.992638 0.1144644 0.03959265
vn -0.9211772 0.2081104 0.3288195
vn -0.9817818 0.1894419 0.01470069
vn -0.9822635 0.1870079 -0.01365198
vn -0.987871 0.1539181 -0.02049733
vn -0.9696577 0.2432118 -0.02473556
vn -0.9676386 0.2510929 -0.02505541
vn -0.8525648 0.5152925 -0.08721545
vn -0.836736 0.5436583 -0.06563673
vn -0.8768599 0.232464 0.4208052
vn -0.9601932 0.1278054 0.248384
vn -0.9551644 0.2700168 0.1214567
vn 0.9630253 -0.2507797 -0.0984465
vn 0.8858586 -0.4574414 -0.07747051
vn 0.9348608 -0.3109636 -0.1712796
vn 0.9089378 -0.397425 -0.1260369
vn 0.8766175 -0.4784618 -0.05114412
vn 0.9116825 -0.3728616 -0.1726527
vn 0.9756379 -0.1495795 -0.1604889
vn 0.9604058 -0.1302217 -0.2462987
vn 0.8956609 -0.17274 -0.4098197
vn 0.9319233 -0.150536 -0.3299361
vn 0.8644676 -0.5010934 0.04000772
vn 0.8788854 -0.4735098 0.05786603
vn 0.9766464 -0.2126213 0.0308841
vn 0.9787754 -0.2028081 0.0294519
vn 0.9925818 -0.1208417 -0.01336434
vn 0.9948191 -0.1016619 -0.0001123138
vn 0.9940818 -0.04709829 -0.09789246
vn 0.9869942 -0.0005953308 -0.1607548
vn 0.01220333 0.1228074 -0.9923556
vn 0.01158667 -0.01966726 -0.9997395
vn 0.01185036 -0.009107204 -0.9998884
vn 0.01325511 0.09755121 -0.9951422
vn 0.01356165 -0.04945276 -0.9986843
vn 0.01411063 -0.04467748 -0.9989018
vn 0.02131766 -0.007379503 -0.9997455
vn 0.02140441 -0.007412594 -0.9997435
vn 0.01731423 0.1644961 -0.9862257
vn 0.01966423 0.1624954 -0.9865134
vn 0.02800125 -0.6873935 0.7257446
vn 0.0008017281 -0.3124407 0.9499368
vn 0.007692788 -0.5861191 0.8101881
vn -5.884189E-05 -0.311931 0.9501047
vn -0.03954792 -0.9259733 0.3755098
vn -0.0539693 -0.9134912 0.4032609
vn -0.05761179 -0.9694248 0.2385257
vn -0.06400377 -0.9674134 0.2449757
vn 0.01475812 -0.979418 -0.2012974
vn 0.01599401 -0.955444 -0.2947356
vn 0.0162632 -0.9555412 -0.2944057
vn 0.0155912 -0.9799009 -0.1988698
vn 0.03761108 -0.9939026 -0.1036393
vn 0.03958776 -0.9938228 -0.1036682
vn 0.03152043 0.3083494 0.9507508
vn -0.02307143 0.003216023 0.9997287
vn 0.03031921 0.3097961 0.9503193
vn -0.02387099 0.003455208 0.9997091
vn 0.008327195 0.6189996 0.7853467
vn 0.002546512 0.6203583 0.7843139
vn 0.03152043 0.3083494 0.9507508
vn -0.2177494 0.06525704 0.9738207
vn -0.1685252 0.03468218 0.9850869
vn -0.2240514 0.06918923 0.9721182
vn -0.1622141 0.03077964 0.9862755
vn 0.003034867 0.9962165 -0.08684061
vn 0.007021269 0.9962295 -0.08646084
vn 0.002788301 0.9962152 -0.08686407
vn 0.007271225 0.9962298 -0.08643697
vn -0.389957 -0.9190998 0.05645499
vn -0.3413441 -0.9385642 0.05079097
vn -0.3931718 -0.9177062 0.05682847
vn -0.336672 -0.9402795 0.050245
vn -0.2320237 -0.560088 -0.7952772
vn -0.323076 -0.5383272 -0.7783477
vn -0.2257433 -0.5613862 -0.7961688
vn -0.323076 -0.5383272 -0.7783477
vn -0.2320237 -0.560088 -0.7952772
vn -0.331843 -0.5359322 -0.7763094
vn 0.03189768 0.9994879 -0.002097614
vn 0.03952029 0.9992154 -0.002150268
vn 0.03151792 0.9995 -0.002094988
vn 0.04001181 0.9991959 -0.00215366
vn -0.6057493 0.1943104 0.771564
vn -0.8142959 -0.2384057 0.5292302
vn -0.8519747 0.1259218 0.5082152
vn -0.9836056 0.04168531 0.1754484
vn -0.7754716 0.4737396 0.4173897
vn -0.1097656 -0.8570858 0.5033427
vn 0.4555849 0.5703017 -0.6835186
vn 0.2674831 -0.9335209 0.238725
vn 0.2630368 0.7517043 -0.6047736
vn -0.850047 0.05359551 0.5239727
vn -0.8618406 0.3820876 0.3335257
vn 0.2630368 0.7517043 -0.6047736
vn 0.4555849 0.5703017 -0.6835186
vn -0.1097656 -0.8570858 0.5033427
vn 0.8522539 -0.1264658 -0.5076116
vn 0.8522539 -0.1264658 -0.5076115
vn 0.8522538 -0.1264658 -0.5076117
vn 0.8522539 -0.1264658 -0.5076115

vt 0.8007813 0.2802734
vt 0.7924805 0.2402344
vt 0.8007813 0.2402344
vt 0.7924805 0.2800293
vt 0.7924805 0.3010254
vt 0.7075195 0.2802734
vt 0.6811523 0.296875
vt 0.7924805 0.3696289
vt 0.6748047 0.3696289
vt 0.6630859 0.3693848
vt 0.6630859 0.3015137
vt 0.7163086 0.4389648
vt 0.7202148 0.4306641
vt 0.8012695 0.4389648
vt 0.7924805 0.4306641
vt 0.8007813 0.3693848
vt 0.8007813 0.3012695
vt 0.7192383 0.2402344
vt 0.9345703 0.2856445
vt 0.8569336 0.2495117
vt 0.9238281 0.2495117
vt 0.8569336 0.2851563
vt 0.8496094 0.2495117
vt 0.8496094 0.2854004
vt 0.8574219 0.3039551
vt 0.8496094 0.3041992
vt 0.8496094 0.3642578
vt 0.8588867 0.3654785
vt 0.859375 0.418457
vt 0.8500977 0.4287109
vt 0.9223633 0.4182129
vt 0.9272461 0.4284668
vt 0.9624023 0.3652344
vt 0.9750977 0.3642578
vt 0.9584961 0.2993164
vt 0.9750977 0.3032227
vt 0.9814453 0.05032349
vt 0.9667969 0.07122803
vt 0.9829102 0.07147217
vt 0.9682617 0.05047607
vt 0.9731445 0.1386719
vt 0.9643555 0.137207
vt 0.956543 0.2064209
vt 0.9492188 0.2064209
vt 0.9785156 0.01055908
vt 0.96875 0.01118469
vt 0.987793 0.2230225
vt 0.9770508 0.2648926
vt 0.9741211 0.2235107
vt 0.9863281 0.2644043
vt 0.9892578 0.192749
vt 0.972168 0.1925049
vt 0.9921875 0.173584
vt 0.9726563 0.173584
vt 0.8569336 0.2408447
vt 0.8496094 0.2495117
vt 0.8496094 0.2408447
vt 0.8569336 0.2495117
vt 0.9238281 0.2408447
vt 0.9238281 0.2495117
vt 0.9750977 0.3642578
vt 0.9931641 0.3041992
vt 0.9833984 0.3654785
vt 0.9750977 0.3032227
vt 0.9580078 0.442627
vt 0.9648438 0.4428711
vt 0.9750977 0.3642578
vt 0.784668 0.4233398
vt 0.7924805 0.3696289
vt 0.7924805 0.4306641
vt 0.7832031 0.3786621
vt 0.8500977 0.4287109
vt 0.9272461 0.4353027
vt 0.8500977 0.4355469
vt 0.9272461 0.4284668
vt 0.7241211 0.4228516
vt 0.7924805 0.4306641
vt 0.7202148 0.4306641
vt 0.7851563 0.4228516
vt 0.6928711 0.3789063
vt 0.7202148 0.4306641
vt 0.6748047 0.3696289
vt 0.7202148 0.4306641
vt 0.6928711 0.3789063
vt 0.7246094 0.423584
vt 0.7836914 0.3786621
vt 0.6748047 0.3696289
vt 0.7924805 0.3696289
vt 0.6928711 0.3789063
vt 0.07647705 0.001289368
vt 0.04473877 0.001289368
vt 0.06060791 0.01182556
vt 0.04473877 0.02235413
vt 0.07647705 0.02235413
vt 0.08239746 0.03106689
vt 0.1083374 0.02719116
vt 0.1080322 0.03198242
vt 0.08288574 0.02360535
vt 0.08239746 0.0385437
vt 0.1080322 0.0368042
vt 0.08288574 0.04360962
vt 0.1083374 0.0401001
vt 0.08239746 0.03106689
vt 0.128418 0.02171326
vt 0.1000366 0.001502037
vt 0.128418 0.001502037
vt 0.1000366 0.02171326

g door_frontR_11351_116
usemtl door_frontR_11351_116
usemap door_frontR_11351_116
f 1/1/1 3/3/3 2/2/2
f 2/2/2 4/4/4 1/1/1
f 1/1/1 4/4/4 5/5/5
f 5/5/5 4/4/4 6/6/6
f 6/6/6 7/7/7 5/5/5
f 8/8/8 5/5/5 7/7/7
f 7/7/7 9/9/9 8/8/8
f 10/10/10 9/9/9 7/7/7
f 7/7/7 11/11/11 10/10/10
f 9/9/9 10/10/10 12/12/12
f 12/12/12 13/13/13 9/9/9
f 13/13/13 12/12/12 14/14/14
f 14/14/14 15/15/15 13/13/13
f 15/15/15 14/14/14 16/16/16
f 16/16/16 8/8/8 15/15/15
f 17/17/17 5/5/5 8/8/8
f 8/8/8 16/16/16 17/17/17
f 5/5/5 17/17/17 1/1/1
f 18/18/18 6/6/6 4/4/4
f 4/4/4 2/2/2 18/18/18
f 19/19/19 21/21/21 20/20/20
f 20/20/20 22/22/22 19/19/19
f 22/22/22 20/20/20 23/23/23
f 23/23/23 24/24/24 22/22/22
f 25/25/25 22/22/22 24/24/24
f 19/19/19 22/22/22 25/25/25
f 24/24/24 26/26/26 25/25/25
f 25/25/25 26/26/26 27/27/27
f 27/27/27 28/28/28 25/25/25
f 29/29/29 28/28/28 27/27/27
f 27/27/27 30/30/30 29/29/29
f 31/31/31 29/29/29 30/30/30
f 30/30/30 32/32/32 31/31/31
f 33/33/33 31/31/31 32/32/32
f 32/32/32 34/34/34 33/33/33
f 35/35/35 33/33/33 34/34/34
f 28/28/28 33/33/33 35/35/35
f 35/35/35 25/25/25 28/28/28
f 34/34/34 36/36/36 35/35/35
f 25/25/25 35/35/35 19/19/19
f 37/37/37 39/39/39 38/38/38
f 38/38/38 40/40/40 37/37/37
f 38/38/38 39/39/39 41/41/41
f 41/41/41 42/42/42 38/38/38
f 42/42/42 41/41/41 43/43/43
f 43/43/43 44/44/44 42/42/42
f 45/45/45 37/37/37 40/40/40
f 40/40/40 46/46/46 45/45/45
f 47/47/47 49/49/49 48/48/48
f 48/48/48 50/50/50 47/47/47
f 49/49/49 47/47/47 51/51/51
f 51/51/51 52/52/52 49/49/49
f 52/52/52 51/51/51 53/53/53
f 53/53/53 54/54/54 52/52/52
f 55/55/55 57/57/57 56/56/56
f 56/56/56 58/58/58 55/55/55
f 59/59/59 55/55/55 58/58/58
f 58/58/58 60/60/60 59/59/59
f 61/61/61 63/63/63 62/62/62
f 62/62/62 64/64/64 61/61/61
f 65/65/65 66/66/66 63/63/63
f 63/63/63 67/67/67 65/65/65
f 68/68/68 70/70/70 69/69/69
f 69/69/69 71/71/71 68/68/68
f 72/72/72 74/74/74 73/73/73
f 73/73/73 75/75/75 72/72/72
f 76/76/76 78/78/78 77/77/77
f 77/77/77 79/79/79 76/76/76
f 80/80/80 82/82/82 81/81/81
f 83/83/83 85/85/85 84/84/84
f 86/86/86 88/88/88 87/87/87
f 87/87/87 89/89/89 86/86/86
f 90/90/90 92/92/92 91/91/91
f 91/91/91 92/92/92 93/93/93
f 93/93/93 92/92/92 94/94/94
f 94/94/94 92/92/92 90/90/90
f 95/95/95 97/97/97 96/96/96
f 96/96/96 98/98/98 95/95/95
f 99/99/99 100/100/100 97/97/97
f 100/100/100 99/99/99 101/101/101
f 101/101/101 102/102/102 100/100/100
f 97/97/97 103/103/103 99/99/99
f 104/104/104 106/106/106 105/105/105
f 105/105/105 107/107/107 104/104/104
