#door_frontL_9794_26.obj

v 0.03431111 -0.2364388 -0.1484884
v 0.01848272 0.003669639 -0.169631
v 0.0795593 0.01738559 -1.015734
v 0.1065333 -0.2443597 -1.020225

vn 0.6438061 0.08727913 -0.760195
vn 0.6438061 0.08727913 -0.760195
vn 0.6438061 0.08727914 -0.760195
vn 0.6438061 0.08727914 -0.760195

vt 0.01394653 0.4709473
vt 0.03204346 0.6728516
vt 0.7597656 0.6816406
vt 0.7597656 0.4638672

g door_frontL_9794_26
usemtl door_frontL_9794_26
usemap door_frontL_9794_26
f 1/1/1 3/3/3 2/2/2
f 1/1/1 4/4/4 3/3/3
