#door_frontR_11056_620.obj

v 1.476417E-05 1.147344E-08 -1.044035E-05
v 1.409767E-05 -0.5324806 -0.98173
v 1.407774E-05 2.545027E-08 -0.98173
v 1.478398E-05 -0.5294992 -1.044789E-05
v 0.1242511 0.1999788 -0.06441388
v 1.476417E-05 1.147344E-08 -1.044035E-05
v 0.1242492 0.1999792 -0.1363542
v 1.407774E-05 2.545027E-08 -0.98173
v 0.1242498 0.1999788 -0.8965027
v 0.1242505 0.1999788 -0.9463753
v 1.407774E-05 2.545027E-08 -0.98173
v 0.116086 -0.5338736 -0.9483449
v 0.1498728 0.005023907 -0.9483479
v 0.116086 -0.5338736 -0.9483449
v 1.407774E-05 2.545027E-08 -0.98173
v 1.409767E-05 -0.5324806 -0.98173
v 0.1242505 0.1999788 -0.9463753
v 0.1498728 0.005023907 -0.9483479
v 0.1746265 0.1918912 -0.9153068
v 0.224493 0.6173527 -0.8558732
v 0.1498728 0.005023907 -0.9483479
v 0.1242505 0.1999788 -0.9463753
v 1.407774E-05 2.545027E-08 -0.98173
v 1.478398E-05 -0.5294992 -1.044789E-05
v 0.1498726 0.005023894 -0.03605185
v 0.1160867 -0.5310877 -0.03605519
v 0.1498726 0.005023894 -0.03605185
v 1.478398E-05 -0.5294992 -1.044789E-05
v 1.476417E-05 1.147344E-08 -1.044035E-05
v 1.409767E-05 -0.5324806 -0.98173
v 0.1160867 -0.5310877 -0.03605519
v 0.116086 -0.5338736 -0.9483449
v 1.478398E-05 -0.5294992 -1.044789E-05
v 0.224493 0.6173527 -0.8558732
v 0.1746265 0.1918912 -0.9153068
v 0.2504558 0.5833988 -0.8307425
v 0.2206625 0.6084502 -0.3113213
v 0.2504558 0.5833988 -0.8307425
v 0.250456 0.5750803 -0.3269502
v 0.2504558 0.5833988 -0.8307425
v 0.2206625 0.6084502 -0.3113213
v 0.224493 0.6173527 -0.8558732
v 0.1242511 0.1999788 -0.06441388
v 0.250456 0.5750803 -0.3269502
v 0.1746271 0.1918912 -0.09623694
v 0.250456 0.5750803 -0.3269502
v 0.1242511 0.1999788 -0.06441388
v 0.2206625 0.6084502 -0.3113213
v 1.476417E-05 1.147344E-08 -1.044035E-05
v 0.1746271 0.1918912 -0.09623694
v 0.1498726 0.005023894 -0.03605185
v 0.1746271 0.1918912 -0.09623694
v 1.476417E-05 1.147344E-08 -1.044035E-05
v 0.1242511 0.1999788 -0.06441388
v 0.1160867 -0.5310877 -0.03605519
v 0.1498728 0.005023907 -0.9483479
v 0.116086 -0.5338736 -0.9483449
v 0.1498726 0.005023894 -0.03605185
v 0.1498728 0.005023907 -0.9483479
v 0.1746255 0.1918912 -0.8653254
v 0.1746265 0.1918912 -0.9153068
v 0.1746262 0.1918912 -0.1685038
v 0.1746271 0.1918912 -0.09623694
v 0.1498726 0.005023894 -0.03605185
v 0.1242505 0.1999788 -0.9463753
v 0.2145705 0.57809 -0.8238969
v 0.1242498 0.1999788 -0.8965027
v 0.224493 0.6173527 -0.8558732
v 0.2109948 0.5699869 -0.333772
v 0.2206625 0.6084502 -0.3113213
v 0.1242492 0.1999792 -0.1363542
v 0.1242511 0.1999788 -0.06441388
v 0.2504558 0.5833988 -0.8307425
v 0.1746255 0.1918912 -0.8653254
v 0.2422418 0.5437903 -0.7988356
v 0.1746265 0.1918912 -0.9153068
v 0.250456 0.5750803 -0.3269502
v 0.2423368 0.5362284 -0.3492849
v 0.1746271 0.1918912 -0.09623694
v 0.1746262 0.1918912 -0.1685038
v 0.2109948 0.5699869 -0.333772
v 0.1746262 0.1918912 -0.1685038
v 0.2423368 0.5362284 -0.3492849
v 0.1242492 0.1999792 -0.1363542
v 0.1242498 0.1999788 -0.8965027
v 0.2422418 0.5437903 -0.7988356
v 0.1746255 0.1918912 -0.8653254
v 0.2145705 0.57809 -0.8238969
v 0.2145705 0.57809 -0.8238969
v 0.2423368 0.5362284 -0.3492849
v 0.2422418 0.5437903 -0.7988356
v 0.2109948 0.5699869 -0.333772
v 0.1746262 0.1918912 -0.1685038
v 0.1242498 0.1999788 -0.8965027
v 0.1746255 0.1918912 -0.8653254
v 0.1242492 0.1999792 -0.1363542
v 0.09674104 0.2043271 -0.1788781
v -0.1145445 0.2043271 -0.2773961
v -0.0313975 0.2793268 -0.1798984
v -0.1145445 0.354327 -0.2773961
v 0.09674103 0.354327 -0.1788781
v 0.1019531 0.1304877 -0.1164602
v -0.003643337 0.2812827 -0.2055771
v -0.02652928 0.2518876 -0.210159
v 0.1374616 0.1760936 -0.1093589
v 0.1120675 0.1737293 -0.07879149
v -0.02001166 0.2797588 -0.1858784
v 0.1374616 0.1760936 -0.1093589
v -0.003643337 0.2812827 -0.2055771
v 0.09674103 0.354327 -0.1788781
v -0.1145445 0.2043271 -0.2773961
v 0.09674104 0.2043271 -0.1788781
v -0.1145445 0.354327 -0.2773961

vn -0.9928231 3.252793E-08 0.119592
vn -0.9928231 3.252793E-08 0.119592
vn -0.9928231 3.252793E-08 0.119592
vn -0.9928231 3.252793E-08 0.119592
vn -0.8433331 0.5277016 0.1015861
vn -0.8433331 0.5277016 0.1015861
vn -0.8433331 0.5277017 0.1015861
vn -0.8433335 0.5277012 0.101585
vn -0.8433337 0.527701 0.101585
vn -0.8433337 0.5277007 0.1015859
vn 0.099575 -0.01365817 -0.9949365
vn 0.09957498 -0.01365817 -0.9949365
vn 0.09957497 -0.01365817 -0.9949365
vn 0.1594818 -1.186269E-07 -0.9872009
vn 0.1594818 -1.186269E-07 -0.9872009
vn 0.1594817 -1.186269E-07 -0.9872009
vn 0.4277399 0.07849348 -0.9004873
vn 0.4277399 0.07849348 -0.9004873
vn 0.4277398 0.07849348 -0.9004873
vn 0.4255942 0.05597203 -0.9031814
vn 0.09782097 0.03826401 -0.9944683
vn 0.09782097 0.03826401 -0.9944683
vn 0.09782097 0.03826401 -0.9944683
vn 0.4083533 -0.0186716 0.9126332
vn 0.4083533 -0.0186716 0.9126332
vn 0.4083532 -0.0186716 0.9126332
vn 0.3484499 4.025896E-07 0.9373276
vn 0.3484498 4.025896E-07 0.9373276
vn 0.3484499 4.025896E-07 0.9373276
vn -0.01242004 -0.9999114 0.004571779
vn -0.01242004 -0.9999114 0.004571779
vn -0.01242004 -0.9999114 0.004571779
vn -0.01228626 -0.9999133 0.004538758
vn 0.616482 0.01611114 -0.7872041
vn 0.616482 0.01611114 -0.7872041
vn 0.616482 0.01611114 -0.7872041
vn 0.7443815 0.6631075 -0.07863726
vn 0.7443815 0.6631075 -0.07863726
vn 0.7443815 0.6631075 -0.07863726
vn 0.7848808 0.6146109 -0.0788354
vn 0.7848808 0.6146109 -0.0788354
vn 0.7848808 0.6146109 -0.0788354
vn 0.6270146 0.3533856 0.6942416
vn 0.6270145 0.3533856 0.6942416
vn 0.6270146 0.3533857 0.6942416
vn 0.7429751 0.2656289 0.614353
vn 0.742975 0.2656289 0.6143531
vn 0.742975 0.2656289 0.6143531
vn 0.3268292 0.2732287 0.904726
vn 0.3268292 0.2732287 0.904726
vn 0.3268292 0.2732287 0.904726
vn 0.6246688 -0.05425854 0.7790027
vn 0.6246688 -0.05425854 0.7790027
vn 0.624669 -0.05425854 0.7790027
vn 0.9909004 -0.06257407 -0.1191683
vn 0.9909004 -0.06257407 -0.1191683
vn 0.9909004 -0.06257406 -0.1191683
vn 0.9908574 -0.06289738 -0.1193552
vn 0.9842259 -0.1313163 -0.1185566
vn 0.9842259 -0.1313163 -0.1185566
vn 0.9842259 -0.1313163 -0.1185566
vn 0.9842259 -0.1313163 -0.1185566
vn 0.9842257 -0.131317 -0.1185564
vn 0.9842257 -0.1313171 -0.1185564
vn -0.9656553 0.2323346 0.1163198
vn -0.9656553 0.2323346 0.1163198
vn -0.9656553 0.2323346 0.1163198
vn -0.9661353 0.2359336 0.1044892
vn -0.9635134 0.2426487 0.1129756
vn -0.9628325 0.2452567 0.1131489
vn -0.963005 0.2356332 0.1307613
vn -0.9662727 0.2297161 0.1163943
vn 0.9761457 -0.1914046 -0.102488
vn 0.9761457 -0.1914046 -0.102488
vn 0.9761457 -0.1914046 -0.102488
vn 0.9747092 -0.1901502 -0.1174103
vn 0.9717309 -0.1994493 -0.1263283
vn 0.9741675 -0.1929451 -0.1173448
vn 0.9741675 -0.1929451 -0.1173448
vn 0.9741675 -0.1929451 -0.1173448
vn -0.7102134 -0.2606264 -0.6539656
vn -0.6425207 -0.2884684 -0.7098966
vn -0.7189087 -0.2566899 -0.6459726
vn -0.6374331 -0.2903799 -0.7136937
vn -0.4398233 -0.05127964 0.8966191
vn -0.5570372 0.008588435 0.830443
vn -0.4272174 -0.0573785 0.9023264
vn -0.5672209 0.01409076 0.8234451
vn -0.7668694 -0.6366383 0.08125335
vn -0.7350891 -0.6741174 0.07217234
vn -0.770185 -0.6324982 0.08222133
vn -0.7332307 -0.6761937 0.07165164
vn 0.1573806 0.987355 -0.01895789
vn 0.1573794 0.9873552 -0.01895766
vn 0.1573793 0.9873552 -0.01895764
vn 0.1573807 0.987355 -0.01895791
vn -0.03326595 -0.2415131 0.9698272
vn -0.5468213 -0.241513 0.8016594
vn -0.3111981 -1.271691E-08 0.9503452
vn -0.5468214 0.2415132 0.8016593
vn -0.03326592 0.2415132 0.9698272
vn -0.4815142 -0.7913558 -0.3766951
vn 0.6521584 0.5489442 -0.522828
vn -0.4904496 -0.7924936 -0.3625078
vn 0.6534274 0.5650414 -0.5037463
vn -0.2024756 0.4622024 0.8633493
vn -0.2301243 0.4320495 0.8719953
vn 0.6534274 0.5650414 -0.5037463
vn 0.6521584 0.5489442 -0.522828
vn 0.3111981 -1.02526E-07 -0.9503452
vn 0.3111981 -1.02526E-07 -0.9503452
vn 0.3111981 -1.02526E-07 -0.9503452
vn 0.3111981 -1.02526E-07 -0.9503452

vt 0.006286621 0.1691895
vt 0.1322021 0.1009521
vt 0.1322021 0.1691895
vt 0.006290436 0.1013184
vt 0.01454926 0.1994629
vt 0.006286621 0.1691895
vt 0.02377319 0.1994629
vt 0.1322021 0.1691895
vt 0.1212769 0.1994629
vt 0.1276855 0.1994629
vt 0.1499023 0.2614746
vt 0.1690674 0.1938477
vt 0.1695557 0.2631836
vt 0.1690674 0.1938477
vt 0.1499023 0.2614746
vt 0.1536865 0.1932373
vt 0.1646729 0.2880859
vt 0.1695557 0.2631836
vt 0.1722412 0.2875977
vt 0.177002 0.3427734
vt 0.1695557 0.2631836
vt 0.1646729 0.2880859
vt 0.1499023 0.2614746
vt 0.3017578 0.192627
vt 0.2866211 0.2624512
vt 0.2861328 0.1934814
vt 0.2866211 0.2624512
vt 0.3017578 0.192627
vt 0.3061523 0.2602539
vt 0.1646729 0.1789551
vt 0.2861328 0.1934814
vt 0.1690674 0.1938477
vt 0.2910156 0.1785889
vt 0.177002 0.3427734
vt 0.1722412 0.2875977
vt 0.1820068 0.3388672
vt 0.2514648 0.3425293
vt 0.1848145 0.3383789
vt 0.2493896 0.3369141
vt 0.1848145 0.3383789
vt 0.2514648 0.3425293
vt 0.1816406 0.3439941
vt 0.2912598 0.2875977
vt 0.2680664 0.3439941
vt 0.2836914 0.2878418
vt 0.2680664 0.3439941
vt 0.2912598 0.2875977
vt 0.2731934 0.3474121
vt 0.3061523 0.2602539
vt 0.2836914 0.2878418
vt 0.2866211 0.2624512
vt 0.2836914 0.2878418
vt 0.3061523 0.2602539
vt 0.2912598 0.2875977
vt 0.2861328 0.1934814
vt 0.1695557 0.2631836
vt 0.1690674 0.1938477
vt 0.2866211 0.2624512
vt 0.1695557 0.2631836
vt 0.1802979 0.2873535
vt 0.1739502 0.2873535
vt 0.2697754 0.2868652
vt 0.2790527 0.2866211
vt 0.2866211 0.2624512
vt 0.1276855 0.1994629
vt 0.1118774 0.2492676
vt 0.1212769 0.1994629
vt 0.1160278 0.2543945
vt 0.04904175 0.2481689
vt 0.04614258 0.253418
vt 0.02377319 0.1994629
vt 0.01454926 0.1994629
vt 0.1848145 0.3383789
vt 0.1802979 0.2873535
vt 0.1888428 0.333252
vt 0.1739502 0.2873535
vt 0.2493896 0.3369141
vt 0.24646 0.3317871
vt 0.2790527 0.2866211
vt 0.2697754 0.2868652
vt 0.05609131 0.2449951
vt 0.03878784 0.2069092
vt 0.05859375 0.2407227
vt 0.03411865 0.2049561
vt 0.1137695 0.2049561
vt 0.104126 0.2431641
vt 0.1090698 0.2076416
vt 0.1074829 0.2469482
vt 0.1074829 0.2469482
vt 0.05859375 0.2407227
vt 0.104126 0.2431641
vt 0.05609131 0.2449951
vt 0.03878784 0.2069092
vt 0.1137695 0.2049561
vt 0.1090698 0.2076416
vt 0.03411865 0.2049561
vt 0.07647705 0.001289368
vt 0.04473877 0.001289368
vt 0.06060791 0.01182556
vt 0.04473877 0.02235413
vt 0.07647705 0.02235413
vt 0.08239746 0.03106689
vt 0.1083374 0.02719116
vt 0.1080322 0.03198242
vt 0.08288574 0.02360535
vt 0.08239746 0.0385437
vt 0.1080322 0.0368042
vt 0.08288574 0.04360962
vt 0.1083374 0.0401001
vt 0.128418 0.02171326
vt 0.1000366 0.001502037
vt 0.128418 0.001502037
vt 0.1000366 0.02171326

g door_frontR_11056_620
usemtl door_frontR_11056_620
usemap door_frontR_11056_620
f 1/1/1 3/3/3 2/2/2
f 2/2/2 4/4/4 1/1/1
f 5/5/5 7/7/7 6/6/6
f 8/8/8 6/6/6 7/7/7
f 7/7/7 9/9/9 8/8/8
f 8/8/8 9/9/9 10/10/10
f 11/11/11 13/13/13 12/12/12
f 14/14/14 16/16/16 15/15/15
f 17/17/17 19/19/19 18/18/18
f 19/19/19 17/17/17 20/20/20
f 21/21/21 23/23/23 22/22/22
f 24/24/24 26/26/26 25/25/25
f 27/27/27 29/29/29 28/28/28
f 30/30/30 32/32/32 31/31/31
f 31/31/31 33/33/33 30/30/30
f 34/34/34 36/36/36 35/35/35
f 37/37/37 39/39/39 38/38/38
f 40/40/40 42/42/42 41/41/41
f 43/43/43 45/45/45 44/44/44
f 46/46/46 48/48/48 47/47/47
f 49/49/49 51/51/51 50/50/50
f 52/52/52 54/54/54 53/53/53
f 55/55/55 57/57/57 56/56/56
f 56/56/56 58/58/58 55/55/55
f 59/59/59 61/61/61 60/60/60
f 59/59/59 60/60/60 62/62/62
f 59/59/59 62/62/62 63/63/63
f 64/64/64 59/59/59 63/63/63
f 65/65/65 67/67/67 66/66/66
f 66/66/66 68/68/68 65/65/65
f 68/68/68 66/66/66 69/69/69
f 69/69/69 70/70/70 68/68/68
f 70/70/70 69/69/69 71/71/71
f 71/71/71 72/72/72 70/70/70
f 73/73/73 75/75/75 74/74/74
f 74/74/74 76/76/76 73/73/73
f 75/75/75 73/73/73 77/77/77
f 77/77/77 78/78/78 75/75/75
f 78/78/78 77/77/77 79/79/79
f 79/79/79 80/80/80 78/78/78
f 81/81/81 83/83/83 82/82/82
f 82/82/82 84/84/84 81/81/81
f 85/85/85 87/87/87 86/86/86
f 86/86/86 88/88/88 85/85/85
f 89/89/89 91/91/91 90/90/90
f 90/90/90 92/92/92 89/89/89
f 93/93/93 95/95/95 94/94/94
f 94/94/94 96/96/96 93/93/93
f 97/97/97 99/99/99 98/98/98
f 98/98/98 99/99/99 100/100/100
f 100/100/100 99/99/99 101/101/101
f 101/101/101 99/99/99 97/97/97
f 102/102/102 104/104/104 103/103/103
f 103/103/103 105/105/105 102/102/102
f 104/104/104 102/102/102 106/106/106
f 106/106/106 107/107/107 104/104/104
f 107/107/107 106/106/106 108/108/108
f 108/108/108 109/109/109 107/107/107
f 110/110/110 112/112/112 111/111/111
f 111/111/111 113/113/113 110/110/110
