#door02_L_10667_1756.obj

v -0.04997133 0.04999996 2.169046E-05
v 0.0500306 0.04999928 1.000021
v 0.05003097 0.04999995 2.289625E-05
v -0.04996831 0.04999929 1.000024
v -0.04996826 2.049999 1.000024
v 0.05003102 2.05 2.28975E-05
v 0.05003048 2.049999 1.000025
v -0.04997145 2.05 2.525253E-05
v -0.04997145 2.05 2.525253E-05
v 0.05003097 0.04999995 2.289625E-05
v 0.05003102 2.05 2.28975E-05
v -0.04997133 0.04999996 2.169046E-05
v 0.05003048 2.049999 1.000025
v -0.04996831 0.04999929 1.000024
v -0.04996826 2.049999 1.000024
v 0.0500306 0.04999928 1.000021
v 0.0500306 0.04999928 1.000021
v 0.05003102 2.05 2.28975E-05
v 0.05003097 0.04999995 2.289625E-05
v 0.05003048 2.049999 1.000025
v -0.04996826 2.049999 1.000024
v -0.04997133 0.04999996 2.169046E-05
v -0.04997145 2.05 2.525253E-05
v -0.04996831 0.04999929 1.000024

vn -1.07254E-08 -0.9999989 -7.551729E-07
vn -1.07254E-08 -0.9999989 -7.551729E-07
vn -1.07254E-08 -0.9999989 -7.551729E-07
vn -1.07254E-08 -0.9999989 -7.551729E-07
vn 2.036009E-08 0.9999989 9.504384E-07
vn 2.036009E-08 0.9999989 9.504384E-07
vn 2.036009E-08 0.9999989 9.504384E-07
vn 2.036009E-08 0.9999989 9.504384E-07
vn -0.04928154 6.832574E-07 -0.998785
vn -0.04928154 6.832574E-07 -0.998785
vn -0.04928154 6.832574E-07 -0.998785
vn -0.04928154 6.832574E-07 -0.998785
vn 0.04928154 -7.214044E-07 0.998785
vn 0.04928154 -7.214044E-07 0.998785
vn 0.04928154 -7.214044E-07 0.998785
vn 0.04928154 -7.214044E-07 0.998785
vn 0.998785 2.650369E-08 -0.04928133
vn 0.998785 2.650369E-08 -0.04928133
vn 0.998785 2.650369E-08 -0.04928133
vn 0.998785 2.650369E-08 -0.04928133
vn -0.998785 -2.650369E-08 0.04928133
vn -0.998785 -2.650369E-08 0.04928133
vn -0.998785 -2.650369E-08 0.04928133
vn -0.998785 -2.650369E-08 0.04928133

vt 0.02778625 0.02719116
vt 0.2481689 0.005149841
vt 0.02778625 0.005149841
vt 0.2481689 0.02719116
vt 0.2481689 0.4680176
vt 0.02778625 0.4899902
vt 0.2481689 0.4899902
vt 0.02778625 0.4680176
vt 0.02778625 0.4680176
vt 0.005741119 0.02719116
vt 0.005741119 0.4680176
vt 0.02778625 0.02719116
vt 0.2702637 0.4680176
vt 0.2481689 0.02719116
vt 0.2481689 0.4680176
vt 0.2702637 0.02719116
vt 0.2481689 0.02719116
vt 0.02778625 0.4680176
vt 0.02778625 0.02719116
vt 0.2481689 0.4680176
vt 0.2481689 0.4680176
vt 0.02778625 0.02719116
vt 0.02778625 0.4680176
vt 0.2481689 0.02719116

g door02_L_10667_1756
usemtl door02_L_10667_1756
usemap door02_L_10667_1756
f 1/1/1 3/3/3 2/2/2
f 2/2/2 4/4/4 1/1/1
f 5/5/5 7/7/7 6/6/6
f 6/6/6 8/8/8 5/5/5
f 9/9/9 11/11/11 10/10/10
f 10/10/10 12/12/12 9/9/9
f 13/13/13 15/15/15 14/14/14
f 14/14/14 16/16/16 13/13/13
f 17/17/17 19/19/19 18/18/18
f 18/18/18 20/20/20 17/17/17
f 21/21/21 23/23/23 22/22/22
f 22/22/22 24/24/24 21/21/21
