#door_frontL_10024_31.obj

v 0.06728037 -0.02978865 -0.9784489
v -0.0008966107 -0.5558378 -0.9784653
v 0.002246124 -0.5263551 -0.004581477
v 0.07624415 0.006338533 -0.004601676
v -0.06998635 0.2024117 -0.06983775
v -0.07656527 0.2008657 -0.1391115
v 0.07624415 0.006338533 -0.004601676
v 0.06728037 -0.02978865 -0.9784489
v -0.0814202 -0.01856937 -0.9419646
v -0.1165867 -0.5558802 -0.942522
v -0.0008966107 -0.5558378 -0.9784653
v -0.06135947 0.1545322 -0.940402
v -0.1082548 0.151147 -0.9084418
v -0.0814202 -0.01856937 -0.9419646
v 0.06728037 -0.02978865 -0.9784489
v 0.002246124 -0.5263551 -0.004581477
v -0.1140876 -0.5283732 -0.0424793
v -0.08189122 0.01417953 -0.0430954
v 0.07624415 0.006338533 -0.004601676
v -0.0008966107 -0.5558378 -0.9784653
v -0.1165867 -0.5558802 -0.942522
v -0.1140876 -0.5283732 -0.0424793
v 0.002246124 -0.5263551 -0.004581477
v -0.1120267 0.4293298 -0.8483163
v -0.1446172 0.4092291 -0.8228531
v -0.1082548 0.151147 -0.9084418
v -0.06135947 0.1545322 -0.940402
v -0.1757874 0.499489 -0.3089856
v -0.20395 0.4686903 -0.3241225
v -0.1446172 0.4092291 -0.8228531
v -0.1120267 0.4293298 -0.8483163
v -0.06998635 0.2024117 -0.06983775
v -0.1233508 0.1945352 -0.100962
v -0.20395 0.4686903 -0.3241225
v -0.1757874 0.499489 -0.3089856
v 0.07624415 0.006338533 -0.004601676
v -0.08189122 0.01417953 -0.0430954
v -0.1233508 0.1945352 -0.100962
v -0.06998635 0.2024117 -0.06983775
v -0.1165867 -0.5558802 -0.942522
v -0.0814202 -0.01856937 -0.9419646
v -0.08189122 0.01417953 -0.0430954
v -0.1140876 -0.5283732 -0.0424793
v -0.08189122 0.01417953 -0.0430954
v -0.0814202 -0.01856937 -0.9419646
v -0.1082548 0.151147 -0.9084418
v -0.1233508 0.1945352 -0.100962
v -0.1032884 0.154993 -0.8582806
v -0.1233508 0.1945352 -0.100962
v -0.1032884 0.154993 -0.8582806
v -0.1281655 0.1927892 -0.1704279
v -0.06135947 0.1545322 -0.940402
v -0.05493686 0.1585533 -0.8903394
v -0.1057049 0.4111188 -0.816376
v -0.1120267 0.4293298 -0.8483163
v -0.1120267 0.4293298 -0.8483163
v -0.1057049 0.4111188 -0.816376
v -0.1612314 0.4696454 -0.3309322
v -0.1757874 0.499489 -0.3089856
v -0.1757874 0.499489 -0.3089856
v -0.1612314 0.4696454 -0.3309322
v -0.07656527 0.2008657 -0.1391115
v -0.06998635 0.2024117 -0.06983775
v -0.1446172 0.4092291 -0.8228531
v -0.1399834 0.3906394 -0.7909722
v -0.1032884 0.154993 -0.8582806
v -0.1082548 0.151147 -0.9084418
v -0.1233508 0.1945352 -0.100962
v -0.1281655 0.1927892 -0.1704279
v -0.1916388 0.4396176 -0.3459441
v -0.20395 0.4686903 -0.3241225
v -0.20395 0.4686903 -0.3241225
v -0.1916388 0.4396176 -0.3459441
v -0.1399834 0.3906394 -0.7909722
v -0.1446172 0.4092291 -0.8228531
v -0.1612314 0.4696454 -0.3309322
v -0.1916388 0.4396176 -0.3459441
v -0.1281655 0.1927892 -0.1704279
v -0.07656527 0.2008657 -0.1391115
v -0.05493686 0.1585533 -0.8903394
v -0.1032884 0.154993 -0.8582806
v -0.1399834 0.3906394 -0.7909722
v -0.1057049 0.4111188 -0.816376
v -0.1057049 0.4111188 -0.816376
v -0.1399834 0.3906394 -0.7909722
v -0.1916388 0.4396176 -0.3459441
v -0.1612314 0.4696454 -0.3309322
v -0.1032884 0.154993 -0.8582806
v -0.05493686 0.1585533 -0.8903394
v -0.07656527 0.2008657 -0.1391115
v -0.1281655 0.1927892 -0.1704279
v 0.07624415 0.006338533 -0.004601676
v -0.07656527 0.2008657 -0.1391115
v -0.05493686 0.1585533 -0.8903394
v 0.06728037 -0.02978865 -0.9784489
v 0.06728037 -0.02978865 -0.9784489
v -0.05493686 0.1585533 -0.8903394
v -0.06135947 0.1545322 -0.940402
v -0.05118142 0.2036746 -0.1801478
v 0.07349554 0.2743558 -0.1804634
v 0.1602052 0.200431 -0.2773939
v 0.1550847 0.3481713 -0.277394
v -0.05699699 0.3309203 -0.1801354
v -0.04946369 0.1360875 -0.119697
v 0.0698952 0.2476292 -0.2103672
v 0.04612491 0.2740076 -0.205905
v -0.0864927 0.1796471 -0.1132035
v -0.05777572 0.1778945 -0.08348507
v 0.06222628 0.2740423 -0.1864298
v -0.0864927 0.1796471 -0.1132035
v 0.04612491 0.2740076 -0.205905
v -0.05118142 0.2036746 -0.1801478
v 0.1602052 0.200431 -0.2773939
v 0.1550847 0.3481713 -0.277394
v -0.05699699 0.3309203 -0.1801354

vn 0.9748465 -0.1330951 0.178774
vn 0.9748465 -0.1330951 0.178774
vn 0.9748465 -0.1330951 0.178774
vn 0.9748465 -0.1330951 0.178774
vn 0.8152836 0.5760059 0.05940678
vn 0.8152835 0.5760059 0.05940676
vn 0.8152835 0.5760059 0.05940676
vn -0.08312564 0.02608824 -0.9961975
vn -0.08312564 0.02608824 -0.9961975
vn -0.08312564 0.02608824 -0.9961975
vn -0.08312564 0.02608824 -0.9961975
vn -0.1510419 0.04656134 -0.9874301
vn -0.1510419 0.04656135 -0.9874301
vn -0.1510419 0.04656134 -0.9874301
vn -0.1510419 0.04656134 -0.9874301
vn -0.4383757 0.02699075 0.8983863
vn -0.4383757 0.02699075 0.8983863
vn -0.4383757 0.02699075 0.8983863
vn -0.4383757 0.02699075 0.8983863
vn 0.002947351 -0.9995005 0.03143246
vn 0.002947351 -0.9995005 0.03143246
vn 0.00294735 -0.9995005 0.03143246
vn 0.002947351 -0.9995005 0.03143246
vn -0.4570141 0.1597257 -0.8750003
vn -0.4570143 0.1597257 -0.8750004
vn -0.4570143 0.1597257 -0.8750004
vn -0.4570143 0.1597257 -0.8750004
vn -0.6079646 0.7410439 -0.2850123
vn -0.6079646 0.7410439 -0.2850123
vn -0.6079646 0.7410437 -0.2850122
vn -0.6079646 0.7410437 -0.2850122
vn -0.7067027 0.3850018 0.5935859
vn -0.7067028 0.3850018 0.593586
vn -0.7067027 0.3850018 0.5935859
vn -0.7067027 0.3850018 0.5935859
vn -0.4747235 0.1528983 0.8667522
vn -0.4747235 0.1528983 0.8667522
vn -0.4747235 0.1528983 0.8667522
vn -0.4747235 0.1528983 0.8667522
vn -0.9812077 0.06226087 -0.1826335
vn -0.9812077 0.06226087 -0.1826335
vn -0.9812077 0.06226087 -0.1826335
vn -0.9812077 0.06226087 -0.1826335
vn -0.9651008 -0.1909205 -0.1792477
vn -0.9651008 -0.1909205 -0.1792477
vn -0.9651008 -0.1909205 -0.1792477
vn -0.9651008 -0.1909205 -0.1792477
vn -0.9651008 -0.1909205 -0.1792477
vn -0.9651008 -0.1909205 -0.1792477
vn -0.9651008 -0.1909205 -0.1792477
vn -0.9651008 -0.1909205 -0.1792477
vn 0.9728923 0.2216382 0.0660072
vn 0.9728923 0.2216382 0.06600721
vn 0.9728923 0.2216382 0.06600721
vn 0.9728923 0.2216382 0.06600721
vn 0.8863338 0.4074606 0.2199724
vn 0.8863338 0.4074606 0.2199724
vn 0.8863338 0.4074606 0.2199724
vn 0.8863338 0.4074606 0.2199724
vn 0.9403353 0.3042521 0.1523157
vn 0.9403353 0.304252 0.1523157
vn 0.9403353 0.3042521 0.1523157
vn 0.9403353 0.3042521 0.1523157
vn -0.9805301 -0.1712812 -0.09603891
vn -0.9805301 -0.1712812 -0.09603891
vn -0.9805301 -0.1712812 -0.09603891
vn -0.9805301 -0.1712812 -0.09603891
vn -0.9508985 -0.2603959 -0.16729
vn -0.9508985 -0.2603959 -0.16729
vn -0.9508985 -0.2603959 -0.16729
vn -0.9508985 -0.2603959 -0.16729
vn -0.906771 -0.3472409 -0.239144
vn -0.906771 -0.3472408 -0.239144
vn -0.906771 -0.3472409 -0.239144
vn -0.906771 -0.3472409 -0.239144
vn 0.7033119 -0.3558303 -0.6154159
vn 0.7033119 -0.3558302 -0.6154158
vn 0.7033119 -0.3558302 -0.6154159
vn 0.7033119 -0.3558302 -0.6154159
vn 0.4356962 -0.1248579 0.8913918
vn 0.4356962 -0.1248579 0.8913918
vn 0.4356962 -0.1248579 0.8913918
vn 0.4356962 -0.1248579 0.8913918
vn 0.5837576 -0.7653552 0.2710295
vn 0.5837576 -0.7653552 0.2710295
vn 0.5837577 -0.7653552 0.2710295
vn 0.5837577 -0.7653552 0.2710295
vn -0.1032064 0.991513 -0.0790474
vn -0.1032064 0.991513 -0.0790474
vn -0.1032064 0.991513 -0.0790474
vn -0.1032064 0.991513 -0.0790474
vn 0.8033186 0.5816535 0.1278976
vn 0.8033186 0.5816535 0.1278976
vn 0.8033186 0.5816535 0.1278976
vn 0.8033186 0.5816535 0.1278976
vn 0.8099914 0.5864384 -0.001826942
vn 0.8099914 0.5864384 -0.001826942
vn 0.8099914 0.5864384 -0.001826957
vn -0.04180841 -0.2350281 0.9710889
vn 0.2332279 0.03378305 0.9718351
vn 0.4918059 -0.2213061 0.8421109
vn 0.4820914 0.2694848 0.833646
vn -0.06697518 0.248338 0.9663551
vn 0.4873643 -0.79506 -0.3610459
vn 0.5182608 -0.7986075 -0.3059909
vn -0.611067 0.5189402 -0.5977438
vn -0.6160066 0.5508202 -0.563145
vn 0.1529083 0.4940275 0.8558944
vn 0.2130204 0.4264984 0.8790455
vn -0.6160066 0.5508202 -0.563145
vn -0.611067 0.5189402 -0.5977438
vn -0.2444724 -0.01654278 -0.9695151
vn -0.2444724 -0.01654278 -0.9695151
vn -0.2444724 -0.01654278 -0.9695151
vn -0.2444724 -0.01654278 -0.9695151

vt 0.1322021 0.1691895
vt 0.1322021 0.1009521
vt 0.006290436 0.1013184
vt 0.006286621 0.1691895
vt 0.01454926 0.1994629
vt 0.02377319 0.1994629
vt 0.006286621 0.1691895
vt 0.1499023 0.2614746
vt 0.1695557 0.2631836
vt 0.1690674 0.1938477
vt 0.1536865 0.1932373
vt 0.1646729 0.2880859
vt 0.1722412 0.2875977
vt 0.1695557 0.2631836
vt 0.1499023 0.2614746
vt 0.3017578 0.192627
vt 0.2861328 0.1934814
vt 0.2866211 0.2624512
vt 0.3061523 0.2602539
vt 0.1646729 0.1789551
vt 0.1690674 0.1938477
vt 0.2861328 0.1934814
vt 0.2910156 0.1785889
vt 0.177002 0.3427734
vt 0.1820068 0.3388672
vt 0.1722412 0.2875977
vt 0.1646729 0.2880859
vt 0.2514648 0.3425293
vt 0.2493896 0.3369141
vt 0.1848145 0.3383789
vt 0.1816406 0.3439941
vt 0.2912598 0.2875977
vt 0.2836914 0.2878418
vt 0.2680664 0.3439941
vt 0.2731934 0.3474121
vt 0.3061523 0.2602539
vt 0.2866211 0.2624512
vt 0.2836914 0.2878418
vt 0.2912598 0.2875977
vt 0.1690674 0.1938477
vt 0.1695557 0.2631836
vt 0.2866211 0.2624512
vt 0.2861328 0.1934814
vt 0.2866211 0.2624512
vt 0.1695557 0.2631836
vt 0.1739502 0.2873535
vt 0.2790527 0.2866211
vt 0.1802979 0.2873535
vt 0.2790527 0.2866211
vt 0.1802979 0.2873535
vt 0.2697754 0.2868652
vt 0.1276855 0.1994629
vt 0.1212769 0.1994629
vt 0.1118774 0.2492676
vt 0.1160278 0.2543945
vt 0.1160278 0.2543945
vt 0.1118774 0.2492676
vt 0.04904175 0.2481689
vt 0.04614258 0.253418
vt 0.04614258 0.253418
vt 0.04904175 0.2481689
vt 0.02377319 0.1994629
vt 0.01454926 0.1994629
vt 0.1848145 0.3383789
vt 0.1888428 0.333252
vt 0.1802979 0.2873535
vt 0.1739502 0.2873535
vt 0.2790527 0.2866211
vt 0.2697754 0.2868652
vt 0.24646 0.3317871
vt 0.2493896 0.3369141
vt 0.2493896 0.3369141
vt 0.24646 0.3317871
vt 0.1888428 0.333252
vt 0.1848145 0.3383789
vt 0.05609131 0.2449951
vt 0.05859375 0.2407227
vt 0.03878784 0.2069092
vt 0.03411865 0.2049561
vt 0.1137695 0.2049561
vt 0.1090698 0.2076416
vt 0.104126 0.2431641
vt 0.1074829 0.2469482
vt 0.1074829 0.2469482
vt 0.104126 0.2431641
vt 0.05859375 0.2407227
vt 0.05609131 0.2449951
vt 0.1090698 0.2076416
vt 0.1137695 0.2049561
vt 0.03411865 0.2049561
vt 0.03878784 0.2069092
vt 0.006286621 0.1691895
vt 0.02377319 0.1994629
vt 0.1212769 0.1994629
vt 0.1322021 0.1691895
vt 0.1322021 0.1691895
vt 0.1212769 0.1994629
vt 0.1276855 0.1994629
vt 0.07647705 0.001289368
vt 0.06060791 0.01182556
vt 0.04473877 0.001289368
vt 0.04473877 0.02235413
vt 0.07647705 0.02235413
vt 0.08239746 0.03106689
vt 0.1080322 0.03198242
vt 0.1083374 0.02719116
vt 0.08288574 0.02360535
vt 0.08239746 0.0385437
vt 0.1080322 0.0368042
vt 0.08288574 0.04360962
vt 0.1083374 0.0401001
vt 0.128418 0.001502037
vt 0.1000366 0.001502037
vt 0.1000366 0.02171326
vt 0.128418 0.02171326

g door_frontL_10024_31
usemtl door_frontL_10024_31
usemap door_frontL_10024_31
f 1/1/1 3/3/3 2/2/2
f 1/1/1 4/4/4 3/3/3
f 5/5/5 7/7/7 6/6/6
f 8/8/8 10/10/10 9/9/9
f 8/8/8 11/11/11 10/10/10
f 12/12/12 14/14/14 13/13/13
f 12/12/12 15/15/15 14/14/14
f 16/16/16 18/18/18 17/17/17
f 16/16/16 19/19/19 18/18/18
f 20/20/20 22/22/22 21/21/21
f 20/20/20 23/23/23 22/22/22
f 24/24/24 26/26/26 25/25/25
f 24/24/24 27/27/27 26/26/26
f 28/28/28 30/30/30 29/29/29
f 28/28/28 31/31/31 30/30/30
f 32/32/32 34/34/34 33/33/33
f 32/32/32 35/35/35 34/34/34
f 36/36/36 38/38/38 37/37/37
f 36/36/36 39/39/39 38/38/38
f 40/40/40 42/42/42 41/41/41
f 40/40/40 43/43/43 42/42/42
f 44/44/44 46/46/46 45/45/45
f 46/46/46 44/44/44 47/47/47
f 46/46/46 49/49/49 48/48/48
f 50/50/50 49/49/49 51/51/51
f 52/52/52 54/54/54 53/53/53
f 52/52/52 55/55/55 54/54/54
f 56/56/56 58/58/58 57/57/57
f 56/56/56 59/59/59 58/58/58
f 60/60/60 62/62/62 61/61/61
f 60/60/60 63/63/63 62/62/62
f 64/64/64 66/66/66 65/65/65
f 64/64/64 67/67/67 66/66/66
f 68/68/68 70/70/70 69/69/69
f 68/68/68 71/71/71 70/70/70
f 72/72/72 74/74/74 73/73/73
f 72/72/72 75/75/75 74/74/74
f 76/76/76 78/78/78 77/77/77
f 76/76/76 79/79/79 78/78/78
f 80/80/80 82/82/82 81/81/81
f 80/80/80 83/83/83 82/82/82
f 84/84/84 86/86/86 85/85/85
f 84/84/84 87/87/87 86/86/86
f 88/88/88 90/90/90 89/89/89
f 88/88/88 91/91/91 90/90/90
f 92/92/92 94/94/94 93/93/93
f 92/92/92 95/95/95 94/94/94
f 96/96/96 98/98/98 97/97/97
f 99/99/99 101/101/101 100/100/100
f 101/101/101 102/102/102 100/100/100
f 102/102/102 103/103/103 100/100/100
f 103/103/103 99/99/99 100/100/100
f 104/104/104 106/106/106 105/105/105
f 104/104/104 107/107/107 106/106/106
f 108/108/108 104/104/104 105/105/105
f 108/108/108 105/105/105 109/109/109
f 110/110/110 108/108/108 109/109/109
f 110/110/110 109/109/109 111/111/111
f 112/112/112 114/114/114 113/113/113
f 112/112/112 115/115/115 114/114/114
