#door_frontL_9583_486.obj

v 4.364328E-05 7.060975E-08 -2.397991E-05
v 4.448192E-05 -0.5324805 -0.9817407
v 4.364328E-05 -0.5294992 -2.395677E-05
v 4.448192E-05 2.769753E-08 -0.9817408
v -0.124193 0.1999789 -0.06443179
v -0.1241922 0.1999789 -0.1363669
v 4.364328E-05 7.060975E-08 -2.397991E-05
v 4.448192E-05 2.769753E-08 -0.9817408
v -0.1241901 0.1999789 -0.8965169
v -0.1241924 0.1999789 -0.9463859
v 4.448192E-05 2.769753E-08 -0.9817408
v -0.1160284 -0.5338736 -0.9483583
v 4.448192E-05 -0.5324805 -0.9817407
v -0.1160284 -0.5338736 -0.9483583
v 4.448192E-05 2.769753E-08 -0.9817408
v -0.1498159 0.005023754 -0.948359
v -0.1241924 0.1999789 -0.9463859
v -0.1498159 0.005023754 -0.948359
v 4.448192E-05 2.769753E-08 -0.9817408
v -0.1498159 0.005023754 -0.948359
v -0.1241924 0.1999789 -0.9463859
v -0.1745676 0.1918914 -0.91532
v -0.2244318 0.6173527 -0.8558864
v 4.364328E-05 -0.5294992 -2.395677E-05
v -0.1498138 0.005023794 -0.03606629
v 4.364328E-05 7.060975E-08 -2.397991E-05
v -0.1498138 0.005023794 -0.03606629
v 4.364328E-05 -0.5294992 -2.395677E-05
v -0.1160263 -0.5310874 -0.0360656
v 4.448192E-05 -0.5324805 -0.9817407
v -0.1160263 -0.5310874 -0.0360656
v 4.364328E-05 -0.5294992 -2.395677E-05
v -0.1160284 -0.5338736 -0.9483583
v -0.1745676 0.1918914 -0.91532
v -0.2244318 0.6173527 -0.8558864
v -0.250396 0.5833988 -0.8307546
v -0.2206008 0.6084502 -0.3113336
v -0.250396 0.5833988 -0.8307546
v -0.2244318 0.6173527 -0.8558864
v -0.250396 0.5833988 -0.8307546
v -0.2206008 0.6084502 -0.3113336
v -0.2503957 0.5750805 -0.3269655
v -0.124193 0.1999789 -0.06443179
v -0.2503957 0.5750805 -0.3269655
v -0.2206008 0.6084502 -0.3113336
v -0.2503957 0.5750805 -0.3269655
v -0.124193 0.1999789 -0.06443179
v -0.1745673 0.1918914 -0.09625279
v 4.364328E-05 7.060975E-08 -2.397991E-05
v -0.1745673 0.1918914 -0.09625279
v -0.124193 0.1999789 -0.06443179
v -0.1745673 0.1918914 -0.09625279
v 4.364328E-05 7.060975E-08 -2.397991E-05
v -0.1498138 0.005023794 -0.03606629
v -0.1160263 -0.5310874 -0.0360656
v -0.1498159 0.005023754 -0.948359
v -0.1498138 0.005023794 -0.03606629
v -0.1160284 -0.5338736 -0.9483583
v -0.1745668 0.1918909 -0.8653383
v -0.1498159 0.005023754 -0.948359
v -0.1745676 0.1918914 -0.91532
v -0.1745689 0.1918914 -0.1685171
v -0.1745673 0.1918914 -0.09625279
v -0.1498138 0.005023794 -0.03606629
v -0.1241924 0.1999789 -0.9463859
v -0.2145116 0.5780898 -0.823913
v -0.2244318 0.6173527 -0.8558864
v -0.1241901 0.1999789 -0.8965169
v -0.2109357 0.5699868 -0.3337865
v -0.2206008 0.6084502 -0.3113336
v -0.1241922 0.1999789 -0.1363669
v -0.124193 0.1999789 -0.06443179
v -0.250396 0.5833988 -0.8307546
v -0.1745668 0.1918909 -0.8653383
v -0.1745676 0.1918914 -0.91532
v -0.2421854 0.5437901 -0.7988475
v -0.2503957 0.5750805 -0.3269655
v -0.2422779 0.5362285 -0.3492999
v -0.1745673 0.1918914 -0.09625279
v -0.1745689 0.1918914 -0.1685171
v -0.2109357 0.5699868 -0.3337865
v -0.1745689 0.1918914 -0.1685171
v -0.1241922 0.1999789 -0.1363669
v -0.2422779 0.5362285 -0.3492999
v -0.1241901 0.1999789 -0.8965169
v -0.2421854 0.5437901 -0.7988475
v -0.2145116 0.5780898 -0.823913
v -0.1745668 0.1918909 -0.8653383
v -0.2145116 0.5780898 -0.823913
v -0.2422779 0.5362285 -0.3492999
v -0.2109357 0.5699868 -0.3337865
v -0.2421854 0.5437901 -0.7988475
v -0.1745689 0.1918914 -0.1685171
v -0.1241901 0.1999789 -0.8965169
v -0.1241922 0.1999789 -0.1363669
v -0.1745668 0.1918909 -0.8653383
v -0.09668162 0.204327 -0.178887
v 0.03145425 0.2793269 -0.1799129
v 0.1146022 0.204327 -0.277412
v 0.1146022 0.3543271 -0.277412
v -0.09668162 0.3543271 -0.178887
v -0.1018955 0.1304877 -0.1164774
v 0.003701746 0.2812828 -0.2055923
v -0.1374006 0.1760934 -0.1093714
v 0.02658762 0.2518878 -0.2101696
v -0.1120086 0.1737292 -0.07880594
v 0.02006915 0.2797587 -0.1858897
v -0.1374006 0.1760934 -0.1093714
v 0.003701746 0.2812828 -0.2055923
v -0.09668162 0.3543271 -0.178887
v 0.1146022 0.204327 -0.277412
v 0.1146022 0.3543271 -0.277412
v -0.09668162 0.204327 -0.178887

vn 0.3285966 -1.421084E-14 0.9444704
vn 0.3285966 -1.421084E-14 0.9444704
vn 0.3285966 -1.421084E-14 0.9444704
vn 0.3285966 -1.421084E-14 0.9444704
vn 0.2791185 0.5277016 0.8022613
vn 0.2791185 0.5277016 0.8022613
vn 0.2791185 0.5277016 0.8022613
vn 0.2791197 0.5277008 0.8022614
vn 0.2791197 0.5277008 0.8022614
vn 0.279119 0.5277006 0.8022618
vn 0.8168531 -9.568978E-08 -0.5768454
vn 0.8168531 -9.568978E-08 -0.5768454
vn 0.8168531 -9.568978E-08 -0.5768454
vn 0.8501129 -0.01365809 -0.5264231
vn 0.8501129 -0.01365809 -0.5264231
vn 0.8501129 -0.01365809 -0.5264231
vn 0.8504626 0.03826394 -0.5246416
vn 0.8504625 0.03826394 -0.5246416
vn 0.8504625 0.03826394 -0.5246416
vn 0.6211339 0.07849328 -0.7797635
vn 0.6211338 0.07849327 -0.7797635
vn 0.6211338 0.07849327 -0.7797635
vn 0.6244966 0.05597214 -0.7790191
vn -0.9951252 3.960869E-07 0.09861873
vn -0.9951252 3.960869E-07 0.09861872
vn -0.9951252 3.960869E-07 0.09861872
vn -0.9992487 -0.01867165 0.0339562
vn -0.9992487 -0.01867165 0.0339562
vn -0.9992487 -0.01867165 0.03395617
vn 0.001318404 -0.9999131 0.01303125
vn 0.001318404 -0.9999131 0.01303125
vn 0.001318404 -0.9999131 0.01303125
vn 0.001347492 -0.9999112 0.01316593
vn 0.4364684 0.0161115 -0.8995752
vn 0.4364684 0.0161115 -0.8995752
vn 0.4364684 0.0161115 -0.8995751
vn -0.2738856 0.6146118 -0.7397555
vn -0.2738856 0.6146118 -0.7397555
vn -0.2738857 0.6146118 -0.7397556
vn -0.2562772 0.6631073 -0.703285
vn -0.2562772 0.6631073 -0.703285
vn -0.2562772 0.6631073 -0.703285
vn -0.8782379 0.2656289 -0.3976675
vn -0.8782378 0.2656288 -0.3976675
vn -0.8782379 0.2656288 -0.3976675
vn -0.8990808 0.3533856 -0.258403
vn -0.8990808 0.3533856 -0.2584031
vn -0.8990808 0.3533856 -0.2584031
vn -0.9741994 -0.05425852 -0.2190695
vn -0.9741994 -0.05425852 -0.2190695
vn -0.9741994 -0.05425852 -0.2190696
vn -0.9563405 0.2732287 0.1037243
vn -0.9563405 0.2732287 0.1037243
vn -0.9563405 0.2732287 0.1037243
vn -0.3279459 -0.06289749 -0.9426004
vn -0.3279459 -0.06289749 -0.9426004
vn -0.3279459 -0.06289749 -0.9426004
vn -0.328133 -0.06257374 -0.9425569
vn -0.3257495 -0.1313164 -0.9362923
vn -0.3257495 -0.1313164 -0.9362923
vn -0.3257495 -0.1313164 -0.9362923
vn -0.3257511 -0.1313171 -0.9362918
vn -0.325751 -0.1313174 -0.9362916
vn -0.3257511 -0.1313171 -0.9362918
vn 0.3304422 0.235933 0.9138618
vn 0.3304422 0.235933 0.9138618
vn 0.3304422 0.235933 0.9138618
vn 0.3196045 0.2323346 0.9186259
vn 0.3212133 0.2452565 0.9146973
vn 0.3212133 0.2452565 0.9146973
vn 0.3198087 0.2297161 0.9192132
vn 0.3198087 0.2297161 0.9192132
vn -0.3225997 -0.1901499 -0.9272392
vn -0.3225997 -0.1901498 -0.9272392
vn -0.3225997 -0.1901499 -0.9272392
vn -0.3366364 -0.1914042 -0.9219763
vn -0.3132813 -0.1994492 -0.9284799
vn -0.3132813 -0.1994492 -0.9284799
vn -0.3132813 -0.1994492 -0.9284799
vn -0.3224221 -0.1929451 -0.9267233
vn 0.8994371 -0.2606264 0.3508373
vn 0.9199553 -0.2884684 0.2654582
vn 0.9211321 -0.2903799 0.2592198
vn 0.8960751 -0.2566899 0.3621594
vn -0.6123523 -0.05127982 0.7889199
vn -0.5014216 0.008588064 0.8651602
vn -0.4906619 0.0140904 0.8712359
vn -0.6230161 -0.05737869 0.7801014
vn 0.2638032 -0.6366392 0.7246361
vn 0.2580041 -0.6741174 0.6920974
vn 0.2576557 -0.6761935 0.6901991
vn 0.2643897 -0.6324992 0.7280399
vn -0.05208823 0.9873548 -0.1497159
vn -0.05208785 0.987355 -0.1497146
vn -0.05208825 0.9873548 -0.149716
vn -0.05208784 0.9873551 -0.1497145
vn -0.8566771 -0.241513 0.4558236
vn -0.7171098 -3.961595E-08 0.69696
vn -0.4800481 -0.241513 0.8433415
vn -0.480048 0.2415131 0.8433415
vn -0.8566772 0.2415132 0.4558236
vn 0.5498961 -0.7913557 0.2671497
vn 0.1832844 0.5489441 -0.8155159
vn 0.1655843 0.5650411 -0.8082756
vn 0.5410752 -0.7924935 0.2814077
vn -0.686703 0.4622021 0.5610769
vn -0.6823275 0.4320493 0.5897134
vn 0.1655843 0.5650411 -0.8082756
vn 0.1832844 0.5489441 -0.8155159
vn 0.7171098 -7.562691E-08 -0.69696
vn 0.7171098 -7.562691E-08 -0.69696
vn 0.7171098 -7.562689E-08 -0.69696
vn 0.7171098 -7.562689E-08 -0.69696

vt 0.006286621 0.1691895
vt 0.1322021 0.1009521
vt 0.006290436 0.1013184
vt 0.1322021 0.1691895
vt 0.01454926 0.1994629
vt 0.02377319 0.1994629
vt 0.006286621 0.1691895
vt 0.1322021 0.1691895
vt 0.1212769 0.1994629
vt 0.1276855 0.1994629
vt 0.1499023 0.2614746
vt 0.1690674 0.1938477
vt 0.1536865 0.1932373
vt 0.1690674 0.1938477
vt 0.1499023 0.2614746
vt 0.1695557 0.2631836
vt 0.1646729 0.2880859
vt 0.1695557 0.2631836
vt 0.1499023 0.2614746
vt 0.1695557 0.2631836
vt 0.1646729 0.2880859
vt 0.1722412 0.2875977
vt 0.177002 0.3427734
vt 0.3017578 0.192627
vt 0.2866211 0.2624512
vt 0.3061523 0.2602539
vt 0.2866211 0.2624512
vt 0.3017578 0.192627
vt 0.2861328 0.1934814
vt 0.1646729 0.1789551
vt 0.2861328 0.1934814
vt 0.2910156 0.1785889
vt 0.1690674 0.1938477
vt 0.1722412 0.2875977
vt 0.177002 0.3427734
vt 0.1820068 0.3388672
vt 0.2514648 0.3425293
vt 0.1848145 0.3383789
vt 0.1816406 0.3439941
vt 0.1848145 0.3383789
vt 0.2514648 0.3425293
vt 0.2493896 0.3369141
vt 0.2912598 0.2875977
vt 0.2680664 0.3439941
vt 0.2731934 0.3474121
vt 0.2680664 0.3439941
vt 0.2912598 0.2875977
vt 0.2836914 0.2878418
vt 0.3061523 0.2602539
vt 0.2836914 0.2878418
vt 0.2912598 0.2875977
vt 0.2836914 0.2878418
vt 0.3061523 0.2602539
vt 0.2866211 0.2624512
vt 0.2861328 0.1934814
vt 0.1695557 0.2631836
vt 0.2866211 0.2624512
vt 0.1690674 0.1938477
vt 0.1802979 0.2873535
vt 0.1695557 0.2631836
vt 0.1739502 0.2873535
vt 0.2697754 0.2868652
vt 0.2790527 0.2866211
vt 0.2866211 0.2624512
vt 0.1276855 0.1994629
vt 0.1118774 0.2492676
vt 0.1160278 0.2543945
vt 0.1212769 0.1994629
vt 0.04904175 0.2481689
vt 0.04614258 0.253418
vt 0.02377319 0.1994629
vt 0.01454926 0.1994629
vt 0.1848145 0.3383789
vt 0.1802979 0.2873535
vt 0.1739502 0.2873535
vt 0.1888428 0.333252
vt 0.2493896 0.3369141
vt 0.24646 0.3317871
vt 0.2790527 0.2866211
vt 0.2697754 0.2868652
vt 0.05609131 0.2449951
vt 0.03878784 0.2069092
vt 0.03411865 0.2049561
vt 0.05859375 0.2407227
vt 0.1137695 0.2049561
vt 0.104126 0.2431641
vt 0.1074829 0.2469482
vt 0.1090698 0.2076416
vt 0.1074829 0.2469482
vt 0.05859375 0.2407227
vt 0.05609131 0.2449951
vt 0.104126 0.2431641
vt 0.03878784 0.2069092
vt 0.1137695 0.2049561
vt 0.03411865 0.2049561
vt 0.1090698 0.2076416
vt 0.07647705 0.001289368
vt 0.06060791 0.01182556
vt 0.04473877 0.001289368
vt 0.04473877 0.02235413
vt 0.07647705 0.02235413
vt 0.08239746 0.03106689
vt 0.1083374 0.02719116
vt 0.08288574 0.02360535
vt 0.1080322 0.03198242
vt 0.08239746 0.0385437
vt 0.1080322 0.0368042
vt 0.08288574 0.04360962
vt 0.1083374 0.0401001
vt 0.128418 0.02171326
vt 0.1000366 0.001502037
vt 0.1000366 0.02171326
vt 0.128418 0.001502037

g door_frontL_9583_486
usemtl door_frontL_9583_486
usemap door_frontL_9583_486
f 1/1/1 3/3/3 2/2/2
f 2/2/2 4/4/4 1/1/1
f 5/5/5 7/7/7 6/6/6
f 6/6/6 7/7/7 8/8/8
f 8/8/8 9/9/9 6/6/6
f 8/8/8 10/10/10 9/9/9
f 11/11/11 13/13/13 12/12/12
f 14/14/14 16/16/16 15/15/15
f 17/17/17 19/19/19 18/18/18
f 20/20/20 22/22/22 21/21/21
f 23/23/23 21/21/21 22/22/22
f 24/24/24 26/26/26 25/25/25
f 27/27/27 29/29/29 28/28/28
f 30/30/30 32/32/32 31/31/31
f 31/31/31 33/33/33 30/30/30
f 34/34/34 36/36/36 35/35/35
f 37/37/37 39/39/39 38/38/38
f 40/40/40 42/42/42 41/41/41
f 43/43/43 45/45/45 44/44/44
f 46/46/46 48/48/48 47/47/47
f 49/49/49 51/51/51 50/50/50
f 52/52/52 54/54/54 53/53/53
f 55/55/55 57/57/57 56/56/56
f 56/56/56 58/58/58 55/55/55
f 59/59/59 61/61/61 60/60/60
f 62/62/62 59/59/59 60/60/60
f 63/63/63 62/62/62 60/60/60
f 64/64/64 63/63/63 60/60/60
f 65/65/65 67/67/67 66/66/66
f 66/66/66 68/68/68 65/65/65
f 69/69/69 66/66/66 67/67/67
f 67/67/67 70/70/70 69/69/69
f 71/71/71 69/69/69 70/70/70
f 70/70/70 72/72/72 71/71/71
f 73/73/73 75/75/75 74/74/74
f 74/74/74 76/76/76 73/73/73
f 77/77/77 73/73/73 76/76/76
f 76/76/76 78/78/78 77/77/77
f 79/79/79 77/77/77 78/78/78
f 78/78/78 80/80/80 79/79/79
f 81/81/81 83/83/83 82/82/82
f 82/82/82 84/84/84 81/81/81
f 85/85/85 87/87/87 86/86/86
f 86/86/86 88/88/88 85/85/85
f 89/89/89 91/91/91 90/90/90
f 90/90/90 92/92/92 89/89/89
f 93/93/93 95/95/95 94/94/94
f 94/94/94 96/96/96 93/93/93
f 97/97/97 99/99/99 98/98/98
f 99/99/99 100/100/100 98/98/98
f 100/100/100 101/101/101 98/98/98
f 101/101/101 97/97/97 98/98/98
f 102/102/102 104/104/104 103/103/103
f 103/103/103 105/105/105 102/102/102
f 106/106/106 102/102/102 105/105/105
f 105/105/105 107/107/107 106/106/106
f 108/108/108 106/106/106 107/107/107
f 107/107/107 109/109/109 108/108/108
f 110/110/110 112/112/112 111/111/111
f 111/111/111 113/113/113 110/110/110
