#door_frontR_9780_54.obj

v -0.122759 -0.4128604 -0.9535962
v -0.2045395 -0.6219537 -0.9273795
v -0.1969434 -0.6036482 -0.9864247
v -0.1166168 -0.4219491 -0.9000096
v -0.0844401 -0.2656552 -0.892801
v -0.04649916 -0.4222736 -0.3199745
v -0.03391434 -0.2978069 -0.1308877
v -0.04036739 0.2182625 -0.9401625
v 0.04534011 0.2176601 -0.08395603
v 0.0449891 0.216674 3.35187E-06
v -0.0300146 -0.2647838 0.0001198758
v 0.1671538 0.6939653 -0.37932
v 0.15191 0.6313826 -0.4081403
v 0.1649949 0.6410174 -0.9864302
v 0.1357595 0.6035307 -0.9289997
v -0.06448404 0.2171564 -0.9855303
v -0.0977321 -0.2625892 -0.9449288
v -0.1194631 -0.6754637 -0.4026569
v 0.05129515 -0.4167052 -0.319606
v -0.1352205 -0.6211353 -0.9271047
v -0.05023304 -0.6727981 -0.4025559
v -0.02238207 -0.4206602 -0.9000348
v -0.1279059 -0.6029336 -0.9857056
v -0.02883427 -0.4116645 -0.9533443
v 0.03213993 -0.267849 -0.8929422
v 0.01866677 -0.2644687 -0.9448404
v -0.0005249598 0.2070754 -0.9848975
v 0.02994517 0.2160736 -0.9293406
v 0.1832905 0.5872051 -0.9174456
v 0.2182449 0.640968 -0.9858873
v 0.2035903 0.6088036 -0.4152584
v 0.2203276 0.6935881 -0.3797936
v 0.112663 0.2149189 -0.101925
v 0.1109735 0.206633 0.0002742787
v 0.08791804 -0.3036064 -0.1301485
v 0.1109737 -0.2732497 0.001932299
v -0.122759 -0.4128604 -0.9535962
v 0.01866677 -0.2644687 -0.9448404
v -0.0977321 -0.2625892 -0.9449288
v -0.02883427 -0.4116645 -0.9533443
v -0.06448404 0.2171564 -0.9855303
v -0.0005249598 0.2070754 -0.9848975
v 0.1649949 0.6410174 -0.9864302
v 0.2182449 0.640968 -0.9858873
v -0.1969434 -0.6036482 -0.9864247
v -0.1279059 -0.6029336 -0.9857056
v 0.05129515 -0.4167052 -0.319606
v -0.1194631 -0.6754637 -0.4026569
v -0.04649916 -0.4222736 -0.3199745
v -0.05023304 -0.6727981 -0.4025559
v 0.08791804 -0.3036064 -0.1301485
v -0.03391434 -0.2978069 -0.1308877
v 0.1109737 -0.2732497 0.001932299
v -0.0300146 -0.2647838 0.0001198758
v -0.2045395 -0.6219537 -0.9273795
v -0.1279059 -0.6029336 -0.9857056
v -0.1969434 -0.6036482 -0.9864247
v -0.1352205 -0.6211353 -0.9271047
v -0.1194631 -0.6754637 -0.4026569
v -0.05023304 -0.6727981 -0.4025559
v 0.1109735 0.206633 0.0002742787
v -0.0300146 -0.2647838 0.0001198758
v 0.0449891 0.216674 3.35187E-06
v 0.1109737 -0.2732497 0.001932299
v 0.2203276 0.6935881 -0.3797936
v 0.1671538 0.6939653 -0.37932
v 0.1109735 0.206633 0.0002742787
v 0.1832905 0.5872051 -0.9174456
v -0.04036739 0.2182625 -0.9401625
v 0.1357595 0.6035307 -0.9289997
v 0.02994517 0.2160736 -0.9293406
v 0.2182449 0.640968 -0.9858873
v 0.1671538 0.6939653 -0.37932
v 0.1649949 0.6410174 -0.9864302
v 0.2203276 0.6935881 -0.3797936
v 0.2035903 0.6088036 -0.4152584
v 0.1357595 0.6035307 -0.9289997
v 0.15191 0.6313826 -0.4081403
v 0.1832905 0.5872051 -0.9174456
v 0.112663 0.2149189 -0.101925
v 0.15191 0.6313826 -0.4081403
v 0.04534011 0.2176601 -0.08395603
v 0.15191 0.6313826 -0.4081403
v 0.112663 0.2149189 -0.101925
v 0.2035903 0.6088036 -0.4152584
v 0.02994517 0.2160736 -0.9293406
v 0.04534011 0.2176601 -0.08395603
v -0.04036739 0.2182625 -0.9401625
v 0.112663 0.2149189 -0.101925
v 0.01046673 0.05001991 -0.1247788
v -0.08107233 -0.1374788 -0.2287626
v -0.1076122 0.007020318 -0.2046231
v -0.1356668 -0.04930829 -0.3396882
v -0.04417607 0.1382705 -0.2358039
v 0.06642421 0.06881326 -0.01237826
v -0.07180403 0.0152711 -0.218075
v -0.0721103 -0.01956587 -0.2032956
v 0.04265121 0.1119447 -0.05483034
v 0.03502366 0.1180437 -0.01200031
v -0.09249047 0.01225486 -0.2031991
v 0.04265121 0.1119447 -0.05483034
v -0.07180403 0.0152711 -0.218075
v 0.06642421 0.06881326 -0.01237826
v -0.04417607 0.1382705 -0.2358039
v -0.08107233 -0.1374788 -0.2287626
v 0.01046673 0.05001991 -0.1247788
v -0.1356668 -0.04930829 -0.3396882

vn -0.1374897 0.2797359 0.9501811
vn -0.1730025 0.3717785 0.9120584
vn -0.2858388 0.3634562 0.8866767
vn -0.1401179 0.2804669 0.9495815
vn -0.1386921 0.1333823 0.9813122
vn -0.2141541 0.09269343 0.972392
vn -0.2487034 0.1144644 0.9617923
vn 0.04883835 0.2081104 0.9768853
vn -0.2694006 0.1894419 0.9442113
vn -0.2966847 0.1870079 0.936486
vn -0.3048576 0.1539181 0.9398782
vn -0.3036565 0.2432118 0.9212169
vn -0.3033798 0.2510929 0.9191914
vn -0.3296664 0.5152925 0.7910708
vn -0.3044364 0.5436583 0.7821468
vn 0.1497022 0.232464 0.961015
vn -0.03943668 0.1278054 0.9910149
vn -0.1595061 0.2700168 0.9495518
vn 0.1838059 -0.2507797 -0.950434
vn 0.1816077 -0.4574414 -0.8704973
vn 0.1059428 -0.3109636 -0.9444987
vn 0.1417736 -0.397425 -0.9066165
vn 0.2041446 -0.4784618 -0.8540486
vn 0.09793568 -0.3728616 -0.922704
vn 0.1280477 -0.1495795 -0.9804233
vn 0.04149455 -0.1302217 -0.9906163
vn -0.1337561 -0.17274 -0.9758434
vn -0.04680455 -0.150536 -0.987496
vn 0.2879061 -0.5010934 -0.8160973
vn 0.3091667 -0.4735098 -0.8247447
vn 0.3115611 -0.2126213 -0.9261327
vn 0.3108046 -0.2028081 -0.9285845
vn 0.2737983 -0.1208417 -0.9541655
vn 0.2871319 -0.1016619 -0.9524812
vn 0.1933035 -0.04709829 -0.9800079
vn 0.131072 -0.0005953308 -0.9913728
vn -0.9465666 0.1228074 -0.2982122
vn -0.9538141 -0.01966726 -0.2997538
vn -0.9538805 -0.009107204 -0.3000492
vn -0.9489309 0.09755121 -0.3000238
vn -0.9522336 -0.04945276 -0.30134
vn -0.9522833 -0.04467748 -0.3019284
vn -0.9510102 -0.007379503 -0.309072
vn -0.9509832 -0.007412594 -0.3091545
vn -0.9392221 0.1644961 -0.3013355
vn -0.9388189 0.1624954 -0.3036685
vn 0.7029193 -0.6873935 0.1827398
vn 0.9097095 -0.3124407 0.2735132
vn 0.7779025 -0.5861191 0.2265652
vn 0.9096218 -0.311931 0.2743856
vn 0.3480976 -0.9259733 0.1462867
vn 0.3705028 -0.9134912 0.1681066
vn 0.2117321 -0.9694248 0.124029
vn 0.2160618 -0.9674134 0.1320111
vn -0.1884627 -0.979418 -0.07225133
vn -0.2775644 -0.955444 -0.1004135
vn -0.2771709 -0.9555412 -0.100576
vn -0.1858979 -0.9799009 -0.07234797
vn -0.08836553 -0.9939026 -0.06593356
vn -0.08782246 -0.9938228 -0.06783439
vn 0.9193584 0.3083494 0.2443379
vn 0.9504877 0.003216023 0.3107463
vn 0.9185985 0.3097961 0.2453633
vn 0.950238 0.003455208 0.3115062
vn 0.7543023 0.6189996 0.2187852
vn 0.7516444 0.6203583 0.2240214
vn 0.9193584 0.3083494 0.2443379
vn 0.8694727 0.06525704 0.4896522
vn 0.8944718 0.03468218 0.4457774
vn 0.8660231 0.06918923 0.4951941
vn 0.897432 0.03077964 0.4400783
vn -0.0822657 0.9962165 -0.0279796
vn -0.08075109 0.9962295 -0.03168656
vn -0.08235935 0.9962152 -0.02775031
vn -0.08065607 0.9962298 -0.03191899
vn -0.05854387 -0.9190998 0.3896489
vn -0.0499304 -0.9385642 0.3414711
vn -0.05911452 -0.9177062 0.3928346
vn -0.0491041 -0.9402795 0.3368403
vn -0.8283989 -0.560088 -0.007483423
vn -0.8384805 -0.5383272 0.08457896
vn -0.8274392 -0.5613862 -0.01375379
vn -0.8384805 -0.5383272 0.08457896
vn -0.8283989 -0.560088 -0.007483423
vn -0.8390604 -0.5359322 0.09356117
vn 0.007201713 0.9994879 -0.03114478
vn 0.009352218 0.9992154 -0.03845793
vn 0.007094579 0.9995 -0.03078044
vn 0.009490891 0.9991959 -0.0389295
vn 0.563801 0.1943104 0.8027279
vn 0.2715737 -0.2384057 0.9324219
vn 0.2405746 0.1259218 0.9624281
vn -0.1160259 0.04168531 0.9923711
vn 0.1757065 0.4737396 0.8629587
vn 0.4502116 -0.8570858 0.2504237
vn -0.5228634 0.5703017 -0.6335374
vn 0.3057894 -0.9335209 -0.1871622
vn -0.5030676 0.7517043 -0.4264536
vn 0.2562175 0.05359551 0.9651322
vn 0.07047665 0.3820876 0.9214346
vn -0.5030676 0.7517043 -0.4264536
vn -0.5228634 0.5703017 -0.6335374
vn 0.4502116 -0.8570858 0.2504237
vn -0.2399161 -0.1264658 -0.9625212
vn -0.239916 -0.1264658 -0.9625211
vn -0.2399161 -0.1264658 -0.9625211
vn -0.239916 -0.1264658 -0.9625211

vt 0.8007813 0.2802734
vt 0.7924805 0.2402344
vt 0.8007813 0.2402344
vt 0.7924805 0.2800293
vt 0.7924805 0.3010254
vt 0.7075195 0.2802734
vt 0.6811523 0.296875
vt 0.7924805 0.3696289
vt 0.6748047 0.3696289
vt 0.6630859 0.3693848
vt 0.6630859 0.3015137
vt 0.7163086 0.4389648
vt 0.7202148 0.4306641
vt 0.8012695 0.4389648
vt 0.7924805 0.4306641
vt 0.8007813 0.3693848
vt 0.8007813 0.3012695
vt 0.7192383 0.2402344
vt 0.9345703 0.2856445
vt 0.8569336 0.2495117
vt 0.9238281 0.2495117
vt 0.8569336 0.2851563
vt 0.8496094 0.2495117
vt 0.8496094 0.2854004
vt 0.8574219 0.3039551
vt 0.8496094 0.3041992
vt 0.8496094 0.3642578
vt 0.8588867 0.3654785
vt 0.859375 0.418457
vt 0.8500977 0.4287109
vt 0.9223633 0.4182129
vt 0.9272461 0.4284668
vt 0.9624023 0.3652344
vt 0.9750977 0.3642578
vt 0.9584961 0.2993164
vt 0.9750977 0.3032227
vt 0.9814453 0.05032349
vt 0.9667969 0.07122803
vt 0.9829102 0.07147217
vt 0.9682617 0.05047607
vt 0.9731445 0.1386719
vt 0.9643555 0.137207
vt 0.956543 0.2064209
vt 0.9492188 0.2064209
vt 0.9785156 0.01055908
vt 0.96875 0.01118469
vt 0.987793 0.2230225
vt 0.9770508 0.2648926
vt 0.9741211 0.2235107
vt 0.9863281 0.2644043
vt 0.9892578 0.192749
vt 0.972168 0.1925049
vt 0.9921875 0.173584
vt 0.9726563 0.173584
vt 0.8569336 0.2408447
vt 0.8496094 0.2495117
vt 0.8496094 0.2408447
vt 0.8569336 0.2495117
vt 0.9238281 0.2408447
vt 0.9238281 0.2495117
vt 0.9750977 0.3642578
vt 0.9931641 0.3041992
vt 0.9833984 0.3654785
vt 0.9750977 0.3032227
vt 0.9580078 0.442627
vt 0.9648438 0.4428711
vt 0.9750977 0.3642578
vt 0.784668 0.4233398
vt 0.7924805 0.3696289
vt 0.7924805 0.4306641
vt 0.7832031 0.3786621
vt 0.8500977 0.4287109
vt 0.9272461 0.4353027
vt 0.8500977 0.4355469
vt 0.9272461 0.4284668
vt 0.7241211 0.4228516
vt 0.7924805 0.4306641
vt 0.7202148 0.4306641
vt 0.7851563 0.4228516
vt 0.6928711 0.3789063
vt 0.7202148 0.4306641
vt 0.6748047 0.3696289
vt 0.7202148 0.4306641
vt 0.6928711 0.3789063
vt 0.7246094 0.423584
vt 0.7836914 0.3786621
vt 0.6748047 0.3696289
vt 0.7924805 0.3696289
vt 0.6928711 0.3789063
vt 0.07647705 0.001289368
vt 0.04473877 0.001289368
vt 0.06060791 0.01182556
vt 0.04473877 0.02235413
vt 0.07647705 0.02235413
vt 0.08239746 0.03106689
vt 0.1083374 0.02719116
vt 0.1080322 0.03198242
vt 0.08288574 0.02360535
vt 0.08239746 0.0385437
vt 0.1080322 0.0368042
vt 0.08288574 0.04360962
vt 0.1083374 0.0401001
vt 0.08239746 0.03106689
vt 0.128418 0.02171326
vt 0.1000366 0.001502037
vt 0.128418 0.001502037
vt 0.1000366 0.02171326

g door_frontR_9780_54
usemtl door_frontR_9780_54
usemap door_frontR_9780_54
f 1/1/1 3/3/3 2/2/2
f 2/2/2 4/4/4 1/1/1
f 1/1/1 4/4/4 5/5/5
f 5/5/5 4/4/4 6/6/6
f 6/6/6 7/7/7 5/5/5
f 8/8/8 5/5/5 7/7/7
f 7/7/7 9/9/9 8/8/8
f 10/10/10 9/9/9 7/7/7
f 7/7/7 11/11/11 10/10/10
f 9/9/9 10/10/10 12/12/12
f 12/12/12 13/13/13 9/9/9
f 13/13/13 12/12/12 14/14/14
f 14/14/14 15/15/15 13/13/13
f 15/15/15 14/14/14 16/16/16
f 16/16/16 8/8/8 15/15/15
f 17/17/17 5/5/5 8/8/8
f 8/8/8 16/16/16 17/17/17
f 5/5/5 17/17/17 1/1/1
f 18/18/18 6/6/6 4/4/4
f 4/4/4 2/2/2 18/18/18
f 19/19/19 21/21/21 20/20/20
f 20/20/20 22/22/22 19/19/19
f 22/22/22 20/20/20 23/23/23
f 23/23/23 24/24/24 22/22/22
f 25/25/25 22/22/22 24/24/24
f 19/19/19 22/22/22 25/25/25
f 24/24/24 26/26/26 25/25/25
f 25/25/25 26/26/26 27/27/27
f 27/27/27 28/28/28 25/25/25
f 29/29/29 28/28/28 27/27/27
f 27/27/27 30/30/30 29/29/29
f 31/31/31 29/29/29 30/30/30
f 30/30/30 32/32/32 31/31/31
f 33/33/33 31/31/31 32/32/32
f 32/32/32 34/34/34 33/33/33
f 35/35/35 33/33/33 34/34/34
f 28/28/28 33/33/33 35/35/35
f 35/35/35 25/25/25 28/28/28
f 34/34/34 36/36/36 35/35/35
f 25/25/25 35/35/35 19/19/19
f 37/37/37 39/39/39 38/38/38
f 38/38/38 40/40/40 37/37/37
f 38/38/38 39/39/39 41/41/41
f 41/41/41 42/42/42 38/38/38
f 42/42/42 41/41/41 43/43/43
f 43/43/43 44/44/44 42/42/42
f 45/45/45 37/37/37 40/40/40
f 40/40/40 46/46/46 45/45/45
f 47/47/47 49/49/49 48/48/48
f 48/48/48 50/50/50 47/47/47
f 49/49/49 47/47/47 51/51/51
f 51/51/51 52/52/52 49/49/49
f 52/52/52 51/51/51 53/53/53
f 53/53/53 54/54/54 52/52/52
f 55/55/55 57/57/57 56/56/56
f 56/56/56 58/58/58 55/55/55
f 59/59/59 55/55/55 58/58/58
f 58/58/58 60/60/60 59/59/59
f 61/61/61 63/63/63 62/62/62
f 62/62/62 64/64/64 61/61/61
f 65/65/65 66/66/66 63/63/63
f 63/63/63 67/67/67 65/65/65
f 68/68/68 70/70/70 69/69/69
f 69/69/69 71/71/71 68/68/68
f 72/72/72 74/74/74 73/73/73
f 73/73/73 75/75/75 72/72/72
f 76/76/76 78/78/78 77/77/77
f 77/77/77 79/79/79 76/76/76
f 80/80/80 82/82/82 81/81/81
f 83/83/83 85/85/85 84/84/84
f 86/86/86 88/88/88 87/87/87
f 87/87/87 89/89/89 86/86/86
f 90/90/90 92/92/92 91/91/91
f 91/91/91 92/92/92 93/93/93
f 93/93/93 92/92/92 94/94/94
f 94/94/94 92/92/92 90/90/90
f 95/95/95 97/97/97 96/96/96
f 96/96/96 98/98/98 95/95/95
f 99/99/99 100/100/100 97/97/97
f 100/100/100 99/99/99 101/101/101
f 101/101/101 102/102/102 100/100/100
f 97/97/97 103/103/103 99/99/99
f 104/104/104 106/106/106 105/105/105
f 105/105/105 107/107/107 104/104/104
