#door_rearL_9427_679.obj

v 3.24376E-05 0.1534961 2.082752E-05
v -0.6392124 -0.6648901 2.06933E-05
v 3.24376E-05 -0.6648901 2.086329E-05
v -0.6392124 0.1534961 2.065752E-05
v -0.5892132 0.2018144 0.01287869
v -0.04996603 0.2018144 0.01287982
v -0.5892113 0.5887696 0.1164509
v -0.6392097 0.6370884 0.1293099
v -0.04996756 0.5887696 0.1164528
v 3.156798E-05 0.6370884 0.1293108
v -0.6392134 0.6652361 0.1539627
v 3.134043E-05 0.6652361 0.1539629
v -0.6392112 -0.6648903 0.07878429
v -0.02777031 0.1486676 0.071004
v -0.02777012 -0.6648903 0.0787848
v -0.6392115 0.1486676 0.07100349
v -0.02777169 0.6153482 0.1917035
v -0.6392118 0.6465338 0.1991006
v -0.02777061 0.6465338 0.1991011
v -0.6392121 0.6153482 0.1917065
v -0.5892115 0.566926 0.1792446
v -0.07776868 0.566926 0.1792426
v -0.02777031 0.1486676 0.071004
v -0.07777092 0.1970897 0.08346584
v -0.6392115 0.1486676 0.07100349
v -0.5892102 0.1970897 0.0834671
v -0.6392112 -0.6648903 0.07878429
v -0.6392124 0.1534961 2.065752E-05
v -0.6392115 0.1486676 0.07100349
v -0.6392124 -0.6648901 2.06933E-05
v -0.6392097 0.6370884 0.1293099
v -0.6392121 0.6153482 0.1917065
v -0.6392134 0.6652361 0.1539627
v -0.6392118 0.6465338 0.1991006
v -0.02777031 0.1486676 0.071004
v 3.24376E-05 -0.6648901 2.086329E-05
v -0.02777012 -0.6648903 0.0787848
v 3.24376E-05 0.1534961 2.082752E-05
v -0.02777169 0.6153482 0.1917035
v 3.156798E-05 0.6370884 0.1293108
v -0.02777061 0.6465338 0.1991011
v 3.134043E-05 0.6652361 0.1539629
v -0.02777012 -0.6648903 0.0787848
v -0.6392124 -0.6648901 2.06933E-05
v -0.6392112 -0.6648903 0.07878429
v 3.24376E-05 -0.6648901 2.086329E-05
v -0.6392118 0.6465338 0.1991006
v 3.134043E-05 0.6652361 0.1539629
v -0.02777061 0.6465338 0.1991011
v -0.6392134 0.6652361 0.1539627
v -0.5892132 0.2018144 0.01287869
v -0.5892115 0.566926 0.1792446
v -0.5892113 0.5887696 0.1164509
v -0.5892115 0.566926 0.1792446
v -0.5892132 0.2018144 0.01287869
v -0.5892102 0.1970897 0.0834671
v -0.5892113 0.5887696 0.1164509
v -0.07776868 0.566926 0.1792426
v -0.04996756 0.5887696 0.1164528
v -0.5892115 0.566926 0.1792446
v -0.04996756 0.5887696 0.1164528
v -0.07777092 0.1970897 0.08346584
v -0.04996603 0.2018144 0.01287982
v -0.07777092 0.1970897 0.08346584
v -0.04996756 0.5887696 0.1164528
v -0.07776868 0.566926 0.1792426
v -0.04996603 0.2018144 0.01287982
v -0.5892102 0.1970897 0.0834671
v -0.5892132 0.2018144 0.01287869
v -0.07777092 0.1970897 0.08346584

vn 0.2102041 0.1299601 -0.968981
vn 0.2117122 -2.26949E-07 -0.9773319
vn 0.2117123 -3.056587E-07 -0.9773319
vn 0.2096467 0.130022 -0.9690934
vn 0.2038404 0.2578565 -0.9444357
vn 0.2050701 0.2577225 -0.944206
vn 0.2050702 0.2577225 -0.9442059
vn 0.1870938 0.4706215 -0.8622705
vn 0.2038402 0.2578564 -0.9444358
vn 0.1865217 0.4706767 -0.8623644
vn 0.1592595 0.6588829 -0.735193
vn 0.1592595 0.6588829 -0.735193
vn -0.2117026 0.009561404 0.9772872
vn -0.2117025 0.009561369 0.9772873
vn -0.2117027 0.00956148 0.9772872
vn -0.2117024 0.009561293 0.9772873
vn -0.2059967 -0.2307924 0.9509468
vn -0.2059967 -0.2307924 0.9509468
vn -0.2059967 -0.2307924 0.9509468
vn -0.2059967 -0.2307924 0.9509468
vn -0.2050319 -0.2492251 0.9464926
vn -0.20378 -0.2503954 0.9464542
vn -0.2050313 -0.2492304 0.9464914
vn -0.2050314 -0.2492301 0.9464915
vn -0.2050321 -0.2492248 0.9464927
vn -0.2050323 -0.2492241 0.9464929
vn -0.9773321 8.881775E-15 -0.2117123
vn -0.9773321 8.881775E-15 -0.2117123
vn -0.9773321 8.881775E-15 -0.2117123
vn -0.9773321 8.881775E-15 -0.2117123
vn -0.9773319 2.168056E-07 -0.2117127
vn -0.9773319 1.658671E-07 -0.2117129
vn -0.9773319 3.46622E-07 -0.2117128
vn -0.9773319 1.825222E-07 -0.211713
vn 0.8341026 -0.04757584 0.5495539
vn 0.8500667 0.002993524 0.5266668
vn 0.8511285 0.003182726 0.5249481
vn 0.8329961 -0.04483111 0.5514598
vn 0.821018 -0.09506349 0.562932
vn 0.8070499 -0.169257 0.5657052
vn 0.8069794 -0.1625274 0.5677755
vn 0.7557544 -0.3393127 0.5600911
vn 4.194059E-07 -0.9999989 -1.936114E-06
vn 4.194059E-07 -0.9999989 -1.936114E-06
vn 4.194059E-07 -0.9999989 -1.936114E-06
vn 4.194059E-07 -0.9999989 -1.936114E-06
vn -0.08104008 0.9238366 0.3741074
vn -0.08104007 0.9238367 0.3741073
vn -0.08104007 0.9238367 0.3741073
vn -0.08104008 0.9238366 0.3741074
vn 0.9773321 -8.881775E-15 0.2117123
vn 0.9773321 -8.881775E-15 0.2117123
vn 0.9773321 -8.881775E-15 0.2117123
vn 0.9773321 -8.881775E-15 0.2117123
vn 0.9773321 -8.881775E-15 0.2117123
vn 0.9773321 -8.881775E-15 0.2117123
vn 0.06956108 -0.944481 -0.3211152
vn 0.06956063 -0.9444814 -0.321114
vn 0.06956052 -0.9444814 -0.321114
vn 0.06956112 -0.9444808 -0.3211154
vn -0.823117 0.09688894 -0.5595451
vn -0.8302466 0.09623256 -0.5490263
vn -0.8312123 0.09614148 -0.5475791
vn -0.8302466 0.09623256 -0.5490263
vn -0.823117 0.09688894 -0.5595451
vn -0.8219252 0.09699599 -0.561276
vn -0.01413954 0.9977662 0.06527272
vn -0.01413959 0.9977662 0.06527296
vn -0.0141396 0.9977662 0.06527299
vn -0.01413953 0.9977662 0.06527268

vt 0.5087891 0.6943359
vt 0.5981445 0.5800781
vt 0.5087891 0.5800781
vt 0.5981445 0.6943359
vt 0.5908203 0.7011719
vt 0.515625 0.7011719
vt 0.5908203 0.7573242
vt 0.5981445 0.7641602
vt 0.515625 0.7573242
vt 0.5087891 0.7641602
vt 0.5981445 0.7695313
vt 0.5087891 0.7695313
vt 0.8081055 0.03570557
vt 0.8789063 0.1304932
vt 0.8789063 0.03570557
vt 0.8076172 0.1304932
vt 0.8789063 0.1866455
vt 0.8081055 0.1903076
vt 0.8789063 0.1903076
vt 0.8081055 0.1866455
vt 0.8134766 0.1807861
vt 0.8730469 0.1807861
vt 0.8789063 0.1304932
vt 0.8730469 0.1363525
vt 0.8076172 0.1304932
vt 0.8134766 0.1363525
vt 0.8081055 0.03570557
vt 0.7998047 0.1300049
vt 0.8076172 0.1304932
vt 0.7988281 0.03564453
vt 0.800293 0.1875
vt 0.8081055 0.1866455
vt 0.8022461 0.1912842
vt 0.8081055 0.1903076
vt 0.8789063 0.1304932
vt 0.8886719 0.03564453
vt 0.8789063 0.03570557
vt 0.8876953 0.1300049
vt 0.8789063 0.1866455
vt 0.887207 0.1875
vt 0.8789063 0.1903076
vt 0.8852539 0.1914063
vt 0.8789063 0.03570557
vt 0.8081055 0.02656555
vt 0.8081055 0.03570557
vt 0.8823242 0.02656555
vt 0.8081055 0.1903076
vt 0.8823242 0.1960449
vt 0.8789063 0.1903076
vt 0.8081055 0.1960449
vt 0.8217773 0.1422119
vt 0.8134766 0.1807861
vt 0.8212891 0.1740723
vt 0.8134766 0.1807861
vt 0.8217773 0.1422119
vt 0.8134766 0.1363525
vt 0.8208008 0.1730957
vt 0.8730469 0.1807861
vt 0.8657227 0.1730957
vt 0.8134766 0.1807861
vt 0.8647461 0.1740723
vt 0.8730469 0.1363525
vt 0.8642578 0.1422119
vt 0.8730469 0.1363525
vt 0.8647461 0.1740723
vt 0.8730469 0.1807861
vt 0.8657227 0.1445313
vt 0.8134766 0.1363525
vt 0.8208008 0.1445313
vt 0.8730469 0.1363525

g door_rearL_9427_679
usemtl door_rearL_9427_679
usemap door_rearL_9427_679
f 1/1/1 3/3/3 2/2/2
f 2/2/2 4/4/4 1/1/1
f 1/1/1 4/4/4 5/5/5
f 5/5/5 6/6/6 1/1/1
f 7/7/7 5/5/5 4/4/4
f 4/4/4 8/8/8 7/7/7
f 9/9/9 7/7/7 8/8/8
f 8/8/8 10/10/10 9/9/9
f 10/10/10 1/1/1 6/6/6
f 6/6/6 9/9/9 10/10/10
f 10/10/10 8/8/8 11/11/11
f 11/11/11 12/12/12 10/10/10
f 13/13/13 15/15/15 14/14/14
f 14/14/14 16/16/16 13/13/13
f 17/17/17 19/19/19 18/18/18
f 18/18/18 20/20/20 17/17/17
f 17/17/17 20/20/20 21/21/21
f 21/21/21 22/22/22 17/17/17
f 23/23/23 17/17/17 22/22/22
f 22/22/22 24/24/24 23/23/23
f 25/25/25 23/23/23 24/24/24
f 24/24/24 26/26/26 25/25/25
f 20/20/20 25/25/25 26/26/26
f 26/26/26 21/21/21 20/20/20
f 27/27/27 29/29/29 28/28/28
f 28/28/28 30/30/30 27/27/27
f 31/31/31 28/28/28 29/29/29
f 29/29/29 32/32/32 31/31/31
f 33/33/33 31/31/31 32/32/32
f 32/32/32 34/34/34 33/33/33
f 35/35/35 37/37/37 36/36/36
f 36/36/36 38/38/38 35/35/35
f 39/39/39 35/35/35 38/38/38
f 38/38/38 40/40/40 39/39/39
f 41/41/41 39/39/39 40/40/40
f 40/40/40 42/42/42 41/41/41
f 43/43/43 45/45/45 44/44/44
f 44/44/44 46/46/46 43/43/43
f 47/47/47 49/49/49 48/48/48
f 48/48/48 50/50/50 47/47/47
f 51/51/51 53/53/53 52/52/52
f 54/54/54 56/56/56 55/55/55
f 57/57/57 59/59/59 58/58/58
f 58/58/58 60/60/60 57/57/57
f 61/61/61 63/63/63 62/62/62
f 64/64/64 66/66/66 65/65/65
f 67/67/67 69/69/69 68/68/68
f 68/68/68 70/70/70 67/67/67
