#door_frontR_20371_234.obj

v -3.653776E-07 9.597223E-08 9.519917E-07
v -2.279762E-07 -0.5324807 -0.9817155
v -2.552564E-07 -6.61493E-08 -0.9817156
v -3.108172E-07 -0.5294991 1.081127E-06
v 0.1242358 0.1999789 -0.06440618
v -3.653776E-07 9.597223E-08 9.519917E-07
v 0.1242364 0.1999791 -0.1363422
v -2.552564E-07 -6.61493E-08 -0.9817156
v 0.1242348 0.1999788 -0.8964912
v 0.1242335 0.1999788 -0.9463603
v -2.552564E-07 -6.61493E-08 -0.9817156
v 0.1160702 -0.5338736 -0.9483331
v 0.1498575 0.005023713 -0.9483331
v 0.1160702 -0.5338736 -0.9483331
v -2.552564E-07 -6.61493E-08 -0.9817156
v -2.279762E-07 -0.5324807 -0.9817155
v 0.1242335 0.1999788 -0.9463603
v 0.1498575 0.005023713 -0.9483331
v 0.1746118 0.1918911 -0.9152972
v 0.2244758 0.6173527 -0.8558612
v 0.1498575 0.005023713 -0.9483331
v 0.1242335 0.1999788 -0.9463603
v -2.552564E-07 -6.61493E-08 -0.9817156
v -3.108172E-07 -0.5294991 1.081127E-06
v 0.1498582 0.005023872 -0.03604338
v 0.1160711 -0.5310876 -0.03604303
v 0.1498582 0.005023872 -0.03604338
v -3.108172E-07 -0.5294991 1.081127E-06
v -3.653776E-07 9.597223E-08 9.519917E-07
v -2.279762E-07 -0.5324807 -0.9817155
v 0.1160711 -0.5310876 -0.03604303
v 0.1160702 -0.5338736 -0.9483331
v -3.108172E-07 -0.5294991 1.081127E-06
v 0.2244758 0.6173527 -0.8558612
v 0.1746118 0.1918911 -0.9152972
v 0.2504382 0.5833989 -0.8307301
v 0.2206454 0.6084502 -0.3113085
v 0.2504382 0.5833989 -0.8307301
v 0.2504398 0.5750803 -0.3269415
v 0.2504382 0.5833989 -0.8307301
v 0.2206454 0.6084502 -0.3113085
v 0.2244758 0.6173527 -0.8558612
v 0.1242358 0.1999789 -0.06440618
v 0.2504398 0.5750803 -0.3269415
v 0.1746107 0.1918913 -0.09622679
v 0.2504398 0.5750803 -0.3269415
v 0.1242358 0.1999789 -0.06440618
v 0.2206454 0.6084502 -0.3113085
v -3.653776E-07 9.597223E-08 9.519917E-07
v 0.1746107 0.1918913 -0.09622679
v 0.1498582 0.005023872 -0.03604338
v 0.1746107 0.1918913 -0.09622679
v -3.653776E-07 9.597223E-08 9.519917E-07
v 0.1242358 0.1999789 -0.06440618
v 0.1160711 -0.5310876 -0.03604303
v 0.1498575 0.005023713 -0.9483331
v 0.1160702 -0.5338736 -0.9483331
v 0.1498582 0.005023872 -0.03604338
v 0.1498575 0.005023713 -0.9483331
v 0.1746123 0.191891 -0.8653128
v 0.1746118 0.1918911 -0.9152972
v 0.1746092 0.1918913 -0.168492
v 0.1746107 0.1918913 -0.09622679
v 0.1498582 0.005023872 -0.03604338
v 0.1242335 0.1999788 -0.9463603
v 0.2145563 0.5780901 -0.8238892
v 0.1242348 0.1999788 -0.8964912
v 0.2244758 0.6173527 -0.8558612
v 0.2109793 0.5699869 -0.3337618
v 0.2206454 0.6084502 -0.3113085
v 0.1242364 0.1999791 -0.1363422
v 0.1242358 0.1999789 -0.06440618
v 0.2504382 0.5833989 -0.8307301
v 0.1746123 0.191891 -0.8653128
v 0.2422276 0.5437902 -0.7988223
v 0.1746118 0.1918911 -0.9152972
v 0.2504398 0.5750803 -0.3269415
v 0.2423199 0.5362285 -0.3492749
v 0.1746107 0.1918913 -0.09622679
v 0.1746092 0.1918913 -0.168492
v 0.2109793 0.5699869 -0.3337618
v 0.1746092 0.1918913 -0.168492
v 0.2423199 0.5362285 -0.3492749
v 0.1242364 0.1999791 -0.1363422
v 0.1242348 0.1999788 -0.8964912
v 0.2422276 0.5437902 -0.7988223
v 0.1746123 0.191891 -0.8653128
v 0.2145563 0.5780901 -0.8238892
v 0.2145563 0.5780901 -0.8238892
v 0.2423199 0.5362285 -0.3492749
v 0.2422276 0.5437902 -0.7988223
v 0.2109793 0.5699869 -0.3337618
v 0.1746092 0.1918913 -0.168492
v 0.1242348 0.1999788 -0.8964912
v 0.1746123 0.191891 -0.8653128
v 0.1242364 0.1999791 -0.1363422
v 0.09672331 0.204327 -0.1788631
v -0.1145593 0.204327 -0.2773873
v -0.03141021 0.279327 -0.1798869
v -0.1145593 0.3543269 -0.2773873
v 0.09672331 0.354327 -0.1788631
v 0.1019371 0.1304875 -0.1164508
v -0.003659674 0.2812828 -0.2055665
v -0.02654309 0.2518875 -0.210147
v 0.137446 0.1760936 -0.1093473
v 0.1120517 0.1737293 -0.07878223
v -0.0200254 0.2797588 -0.1858669
v 0.137446 0.1760936 -0.1093473
v -0.003659674 0.2812828 -0.2055665
v 0.09672331 0.354327 -0.1788631
v -0.1145593 0.204327 -0.2773873
v 0.09672331 0.204327 -0.1788631
v -0.1145593 0.3543269 -0.2773873

vn -0.889114 2.943019E-14 -0.4576859
vn -0.889114 2.943019E-14 -0.4576859
vn -0.889114 2.943019E-14 -0.4576859
vn -0.889114 2.943019E-14 -0.4576859
vn -0.7552402 0.5277021 -0.3887709
vn -0.7552402 0.5277021 -0.3887709
vn -0.7552401 0.5277022 -0.3887709
vn -0.7552399 0.5277017 -0.388772
vn -0.75524 0.5277014 -0.3887721
vn -0.7552406 0.5277012 -0.3887714
vn 0.6403407 -0.01365816 -0.7679697
vn 0.6403407 -0.01365816 -0.7679697
vn 0.6403407 -0.01365816 -0.7679697
vn 0.6856058 -9.568988E-08 -0.727973
vn 0.6856058 -9.568988E-08 -0.727973
vn 0.6856058 -9.568988E-08 -0.727973
vn 0.8590997 0.07849358 -0.5057535
vn 0.8590997 0.07849359 -0.5057535
vn 0.8590996 0.07849358 -0.5057535
vn 0.8588337 0.05597211 -0.5091873
vn 0.6386259 0.03826406 -0.7685657
vn 0.6386259 0.03826406 -0.7685657
vn 0.6386259 0.03826406 -0.7685657
vn -0.1736273 -0.01867162 0.9846345
vn -0.1736273 -0.01867162 0.9846345
vn -0.1736273 -0.01867162 0.9846345
vn -0.2370742 3.960873E-07 0.9714917
vn -0.2370742 3.960873E-07 0.9714916
vn -0.2370742 3.960873E-07 0.9714917
vn -0.01284727 -0.9999123 -0.003178892
vn -0.01284727 -0.9999123 -0.003178892
vn -0.01284727 -0.9999123 -0.003178892
vn -0.01271798 -0.9999142 -0.003131216
vn 0.9518561 0.01611119 -0.3061216
vn 0.9518561 0.01611119 -0.3061216
vn 0.9518561 0.01611119 -0.3061216
vn 0.6604404 0.6631081 0.3522872
vn 0.6604404 0.6631081 0.3522872
vn 0.6604404 0.6631081 0.3522872
vn 0.6940848 0.6146114 0.3748323
vn 0.6940848 0.6146114 0.3748323
vn 0.6940848 0.6146114 0.3748323
vn 0.1298829 0.353386 0.9264173
vn 0.1298828 0.353386 0.9264172
vn 0.1298829 0.353386 0.9264173
vn 0.2706939 0.2656291 0.9252924
vn 0.2706938 0.2656292 0.9252925
vn 0.2706938 0.2656291 0.9252925
vn -0.2366952 0.273229 0.9323741
vn -0.2366952 0.273229 0.9323741
vn -0.2366952 0.273229 0.9323741
vn 0.08041233 -0.05425858 0.9952839
vn 0.08041233 -0.05425858 0.9952839
vn 0.08041239 -0.05425858 0.9952839
vn 0.8872844 -0.0625741 0.4569586
vn 0.8872844 -0.0625741 0.4569586
vn 0.8872844 -0.06257409 0.4569586
vn 0.8873536 -0.06289741 0.4567797
vn 0.8814149 -0.1313164 0.4537225
vn 0.8814149 -0.1313164 0.4537225
vn 0.8814149 -0.1313164 0.4537225
vn 0.8814149 -0.1313164 0.4537225
vn 0.8814147 -0.1313171 0.4537226
vn 0.8814147 -0.1313172 0.4537226
vn -0.8647844 0.2323348 -0.4451614
vn -0.8647844 0.2323348 -0.4451614
vn -0.8647844 0.2323348 -0.4451614
vn -0.8585479 0.2359338 -0.4552262
vn -0.8611355 0.2426489 -0.4467294
vn -0.860669 0.2452569 -0.4462041
vn -0.8706877 0.2356334 -0.4317178
vn -0.8653373 0.2297163 -0.4454459
vn 0.8657144 -0.1914048 0.4624964
vn 0.8657144 -0.1914048 0.4624964
vn 0.8657144 -0.1914048 0.4624964
vn 0.8728923 -0.1901504 0.4493353
vn 0.8754271 -0.1994494 0.4402812
vn 0.8724071 -0.1929452 0.4490857
vn 0.8724071 -0.1929453 0.4490857
vn 0.8724071 -0.1929453 0.4490857
vn -0.2213553 -0.2606267 -0.9397211
vn -0.1339436 -0.2884687 -0.9480743
vn -0.2330369 -0.2566902 -0.9379787
vn -0.1276019 -0.2903802 -0.9483656
vn -0.8669357 -0.05127972 0.4957751
vn -0.9268814 0.00858841 0.3752559
vn -0.8596984 -0.05737858 0.5075693
vn -0.9313896 0.01409074 0.3637513
vn -0.6805273 -0.6366389 -0.3627307
vn -0.6491212 -0.674118 -0.3524296
vn -0.6838153 -0.6324988 -0.3637884
vn -0.6472905 -0.6761943 -0.3518186
vn 0.140941 0.9873559 0.07255127
vn 0.1409399 0.9873561 0.0725508
vn 0.1409398 0.9873561 0.07255077
vn 0.1409411 0.9873559 0.07255131
vn -0.5713574 -0.2415133 0.7843609
vn -0.9022828 -0.2415133 0.3571515
vn -0.7905603 -3.961598E-08 0.6123844
vn -0.9022828 0.2415134 0.3571514
vn -0.5713574 0.2415134 0.7843609
vn -0.1874674 -0.7913565 -0.5819029
vn 0.8331519 0.5489447 -0.06721398
vn -0.2028212 -0.7924944 -0.5751662
vn 0.8235029 0.5650419 -0.05070278
vn -0.651757 0.4622028 0.6013163
vn -0.6794982 0.4320499 0.5929716
vn 0.8235029 0.5650419 -0.05070278
vn 0.8331519 0.5489447 -0.06721398
vn 0.7905603 -7.562701E-08 -0.6123844
vn 0.7905603 -7.562701E-08 -0.6123844
vn 0.7905603 -7.562699E-08 -0.6123844
vn 0.7905603 -7.562699E-08 -0.6123844

vt 0.006286621 0.1691895
vt 0.1322021 0.1009521
vt 0.1322021 0.1691895
vt 0.006290436 0.1013184
vt 0.01454926 0.1994629
vt 0.006286621 0.1691895
vt 0.02377319 0.1994629
vt 0.1322021 0.1691895
vt 0.1212769 0.1994629
vt 0.1276855 0.1994629
vt 0.1499023 0.2614746
vt 0.1690674 0.1938477
vt 0.1695557 0.2631836
vt 0.1690674 0.1938477
vt 0.1499023 0.2614746
vt 0.1536865 0.1932373
vt 0.1646729 0.2880859
vt 0.1695557 0.2631836
vt 0.1722412 0.2875977
vt 0.177002 0.3427734
vt 0.1695557 0.2631836
vt 0.1646729 0.2880859
vt 0.1499023 0.2614746
vt 0.3017578 0.192627
vt 0.2866211 0.2624512
vt 0.2861328 0.1934814
vt 0.2866211 0.2624512
vt 0.3017578 0.192627
vt 0.3061523 0.2602539
vt 0.1646729 0.1789551
vt 0.2861328 0.1934814
vt 0.1690674 0.1938477
vt 0.2910156 0.1785889
vt 0.177002 0.3427734
vt 0.1722412 0.2875977
vt 0.1820068 0.3388672
vt 0.2514648 0.3425293
vt 0.1848145 0.3383789
vt 0.2493896 0.3369141
vt 0.1848145 0.3383789
vt 0.2514648 0.3425293
vt 0.1816406 0.3439941
vt 0.2912598 0.2875977
vt 0.2680664 0.3439941
vt 0.2836914 0.2878418
vt 0.2680664 0.3439941
vt 0.2912598 0.2875977
vt 0.2731934 0.3474121
vt 0.3061523 0.2602539
vt 0.2836914 0.2878418
vt 0.2866211 0.2624512
vt 0.2836914 0.2878418
vt 0.3061523 0.2602539
vt 0.2912598 0.2875977
vt 0.2861328 0.1934814
vt 0.1695557 0.2631836
vt 0.1690674 0.1938477
vt 0.2866211 0.2624512
vt 0.1695557 0.2631836
vt 0.1802979 0.2873535
vt 0.1739502 0.2873535
vt 0.2697754 0.2868652
vt 0.2790527 0.2866211
vt 0.2866211 0.2624512
vt 0.1276855 0.1994629
vt 0.1118774 0.2492676
vt 0.1212769 0.1994629
vt 0.1160278 0.2543945
vt 0.04904175 0.2481689
vt 0.04614258 0.253418
vt 0.02377319 0.1994629
vt 0.01454926 0.1994629
vt 0.1848145 0.3383789
vt 0.1802979 0.2873535
vt 0.1888428 0.333252
vt 0.1739502 0.2873535
vt 0.2493896 0.3369141
vt 0.24646 0.3317871
vt 0.2790527 0.2866211
vt 0.2697754 0.2868652
vt 0.05609131 0.2449951
vt 0.03878784 0.2069092
vt 0.05859375 0.2407227
vt 0.03411865 0.2049561
vt 0.1137695 0.2049561
vt 0.104126 0.2431641
vt 0.1090698 0.2076416
vt 0.1074829 0.2469482
vt 0.1074829 0.2469482
vt 0.05859375 0.2407227
vt 0.104126 0.2431641
vt 0.05609131 0.2449951
vt 0.03878784 0.2069092
vt 0.1137695 0.2049561
vt 0.1090698 0.2076416
vt 0.03411865 0.2049561
vt 0.07647705 0.001289368
vt 0.04473877 0.001289368
vt 0.06060791 0.01182556
vt 0.04473877 0.02235413
vt 0.07647705 0.02235413
vt 0.08239746 0.03106689
vt 0.1083374 0.02719116
vt 0.1080322 0.03198242
vt 0.08288574 0.02360535
vt 0.08239746 0.0385437
vt 0.1080322 0.0368042
vt 0.08288574 0.04360962
vt 0.1083374 0.0401001
vt 0.128418 0.02171326
vt 0.1000366 0.001502037
vt 0.128418 0.001502037
vt 0.1000366 0.02171326

g door_frontR_20371_234
usemtl door_frontR_20371_234
usemap door_frontR_20371_234
f 1/1/1 3/3/3 2/2/2
f 2/2/2 4/4/4 1/1/1
f 5/5/5 7/7/7 6/6/6
f 8/8/8 6/6/6 7/7/7
f 7/7/7 9/9/9 8/8/8
f 8/8/8 9/9/9 10/10/10
f 11/11/11 13/13/13 12/12/12
f 14/14/14 16/16/16 15/15/15
f 17/17/17 19/19/19 18/18/18
f 19/19/19 17/17/17 20/20/20
f 21/21/21 23/23/23 22/22/22
f 24/24/24 26/26/26 25/25/25
f 27/27/27 29/29/29 28/28/28
f 30/30/30 32/32/32 31/31/31
f 31/31/31 33/33/33 30/30/30
f 34/34/34 36/36/36 35/35/35
f 37/37/37 39/39/39 38/38/38
f 40/40/40 42/42/42 41/41/41
f 43/43/43 45/45/45 44/44/44
f 46/46/46 48/48/48 47/47/47
f 49/49/49 51/51/51 50/50/50
f 52/52/52 54/54/54 53/53/53
f 55/55/55 57/57/57 56/56/56
f 56/56/56 58/58/58 55/55/55
f 59/59/59 61/61/61 60/60/60
f 59/59/59 60/60/60 62/62/62
f 59/59/59 62/62/62 63/63/63
f 64/64/64 59/59/59 63/63/63
f 65/65/65 67/67/67 66/66/66
f 66/66/66 68/68/68 65/65/65
f 68/68/68 66/66/66 69/69/69
f 69/69/69 70/70/70 68/68/68
f 70/70/70 69/69/69 71/71/71
f 71/71/71 72/72/72 70/70/70
f 73/73/73 75/75/75 74/74/74
f 74/74/74 76/76/76 73/73/73
f 75/75/75 73/73/73 77/77/77
f 77/77/77 78/78/78 75/75/75
f 78/78/78 77/77/77 79/79/79
f 79/79/79 80/80/80 78/78/78
f 81/81/81 83/83/83 82/82/82
f 82/82/82 84/84/84 81/81/81
f 85/85/85 87/87/87 86/86/86
f 86/86/86 88/88/88 85/85/85
f 89/89/89 91/91/91 90/90/90
f 90/90/90 92/92/92 89/89/89
f 93/93/93 95/95/95 94/94/94
f 94/94/94 96/96/96 93/93/93
f 97/97/97 99/99/99 98/98/98
f 98/98/98 99/99/99 100/100/100
f 100/100/100 99/99/99 101/101/101
f 101/101/101 99/99/99 97/97/97
f 102/102/102 104/104/104 103/103/103
f 103/103/103 105/105/105 102/102/102
f 104/104/104 102/102/102 106/106/106
f 106/106/106 107/107/107 104/104/104
f 107/107/107 106/106/106 108/108/108
f 108/108/108 109/109/109 107/107/107
f 110/110/110 112/112/112 111/111/111
f 111/111/111 113/113/113 110/110/110
