#door05_8949_269.obj

v -0.2499654 2.149999 0.6000402
v 0.0500356 2.149999 -0.5999622
v 0.05003368 2.149999 0.6000379
v -0.2499635 2.149999 -0.59996
v -0.2499654 0.04999932 0.6000366
v 0.05003368 2.149999 0.6000379
v 0.05003368 0.04999932 0.6000379
v -0.2499654 2.149999 0.6000402
v 0.0500356 0.04999998 -0.5999622
v -0.2499635 2.149999 -0.59996
v -0.2499635 0.04999998 -0.5999635
v 0.0500356 2.149999 -0.5999622
v 0.05003514 2.05 -0.4999601
v -0.249964 0.04999976 -0.4999614
v -0.249964 2.05 -0.4999614
v 0.05003515 0.04999976 -0.4999637
v -0.249964 2.05 -0.4999614
v 0.05003414 2.049999 0.5000394
v 0.05003514 2.05 -0.4999601
v -0.249965 2.049999 0.5000381
v -0.249965 2.049999 0.5000381
v 0.05003414 0.04999932 0.5000358
v 0.05003414 2.049999 0.5000394
v -0.249965 0.04999932 0.5000381
v -0.249964 2.05 -0.4999614
v -0.2499635 0.04999998 -0.5999635
v -0.2499635 2.149999 -0.59996
v -0.249964 0.04999976 -0.4999614
v 0.0500356 0.04999998 -0.5999622
v 0.05003514 2.05 -0.4999601
v 0.0500356 2.149999 -0.5999622
v 0.05003515 0.04999976 -0.4999637
v -0.249965 2.049999 0.5000381
v -0.2499654 0.04999932 0.6000366
v -0.249965 0.04999932 0.5000381
v -0.2499654 2.149999 0.6000402
v 0.05003368 0.04999932 0.6000379
v 0.05003414 2.049999 0.5000394
v 0.05003414 0.04999932 0.5000358
v 0.05003368 2.149999 0.6000379
v 0.05003368 2.149999 0.6000379
v 0.05003514 2.05 -0.4999601
v 0.05003414 2.049999 0.5000394
v 0.0500356 2.149999 -0.5999622
v -0.249964 2.05 -0.4999614
v -0.2499654 2.149999 0.6000402
v -0.249965 2.049999 0.5000381
v -0.2499635 2.149999 -0.59996
v -0.2499543 0.05499942 0.5000381
v 0.05004584 0.05500076 -0.4999601
v 0.0500484 0.05499942 0.5000394
v -0.2499533 0.05500076 -0.4999614
v 0.0500484 0.05499942 0.5000394
v 0.05004584 7.033464E-07 -0.4999601
v 0.0500484 -6.335804E-07 0.5000394
v 0.05004584 0.05500076 -0.4999601
v -0.2499533 7.033464E-07 -0.4999614
v -0.2499543 0.05499942 0.5000381
v -0.2499543 -6.335804E-07 0.5000381
v -0.2499533 0.05500076 -0.4999614

vn 4.633859E-10 0.9999989 6.794943E-07
vn 4.633859E-10 0.9999989 6.794943E-07
vn 4.633859E-10 0.9999989 6.794942E-07
vn 4.633859E-10 0.9999989 6.794942E-07
vn 0.0006819433 -5.705024E-07 0.9999996
vn 0.0006819433 -5.705024E-07 0.9999996
vn 0.0006819433 -5.705023E-07 0.9999996
vn 0.0006819433 -5.705023E-07 0.9999996
vn -0.0006819433 4.978415E-07 -0.9999996
vn -0.0006819433 4.978415E-07 -0.9999996
vn -0.0006819433 4.978415E-07 -0.9999996
vn -0.0006819433 4.978415E-07 -0.9999996
vn 0.0006819433 -5.20548E-07 0.9999996
vn 0.0006819433 -5.20548E-07 0.9999996
vn 0.0006819433 -5.20548E-07 0.9999996
vn 0.0006819433 -5.20548E-07 0.9999996
vn -4.460431E-10 -0.9999989 -6.540629E-07
vn -4.460431E-10 -0.9999989 -6.540629E-07
vn -4.460432E-10 -0.9999989 -6.540629E-07
vn -4.460432E-10 -0.9999989 -6.540629E-07
vn -0.0006819433 5.968419E-07 -0.9999996
vn -0.0006819433 5.968419E-07 -0.9999996
vn -0.0006819433 5.968419E-07 -0.9999996
vn -0.0006819433 5.968419E-07 -0.9999996
vn -0.9999998 8.462775E-15 0.0006816927
vn -0.9999998 8.462775E-15 0.0006816927
vn -0.9999998 8.462775E-15 0.0006816927
vn -0.9999998 8.462775E-15 0.0006816927
vn 0.9999998 -8.462775E-15 -0.0006816927
vn 0.9999998 -8.462775E-15 -0.0006816927
vn 0.9999998 -8.462775E-15 -0.0006816927
vn 0.9999998 -8.462775E-15 -0.0006816927
vn -0.9999998 8.462775E-15 0.0006816927
vn -0.9999998 8.462775E-15 0.0006816927
vn -0.9999998 8.462775E-15 0.0006816927
vn -0.9999998 8.462775E-15 0.0006816927
vn 0.9999998 -8.462775E-15 -0.0006816927
vn 0.9999998 -8.462775E-15 -0.0006816927
vn 0.9999998 -8.462775E-15 -0.0006816927
vn 0.9999998 -8.462775E-15 -0.0006816927
vn 0.9999998 -8.462775E-15 -0.0006816927
vn 0.9999998 -8.462775E-15 -0.0006816927
vn 0.9999998 -8.462775E-15 -0.0006816927
vn 0.9999998 -8.462775E-15 -0.0006816927
vn -0.9999998 8.462775E-15 0.0006816927
vn -0.9999998 8.462775E-15 0.0006816927
vn -0.9999998 8.462775E-15 0.0006816927
vn -0.9999998 8.462775E-15 0.0006816927
vn 9.598217E-10 0.9999989 1.407466E-06
vn 9.598217E-10 0.9999989 1.407466E-06
vn 9.598217E-10 0.9999989 1.407466E-06
vn 9.598217E-10 0.9999989 1.407466E-06
vn 0.9999998 -8.462775E-15 -0.0006816927
vn 0.9999998 -8.462775E-15 -0.0006816927
vn 0.9999998 -8.462775E-15 -0.0006816927
vn 0.9999998 -8.462775E-15 -0.0006816927
vn -0.9999998 8.462775E-15 0.0006816927
vn -0.9999998 8.462775E-15 0.0006816927
vn -0.9999998 8.462775E-15 0.0006816927
vn -0.9999998 8.462775E-15 0.0006816927

vt 0.4916992 0.7382813
vt 0.4589844 0.605957
vt 0.4589844 0.7382813
vt 0.4916992 0.605957
vt 0.4589844 0.5097656
vt 0.4916992 0.7412109
vt 0.4916992 0.5097656
vt 0.4589844 0.7412109
vt 0.4916992 0.5097656
vt 0.4589844 0.7412109
vt 0.4589844 0.5097656
vt 0.4916992 0.7412109
vt 0.4589844 0.7280273
vt 0.4916992 0.5078125
vt 0.4916992 0.7280273
vt 0.4589844 0.5078125
vt 0.4589844 0.6176758
vt 0.4916992 0.7280273
vt 0.4916992 0.6176758
vt 0.4589844 0.7280273
vt 0.4916992 0.7280273
vt 0.4589844 0.5078125
vt 0.4589844 0.7280273
vt 0.4916992 0.5078125
vt 0.4916992 0.7280273
vt 0.5029297 0.5078125
vt 0.5029297 0.7387695
vt 0.4916992 0.5078125
vt 0.4916992 0.5097656
vt 0.5029297 0.7299805
vt 0.4916992 0.7412109
vt 0.5029297 0.5097656
vt 0.4916992 0.7280273
vt 0.5029297 0.5078125
vt 0.4916992 0.5078125
vt 0.5029297 0.7387695
vt 0.4916992 0.5097656
vt 0.5029297 0.7299805
vt 0.5029297 0.5097656
vt 0.4916992 0.7412109
vt 0.5029297 0.7387695
vt 0.4916992 0.6176758
vt 0.4916992 0.7280273
vt 0.5029297 0.6069336
vt 0.5029297 0.6171875
vt 0.4916992 0.7382813
vt 0.5029297 0.7270508
vt 0.4916992 0.605957
vt 0.4921875 0.6347656
vt 0.4606934 0.5078125
vt 0.4606934 0.6347656
vt 0.4921875 0.5078125
vt 0.5063477 0.6347656
vt 0.4921875 0.5078125
vt 0.4921875 0.6347656
vt 0.5063477 0.5078125
vt 0.5063477 0.5078125
vt 0.4921875 0.6347656
vt 0.5063477 0.6347656
vt 0.4921875 0.5078125

g door05_8949_269
usemtl door05_8949_269
usemap door05_8949_269
f 1/1/1 3/3/3 2/2/2
f 2/2/2 4/4/4 1/1/1
f 5/5/5 7/7/7 6/6/6
f 6/6/6 8/8/8 5/5/5
f 9/9/9 11/11/11 10/10/10
f 10/10/10 12/12/12 9/9/9
f 13/13/13 15/15/15 14/14/14
f 14/14/14 16/16/16 13/13/13
f 17/17/17 19/19/19 18/18/18
f 18/18/18 20/20/20 17/17/17
f 21/21/21 23/23/23 22/22/22
f 22/22/22 24/24/24 21/21/21
f 25/25/25 27/27/27 26/26/26
f 26/26/26 28/28/28 25/25/25
f 29/29/29 31/31/31 30/30/30
f 30/30/30 32/32/32 29/29/29
f 33/33/33 35/35/35 34/34/34
f 34/34/34 36/36/36 33/33/33
f 37/37/37 39/39/39 38/38/38
f 38/38/38 40/40/40 37/37/37
f 41/41/41 43/43/43 42/42/42
f 42/42/42 44/44/44 41/41/41
f 45/45/45 47/47/47 46/46/46
f 46/46/46 48/48/48 45/45/45
f 49/49/49 51/51/51 50/50/50
f 50/50/50 52/52/52 49/49/49
f 53/53/53 55/55/55 54/54/54
f 54/54/54 56/56/56 53/53/53
f 57/57/57 59/59/59 58/58/58
f 58/58/58 60/60/60 57/57/57
