#door_frontR_8727_1383.obj

v -0.01312375 -0.4165982 -0.9864001
v 0.009262359 -0.701076 -0.926434
v 0.009268106 -0.7012703 -0.9864017
v -0.01340278 -0.4176664 -0.9264331
v -0.02542591 -0.2673814 -0.9264345
v -0.01623623 -0.4163362 -0.3195781
v -0.03053451 -0.2982652 -0.131637
v 0.04711659 0.2172465 -0.9264345
v 0.04531388 0.2177577 -0.08396816
v 0.04498251 0.2166771 2.51088E-05
v -0.0300021 -0.2647917 2.828271E-05
v 0.1671452 0.7006998 -0.3792941
v 0.1515258 0.6427686 -0.4076681
v 0.1649873 0.7012702 -0.9864058
v 0.1493883 0.643334 -0.9264043
v 0.04673148 0.216173 -0.9864011
v -0.02503711 -0.2650511 -0.986405
v 0.009267628 -0.7008817 -0.4026407
v 0.08038902 -0.4110341 -0.3191903
v 0.07702485 -0.6963878 -0.9265627
v 0.07702605 -0.6959714 -0.4026465
v 0.08039061 -0.4164416 -0.9265617
v 0.0770202 -0.6968043 -0.9862103
v 0.08039513 -0.4153574 -0.9862302
v 0.09162328 -0.2696199 -0.9265631
v 0.09162504 -0.2670356 -0.986242
v 0.1109666 0.2056411 -0.9864176
v 0.1126335 0.214919 -0.9143353
v 0.2010066 0.6219726 -0.9137019
v 0.2182349 0.7012697 -0.9858626
v 0.2029865 0.6211241 -0.4145851
v 0.2203142 0.7003995 -0.3797632
v 0.1126336 0.2150469 -0.1019389
v 0.1109691 0.2066372 0.0002934602
v 0.09162762 -0.3040724 -0.1308883
v 0.1109631 -0.27325 0.001955695
v -0.01312375 -0.4165982 -0.9864001
v 0.09162504 -0.2670356 -0.986242
v -0.02503711 -0.2650511 -0.986405
v 0.08039513 -0.4153574 -0.9862302
v 0.04673148 0.216173 -0.9864011
v 0.1109666 0.2056411 -0.9864176
v 0.1649873 0.7012702 -0.9864058
v 0.2182349 0.7012697 -0.9858626
v 0.009268106 -0.7012703 -0.9864017
v 0.0770202 -0.6968043 -0.9862103
v 0.08038902 -0.4110341 -0.3191903
v 0.009267628 -0.7008817 -0.4026407
v -0.01623623 -0.4163362 -0.3195781
v 0.07702605 -0.6959714 -0.4026465
v 0.09162762 -0.3040724 -0.1308883
v -0.03053451 -0.2982652 -0.131637
v 0.1109631 -0.27325 0.001955695
v -0.0300021 -0.2647917 2.828271E-05
v 0.009262359 -0.701076 -0.926434
v 0.0770202 -0.6968043 -0.9862103
v 0.009268106 -0.7012703 -0.9864017
v 0.07702485 -0.6963878 -0.9265627
v 0.009267628 -0.7008817 -0.4026407
v 0.07702605 -0.6959714 -0.4026465
v 0.1109691 0.2066372 0.0002934602
v -0.0300021 -0.2647917 2.828271E-05
v 0.04498251 0.2166771 2.51088E-05
v 0.1109631 -0.27325 0.001955695
v 0.2203142 0.7003995 -0.3797632
v 0.1671452 0.7006998 -0.3792941
v 0.1109691 0.2066372 0.0002934602
v 0.2010066 0.6219726 -0.9137019
v 0.04711659 0.2172465 -0.9264345
v 0.1493883 0.643334 -0.9264043
v 0.1126335 0.214919 -0.9143353
v 0.2182349 0.7012697 -0.9858626
v 0.1671452 0.7006998 -0.3792941
v 0.1649873 0.7012702 -0.9864058
v 0.2203142 0.7003995 -0.3797632
v 0.2029865 0.6211241 -0.4145851
v 0.1493883 0.643334 -0.9264043
v 0.1515258 0.6427686 -0.4076681
v 0.2010066 0.6219726 -0.9137019
v 0.1126336 0.2150469 -0.1019389
v 0.1515258 0.6427686 -0.4076681
v 0.04531388 0.2177577 -0.08396816
v 0.1515258 0.6427686 -0.4076681
v 0.1126336 0.2150469 -0.1019389
v 0.2029865 0.6211241 -0.4145851
v 0.1126335 0.214919 -0.9143353
v 0.04531388 0.2177577 -0.08396816
v 0.04711659 0.2172465 -0.9264345
v 0.1126336 0.2150469 -0.1019389
v -0.01003852 0.233181 -0.1224933
v -0.2213203 0.233181 -0.2210168
v -0.1381712 0.3081812 -0.1235175
v -0.2213203 0.383181 -0.2210168
v -0.01003852 0.383181 -0.1224933
v 0.0395504 0.1406937 -0.03632233
v -0.1104198 0.3101367 -0.1491999
v -0.133305 0.2807417 -0.1537787
v 0.04863443 0.2049478 -0.0372663
v 0.0496676 0.1839353 0.001345247
v -0.1267869 0.3086131 -0.129497
v 0.04863443 0.2049478 -0.0372663
v -0.1104198 0.3101367 -0.1491999
v 0.0395504 0.1406937 -0.03632233
v -0.01003852 0.383181 -0.1224933
v -0.2213203 0.233181 -0.2210168
v -0.01003852 0.233181 -0.1224933
v -0.2213203 0.383181 -0.2210168

vn -0.2632338 -0.07948286 0.9614522
vn -0.2576202 -0.07915378 0.9629987
vn -0.2571218 -0.07839947 0.9631935
vn -0.2616938 -0.08038823 0.9617971
vn -0.2617136 0.03385459 0.9645516
vn -0.2647294 -0.0970598 0.9594257
vn -0.2699108 0.1056001 0.957077
vn -0.2527544 0.1765269 0.9512903
vn -0.254828 0.1869455 0.9487433
vn -0.2585436 0.1825453 0.9485949
vn -0.2888246 0.1537848 0.94495
vn -0.2413189 0.2555849 0.9361844
vn -0.2403035 0.256116 0.9363004
vn -0.2594644 0.2501233 0.9328002
vn -0.2586868 0.2503874 0.9329454
vn -0.2517396 0.1902754 0.9489058
vn -0.2625973 0.03783718 0.9641634
vn -0.26035 -0.08575977 0.9616979
vn 0.255127 -0.06805202 -0.9645097
vn 0.2582226 -0.0120062 -0.9660109
vn 0.2581532 -0.01182718 -0.9660316
vn 0.257728 -0.04388879 -0.9652202
vn 0.2581854 -0.01202656 -0.9660204
vn 0.2569008 -0.04442544 -0.9654161
vn 0.2557757 -0.05970909 -0.9648905
vn 0.2553155 -0.05772865 -0.9651328
vn 0.2495684 -0.1208536 -0.960786
vn 0.2529148 -0.1041289 -0.9618685
vn 0.250783 -0.2137437 -0.9441511
vn 0.2504676 -0.2135829 -0.9442712
vn 0.2520267 -0.2136442 -0.9438424
vn 0.2514813 -0.2135623 -0.9440064
vn 0.2592745 -0.1170908 -0.9586794
vn 0.2489072 -0.09690163 -0.9636675
vn 0.2131225 -0.03761041 -0.9763013
vn 0.1163867 -0.0004985671 -0.9932039
vn -0.9656538 2.32484E-05 -0.2598327
vn -0.9657429 -0.0001139288 -0.2595012
vn -0.9657434 -4.793591E-05 -0.2594993
vn -0.9656106 -6.086993E-05 -0.2599932
vn -0.9661462 -0.0001433096 -0.2579958
vn -0.9660961 -0.000192128 -0.2581832
vn -0.9636244 -0.00100174 -0.2672591
vn -0.9634224 -0.00108394 -0.2679857
vn -0.9654308 -5.472497E-05 -0.2606601
vn -0.96538 -0.0001031902 -0.2608481
vn 0.7538354 -0.6352504 0.1678936
vn 0.9318534 -0.2808476 0.2297257
vn 0.7606063 -0.6215534 0.1874798
vn 0.9321694 -0.2812442 0.2279515
vn 0.3513572 -0.9271587 0.1300881
vn 0.3590271 -0.9215869 0.1475643
vn 0.2174168 -0.9692776 0.1150164
vn 0.2219665 -0.9672798 0.122876
vn 0.02015919 -0.9976707 -0.06515127
vn 0.02250403 -0.9977024 -0.0638851
vn 0.02010193 -0.9978291 -0.06269632
vn 0.0214204 -0.9975972 -0.06586929
vn 0.01932313 -0.9974023 -0.06937485
vn 0.01942552 -0.997383 -0.06962369
vn 0.9299042 0.3051101 0.2053917
vn 0.9627662 0.003200945 0.270317
vn 0.9291052 0.3069505 0.2062635
vn 0.9625283 0.00346275 0.2711596
vn 0.766705 0.613821 0.1881131
vn 0.764304 0.6151623 0.1934268
vn 0.9299042 0.3051101 0.2053917
vn 0.8867718 0.05102401 0.459383
vn 0.9014383 0.03899582 0.4311479
vn 0.885147 0.05230335 0.4623628
vn 0.9030818 0.03758933 0.4278208
vn 0.001012505 0.9999984 -4.911088E-05
vn 0.002721858 0.9999836 -0.004803355
vn 0.0009063419 0.9999985 0.0002461594
vn 0.002829447 0.9999818 -0.005102597
vn -0.09945596 -0.9219537 0.3743098
vn -0.09882891 -0.9238292 0.3698249
vn -0.09950296 -0.9218119 0.3746464
vn -0.09876945 -0.9240056 0.3694
vn -0.8349256 -0.5497199 0.02658108
vn -0.8403265 -0.5314047 0.1070503
vn -0.8343651 -0.5508025 0.02123363
vn -0.8403265 -0.5314047 0.1070503
vn -0.8349256 -0.5497199 0.02658108
vn -0.8405431 -0.529451 0.1147538
vn 0.008749696 0.9993572 -0.03473075
vn 0.01013108 0.9992019 -0.03860949
vn 0.008678314 0.9993649 -0.03453032
vn 0.01022421 0.9991908 -0.03887099
vn 0.8879153 -0.2415086 0.3915101
vn 0.5408422 -0.24151 0.8057064
vn 0.7664812 2.354543E-06 0.6422671
vn 0.5408418 0.2415149 0.8057052
vn 0.8879136 0.241516 0.3915092
vn -0.1236613 -0.7811744 0.6119421
vn -0.2881451 0.5659213 -0.7724668
vn -0.4694082 -0.8283378 0.3057954
vn -0.05768706 0.7156792 -0.6960419
vn 0.6572506 0.08552705 0.7488037
vn 0.7205056 0.4060511 0.5621336
vn -0.05768706 0.7156792 -0.6960419
vn -0.2881451 0.5659213 -0.7724668
vn -0.1236613 -0.7811744 0.6119421
vn -0.7664812 -3.464476E-06 -0.642267
vn -0.7664814 -3.197999E-06 -0.6422669
vn -0.766481 -3.821019E-06 -0.6422672
vn -0.7664815 -2.841456E-06 -0.6422668

vt 0.8007813 0.2802734
vt 0.7924805 0.2402344
vt 0.8007813 0.2402344
vt 0.7924805 0.2800293
vt 0.7924805 0.3010254
vt 0.7075195 0.2802734
vt 0.6811523 0.296875
vt 0.7924805 0.3696289
vt 0.6748047 0.3696289
vt 0.6630859 0.3693848
vt 0.6630859 0.3015137
vt 0.7163086 0.4389648
vt 0.7202148 0.4306641
vt 0.8012695 0.4389648
vt 0.7924805 0.4306641
vt 0.8007813 0.3693848
vt 0.8007813 0.3012695
vt 0.7192383 0.2402344
vt 0.9345703 0.2856445
vt 0.8569336 0.2495117
vt 0.9238281 0.2495117
vt 0.8569336 0.2851563
vt 0.8496094 0.2495117
vt 0.8496094 0.2854004
vt 0.8574219 0.3039551
vt 0.8496094 0.3041992
vt 0.8496094 0.3642578
vt 0.8588867 0.3654785
vt 0.859375 0.418457
vt 0.8500977 0.4287109
vt 0.9223633 0.4182129
vt 0.9272461 0.4284668
vt 0.9624023 0.3652344
vt 0.9750977 0.3642578
vt 0.9584961 0.2993164
vt 0.9750977 0.3032227
vt 0.9814453 0.05032349
vt 0.9667969 0.07122803
vt 0.9829102 0.07147217
vt 0.9682617 0.05047607
vt 0.9731445 0.1386719
vt 0.9643555 0.137207
vt 0.956543 0.2064209
vt 0.9492188 0.2064209
vt 0.9785156 0.01055908
vt 0.96875 0.01118469
vt 0.987793 0.2230225
vt 0.9770508 0.2648926
vt 0.9741211 0.2235107
vt 0.9863281 0.2644043
vt 0.9892578 0.192749
vt 0.972168 0.1925049
vt 0.9921875 0.173584
vt 0.9726563 0.173584
vt 0.8569336 0.2408447
vt 0.8496094 0.2495117
vt 0.8496094 0.2408447
vt 0.8569336 0.2495117
vt 0.9238281 0.2408447
vt 0.9238281 0.2495117
vt 0.9750977 0.3642578
vt 0.9931641 0.3041992
vt 0.9833984 0.3654785
vt 0.9750977 0.3032227
vt 0.9580078 0.442627
vt 0.9648438 0.4428711
vt 0.9750977 0.3642578
vt 0.784668 0.4233398
vt 0.7924805 0.3696289
vt 0.7924805 0.4306641
vt 0.7832031 0.3786621
vt 0.8500977 0.4287109
vt 0.9272461 0.4353027
vt 0.8500977 0.4355469
vt 0.9272461 0.4284668
vt 0.7241211 0.4228516
vt 0.7924805 0.4306641
vt 0.7202148 0.4306641
vt 0.7851563 0.4228516
vt 0.6928711 0.3789063
vt 0.7202148 0.4306641
vt 0.6748047 0.3696289
vt 0.7202148 0.4306641
vt 0.6928711 0.3789063
vt 0.7246094 0.423584
vt 0.7836914 0.3786621
vt 0.6748047 0.3696289
vt 0.7924805 0.3696289
vt 0.6928711 0.3789063
vt 0.07647705 0.001289368
vt 0.04473877 0.001289368
vt 0.06060791 0.01182556
vt 0.04473877 0.02235413
vt 0.07647705 0.02235413
vt 0.08239746 0.03106689
vt 0.1083374 0.02719116
vt 0.1080322 0.03198242
vt 0.08288574 0.02360535
vt 0.08239746 0.0385437
vt 0.1080322 0.0368042
vt 0.08288574 0.04360962
vt 0.1083374 0.0401001
vt 0.08239746 0.03106689
vt 0.128418 0.02171326
vt 0.1000366 0.001502037
vt 0.128418 0.001502037
vt 0.1000366 0.02171326

g door_frontR_8727_1383
usemtl door_frontR_8727_1383
usemap door_frontR_8727_1383
f 1/1/1 3/3/3 2/2/2
f 2/2/2 4/4/4 1/1/1
f 1/1/1 4/4/4 5/5/5
f 5/5/5 4/4/4 6/6/6
f 6/6/6 7/7/7 5/5/5
f 8/8/8 5/5/5 7/7/7
f 7/7/7 9/9/9 8/8/8
f 10/10/10 9/9/9 7/7/7
f 7/7/7 11/11/11 10/10/10
f 9/9/9 10/10/10 12/12/12
f 12/12/12 13/13/13 9/9/9
f 13/13/13 12/12/12 14/14/14
f 14/14/14 15/15/15 13/13/13
f 15/15/15 14/14/14 16/16/16
f 16/16/16 8/8/8 15/15/15
f 17/17/17 5/5/5 8/8/8
f 8/8/8 16/16/16 17/17/17
f 5/5/5 17/17/17 1/1/1
f 18/18/18 6/6/6 4/4/4
f 4/4/4 2/2/2 18/18/18
f 19/19/19 21/21/21 20/20/20
f 20/20/20 22/22/22 19/19/19
f 22/22/22 20/20/20 23/23/23
f 23/23/23 24/24/24 22/22/22
f 25/25/25 22/22/22 24/24/24
f 19/19/19 22/22/22 25/25/25
f 24/24/24 26/26/26 25/25/25
f 25/25/25 26/26/26 27/27/27
f 27/27/27 28/28/28 25/25/25
f 29/29/29 28/28/28 27/27/27
f 27/27/27 30/30/30 29/29/29
f 31/31/31 29/29/29 30/30/30
f 30/30/30 32/32/32 31/31/31
f 33/33/33 31/31/31 32/32/32
f 32/32/32 34/34/34 33/33/33
f 35/35/35 33/33/33 34/34/34
f 28/28/28 33/33/33 35/35/35
f 35/35/35 25/25/25 28/28/28
f 34/34/34 36/36/36 35/35/35
f 25/25/25 35/35/35 19/19/19
f 37/37/37 39/39/39 38/38/38
f 38/38/38 40/40/40 37/37/37
f 38/38/38 39/39/39 41/41/41
f 41/41/41 42/42/42 38/38/38
f 42/42/42 41/41/41 43/43/43
f 43/43/43 44/44/44 42/42/42
f 45/45/45 37/37/37 40/40/40
f 40/40/40 46/46/46 45/45/45
f 47/47/47 49/49/49 48/48/48
f 48/48/48 50/50/50 47/47/47
f 49/49/49 47/47/47 51/51/51
f 51/51/51 52/52/52 49/49/49
f 52/52/52 51/51/51 53/53/53
f 53/53/53 54/54/54 52/52/52
f 55/55/55 57/57/57 56/56/56
f 56/56/56 58/58/58 55/55/55
f 59/59/59 55/55/55 58/58/58
f 58/58/58 60/60/60 59/59/59
f 61/61/61 63/63/63 62/62/62
f 62/62/62 64/64/64 61/61/61
f 65/65/65 66/66/66 63/63/63
f 63/63/63 67/67/67 65/65/65
f 68/68/68 70/70/70 69/69/69
f 69/69/69 71/71/71 68/68/68
f 72/72/72 74/74/74 73/73/73
f 73/73/73 75/75/75 72/72/72
f 76/76/76 78/78/78 77/77/77
f 77/77/77 79/79/79 76/76/76
f 80/80/80 82/82/82 81/81/81
f 83/83/83 85/85/85 84/84/84
f 86/86/86 88/88/88 87/87/87
f 87/87/87 89/89/89 86/86/86
f 90/90/90 92/92/92 91/91/91
f 91/91/91 92/92/92 93/93/93
f 93/93/93 92/92/92 94/94/94
f 94/94/94 92/92/92 90/90/90
f 95/95/95 97/97/97 96/96/96
f 96/96/96 98/98/98 95/95/95
f 99/99/99 100/100/100 97/97/97
f 100/100/100 99/99/99 101/101/101
f 101/101/101 102/102/102 100/100/100
f 97/97/97 103/103/103 99/99/99
f 104/104/104 106/106/106 105/105/105
f 105/105/105 107/107/107 104/104/104
