#door_backR_9277_1873.obj

v -0.0007791781 -2.643709E-08 -0.6572939
v -0.0148572 0.2925907 -0.05602976
v -0.0003791525 -1.775815E-07 -0.05602574
v -0.01766628 0.2848663 -0.704138
v -0.01303454 0.29224 0.0456741
v 2.385626E-05 -1.673255E-07 0.03000779
v -0.01392137 0.5449811 -0.05602564
v -0.01385531 0.54952 0.0479141
v 0.04797202 0.6744165 0.01649772
v 0.04797401 0.6759932 -0.08975182
v 0.3569621 1.121664 -0.08638149
v 0.3315259 1.069466 -0.1382277
v 0.3367024 1.095208 -0.7421442
v 0.3115313 1.053185 -0.7101892
v 0.04797409 0.6868917 -0.908411
v 0.04662931 0.6878085 -0.9841896
v -0.003517497 0.5397135 -0.9733791
v -0.01572836 0.4706599 -0.9683441
v -0.003962637 0.5405157 -0.8337666
v 0.09990636 0.2933701 -0.05629584
v 0.09878454 -2.644554E-08 -0.6573648
v 0.09878499 -1.775961E-07 -0.05614851
v 0.09856403 0.2846306 -0.704111
v 0.09987632 0.2929419 0.04529421
v 0.09878288 -1.673404E-07 0.02988279
v 0.09990852 0.5375068 -0.05599429
v 0.09990947 0.5421754 0.04817493
v 0.09990893 0.6585958 0.01659911
v 0.09990638 0.6603053 -0.08993076
v 0.4025421 1.106077 -0.08473781
v 0.3771548 1.054 -0.1362843
v 0.3817498 1.078726 -0.7430855
v 0.3565169 1.036615 -0.7112522
v 0.09990712 0.6711677 -0.9084033
v 0.09856638 0.671895 -0.9843464
v 0.0985659 0.5320649 -0.9740078
v 0.09856533 0.4652195 -0.9719487
v 0.09990946 0.5340031 -0.833356
v 0.09878499 -1.775961E-07 -0.05614851
v -0.0007791781 -2.643709E-08 -0.6572939
v -0.0003791525 -1.775815E-07 -0.05602574
v 0.09878454 -2.644554E-08 -0.6573648
v 0.09878288 -1.673404E-07 0.02988279
v 2.385626E-05 -1.673255E-07 0.03000779
v 0.09878454 -2.644554E-08 -0.6573648
v -0.01766628 0.2848663 -0.704138
v -0.0007791781 -2.643709E-08 -0.6572939
v 0.09856403 0.2846306 -0.704111
v -0.01572836 0.4706599 -0.9683441
v 0.09856533 0.4652195 -0.9719487
v 0.09990893 0.6585958 0.01659911
v -0.01385531 0.54952 0.0479141
v 0.04797202 0.6744165 0.01649772
v 0.09990947 0.5421754 0.04817493
v -0.01303454 0.29224 0.0456741
v 0.09987632 0.2929419 0.04529421
v 2.385626E-05 -1.673255E-07 0.03000779
v 0.09878288 -1.673404E-07 0.02988279
v 0.4025421 1.106077 -0.08473781
v 0.3569621 1.121664 -0.08638149
v 0.09990893 0.6585958 0.01659911
v 0.09856638 0.671895 -0.9843464
v 0.3367024 1.095208 -0.7421442
v 0.04662931 0.6878085 -0.9841896
v 0.3817498 1.078726 -0.7430855
v 0.0985659 0.5320649 -0.9740078
v -0.003517497 0.5397135 -0.9733791
v 0.09856533 0.4652195 -0.9719487
v -0.01572836 0.4706599 -0.9683441
v 0.3565169 1.036615 -0.7112522
v 0.04797409 0.6868917 -0.908411
v 0.3115313 1.053185 -0.7101892
v 0.04797409 0.6868917 -0.908411
v 0.3565169 1.036615 -0.7112522
v 0.09990712 0.6711677 -0.9084033
v 0.3771548 1.054 -0.1362843
v 0.3115313 1.053185 -0.7101892
v 0.3315259 1.069466 -0.1382277
v 0.3565169 1.036615 -0.7112522
v 0.3817498 1.078726 -0.7430855
v 0.3569621 1.121664 -0.08638149
v 0.3367024 1.095208 -0.7421442
v 0.4025421 1.106077 -0.08473781
v 0.09990638 0.6603053 -0.08993076
v 0.3315259 1.069466 -0.1382277
v 0.04797401 0.6759932 -0.08975182
v 0.3315259 1.069466 -0.1382277
v 0.3771548 1.054 -0.1362843
v 0.09990712 0.6711677 -0.9084033
v 0.04797401 0.6759932 -0.08975182
v 0.04797409 0.6868917 -0.908411
v 0.09990638 0.6603053 -0.08993076

vn -0.9918121 -0.05601868 0.114764
vn -0.9923218 -0.02336246 0.1214567
vn -0.9922243 -0.04764156 0.1149833
vn -0.9936509 0.01043392 0.112023
vn -0.9918373 -0.02285839 0.1254446
vn -0.9922825 -0.04488352 0.1155903
vn -0.9697576 0.2189455 0.1078566
vn -0.9717175 0.2140066 0.09983095
vn -0.8641811 0.4934559 0.09844679
vn -0.8719509 0.4791921 0.1003805
vn -0.8622008 0.5057364 0.02898319
vn -0.8654497 0.5006974 0.01727407
vn -0.8334143 0.5357845 0.1354807
vn -0.8307722 0.5388929 0.1393251
vn -0.8966843 0.4284522 0.1112902
vn -0.8932478 0.4329223 0.1211867
vn -0.963801 0.2286611 0.137119
vn -0.9566133 0.1813463 0.2280451
vn -0.9763041 0.1918144 0.1001871
vn 0.9937515 -0.001606032 -0.1116043
vn 0.9936392 -0.0006883937 -0.1126081
vn 0.9938074 -0.003793784 -0.1110528
vn 0.9936098 -0.003033102 -0.1128299
vn 0.9938344 -0.001888762 -0.1108585
vn 0.9938043 -0.003734689 -0.1110825
vn 0.9937695 -0.0003374101 -0.111455
vn 0.9938114 -6.410727E-05 -0.1110804
vn 0.9618527 -0.2497933 -0.1115454
vn 0.9729841 -0.203987 -0.1081259
vn 0.8645478 -0.5014002 -0.03397875
vn 0.8674133 -0.4970916 -0.02221809
vn 0.8360391 -0.5328196 -0.1309253
vn 0.8334229 -0.5360844 -0.1342354
vn 0.9656238 -0.2290387 -0.1229303
vn 0.9590945 -0.2530718 -0.1268553
vn 0.9928316 -0.004463491 -0.1194388
vn 0.9938112 -6.935195E-14 -0.1110827
vn 0.9932676 -0.005155915 -0.1157286
vn -3.368845E-07 -0.999999 2.645014E-07
vn -4.06984E-08 -0.999999 -3.641091E-07
vn -2.661691E-07 -0.999999 1.386421E-07
vn -4.143499E-08 -0.999999 -3.70699E-07
vn -1.44691E-07 -0.999999 5.855816E-07
vn 3.600907E-08 -0.999999 3.221559E-07
vn -0.1101642 -0.1622534 -0.9805803
vn -0.09460982 -0.5379378 -0.8376582
vn -0.1103048 -0.1623102 -0.9805551
vn -0.1013756 -0.5327944 -0.8401503
vn -0.1070228 -0.8258814 -0.5535926
vn -0.1186838 -0.8277883 -0.5483423
vn 0.1503771 0.2342427 0.9604775
vn 0.1215063 0.1054793 0.9869704
vn 0.1712302 0.2138043 0.9617525
vn 0.1166769 0.1218129 0.9856713
vn 0.1137348 -0.03183525 0.993001
vn 0.1143536 -0.0322778 0.9929157
vn 0.1127745 -0.05272502 0.9922208
vn 0.112218 -0.05253432 0.992294
vn 0.1437691 0.2006754 0.969051
vn 0.1423059 0.2018245 0.9690284
vn 0.1632796 0.1852507 0.9690315
vn -0.0548421 0.1867103 -0.9808831
vn 0.03889108 0.4318605 -0.9011013
vn -0.06077607 0.1600786 -0.9852315
vn 0.03932875 0.4316335 -0.9011912
vn -0.1221532 -0.04944501 -0.9912789
vn -0.1302361 -0.0610014 -0.9896047
vn -0.1293515 -0.04450931 -0.9905994
vn -0.1452331 -0.06663105 -0.9871513
vn -0.02420857 -0.4006451 0.9159134
vn -0.0210204 -0.403165 0.9148856
vn -0.02449549 -0.4004179 0.916005
vn -0.0210204 -0.403165 0.9148856
vn -0.02420857 -0.4006451 0.9159134
vn -0.02074844 -0.4033797 0.9147972
vn -0.3172038 -0.9454631 0.07402351
vn -0.336699 -0.9383353 0.0784786
vn -0.3159929 -0.9458901 0.07374676
vn -0.3378557 -0.9378972 0.0787429
vn 0.3339779 0.9386381 -0.08611265
vn 0.3180463 0.9442287 -0.0853045
vn 0.3347944 0.9383434 -0.08615354
vn 0.317255 0.9444985 -0.08526385
vn -0.1416656 -0.09961734 -0.9848895
vn -0.1103064 -0.1172212 -0.9869609
vn -0.143491 -0.09858546 -0.9847291
vn -0.1103064 -0.1172212 -0.9869609
vn -0.1082421 -0.1183719 -0.9870521
vn 0.2893528 0.9570225 -0.01952386
vn 0.2888241 0.9571826 -0.01949942
vn 0.289377 0.957015 -0.01952498
vn 0.2887998 0.95719 -0.0194983

vt 0.8793945 0.1461182
vt 0.7900391 0.1895752
vt 0.7900391 0.1461182
vt 0.8862305 0.1884766
vt 0.7749023 0.1895752
vt 0.7773438 0.1461182
vt 0.7900391 0.2270508
vt 0.7749023 0.2276611
vt 0.7792969 0.2484131
vt 0.7954102 0.2485352
vt 0.7949219 0.3286133
vt 0.8027344 0.3200684
vt 0.8920898 0.3237305
vt 0.887207 0.3166504
vt 0.9165039 0.2495117
vt 0.9277344 0.2495117
vt 0.9262695 0.2263184
vt 0.9257813 0.2159424
vt 0.9052734 0.2264404
vt 0.7963867 0.40625
vt 0.8774414 0.3669434
vt 0.7963867 0.3669434
vt 0.8833008 0.4050293
vt 0.7827148 0.40625
vt 0.7851563 0.3669434
vt 0.7963867 0.4389648
vt 0.7827148 0.4396973
vt 0.7866211 0.4553223
vt 0.8012695 0.4555664
vt 0.800293 0.5273438
vt 0.8071289 0.5200195
vt 0.8881836 0.5234375
vt 0.8842773 0.5166016
vt 0.9111328 0.4570313
vt 0.9208984 0.4570313
vt 0.9199219 0.4382324
vt 0.9194336 0.4291992
vt 0.9008789 0.4384766
vt 0.7963867 0.3669434
vt 0.8774414 0.3535156
vt 0.7963867 0.3535156
vt 0.8774414 0.3669434
vt 0.7851563 0.3669434
vt 0.7851563 0.3535156
vt 0.9804688 0.3566895
vt 0.9960938 0.3955078
vt 0.9941406 0.3566895
vt 0.9804688 0.3955078
vt 0.9960938 0.4387207
vt 0.9804688 0.4387207
vt 0.9477539 0.454834
vt 0.9628906 0.4396973
vt 0.9545898 0.4570313
vt 0.9477539 0.4387207
vt 0.9628906 0.4052734
vt 0.9477539 0.4052734
vt 0.9609375 0.3659668
vt 0.9477539 0.3659668
vt 0.9072266 0.5166016
vt 0.9130859 0.5185547
vt 0.9477539 0.454834
vt 0.9819336 0.4665527
vt 0.9506836 0.5322266
vt 0.9887695 0.4682617
vt 0.9443359 0.5302734
vt 0.980957 0.4477539
vt 0.9946289 0.447998
vt 0.9804688 0.4387207
vt 0.9960938 0.4387207
vt 0.8818359 0.3103027
vt 0.9165039 0.2495117
vt 0.887207 0.3166504
vt 0.9165039 0.2495117
vt 0.8818359 0.3103027
vt 0.9057617 0.2570801
vt 0.809082 0.3127441
vt 0.887207 0.3166504
vt 0.8027344 0.3200684
vt 0.8803711 0.3103027
vt 0.8881836 0.5234375
vt 0.8007813 0.5336914
vt 0.8886719 0.5297852
vt 0.800293 0.5273438
vt 0.8032227 0.255127
vt 0.8027344 0.3200684
vt 0.7954102 0.2485352
vt 0.8027344 0.3200684
vt 0.8095703 0.3134766
vt 0.9047852 0.2578125
vt 0.7954102 0.2485352
vt 0.9165039 0.2495117
vt 0.8037109 0.2563477

g door_backR_9277_1873
usemtl door_backR_9277_1873
usemap door_backR_9277_1873
f 1/1/1 3/3/3 2/2/2
f 2/2/2 4/4/4 1/1/1
f 5/5/5 2/2/2 3/3/3
f 3/3/3 6/6/6 5/5/5
f 7/7/7 2/2/2 5/5/5
f 4/4/4 2/2/2 7/7/7
f 5/5/5 8/8/8 7/7/7
f 7/7/7 8/8/8 9/9/9
f 9/9/9 10/10/10 7/7/7
f 10/10/10 9/9/9 11/11/11
f 11/11/11 12/12/12 10/10/10
f 12/12/12 11/11/11 13/13/13
f 13/13/13 14/14/14 12/12/12
f 15/15/15 14/14/14 13/13/13
f 7/7/7 10/10/10 15/15/15
f 13/13/13 16/16/16 15/15/15
f 15/15/15 16/16/16 17/17/17
f 17/17/17 18/18/18 4/4/4
f 4/4/4 19/19/19 17/17/17
f 17/17/17 19/19/19 15/15/15
f 15/15/15 19/19/19 7/7/7
f 7/7/7 19/19/19 4/4/4
f 20/20/20 22/22/22 21/21/21
f 21/21/21 23/23/23 20/20/20
f 22/22/22 20/20/20 24/24/24
f 24/24/24 25/25/25 22/22/22
f 24/24/24 20/20/20 26/26/26
f 26/26/26 20/20/20 23/23/23
f 26/26/26 27/27/27 24/24/24
f 28/28/28 27/27/27 26/26/26
f 26/26/26 29/29/29 28/28/28
f 30/30/30 28/28/28 29/29/29
f 29/29/29 31/31/31 30/30/30
f 32/32/32 30/30/30 31/31/31
f 31/31/31 33/33/33 32/32/32
f 32/32/32 33/33/33 34/34/34
f 34/34/34 29/29/29 26/26/26
f 34/34/34 35/35/35 32/32/32
f 36/36/36 35/35/35 34/34/34
f 23/23/23 37/37/37 36/36/36
f 36/36/36 38/38/38 23/23/23
f 34/34/34 38/38/38 36/36/36
f 26/26/26 38/38/38 34/34/34
f 23/23/23 38/38/38 26/26/26
f 39/39/39 41/41/41 40/40/40
f 40/40/40 42/42/42 39/39/39
f 41/41/41 39/39/39 43/43/43
f 43/43/43 44/44/44 41/41/41
f 45/45/45 47/47/47 46/46/46
f 46/46/46 48/48/48 45/45/45
f 48/48/48 46/46/46 49/49/49
f 49/49/49 50/50/50 48/48/48
f 51/51/51 53/53/53 52/52/52
f 52/52/52 54/54/54 51/51/51
f 54/54/54 52/52/52 55/55/55
f 55/55/55 56/56/56 54/54/54
f 56/56/56 55/55/55 57/57/57
f 57/57/57 58/58/58 56/56/56
f 59/59/59 60/60/60 53/53/53
f 53/53/53 61/61/61 59/59/59
f 62/62/62 64/64/64 63/63/63
f 63/63/63 65/65/65 62/62/62
f 64/64/64 62/62/62 66/66/66
f 66/66/66 67/67/67 64/64/64
f 67/67/67 66/66/66 68/68/68
f 68/68/68 69/69/69 67/67/67
f 70/70/70 72/72/72 71/71/71
f 73/73/73 75/75/75 74/74/74
f 76/76/76 78/78/78 77/77/77
f 77/77/77 79/79/79 76/76/76
f 80/80/80 82/82/82 81/81/81
f 81/81/81 83/83/83 80/80/80
f 84/84/84 86/86/86 85/85/85
f 87/87/87 88/88/88 84/84/84
f 89/89/89 91/91/91 90/90/90
f 90/90/90 92/92/92 89/89/89
