#door_rearL_11035_1389.obj

v 2.760294E-05 0.1534964 -1.744221E-05
v -0.6392149 -0.6648898 -1.744467E-05
v 2.763056E-05 -0.6648897 -1.746493E-05
v -0.6392149 0.1534964 -1.742195E-05
v -0.589219 0.2018147 0.01284026
v -0.04997311 0.2018148 0.01284164
v -0.5892181 0.5887699 0.1164144
v -0.6392168 0.6370887 0.1292705
v -0.04997229 0.5887699 0.1164157
v 2.571225E-05 0.6370887 0.1292705
v -0.6392158 0.6652364 0.1539259
v 2.664485E-05 0.6652364 0.1539259
v -0.6392177 -0.6648899 0.07874584
v -0.02777354 0.1486679 0.07096764
v -0.02777369 -0.6648899 0.07874581
v -0.6392176 0.1486679 0.07096767
v -0.02777396 0.6153485 0.1916672
v -0.6392173 0.6465341 0.1990645
v -0.02777331 0.6465341 0.1990645
v -0.639218 0.6153485 0.1916672
v -0.5892185 0.5669263 0.1792019
v -0.07777321 0.5669264 0.1792061
v -0.02777354 0.1486679 0.07096764
v -0.07777672 0.19709 0.08342596
v -0.6392176 0.1486679 0.07096767
v -0.5892162 0.19709 0.08342584
v -0.6392177 -0.6648899 0.07874584
v -0.6392149 0.1534964 -1.742195E-05
v -0.6392176 0.1486679 0.07096767
v -0.6392149 -0.6648898 -1.744467E-05
v -0.6392168 0.6370887 0.1292705
v -0.639218 0.6153485 0.1916672
v -0.6392158 0.6652364 0.1539259
v -0.6392173 0.6465341 0.1990645
v -0.02777354 0.1486679 0.07096764
v 2.763056E-05 -0.6648897 -1.746493E-05
v -0.02777369 -0.6648899 0.07874581
v 2.760294E-05 0.1534964 -1.744221E-05
v -0.02777396 0.6153485 0.1916672
v 2.571225E-05 0.6370887 0.1292705
v -0.02777331 0.6465341 0.1990645
v 2.664485E-05 0.6652364 0.1539259
v -0.02777369 -0.6648899 0.07874581
v -0.6392149 -0.6648898 -1.744467E-05
v -0.6392177 -0.6648899 0.07874584
v 2.763056E-05 -0.6648897 -1.746493E-05
v -0.6392173 0.6465341 0.1990645
v 2.664485E-05 0.6652364 0.1539259
v -0.02777331 0.6465341 0.1990645
v -0.6392158 0.6652364 0.1539259
v -0.589219 0.2018147 0.01284026
v -0.5892185 0.5669263 0.1792019
v -0.5892181 0.5887699 0.1164144
v -0.5892185 0.5669263 0.1792019
v -0.589219 0.2018147 0.01284026
v -0.5892162 0.19709 0.08342584
v -0.5892181 0.5887699 0.1164144
v -0.07777321 0.5669264 0.1792061
v -0.04997229 0.5887699 0.1164157
v -0.5892185 0.5669263 0.1792019
v -0.04997229 0.5887699 0.1164157
v -0.07777672 0.19709 0.08342596
v -0.04997311 0.2018148 0.01284164
v -0.07777672 0.19709 0.08342596
v -0.04997229 0.5887699 0.1164157
v -0.07777321 0.5669264 0.1792061
v -0.04997311 0.2018148 0.01284164
v -0.5892162 0.19709 0.08342584
v -0.589219 0.2018147 0.01284026
v -0.07777672 0.19709 0.08342596

vn 0.8063758 0.12996 -0.5769472
vn 0.8131004 -2.26949E-07 -0.5821232
vn 0.8131005 -3.056586E-07 -0.5821231
vn 0.8060382 0.130022 -0.5774047
vn 0.7851795 0.2578565 -0.5630301
vn 0.7859365 0.2577225 -0.5620342
vn 0.7859365 0.2577224 -0.5620341
vn 0.7176012 0.4706214 -0.513384
vn 0.7851794 0.2578564 -0.5630302
vn 0.7172403 0.4706767 -0.5138376
vn 0.6116507 0.6588828 -0.4378992
vn 0.6116507 0.6588828 -0.4378992
vn -0.8130633 0.009561403 0.5820966
vn -0.8130633 0.009561368 0.5820966
vn -0.8130633 0.009561479 0.5820965
vn -0.8130632 0.009561292 0.5820967
vn -0.7911491 -0.2307924 0.5664075
vn -0.7911491 -0.2307924 0.5664075
vn -0.7911491 -0.2307924 0.5664075
vn -0.7911491 -0.2307924 0.5664075
vn -0.7874435 -0.249225 0.5637545
vn -0.7864899 -0.2503954 0.5645665
vn -0.7874423 -0.2492304 0.5637539
vn -0.7874424 -0.2492301 0.563754
vn -0.7874438 -0.2492248 0.5637543
vn -0.7874439 -0.2492241 0.5637544
vn -0.5821235 -2.131625E-14 -0.8131005
vn -0.5821235 -2.131625E-14 -0.8131005
vn -0.5821235 -2.131625E-14 -0.8131005
vn -0.5821235 -2.131625E-14 -0.8131005
vn -0.5821231 2.168056E-07 -0.8131008
vn -0.582123 1.65867E-07 -0.8131008
vn -0.582123 3.46622E-07 -0.8131008
vn -0.5821229 1.825221E-07 -0.8131009
vn 0.2491444 -0.04757583 0.9672971
vn 0.2763419 0.002993523 0.9610548
vn 0.2782828 0.003182725 0.960494
vn 0.2470447 -0.0448311 0.9679665
vn 0.2304654 -0.09506346 0.9684259
vn 0.218252 -0.169257 0.9611024
vn 0.2168098 -0.1625273 0.9625893
vn 0.1840079 -0.3393127 0.9225008
vn 1.610768E-06 -0.9999987 -1.153198E-06
vn 1.610768E-06 -0.9999987 -1.153198E-06
vn 1.610768E-06 -0.9999987 -1.153198E-06
vn 1.610768E-06 -0.9999987 -1.153198E-06
vn -0.3112421 0.9238365 0.2228277
vn -0.311242 0.9238366 0.2228277
vn -0.311242 0.9238366 0.2228277
vn -0.3112421 0.9238365 0.2228277
vn 0.5821235 2.131625E-14 0.8131005
vn 0.5821235 2.131625E-14 0.8131005
vn 0.5821235 2.131625E-14 0.8131005
vn 0.5821235 2.131625E-14 0.8131005
vn 0.5821235 2.131625E-14 0.8131005
vn 0.5821235 2.131625E-14 0.8131005
vn 0.267155 -0.9444808 -0.191264
vn 0.2671539 -0.9444812 -0.1912635
vn 0.2671538 -0.9444812 -0.1912635
vn 0.2671551 -0.9444807 -0.1912641
vn -0.234295 0.09688892 -0.9673253
vn -0.2466412 0.09623255 -0.964317
vn -0.2483284 0.09614147 -0.9638931
vn -0.2466412 0.09623255 -0.964317
vn -0.234295 0.09688892 -0.9673253
vn -0.2322496 0.09699597 -0.9678078
vn -0.05430424 0.997766 0.03887806
vn -0.05430445 0.997766 0.03887821
vn -0.05430447 0.997766 0.03887822
vn -0.05430421 0.997766 0.03887803

vt 0.5087891 0.6943359
vt 0.5981445 0.5800781
vt 0.5087891 0.5800781
vt 0.5981445 0.6943359
vt 0.5908203 0.7011719
vt 0.515625 0.7011719
vt 0.5908203 0.7573242
vt 0.5981445 0.7641602
vt 0.515625 0.7573242
vt 0.5087891 0.7641602
vt 0.5981445 0.7695313
vt 0.5087891 0.7695313
vt 0.8081055 0.03570557
vt 0.8789063 0.1304932
vt 0.8789063 0.03570557
vt 0.8076172 0.1304932
vt 0.8789063 0.1866455
vt 0.8081055 0.1903076
vt 0.8789063 0.1903076
vt 0.8081055 0.1866455
vt 0.8134766 0.1807861
vt 0.8730469 0.1807861
vt 0.8789063 0.1304932
vt 0.8730469 0.1363525
vt 0.8076172 0.1304932
vt 0.8134766 0.1363525
vt 0.8081055 0.03570557
vt 0.7998047 0.1300049
vt 0.8076172 0.1304932
vt 0.7988281 0.03564453
vt 0.800293 0.1875
vt 0.8081055 0.1866455
vt 0.8022461 0.1912842
vt 0.8081055 0.1903076
vt 0.8789063 0.1304932
vt 0.8886719 0.03564453
vt 0.8789063 0.03570557
vt 0.8876953 0.1300049
vt 0.8789063 0.1866455
vt 0.887207 0.1875
vt 0.8789063 0.1903076
vt 0.8852539 0.1914063
vt 0.8789063 0.03570557
vt 0.8081055 0.02656555
vt 0.8081055 0.03570557
vt 0.8823242 0.02656555
vt 0.8081055 0.1903076
vt 0.8823242 0.1960449
vt 0.8789063 0.1903076
vt 0.8081055 0.1960449
vt 0.8217773 0.1422119
vt 0.8134766 0.1807861
vt 0.8212891 0.1740723
vt 0.8134766 0.1807861
vt 0.8217773 0.1422119
vt 0.8134766 0.1363525
vt 0.8208008 0.1730957
vt 0.8730469 0.1807861
vt 0.8657227 0.1730957
vt 0.8134766 0.1807861
vt 0.8647461 0.1740723
vt 0.8730469 0.1363525
vt 0.8642578 0.1422119
vt 0.8730469 0.1363525
vt 0.8647461 0.1740723
vt 0.8730469 0.1807861
vt 0.8657227 0.1445313
vt 0.8134766 0.1363525
vt 0.8208008 0.1445313
vt 0.8730469 0.1363525

g door_rearL_11035_1389
usemtl door_rearL_11035_1389
usemap door_rearL_11035_1389
f 1/1/1 3/3/3 2/2/2
f 2/2/2 4/4/4 1/1/1
f 1/1/1 4/4/4 5/5/5
f 5/5/5 6/6/6 1/1/1
f 7/7/7 5/5/5 4/4/4
f 4/4/4 8/8/8 7/7/7
f 9/9/9 7/7/7 8/8/8
f 8/8/8 10/10/10 9/9/9
f 10/10/10 1/1/1 6/6/6
f 6/6/6 9/9/9 10/10/10
f 10/10/10 8/8/8 11/11/11
f 11/11/11 12/12/12 10/10/10
f 13/13/13 15/15/15 14/14/14
f 14/14/14 16/16/16 13/13/13
f 17/17/17 19/19/19 18/18/18
f 18/18/18 20/20/20 17/17/17
f 17/17/17 20/20/20 21/21/21
f 21/21/21 22/22/22 17/17/17
f 23/23/23 17/17/17 22/22/22
f 22/22/22 24/24/24 23/23/23
f 25/25/25 23/23/23 24/24/24
f 24/24/24 26/26/26 25/25/25
f 20/20/20 25/25/25 26/26/26
f 26/26/26 21/21/21 20/20/20
f 27/27/27 29/29/29 28/28/28
f 28/28/28 30/30/30 27/27/27
f 31/31/31 28/28/28 29/29/29
f 29/29/29 32/32/32 31/31/31
f 33/33/33 31/31/31 32/32/32
f 32/32/32 34/34/34 33/33/33
f 35/35/35 37/37/37 36/36/36
f 36/36/36 38/38/38 35/35/35
f 39/39/39 35/35/35 38/38/38
f 38/38/38 40/40/40 39/39/39
f 41/41/41 39/39/39 40/40/40
f 40/40/40 42/42/42 41/41/41
f 43/43/43 45/45/45 44/44/44
f 44/44/44 46/46/46 43/43/43
f 47/47/47 49/49/49 48/48/48
f 48/48/48 50/50/50 47/47/47
f 51/51/51 53/53/53 52/52/52
f 54/54/54 56/56/56 55/55/55
f 57/57/57 59/59/59 58/58/58
f 58/58/58 60/60/60 57/57/57
f 61/61/61 63/63/63 62/62/62
f 64/64/64 66/66/66 65/65/65
f 67/67/67 69/69/69 68/68/68
f 68/68/68 70/70/70 67/67/67
