#door05_11255_260.obj

v -0.07507946 -1.036614E-07 -4.438512E-06
v 0.0249215 -1.165471E-06 0.9999964
v 0.02491894 -1.000147E-07 -4.615829E-06
v -0.07508018 -1.169118E-06 0.9999956
v -0.07508048 1.999999 0.9999965
v 0.02491864 2 -3.793674E-06
v 0.02492143 1.999999 0.9999964
v -0.07507977 2 -3.616356E-06
v -0.07507977 2 -3.616356E-06
v 0.02491894 -1.000147E-07 -4.615829E-06
v 0.02491864 2 -3.793674E-06
v -0.07507946 -1.036614E-07 -4.438512E-06
v 0.02492143 1.999999 0.9999964
v -0.07508018 -1.169118E-06 0.9999956
v -0.07508048 1.999999 0.9999965
v 0.0249215 -1.165471E-06 0.9999964
v 0.0249215 -1.165471E-06 0.9999964
v 0.02491864 2 -3.793674E-06
v 0.02491894 -1.000147E-07 -4.615829E-06
v 0.02492143 1.999999 0.9999964
v -0.07508048 1.999999 0.9999965
v -0.07507946 -1.036614E-07 -4.438512E-06
v -0.07507977 2 -3.616356E-06
v -0.07508018 -1.169118E-06 0.9999956
v -0.1250787 1.104777 0.9229065
v -0.1104309 1.129777 0.8979067
v -0.1104323 1.140133 0.9229059
v -0.110431 1.104777 0.8875453
v -0.1104309 1.079777 0.8979067
v -0.1104323 1.069422 0.9229059
v -0.1104306 1.079777 0.9479069
v -0.1104313 1.104777 0.9582582
v -0.1104306 1.129777 0.9479069
v -0.07507971 1.140133 0.887545
v -0.07508124 1.154778 0.9229063
v -0.07508152 1.104777 0.8729062
v -0.07507971 1.069422 0.887545
v -0.07508124 1.054778 0.9229063
v -0.07508001 1.069422 0.9582579
v -0.07508073 1.104777 0.9729056
v -0.07508002 1.140133 0.9582579
v 0.0749214 1.104777 0.9229071
v 0.06027034 1.129777 0.9479059
v 0.06027172 1.140133 0.9229067
v 0.06027294 1.104777 0.9582582
v 0.06027034 1.079777 0.9479059
v 0.06027172 1.069422 0.9229067
v 0.06027006 1.079777 0.8979057
v 0.06026997 1.104777 0.8875444
v 0.06027005 1.129777 0.8979057
v 0.02491838 1.140133 0.9582577
v 0.02492067 1.154778 0.9229062
v 0.02492095 1.104777 0.9729064
v 0.02491839 1.069422 0.9582577
v 0.02492067 1.054778 0.9229062
v 0.0249187 1.069422 0.8875448
v 0.02492039 1.104777 0.8729061
v 0.02491869 1.140133 0.8875448

vn 1.010982E-06 -0.9999996 -2.829766E-07
vn 1.010982E-06 -0.9999996 -2.829766E-07
vn 1.010982E-06 -0.9999996 -2.829766E-07
vn 1.010982E-06 -0.9999996 -2.829766E-07
vn -1.038533E-06 0.9999996 2.906882E-07
vn -1.038533E-06 0.9999996 2.906882E-07
vn -1.038533E-06 0.9999996 2.906882E-07
vn -1.038533E-06 0.9999996 2.906882E-07
vn 0.9629883 3.345819E-07 -0.2695431
vn 0.9629883 3.345819E-07 -0.2695431
vn 0.9629883 3.345819E-07 -0.2695431
vn 0.9629883 3.345819E-07 -0.2695431
vn -0.9629883 -3.155084E-07 0.2695431
vn -0.9629883 -3.155084E-07 0.2695431
vn -0.9629883 -3.155084E-07 0.2695431
vn -0.9629883 -3.155084E-07 0.2695431
vn 0.2695434 -5.276875E-14 0.9629883
vn 0.2695434 -5.276875E-14 0.9629883
vn 0.2695434 -5.276875E-14 0.9629883
vn 0.2695434 -5.276875E-14 0.9629883
vn -0.2695434 5.276875E-14 -0.9629883
vn -0.2695434 5.276875E-14 -0.9629883
vn -0.2695434 5.276875E-14 -0.9629883
vn -0.2695434 5.276875E-14 -0.9629883
vn -0.2695665 8.360826E-07 -0.9629818
vn 0.331018 0.529377 -0.7811444
vn -0.1787173 0.7486211 -0.6384561
vn 0.5422447 5.868947E-05 -0.8402205
vn 0.3309487 -0.5294061 -0.7811542
vn -0.1787085 -0.7486298 -0.6384484
vn -0.6884909 -0.5293505 -0.4957503
vn -0.8996136 3.656719E-05 -0.4366871
vn -0.6885282 0.5293279 -0.4957228
vn 0.5259338 0.6531994 -0.5447235
vn -0.1031919 0.9238669 -0.3685387
vn 0.7865555 5.572618E-05 -0.6175194
vn 0.5259206 -0.6532615 -0.5446616
vn -0.1031926 -0.92386 -0.3685557
vn -0.732223 -0.6533173 -0.1924212
vn -0.9928253 3.414146E-05 -0.1195755
vn -0.7322518 0.6532759 -0.1924522
vn 0.2695203 8.417319E-07 0.9629948
vn -0.3310891 0.529348 0.7811341
vn 0.1786959 0.7486287 0.6384531
vn -0.5421942 -3.733451E-05 0.8402531
vn -0.3311319 -0.52933 0.781128
vn 0.1786986 -0.7486213 0.6384611
vn 0.6884392 -0.5293742 0.4957968
vn 0.89964 -5.818667E-05 0.4366329
vn 0.6883826 0.5294071 0.4958401
vn -0.5259336 0.6533152 0.5445849
vn 0.1031308 0.9238593 0.3685747
vn -0.7864847 -3.547349E-05 0.6176096
vn -0.5259418 -0.6532777 0.5446219
vn 0.1031233 -0.9238684 0.3685541
vn 0.7322966 -0.653199 0.192542
vn 0.9928389 -5.437191E-05 0.1194622
vn 0.7322541 0.6532611 0.1924928

vt 0.7641602 0.5131836
vt 0.8745117 0.5024414
vt 0.7641602 0.5024414
vt 0.8745117 0.5131836
vt 0.8745117 0.7338867
vt 0.7641602 0.7446289
vt 0.8745117 0.7446289
vt 0.7641602 0.7338867
vt 0.7641602 0.7338867
vt 0.753418 0.5131836
vt 0.753418 0.7338867
vt 0.7641602 0.5131836
vt 0.8857422 0.7338867
vt 0.8745117 0.5131836
vt 0.8745117 0.7338867
vt 0.8857422 0.5131836
vt 0.8745117 0.5131836
vt 0.7641602 0.7338867
vt 0.7641602 0.5131836
vt 0.8745117 0.7338867
vt 0.8745117 0.7338867
vt 0.7641602 0.5131836
vt 0.7641602 0.7338867
vt 0.8745117 0.5131836
vt 0.8833008 0.7421875
vt 0.8813477 0.7441406
vt 0.8833008 0.7446289
vt 0.8808594 0.7421875
vt 0.8813477 0.7407227
vt 0.8833008 0.7402344
vt 0.8847656 0.7407227
vt 0.8852539 0.7421875
vt 0.8847656 0.7441406
vt 0.8798828 0.7456055
vt 0.8833008 0.7470703
vt 0.878418 0.7421875
vt 0.8798828 0.7387695
vt 0.8833008 0.737793
vt 0.8862305 0.7387695
vt 0.8876953 0.7421875
vt 0.8862305 0.7456055
vt 0.8833008 0.7421875
vt 0.8813477 0.7441406
vt 0.8833008 0.7446289
vt 0.8808594 0.7421875
vt 0.8813477 0.7407227
vt 0.8833008 0.7402344
vt 0.8847656 0.7407227
vt 0.8852539 0.7421875
vt 0.8847656 0.7441406
vt 0.8798828 0.7456055
vt 0.8833008 0.7470703
vt 0.878418 0.7421875
vt 0.8798828 0.7387695
vt 0.8833008 0.737793
vt 0.8862305 0.7387695
vt 0.8876953 0.7421875
vt 0.8862305 0.7456055

g door05_11255_260
usemtl door05_11255_260
usemap door05_11255_260
f 1/1/1 3/3/3 2/2/2
f 2/2/2 4/4/4 1/1/1
f 5/5/5 7/7/7 6/6/6
f 6/6/6 8/8/8 5/5/5
f 9/9/9 11/11/11 10/10/10
f 10/10/10 12/12/12 9/9/9
f 13/13/13 15/15/15 14/14/14
f 14/14/14 16/16/16 13/13/13
f 17/17/17 19/19/19 18/18/18
f 18/18/18 20/20/20 17/17/17
f 21/21/21 23/23/23 22/22/22
f 22/22/22 24/24/24 21/21/21
f 25/25/25 27/27/27 26/26/26
f 25/25/25 26/26/26 28/28/28
f 25/25/25 28/28/28 29/29/29
f 25/25/25 29/29/29 30/30/30
f 25/25/25 30/30/30 31/31/31
f 25/25/25 31/31/31 32/32/32
f 25/25/25 32/32/32 33/33/33
f 25/25/25 33/33/33 27/27/27
f 34/34/34 26/26/26 27/27/27
f 27/27/27 35/35/35 34/34/34
f 35/35/35 27/27/27 33/33/33
f 36/36/36 28/28/28 26/26/26
f 26/26/26 34/34/34 36/36/36
f 37/37/37 29/29/29 28/28/28
f 28/28/28 36/36/36 37/37/37
f 38/38/38 30/30/30 29/29/29
f 29/29/29 37/37/37 38/38/38
f 39/39/39 31/31/31 30/30/30
f 30/30/30 38/38/38 39/39/39
f 40/40/40 32/32/32 31/31/31
f 31/31/31 39/39/39 40/40/40
f 41/41/41 33/33/33 32/32/32
f 32/32/32 40/40/40 41/41/41
f 33/33/33 41/41/41 35/35/35
f 42/42/42 44/44/44 43/43/43
f 42/42/42 43/43/43 45/45/45
f 42/42/42 45/45/45 46/46/46
f 42/42/42 46/46/46 47/47/47
f 42/42/42 47/47/47 48/48/48
f 42/42/42 48/48/48 49/49/49
f 42/42/42 49/49/49 50/50/50
f 42/42/42 50/50/50 44/44/44
f 51/51/51 43/43/43 44/44/44
f 44/44/44 52/52/52 51/51/51
f 52/52/52 44/44/44 50/50/50
f 53/53/53 45/45/45 43/43/43
f 43/43/43 51/51/51 53/53/53
f 54/54/54 46/46/46 45/45/45
f 45/45/45 53/53/53 54/54/54
f 55/55/55 47/47/47 46/46/46
f 46/46/46 54/54/54 55/55/55
f 56/56/56 48/48/48 47/47/47
f 47/47/47 55/55/55 56/56/56
f 57/57/57 49/49/49 48/48/48
f 48/48/48 56/56/56 57/57/57
f 58/58/58 50/50/50 49/49/49
f 49/49/49 57/57/57 58/58/58
f 50/50/50 58/58/58 52/52/52
