#door_rearR_10531_678.obj

v 3.252114E-05 0.1534961 3.117892E-05
v 0.6392773 -0.6648901 3.138468E-05
v 0.6392773 0.1534961 3.134891E-05
v 3.252114E-05 -0.6648901 3.121469E-05
v 0.5892746 0.2018144 0.01288761
v 0.05003513 0.2018144 0.01288845
v 0.5892773 0.5887691 0.1164633
v 0.6392764 0.6370879 0.1293214
v 0.05003012 0.5887691 0.1164622
v 3.165153E-05 0.6370879 0.1293212
v 0.6392762 0.6652361 0.1539734
v 3.142398E-05 0.6652361 0.1539733
v 0.6392784 -0.6648903 0.07879499
v 0.02783358 0.1486676 0.07101443
v 0.6392747 0.1486676 0.07101493
v 0.02783377 -0.6648903 0.07879522
v 0.07783829 0.1970897 0.08347727
v 0.5892776 0.1970897 0.08347602
v 0.07783704 0.5669256 0.1792548
v 0.0278322 0.6153482 0.1917139
v 0.5892763 0.5669256 0.1792536
v 0.6392768 0.6153482 0.1917137
v 0.6392779 0.6465338 0.1991112
v 0.02783676 0.6465338 0.1991107
v 0.6392784 -0.6648903 0.07879499
v 0.6392773 0.1534961 3.134891E-05
v 0.6392773 -0.6648901 3.138468E-05
v 0.6392747 0.1486676 0.07101493
v 0.6392764 0.6370879 0.1293214
v 0.6392768 0.6153482 0.1917137
v 0.6392762 0.6652361 0.1539734
v 0.6392779 0.6465338 0.1991112
v 0.02783358 0.1486676 0.07101443
v 3.252114E-05 -0.6648901 3.121469E-05
v 3.252114E-05 0.1534961 3.117892E-05
v 0.02783377 -0.6648903 0.07879522
v 0.0278322 0.6153482 0.1917139
v 3.165153E-05 0.6370879 0.1293212
v 0.02783676 0.6465338 0.1991107
v 3.142398E-05 0.6652361 0.1539733
v 0.02783377 -0.6648903 0.07879522
v 0.6392773 -0.6648901 3.138468E-05
v 3.252114E-05 -0.6648901 3.121469E-05
v 0.6392784 -0.6648903 0.07879499
v 0.6392779 0.6465338 0.1991112
v 3.142398E-05 0.6652361 0.1539733
v 0.6392762 0.6652361 0.1539734
v 0.02783676 0.6465338 0.1991107
v 0.5892746 0.2018144 0.01288761
v 0.5892763 0.5669256 0.1792536
v 0.5892776 0.1970897 0.08347602
v 0.5892763 0.5669256 0.1792536
v 0.5892746 0.2018144 0.01288761
v 0.5892773 0.5887691 0.1164633
v 0.5892773 0.5887691 0.1164633
v 0.07783704 0.5669256 0.1792548
v 0.5892763 0.5669256 0.1792536
v 0.05003012 0.5887691 0.1164622
v 0.05003012 0.5887691 0.1164622
v 0.07783829 0.1970897 0.08347727
v 0.07783704 0.5669256 0.1792548
v 0.07783829 0.1970897 0.08347727
v 0.05003012 0.5887691 0.1164622
v 0.05003513 0.2018144 0.01288845
v 0.05003513 0.2018144 0.01288845
v 0.5892776 0.1970897 0.08347602
v 0.07783829 0.1970897 0.08347727
v 0.5892746 0.2018144 0.01288761

vn 0.2096293 0.1299599 -0.9691055
vn 0.2117122 -2.26949E-07 -0.9773319
vn 0.2101839 0.1300215 -0.9689771
vn 0.2117121 -3.056587E-07 -0.9773319
vn 0.2052666 0.2578554 -0.944127
vn 0.2040505 0.2577225 -0.9444268
vn 0.2040503 0.2577223 -0.9444269
vn 0.1865085 0.4706202 -0.862398
vn 0.2052667 0.2578553 -0.944127
vn 0.1870689 0.4706749 -0.8622468
vn 0.1592599 0.6588808 -0.7351947
vn 0.1592599 0.6588808 -0.7351947
vn -0.2117025 0.009561404 0.9772873
vn -0.209875 -0.1212314 0.970183
vn -0.2104511 -0.1211623 0.9700669
vn -0.2117024 0.00956148 0.9772873
vn -0.2042484 -0.249966 0.9464666
vn -0.2055259 -0.2498159 0.9462297
vn -0.2055289 -0.2498131 0.9462299
vn -0.2058056 -0.2403102 0.9486277
vn -0.2042458 -0.2499632 0.946468
vn -0.20523 -0.2403778 0.9487352
vn -0.2059968 -0.2307913 0.950947
vn -0.2059968 -0.2307914 0.950947
vn 0.9773321 -8.881775E-15 0.2117123
vn 0.9773321 -8.881775E-15 0.2117123
vn 0.9773321 -8.881775E-15 0.2117123
vn 0.9773321 -8.881775E-15 0.2117123
vn 0.9773319 -2.16805E-07 0.2117127
vn 0.9773319 -1.658667E-07 0.2117129
vn 0.9773319 -3.466203E-07 0.2117128
vn 0.9773319 -1.825214E-07 0.211713
vn -0.98675 -0.04757587 0.155116
vn -0.9918116 0.002993524 0.1276743
vn -0.9865313 -0.04483114 0.1573089
vn -0.992067 0.003182726 0.1256702
vn -0.9803747 -0.09506303 0.1727087
vn -0.9688066 -0.1692561 0.1810139
vn -0.9695991 -0.1625266 0.1829277
vn -0.9197866 -0.3393107 0.1971308
vn 4.194059E-07 -0.9999989 -1.936114E-06
vn 4.194059E-07 -0.9999989 -1.936114E-06
vn 4.194059E-07 -0.9999989 -1.936114E-06
vn 4.194059E-07 -0.9999989 -1.936114E-06
vn -0.08104008 0.9238366 0.3741074
vn -0.08104008 0.9238366 0.3741074
vn -0.08104008 0.9238366 0.3741074
vn -0.08104008 0.9238366 0.3741074
vn -0.9773321 8.881775E-15 -0.2117123
vn -0.9773321 8.881775E-15 -0.2117123
vn -0.9773321 8.881775E-15 -0.2117123
vn -0.9773321 8.881775E-15 -0.2117123
vn -0.9773321 8.881775E-15 -0.2117123
vn -0.9773321 8.881775E-15 -0.2117123
vn 0.06956063 -0.9444808 -0.3211154
vn 0.06956054 -0.9444814 -0.3211141
vn 0.06956064 -0.9444808 -0.3211155
vn 0.06956052 -0.9444814 -0.321114
vn 0.9808838 0.09688897 -0.1687576
vn 0.9830213 0.09623259 -0.1562313
vn 0.9805151 0.09699602 -0.1708267
vn 0.9830213 0.09623259 -0.1562313
vn 0.9808838 0.09688897 -0.1687576
vn 0.9833016 0.09614151 -0.1545143
vn -0.01413954 0.9977662 0.06527272
vn -0.01413959 0.9977662 0.06527296
vn -0.01413953 0.9977662 0.06527268
vn -0.0141396 0.9977662 0.06527299

vt 0.7075195 0.6943359
vt 0.6186523 0.5800781
vt 0.6186523 0.6943359
vt 0.7075195 0.5800781
vt 0.6254883 0.7011719
vt 0.7006836 0.7011719
vt 0.6254883 0.7573242
vt 0.6186523 0.7641602
vt 0.7006836 0.7573242
vt 0.7075195 0.7641602
vt 0.6186523 0.7695313
vt 0.7075195 0.7695313
vt 0.8081055 0.03570557
vt 0.8789063 0.1304932
vt 0.8076172 0.1304932
vt 0.8789063 0.03570557
vt 0.8730469 0.1363525
vt 0.8134766 0.1363525
vt 0.8730469 0.1807861
vt 0.8789063 0.1866455
vt 0.8134766 0.1807861
vt 0.8081055 0.1866455
vt 0.8081055 0.1903076
vt 0.8789063 0.1903076
vt 0.8081055 0.03570557
vt 0.7998047 0.1300049
vt 0.7988281 0.03564453
vt 0.8076172 0.1304932
vt 0.800293 0.1875
vt 0.8081055 0.1866455
vt 0.8022461 0.1912842
vt 0.8081055 0.1903076
vt 0.8789063 0.1304932
vt 0.8886719 0.03564453
vt 0.8876953 0.1300049
vt 0.8789063 0.03570557
vt 0.8789063 0.1866455
vt 0.887207 0.1875
vt 0.8789063 0.1903076
vt 0.8852539 0.1914063
vt 0.8789063 0.03570557
vt 0.8081055 0.02656555
vt 0.8823242 0.02656555
vt 0.8081055 0.03570557
vt 0.8081055 0.1903076
vt 0.8823242 0.1960449
vt 0.8081055 0.1960449
vt 0.8789063 0.1903076
vt 0.8217773 0.1422119
vt 0.8134766 0.1807861
vt 0.8134766 0.1363525
vt 0.8134766 0.1807861
vt 0.8217773 0.1422119
vt 0.8212891 0.1740723
vt 0.8208008 0.1730957
vt 0.8730469 0.1807861
vt 0.8134766 0.1807861
vt 0.8657227 0.1730957
vt 0.8647461 0.1740723
vt 0.8730469 0.1363525
vt 0.8730469 0.1807861
vt 0.8730469 0.1363525
vt 0.8647461 0.1740723
vt 0.8642578 0.1422119
vt 0.8657227 0.1445313
vt 0.8134766 0.1363525
vt 0.8730469 0.1363525
vt 0.8208008 0.1445313

g door_rearR_10531_678
usemtl door_rearR_10531_678
usemap door_rearR_10531_678
f 1/1/1 3/3/3 2/2/2
f 2/2/2 4/4/4 1/1/1
f 5/5/5 3/3/3 1/1/1
f 1/1/1 6/6/6 5/5/5
f 3/3/3 5/5/5 7/7/7
f 7/7/7 8/8/8 3/3/3
f 8/8/8 7/7/7 9/9/9
f 9/9/9 10/10/10 8/8/8
f 10/10/10 9/9/9 6/6/6
f 6/6/6 1/1/1 10/10/10
f 11/11/11 8/8/8 10/10/10
f 10/10/10 12/12/12 11/11/11
f 13/13/13 15/15/15 14/14/14
f 14/14/14 16/16/16 13/13/13
f 17/17/17 14/14/14 15/15/15
f 15/15/15 18/18/18 17/17/17
f 14/14/14 17/17/17 19/19/19
f 19/19/19 20/20/20 14/14/14
f 20/20/20 19/19/19 21/21/21
f 21/21/21 22/22/22 20/20/20
f 22/22/22 21/21/21 18/18/18
f 18/18/18 15/15/15 22/22/22
f 20/20/20 22/22/22 23/23/23
f 23/23/23 24/24/24 20/20/20
f 25/25/25 27/27/27 26/26/26
f 26/26/26 28/28/28 25/25/25
f 28/28/28 26/26/26 29/29/29
f 29/29/29 30/30/30 28/28/28
f 30/30/30 29/29/29 31/31/31
f 31/31/31 32/32/32 30/30/30
f 33/33/33 35/35/35 34/34/34
f 34/34/34 36/36/36 33/33/33
f 35/35/35 33/33/33 37/37/37
f 37/37/37 38/38/38 35/35/35
f 38/38/38 37/37/37 39/39/39
f 39/39/39 40/40/40 38/38/38
f 41/41/41 43/43/43 42/42/42
f 42/42/42 44/44/44 41/41/41
f 45/45/45 47/47/47 46/46/46
f 46/46/46 48/48/48 45/45/45
f 49/49/49 51/51/51 50/50/50
f 52/52/52 54/54/54 53/53/53
f 55/55/55 57/57/57 56/56/56
f 56/56/56 58/58/58 55/55/55
f 59/59/59 61/61/61 60/60/60
f 62/62/62 64/64/64 63/63/63
f 65/65/65 67/67/67 66/66/66
f 66/66/66 68/68/68 65/65/65
