#door06_8989_267.obj

v -0.250002 2.149999 0.5999963
v 0.04999835 2.15 -0.6000033
v 0.05000141 2.149999 0.5999961
v -0.2499987 2.15 -0.600004
v -0.2500015 0.04999942 0.5999953
v 0.05000141 2.149999 0.5999961
v 0.05000193 0.04999945 0.5999951
v -0.250002 2.149999 0.5999963
v 0.04999888 0.05000012 -0.6000051
v -0.2499987 2.15 -0.600004
v -0.2499982 0.05000022 -0.600005
v 0.04999835 2.15 -0.6000033
v 0.049999 2.05 -0.5000039
v -0.2500006 0.05000016 -0.5000048
v -0.249998 2.05 -0.5000038
v 0.04999648 0.05000006 -0.5000049
v -0.249998 2.05 -0.5000038
v 0.05000049 2.049999 0.4999959
v 0.049999 2.05 -0.5000039
v -0.2500029 2.049999 0.499996
v -0.2500029 2.049999 0.499996
v 0.04999797 0.04999938 0.4999949
v 0.05000049 2.049999 0.4999959
v -0.2499991 0.04999948 0.4999951
v -0.249998 2.05 -0.5000038
v -0.2499982 0.05000022 -0.600005
v -0.2499987 2.15 -0.600004
v -0.2500006 0.05000016 -0.5000048
v 0.04999888 0.05000012 -0.6000051
v 0.049999 2.05 -0.5000039
v 0.04999835 2.15 -0.6000033
v 0.04999648 0.05000006 -0.5000049
v -0.2500029 2.049999 0.499996
v -0.2500015 0.04999942 0.5999953
v -0.2499991 0.04999948 0.4999951
v -0.250002 2.149999 0.5999963
v 0.05000193 0.04999945 0.5999951
v 0.05000049 2.049999 0.4999959
v 0.04999797 0.04999938 0.4999949
v 0.05000141 2.149999 0.5999961
v 0.05000141 2.149999 0.5999961
v 0.049999 2.05 -0.5000039
v 0.05000049 2.049999 0.4999959
v 0.04999835 2.15 -0.6000033
v -0.249998 2.05 -0.5000038
v -0.250002 2.149999 0.5999963
v -0.2500029 2.049999 0.499996
v -0.2499987 2.15 -0.600004
v -0.2499875 0.05499962 0.4999971
v 0.05000809 0.05500101 -0.500002
v 0.05000958 0.05499952 0.499997
v -0.249989 0.0550009 -0.5000027
v 0.05000958 0.05499952 0.499997
v 0.0500139 9.865629E-07 -0.5000026
v 0.05000904 -4.247264E-07 0.4999973
v 0.05000809 0.05500101 -0.500002
v -0.2499895 9.556596E-07 -0.5000024
v -0.2499875 0.05499962 0.4999971
v -0.249988 -3.259211E-07 0.4999966
v -0.249989 0.0550009 -0.5000027

vn 0.02056631 0.9997873 0.001319845
vn 0.02056631 0.9997873 0.001319845
vn 0.02056631 0.9997873 0.001319845
vn 0.02056631 0.9997873 0.001319845
vn -0.004553854 -0.001226394 0.9999887
vn -0.004553854 -0.001226394 0.9999887
vn -0.004553854 -0.001226394 0.9999887
vn -0.004553854 -0.001226394 0.9999887
vn 0.004553853 0.001226321 -0.9999887
vn 0.004553853 0.001226321 -0.9999887
vn 0.004553853 0.001226321 -0.9999887
vn 0.004553853 0.001226321 -0.9999887
vn -0.004553854 -0.001226348 0.9999887
vn -0.004553854 -0.001226348 0.9999887
vn -0.004553854 -0.001226348 0.9999887
vn -0.004553854 -0.001226348 0.9999887
vn -0.02056631 -0.9997873 -0.00131982
vn -0.02056631 -0.9997873 -0.00131982
vn -0.02056631 -0.9997873 -0.00131982
vn -0.02056631 -0.9997873 -0.00131982
vn 0.004553855 0.001226424 -0.9999887
vn 0.004553855 0.001226424 -0.9999887
vn 0.004553855 0.001226424 -0.9999887
vn 0.004553855 0.001226424 -0.9999887
vn -0.9997782 0.02057208 -0.004527865
vn -0.9997782 0.02057208 -0.004527865
vn -0.9997782 0.02057208 -0.004527865
vn -0.9997782 0.02057208 -0.004527865
vn 0.9997782 -0.02057208 0.004527865
vn 0.9997782 -0.02057208 0.004527865
vn 0.9997782 -0.02057208 0.004527865
vn 0.9997782 -0.02057208 0.004527865
vn -0.9997782 0.02057208 -0.004527865
vn -0.9997782 0.02057208 -0.004527865
vn -0.9997782 0.02057208 -0.004527865
vn -0.9997782 0.02057208 -0.004527865
vn 0.9997782 -0.02057208 0.004527865
vn 0.9997782 -0.02057208 0.004527865
vn 0.9997782 -0.02057208 0.004527865
vn 0.9997782 -0.02057208 0.004527865
vn 0.9997782 -0.02057208 0.004527865
vn 0.9997782 -0.02057208 0.004527865
vn 0.9997782 -0.02057208 0.004527865
vn 0.9997782 -0.02057208 0.004527865
vn -0.9997782 0.02057208 -0.004527865
vn -0.9997782 0.02057208 -0.004527865
vn -0.9997782 0.02057208 -0.004527865
vn -0.9997782 0.02057208 -0.004527865
vn 0.02056631 0.9997873 0.001320573
vn 0.02056631 0.9997873 0.001320573
vn 0.02056631 0.9997873 0.001320573
vn 0.02056631 0.9997873 0.001320573
vn 0.9997782 -0.02057208 0.004527865
vn 0.9997782 -0.02057208 0.004527865
vn 0.9997782 -0.02057208 0.004527865
vn 0.9997782 -0.02057208 0.004527865
vn -0.9997782 0.02057208 -0.004527865
vn -0.9997782 0.02057208 -0.004527865
vn -0.9997782 0.02057208 -0.004527865
vn -0.9997782 0.02057208 -0.004527865

vt 0.4318848 0.4880371
vt 0.3989258 0.3562012
vt 0.3989258 0.4880371
vt 0.4318848 0.3562012
vt 0.3989258 0.2600098
vt 0.4318848 0.4909668
vt 0.4318848 0.2600098
vt 0.3989258 0.4909668
vt 0.4318848 0.2600098
vt 0.3989258 0.4909668
vt 0.3989258 0.2600098
vt 0.4318848 0.4909668
vt 0.3989258 0.4777832
vt 0.4318848 0.2578125
vt 0.4318848 0.4777832
vt 0.3989258 0.2578125
vt 0.3989258 0.3679199
vt 0.4318848 0.4777832
vt 0.4318848 0.3679199
vt 0.3989258 0.4777832
vt 0.4318848 0.4777832
vt 0.3989258 0.2578125
vt 0.3989258 0.4777832
vt 0.4318848 0.2578125
vt 0.4318848 0.4777832
vt 0.4428711 0.2578125
vt 0.4428711 0.4887695
vt 0.4318848 0.2578125
vt 0.4318848 0.2600098
vt 0.4428711 0.4799805
vt 0.4318848 0.4909668
vt 0.4428711 0.2600098
vt 0.4318848 0.4777832
vt 0.4428711 0.2578125
vt 0.4318848 0.2578125
vt 0.4428711 0.4887695
vt 0.4318848 0.2600098
vt 0.4428711 0.4799805
vt 0.4428711 0.2600098
vt 0.4318848 0.4909668
vt 0.4428711 0.4887695
vt 0.4318848 0.3679199
vt 0.4318848 0.4777832
vt 0.4428711 0.3569336
vt 0.4428711 0.3671875
vt 0.4318848 0.4880371
vt 0.4428711 0.4770508
vt 0.4318848 0.3562012
vt 0.4318848 0.3850098
vt 0.4003906 0.2578125
vt 0.4003906 0.3850098
vt 0.4318848 0.2578125
vt 0.4428711 0.3850098
vt 0.4318848 0.2578125
vt 0.4318848 0.3850098
vt 0.4428711 0.2578125
vt 0.4431152 0.2578125
vt 0.4318848 0.3850098
vt 0.4431152 0.3850098
vt 0.4318848 0.2578125

g door06_8989_267
usemtl door06_8989_267
usemap door06_8989_267
f 1/1/1 3/3/3 2/2/2
f 2/2/2 4/4/4 1/1/1
f 5/5/5 7/7/7 6/6/6
f 6/6/6 8/8/8 5/5/5
f 9/9/9 11/11/11 10/10/10
f 10/10/10 12/12/12 9/9/9
f 13/13/13 15/15/15 14/14/14
f 14/14/14 16/16/16 13/13/13
f 17/17/17 19/19/19 18/18/18
f 18/18/18 20/20/20 17/17/17
f 21/21/21 23/23/23 22/22/22
f 22/22/22 24/24/24 21/21/21
f 25/25/25 27/27/27 26/26/26
f 26/26/26 28/28/28 25/25/25
f 29/29/29 31/31/31 30/30/30
f 30/30/30 32/32/32 29/29/29
f 33/33/33 35/35/35 34/34/34
f 34/34/34 36/36/36 33/33/33
f 37/37/37 39/39/39 38/38/38
f 38/38/38 40/40/40 37/37/37
f 41/41/41 43/43/43 42/42/42
f 42/42/42 44/44/44 41/41/41
f 45/45/45 47/47/47 46/46/46
f 46/46/46 48/48/48 45/45/45
f 49/49/49 51/51/51 50/50/50
f 50/50/50 52/52/52 49/49/49
f 53/53/53 55/55/55 54/54/54
f 54/54/54 56/56/56 53/53/53
f 57/57/57 59/59/59 58/58/58
f 58/58/58 60/60/60 57/57/57
