#door_frontL_9401_185.obj

v -0.03486373 -0.001812616 -0.1676207
v -0.002021659 -0.000745801 -0.003512655
v -0.07374411 0.1050509 -0.03080515
v -0.09596743 0.114952 -0.1651527
v -0.01993676 -0.2371427 -0.1470295
v 0.01456633 -0.2359078 -0.003511816
v -0.3199388 0.5252272 -0.6256831
v -0.2827592 0.4815699 -0.6443239
v -0.2366585 0.5891325 -1.238652
v -0.2390394 0.5385998 -1.157537
v 0.07558142 0.008090364 -1.013195
v 0.006668827 0.1356473 -1.056746
v -0.002677256 0.137431 -1.133804
v -0.2390394 0.5385998 -1.157537
v 0.07054181 0.01226108 -1.102417
v 0.001791609 -0.5361196 -0.03081692
v -0.02716031 -0.536121 -0.1495435
v 0.09816143 -0.5361426 -1.05133
v 0.09542059 -0.2452289 -1.013602
v 0.09445377 -0.2440124 -1.104666
v 0.09821936 -0.5361452 -1.120397
v -0.1215185 0.08927557 -0.03141007
v -0.1093454 -0.008349997 -0.003269596
v -0.1390856 -0.009369805 -0.1677373
v -0.1431739 0.09882461 -0.1662148
v -0.1277014 -0.2365096 -0.1470051
v -0.09891143 -0.2352569 -0.003451785
v -0.361602 0.5022674 -0.6275409
v -0.3244037 0.4595377 -0.6462302
v -0.2860083 0.5679086 -1.241282
v -0.2874933 0.5192627 -1.159397
v -0.05139837 0.1213237 -1.134191
v -0.04310472 0.1208662 -1.057076
v -0.03465322 0.0009632189 -1.013254
v -0.0395992 0.004401091 -1.102741
v -0.09521009 -0.53612 -0.03080773
v -0.1238398 -0.5361204 -0.1495621
v 0.0006062876 -0.5361426 -1.051017
v -0.01588928 -0.2446139 -1.013266
v -0.01617935 -0.2433729 -1.104395
v 0.0009549712 -0.5361438 -1.120059
v -0.002021659 -0.000745801 -0.003512655
v -0.1093454 -0.008349997 -0.003269596
v -0.1215185 0.08927557 -0.03141007
v -0.07374411 0.1050509 -0.03080515
v 0.01456633 -0.2359078 -0.003511816
v -0.09891143 -0.2352569 -0.003451785
v -0.361602 0.5022674 -0.6275409
v -0.3199388 0.5252272 -0.6256831
v 0.001791609 -0.5361196 -0.03081692
v -0.09521009 -0.53612 -0.03080773
v -0.2827592 0.4815699 -0.6443239
v -0.3244037 0.4595377 -0.6462302
v -0.1431739 0.09882461 -0.1662148
v -0.2827592 0.4815699 -0.6443239
v -0.09596743 0.114952 -0.1651527
v -0.2390394 0.5385998 -1.157537
v -0.3244037 0.4595377 -0.6462302
v -0.2874933 0.5192627 -1.159397
v 0.006668827 0.1356473 -1.056746
v -0.04310472 0.1208662 -1.057076
v -0.2874933 0.5192627 -1.159397
v 0.006668827 0.1356473 -1.056746
v -0.2874933 0.5192627 -1.159397
v -0.2390394 0.5385998 -1.157537
v -0.2366585 0.5891325 -1.238652
v -0.2860083 0.5679086 -1.241282
v -0.05139837 0.1213237 -1.134191
v -0.002677256 0.137431 -1.133804
v -0.0395992 0.004401091 -1.102741
v 0.07054181 0.01226108 -1.102417
v -0.01617935 -0.2433729 -1.104395
v 0.09445377 -0.2440124 -1.104666
v 0.0009549712 -0.5361438 -1.120059
v 0.09821936 -0.5361452 -1.120397
v -0.3199388 0.5252272 -0.6256831
v -0.361602 0.5022674 -0.6275409
v -0.2860083 0.5679086 -1.241282
v -0.2366585 0.5891325 -1.238652
v -0.09596743 0.114952 -0.1651527
v -0.1431739 0.09882461 -0.1662148
v -0.04310472 0.1208662 -1.057076
v 0.006668827 0.1356473 -1.056746
v 0.09816143 -0.5361426 -1.05133
v 0.0006062876 -0.5361426 -1.051017
v -0.1238398 -0.5361204 -0.1495621
v -0.02716031 -0.536121 -0.1495435
v -0.09521009 -0.53612 -0.03080773
v 0.001791609 -0.5361196 -0.03081692
v 0.09821936 -0.5361452 -1.120397
v 0.0009549712 -0.5361438 -1.120059
v -0.07272689 0.1684051 -0.2623006
v -0.09513883 0.2011035 -0.2622983
v -0.06535093 0.2250376 -0.2623027
v -0.07127378 0.2693213 -0.3167732
v -0.1367006 0.2089773 -0.3167504
v 0.05504195 0.2264494 -0.3168511
v -0.01818331 0.2066248 -0.2623123
v 0.04226807 0.1322387 -0.3168381
v -0.02283693 0.1705339 -0.2623076
v -0.0902939 0.1298037 -0.3167636
v -0.1438692 0.1612809 -0.2333722
v -0.122628 0.1130665 -0.2325574
v -0.1630878 0.2047217 -0.3227182
v -0.109494 0.1225083 -0.3127468
v 0.04226807 0.1322387 -0.3168381
v 0.05504195 0.2264494 -0.3168511
v -0.07127378 0.2693213 -0.3167732
v -0.0902939 0.1298037 -0.3167636
v -0.1367006 0.2089773 -0.3167504
v -0.109494 0.1225083 -0.3127468
v -0.1630878 0.2047217 -0.3227182
v -0.1244421 0.09884433 -0.1662174
v -0.1305279 0.1031566 -0.3357545
v -0.2121076 0.2288795 -0.3367751
v -0.2121076 0.2288795 -0.3367751
v -0.1305279 0.1031566 -0.3357545
v -0.1021769 0.1190032 -0.3350017
v -0.1866786 0.2464157 -0.335372
v -0.1866786 0.2464157 -0.335372
v -0.1021769 0.1190032 -0.3350017
v -0.09596743 0.114952 -0.1651527

vn 0.9169676 0.2755993 -0.2884706
vn 0.8795152 0.1982113 -0.4326259
vn 0.7992646 0.4407627 -0.4085387
vn 0.8318846 0.4587394 -0.3122912
vn 0.9672903 0.008943046 -0.2535144
vn 0.9111189 -0.04175475 -0.4100232
vn 0.8633327 0.4487774 -0.2307707
vn 0.8624713 0.4486372 -0.2342384
vn 0.8491368 0.5004201 -0.1689552
vn 0.8592411 0.4848563 -0.1631521
vn 0.9335517 0.2843826 -0.218192
vn 0.8365757 0.4833374 -0.2579256
vn 0.8323466 0.4939944 -0.2513324
vn 0.8592411 0.4848563 -0.1631521
vn 0.9067957 0.2822675 -0.3131237
vn 0.9086485 -0.08279174 -0.4092719
vn 0.9702368 -0.03170761 -0.2400736
vn 0.9897874 0.01440109 -0.1418221
vn 0.9871394 0.05295393 -0.1508368
vn 0.9728476 0.04169405 -0.2276603
vn 0.9783756 0.009707637 -0.2066091
vn -0.9263429 -0.1069463 0.3611804
vn -0.926882 0.002776708 0.3753426
vn -0.9704407 -0.05271349 0.2355127
vn -0.9308296 -0.2409362 0.2747833
vn -0.9685785 -0.02651747 0.2472909
vn -0.9200054 0.02348647 0.3912013
vn -0.8587154 -0.4556746 0.2344526
vn -0.8581616 -0.4553914 0.2370166
vn -0.8439543 -0.5055953 0.1792044
vn -0.8535444 -0.4913447 0.1733259
vn -0.9121838 -0.3348155 0.236261
vn -0.9552118 -0.2042404 0.2141408
vn -0.9813024 -0.08354595 0.1733949
vn -0.9619001 -0.054352 0.267944
vn -0.9151028 0.03503939 0.401695
vn -0.9700034 -0.0126423 0.242762
vn -0.9868406 -0.05743344 0.1511524
vn -0.9851795 -0.07248385 0.155459
vn -0.9713619 -0.06514154 0.2285005
vn -0.9756429 -0.05546675 0.2122363
vn 0.1698996 0.3622866 0.9164511
vn 0.1638938 0.3859098 0.9078615
vn -0.0512225 0.7083262 0.7040237
vn -0.0290568 0.686484 0.7265635
vn 0.1940376 0.222347 0.9554641
vn 0.1939906 0.2238902 0.9551132
vn -0.3680269 0.9087044 0.1970042
vn -0.3741435 0.9093811 0.1817715
vn 0.1951602 0.1786638 0.964361
vn 0.1951602 0.1786638 0.964361
vn 0.3550816 -0.9115495 -0.2073475
vn 0.3505121 -0.9104819 -0.2194593
vn 0.2255416 -0.840004 -0.4934803
vn 0.3550816 -0.9115495 -0.2073475
vn 0.2255416 -0.840004 -0.4934803
vn 0.4448532 -0.891294 0.08774397
vn 0.3505121 -0.9104819 -0.2194593
vn 0.4448532 -0.891294 0.08774395
vn 0.08933921 0.4471759 0.8899732
vn 0.08933923 0.4471759 0.8899732
vn 0.08933923 0.4471759 0.8899732
vn 0.08933921 0.4471759 0.8899732
vn 0.08933923 0.4471759 0.8899732
vn 0.08933921 0.4471759 0.8899732
vn -0.08106355 -0.434429 -0.8970509
vn -0.08106355 -0.434429 -0.8970509
vn -0.1077076 -0.4621175 -0.8802537
vn -0.1103454 -0.4648251 -0.8784995
vn -0.1633061 -0.378807 -0.9109535
vn -0.1688082 -0.3568913 -0.9187669
vn -0.1938972 -0.2385415 -0.9515788
vn -0.1941172 -0.2365372 -0.9520342
vn -0.1964128 -0.2150933 -0.9566386
vn -0.1964128 -0.2150933 -0.9566386
vn -0.3741435 0.9093811 0.1817715
vn -0.3680269 0.9087044 0.1970042
vn -0.4694624 0.8757901 -0.1122286
vn -0.4694624 0.8757901 -0.1122286
vn -0.3500925 0.9150665 -0.2002167
vn -0.3500925 0.9150665 -0.2002167
vn -0.3500925 0.9150665 -0.2002167
vn -0.3500925 0.9150665 -0.2002167
vn 0.05291223 -0.963681 0.2617582
vn 0.05291231 -0.9636809 0.2617586
vn 0.0529106 -0.9636829 0.2617512
vn 0.05291043 -0.9636832 0.2617505
vn 0.05290791 -0.9636864 0.2617391
vn 0.05290791 -0.9636864 0.2617391
vn 0.05291145 -0.9636821 0.2617543
vn 0.05291145 -0.9636821 0.2617543
vn 0.4644778 -0.116679 0.877865
vn -0.05823514 0.7056248 0.7061881
vn 0.02559316 0.7261484 0.687061
vn -0.06034102 0.9021345 0.4272126
vn -0.3629715 0.8686785 0.337117
vn 0.6569105 0.4843392 0.5778272
vn 0.4839264 0.5254343 0.69981
vn 0.5960642 -0.1879029 0.780641
vn 0.4194784 -0.1436024 0.8963351
vn 0.5590117 -0.6963024 0.450187
vn 0.243382 0.7112998 0.6594065
vn 0.7891117 -0.07551581 0.6095904
vn -0.3016343 0.9140968 0.2710018
vn 0.7477909 -0.6425795 0.1670323
vn -0.1916272 -0.2670434 -0.9444401
vn -0.1916272 -0.2670434 -0.9444401
vn -0.1916272 -0.2670434 -0.9444401
vn -0.1708162 -0.2787943 -0.9450375
vn -0.1647837 -0.2821606 -0.9451096
vn -0.1398307 -0.2958964 -0.9449302
vn -0.1398307 -0.2958964 -0.9449302
vn -0.7902571 -0.5200291 0.3241341
vn -0.7902571 -0.5200291 0.3241341
vn -0.7902571 -0.520029 0.3241341
vn -0.1615168 -0.252617 -0.9539902
vn -0.1615168 -0.252617 -0.9539902
vn -0.1615168 -0.252617 -0.9539902
vn -0.1615168 -0.252617 -0.9539902
vn 0.7841823 0.5278751 -0.3261982
vn 0.7841823 0.5278751 -0.3261982
vn 0.7841823 0.5278751 -0.3261982

vt 0.609375 0.2319336
vt 0.5839844 0.2320557
vt 0.5883789 0.25
vt 0.6088867 0.2514648
vt 0.6064453 0.1968994
vt 0.5839844 0.1970215
vt 0.6777344 0.3251953
vt 0.6806641 0.3164063
vt 0.7680664 0.3349609
vt 0.7558594 0.326416
vt 0.7358398 0.2335205
vt 0.7421875 0.2543945
vt 0.753418 0.2546387
vt 0.7558594 0.326416
vt 0.7490234 0.2340088
vt 0.5883789 0.1524658
vt 0.6064453 0.1524658
vt 0.7412109 0.1524658
vt 0.7358398 0.1956787
vt 0.7490234 0.1959229
vt 0.7514648 0.1524658
vt 0.6196289 0.4511719
vt 0.6157227 0.4382324
vt 0.6381836 0.4379883
vt 0.6381836 0.4523926
vt 0.6357422 0.4074707
vt 0.6157227 0.4074707
vt 0.7001953 0.5185547
vt 0.703125 0.5107422
vt 0.7822266 0.527832
vt 0.7714844 0.5205078
vt 0.7685547 0.4555664
vt 0.7583008 0.4555664
vt 0.7524414 0.4394531
vt 0.7646484 0.4399414
vt 0.6191406 0.3671875
vt 0.6357422 0.3671875
vt 0.7578125 0.3671875
vt 0.7524414 0.40625
vt 0.7646484 0.4064941
vt 0.7666016 0.3671875
vt 0.9990234 0.2325439
vt 0.9838867 0.2312012
vt 0.9833984 0.2449951
vt 0.9902344 0.2470703
vt 0.9995117 0.2009277
vt 0.9838867 0.2009277
vt 0.9326172 0.3371582
vt 0.9384766 0.3393555
vt 0.9980469 0.1605225
vt 0.9848633 0.1602783
vt 0.6806641 0.3164063
vt 0.6860352 0.3120117
vt 0.6230469 0.2519531
vt 0.6806641 0.3164063
vt 0.6088867 0.2514648
vt 0.7558594 0.326416
vt 0.6821289 0.3095703
vt 0.7475586 0.3181152
vt 0.7421875 0.2543945
vt 0.7363281 0.2624512
vt 0.7475586 0.3190918
vt 0.7421875 0.2543945
vt 0.7475586 0.3190918
vt 0.7558594 0.326416
vt 0.9165039 0.3137207
vt 0.9106445 0.3117676
vt 0.9511719 0.2502441
vt 0.9580078 0.2521973
vt 0.9511719 0.2340088
vt 0.9663086 0.2349854
vt 0.9511719 0.2005615
vt 0.9663086 0.2004395
vt 0.9516602 0.1612549
vt 0.9648438 0.1612549
vt 0.699707 0.5249023
vt 0.7001953 0.5185547
vt 0.7822266 0.527832
vt 0.78125 0.5341797
vt 0.6088867 0.2514648
vt 0.6181641 0.2592773
vt 0.7368164 0.262207
vt 0.7421875 0.2543945
vt 0.7578125 0.3540039
vt 0.7578125 0.3671875
vt 0.6357422 0.3671875
vt 0.6357422 0.3540039
vt 0.6191406 0.3671875
vt 0.6191406 0.3540039
vt 0.7666016 0.3540039
vt 0.7666016 0.3671875
vt 0.5678711 0.01525879
vt 0.5664063 0.02406311
vt 0.5737305 0.02468872
vt 0.5795898 0.03707886
vt 0.5615234 0.03762817
vt 0.5996094 0.01887512
vt 0.5810547 0.0188446
vt 0.5922852 0.001438141
vt 0.578125 0.0135498
vt 0.5649414 0.001422882
vt 0.5522461 0.02171326
vt 0.5512695 0.01274872
vt 0.5566406 0.04058838
vt 0.5610352 0.0006093979
vt 0.5336914 0.005210876
vt 0.5151367 0.002006531
vt 0.5073242 0.02792358
vt 0.5341797 0.03259277
vt 0.519043 0.04193115
vt 0.5351563 0.03656006
vt 0.5195313 0.04760742
vt 0.6352539 0.2617188
vt 0.6582031 0.2814941
vt 0.6757813 0.2617188
vt 0.6757813 0.2617188
vt 0.6582031 0.2814941
vt 0.6621094 0.2861328
vt 0.6796875 0.2658691
vt 0.6757813 0.2617188
vt 0.6582031 0.2814941
vt 0.6352539 0.2617188

g door_frontL_9401_185
usemtl door_frontL_9401_185
usemap door_frontL_9401_185
f 1/1/1 3/3/3 2/2/2
f 1/1/1 4/4/4 3/3/3
f 5/5/5 1/1/1 2/2/2
f 5/5/5 2/2/2 6/6/6
f 7/7/7 3/3/3 4/4/4
f 7/7/7 4/4/4 8/8/8
f 8/8/8 9/9/9 7/7/7
f 8/8/8 10/10/10 9/9/9
f 4/4/4 1/1/1 11/11/11
f 5/5/5 11/11/11 1/1/1
f 4/4/4 11/11/11 12/12/12
f 10/10/10 12/12/12 13/13/13
f 14/14/14 13/13/13 9/9/9
f 12/12/12 15/15/15 13/13/13
f 12/12/12 11/11/11 15/15/15
f 5/5/5 6/6/6 16/16/16
f 5/5/5 16/16/16 17/17/17
f 5/5/5 17/17/17 18/18/18
f 5/5/5 18/18/18 19/19/19
f 5/5/5 19/19/19 11/11/11
f 18/18/18 20/20/20 19/19/19
f 20/20/20 11/11/11 19/19/19
f 20/20/20 15/15/15 11/11/11
f 18/18/18 21/21/21 20/20/20
f 22/22/22 24/24/24 23/23/23
f 22/22/22 25/25/25 24/24/24
f 23/23/23 24/24/24 26/26/26
f 23/23/23 26/26/26 27/27/27
f 25/25/25 22/22/22 28/28/28
f 25/25/25 28/28/28 29/29/29
f 30/30/30 29/29/29 28/28/28
f 30/30/30 31/31/31 29/29/29
f 32/32/32 31/31/31 30/30/30
f 32/32/32 33/33/33 31/31/31
f 34/34/34 25/25/25 33/33/33
f 34/34/34 24/24/24 25/25/25
f 34/34/34 26/26/26 24/24/24
f 35/35/35 33/33/33 32/32/32
f 35/35/35 34/34/34 33/33/33
f 36/36/36 27/27/27 26/26/26
f 36/36/36 26/26/26 37/37/37
f 38/38/38 37/37/37 26/26/26
f 38/38/38 26/26/26 39/39/39
f 34/34/34 39/39/39 26/26/26
f 40/40/40 38/38/38 39/39/39
f 34/34/34 40/40/40 39/39/39
f 34/34/34 35/35/35 40/40/40
f 40/40/40 41/41/41 38/38/38
f 42/42/42 44/44/44 43/43/43
f 42/42/42 45/45/45 44/44/44
f 46/46/46 42/42/42 43/43/43
f 46/46/46 43/43/43 47/47/47
f 45/45/45 48/48/48 44/44/44
f 45/45/45 49/49/49 48/48/48
f 50/50/50 46/46/46 47/47/47
f 50/50/50 47/47/47 51/51/51
f 52/52/52 54/54/54 53/53/53
f 55/55/55 56/56/56 54/54/54
f 57/57/57 52/52/52 58/58/58
f 57/57/57 58/58/58 59/59/59
f 60/60/60 62/62/62 61/61/61
f 63/63/63 65/65/65 64/64/64
f 66/66/66 68/68/68 67/67/67
f 66/66/66 69/69/69 68/68/68
f 69/69/69 70/70/70 68/68/68
f 69/69/69 71/71/71 70/70/70
f 71/71/71 72/72/72 70/70/70
f 71/71/71 73/73/73 72/72/72
f 73/73/73 74/74/74 72/72/72
f 73/73/73 75/75/75 74/74/74
f 76/76/76 78/78/78 77/77/77
f 76/76/76 79/79/79 78/78/78
f 80/80/80 82/82/82 81/81/81
f 80/80/80 83/83/83 82/82/82
f 84/84/84 86/86/86 85/85/85
f 84/84/84 87/87/87 86/86/86
f 87/87/87 88/88/88 86/86/86
f 87/87/87 89/89/89 88/88/88
f 90/90/90 84/84/84 85/85/85
f 90/90/90 85/85/85 91/91/91
f 92/92/92 94/94/94 93/93/93
f 93/93/93 94/94/94 95/95/95
f 93/93/93 95/95/95 96/96/96
f 94/94/94 97/97/97 95/95/95
f 94/94/94 98/98/98 97/97/97
f 92/92/92 98/98/98 94/94/94
f 98/98/98 99/99/99 97/97/97
f 98/98/98 100/100/100 99/99/99
f 92/92/92 100/100/100 98/98/98
f 100/100/100 101/101/101 99/99/99
f 100/100/100 92/92/92 101/101/101
f 92/92/92 93/93/93 102/102/102
f 92/92/92 102/102/102 103/103/103
f 101/101/101 92/92/92 103/103/103
f 93/93/93 104/104/104 102/102/102
f 93/93/93 96/96/96 104/104/104
f 101/101/101 103/103/103 105/105/105
f 106/106/106 108/108/108 107/107/107
f 108/108/108 106/106/106 109/109/109
f 108/108/108 109/109/109 110/110/110
f 110/110/110 109/109/109 111/111/111
f 110/110/110 111/111/111 112/112/112
f 113/113/113 115/115/115 114/114/114
f 116/116/116 118/118/118 117/117/117
f 116/116/116 119/119/119 118/118/118
f 120/120/120 122/122/122 121/121/121
