#door_frontR_10605_431.obj

v 0.00169998 -0.001049279 -0.1696932
v 0.0004755225 -0.2451122 -1.02096
v 0.0009223486 0.009205839 -1.020561
v 0.0005434156 -0.2370491 -0.1485315

vn -0.6116689 0.004352966 -0.7911019
vn -0.6121391 0.002298256 -0.7907469
vn -0.6122633 0.001753499 -0.7906521
vn -0.6115429 0.004901217 -0.791196

vt 0.7495117 0.6728516
vt 0.02156067 0.4638672
vt 0.02191162 0.6816406
vt 0.7675781 0.4709473

g door_frontR_10605_431
usemtl door_frontR_10605_431
usemap door_frontR_10605_431
f 1/1/1 3/3/3 2/2/2
f 2/2/2 4/4/4 1/1/1
