#door_frontR_9882_703.obj

v -2.099525E-05 -9.894518E-08 4.471854E-05
v -2.176661E-05 -0.5324807 -0.9816716
v -2.176661E-05 -1.418574E-07 -0.9816716
v -2.099525E-05 -0.5294993 4.474169E-05
v 0.1242153 0.1999787 -0.06436268
v -2.099525E-05 -9.894518E-08 4.471854E-05
v 0.1242155 0.1999787 -0.1362974
v -2.176661E-05 -1.418574E-07 -0.9816716
v 0.124214 0.1999787 -0.8964483
v 0.1242157 0.1999787 -0.9463181
v -2.176661E-05 -1.418574E-07 -0.9816716
v 0.1160504 -0.5338738 -0.9482893
v 0.1498361 0.005023585 -0.948289
v 0.1160504 -0.5338738 -0.9482893
v -2.176661E-05 -1.418574E-07 -0.9816716
v -2.176661E-05 -0.5324807 -0.9816716
v 0.1242157 0.1999787 -0.9463181
v 0.1498361 0.005023585 -0.948289
v 0.1745906 0.1918912 -0.9152529
v 0.2244544 0.6173525 -0.855817
v 0.1498361 0.005023585 -0.948289
v 0.1242157 0.1999787 -0.9463181
v -2.176661E-05 -1.418574E-07 -0.9816716
v -2.099525E-05 -0.5294993 4.474169E-05
v 0.1498377 0.005023625 -0.03599898
v 0.1160484 -0.5310876 -0.03599906
v 0.1498377 0.005023625 -0.03599898
v -2.099525E-05 -0.5294993 4.474169E-05
v -2.099525E-05 -9.894518E-08 4.471854E-05
v -2.176661E-05 -0.5324807 -0.9816716
v 0.1160484 -0.5310876 -0.03599906
v 0.1160504 -0.5338738 -0.9482893
v -2.099525E-05 -0.5294993 4.474169E-05
v 0.2244544 0.6173525 -0.855817
v 0.1745906 0.1918912 -0.9152529
v 0.2504177 0.5833986 -0.8306877
v 0.2206259 0.60845 -0.3112657
v 0.2504177 0.5833986 -0.8306877
v 0.2504194 0.5750803 -0.3268984
v 0.2504177 0.5833986 -0.8306877
v 0.2206259 0.60845 -0.3112657
v 0.2244544 0.6173525 -0.855817
v 0.1242153 0.1999787 -0.06436268
v 0.2504194 0.5750803 -0.3268984
v 0.1745913 0.1918912 -0.09618234
v 0.2504194 0.5750803 -0.3268984
v 0.1242153 0.1999787 -0.06436268
v 0.2206259 0.60845 -0.3112657
v -2.099525E-05 -9.894518E-08 4.471854E-05
v 0.1745913 0.1918912 -0.09618234
v 0.1498377 0.005023625 -0.03599898
v 0.1745913 0.1918912 -0.09618234
v -2.099525E-05 -9.894518E-08 4.471854E-05
v 0.1242153 0.1999787 -0.06436268
v 0.1160484 -0.5310876 -0.03599906
v 0.1498361 0.005023585 -0.948289
v 0.1160504 -0.5338738 -0.9482893
v 0.1498377 0.005023625 -0.03599898
v 0.1498361 0.005023585 -0.948289
v 0.1745916 0.1918907 -0.8652689
v 0.1745906 0.1918912 -0.9152529
v 0.1745909 0.1918912 -0.1684491
v 0.1745913 0.1918912 -0.09618234
v 0.1498377 0.005023625 -0.03599898
v 0.1242157 0.1999787 -0.9463181
v 0.2145354 0.5780897 -0.8238458
v 0.124214 0.1999787 -0.8964483
v 0.2244544 0.6173525 -0.855817
v 0.2109583 0.5699866 -0.3337184
v 0.2206259 0.60845 -0.3112657
v 0.1242155 0.1999787 -0.1362974
v 0.1242153 0.1999787 -0.06436268
v 0.2504177 0.5833986 -0.8306877
v 0.1745916 0.1918907 -0.8652689
v 0.2422056 0.5437899 -0.7987795
v 0.1745906 0.1918912 -0.9152529
v 0.2504194 0.5750803 -0.3268984
v 0.242301 0.5362283 -0.3492321
v 0.1745913 0.1918912 -0.09618234
v 0.1745909 0.1918912 -0.1684491
v 0.2109583 0.5699866 -0.3337184
v 0.1745909 0.1918912 -0.1684491
v 0.242301 0.5362283 -0.3492321
v 0.1242155 0.1999787 -0.1362974
v 0.124214 0.1999787 -0.8964483
v 0.2422056 0.5437899 -0.7987795
v 0.1745916 0.1918907 -0.8652689
v 0.2145354 0.5780897 -0.8238458
v 0.2145354 0.5780897 -0.8238458
v 0.242301 0.5362283 -0.3492321
v 0.2422056 0.5437899 -0.7987795
v 0.2109583 0.5699866 -0.3337184
v 0.1745909 0.1918912 -0.1684491
v 0.124214 0.1999787 -0.8964483
v 0.1745916 0.1918907 -0.8652689
v 0.1242155 0.1999787 -0.1362974
v 0.09670417 0.2043269 -0.1788206
v -0.1145795 0.2043269 -0.2773434
v -0.03143274 0.2793267 -0.1798426
v -0.1145795 0.3543269 -0.2773434
v 0.09670417 0.3543269 -0.1788206
v 0.1019184 0.1304875 -0.1164085
v -0.003677559 0.2812826 -0.2055238
v -0.02656367 0.2518876 -0.2101023
v 0.1374249 0.1760932 -0.1093021
v 0.1120307 0.1737291 -0.07873923
v -0.02004712 0.2797585 -0.1858225
v 0.1374249 0.1760932 -0.1093021
v -0.003677559 0.2812826 -0.2055238
v 0.09670417 0.3543269 -0.1788206
v -0.1145795 0.2043269 -0.2773434
v 0.09670417 0.2043269 -0.1788206
v -0.1145795 0.3543269 -0.2773434

vn -0.05565381 7.105419E-15 0.9984502
vn -0.05565381 7.105419E-15 0.9984502
vn -0.05565381 7.105419E-15 0.9984502
vn -0.05565381 7.105419E-15 0.9984502
vn -0.04727285 0.5277016 0.8481131
vn -0.04727285 0.5277016 0.8481131
vn -0.04727284 0.5277016 0.848113
vn -0.04727397 0.5277011 0.8481132
vn -0.04727399 0.5277009 0.8481134
vn -0.04727319 0.5277007 0.8481137
vn -0.9622509 -0.01365814 -0.2718214
vn -0.9622509 -0.01365814 -0.2718213
vn -0.9622509 -0.01365814 -0.2718213
vn -0.9441709 -9.568979E-08 -0.3294562
vn -0.9441709 -9.568979E-08 -0.3294562
vn -0.9441709 -9.568979E-08 -0.3294562
vn -0.811936 0.0784935 -0.5784454
vn -0.811936 0.07849351 -0.5784453
vn -0.811936 0.0784935 -0.5784453
vn -0.8149634 0.05597205 -0.5768031
vn -0.9620963 0.03826402 -0.2700125
vn -0.9620963 0.03826402 -0.2700125
vn -0.9620963 0.03826402 -0.2700125
vn 0.969928 -0.0186716 -0.2426745
vn 0.969928 -0.0186716 -0.2426745
vn 0.969928 -0.0186716 -0.2426745
vn 0.9837801 3.96087E-07 -0.1793788
vn 0.9837801 3.96087E-07 -0.1793787
vn 0.9837801 3.96087E-07 -0.1793788
vn 0.002332194 -0.9999112 0.01302761
vn 0.002332194 -0.9999112 0.01302761
vn 0.002332194 -0.9999112 0.01302761
vn 0.002323048 -0.9999132 0.01289011
vn -0.6674283 0.01611117 -0.7444999
vn -0.6674283 0.01611117 -0.7444999
vn -0.6674283 0.01611117 -0.7444999
vn 0.05258597 0.6631073 -0.7466743
vn 0.05258597 0.6631073 -0.7466743
vn 0.05258597 0.6631073 -0.7466743
vn 0.05946451 0.6146107 -0.7865856
vn 0.05946451 0.6146107 -0.7865856
vn 0.05946451 0.6146107 -0.7865856
vn 0.793085 0.3533856 -0.4961193
vn 0.793085 0.3533856 -0.4961193
vn 0.793085 0.3533857 -0.4961193
vn 0.7346782 0.2656289 -0.6242507
vn 0.7346783 0.2656289 -0.6242507
vn 0.7346783 0.2656289 -0.6242507
vn 0.9479033 0.2732287 -0.1637847
vn 0.9479033 0.2732287 -0.1637847
vn 0.9479033 0.2732287 -0.1637847
vn 0.8761336 -0.05425853 -0.4790052
vn 0.8761336 -0.05425853 -0.4790052
vn 0.8761336 -0.05425853 -0.4790052
vn 0.05573521 -0.06257403 -0.996483
vn 0.05573521 -0.06257403 -0.996483
vn 0.05573521 -0.06257402 -0.996483
vn 0.05554361 -0.06289735 -0.9964733
vn 0.05517172 -0.1313163 -0.9898041
vn 0.05517172 -0.1313163 -0.9898041
vn 0.05517172 -0.1313163 -0.9898041
vn 0.05517169 -0.1313163 -0.9898041
vn 0.05517186 -0.131317 -0.989804
vn 0.05517186 -0.1313171 -0.989804
vn -0.05413052 0.2323346 0.9711285
vn -0.05413052 0.2323346 0.9711285
vn -0.05413052 0.2323346 0.9711285
vn -0.06586309 0.2359335 0.9695347
vn -0.05704927 0.2426486 0.9684353
vn -0.05675967 0.2452566 0.9677952
vn -0.0394481 0.2356331 0.9710412
vn -0.05416499 0.2297161 0.9717492
vn 0.069582 -0.1914046 -0.9790418
vn 0.069582 -0.1914046 -0.9790418
vn 0.069582 -0.1914046 -0.9790418
vn 0.05463818 -0.1901502 -0.9802335
vn 0.04533707 -0.1994492 -0.9788588
vn 0.05460804 -0.192945 -0.9796888
vn 0.05460804 -0.1929451 -0.9796888
vn 0.05460804 -0.1929451 -0.9796888
vn -0.7679597 -0.2606264 0.5850739
vn -0.8112078 -0.2884684 0.5086528
vn -0.7616084 -0.2566899 0.5950316
vn -0.8140579 -0.2903799 0.5029801
vn 0.8060167 -0.05127966 0.5896674
vn 0.7203853 0.008588402 0.6935211
vn 0.8138381 -0.05737852 0.578252
vn 0.7117162 0.01409073 0.7023259
vn -0.05393784 -0.6366382 0.7692734
vn -0.05732848 -0.6741173 0.7363955
vn -0.05356384 -0.6324981 0.7727071
vn -0.05751659 -0.6761936 0.7344747
vn 0.008821789 0.9873549 -0.1582726
vn 0.008821811 0.9873551 -0.1582714
vn 0.008821813 0.9873551 -0.1582713
vn 0.00882179 0.9873549 -0.1582727
vn 0.9491093 -0.2415131 0.2021459
vn 0.6938283 -0.241513 0.6784349
vn 0.8813828 -3.961593E-08 0.4724031
vn 0.6938282 0.2415132 0.678435
vn 0.9491093 0.2415132 0.2021459
vn -0.4550065 -0.7913557 0.4083185
vn -0.4008847 0.5489441 -0.7334517
vn -0.442598 -0.7924935 0.4195946
vn -0.3818746 0.5650413 -0.7313683
vn 0.8147138 0.4622023 0.3501571
vn 0.8183977 0.4320494 0.3788909
vn -0.3818746 0.5650413 -0.7313683
vn -0.4008847 0.5489441 -0.7334517
vn -0.8813828 -7.562694E-08 -0.4724031
vn -0.8813828 -7.562694E-08 -0.4724031
vn -0.8813828 -7.562692E-08 -0.4724031
vn -0.8813828 -7.562692E-08 -0.4724031

vt 0.006286621 0.1691895
vt 0.1322021 0.1009521
vt 0.1322021 0.1691895
vt 0.006290436 0.1013184
vt 0.01454926 0.1994629
vt 0.006286621 0.1691895
vt 0.02377319 0.1994629
vt 0.1322021 0.1691895
vt 0.1212769 0.1994629
vt 0.1276855 0.1994629
vt 0.1499023 0.2614746
vt 0.1690674 0.1938477
vt 0.1695557 0.2631836
vt 0.1690674 0.1938477
vt 0.1499023 0.2614746
vt 0.1536865 0.1932373
vt 0.1646729 0.2880859
vt 0.1695557 0.2631836
vt 0.1722412 0.2875977
vt 0.177002 0.3427734
vt 0.1695557 0.2631836
vt 0.1646729 0.2880859
vt 0.1499023 0.2614746
vt 0.3017578 0.192627
vt 0.2866211 0.2624512
vt 0.2861328 0.1934814
vt 0.2866211 0.2624512
vt 0.3017578 0.192627
vt 0.3061523 0.2602539
vt 0.1646729 0.1789551
vt 0.2861328 0.1934814
vt 0.1690674 0.1938477
vt 0.2910156 0.1785889
vt 0.177002 0.3427734
vt 0.1722412 0.2875977
vt 0.1820068 0.3388672
vt 0.2514648 0.3425293
vt 0.1848145 0.3383789
vt 0.2493896 0.3369141
vt 0.1848145 0.3383789
vt 0.2514648 0.3425293
vt 0.1816406 0.3439941
vt 0.2912598 0.2875977
vt 0.2680664 0.3439941
vt 0.2836914 0.2878418
vt 0.2680664 0.3439941
vt 0.2912598 0.2875977
vt 0.2731934 0.3474121
vt 0.3061523 0.2602539
vt 0.2836914 0.2878418
vt 0.2866211 0.2624512
vt 0.2836914 0.2878418
vt 0.3061523 0.2602539
vt 0.2912598 0.2875977
vt 0.2861328 0.1934814
vt 0.1695557 0.2631836
vt 0.1690674 0.1938477
vt 0.2866211 0.2624512
vt 0.1695557 0.2631836
vt 0.1802979 0.2873535
vt 0.1739502 0.2873535
vt 0.2697754 0.2868652
vt 0.2790527 0.2866211
vt 0.2866211 0.2624512
vt 0.1276855 0.1994629
vt 0.1118774 0.2492676
vt 0.1212769 0.1994629
vt 0.1160278 0.2543945
vt 0.04904175 0.2481689
vt 0.04614258 0.253418
vt 0.02377319 0.1994629
vt 0.01454926 0.1994629
vt 0.1848145 0.3383789
vt 0.1802979 0.2873535
vt 0.1888428 0.333252
vt 0.1739502 0.2873535
vt 0.2493896 0.3369141
vt 0.24646 0.3317871
vt 0.2790527 0.2866211
vt 0.2697754 0.2868652
vt 0.05609131 0.2449951
vt 0.03878784 0.2069092
vt 0.05859375 0.2407227
vt 0.03411865 0.2049561
vt 0.1137695 0.2049561
vt 0.104126 0.2431641
vt 0.1090698 0.2076416
vt 0.1074829 0.2469482
vt 0.1074829 0.2469482
vt 0.05859375 0.2407227
vt 0.104126 0.2431641
vt 0.05609131 0.2449951
vt 0.03878784 0.2069092
vt 0.1137695 0.2049561
vt 0.1090698 0.2076416
vt 0.03411865 0.2049561
vt 0.07647705 0.001289368
vt 0.04473877 0.001289368
vt 0.06060791 0.01182556
vt 0.04473877 0.02235413
vt 0.07647705 0.02235413
vt 0.08239746 0.03106689
vt 0.1083374 0.02719116
vt 0.1080322 0.03198242
vt 0.08288574 0.02360535
vt 0.08239746 0.0385437
vt 0.1080322 0.0368042
vt 0.08288574 0.04360962
vt 0.1083374 0.0401001
vt 0.128418 0.02171326
vt 0.1000366 0.001502037
vt 0.128418 0.001502037
vt 0.1000366 0.02171326

g door_frontR_9882_703
usemtl door_frontR_9882_703
usemap door_frontR_9882_703
f 1/1/1 3/3/3 2/2/2
f 2/2/2 4/4/4 1/1/1
f 5/5/5 7/7/7 6/6/6
f 8/8/8 6/6/6 7/7/7
f 7/7/7 9/9/9 8/8/8
f 8/8/8 9/9/9 10/10/10
f 11/11/11 13/13/13 12/12/12
f 14/14/14 16/16/16 15/15/15
f 17/17/17 19/19/19 18/18/18
f 19/19/19 17/17/17 20/20/20
f 21/21/21 23/23/23 22/22/22
f 24/24/24 26/26/26 25/25/25
f 27/27/27 29/29/29 28/28/28
f 30/30/30 32/32/32 31/31/31
f 31/31/31 33/33/33 30/30/30
f 34/34/34 36/36/36 35/35/35
f 37/37/37 39/39/39 38/38/38
f 40/40/40 42/42/42 41/41/41
f 43/43/43 45/45/45 44/44/44
f 46/46/46 48/48/48 47/47/47
f 49/49/49 51/51/51 50/50/50
f 52/52/52 54/54/54 53/53/53
f 55/55/55 57/57/57 56/56/56
f 56/56/56 58/58/58 55/55/55
f 59/59/59 61/61/61 60/60/60
f 59/59/59 60/60/60 62/62/62
f 59/59/59 62/62/62 63/63/63
f 64/64/64 59/59/59 63/63/63
f 65/65/65 67/67/67 66/66/66
f 66/66/66 68/68/68 65/65/65
f 68/68/68 66/66/66 69/69/69
f 69/69/69 70/70/70 68/68/68
f 70/70/70 69/69/69 71/71/71
f 71/71/71 72/72/72 70/70/70
f 73/73/73 75/75/75 74/74/74
f 74/74/74 76/76/76 73/73/73
f 75/75/75 73/73/73 77/77/77
f 77/77/77 78/78/78 75/75/75
f 78/78/78 77/77/77 79/79/79
f 79/79/79 80/80/80 78/78/78
f 81/81/81 83/83/83 82/82/82
f 82/82/82 84/84/84 81/81/81
f 85/85/85 87/87/87 86/86/86
f 86/86/86 88/88/88 85/85/85
f 89/89/89 91/91/91 90/90/90
f 90/90/90 92/92/92 89/89/89
f 93/93/93 95/95/95 94/94/94
f 94/94/94 96/96/96 93/93/93
f 97/97/97 99/99/99 98/98/98
f 98/98/98 99/99/99 100/100/100
f 100/100/100 99/99/99 101/101/101
f 101/101/101 99/99/99 97/97/97
f 102/102/102 104/104/104 103/103/103
f 103/103/103 105/105/105 102/102/102
f 104/104/104 102/102/102 106/106/106
f 106/106/106 107/107/107 104/104/104
f 107/107/107 106/106/106 108/108/108
f 108/108/108 109/109/109 107/107/107
f 110/110/110 112/112/112 111/111/111
f 111/111/111 113/113/113 110/110/110
