#door_frontR_10538_682.obj

v -0.01308839 -0.4165979 -0.9864138
v 0.00929895 -0.7010759 -0.9264451
v 0.009295267 -0.7012702 -0.9864109
v -0.01337553 -0.4176661 -0.9264433
v -0.0253918 -0.2673813 -0.9264449
v -0.01620158 -0.4163363 -0.3195918
v -0.03050504 -0.2982651 -0.1316471
v 0.04714902 0.2172467 -0.9264441
v 0.04535035 0.2177579 -0.08397958
v 0.04501452 0.2166772 1.502428E-05
v -0.02997024 -0.2647916 1.467934E-05
v 0.1671745 0.7006999 -0.3793054
v 0.1515588 0.6427686 -0.407677
v 0.1650197 0.7012703 -0.9864166
v 0.1494183 0.6433346 -0.9264155
v 0.04676561 0.2161731 -0.9864115
v -0.02500954 -0.265051 -0.986414
v 0.009295598 -0.7008815 -0.4026496
v 0.08042617 -0.411034 -0.319202
v 0.07705544 -0.6963877 -0.9265715
v 0.07705609 -0.6959713 -0.4026565
v 0.08042591 -0.4164415 -0.9265721
v 0.0770547 -0.6968042 -0.9862207
v 0.08042064 -0.4153572 -0.9862421
v 0.09165409 -0.2696197 -0.9265713
v 0.09165353 -0.267035 -0.9862533
v 0.1110002 0.2056412 -0.986428
v 0.1126654 0.2149191 -0.9143465
v 0.2010366 0.6219732 -0.9137112
v 0.2182714 0.7012699 -0.9858742
v 0.2030189 0.6211243 -0.4145966
v 0.2203457 0.7003996 -0.3797742
v 0.1126631 0.215047 -0.1019499
v 0.1109963 0.2066373 0.0002839993
v 0.09165529 -0.3040723 -0.1308971
v 0.110999 -0.2732499 0.00194684
v -0.01308839 -0.4165979 -0.9864138
v 0.09165353 -0.267035 -0.9862533
v -0.02500954 -0.265051 -0.986414
v 0.08042064 -0.4153572 -0.9862421
v 0.04676561 0.2161731 -0.9864115
v 0.1110002 0.2056412 -0.986428
v 0.1650197 0.7012703 -0.9864166
v 0.2182714 0.7012699 -0.9858742
v 0.009295267 -0.7012702 -0.9864109
v 0.0770547 -0.6968042 -0.9862207
v 0.08042617 -0.411034 -0.319202
v 0.009295598 -0.7008815 -0.4026496
v -0.01620158 -0.4163363 -0.3195918
v 0.07705609 -0.6959713 -0.4026565
v 0.09165529 -0.3040723 -0.1308971
v -0.03050504 -0.2982651 -0.1316471
v 0.110999 -0.2732499 0.00194684
v -0.02997024 -0.2647916 1.467934E-05
v 0.00929895 -0.7010759 -0.9264451
v 0.0770547 -0.6968042 -0.9862207
v 0.009295267 -0.7012702 -0.9864109
v 0.07705544 -0.6963877 -0.9265715
v 0.009295598 -0.7008815 -0.4026496
v 0.07705609 -0.6959713 -0.4026565
v 0.1109963 0.2066373 0.0002839993
v -0.02997024 -0.2647916 1.467934E-05
v 0.04501452 0.2166772 1.502428E-05
v 0.110999 -0.2732499 0.00194684
v 0.2203457 0.7003996 -0.3797742
v 0.1671745 0.7006999 -0.3793054
v 0.1109963 0.2066373 0.0002839993
v 0.2010366 0.6219732 -0.9137112
v 0.04714902 0.2172467 -0.9264441
v 0.1494183 0.6433346 -0.9264155
v 0.1126654 0.2149191 -0.9143465
v 0.2182714 0.7012699 -0.9858742
v 0.1671745 0.7006999 -0.3793054
v 0.1650197 0.7012703 -0.9864166
v 0.2203457 0.7003996 -0.3797742
v 0.2030189 0.6211243 -0.4145966
v 0.1494183 0.6433346 -0.9264155
v 0.1515588 0.6427686 -0.407677
v 0.2010366 0.6219732 -0.9137112
v 0.1126631 0.215047 -0.1019499
v 0.1515588 0.6427686 -0.407677
v 0.04535035 0.2177579 -0.08397958
v 0.1515588 0.6427686 -0.407677
v 0.1126631 0.215047 -0.1019499
v 0.2030189 0.6211243 -0.4145966
v 0.1126654 0.2149191 -0.9143465
v 0.04535035 0.2177579 -0.08397958
v 0.04714902 0.2172467 -0.9264441
v 0.1126631 0.215047 -0.1019499
v -0.01000781 0.2331815 -0.1225028
v -0.2212926 0.2331811 -0.2210271
v -0.1381443 0.3081813 -0.1235269
v -0.2212926 0.3831812 -0.2210271
v -0.01000781 0.3831812 -0.1225028
v 0.03958457 0.1406938 -0.0363339
v -0.1103882 0.3101368 -0.1492086
v -0.1332742 0.2807418 -0.1537864
v 0.04866775 0.2049479 -0.03727648
v 0.04969967 0.1839354 0.001334723
v -0.1267596 0.3086132 -0.1295059
v 0.04866775 0.2049479 -0.03727648
v -0.1103882 0.3101368 -0.1492086
v 0.03958457 0.1406938 -0.0363339
v -0.01000781 0.3831812 -0.1225028
v -0.2212926 0.2331811 -0.2210271
v -0.01000781 0.2331815 -0.1225028
v -0.2212926 0.3831812 -0.2210271

vn -0.9729303 -0.07948286 -0.2170004
vn -0.9742068 -0.07915378 -0.2113193
vn -0.9743776 -0.07839947 -0.2108122
vn -0.9732013 -0.08038823 -0.2154457
vn -0.9759535 0.03385459 -0.2153339
vn -0.9709775 -0.0970598 -0.2185911
vn -0.9688791 0.1056001 -0.2238788
vn -0.9622794 0.1765269 -0.2070184
vn -0.9598344 0.1869455 -0.2092114
vn -0.9598635 0.1825453 -0.2129298
vn -0.9576695 0.1537848 -0.2433504
vn -0.9466444 0.2555849 -0.1963177
vn -0.9467117 0.256116 -0.1952979
vn -0.9441309 0.2501233 -0.2146041
vn -0.9442388 0.2503874 -0.2138205
vn -0.9598491 0.1902754 -0.2061186
vn -0.975608 0.03783718 -0.2162351
vn -0.973038 -0.08575977 -0.2141082
vn 0.975597 -0.06805202 0.2087567
vn 0.9772443 -0.0120062 0.2117772
vn 0.9772617 -0.01182718 0.2117068
vn 0.9764309 -0.04388879 0.2113209
vn 0.9772521 -0.01202656 0.2117396
vn 0.9765871 -0.04442544 0.2104852
vn 0.9760083 -0.05970909 0.2093865
vn 0.9762284 -0.05772865 0.2089153
vn 0.971612 -0.1208536 0.2033824
vn 0.9728531 -0.1041289 0.2066733
vn 0.955054 -0.2137437 0.2053903
vn 0.955159 -0.2135829 0.2050696
vn 0.9548052 -0.2136442 0.2066474
vn 0.9549429 -0.2135623 0.2060947
vn 0.9699715 -0.1170908 0.2131781
vn 0.9744586 -0.09690163 0.2025843
vn 0.9853683 -0.03761041 0.1662369
vn 0.9976301 -0.0004985671 0.06880404
vn 0.2134021 2.32484E-05 -0.9769644
vn 0.2130667 -0.0001139288 -0.9770375
vn 0.2130648 -4.793591E-05 -0.9770379
vn 0.2135644 -6.086993E-05 -0.9769289
vn 0.2115437 -0.0001433096 -0.9773684
vn 0.2117333 -0.000192128 -0.9773273
vn 0.2209169 -0.00100174 -0.975292
vn 0.2216524 -0.00108394 -0.975125
vn 0.2142392 -5.472497E-05 -0.9767811
vn 0.2144295 -0.0001031902 -0.9767393
vn -0.1316875 -0.6352504 0.7609955
vn -0.1849443 -0.2808476 0.9417642
vn -0.1509279 -0.6215534 0.7686945
vn -0.183157 -0.2812442 0.9419951
vn -0.1131535 -0.9271587 0.3571708
vn -0.1302433 -0.9215869 0.3656668
vn -0.104498 -0.9692776 0.2226633
vn -0.1121313 -0.9672798 0.2275833
vn 0.06603997 -0.9976707 0.01702361
vn 0.06488728 -0.9977024 0.01942626
vn 0.06358508 -0.9978291 0.0170837
vn 0.06681743 -0.9975972 0.01824907
vn 0.07021879 -0.9974023 0.01598673
vn 0.07047223 -0.997383 0.01607711
vn -0.1607312 0.3051101 0.9386548
vn -0.2240123 0.003200945 0.9745809
vn -0.1616401 0.3069505 0.9378983
vn -0.2248654 0.00346275 0.9743836
vn -0.1512691 0.613821 0.7748164
vn -0.1566915 0.6151623 0.7726719
vn -0.1607312 0.3051101 0.9386548
vn -0.416493 0.05102401 0.9077058
vn -0.3875896 0.03899582 0.9210066
vn -0.4195471 0.05230335 0.9062251
vn -0.3841877 0.03758933 0.9224893
vn 9.742699E-05 0.9999984 0.001009002
vn 0.004927906 0.9999836 0.002489272
vn -0.000202578 0.9999985 0.0009170669
vn 0.005231946 0.9999818 0.002582442
vn -0.3786339 -0.9219537 -0.08145995
vn -0.3741241 -0.9238292 -0.08104789
vn -0.3789724 -0.9218119 -0.08149083
vn -0.3736969 -0.9240056 -0.0810088
vn -0.06643914 -0.5497199 -0.8327022
vn -0.1470745 -0.5314047 -0.8342526
vn -0.06107101 -0.5508025 -0.8323978
vn -0.1470745 -0.5314047 -0.8342526
vn -0.06643914 -0.5497199 -0.8327022
vn -0.1547795 -0.529451 -0.8341008
vn 0.03510911 0.9993572 0.007080465
vn 0.03904941 0.9992019 0.008274964
vn 0.0349055 0.9993649 0.007018739
vn 0.03931506 0.9991908 0.008355499
vn -0.3486431 -0.2415086 0.9056055
vn -0.7789478 -0.24151 0.5787166
vn -0.6049152 2.354543E-06 0.7962897
vn -0.7789466 0.2415149 0.5787162
vn -0.3486422 0.241516 0.9056037
vn -0.6171512 -0.7811744 -0.09428491
vn 0.7578186 0.5659213 -0.3247201
vn -0.3278721 -0.8283378 -0.4542629
vn 0.6924911 0.7156792 -0.09087415
vn -0.7165487 0.08552705 0.6922737
vn -0.5270697 0.4060511 0.7465383
vn 0.6924911 0.7156792 -0.09087415
vn 0.7578186 0.5659213 -0.3247201
vn -0.6171512 -0.7811744 -0.09428491
vn 0.6049151 -3.464476E-06 -0.7962898
vn 0.604915 -3.197999E-06 -0.7962899
vn 0.6049153 -3.821019E-06 -0.7962896
vn 0.6049148 -2.841456E-06 -0.79629

vt 0.8007813 0.2802734
vt 0.7924805 0.2402344
vt 0.8007813 0.2402344
vt 0.7924805 0.2800293
vt 0.7924805 0.3010254
vt 0.7075195 0.2802734
vt 0.6811523 0.296875
vt 0.7924805 0.3696289
vt 0.6748047 0.3696289
vt 0.6630859 0.3693848
vt 0.6630859 0.3015137
vt 0.7163086 0.4389648
vt 0.7202148 0.4306641
vt 0.8012695 0.4389648
vt 0.7924805 0.4306641
vt 0.8007813 0.3693848
vt 0.8007813 0.3012695
vt 0.7192383 0.2402344
vt 0.9345703 0.2856445
vt 0.8569336 0.2495117
vt 0.9238281 0.2495117
vt 0.8569336 0.2851563
vt 0.8496094 0.2495117
vt 0.8496094 0.2854004
vt 0.8574219 0.3039551
vt 0.8496094 0.3041992
vt 0.8496094 0.3642578
vt 0.8588867 0.3654785
vt 0.859375 0.418457
vt 0.8500977 0.4287109
vt 0.9223633 0.4182129
vt 0.9272461 0.4284668
vt 0.9624023 0.3652344
vt 0.9750977 0.3642578
vt 0.9584961 0.2993164
vt 0.9750977 0.3032227
vt 0.9814453 0.05032349
vt 0.9667969 0.07122803
vt 0.9829102 0.07147217
vt 0.9682617 0.05047607
vt 0.9731445 0.1386719
vt 0.9643555 0.137207
vt 0.956543 0.2064209
vt 0.9492188 0.2064209
vt 0.9785156 0.01055908
vt 0.96875 0.01118469
vt 0.987793 0.2230225
vt 0.9770508 0.2648926
vt 0.9741211 0.2235107
vt 0.9863281 0.2644043
vt 0.9892578 0.192749
vt 0.972168 0.1925049
vt 0.9921875 0.173584
vt 0.9726563 0.173584
vt 0.8569336 0.2408447
vt 0.8496094 0.2495117
vt 0.8496094 0.2408447
vt 0.8569336 0.2495117
vt 0.9238281 0.2408447
vt 0.9238281 0.2495117
vt 0.9750977 0.3642578
vt 0.9931641 0.3041992
vt 0.9833984 0.3654785
vt 0.9750977 0.3032227
vt 0.9580078 0.442627
vt 0.9648438 0.4428711
vt 0.9750977 0.3642578
vt 0.784668 0.4233398
vt 0.7924805 0.3696289
vt 0.7924805 0.4306641
vt 0.7832031 0.3786621
vt 0.8500977 0.4287109
vt 0.9272461 0.4353027
vt 0.8500977 0.4355469
vt 0.9272461 0.4284668
vt 0.7241211 0.4228516
vt 0.7924805 0.4306641
vt 0.7202148 0.4306641
vt 0.7851563 0.4228516
vt 0.6928711 0.3789063
vt 0.7202148 0.4306641
vt 0.6748047 0.3696289
vt 0.7202148 0.4306641
vt 0.6928711 0.3789063
vt 0.7246094 0.423584
vt 0.7836914 0.3786621
vt 0.6748047 0.3696289
vt 0.7924805 0.3696289
vt 0.6928711 0.3789063
vt 0.07647705 0.001289368
vt 0.04473877 0.001289368
vt 0.06060791 0.01182556
vt 0.04473877 0.02235413
vt 0.07647705 0.02235413
vt 0.08239746 0.03106689
vt 0.1083374 0.02719116
vt 0.1080322 0.03198242
vt 0.08288574 0.02360535
vt 0.08239746 0.0385437
vt 0.1080322 0.0368042
vt 0.08288574 0.04360962
vt 0.1083374 0.0401001
vt 0.08239746 0.03106689
vt 0.128418 0.02171326
vt 0.1000366 0.001502037
vt 0.128418 0.001502037
vt 0.1000366 0.02171326

g door_frontR_10538_682
usemtl door_frontR_10538_682
usemap door_frontR_10538_682
f 1/1/1 3/3/3 2/2/2
f 2/2/2 4/4/4 1/1/1
f 1/1/1 4/4/4 5/5/5
f 5/5/5 4/4/4 6/6/6
f 6/6/6 7/7/7 5/5/5
f 8/8/8 5/5/5 7/7/7
f 7/7/7 9/9/9 8/8/8
f 10/10/10 9/9/9 7/7/7
f 7/7/7 11/11/11 10/10/10
f 9/9/9 10/10/10 12/12/12
f 12/12/12 13/13/13 9/9/9
f 13/13/13 12/12/12 14/14/14
f 14/14/14 15/15/15 13/13/13
f 15/15/15 14/14/14 16/16/16
f 16/16/16 8/8/8 15/15/15
f 17/17/17 5/5/5 8/8/8
f 8/8/8 16/16/16 17/17/17
f 5/5/5 17/17/17 1/1/1
f 18/18/18 6/6/6 4/4/4
f 4/4/4 2/2/2 18/18/18
f 19/19/19 21/21/21 20/20/20
f 20/20/20 22/22/22 19/19/19
f 22/22/22 20/20/20 23/23/23
f 23/23/23 24/24/24 22/22/22
f 25/25/25 22/22/22 24/24/24
f 19/19/19 22/22/22 25/25/25
f 24/24/24 26/26/26 25/25/25
f 25/25/25 26/26/26 27/27/27
f 27/27/27 28/28/28 25/25/25
f 29/29/29 28/28/28 27/27/27
f 27/27/27 30/30/30 29/29/29
f 31/31/31 29/29/29 30/30/30
f 30/30/30 32/32/32 31/31/31
f 33/33/33 31/31/31 32/32/32
f 32/32/32 34/34/34 33/33/33
f 35/35/35 33/33/33 34/34/34
f 28/28/28 33/33/33 35/35/35
f 35/35/35 25/25/25 28/28/28
f 34/34/34 36/36/36 35/35/35
f 25/25/25 35/35/35 19/19/19
f 37/37/37 39/39/39 38/38/38
f 38/38/38 40/40/40 37/37/37
f 38/38/38 39/39/39 41/41/41
f 41/41/41 42/42/42 38/38/38
f 42/42/42 41/41/41 43/43/43
f 43/43/43 44/44/44 42/42/42
f 45/45/45 37/37/37 40/40/40
f 40/40/40 46/46/46 45/45/45
f 47/47/47 49/49/49 48/48/48
f 48/48/48 50/50/50 47/47/47
f 49/49/49 47/47/47 51/51/51
f 51/51/51 52/52/52 49/49/49
f 52/52/52 51/51/51 53/53/53
f 53/53/53 54/54/54 52/52/52
f 55/55/55 57/57/57 56/56/56
f 56/56/56 58/58/58 55/55/55
f 59/59/59 55/55/55 58/58/58
f 58/58/58 60/60/60 59/59/59
f 61/61/61 63/63/63 62/62/62
f 62/62/62 64/64/64 61/61/61
f 65/65/65 66/66/66 63/63/63
f 63/63/63 67/67/67 65/65/65
f 68/68/68 70/70/70 69/69/69
f 69/69/69 71/71/71 68/68/68
f 72/72/72 74/74/74 73/73/73
f 73/73/73 75/75/75 72/72/72
f 76/76/76 78/78/78 77/77/77
f 77/77/77 79/79/79 76/76/76
f 80/80/80 82/82/82 81/81/81
f 83/83/83 85/85/85 84/84/84
f 86/86/86 88/88/88 87/87/87
f 87/87/87 89/89/89 86/86/86
f 90/90/90 92/92/92 91/91/91
f 91/91/91 92/92/92 93/93/93
f 93/93/93 92/92/92 94/94/94
f 94/94/94 92/92/92 90/90/90
f 95/95/95 97/97/97 96/96/96
f 96/96/96 98/98/98 95/95/95
f 99/99/99 100/100/100 97/97/97
f 100/100/100 99/99/99 101/101/101
f 101/101/101 102/102/102 100/100/100
f 97/97/97 103/103/103 99/99/99
f 104/104/104 106/106/106 105/105/105
f 105/105/105 107/107/107 104/104/104
