#door_frontL_10148_439.obj

v -0.0005510413 -0.2370491 -0.1485301
v -0.0009287564 0.009205492 -1.02056
v -0.0004834019 -0.2451122 -1.020956
v -0.001706169 -0.001049318 -0.1696909

vn 0.2376109 0.004369095 0.9713506
vn 0.2381801 0.002299895 0.9712183
vn 0.2383298 0.001754979 0.9711827
vn 0.2374411 0.004985628 0.9713892

vt 0.01394653 0.4709473
vt 0.7597656 0.6816406
vt 0.7597656 0.4638672
vt 0.03204346 0.6728516

g door_frontL_10148_439
usemtl door_frontL_10148_439
usemap door_frontL_10148_439
f 1/1/1 3/3/3 2/2/2
f 2/2/2 4/4/4 1/1/1
