#door_rearL_9126_57.obj

v -0.03383813 0.1534964 -0.001894593
v -0.6392358 -0.6648898 0.1688487
v 7.592873E-06 -0.66489 6.670895E-07
v -0.6392364 0.156013 0.006639833
v -0.5909671 0.2028174 0.01417885
v -0.08190706 0.2019978 0.01281502
v -0.5902351 0.5455905 0.1153375
v -0.6392357 0.5931717 0.1272098
v -0.04931654 0.6130351 0.08043724
v -0.002871466 0.6559253 0.07618929
v -0.6392356 0.6196072 0.1539446
v 6.795653E-06 0.6652365 0.09667681
v -0.6392361 -0.6648898 0.2476125
v -0.06014052 0.1489524 0.06871845
v -0.03215147 -0.66489 0.08355214
v -0.639235 0.1512932 0.07818036
v -0.02729975 0.6374128 0.1476378
v -0.6392353 0.6019853 0.1976675
v -0.02390657 0.6533381 0.1505871
v -0.6392357 0.5730877 0.1881914
v -0.6392361 -0.6648898 0.2476125
v -0.6392364 0.156013 0.006639833
v -0.639235 0.1512932 0.07818036
v -0.6392358 -0.6648898 0.1688487
v -0.6392357 0.5931717 0.1272098
v -0.6392357 0.5730877 0.1881914
v -0.6392356 0.6196072 0.1539446
v -0.6392353 0.6019853 0.1976675
v -0.06014052 0.1489524 0.06871845
v 7.592873E-06 -0.66489 6.670895E-07
v -0.03215147 -0.66489 0.08355214
v -0.03383813 0.1534964 -0.001894593
v -0.02729975 0.6374128 0.1476378
v -0.002871466 0.6559253 0.07618929
v -0.02390657 0.6533381 0.1505871
v -0.02390657 0.6533381 0.1505871
v 6.795653E-06 0.6652365 0.09667681
v -0.03215147 -0.66489 0.08355214
v -0.6392358 -0.6648898 0.1688487
v -0.6392361 -0.6648898 0.2476125
v 7.592873E-06 -0.66489 6.670895E-07
v -0.6392353 0.6019853 0.1976675
v 6.795653E-06 0.6652365 0.09667681
v -0.02390657 0.6533381 0.1505871
v -0.6392356 0.6196072 0.1539446
v -0.639235 0.1512932 0.07818036
v -0.1067536 0.1974314 0.08326885
v -0.06014052 0.1489524 0.06871845
v -0.5909919 0.1983012 0.08510135
v -0.06014052 0.1489524 0.06871845
v -0.07689118 0.5871449 0.1509003
v -0.02729975 0.6374128 0.1476378
v -0.07689118 0.5871449 0.1509003
v -0.06014052 0.1489524 0.06871845
v -0.1067536 0.1974314 0.08326885
v -0.02729975 0.6374128 0.1476378
v -0.5904043 0.5259915 0.1770446
v -0.6392357 0.5730877 0.1881914
v -0.5904043 0.5259915 0.1770446
v -0.02729975 0.6374128 0.1476378
v -0.07689118 0.5871449 0.1509003
v -0.6392357 0.5730877 0.1881914
v -0.5909919 0.1983012 0.08510135
v -0.639235 0.1512932 0.07818036
v -0.5909919 0.1983012 0.08510135
v -0.6392357 0.5730877 0.1881914
v -0.5904043 0.5259915 0.1770446
v -0.5909671 0.2028174 0.01417885
v -0.5904043 0.5259915 0.1770446
v -0.5902351 0.5455905 0.1153375
v -0.5904043 0.5259915 0.1770446
v -0.5909671 0.2028174 0.01417885
v -0.5909919 0.1983012 0.08510135
v -0.5902351 0.5455905 0.1153375
v -0.07689118 0.5871449 0.1509003
v -0.04931654 0.6130351 0.08043724
v -0.07689118 0.5871449 0.1509003
v -0.5904043 0.5259915 0.1770446
v -0.04931654 0.6130351 0.08043724
v -0.1067536 0.1974314 0.08326885
v -0.08190706 0.2019978 0.01281502
v -0.1067536 0.1974314 0.08326885
v -0.04931654 0.6130351 0.08043724
v -0.07689118 0.5871449 0.1509003
v -0.08190706 0.2019978 0.01281502
v -0.5909919 0.1983012 0.08510135
v -0.5909671 0.2028174 0.01417885
v -0.1067536 0.1974314 0.08326885

vn -0.9772319 0.05089441 -0.2059802
vn -0.9859326 -0.08733237 -0.1425135
vn -0.998865 -0.01280071 -0.04588005
vn -0.9644576 0.01756801 -0.2636538
vn -0.946834 0.229367 -0.2256024
vn -0.9483576 0.2262186 -0.2223581
vn -0.9408985 0.2149769 -0.2617159
vn -0.8637822 0.4681742 -0.1862604
vn -0.9868808 0.08222264 -0.1389463
vn -0.787204 0.6103272 -0.08837451
vn -0.6975561 0.7111287 -0.0878106
vn -0.4117065 0.9110118 -0.02352503
vn 0.9860218 0.09737106 0.1352047
vn 0.9743198 0.1323724 0.1821508
vn 0.9988397 0.02655759 0.04017608
vn 0.9390926 0.203228 0.2771347
vn 0.957537 -0.2030383 0.2046914
vn 0.9315333 -0.3084858 0.192568
vn 0.9580921 -0.2000964 0.204991
vn 0.9310066 -0.3102091 0.1923468
vn -0.2994722 1.243131E-07 0.954105
vn -0.2994731 2.326071E-14 0.9541047
vn -0.2994731 2.386337E-14 0.9541047
vn -0.2994722 1.42172E-07 0.954105
vn -0.2994726 1.332266E-15 0.9541049
vn -0.2994716 8.137831E-07 0.9541053
vn -0.2994716 7.657992E-07 0.9541052
vn -0.2994691 2.739708E-06 0.954106
vn 0.6115605 -0.03926374 -0.7902228
vn 0.6213519 0.03866864 -0.7825768
vn 0.6217451 0.03861598 -0.782267
vn 0.6095548 -0.03816186 -0.7918248
vn 0.5508603 -0.1712249 -0.8168444
vn 0.5370899 -0.2705856 -0.7989479
vn 0.5140515 -0.300301 -0.8034738
vn 0.5140515 -0.300301 -0.8034738
vn 0.401536 -0.6426241 -0.6525353
vn -8.137093E-08 -0.999999 1.132826E-07
vn -7.94803E-08 -0.999999 1.072591E-07
vn -7.934072E-08 -0.999999 1.068144E-07
vn -8.149242E-08 -0.999999 1.136696E-07
vn 0.3365615 0.9308974 0.1419677
vn 0.1706456 0.9777552 0.1219546
vn 0.1575877 0.9801548 0.1202522
vn 0.3466682 0.9270092 0.1430847
vn 0.9425645 -0.1643285 0.2908069
vn 0.9228702 -0.2697954 0.2748111
vn 0.9217113 -0.2745374 0.2740032
vn 0.9444667 -0.1491559 0.292806
vn 0.9834394 -0.1704291 0.06165144
vn 0.9834394 -0.1704291 0.06165144
vn 0.9834394 -0.1704291 0.06165145
vn 0.9675275 -0.1786204 0.178845
vn 0.9675275 -0.1786204 0.178845
vn 0.9675275 -0.1786204 0.178845
vn 0.9645057 -0.1492391 0.2178458
vn 0.9645057 -0.1492391 0.2178458
vn 0.9645057 -0.1492391 0.2178458
vn 0.967468 0.01660886 0.2524484
vn 0.967468 0.01660886 0.2524484
vn 0.967468 0.01660886 0.2524484
vn 0.9498593 -0.2509375 0.1865423
vn 0.9498592 -0.2509375 0.1865423
vn 0.9498592 -0.2509375 0.1865423
vn 0.9057039 -0.2698562 0.3269224
vn 0.9057039 -0.2698562 0.3269224
vn 0.9057039 -0.2698562 0.3269224
vn 0.2999246 -0.001976196 -0.953961
vn 0.3011072 -0.002601302 -0.9535869
vn 0.301298 -0.002702201 -0.9535262
vn 0.3011072 -0.002601302 -0.9535869
vn 0.2999246 -0.001976196 -0.953961
vn 0.2997129 -0.001864371 -0.9540276
vn -0.2586079 -0.9483842 -0.1835416
vn -0.265192 -0.9460996 -0.1859223
vn -0.265672 -0.9459308 -0.1860957
vn -0.265192 -0.9460996 -0.1859223
vn -0.2579628 -0.9486051 -0.1833081
vn -0.5870943 0.1275221 0.7994114
vn -0.5883917 0.1274412 0.7984696
vn -0.588588 0.127429 0.7983269
vn -0.5883917 0.1274412 0.7984696
vn -0.5870943 0.1275221 0.7994114
vn -0.5868689 0.1275361 0.7995744
vn 0.06279519 0.9978701 0.0176029
vn 0.06132472 0.9979658 0.01736163
vn 0.06116322 0.9979762 0.01733513
vn 0.06300256 0.9978565 0.01763692

vt 0.5087891 0.6943359
vt 0.5981445 0.5800781
vt 0.5087891 0.5800781
vt 0.5981445 0.6943359
vt 0.5908203 0.7011719
vt 0.515625 0.7011719
vt 0.5908203 0.7573242
vt 0.5981445 0.7641602
vt 0.515625 0.7573242
vt 0.5087891 0.7641602
vt 0.5981445 0.7695313
vt 0.5087891 0.7695313
vt 0.8081055 0.03570557
vt 0.8789063 0.1304932
vt 0.8789063 0.03570557
vt 0.8076172 0.1304932
vt 0.8789063 0.1866455
vt 0.8081055 0.1903076
vt 0.8789063 0.1903076
vt 0.8081055 0.1866455
vt 0.8081055 0.03570557
vt 0.7998047 0.1300049
vt 0.8076172 0.1304932
vt 0.7988281 0.03564453
vt 0.800293 0.1875
vt 0.8081055 0.1866455
vt 0.8022461 0.1912842
vt 0.8081055 0.1903076
vt 0.8789063 0.1304932
vt 0.8886719 0.03564453
vt 0.8789063 0.03570557
vt 0.8876953 0.1300049
vt 0.8789063 0.1866455
vt 0.887207 0.1875
vt 0.8789063 0.1903076
vt 0.8789063 0.1903076
vt 0.8852539 0.1914063
vt 0.8789063 0.03570557
vt 0.8081055 0.02656555
vt 0.8081055 0.03570557
vt 0.8823242 0.02656555
vt 0.8081055 0.1903076
vt 0.8823242 0.1960449
vt 0.8789063 0.1903076
vt 0.8081055 0.1960449
vt 0.8076172 0.1304932
vt 0.8730469 0.1363525
vt 0.8789063 0.1304932
vt 0.8134766 0.1363525
vt 0.8789063 0.1304932
vt 0.8730469 0.1807861
vt 0.8789063 0.1866455
vt 0.8730469 0.1807861
vt 0.8789063 0.1304932
vt 0.8730469 0.1363525
vt 0.8789063 0.1866455
vt 0.8134766 0.1807861
vt 0.8081055 0.1866455
vt 0.8134766 0.1807861
vt 0.8789063 0.1866455
vt 0.8730469 0.1807861
vt 0.8081055 0.1866455
vt 0.8134766 0.1363525
vt 0.8076172 0.1304932
vt 0.8134766 0.1363525
vt 0.8081055 0.1866455
vt 0.8134766 0.1807861
vt 0.8217773 0.1422119
vt 0.8134766 0.1807861
vt 0.8212891 0.1740723
vt 0.8134766 0.1807861
vt 0.8217773 0.1422119
vt 0.8134766 0.1363525
vt 0.8208008 0.1730957
vt 0.8730469 0.1807861
vt 0.8657227 0.1730957
vt 0.8730469 0.1807861
vt 0.8134766 0.1807861
vt 0.8647461 0.1740723
vt 0.8730469 0.1363525
vt 0.8642578 0.1422119
vt 0.8730469 0.1363525
vt 0.8647461 0.1740723
vt 0.8730469 0.1807861
vt 0.8657227 0.1445313
vt 0.8134766 0.1363525
vt 0.8208008 0.1445313
vt 0.8730469 0.1363525

g door_rearL_9126_57
usemtl door_rearL_9126_57
usemap door_rearL_9126_57
f 1/1/1 3/3/3 2/2/2
f 2/2/2 4/4/4 1/1/1
f 1/1/1 4/4/4 5/5/5
f 5/5/5 6/6/6 1/1/1
f 7/7/7 5/5/5 4/4/4
f 4/4/4 8/8/8 7/7/7
f 9/9/9 7/7/7 8/8/8
f 8/8/8 10/10/10 9/9/9
f 10/10/10 1/1/1 6/6/6
f 6/6/6 9/9/9 10/10/10
f 10/10/10 8/8/8 11/11/11
f 11/11/11 12/12/12 10/10/10
f 13/13/13 15/15/15 14/14/14
f 14/14/14 16/16/16 13/13/13
f 17/17/17 19/19/19 18/18/18
f 18/18/18 20/20/20 17/17/17
f 21/21/21 23/23/23 22/22/22
f 22/22/22 24/24/24 21/21/21
f 25/25/25 22/22/22 23/23/23
f 23/23/23 26/26/26 25/25/25
f 27/27/27 25/25/25 26/26/26
f 26/26/26 28/28/28 27/27/27
f 29/29/29 31/31/31 30/30/30
f 30/30/30 32/32/32 29/29/29
f 33/33/33 29/29/29 32/32/32
f 32/32/32 34/34/34 33/33/33
f 35/35/35 33/33/33 34/34/34
f 34/34/34 37/37/37 36/36/36
f 38/38/38 40/40/40 39/39/39
f 39/39/39 41/41/41 38/38/38
f 42/42/42 44/44/44 43/43/43
f 43/43/43 45/45/45 42/42/42
f 46/46/46 48/48/48 47/47/47
f 47/47/47 49/49/49 46/46/46
f 50/50/50 52/52/52 51/51/51
f 53/53/53 55/55/55 54/54/54
f 56/56/56 58/58/58 57/57/57
f 59/59/59 61/61/61 60/60/60
f 62/62/62 64/64/64 63/63/63
f 65/65/65 67/67/67 66/66/66
f 68/68/68 70/70/70 69/69/69
f 71/71/71 73/73/73 72/72/72
f 74/74/74 76/76/76 75/75/75
f 77/77/77 78/78/78 74/74/74
f 79/79/79 81/81/81 80/80/80
f 82/82/82 84/84/84 83/83/83
f 85/85/85 87/87/87 86/86/86
f 86/86/86 88/88/88 85/85/85
