#door_frontR_10179_35.obj

v -0.03871427 -0.02799441 -0.981437
v -0.04377655 0.00314393 -0.0004121228
v -7.640376E-05 -0.5263553 -0.0004134044
v -4.675352E-06 -0.5559802 -0.9814358
v 0.06066861 0.2007636 -0.06484392
v -0.04377655 0.00314393 -0.0004121228
v 0.06730384 0.1981449 -0.1365691
v -0.03871427 -0.02799441 -0.981437
v -4.675352E-06 -0.5559802 -0.9814358
v 0.1160665 -0.5560492 -0.9478793
v 0.1119767 -0.0218101 -0.9478544
v 0.05477112 0.1657091 -0.945899
v -0.03871427 -0.02799441 -0.981437
v 0.1119767 -0.0218101 -0.9478544
v 0.1065906 0.1592399 -0.9147975
v -7.640376E-05 -0.5263553 -0.0004134044
v -0.04377655 0.00314393 -0.0004121228
v 0.09719004 0.007382175 -0.03659194
v 0.1159272 -0.5283732 -0.03656417
v -4.675352E-06 -0.5559802 -0.9814358
v -7.640376E-05 -0.5263553 -0.0004134044
v 0.1159272 -0.5283732 -0.03656417
v 0.1160665 -0.5560492 -0.9478793
v 0.07663012 0.550603 -0.8553442
v 0.05477112 0.1657091 -0.945899
v 0.1065906 0.1592399 -0.9147975
v 0.1071866 0.5220745 -0.8302184
v 0.1153026 0.5815111 -0.311155
v 0.07663012 0.550603 -0.8553442
v 0.1071866 0.5220745 -0.8302184
v 0.1478813 0.5490162 -0.3267635
v 0.06066861 0.2007636 -0.06484392
v 0.1153026 0.5815111 -0.311155
v 0.1478813 0.5490162 -0.3267635
v 0.1110477 0.1915912 -0.09658733
v -0.04377655 0.00314393 -0.0004121228
v 0.06066861 0.2007636 -0.06484392
v 0.1110477 0.1915912 -0.09658733
v 0.09719004 0.007382175 -0.03659194
v 0.1160665 -0.5560492 -0.9478793
v 0.1159272 -0.5283732 -0.03656417
v 0.09719004 0.007382175 -0.03659194
v 0.1119767 -0.0218101 -0.9478544
v 0.1065906 0.1592399 -0.9147975
v 0.1119767 -0.0218101 -0.9478544
v 0.09719004 0.007382175 -0.03659194
v 0.1110477 0.1915912 -0.09658733
v 0.107044 0.1612223 -0.8647987
v 0.1071866 0.5220745 -0.8302184
v 0.1057 0.4886073 -0.7983036
v 0.1478813 0.5490162 -0.3267635
v 0.1429064 0.5109348 -0.3490607
v 0.1174453 0.1890195 -0.1686454
v 0.1110477 0.1915912 -0.09658733
v 0.1174453 0.1890195 -0.1686454
v 0.107044 0.1612223 -0.8647987
v 0.05477112 0.1657091 -0.945899
v 0.07663012 0.550603 -0.8553442
v 0.07210029 0.5177379 -0.8233657
v 0.05475198 0.1676584 -0.8960136
v 0.07663012 0.550603 -0.8553442
v 0.1153026 0.5815111 -0.311155
v 0.1084498 0.5437016 -0.3335695
v 0.07210029 0.5177379 -0.8233657
v 0.1153026 0.5815111 -0.311155
v 0.06066861 0.2007636 -0.06484392
v 0.06730384 0.1981449 -0.1365691
v 0.1084498 0.5437016 -0.3335695
v 0.1478813 0.5490162 -0.3267635
v 0.1071866 0.5220745 -0.8302184
v 0.1057 0.4886073 -0.7983036
v 0.1429064 0.5109348 -0.3490607
v 0.1084498 0.5437016 -0.3335695
v 0.06730384 0.1981449 -0.1365691
v 0.1174453 0.1890195 -0.1686454
v 0.1429064 0.5109348 -0.3490607
v 0.05475198 0.1676584 -0.8960136
v 0.07210029 0.5177379 -0.8233657
v 0.1057 0.4886073 -0.7983036
v 0.107044 0.1612223 -0.8647987
v 0.07210029 0.5177379 -0.8233657
v 0.1084498 0.5437016 -0.3335695
v 0.1429064 0.5109348 -0.3490607
v 0.1057 0.4886073 -0.7983036
v 0.107044 0.1612223 -0.8647987
v 0.1174453 0.1890195 -0.1686454
v 0.06730384 0.1981449 -0.1365691
v 0.05475198 0.1676584 -0.8960136
v -0.04377655 0.00314393 -0.0004121228
v -0.03871427 -0.02799441 -0.981437
v 0.05475198 0.1676584 -0.8960136
v 0.06730384 0.1981449 -0.1365691
v 0.05477112 0.1657091 -0.945899
v 0.04314445 0.2008787 -0.1789779
v -0.1638051 0.1972564 -0.2773969
v -0.09090883 0.2744178 -0.1799466
v -0.1833343 0.3426392 -0.2773976
v 0.02782609 0.3477566 -0.1789778
v 0.05125308 0.1300917 -0.1167234
v 0.07958221 0.1754872 -0.109655
v -0.0630037 0.2752056 -0.2056065
v -0.08228262 0.246295 -0.2101746
v 0.05314554 0.1741872 -0.07916632
v -0.079477 0.2745779 -0.1859266
v 0.07958221 0.1754872 -0.109655
v -0.0630037 0.2752056 -0.2056065
v 0.04314445 0.2008787 -0.1789779
v 0.02782609 0.3477566 -0.1789778
v -0.1833343 0.3426392 -0.2773976
v -0.1638051 0.1972564 -0.2773969

vn -0.9802814 -0.07769275 -0.1816925
vn -0.9802814 -0.07769275 -0.1816925
vn -0.9802814 -0.07769275 -0.1816925
vn -0.9802814 -0.07769275 -0.1816925
vn -0.8598584 0.4396584 -0.2595064
vn -0.8598584 0.4396584 -0.2595064
vn -0.8598584 0.4396584 -0.2595064
vn 0.416312 0.009847006 -0.9091684
vn 0.416312 0.009847007 -0.9091684
vn 0.416312 0.009847005 -0.9091684
vn 0.416312 0.009847006 -0.9091684
vn 0.4702366 0.1022581 -0.876596
vn 0.4702366 0.1022581 -0.876596
vn 0.4702366 0.1022581 -0.876596
vn 0.4702366 0.1022581 -0.876596
vn 0.0910427 0.01589506 0.99572
vn 0.0910427 0.01589506 0.99572
vn 0.0910427 0.01589506 0.99572
vn 0.09104267 0.01589506 0.99572
vn -0.01401535 -0.9995035 0.02818409
vn -0.01401535 -0.9995035 0.02818409
vn -0.01401535 -0.9995035 0.02818409
vn -0.01401535 -0.9995035 0.02818409
vn 0.7348849 0.1647421 -0.6578783
vn 0.7348849 0.1647422 -0.6578783
vn 0.7348849 0.1647422 -0.6578783
vn 0.7348849 0.1647421 -0.6578783
vn 0.7042518 0.7090002 0.03670298
vn 0.7042518 0.7090001 0.03670299
vn 0.7042518 0.7090002 0.03670298
vn 0.7042518 0.7090001 0.036703
vn 0.4568106 0.3823479 0.8032022
vn 0.4568106 0.3823479 0.8032022
vn 0.4568106 0.3823479 0.8032022
vn 0.4568106 0.3823479 0.8032022
vn 0.1590172 0.1975141 0.9673166
vn 0.1590173 0.1975141 0.9673166
vn 0.1590172 0.1975141 0.9673166
vn 0.1590172 0.1975141 0.9673166
vn 0.9816695 0.02132772 0.189394
vn 0.9816695 0.02132772 0.189394
vn 0.9816695 0.02132772 0.189394
vn 0.9816695 0.02132772 0.189394
vn 0.9811413 -0.03953484 0.1892056
vn 0.9811413 -0.03953484 0.1892056
vn 0.9811413 -0.03953484 0.1892056
vn 0.9811413 -0.03953484 0.1892056
vn 0.9811413 -0.03953484 0.1892056
vn 0.9810247 -0.001552106 0.1938765
vn 0.9810247 -0.001552106 0.1938765
vn 0.9724084 -0.06530933 0.2239571
vn 0.9724084 -0.06530932 0.2239571
vn 0.9724084 -0.06530932 0.2239571
vn 0.9811413 -0.03953484 0.1892056
vn 0.9811413 -0.03953484 0.1892056
vn 0.9811413 -0.03953484 0.1892056
vn -0.9750345 0.06045375 -0.2136654
vn -0.9750345 0.06045376 -0.2136654
vn -0.9750345 0.06045376 -0.2136654
vn -0.9750345 0.06045376 -0.2136654
vn -0.9788935 0.1668955 -0.1179553
vn -0.9788935 0.1668955 -0.1179553
vn -0.9788935 0.1668955 -0.1179553
vn -0.9788935 0.1668955 -0.1179553
vn -0.9691721 0.1049132 -0.2229322
vn -0.9691721 0.1049133 -0.2229322
vn -0.9691721 0.1049132 -0.2229322
vn -0.9691721 0.1049132 -0.2229322
vn 0.9893542 -0.09980257 0.1059138
vn 0.9893542 -0.09980257 0.1059138
vn 0.9893542 -0.09980257 0.1059138
vn 0.9893542 -0.09980256 0.1059138
vn -0.4428508 -0.3539966 -0.8237531
vn -0.4428508 -0.3539966 -0.8237531
vn -0.4428508 -0.3539966 -0.8237532
vn -0.4428508 -0.3539966 -0.8237531
vn -0.7199384 -0.149967 0.6776417
vn -0.7199384 -0.149967 0.6776417
vn -0.7199384 -0.149967 0.6776417
vn -0.7199384 -0.149967 0.6776417
vn -0.6821933 -0.7303724 -0.03416512
vn -0.6821933 -0.7303724 -0.03416513
vn -0.6821933 -0.7303724 -0.03416514
vn -0.6821933 -0.7303724 -0.03416513
vn 0.1548514 0.9878381 -0.01395853
vn 0.1548514 0.9878381 -0.01395853
vn 0.1548514 0.9878381 -0.01395853
vn 0.1548514 0.9878381 -0.01395854
vn -0.8694074 0.4625432 -0.1737358
vn -0.8694074 0.4625432 -0.1737358
vn -0.8694074 0.4625433 -0.1737358
vn -0.8694074 0.4625433 -0.1737358
vn -0.8810213 0.4371643 -0.1807994
vn -0.3222956 -0.263408 0.9092531
vn -0.7424445 -0.3160922 0.5906449
vn -0.5817231 -0.02113197 0.8131121
vn -0.7791758 0.1636993 0.6050515
vn -0.3205169 0.2264361 0.9197799
vn -0.2581144 -0.7965555 -0.5466946
vn 0.765983 0.5576473 -0.3198414
vn 0.7572959 0.5867721 -0.2867061
vn -0.3076035 -0.8052115 -0.5069647
vn -0.4935164 0.4258707 0.7583369
vn -0.5005845 0.4178097 0.7581884
vn 0.765983 0.5576473 -0.3198414
vn 0.7572959 0.5867721 -0.2867061
vn 0.5820004 0.05062386 -0.8116109
vn 0.5820004 0.05062386 -0.8116109
vn 0.5820004 0.05062386 -0.8116109
vn 0.5820004 0.05062386 -0.8116109

vt 0.1322021 0.1691895
vt 0.006286621 0.1691895
vt 0.006290436 0.1013184
vt 0.1322021 0.1009521
vt 0.01454926 0.1994629
vt 0.006286621 0.1691895
vt 0.02377319 0.1994629
vt 0.1499023 0.2614746
vt 0.1536865 0.1932373
vt 0.1690674 0.1938477
vt 0.1695557 0.2631836
vt 0.1646729 0.2880859
vt 0.1499023 0.2614746
vt 0.1695557 0.2631836
vt 0.1722412 0.2875977
vt 0.3017578 0.192627
vt 0.3061523 0.2602539
vt 0.2866211 0.2624512
vt 0.2861328 0.1934814
vt 0.1646729 0.1789551
vt 0.2910156 0.1785889
vt 0.2861328 0.1934814
vt 0.1690674 0.1938477
vt 0.177002 0.3427734
vt 0.1646729 0.2880859
vt 0.1722412 0.2875977
vt 0.1820068 0.3388672
vt 0.2514648 0.3425293
vt 0.1816406 0.3439941
vt 0.1848145 0.3383789
vt 0.2493896 0.3369141
vt 0.2912598 0.2875977
vt 0.2731934 0.3474121
vt 0.2680664 0.3439941
vt 0.2836914 0.2878418
vt 0.3061523 0.2602539
vt 0.2912598 0.2875977
vt 0.2836914 0.2878418
vt 0.2866211 0.2624512
vt 0.1690674 0.1938477
vt 0.2861328 0.1934814
vt 0.2866211 0.2624512
vt 0.1695557 0.2631836
vt 0.1739502 0.2873535
vt 0.1695557 0.2631836
vt 0.2866211 0.2624512
vt 0.2790527 0.2866211
vt 0.1802979 0.2873535
vt 0.1848145 0.3383789
vt 0.1888428 0.333252
vt 0.2493896 0.3369141
vt 0.24646 0.3317871
vt 0.2697754 0.2868652
vt 0.2790527 0.2866211
vt 0.2697754 0.2868652
vt 0.1802979 0.2873535
vt 0.1276855 0.1994629
vt 0.1160278 0.2543945
vt 0.1118774 0.2492676
vt 0.1212769 0.1994629
vt 0.1160278 0.2543945
vt 0.04614258 0.253418
vt 0.04904175 0.2481689
vt 0.1118774 0.2492676
vt 0.04614258 0.253418
vt 0.01454926 0.1994629
vt 0.02377319 0.1994629
vt 0.04904175 0.2481689
vt 0.2493896 0.3369141
vt 0.1848145 0.3383789
vt 0.1888428 0.333252
vt 0.24646 0.3317871
vt 0.05609131 0.2449951
vt 0.03411865 0.2049561
vt 0.03878784 0.2069092
vt 0.05859375 0.2407227
vt 0.1137695 0.2049561
vt 0.1074829 0.2469482
vt 0.104126 0.2431641
vt 0.1090698 0.2076416
vt 0.1074829 0.2469482
vt 0.05609131 0.2449951
vt 0.05859375 0.2407227
vt 0.104126 0.2431641
vt 0.1090698 0.2076416
vt 0.03878784 0.2069092
vt 0.03411865 0.2049561
vt 0.1137695 0.2049561
vt 0.006286621 0.1691895
vt 0.1322021 0.1691895
vt 0.1212769 0.1994629
vt 0.02377319 0.1994629
vt 0.1276855 0.1994629
vt 0.07647705 0.001289368
vt 0.04473877 0.001289368
vt 0.06060791 0.01182556
vt 0.04473877 0.02235413
vt 0.07647705 0.02235413
vt 0.08239746 0.03106689
vt 0.08288574 0.02360535
vt 0.1083374 0.02719116
vt 0.1080322 0.03198242
vt 0.08239746 0.0385437
vt 0.1080322 0.0368042
vt 0.08288574 0.04360962
vt 0.1083374 0.0401001
vt 0.128418 0.001502037
vt 0.128418 0.02171326
vt 0.1000366 0.02171326
vt 0.1000366 0.001502037

g door_frontR_10179_35
usemtl door_frontR_10179_35
usemap door_frontR_10179_35
f 1/1/1 3/3/3 2/2/2
f 1/1/1 4/4/4 3/3/3
f 5/5/5 7/7/7 6/6/6
f 8/8/8 10/10/10 9/9/9
f 8/8/8 11/11/11 10/10/10
f 12/12/12 14/14/14 13/13/13
f 12/12/12 15/15/15 14/14/14
f 16/16/16 18/18/18 17/17/17
f 16/16/16 19/19/19 18/18/18
f 20/20/20 22/22/22 21/21/21
f 20/20/20 23/23/23 22/22/22
f 24/24/24 26/26/26 25/25/25
f 24/24/24 27/27/27 26/26/26
f 28/28/28 30/30/30 29/29/29
f 28/28/28 31/31/31 30/30/30
f 32/32/32 34/34/34 33/33/33
f 32/32/32 35/35/35 34/34/34
f 36/36/36 38/38/38 37/37/37
f 36/36/36 39/39/39 38/38/38
f 40/40/40 42/42/42 41/41/41
f 40/40/40 43/43/43 42/42/42
f 44/44/44 46/46/46 45/45/45
f 46/46/46 44/44/44 47/47/47
f 47/47/47 44/44/44 48/48/48
f 49/49/49 48/48/48 44/44/44
f 49/49/49 50/50/50 48/48/48
f 47/47/47 52/52/52 51/51/51
f 47/47/47 53/53/53 52/52/52
f 54/54/54 56/56/56 55/55/55
f 57/57/57 59/59/59 58/58/58
f 57/57/57 60/60/60 59/59/59
f 61/61/61 63/63/63 62/62/62
f 61/61/61 64/64/64 63/63/63
f 65/65/65 67/67/67 66/66/66
f 65/65/65 68/68/68 67/67/67
f 69/69/69 71/71/71 70/70/70
f 69/69/69 72/72/72 71/71/71
f 73/73/73 75/75/75 74/74/74
f 73/73/73 76/76/76 75/75/75
f 77/77/77 79/79/79 78/78/78
f 77/77/77 80/80/80 79/79/79
f 81/81/81 83/83/83 82/82/82
f 81/81/81 84/84/84 83/83/83
f 85/85/85 87/87/87 86/86/86
f 85/85/85 88/88/88 87/87/87
f 89/89/89 91/91/91 90/90/90
f 89/89/89 92/92/92 91/91/91
f 90/90/90 91/91/91 93/93/93
f 94/94/94 96/96/96 95/95/95
f 95/95/95 96/96/96 97/97/97
f 97/97/97 96/96/96 98/98/98
f 98/98/98 96/96/96 94/94/94
f 99/99/99 101/101/101 100/100/100
f 99/99/99 102/102/102 101/101/101
f 103/103/103 102/102/102 99/99/99
f 103/103/103 104/104/104 102/102/102
f 105/105/105 104/104/104 103/103/103
f 105/105/105 106/106/106 104/104/104
f 107/107/107 109/109/109 108/108/108
f 107/107/107 110/110/110 109/109/109
