#door03_9230_268.obj

v -0.07503223 -3.084454E-07 -2.182384E-05
v 0.02496462 -9.50599E-07 0.9999788
v 0.02496435 -3.126111E-07 -2.06556E-05
v -0.07503196 -9.464332E-07 0.9999776
v -0.07503296 1.999999 0.999981
v 0.02496783 2 -1.963471E-05
v 0.0249681 1.999999 0.9999799
v -0.07503214 2 -2.188479E-05
v -0.07503214 2 -2.188479E-05
v 0.02496435 -3.126111E-07 -2.06556E-05
v 0.02496783 2 -1.963471E-05
v -0.07503223 -3.084454E-07 -2.182384E-05
v 0.0249681 1.999999 0.9999799
v -0.07503196 -9.464332E-07 0.9999776
v -0.07503296 1.999999 0.999981
v 0.02496462 -9.50599E-07 0.9999788
v 0.02496462 -9.50599E-07 0.9999788
v 0.02496783 2 -1.963471E-05
v 0.02496435 -3.126111E-07 -2.06556E-05
v 0.0249681 1.999999 0.9999799
v -0.07503296 1.999999 0.999981
v -0.07503223 -3.084454E-07 -2.182384E-05
v -0.07503214 2 -2.188479E-05
v -0.07503196 -9.464332E-07 0.9999776
v -0.1250352 1.104778 0.9228862
v -0.1103902 1.129778 0.8978833
v -0.1103902 1.140133 0.9228845
v -0.1103895 1.104778 0.8875306
v -0.1103902 1.079778 0.8978833
v -0.1103902 1.069422 0.9228845
v -0.1103902 1.079778 0.9478856
v -0.1103874 1.104778 0.9582393
v -0.1103902 1.129778 0.9478856
v -0.07503465 1.140133 0.8875279
v -0.07503298 1.154778 0.9228862
v -0.07503302 1.104778 0.8728839
v -0.07503466 1.069422 0.8875279
v -0.07503299 1.054778 0.9228862
v -0.07503363 1.069422 0.95824
v -0.07503186 1.104778 0.972885
v -0.07503363 1.140133 0.95824
v 0.0749669 1.104778 0.9228839
v 0.06032189 1.129778 0.9478868
v 0.06032187 1.140133 0.9228857
v 0.06032122 1.104778 0.9582395
v 0.06032297 1.079778 0.9478834
v 0.06032187 1.069422 0.9228857
v 0.06032185 1.079778 0.8978845
v 0.0603236 1.104778 0.8875285
v 0.06032185 1.129778 0.8978845
v 0.02496634 1.140133 0.9582422
v 0.02496807 1.154778 0.922885
v 0.02496472 1.104778 0.9728861
v 0.02496742 1.069422 0.9582388
v 0.02496807 1.054778 0.922885
v 0.02496532 1.069422 0.8875301
v 0.02496695 1.104778 0.8728862
v 0.02496532 1.140133 0.8875301

vn 5.732433E-07 -0.9999988 -1.825588E-07
vn 5.732433E-07 -0.9999988 -1.825588E-07
vn 5.732433E-07 -0.9999988 -1.825588E-07
vn 5.732433E-07 -0.9999988 -1.825588E-07
vn -6.232221E-07 0.9999988 1.984753E-07
vn -6.232221E-07 0.9999988 1.984753E-07
vn -6.232221E-07 0.9999988 1.984753E-07
vn -6.232221E-07 0.9999988 1.984753E-07
vn 0.9528474 5.205479E-07 -0.3034498
vn 0.9528474 5.205479E-07 -0.3034498
vn 0.9528474 5.205479E-07 -0.3034498
vn 0.9528474 5.205479E-07 -0.3034498
vn -0.9528474 -5.968418E-07 0.3034498
vn -0.9528474 -5.968418E-07 0.3034498
vn -0.9528474 -5.968418E-07 0.3034498
vn -0.9528474 -5.968418E-07 0.3034498
vn 0.3034501 -1.71323E-14 0.9528474
vn 0.3034501 -1.71323E-14 0.9528474
vn 0.3034501 -1.71323E-14 0.9528474
vn 0.3034501 -1.71323E-14 0.9528474
vn -0.3034501 1.71323E-14 -0.9528474
vn -0.3034501 1.71323E-14 -0.9528474
vn -0.3034501 1.71323E-14 -0.9528474
vn -0.3034501 1.71323E-14 -0.9528474
vn -0.3034501 1.71323E-14 -0.9528474
vn 0.3032023 0.5293511 -0.7923729
vn -0.2011884 0.7486147 -0.631742
vn 0.5121279 8.72538E-07 -0.858909
vn 0.3032033 -0.5293497 -0.7923735
vn -0.2011883 -0.7486153 -0.6317413
vn -0.7055791 -0.5293514 -0.47111
vn -0.9145054 -1.085369E-06 -0.4045743
vn -0.7055795 0.5293509 -0.4711101
vn 0.5063524 0.6532805 -0.5628771
vn -0.1161247 0.9238783 -0.3646397
vn 0.7641908 1.02649E-06 -0.64499
vn 0.5063521 -0.6532802 -0.5628778
vn -0.1161254 -0.9238787 -0.3646384
vn -0.7386025 -0.6532812 -0.1664
vn -0.9964415 -9.592566E-07 -0.08428782
vn -0.738603 0.6532807 -0.1664001
vn 0.3034495 -4.608318E-14 0.9528475
vn -0.303202 0.5293506 0.7923734
vn 0.2011882 0.7486145 0.6317422
vn -0.5121282 -1.19466E-06 0.8589089
vn -0.3032024 -0.5293514 0.7923728
vn 0.2011881 -0.748615 0.6317417
vn 0.7055806 -0.5293493 0.4711102
vn 0.914505 5.676738E-07 0.404575
vn 0.705579 0.5293508 0.4711109
vn -0.5063516 0.6532809 0.5628774
vn 0.1161263 0.9238783 0.3646391
vn -0.7641908 -1.16096E-06 0.64499
vn -0.5063523 -0.6532812 0.5628763
vn 0.1161242 -0.9238788 0.3646384
vn 0.7386034 -0.6532802 0.1664007
vn 0.9964415 2.869103E-07 0.08428761
vn 0.7386036 0.6532798 0.1664008

vt 0.3242188 0.5131836
vt 0.4345703 0.5024414
vt 0.3242188 0.5024414
vt 0.4345703 0.5131836
vt 0.4345703 0.7338867
vt 0.3242188 0.7446289
vt 0.4345703 0.7446289
vt 0.3242188 0.7338867
vt 0.3242188 0.7338867
vt 0.3134766 0.5131836
vt 0.3134766 0.7338867
vt 0.3242188 0.5131836
vt 0.4458008 0.7338867
vt 0.4345703 0.5131836
vt 0.4345703 0.7338867
vt 0.4458008 0.5131836
vt 0.4345703 0.5131836
vt 0.3242188 0.7338867
vt 0.3242188 0.5131836
vt 0.4345703 0.7338867
vt 0.4345703 0.7338867
vt 0.3242188 0.5131836
vt 0.3242188 0.7338867
vt 0.4345703 0.5131836
vt 0.4433594 0.7421875
vt 0.4414063 0.7441406
vt 0.4433594 0.7446289
vt 0.440918 0.7421875
vt 0.4414063 0.7407227
vt 0.4433594 0.7402344
vt 0.4448242 0.7407227
vt 0.4453125 0.7421875
vt 0.4448242 0.7441406
vt 0.4399414 0.7456055
vt 0.4433594 0.7470703
vt 0.4384766 0.7421875
vt 0.4399414 0.7387695
vt 0.4433594 0.737793
vt 0.4467773 0.7387695
vt 0.4477539 0.7421875
vt 0.4467773 0.7456055
vt 0.4433594 0.7421875
vt 0.4414063 0.7441406
vt 0.4433594 0.7446289
vt 0.440918 0.7421875
vt 0.4414063 0.7407227
vt 0.4433594 0.7402344
vt 0.4448242 0.7407227
vt 0.4453125 0.7421875
vt 0.4448242 0.7441406
vt 0.4399414 0.7456055
vt 0.4433594 0.7470703
vt 0.4384766 0.7421875
vt 0.4399414 0.7387695
vt 0.4433594 0.737793
vt 0.4467773 0.7387695
vt 0.4477539 0.7421875
vt 0.4467773 0.7456055

g door03_9230_268
usemtl door03_9230_268
usemap door03_9230_268
f 1/1/1 3/3/3 2/2/2
f 2/2/2 4/4/4 1/1/1
f 5/5/5 7/7/7 6/6/6
f 6/6/6 8/8/8 5/5/5
f 9/9/9 11/11/11 10/10/10
f 10/10/10 12/12/12 9/9/9
f 13/13/13 15/15/15 14/14/14
f 14/14/14 16/16/16 13/13/13
f 17/17/17 19/19/19 18/18/18
f 18/18/18 20/20/20 17/17/17
f 21/21/21 23/23/23 22/22/22
f 22/22/22 24/24/24 21/21/21
f 25/25/25 27/27/27 26/26/26
f 25/25/25 26/26/26 28/28/28
f 25/25/25 28/28/28 29/29/29
f 25/25/25 29/29/29 30/30/30
f 25/25/25 30/30/30 31/31/31
f 25/25/25 31/31/31 32/32/32
f 25/25/25 32/32/32 33/33/33
f 25/25/25 33/33/33 27/27/27
f 34/34/34 26/26/26 27/27/27
f 27/27/27 35/35/35 34/34/34
f 35/35/35 27/27/27 33/33/33
f 36/36/36 28/28/28 26/26/26
f 26/26/26 34/34/34 36/36/36
f 37/37/37 29/29/29 28/28/28
f 28/28/28 36/36/36 37/37/37
f 38/38/38 30/30/30 29/29/29
f 29/29/29 37/37/37 38/38/38
f 39/39/39 31/31/31 30/30/30
f 30/30/30 38/38/38 39/39/39
f 40/40/40 32/32/32 31/31/31
f 31/31/31 39/39/39 40/40/40
f 41/41/41 33/33/33 32/32/32
f 32/32/32 40/40/40 41/41/41
f 33/33/33 41/41/41 35/35/35
f 42/42/42 44/44/44 43/43/43
f 42/42/42 43/43/43 45/45/45
f 42/42/42 45/45/45 46/46/46
f 42/42/42 46/46/46 47/47/47
f 42/42/42 47/47/47 48/48/48
f 42/42/42 48/48/48 49/49/49
f 42/42/42 49/49/49 50/50/50
f 42/42/42 50/50/50 44/44/44
f 51/51/51 43/43/43 44/44/44
f 44/44/44 52/52/52 51/51/51
f 52/52/52 44/44/44 50/50/50
f 53/53/53 45/45/45 43/43/43
f 43/43/43 51/51/51 53/53/53
f 54/54/54 46/46/46 45/45/45
f 45/45/45 53/53/53 54/54/54
f 55/55/55 47/47/47 46/46/46
f 46/46/46 54/54/54 55/55/55
f 56/56/56 48/48/48 47/47/47
f 47/47/47 55/55/55 56/56/56
f 57/57/57 49/49/49 48/48/48
f 48/48/48 56/56/56 57/57/57
f 58/58/58 50/50/50 49/49/49
f 49/49/49 57/57/57 58/58/58
f 50/50/50 58/58/58 52/52/52
