#door04_10278_246.obj

v -0.24997 2.149999 0.600038
v 0.05002984 2.15 -0.599962
v 0.05002907 2.149999 0.6000381
v -0.2499728 2.15 -0.5999622
v -0.24997 0.0499993 0.600038
v 0.05002907 2.149999 0.6000381
v 0.05002907 0.0499993 0.6000381
v -0.24997 2.149999 0.600038
v 0.05002984 0.04999974 -0.599962
v -0.2499728 2.15 -0.5999622
v -0.2499728 0.04999997 -0.5999622
v 0.05002984 2.15 -0.599962
v 0.05002978 2.05 -0.4999599
v -0.2499729 0.04999974 -0.4999636
v -0.2499729 2.05 -0.4999601
v 0.05002978 0.04999974 -0.4999635
v -0.2499729 2.05 -0.4999601
v 0.05002914 2.049999 0.5000396
v 0.05002978 2.05 -0.4999599
v -0.24997 2.049999 0.5000395
v -0.24997 2.049999 0.5000395
v 0.05002914 0.0499993 0.5000361
v 0.05002914 2.049999 0.5000396
v -0.24997 0.0499993 0.5000395
v -0.2499729 2.05 -0.4999601
v -0.2499728 0.04999997 -0.5999622
v -0.2499728 2.15 -0.5999622
v -0.2499729 0.04999974 -0.4999636
v 0.05002984 0.04999974 -0.599962
v 0.05002978 2.05 -0.4999599
v 0.05002984 2.15 -0.599962
v 0.05002978 0.04999974 -0.4999635
v -0.24997 2.049999 0.5000395
v -0.24997 0.0499993 0.600038
v -0.24997 0.0499993 0.5000395
v -0.24997 2.149999 0.600038
v 0.05002907 0.0499993 0.6000381
v 0.05002914 2.049999 0.5000396
v 0.05002914 0.0499993 0.5000361
v 0.05002907 2.149999 0.6000381
v 0.05002907 2.149999 0.6000381
v 0.05002978 2.05 -0.4999599
v 0.05002914 2.049999 0.5000396
v 0.05002984 2.15 -0.599962
v -0.2499729 2.05 -0.4999601
v -0.24997 2.149999 0.600038
v -0.24997 2.049999 0.5000395
v -0.2499728 2.15 -0.5999622
v -0.2499593 0.0549994 0.5000395
v 0.05004047 0.05500074 -0.4999599
v 0.05003983 0.0549994 0.5000396
v -0.2499586 0.05500074 -0.49996
v 0.05003983 0.0549994 0.5000396
v 0.05004047 6.87749E-07 -0.4999599
v 0.05003983 -6.491778E-07 0.5000396
v 0.05004047 0.05500074 -0.4999599
v -0.2499586 6.87749E-07 -0.49996
v -0.2499593 0.0549994 0.5000395
v -0.2499593 -6.491778E-07 0.5000395
v -0.2499586 0.05500074 -0.49996

vn 4.414247E-08 0.999999 6.357533E-07
vn 4.414247E-08 0.999999 6.357533E-07
vn 4.414247E-08 0.999999 6.357532E-07
vn 4.414247E-08 0.999999 6.357532E-07
vn 0.000678044 -5.26791E-07 0.9999998
vn 0.000678044 -5.26791E-07 0.9999998
vn 0.000678044 -5.26791E-07 0.9999998
vn 0.000678044 -5.26791E-07 0.9999998
vn -0.000678044 4.541301E-07 -0.9999998
vn -0.000678044 4.541301E-07 -0.9999998
vn -0.000678044 4.541301E-07 -0.9999998
vn -0.000678044 4.541301E-07 -0.9999998
vn 0.000678044 -4.768366E-07 0.9999998
vn 0.000678044 -4.768366E-07 0.9999998
vn 0.000678044 -4.768366E-07 0.9999998
vn 0.000678044 -4.768366E-07 0.9999998
vn -4.412523E-08 -0.999999 -6.103219E-07
vn -4.412523E-08 -0.999999 -6.103219E-07
vn -4.412523E-08 -0.999999 -6.103219E-07
vn -4.412523E-08 -0.999999 -6.103219E-07
vn -0.000678044 5.531305E-07 -0.9999998
vn -0.000678044 5.531305E-07 -0.9999998
vn -0.000678044 5.531305E-07 -0.9999998
vn -0.000678044 5.531305E-07 -0.9999998
vn -0.9999998 4.371135E-08 0.0006777933
vn -0.9999998 4.371135E-08 0.0006777933
vn -0.9999998 4.371135E-08 0.0006777933
vn -0.9999998 4.371135E-08 0.0006777933
vn 0.9999998 -4.371135E-08 -0.0006777933
vn 0.9999998 -4.371135E-08 -0.0006777933
vn 0.9999998 -4.371135E-08 -0.0006777933
vn 0.9999998 -4.371135E-08 -0.0006777933
vn -0.9999998 4.371135E-08 0.0006777933
vn -0.9999998 4.371135E-08 0.0006777933
vn -0.9999998 4.371135E-08 0.0006777933
vn -0.9999998 4.371135E-08 0.0006777933
vn 0.9999998 -4.371135E-08 -0.0006777933
vn 0.9999998 -4.371135E-08 -0.0006777933
vn 0.9999998 -4.371135E-08 -0.0006777933
vn 0.9999998 -4.371135E-08 -0.0006777933
vn 0.9999998 -4.371135E-08 -0.0006777933
vn 0.9999998 -4.371135E-08 -0.0006777933
vn 0.9999998 -4.371135E-08 -0.0006777933
vn 0.9999998 -4.371135E-08 -0.0006777933
vn -0.9999998 4.371135E-08 0.0006777933
vn -0.9999998 4.371135E-08 0.0006777933
vn -0.9999998 4.371135E-08 0.0006777933
vn -0.9999998 4.371135E-08 0.0006777933
vn 4.463607E-08 0.999999 1.363725E-06
vn 4.463607E-08 0.999999 1.363725E-06
vn 4.463607E-08 0.999999 1.363725E-06
vn 4.463607E-08 0.999999 1.363725E-06
vn 0.9999998 -4.371135E-08 -0.0006777933
vn 0.9999998 -4.371135E-08 -0.0006777933
vn 0.9999998 -4.371135E-08 -0.0006777933
vn 0.9999998 -4.371135E-08 -0.0006777933
vn -0.9999998 4.371135E-08 0.0006777933
vn -0.9999998 4.371135E-08 0.0006777933
vn -0.9999998 4.371135E-08 0.0006777933
vn -0.9999998 4.371135E-08 0.0006777933

vt 0.4916992 0.7382813
vt 0.4589844 0.605957
vt 0.4589844 0.7382813
vt 0.4916992 0.605957
vt 0.4589844 0.5097656
vt 0.4916992 0.7412109
vt 0.4916992 0.5097656
vt 0.4589844 0.7412109
vt 0.4916992 0.5097656
vt 0.4589844 0.7412109
vt 0.4589844 0.5097656
vt 0.4916992 0.7412109
vt 0.4589844 0.7280273
vt 0.4916992 0.5078125
vt 0.4916992 0.7280273
vt 0.4589844 0.5078125
vt 0.4589844 0.6176758
vt 0.4916992 0.7280273
vt 0.4916992 0.6176758
vt 0.4589844 0.7280273
vt 0.4916992 0.7280273
vt 0.4589844 0.5078125
vt 0.4589844 0.7280273
vt 0.4916992 0.5078125
vt 0.4916992 0.7280273
vt 0.5029297 0.5078125
vt 0.5029297 0.7387695
vt 0.4916992 0.5078125
vt 0.4916992 0.5097656
vt 0.5029297 0.7299805
vt 0.4916992 0.7412109
vt 0.5029297 0.5097656
vt 0.4916992 0.7280273
vt 0.5029297 0.5078125
vt 0.4916992 0.5078125
vt 0.5029297 0.7387695
vt 0.4916992 0.5097656
vt 0.5029297 0.7299805
vt 0.5029297 0.5097656
vt 0.4916992 0.7412109
vt 0.5029297 0.7387695
vt 0.4916992 0.6176758
vt 0.4916992 0.7280273
vt 0.5029297 0.6069336
vt 0.5029297 0.6171875
vt 0.4916992 0.7382813
vt 0.5029297 0.7270508
vt 0.4916992 0.605957
vt 0.4921875 0.6347656
vt 0.4606934 0.5078125
vt 0.4606934 0.6347656
vt 0.4921875 0.5078125
vt 0.5063477 0.6347656
vt 0.4921875 0.5078125
vt 0.4921875 0.6347656
vt 0.5063477 0.5078125
vt 0.5063477 0.5078125
vt 0.4921875 0.6347656
vt 0.5063477 0.6347656
vt 0.4921875 0.5078125

g door04_10278_246
usemtl door04_10278_246
usemap door04_10278_246
f 1/1/1 3/3/3 2/2/2
f 2/2/2 4/4/4 1/1/1
f 5/5/5 7/7/7 6/6/6
f 6/6/6 8/8/8 5/5/5
f 9/9/9 11/11/11 10/10/10
f 10/10/10 12/12/12 9/9/9
f 13/13/13 15/15/15 14/14/14
f 14/14/14 16/16/16 13/13/13
f 17/17/17 19/19/19 18/18/18
f 18/18/18 20/20/20 17/17/17
f 21/21/21 23/23/23 22/22/22
f 22/22/22 24/24/24 21/21/21
f 25/25/25 27/27/27 26/26/26
f 26/26/26 28/28/28 25/25/25
f 29/29/29 31/31/31 30/30/30
f 30/30/30 32/32/32 29/29/29
f 33/33/33 35/35/35 34/34/34
f 34/34/34 36/36/36 33/33/33
f 37/37/37 39/39/39 38/38/38
f 38/38/38 40/40/40 37/37/37
f 41/41/41 43/43/43 42/42/42
f 42/42/42 44/44/44 41/41/41
f 45/45/45 47/47/47 46/46/46
f 46/46/46 48/48/48 45/45/45
f 49/49/49 51/51/51 50/50/50
f 50/50/50 52/52/52 49/49/49
f 53/53/53 55/55/55 54/54/54
f 54/54/54 56/56/56 53/53/53
f 57/57/57 59/59/59 58/58/58
f 58/58/58 60/60/60 57/57/57
