#door_frontR_9675_399.obj

v -0.01869837 0.007192896 -0.1699292
v 0.04108456 0.1193746 -0.1674603
v 0.05629078 0.1103271 -0.02813567
v -0.0006474902 0.008248397 0.0003106511
v -0.01795541 -0.235963 -0.1486942
v -0.0009587253 -0.2346912 0.000309512
v 0.2961448 0.4265691 -0.6394653
v 0.2572981 0.3930843 -0.6585194
v 0.2792836 0.4781516 -1.255238
v 0.2618168 0.4364663 -1.174721
v 0.009452976 0.139478 -1.146323
v 0.009062736 0.1378997 -1.069756
v -0.04623494 0.01707333 -1.02441
v -0.0460271 0.02120952 -1.112986
v 0.009408947 -0.536128 -0.02818876
v -0.005750841 -0.5361284 -0.1513032
v -0.03941659 -0.5361513 -1.062755
v -0.04852551 -0.244289 -1.024793
v -0.04767104 -0.2430373 -1.115252
v -0.03940383 -0.5361526 -1.131343
v 0.1072582 0.09578183 -0.02873979
v 0.09207491 0.1046456 -0.1685998
v 0.09180967 -7.709941E-05 -0.1701706
v 0.1112228 0.0009461579 0.0006990213
v 0.0938651 -0.2352684 -0.1487433
v 0.1153274 -0.2339737 0.0005100577
v 0.3390597 0.411887 -0.6411177
v 0.3002145 0.3791574 -0.6603404
v 0.3242441 0.4643206 -1.25771
v 0.3072958 0.4245075 -1.176525
v 0.05685481 0.1251127 -1.148209
v 0.05706035 0.1247033 -1.07153
v 0.05959588 0.0102776 -1.027856
v 0.05988614 0.01370933 -1.116964
v 0.1075406 -0.536128 -0.0281076
v 0.09251231 -0.5361284 -0.1513892
v 0.05848398 -0.5361513 -1.065457
v 0.06070795 -0.2436201 -1.027873
v 0.06132805 -0.2423434 -1.118604
v 0.05862466 -0.5361526 -1.134132
v -0.0006474902 0.008248397 0.0003106511
v 0.05629078 0.1103271 -0.02813567
v 0.1072582 0.09578183 -0.02873979
v 0.1112228 0.0009461579 0.0006990213
v -0.0009587253 -0.2346912 0.000309512
v 0.1153274 -0.2339737 0.0005100577
v 0.3390597 0.411887 -0.6411177
v 0.2961448 0.4265691 -0.6394653
v 0.009408947 -0.536128 -0.02818876
v 0.1075406 -0.536128 -0.0281076
v 0.2572981 0.3930843 -0.6585194
v 0.04108456 0.1193746 -0.1674603
v 0.09207491 0.1046456 -0.1685998
v 0.2572981 0.3930843 -0.6585194
v 0.3002145 0.3791574 -0.6603404
v 0.2618168 0.4364663 -1.174721
v 0.3002145 0.3791574 -0.6603404
v 0.3072958 0.4245075 -1.176525
v 0.009062736 0.1378997 -1.069756
v 0.2618168 0.4364663 -1.174721
v 0.3072958 0.4245075 -1.176525
v 0.009062736 0.1378997 -1.069756
v 0.3072958 0.4245075 -1.176525
v 0.05706035 0.1247033 -1.07153
v 0.2792836 0.4781516 -1.255238
v 0.009452976 0.139478 -1.146323
v 0.05685481 0.1251127 -1.148209
v 0.3242441 0.4643206 -1.25771
v 0.05988614 0.01370933 -1.116964
v -0.0460271 0.02120952 -1.112986
v 0.06132805 -0.2423434 -1.118604
v -0.04767104 -0.2430373 -1.115252
v 0.05862466 -0.5361526 -1.134132
v -0.03940383 -0.5361526 -1.131343
v 0.2961448 0.4265691 -0.6394653
v 0.2792836 0.4781516 -1.255238
v 0.3242441 0.4643206 -1.25771
v 0.3390597 0.411887 -0.6411177
v 0.04108456 0.1193746 -0.1674603
v 0.009062736 0.1378997 -1.069756
v 0.05706035 0.1247033 -1.07153
v 0.09207491 0.1046456 -0.1685998
v -0.03941659 -0.5361513 -1.062755
v -0.005750841 -0.5361284 -0.1513032
v 0.09251231 -0.5361284 -0.1513892
v 0.05848398 -0.5361513 -1.065457
v 0.1075406 -0.536128 -0.0281076
v 0.009408947 -0.536128 -0.02818876
v -0.03940383 -0.5361526 -1.131343
v 0.05862466 -0.5361526 -1.134132
v -0.002457181 0.1664288 -0.267376
v -0.01217463 0.2121218 -0.2673389
v 0.02071062 0.1932553 -0.2674577
v -0.01065072 0.2451963 -0.3231778
v 0.06185395 0.1994103 -0.3235106
v -0.143597 0.2140825 -0.3222048
v -0.06204138 0.1979185 -0.267115
v -0.1272137 0.1347288 -0.3223509
v -0.05583264 0.168281 -0.267146
v 0.01333073 0.1327456 -0.3233042
v 0.07834861 0.160344 -0.2378508
v 0.0570018 0.1176808 -0.2369736
v 0.09062259 0.1960279 -0.3297317
v 0.03439592 0.1262144 -0.319286
v 0.01333073 0.1327456 -0.3233042
v 0.06185395 0.1994103 -0.3235106
v -0.01065072 0.2451963 -0.3231778
v -0.1272137 0.1347288 -0.3223509
v -0.143597 0.2140825 -0.3222048
v 0.03439592 0.1262144 -0.319286
v 0.09062259 0.1960279 -0.3297317
v 0.07199635 0.1046473 -0.1685864
v 0.1440363 0.2147862 -0.3442817
v 0.05678324 0.1086169 -0.3429746
v 0.1440363 0.2147862 -0.3442817
v 0.1158265 0.2279633 -0.3427834
v 0.02584878 0.1230431 -0.3420523
v 0.05678324 0.1086169 -0.3429746
v 0.1158265 0.2279633 -0.3427834
v 0.04108456 0.1193746 -0.1674603
v 0.02584878 0.1230431 -0.3420523

vn -0.7825983 0.2397733 0.5744983
vn -0.6283169 0.5940404 0.5023274
vn -0.6425521 0.5526237 0.5307855
vn -0.7591535 0.2379421 0.6058623
vn -0.8053222 -0.01836554 0.5925528
vn -0.7821643 -0.01888753 0.6227858
vn -0.5644222 0.6861003 0.459013
vn -0.5676152 0.6832869 0.4592721
vn -0.6019173 0.6431004 0.4734094
vn -0.6083643 0.6393344 0.4702587
vn -0.667872 0.561563 0.4884602
vn -0.7107446 0.4998016 0.4950152
vn -0.8147255 0.2251162 0.5343639
vn -0.8207405 0.2412549 0.5178619
vn -0.7788237 -0.04329409 0.6257468
vn -0.8039036 -0.04088265 0.5933527
vn -0.8400796 -0.03341946 0.5414326
vn -0.839417 -0.01424187 0.5433012
vn -0.8507381 -0.01103321 0.525474
vn -0.8504263 -0.02916216 0.5252852
vn 0.7642754 -0.1790394 -0.6195383
vn 0.7338472 -0.3526965 -0.5805801
vn 0.8044946 0.004504139 -0.5939428
vn 0.7783197 0.005351661 -0.6278452
vn 0.7995479 0.0001373495 -0.6006021
vn 0.7719058 -0.0001512499 -0.6357368
vn 0.561496 -0.6879343 -0.4598559
vn 0.5650725 -0.6850579 -0.4597691
vn 0.6059589 -0.6428823 -0.4685246
vn 0.6094556 -0.6421453 -0.4649865
vn 0.7514533 -0.3915369 -0.5310521
vn 0.8128594 -0.1881178 -0.5512451
vn 0.8371845 0.008059341 -0.5468612
vn 0.8492214 0.0159943 -0.5277945
vn 0.7698995 -0.00814952 -0.6381131
vn 0.7996966 -0.005811826 -0.6003759
vn 0.8399006 -0.00637773 -0.5427029
vn 0.8385591 -0.0005585657 -0.5448103
vn 0.8503894 -0.001985739 -0.52615
vn 0.8502315 -0.008829758 -0.5263348
vn 0.5392563 0.1183272 0.8337873
vn 0.5626206 0.5415194 0.6246713
vn 0.5610139 0.5739328 0.5965433
vn 0.5398853 0.1291492 0.8317718
vn 0.5282404 -0.04705885 0.8477899
vn 0.5282404 -0.04705493 0.84779
vn 0.4068245 0.9091661 0.08893383
vn 0.4187686 0.9010102 0.11319
vn 0.5271549 -0.09421386 0.8445302
vn 0.5271549 -0.09421387 0.8445302
vn -0.4210984 -0.8949691 -0.147326
vn -0.5130827 -0.7916135 -0.3318028
vn -0.5130827 -0.7916135 -0.3318028
vn -0.4210984 -0.8949691 -0.147326
vn -0.4020619 -0.9085991 -0.1131023
vn -0.2853499 -0.9552506 0.07791111
vn -0.4020619 -0.9085991 -0.1131023
vn -0.2853498 -0.9552506 0.07791109
vn 0.5988131 0.2501918 0.7608067
vn 0.5988131 0.2501918 0.7608067
vn 0.5988131 0.2501918 0.7608067
vn 0.5988131 0.2501918 0.7608067
vn 0.5988131 0.2501918 0.7608067
vn 0.5988131 0.2501918 0.7608067
vn -0.6098193 -0.2220728 -0.7607918
vn -0.588554 -0.2412525 -0.7716226
vn -0.5921872 -0.2380265 -0.7698427
vn -0.6098193 -0.2220728 -0.7607918
vn -0.5708227 -0.1178067 -0.812578
vn -0.5703285 -0.1099007 -0.8140315
vn -0.5568328 0.03040323 -0.830068
vn -0.5568308 0.03042682 -0.8300685
vn -0.5546182 0.05348759 -0.830384
vn -0.5546182 0.0534876 -0.830384
vn 0.4187686 0.9010102 0.11319
vn 0.3017457 0.9477159 -0.1038382
vn 0.3017457 0.9477159 -0.1038382
vn 0.4068245 0.9091661 0.08893383
vn 0.2359631 0.9623019 -0.135258
vn 0.2359631 0.9623019 -0.135258
vn 0.2359631 0.9623019 -0.135258
vn 0.2359631 0.9623019 -0.135258
vn 1.137304E-05 -0.999999 1.822196E-05
vn 7.335104E-06 -0.999999 1.196913E-05
vn 6.699875E-06 -0.999999 1.096937E-05
vn 1.134841E-05 -0.999999 1.818259E-05
vn 6.682646E-07 -0.999999 1.476412E-06
vn 6.682646E-07 -0.999999 1.476412E-06
vn 9.442861E-06 -0.999999 1.493074E-05
vn 9.442861E-06 -0.999999 1.493074E-05
vn 0.2559576 -0.4164663 0.8723768
vn 0.5189045 0.5690762 0.6378792
vn 0.5477076 0.5867025 0.5964863
vn 0.380338 0.8489384 0.3669401
vn 0.4937875 0.8573352 0.1454261
vn 0.003101766 0.2653688 0.9641417
vn 0.2027672 0.3531334 0.9133356
vn 0.06581107 -0.4258342 0.9024044
vn 0.2938515 -0.4380083 0.8495879
vn -0.1392691 -0.8609028 0.4893351
vn 0.3537724 0.577665 0.7356272
vn -0.05464867 -0.2382457 0.969666
vn 0.4242487 0.892794 0.1514277
vn -0.4232236 -0.7765867 0.4666835
vn -0.5496117 -0.01390329 -0.8353045
vn -0.5576556 -0.0221425 -0.8297771
vn -0.535859 -1.920655E-05 -0.8443075
vn -0.535859 -1.920655E-05 -0.8443075
vn -0.535859 -1.920655E-05 -0.8443075
vn -0.573082 -0.03820112 -0.8186073
vn -0.573082 -0.03820111 -0.8186073
vn 0.6091304 -0.6333991 -0.4772471
vn 0.6091304 -0.6333991 -0.4772471
vn 0.6091304 -0.6333992 -0.4772471
vn -0.5576643 0.01775374 -0.8298768
vn -0.5576643 0.01775374 -0.8298768
vn -0.5576643 0.01775374 -0.8298768
vn -0.5576643 0.01775374 -0.8298768
vn -0.599026 0.6492299 0.468687
vn -0.599026 0.6492299 0.468687
vn -0.5990261 0.6492298 0.468687

vt 0.609375 0.2319336
vt 0.6088867 0.2514648
vt 0.5883789 0.25
vt 0.5839844 0.2320557
vt 0.6064453 0.1968994
vt 0.5839844 0.1970215
vt 0.6777344 0.3251953
vt 0.6806641 0.3164063
vt 0.7680664 0.3349609
vt 0.7558594 0.326416
vt 0.753418 0.2546387
vt 0.7421875 0.2543945
vt 0.7358398 0.2335205
vt 0.7490234 0.2340088
vt 0.5883789 0.1524658
vt 0.6064453 0.1524658
vt 0.7412109 0.1524658
vt 0.7358398 0.1956787
vt 0.7490234 0.1959229
vt 0.7514648 0.1524658
vt 0.6196289 0.4511719
vt 0.6381836 0.4523926
vt 0.6381836 0.4379883
vt 0.6157227 0.4382324
vt 0.6357422 0.4074707
vt 0.6157227 0.4074707
vt 0.7001953 0.5185547
vt 0.703125 0.5107422
vt 0.7822266 0.527832
vt 0.7714844 0.5205078
vt 0.7685547 0.4555664
vt 0.7583008 0.4555664
vt 0.7524414 0.4394531
vt 0.7646484 0.4399414
vt 0.6191406 0.3671875
vt 0.6357422 0.3671875
vt 0.7578125 0.3671875
vt 0.7524414 0.40625
vt 0.7646484 0.4064941
vt 0.7666016 0.3671875
vt 0.9990234 0.2325439
vt 0.9902344 0.2470703
vt 0.9833984 0.2449951
vt 0.9838867 0.2312012
vt 0.9995117 0.2009277
vt 0.9838867 0.2009277
vt 0.9326172 0.3371582
vt 0.9384766 0.3393555
vt 0.9980469 0.1605225
vt 0.9848633 0.1602783
vt 0.6806641 0.3164063
vt 0.6088867 0.2514648
vt 0.6230469 0.2519531
vt 0.6806641 0.3164063
vt 0.6860352 0.3120117
vt 0.7558594 0.326416
vt 0.6821289 0.3095703
vt 0.7475586 0.3181152
vt 0.7421875 0.2543945
vt 0.7558594 0.326416
vt 0.7475586 0.3190918
vt 0.7421875 0.2543945
vt 0.7475586 0.3190918
vt 0.7363281 0.2624512
vt 0.9165039 0.3137207
vt 0.9580078 0.2521973
vt 0.9511719 0.2502441
vt 0.9106445 0.3117676
vt 0.9511719 0.2340088
vt 0.9663086 0.2349854
vt 0.9511719 0.2005615
vt 0.9663086 0.2004395
vt 0.9516602 0.1612549
vt 0.9648438 0.1612549
vt 0.699707 0.5249023
vt 0.78125 0.5341797
vt 0.7822266 0.527832
vt 0.7001953 0.5185547
vt 0.6088867 0.2514648
vt 0.7421875 0.2543945
vt 0.7368164 0.262207
vt 0.6181641 0.2592773
vt 0.7578125 0.3540039
vt 0.6357422 0.3540039
vt 0.6357422 0.3671875
vt 0.7578125 0.3671875
vt 0.6191406 0.3671875
vt 0.6191406 0.3540039
vt 0.7666016 0.3540039
vt 0.7666016 0.3671875
vt 0.5678711 0.01525879
vt 0.5737305 0.02468872
vt 0.5664063 0.02406311
vt 0.5795898 0.03707886
vt 0.5615234 0.03762817
vt 0.5996094 0.01887512
vt 0.5810547 0.0188446
vt 0.5922852 0.001438141
vt 0.578125 0.0135498
vt 0.5649414 0.001422882
vt 0.5522461 0.02171326
vt 0.5512695 0.01274872
vt 0.5566406 0.04058838
vt 0.5610352 0.0006093979
vt 0.5341797 0.03259277
vt 0.519043 0.04193115
vt 0.5073242 0.02792358
vt 0.5336914 0.005210876
vt 0.5151367 0.002006531
vt 0.5351563 0.03656006
vt 0.5195313 0.04760742
vt 0.6352539 0.2617188
vt 0.6757813 0.2617188
vt 0.6582031 0.2814941
vt 0.6757813 0.2617188
vt 0.6796875 0.2658691
vt 0.6621094 0.2861328
vt 0.6582031 0.2814941
vt 0.6757813 0.2617188
vt 0.6352539 0.2617188
vt 0.6582031 0.2814941

g door_frontR_9675_399
usemtl door_frontR_9675_399
usemap door_frontR_9675_399
f 1/1/1 3/3/3 2/2/2
f 1/1/1 4/4/4 3/3/3
f 5/5/5 4/4/4 1/1/1
f 5/5/5 6/6/6 4/4/4
f 7/7/7 2/2/2 3/3/3
f 7/7/7 8/8/8 2/2/2
f 8/8/8 7/7/7 9/9/9
f 8/8/8 9/9/9 10/10/10
f 10/10/10 9/9/9 11/11/11
f 10/10/10 11/11/11 12/12/12
f 2/2/2 13/13/13 1/1/1
f 2/2/2 12/12/12 13/13/13
f 5/5/5 1/1/1 13/13/13
f 12/12/12 14/14/14 13/13/13
f 12/12/12 11/11/11 14/14/14
f 5/5/5 15/15/15 6/6/6
f 5/5/5 16/16/16 15/15/15
f 5/5/5 17/17/17 16/16/16
f 5/5/5 18/18/18 17/17/17
f 5/5/5 13/13/13 18/18/18
f 17/17/17 18/18/18 19/19/19
f 19/19/19 13/13/13 14/14/14
f 19/19/19 18/18/18 13/13/13
f 17/17/17 19/19/19 20/20/20
f 21/21/21 23/23/23 22/22/22
f 21/21/21 24/24/24 23/23/23
f 24/24/24 25/25/25 23/23/23
f 24/24/24 26/26/26 25/25/25
f 22/22/22 27/27/27 21/21/21
f 22/22/22 28/28/28 27/27/27
f 29/29/29 27/27/27 28/28/28
f 29/29/29 28/28/28 30/30/30
f 31/31/31 29/29/29 30/30/30
f 31/31/31 30/30/30 32/32/32
f 33/33/33 22/22/22 23/23/23
f 33/33/33 32/32/32 22/22/22
f 33/33/33 23/23/23 25/25/25
f 34/34/34 32/32/32 33/33/33
f 34/34/34 31/31/31 32/32/32
f 35/35/35 25/25/25 26/26/26
f 35/35/35 36/36/36 25/25/25
f 37/37/37 25/25/25 36/36/36
f 37/37/37 38/38/38 25/25/25
f 33/33/33 25/25/25 38/38/38
f 39/39/39 38/38/38 37/37/37
f 33/33/33 39/39/39 34/34/34
f 33/33/33 38/38/38 39/39/39
f 39/39/39 37/37/37 40/40/40
f 41/41/41 43/43/43 42/42/42
f 41/41/41 44/44/44 43/43/43
f 45/45/45 44/44/44 41/41/41
f 45/45/45 46/46/46 44/44/44
f 42/42/42 43/43/43 47/47/47
f 42/42/42 47/47/47 48/48/48
f 49/49/49 46/46/46 45/45/45
f 49/49/49 50/50/50 46/46/46
f 51/51/51 53/53/53 52/52/52
f 54/54/54 55/55/55 53/53/53
f 56/56/56 57/57/57 54/54/54
f 56/56/56 58/58/58 57/57/57
f 59/59/59 61/61/61 60/60/60
f 62/62/62 64/64/64 63/63/63
f 65/65/65 67/67/67 66/66/66
f 65/65/65 68/68/68 67/67/67
f 66/66/66 67/67/67 69/69/69
f 66/66/66 69/69/69 70/70/70
f 70/70/70 69/69/69 71/71/71
f 70/70/70 71/71/71 72/72/72
f 72/72/72 71/71/71 73/73/73
f 72/72/72 73/73/73 74/74/74
f 75/75/75 77/77/77 76/76/76
f 75/75/75 78/78/78 77/77/77
f 79/79/79 81/81/81 80/80/80
f 79/79/79 82/82/82 81/81/81
f 83/83/83 85/85/85 84/84/84
f 83/83/83 86/86/86 85/85/85
f 84/84/84 85/85/85 87/87/87
f 84/84/84 87/87/87 88/88/88
f 89/89/89 86/86/86 83/83/83
f 89/89/89 90/90/90 86/86/86
f 91/91/91 93/93/93 92/92/92
f 93/93/93 94/94/94 92/92/92
f 93/93/93 95/95/95 94/94/94
f 92/92/92 94/94/94 96/96/96
f 92/92/92 96/96/96 97/97/97
f 91/91/91 92/92/92 97/97/97
f 97/97/97 96/96/96 98/98/98
f 97/97/97 98/98/98 99/99/99
f 91/91/91 97/97/97 99/99/99
f 99/99/99 100/100/100 91/91/91
f 99/99/99 98/98/98 100/100/100
f 91/91/91 101/101/101 93/93/93
f 91/91/91 102/102/102 101/101/101
f 100/100/100 102/102/102 91/91/91
f 93/93/93 103/103/103 95/95/95
f 93/93/93 101/101/101 103/103/103
f 100/100/100 104/104/104 102/102/102
f 105/105/105 107/107/107 106/106/106
f 107/107/107 105/105/105 108/108/108
f 107/107/107 108/108/108 109/109/109
f 106/106/106 110/110/110 105/105/105
f 106/106/106 111/111/111 110/110/110
f 112/112/112 114/114/114 113/113/113
f 115/115/115 117/117/117 116/116/116
f 115/115/115 118/118/118 117/117/117
f 119/119/119 121/121/121 120/120/120
