#door05_8641_380.obj

v -0.2499932 2.149999 0.6000027
v 0.05000659 2.15 -0.5999972
v 0.05000661 2.149999 0.6000026
v -0.2499932 2.15 -0.5999972
v -0.2499932 0.04999959 0.6000011
v 0.05000661 2.149999 0.6000026
v 0.05000662 0.04999959 0.600001
v -0.2499932 2.149999 0.6000027
v 0.0500066 0.04999999 -0.5999988
v -0.2499932 2.15 -0.5999972
v -0.2499932 0.04999999 -0.5999987
v 0.05000659 2.15 -0.5999972
v 0.05000818 2.05 -0.4999976
v -0.2499916 0.04999999 -0.4999983
v -0.2499916 2.05 -0.4999975
v 0.05000819 0.04999999 -0.4999983
v -0.2499916 2.05 -0.4999975
v 0.05000819 2.049999 0.500003
v 0.05000818 2.05 -0.4999976
v -0.2499916 2.049999 0.5000023
v -0.2499916 2.049999 0.5000023
v 0.0500082 0.04999959 0.5000014
v 0.05000819 2.049999 0.500003
v -0.2499916 0.04999959 0.5000015
v -0.2499916 2.05 -0.4999975
v -0.2499932 0.04999999 -0.5999987
v -0.2499932 2.15 -0.5999972
v -0.2499916 0.04999999 -0.4999983
v 0.0500066 0.04999999 -0.5999988
v 0.05000818 2.05 -0.4999976
v 0.05000659 2.15 -0.5999972
v 0.05000819 0.04999999 -0.4999983
v -0.2499916 2.049999 0.5000023
v -0.2499932 0.04999959 0.6000011
v -0.2499916 0.04999959 0.5000015
v -0.2499932 2.149999 0.6000027
v 0.05000662 0.04999959 0.600001
v 0.05000819 2.049999 0.500003
v 0.0500082 0.04999959 0.5000014
v 0.05000661 2.149999 0.6000026
v 0.05000661 2.149999 0.6000026
v 0.05000818 2.05 -0.4999976
v 0.05000819 2.049999 0.500003
v 0.05000659 2.15 -0.5999972
v -0.2499916 2.05 -0.4999975
v -0.2499932 2.149999 0.6000027
v -0.2499916 2.049999 0.5000023
v -0.2499932 2.15 -0.5999972
v -0.2499852 0.05499962 0.5000031
v 0.05001453 0.05500121 -0.4999959
v 0.05001454 0.05499962 0.5000038
v -0.2499852 0.05500121 -0.4999966
v 0.05001454 0.05499962 0.5000038
v 0.05001453 1.226214E-06 -0.4999959
v 0.05001455 -3.632433E-07 0.500003
v 0.05001453 0.05500121 -0.4999959
v -0.2499852 1.226214E-06 -0.4999966
v -0.2499852 0.05499962 0.5000031
v -0.2499852 -3.632433E-07 0.5000031
v -0.2499852 0.05500121 -0.4999966

vn 5.238049E-09 0.9999993 6.794744E-07
vn 5.238049E-09 0.9999993 6.794744E-07
vn 5.238048E-09 0.9999993 6.794743E-07
vn 5.238048E-09 0.9999993 6.794743E-07
vn 0.007708713 -6.431634E-07 0.9999704
vn 0.007708713 -6.431634E-07 0.9999704
vn 0.007708713 -6.431634E-07 0.9999704
vn 0.007708713 -6.431634E-07 0.9999704
vn -0.007708713 5.705026E-07 -0.9999704
vn -0.007708713 5.705026E-07 -0.9999704
vn -0.007708713 5.705026E-07 -0.9999704
vn -0.007708713 5.705026E-07 -0.9999704
vn 0.007708713 -5.968421E-07 0.9999704
vn 0.007708713 -5.968421E-07 0.9999704
vn 0.007708713 -5.968421E-07 0.9999704
vn 0.007708713 -5.968421E-07 0.9999704
vn -5.042006E-09 -0.9999993 -6.540437E-07
vn -5.042006E-09 -0.9999993 -6.540437E-07
vn -5.042006E-09 -0.9999993 -6.540438E-07
vn -5.042006E-09 -0.9999993 -6.540438E-07
vn -0.007708713 6.73136E-07 -0.9999704
vn -0.007708713 6.73136E-07 -0.9999704
vn -0.007708713 6.73136E-07 -0.9999704
vn -0.007708713 6.73136E-07 -0.9999704
vn -0.9999703 1.421085E-14 0.007708465
vn -0.9999703 1.421085E-14 0.007708465
vn -0.9999703 1.421085E-14 0.007708465
vn -0.9999703 1.421085E-14 0.007708465
vn 0.9999703 -1.421085E-14 -0.007708465
vn 0.9999703 -1.421085E-14 -0.007708465
vn 0.9999703 -1.421085E-14 -0.007708465
vn 0.9999703 -1.421085E-14 -0.007708465
vn -0.9999703 1.421085E-14 0.007708465
vn -0.9999703 1.421085E-14 0.007708465
vn -0.9999703 1.421085E-14 0.007708465
vn -0.9999703 1.421085E-14 0.007708465
vn 0.9999703 -1.421085E-14 -0.007708465
vn 0.9999703 -1.421085E-14 -0.007708465
vn 0.9999703 -1.421085E-14 -0.007708465
vn 0.9999703 -1.421085E-14 -0.007708465
vn 0.9999703 -1.421085E-14 -0.007708465
vn 0.9999703 -1.421085E-14 -0.007708465
vn 0.9999703 -1.421085E-14 -0.007708465
vn 0.9999703 -1.421085E-14 -0.007708465
vn -0.9999703 1.421085E-14 0.007708465
vn -0.9999703 1.421085E-14 0.007708465
vn -0.9999703 1.421085E-14 0.007708465
vn -0.9999703 1.421085E-14 0.007708465
vn 1.184224E-08 0.9999993 1.536167E-06
vn 1.184224E-08 0.9999993 1.536167E-06
vn 1.184224E-08 0.9999993 1.536167E-06
vn 1.184224E-08 0.9999993 1.536167E-06
vn 0.9999703 -1.421085E-14 -0.007708465
vn 0.9999703 -1.421085E-14 -0.007708465
vn 0.9999703 -1.421085E-14 -0.007708465
vn 0.9999703 -1.421085E-14 -0.007708465
vn -0.9999703 1.421085E-14 0.007708465
vn -0.9999703 1.421085E-14 0.007708465
vn -0.9999703 1.421085E-14 0.007708465
vn -0.9999703 1.421085E-14 0.007708465

vt 0.9316406 0.7382813
vt 0.8989258 0.605957
vt 0.8989258 0.7382813
vt 0.9316406 0.605957
vt 0.8989258 0.5097656
vt 0.9316406 0.7412109
vt 0.9316406 0.5097656
vt 0.8989258 0.7412109
vt 0.9316406 0.5097656
vt 0.8989258 0.7412109
vt 0.8989258 0.5097656
vt 0.9316406 0.7412109
vt 0.8989258 0.7280273
vt 0.9316406 0.5078125
vt 0.9316406 0.7280273
vt 0.8989258 0.5078125
vt 0.8989258 0.6176758
vt 0.9316406 0.7280273
vt 0.9316406 0.6176758
vt 0.8989258 0.7280273
vt 0.9316406 0.7280273
vt 0.8989258 0.5078125
vt 0.8989258 0.7280273
vt 0.9316406 0.5078125
vt 0.9316406 0.7280273
vt 0.9428711 0.5078125
vt 0.9428711 0.7387695
vt 0.9316406 0.5078125
vt 0.9316406 0.5097656
vt 0.9428711 0.7299805
vt 0.9316406 0.7412109
vt 0.9428711 0.5097656
vt 0.9316406 0.7280273
vt 0.9428711 0.5078125
vt 0.9316406 0.5078125
vt 0.9428711 0.7387695
vt 0.9316406 0.5097656
vt 0.9428711 0.7299805
vt 0.9428711 0.5097656
vt 0.9316406 0.7412109
vt 0.9428711 0.7387695
vt 0.9316406 0.6176758
vt 0.9316406 0.7280273
vt 0.9428711 0.6069336
vt 0.9428711 0.6171875
vt 0.9316406 0.7382813
vt 0.9428711 0.7270508
vt 0.9316406 0.605957
vt 0.9316406 0.6352539
vt 0.9003906 0.5078125
vt 0.9003906 0.6352539
vt 0.9316406 0.5078125
vt 0.9428711 0.6352539
vt 0.9316406 0.5078125
vt 0.9316406 0.6352539
vt 0.9428711 0.5078125
vt 0.9433594 0.5078125
vt 0.9316406 0.6352539
vt 0.9433594 0.6352539
vt 0.9316406 0.5078125

g door05_8641_380
usemtl door05_8641_380
usemap door05_8641_380
f 1/1/1 3/3/3 2/2/2
f 2/2/2 4/4/4 1/1/1
f 5/5/5 7/7/7 6/6/6
f 6/6/6 8/8/8 5/5/5
f 9/9/9 11/11/11 10/10/10
f 10/10/10 12/12/12 9/9/9
f 13/13/13 15/15/15 14/14/14
f 14/14/14 16/16/16 13/13/13
f 17/17/17 19/19/19 18/18/18
f 18/18/18 20/20/20 17/17/17
f 21/21/21 23/23/23 22/22/22
f 22/22/22 24/24/24 21/21/21
f 25/25/25 27/27/27 26/26/26
f 26/26/26 28/28/28 25/25/25
f 29/29/29 31/31/31 30/30/30
f 30/30/30 32/32/32 29/29/29
f 33/33/33 35/35/35 34/34/34
f 34/34/34 36/36/36 33/33/33
f 37/37/37 39/39/39 38/38/38
f 38/38/38 40/40/40 37/37/37
f 41/41/41 43/43/43 42/42/42
f 42/42/42 44/44/44 41/41/41
f 45/45/45 47/47/47 46/46/46
f 46/46/46 48/48/48 45/45/45
f 49/49/49 51/51/51 50/50/50
f 50/50/50 52/52/52 49/49/49
f 53/53/53 55/55/55 54/54/54
f 54/54/54 56/56/56 53/53/53
f 57/57/57 59/59/59 58/58/58
f 58/58/58 60/60/60 57/57/57
