#door_backR_9858_97.obj

v -0.0007973457 1.330115E-07 -0.6573075
v -0.01487769 0.292591 -0.05604222
v -0.0003958919 -1.273469E-08 -0.0560435
v -0.01768295 0.2848665 -0.7041532
v -0.01305288 0.2922401 0.04565984
v 4.349243E-06 -2.478058E-09 0.02999532
v -0.01394036 0.5449812 -0.05604222
v -0.01387526 0.5495202 0.0478965
v 0.04795517 0.6744167 0.01648542
v 0.04795387 0.6759935 -0.08976858
v 0.3569421 1.121664 -0.08639498
v 0.3315063 1.069467 -0.1382409
v 0.3366831 1.095209 -0.7421556
v 0.3115121 1.053186 -0.7102076
v 0.04795505 0.6868919 -0.9084234
v 0.04661133 0.6878085 -0.9842024
v -0.003537521 0.5397139 -0.9733944
v -0.01574688 0.4706601 -0.9683558
v -0.003982286 0.5405157 -0.833779
v 0.09988894 0.2933705 -0.05631406
v 0.09876508 1.330031E-07 -0.6573775
v 0.09876507 -1.27487E-08 -0.05616104
v 0.09854576 0.2846309 -0.7041283
v 0.09985948 0.2929417 0.04527586
v 0.09876522 -2.493366E-09 0.02986691
v 0.09988868 0.5375067 -0.05600746
v 0.09989011 0.5421752 0.04815931
v 0.09989006 0.6585958 0.01658243
v 0.09988905 0.6603056 -0.08994857
v 0.4025211 1.106077 -0.0847549
v 0.3771378 1.054 -0.1363017
v 0.3817317 1.078727 -0.743102
v 0.3564976 1.036615 -0.7112674
v 0.09988993 0.6711675 -0.908417
v 0.09854694 0.6718954 -0.9843597
v 0.0985468 0.5320649 -0.9740229
v 0.09854674 0.4652197 -0.971967
v 0.09988896 0.5340031 -0.8333689
v 0.09876507 -1.27487E-08 -0.05616104
v -0.0007973457 1.330115E-07 -0.6573075
v -0.0003958919 -1.273469E-08 -0.0560435
v 0.09876508 1.330031E-07 -0.6573775
v 0.09876522 -2.493366E-09 0.02986691
v 4.349243E-06 -2.478058E-09 0.02999532
v 0.09876508 1.330031E-07 -0.6573775
v -0.01768295 0.2848665 -0.7041532
v -0.0007973457 1.330115E-07 -0.6573075
v 0.09854576 0.2846309 -0.7041283
v -0.01574688 0.4706601 -0.9683558
v 0.09854674 0.4652197 -0.971967
v 0.09989006 0.6585958 0.01658243
v -0.01387526 0.5495202 0.0478965
v 0.04795517 0.6744167 0.01648542
v 0.09989011 0.5421752 0.04815931
v -0.01305288 0.2922401 0.04565984
v 0.09985948 0.2929417 0.04527586
v 4.349243E-06 -2.478058E-09 0.02999532
v 0.09876522 -2.493366E-09 0.02986691
v 0.4025211 1.106077 -0.0847549
v 0.3569421 1.121664 -0.08639498
v 0.09989006 0.6585958 0.01658243
v 0.09854694 0.6718954 -0.9843597
v 0.3366831 1.095209 -0.7421556
v 0.04661133 0.6878085 -0.9842024
v 0.3817317 1.078727 -0.743102
v 0.0985468 0.5320649 -0.9740229
v -0.003537521 0.5397139 -0.9733944
v 0.09854674 0.4652197 -0.971967
v -0.01574688 0.4706601 -0.9683558
v 0.3564976 1.036615 -0.7112674
v 0.04795505 0.6868919 -0.9084234
v 0.3115121 1.053186 -0.7102076
v 0.04795505 0.6868919 -0.9084234
v 0.3564976 1.036615 -0.7112674
v 0.09988993 0.6711675 -0.908417
v 0.3771378 1.054 -0.1363017
v 0.3115121 1.053186 -0.7102076
v 0.3315063 1.069467 -0.1382409
v 0.3564976 1.036615 -0.7112674
v 0.3817317 1.078727 -0.743102
v 0.3569421 1.121664 -0.08639498
v 0.3366831 1.095209 -0.7421556
v 0.4025211 1.106077 -0.0847549
v 0.09988905 0.6603056 -0.08994857
v 0.3315063 1.069467 -0.1382409
v 0.04795387 0.6759935 -0.08976858
v 0.3315063 1.069467 -0.1382409
v 0.3771378 1.054 -0.1363017
v 0.09988993 0.6711675 -0.908417
v 0.04795387 0.6759935 -0.08976858
v 0.04795505 0.6868919 -0.9084234
v 0.09988905 0.6603056 -0.08994857

vn -0.06134389 -0.0560187 -0.9965433
vn -0.06799959 -0.02336247 -0.9974117
vn -0.06154078 -0.04764158 -0.9969668
vn -0.05850817 0.01043393 -0.9982324
vn -0.07200777 -0.0228584 -0.997142
vn -0.06214375 -0.04488353 -0.9970574
vn -0.05563067 0.2189456 -0.9741498
vn -0.04751137 0.2140067 -0.975676
vn -0.05190328 0.4934561 -0.8682204
vn -0.05341696 0.4791923 -0.8760828
vn 0.01735377 0.5057365 -0.8625131
vn 0.02922043 0.5006976 -0.8651286
vn -0.09053578 0.5357847 -0.8394864
vn -0.09451641 0.538893 -0.8370547
vn -0.06298295 0.4284524 -0.9013664
vn -0.07304964 0.4329225 -0.8984662
vn -0.08517067 0.2286612 -0.9697731
vn -0.1763515 0.1813463 -0.967478
vn -0.04762074 0.1918145 -0.9802751
vn 0.0580846 -0.001606033 0.9983103
vn 0.059093 -0.0006883939 0.9982522
vn 0.05753091 -0.003793785 0.9983365
vn 0.0593161 -0.003033102 0.9982346
vn 0.05733551 -0.001888762 0.9983531
vn 0.05756076 -0.00373469 0.998335
vn 0.05793457 -0.0003374102 0.9983203
vn 0.05755829 -6.410729E-05 0.9983421
vn 0.05973857 -0.2497934 0.9664544
vn 0.05572635 -0.203987 0.9773861
vn -0.01249143 -0.5014004 0.8651249
vn -0.02438898 -0.4970917 0.8673549
vn 0.08584601 -0.5328198 0.8418629
vn 0.0892918 -0.5360846 0.8394283
vn 0.07090456 -0.2290388 0.9708314
vn 0.07517453 -0.2530719 0.9645222
vn 0.06595726 -0.004463493 0.9978124
vn 0.05756058 -6.935197E-14 0.998342
vn 0.062229 -0.005155917 0.9980485
vn -2.46031E-07 -0.9999993 -3.506008E-07
vn 3.657691E-07 -0.9999993 -2.108897E-08
vn -1.241504E-07 -0.9999993 -2.732294E-07
vn 3.72389E-07 -0.9999993 -2.147066E-08
vn -5.769676E-07 -0.9999993 -1.759249E-07
vn -3.236246E-07 -0.9999993 1.865907E-08
vn 0.9850807 -0.1622535 -0.05735335
vn 0.8415296 -0.537938 -0.04949556
vn 0.9850631 -0.1623102 -0.05749514
vn 0.8443814 -0.5327946 -0.05611776
vn 0.5585403 -0.8258817 -0.0771434
vn 0.5539238 -0.8277886 -0.0890695
vn -0.9671661 0.2342428 0.09858763
vn -0.9920705 0.1054793 0.06833596
vn -0.9695589 0.2138044 0.1193422
vn -0.9905142 0.1218129 0.06358333
vn -0.9976752 -0.03183526 0.06025189
vn -0.9976233 -0.03227781 0.06087434
vn -0.9968445 -0.05272504 0.05933481
vn -0.9968877 -0.05253433 0.05877526
vn -0.9753725 0.2006755 0.09152888
vn -0.9752713 0.2018246 0.09006889
vn -0.9764006 0.1852507 0.1110122
vn 0.9824126 0.1867103 -0.002094809
vn 0.897713 0.4318606 0.0872193
vn 0.9870733 0.1600787 -0.007786728
vn 0.8977793 0.4316337 0.08766118
vn 0.9964076 -0.04944503 -0.06875058
vn 0.9951698 -0.06100142 -0.0769117
vn 0.9961156 -0.04450932 -0.07597501
vn 0.9935253 -0.06663107 -0.09201881
vn -0.9132921 -0.4006453 -0.0733533
vn -0.912437 -0.4031652 -0.07011454
vn -0.9133681 -0.4004181 -0.07364473
vn -0.912437 -0.4031652 -0.07011454
vn -0.9132921 -0.4006453 -0.0733533
vn -0.9123633 -0.4033799 -0.06983821
vn -0.05688471 -0.9454635 -0.3207209
vn -0.0602866 -0.9383357 -0.3404272
vn -0.05667338 -0.9458904 -0.3194968
vn -0.06048841 -0.9378976 -0.3415964
vn 0.06805575 0.9386384 0.3381198
vn 0.0681042 0.9442291 0.3221678
vn 0.06805273 0.9383438 0.3389374
vn 0.06810609 0.9444989 0.3213755
vn 0.9910751 -0.09961738 -0.08857789
vn 0.9914597 -0.1172213 -0.05715272
vn 0.991013 -0.09858549 -0.09040929
vn 0.9914597 -0.1172213 -0.05715272
vn 0.9914399 -0.1183719 -0.0550865
vn 0.003959136 0.9570228 0.2899837
vn 0.003963124 0.9571829 0.2894544
vn 0.003958953 0.9570153 0.2900079
vn 0.003963308 0.9571903 0.2894301

vt 0.8793945 0.1461182
vt 0.7900391 0.1895752
vt 0.7900391 0.1461182
vt 0.8862305 0.1884766
vt 0.7749023 0.1895752
vt 0.7773438 0.1461182
vt 0.7900391 0.2270508
vt 0.7749023 0.2276611
vt 0.7792969 0.2484131
vt 0.7954102 0.2485352
vt 0.7949219 0.3286133
vt 0.8027344 0.3200684
vt 0.8920898 0.3237305
vt 0.887207 0.3166504
vt 0.9165039 0.2495117
vt 0.9277344 0.2495117
vt 0.9262695 0.2263184
vt 0.9257813 0.2159424
vt 0.9052734 0.2264404
vt 0.7963867 0.40625
vt 0.8774414 0.3669434
vt 0.7963867 0.3669434
vt 0.8833008 0.4050293
vt 0.7827148 0.40625
vt 0.7851563 0.3669434
vt 0.7963867 0.4389648
vt 0.7827148 0.4396973
vt 0.7866211 0.4553223
vt 0.8012695 0.4555664
vt 0.800293 0.5273438
vt 0.8071289 0.5200195
vt 0.8881836 0.5234375
vt 0.8842773 0.5166016
vt 0.9111328 0.4570313
vt 0.9208984 0.4570313
vt 0.9199219 0.4382324
vt 0.9194336 0.4291992
vt 0.9008789 0.4384766
vt 0.7963867 0.3669434
vt 0.8774414 0.3535156
vt 0.7963867 0.3535156
vt 0.8774414 0.3669434
vt 0.7851563 0.3669434
vt 0.7851563 0.3535156
vt 0.9804688 0.3566895
vt 0.9960938 0.3955078
vt 0.9941406 0.3566895
vt 0.9804688 0.3955078
vt 0.9960938 0.4387207
vt 0.9804688 0.4387207
vt 0.9477539 0.454834
vt 0.9628906 0.4396973
vt 0.9545898 0.4570313
vt 0.9477539 0.4387207
vt 0.9628906 0.4052734
vt 0.9477539 0.4052734
vt 0.9609375 0.3659668
vt 0.9477539 0.3659668
vt 0.9072266 0.5166016
vt 0.9130859 0.5185547
vt 0.9477539 0.454834
vt 0.9819336 0.4665527
vt 0.9506836 0.5322266
vt 0.9887695 0.4682617
vt 0.9443359 0.5302734
vt 0.980957 0.4477539
vt 0.9946289 0.447998
vt 0.9804688 0.4387207
vt 0.9960938 0.4387207
vt 0.8818359 0.3103027
vt 0.9165039 0.2495117
vt 0.887207 0.3166504
vt 0.9165039 0.2495117
vt 0.8818359 0.3103027
vt 0.9057617 0.2570801
vt 0.809082 0.3127441
vt 0.887207 0.3166504
vt 0.8027344 0.3200684
vt 0.8803711 0.3103027
vt 0.8881836 0.5234375
vt 0.8007813 0.5336914
vt 0.8886719 0.5297852
vt 0.800293 0.5273438
vt 0.8032227 0.255127
vt 0.8027344 0.3200684
vt 0.7954102 0.2485352
vt 0.8027344 0.3200684
vt 0.8095703 0.3134766
vt 0.9047852 0.2578125
vt 0.7954102 0.2485352
vt 0.9165039 0.2495117
vt 0.8037109 0.2563477

g door_backR_9858_97
usemtl door_backR_9858_97
usemap door_backR_9858_97
f 1/1/1 3/3/3 2/2/2
f 2/2/2 4/4/4 1/1/1
f 5/5/5 2/2/2 3/3/3
f 3/3/3 6/6/6 5/5/5
f 7/7/7 2/2/2 5/5/5
f 4/4/4 2/2/2 7/7/7
f 5/5/5 8/8/8 7/7/7
f 7/7/7 8/8/8 9/9/9
f 9/9/9 10/10/10 7/7/7
f 10/10/10 9/9/9 11/11/11
f 11/11/11 12/12/12 10/10/10
f 12/12/12 11/11/11 13/13/13
f 13/13/13 14/14/14 12/12/12
f 15/15/15 14/14/14 13/13/13
f 7/7/7 10/10/10 15/15/15
f 13/13/13 16/16/16 15/15/15
f 15/15/15 16/16/16 17/17/17
f 17/17/17 18/18/18 4/4/4
f 4/4/4 19/19/19 17/17/17
f 17/17/17 19/19/19 15/15/15
f 15/15/15 19/19/19 7/7/7
f 7/7/7 19/19/19 4/4/4
f 20/20/20 22/22/22 21/21/21
f 21/21/21 23/23/23 20/20/20
f 22/22/22 20/20/20 24/24/24
f 24/24/24 25/25/25 22/22/22
f 24/24/24 20/20/20 26/26/26
f 26/26/26 20/20/20 23/23/23
f 26/26/26 27/27/27 24/24/24
f 28/28/28 27/27/27 26/26/26
f 26/26/26 29/29/29 28/28/28
f 30/30/30 28/28/28 29/29/29
f 29/29/29 31/31/31 30/30/30
f 32/32/32 30/30/30 31/31/31
f 31/31/31 33/33/33 32/32/32
f 32/32/32 33/33/33 34/34/34
f 34/34/34 29/29/29 26/26/26
f 34/34/34 35/35/35 32/32/32
f 36/36/36 35/35/35 34/34/34
f 23/23/23 37/37/37 36/36/36
f 36/36/36 38/38/38 23/23/23
f 34/34/34 38/38/38 36/36/36
f 26/26/26 38/38/38 34/34/34
f 23/23/23 38/38/38 26/26/26
f 39/39/39 41/41/41 40/40/40
f 40/40/40 42/42/42 39/39/39
f 41/41/41 39/39/39 43/43/43
f 43/43/43 44/44/44 41/41/41
f 45/45/45 47/47/47 46/46/46
f 46/46/46 48/48/48 45/45/45
f 48/48/48 46/46/46 49/49/49
f 49/49/49 50/50/50 48/48/48
f 51/51/51 53/53/53 52/52/52
f 52/52/52 54/54/54 51/51/51
f 54/54/54 52/52/52 55/55/55
f 55/55/55 56/56/56 54/54/54
f 56/56/56 55/55/55 57/57/57
f 57/57/57 58/58/58 56/56/56
f 59/59/59 60/60/60 53/53/53
f 53/53/53 61/61/61 59/59/59
f 62/62/62 64/64/64 63/63/63
f 63/63/63 65/65/65 62/62/62
f 64/64/64 62/62/62 66/66/66
f 66/66/66 67/67/67 64/64/64
f 67/67/67 66/66/66 68/68/68
f 68/68/68 69/69/69 67/67/67
f 70/70/70 72/72/72 71/71/71
f 73/73/73 75/75/75 74/74/74
f 76/76/76 78/78/78 77/77/77
f 77/77/77 79/79/79 76/76/76
f 80/80/80 82/82/82 81/81/81
f 81/81/81 83/83/83 80/80/80
f 84/84/84 86/86/86 85/85/85
f 87/87/87 88/88/88 84/84/84
f 89/89/89 91/91/91 90/90/90
f 90/90/90 92/92/92 89/89/89
