#door02_10924_349.obj

v 0.05000004 0.05000013 -1.099998
v -0.2499999 2.15 -1.099998
v -0.2499999 0.05000013 -1.099999
v 0.05000004 2.15 -1.099998
v 0.04999969 2.05 -0.9999975
v -0.2500003 0.05000013 -0.9999985
v -0.2500003 2.05 -0.9999975
v 0.04999969 0.05000013 -0.9999985
v -0.2500003 2.05 -0.9999975
v 0.0499992 2.049999 1.000001
v 0.04999969 2.05 -0.9999975
v -0.2500007 2.049999 1.000001
v -0.2500003 2.05 -0.9999975
v -0.2499999 0.05000013 -1.099999
v -0.2499999 2.15 -1.099998
v -0.2500003 0.05000013 -0.9999985
v 0.05000004 0.05000013 -1.099998
v 0.04999969 2.05 -0.9999975
v 0.05000004 2.15 -1.099998
v 0.04999969 0.05000013 -0.9999985
v 0.04999967 0.04999972 1.100001
v -0.2500003 2.15 1.100001
v 0.04999967 2.15 1.100001
v -0.2500003 0.04999972 1.100001
v 0.0499992 2.049999 1.000001
v -0.2500007 0.04999972 1.000001
v 0.0499992 0.04999972 1.000001
v -0.2500007 2.049999 1.000001
v -0.2500007 2.049999 1.000001
v -0.2500003 0.04999972 1.100001
v -0.2500007 0.04999972 1.000001
v -0.2500003 2.15 1.100001
v 0.04999967 0.04999972 1.100001
v 0.0499992 2.049999 1.000001
v 0.0499992 0.04999972 1.000001
v 0.04999967 2.15 1.100001
v 0.0499992 2.049999 1.000001
v 0.05000004 2.15 -1.099998
v 0.04999969 2.05 -0.9999975
v 0.04999967 2.15 1.100001
v -0.2500007 2.049999 1.000001
v -0.2499999 2.15 -1.099998
v -0.2500003 2.15 1.100001
v -0.2500003 2.05 -0.9999975
v -0.2499999 2.15 -1.099998
v 0.04999967 2.15 1.100001
v -0.2500003 2.15 1.100001
v 0.05000004 2.15 -1.099998
v -0.2499892 0.05499962 1.000002
v 0.05001119 0.05500085 -0.999997
v 0.05001071 0.05499962 1.000002
v -0.2499888 0.05500085 -0.9999969
v 0.05001071 0.05499962 1.000002
v 0.05001119 7.189667E-07 -0.999997
v 0.05001071 -5.135477E-07 1.000002
v 0.05001119 0.05500085 -0.999997
v -0.2499888 7.189667E-07 -0.9999969
v -0.2499892 0.05499962 1.000002
v -0.2499892 -5.135477E-07 1.000002
v -0.2499888 0.05500085 -0.9999969

vn 0.9999994 4.722959E-07 -0.001170222
vn 0.9999994 4.722959E-07 -0.001170222
vn 0.9999994 4.722959E-07 -0.001170222
vn 0.9999994 4.722959E-07 -0.001170222
vn -0.9999994 -4.959106E-07 0.001170222
vn -0.9999994 -4.959106E-07 0.001170222
vn -0.9999994 -4.959106E-07 0.001170222
vn -0.9999994 -4.959106E-07 0.001170222
vn 2.288307E-07 -1 -4.397921E-08
vn 2.288307E-07 -1 -4.397921E-08
vn 2.288307E-07 -1 -4.397921E-08
vn 2.288307E-07 -1 -4.397921E-08
vn -0.001170222 4.371139E-08 -0.9999993
vn -0.001170222 4.371139E-08 -0.9999993
vn -0.001170222 4.371139E-08 -0.9999993
vn -0.001170222 4.371139E-08 -0.9999993
vn 0.001170222 -4.371139E-08 0.9999993
vn 0.001170222 -4.371139E-08 0.9999993
vn 0.001170222 -4.371139E-08 0.9999993
vn 0.001170222 -4.371139E-08 0.9999993
vn -0.9999994 1.089914E-07 0.001170222
vn -0.9999994 1.089914E-07 0.001170222
vn -0.9999994 1.089913E-07 0.001170222
vn -0.9999994 1.089913E-07 0.001170222
vn 0.9999994 -1.144409E-07 -0.001170222
vn 0.9999994 -1.144409E-07 -0.001170222
vn 0.9999994 -1.144409E-07 -0.001170222
vn 0.9999994 -1.144409E-07 -0.001170222
vn -0.001170222 4.371139E-08 -0.9999993
vn -0.001170222 4.371139E-08 -0.9999993
vn -0.001170222 4.371139E-08 -0.9999993
vn -0.001170222 4.371139E-08 -0.9999993
vn 0.001170222 -4.371139E-08 0.9999993
vn 0.001170222 -4.371139E-08 0.9999993
vn 0.001170222 -4.371139E-08 0.9999993
vn 0.001170222 -4.371139E-08 0.9999993
vn 0.001170222 -4.371139E-08 0.9999993
vn 0.001170222 -4.371139E-08 0.9999993
vn 0.001170222 -4.371139E-08 0.9999993
vn 0.001170222 -4.371139E-08 0.9999993
vn -0.001170222 4.371139E-08 -0.9999993
vn -0.001170222 4.371139E-08 -0.9999993
vn -0.001170222 4.371139E-08 -0.9999993
vn -0.001170222 4.371139E-08 -0.9999993
vn -2.080232E-07 1 4.395486E-08
vn -2.080232E-07 1 4.395486E-08
vn -2.080232E-07 1 4.395486E-08
vn -2.080232E-07 1 4.395486E-08
vn -6.579839E-07 1 4.448141E-08
vn -6.579839E-07 1 4.448141E-08
vn -6.579839E-07 1 4.448141E-08
vn -6.579839E-07 1 4.448141E-08
vn 0.001170222 -4.371139E-08 0.9999993
vn 0.001170222 -4.371139E-08 0.9999993
vn 0.001170222 -4.371139E-08 0.9999993
vn 0.001170222 -4.371139E-08 0.9999993
vn -0.001170222 4.371139E-08 -0.9999993
vn -0.001170222 4.371139E-08 -0.9999993
vn -0.001170222 4.371139E-08 -0.9999993
vn -0.001170222 4.371139E-08 -0.9999993

vt 0.1928711 0.2496338
vt 0.1599121 0.4804688
vt 0.1599121 0.2496338
vt 0.1928711 0.4804688
vt 0.1599121 0.4675293
vt 0.1928711 0.2474365
vt 0.1928711 0.4675293
vt 0.1599121 0.2474365
vt 0.1599121 0.3574219
vt 0.1928711 0.3574219
vt 0.1928711 0.3574219
vt 0.1599121 0.3574219
vt 0.1928711 0.4675293
vt 0.2039795 0.2474365
vt 0.2039795 0.4785156
vt 0.1928711 0.2474365
vt 0.1928711 0.2496338
vt 0.2039795 0.4694824
vt 0.1928711 0.4804688
vt 0.2039795 0.2496338
vt 0.1928711 0.2496338
vt 0.1599121 0.4804688
vt 0.1928711 0.4804688
vt 0.1599121 0.2496338
vt 0.1599121 0.4675293
vt 0.1928711 0.2474365
vt 0.1599121 0.2474365
vt 0.1928711 0.4675293
vt 0.1928711 0.4675293
vt 0.2039795 0.2474365
vt 0.1928711 0.2474365
vt 0.2039795 0.4785156
vt 0.1928711 0.2496338
vt 0.2039795 0.4694824
vt 0.2039795 0.2496338
vt 0.1928711 0.4804688
vt 0.1928711 0.3574219
vt 0.2039795 0.3464355
vt 0.1928711 0.3574219
vt 0.2039795 0.3464355
vt 0.2039795 0.3566895
vt 0.1928711 0.3457031
vt 0.1928711 0.3457031
vt 0.2039795 0.3566895
vt 0.1928711 0.3457031
vt 0.1599121 0.3457031
vt 0.1928711 0.3457031
vt 0.1599121 0.3457031
vt 0.1928711 0.4804688
vt 0.1599121 0.2474365
vt 0.1599121 0.4804688
vt 0.1928711 0.2474365
vt 0.2039795 0.4804688
vt 0.1928711 0.2474365
vt 0.1928711 0.4804688
vt 0.2039795 0.2474365
vt 0.2042236 0.2474365
vt 0.1928711 0.4804688
vt 0.2042236 0.4804688
vt 0.1928711 0.2474365

g door02_10924_349
usemtl door02_10924_349
usemap door02_10924_349
f 1/1/1 3/3/3 2/2/2
f 2/2/2 4/4/4 1/1/1
f 5/5/5 7/7/7 6/6/6
f 6/6/6 8/8/8 5/5/5
f 9/9/9 11/11/11 10/10/10
f 10/10/10 12/12/12 9/9/9
f 13/13/13 15/15/15 14/14/14
f 14/14/14 16/16/16 13/13/13
f 17/17/17 19/19/19 18/18/18
f 18/18/18 20/20/20 17/17/17
f 21/21/21 23/23/23 22/22/22
f 22/22/22 24/24/24 21/21/21
f 25/25/25 27/27/27 26/26/26
f 26/26/26 28/28/28 25/25/25
f 29/29/29 31/31/31 30/30/30
f 30/30/30 32/32/32 29/29/29
f 33/33/33 35/35/35 34/34/34
f 34/34/34 36/36/36 33/33/33
f 37/37/37 39/39/39 38/38/38
f 38/38/38 40/40/40 37/37/37
f 41/41/41 43/43/43 42/42/42
f 42/42/42 44/44/44 41/41/41
f 45/45/45 47/47/47 46/46/46
f 46/46/46 48/48/48 45/45/45
f 49/49/49 51/51/51 50/50/50
f 50/50/50 52/52/52 49/49/49
f 53/53/53 55/55/55 54/54/54
f 54/54/54 56/56/56 53/53/53
f 57/57/57 59/59/59 58/58/58
f 58/58/58 60/60/60 57/57/57
