#door05_10325_364.obj

v -0.075073 2.033734E-07 -7.710199E-06
v 0.02492716 -6.897836E-07 0.9999924
v 0.02492702 1.914525E-07 -7.069679E-06
v -0.07507285 -6.778627E-07 0.9999918
v -0.07507278 1.999999 0.9999918
v 0.02492709 2 -7.066389E-06
v 0.02492723 1.999999 0.9999924
v -0.07507292 2 -7.706908E-06
v -0.07507292 2 -7.706908E-06
v 0.02492702 1.914525E-07 -7.069679E-06
v 0.02492709 2 -7.066389E-06
v -0.075073 2.033734E-07 -7.710199E-06
v 0.02492723 1.999999 0.9999924
v -0.07507285 -6.778627E-07 0.9999918
v -0.07507278 1.999999 0.9999918
v 0.02492716 -6.897836E-07 0.9999924
v 0.02492716 -6.897836E-07 0.9999924
v 0.02492709 2 -7.066389E-06
v 0.02492702 1.914525E-07 -7.069679E-06
v 0.02492723 1.999999 0.9999924
v -0.07507278 1.999999 0.9999918
v -0.075073 2.033734E-07 -7.710199E-06
v -0.07507292 2 -7.706908E-06
v -0.07507285 -6.778627E-07 0.9999918
v -0.1250728 1.104778 0.9229015
v -0.1104243 1.129778 0.8979046
v -0.1104243 1.140133 0.9229039
v -0.1104244 1.104778 0.887543
v -0.1104243 1.079778 0.8979046
v -0.1104243 1.069423 0.9229039
v -0.1104244 1.079777 0.9479032
v -0.1104244 1.104777 0.9582543
v -0.1104244 1.129778 0.9479032
v -0.07507281 1.140133 0.8875409
v -0.07507281 1.154778 0.9229019
v -0.07507278 1.104778 0.8729033
v -0.07507282 1.069423 0.8875409
v -0.07507282 1.054778 0.9229019
v -0.07507274 1.069423 0.9582558
v -0.07507277 1.104777 0.9729039
v -0.07507273 1.140133 0.9582558
v 0.07492725 1.104778 0.9229028
v 0.06027881 1.129778 0.9479032
v 0.06027883 1.140133 0.922904
v 0.06027877 1.104777 0.9582543
v 0.0602788 1.079777 0.9479032
v 0.06027882 1.069423 0.922904
v 0.06027884 1.079778 0.8979046
v 0.06027883 1.104778 0.887543
v 0.06027884 1.129778 0.8979046
v 0.02492728 1.140133 0.9582564
v 0.0249272 1.154778 0.9229025
v 0.02492724 1.104777 0.9729046
v 0.02492728 1.069423 0.9582564
v 0.02492719 1.054778 0.9229025
v 0.02492719 1.069423 0.8875415
v 0.02492723 1.104778 0.8729039
v 0.0249272 1.140133 0.8875415

vn 9.818348E-08 -0.9999993 -8.849919E-07
vn 9.818348E-08 -0.9999993 -8.849919E-07
vn 9.818348E-08 -0.9999993 -8.849919E-07
vn 9.818348E-08 -0.9999993 -8.849919E-07
vn -9.891585E-08 0.9999993 9.135927E-07
vn -9.891585E-08 0.9999993 9.135927E-07
vn -9.891585E-08 0.9999993 9.135927E-07
vn -9.891585E-08 0.9999993 9.135927E-07
vn 0.02559795 1.719592E-07 -0.9996724
vn 0.02559795 1.719592E-07 -0.9996724
vn 0.02559795 1.719592E-07 -0.9996724
vn 0.02559795 1.719592E-07 -0.9996724
vn -0.02559795 -1.528857E-07 0.9996724
vn -0.02559795 -1.528857E-07 0.9996724
vn -0.02559795 -1.528857E-07 0.9996724
vn -0.02559795 -1.528857E-07 0.9996724
vn 0.9996723 7.549728E-08 0.02559822
vn 0.9996723 7.549728E-08 0.02559822
vn 0.9996723 7.549728E-08 0.02559822
vn 0.9996723 7.549728E-08 0.02559822
vn -0.9996723 -7.549728E-08 -0.02559822
vn -0.9996723 -7.549728E-08 -0.02559822
vn -0.9996723 -7.549728E-08 -0.02559822
vn -0.9996723 -7.549728E-08 -0.02559822
vn -0.9996729 7.60589E-07 -0.0255742
vn -0.6492426 0.5293767 -0.5461173
vn -0.6627809 0.7486209 -0.01696061
vn -0.6435831 5.851765E-05 -0.7653765
vn -0.6492723 -0.5294061 -0.5460538
vn -0.6627707 -0.7486297 -0.01696652
vn -0.6763135 -0.5293503 0.512238
vn -0.6819549 3.663887E-05 0.7313941
vn -0.6762982 0.5293278 0.5122815
vn -0.3659521 0.6531991 -0.6628797
vn -0.3825887 0.9238666 -0.009761559
vn -0.3588781 5.554704E-05 -0.9333846
vn -0.3658967 -0.6532615 -0.6628488
vn -0.382605 -0.9238597 -0.009765586
vn -0.3992615 -0.6533171 0.6432468
vn -0.4062822 3.426279E-05 0.9137477
vn -0.3992998 0.6532759 0.643265
vn 0.9996717 9.17233E-07 0.02562224
vn 0.6492117 0.529348 0.546182
vn 0.6627715 0.7486286 0.01697994
vn 0.643629 -3.71627E-05 0.7653379
vn 0.6491933 -0.5293297 0.5462214
vn 0.66278 -0.748621 0.01697994
vn 0.6763428 -0.5293741 -0.5121748
vn 0.6819108 -5.825835E-05 -0.7314353
vn 0.6763675 0.529407 -0.5121081
vn 0.3658196 0.6533152 0.6628386
vn 0.382605 0.9238591 0.009830208
vn 0.3589852 -3.529435E-05 0.9333434
vn 0.3658527 -0.6532775 0.6628575
vn 0.3825832 -0.9238681 0.009831634
vn 0.3993988 -0.653199 -0.6432815
vn 0.4061779 -5.449325E-05 -0.913794
vn 0.3993391 0.6532609 -0.6432556

vt 0.7641602 0.5131836
vt 0.8745117 0.5024414
vt 0.7641602 0.5024414
vt 0.8745117 0.5131836
vt 0.8745117 0.7338867
vt 0.7641602 0.7446289
vt 0.8745117 0.7446289
vt 0.7641602 0.7338867
vt 0.7641602 0.7338867
vt 0.753418 0.5131836
vt 0.753418 0.7338867
vt 0.7641602 0.5131836
vt 0.8857422 0.7338867
vt 0.8745117 0.5131836
vt 0.8745117 0.7338867
vt 0.8857422 0.5131836
vt 0.8745117 0.5131836
vt 0.7641602 0.7338867
vt 0.7641602 0.5131836
vt 0.8745117 0.7338867
vt 0.8745117 0.7338867
vt 0.7641602 0.5131836
vt 0.7641602 0.7338867
vt 0.8745117 0.5131836
vt 0.8833008 0.7421875
vt 0.8813477 0.7441406
vt 0.8833008 0.7446289
vt 0.8808594 0.7421875
vt 0.8813477 0.7407227
vt 0.8833008 0.7402344
vt 0.8847656 0.7407227
vt 0.8852539 0.7421875
vt 0.8847656 0.7441406
vt 0.8798828 0.7456055
vt 0.8833008 0.7470703
vt 0.878418 0.7421875
vt 0.8798828 0.7387695
vt 0.8833008 0.737793
vt 0.8862305 0.7387695
vt 0.8876953 0.7421875
vt 0.8862305 0.7456055
vt 0.8833008 0.7421875
vt 0.8813477 0.7441406
vt 0.8833008 0.7446289
vt 0.8808594 0.7421875
vt 0.8813477 0.7407227
vt 0.8833008 0.7402344
vt 0.8847656 0.7407227
vt 0.8852539 0.7421875
vt 0.8847656 0.7441406
vt 0.8798828 0.7456055
vt 0.8833008 0.7470703
vt 0.878418 0.7421875
vt 0.8798828 0.7387695
vt 0.8833008 0.737793
vt 0.8862305 0.7387695
vt 0.8876953 0.7421875
vt 0.8862305 0.7456055

g door05_10325_364
usemtl door05_10325_364
usemap door05_10325_364
f 1/1/1 3/3/3 2/2/2
f 2/2/2 4/4/4 1/1/1
f 5/5/5 7/7/7 6/6/6
f 6/6/6 8/8/8 5/5/5
f 9/9/9 11/11/11 10/10/10
f 10/10/10 12/12/12 9/9/9
f 13/13/13 15/15/15 14/14/14
f 14/14/14 16/16/16 13/13/13
f 17/17/17 19/19/19 18/18/18
f 18/18/18 20/20/20 17/17/17
f 21/21/21 23/23/23 22/22/22
f 22/22/22 24/24/24 21/21/21
f 25/25/25 27/27/27 26/26/26
f 25/25/25 26/26/26 28/28/28
f 25/25/25 28/28/28 29/29/29
f 25/25/25 29/29/29 30/30/30
f 25/25/25 30/30/30 31/31/31
f 25/25/25 31/31/31 32/32/32
f 25/25/25 32/32/32 33/33/33
f 25/25/25 33/33/33 27/27/27
f 34/34/34 26/26/26 27/27/27
f 27/27/27 35/35/35 34/34/34
f 35/35/35 27/27/27 33/33/33
f 36/36/36 28/28/28 26/26/26
f 26/26/26 34/34/34 36/36/36
f 37/37/37 29/29/29 28/28/28
f 28/28/28 36/36/36 37/37/37
f 38/38/38 30/30/30 29/29/29
f 29/29/29 37/37/37 38/38/38
f 39/39/39 31/31/31 30/30/30
f 30/30/30 38/38/38 39/39/39
f 40/40/40 32/32/32 31/31/31
f 31/31/31 39/39/39 40/40/40
f 41/41/41 33/33/33 32/32/32
f 32/32/32 40/40/40 41/41/41
f 33/33/33 41/41/41 35/35/35
f 42/42/42 44/44/44 43/43/43
f 42/42/42 43/43/43 45/45/45
f 42/42/42 45/45/45 46/46/46
f 42/42/42 46/46/46 47/47/47
f 42/42/42 47/47/47 48/48/48
f 42/42/42 48/48/48 49/49/49
f 42/42/42 49/49/49 50/50/50
f 42/42/42 50/50/50 44/44/44
f 51/51/51 43/43/43 44/44/44
f 44/44/44 52/52/52 51/51/51
f 52/52/52 44/44/44 50/50/50
f 53/53/53 45/45/45 43/43/43
f 43/43/43 51/51/51 53/53/53
f 54/54/54 46/46/46 45/45/45
f 45/45/45 53/53/53 54/54/54
f 55/55/55 47/47/47 46/46/46
f 46/46/46 54/54/54 55/55/55
f 56/56/56 48/48/48 47/47/47
f 47/47/47 55/55/55 56/56/56
f 57/57/57 49/49/49 48/48/48
f 48/48/48 56/56/56 57/57/57
f 58/58/58 50/50/50 49/49/49
f 49/49/49 57/57/57 58/58/58
f 50/50/50 58/58/58 52/52/52
