#door_frontL_10639_113.obj

v 0.09244731 -0.4342398 -0.9864494
v 0.125195 -0.7011236 -0.9247097
v 0.09136157 -0.4289157 -0.9237941
v 0.1432182 -0.7012684 -0.986446
v 0.08324119 -0.2679546 -0.9260629
v -0.003635705 -0.4232747 -0.3196356
v -0.007479174 -0.29824 -0.1317194
v 0.01321188 0.2184522 -0.9351077
v -0.04641166 0.2176549 -0.08419235
v -0.04607597 0.2166762 -2.998338E-05
v -0.02665223 -0.2647479 -9.799565E-06
v -0.1152045 0.693149 -0.3793424
v -0.1125862 0.6349804 -0.4077157
v -0.1649773 0.6330898 -0.9864531
v -0.143055 0.5858712 -0.9266213
v 0.03118614 0.2173627 -0.9864507
v 0.07902618 -0.2658405 -0.9864517
v -0.05478498 -0.700932 -0.4026894
v -0.09964902 -0.4176947 -0.3192458
v 0.05645219 -0.6976125 -0.9247028
v -0.002634727 -0.4276012 -0.923943
v -0.1216518 -0.6966715 -0.402693
v 0.07421833 -0.6985751 -0.9862503
v -0.001339345 -0.432815 -0.986267
v -0.03359091 -0.2702692 -0.9261645
v -0.03740916 -0.2679237 -0.9862863
v -0.03281867 0.2074543 -0.9864647
v -0.05564378 0.2162946 -0.9238315
v -0.1924644 0.5677454 -0.914211
v -0.2182706 0.6330333 -0.9859115
v -0.1683185 0.6133571 -0.4146323
v -0.1684781 0.692797 -0.3798116
v -0.1139245 0.2149134 -0.1021971
v -0.1128005 0.2066351 0.0002368228
v -0.1303117 -0.3040369 -0.131047
v -0.1684555 -0.2731875 0.001908321
v 0.09244731 -0.4342398 -0.9864494
v -0.03740916 -0.2679237 -0.9862863
v -0.001339345 -0.432815 -0.986267
v 0.07902618 -0.2658405 -0.9864517
v 0.03118614 0.2173627 -0.9864507
v -0.03281867 0.2074543 -0.9864647
v -0.1649773 0.6330898 -0.9864531
v -0.2182706 0.6330333 -0.9859115
v 0.1432182 -0.7012684 -0.986446
v 0.07421833 -0.6985751 -0.9862503
v -0.09964902 -0.4176947 -0.3192458
v -0.05478498 -0.700932 -0.4026894
v -0.1216518 -0.6966715 -0.402693
v -0.003635705 -0.4232747 -0.3196356
v -0.1303117 -0.3040369 -0.131047
v -0.007479174 -0.29824 -0.1317194
v -0.1684555 -0.2731875 0.001908321
v -0.02665223 -0.2647479 -9.799565E-06
v 0.125195 -0.7011236 -0.9247097
v 0.07421833 -0.6985751 -0.9862503
v 0.05645219 -0.6976125 -0.9247028
v 0.1432182 -0.7012684 -0.986446
v -0.05478498 -0.700932 -0.4026894
v -0.1216518 -0.6966715 -0.402693
v -0.1128005 0.2066351 0.0002368228
v -0.02665223 -0.2647479 -9.799565E-06
v -0.1684555 -0.2731875 0.001908321
v -0.04607597 0.2166762 -2.998338E-05
v -0.1684781 0.692797 -0.3798116
v -0.1128005 0.2066351 0.0002368228
v -0.1152045 0.693149 -0.3793424
v -0.1924644 0.5677454 -0.914211
v 0.01321188 0.2184522 -0.9351077
v -0.05564378 0.2162946 -0.9238315
v -0.143055 0.5858712 -0.9266213
v -0.2182706 0.6330333 -0.9859115
v -0.1152045 0.693149 -0.3793424
v -0.1684781 0.692797 -0.3798116
v -0.1649773 0.6330898 -0.9864531
v -0.1683185 0.6133571 -0.4146323
v -0.143055 0.5858712 -0.9266213
v -0.1924644 0.5677454 -0.914211
v -0.1125862 0.6349804 -0.4077157
v -0.1139245 0.2149134 -0.1021971
v -0.1125862 0.6349804 -0.4077157
v -0.1683185 0.6133571 -0.4146323
v -0.1125862 0.6349804 -0.4077157
v -0.1139245 0.2149134 -0.1021971
v -0.04641166 0.2176549 -0.08419235
v -0.05564378 0.2162946 -0.9238315
v -0.04641166 0.2176549 -0.08419235
v -0.1139245 0.2149134 -0.1021971
v 0.01321188 0.2184522 -0.9351077
v 0.01001134 0.2331787 -0.1225488
v 0.1436754 0.3089885 -0.1226517
v 0.221293 0.2331788 -0.221068
v 0.2341589 0.3874876 -0.2201152
v 0.02135772 0.3850574 -0.1205772
v -0.04719942 0.1404722 -0.03679691
v 0.1162625 0.3112073 -0.1483806
v -0.0506365 0.2048529 -0.03750541
v 0.1368312 0.2813368 -0.1533104
v -0.0534029 0.1839348 0.001291184
v -0.04719942 0.1404722 -0.03679691
v 0.1323725 0.3094801 -0.1286384
v -0.0506365 0.2048529 -0.03750541
v 0.1162625 0.3112073 -0.1483806
v 0.02135772 0.3850574 -0.1205772
v 0.221293 0.2331788 -0.221068
v 0.2341589 0.3874876 -0.2201152
v 0.01001134 0.2331787 -0.1225488

vn 0.7691731 0.08317055 0.6336048
vn 0.5752906 0.1580003 0.8025437
vn 0.705067 0.05538557 0.7069744
vn 0.5775161 0.1919702 0.7934875
vn 0.7578455 0.08495148 0.6468797
vn 0.6734541 -0.1520346 0.7234258
vn 0.7142515 0.0305869 0.6992204
vn 0.6068186 0.2120632 0.7660287
vn 0.7725598 0.08624045 0.6290577
vn 0.7754016 0.08133808 0.6262078
vn 0.6906962 0.03813298 0.7221389
vn 0.8324628 0.06712061 0.5500003
vn 0.8350648 0.06934284 0.5457639
vn 0.7754358 0.347246 0.5273699
vn 0.7700106 0.356608 0.5290691
vn 0.5479461 0.242057 0.8007267
vn 0.8134918 0.08876657 0.5747619
vn 0.6204188 -0.1314349 0.7731786
vn -0.6603667 -0.0372841 -0.7500172
vn -0.6107619 -0.1671116 -0.7739789
vn -0.7197294 -0.2078438 -0.6624125
vn -0.5153617 0.1501132 -0.8437227
vn -0.6120244 -0.2238064 -0.7585093
vn -0.7779711 -0.2212821 -0.5880434
vn -0.7499593 -0.09741369 -0.6542716
vn -0.8178807 -0.07762104 -0.5701278
vn -0.5690337 -0.189747 -0.8001227
vn -0.6062843 -0.1588253 -0.7792264
vn -0.7629865 -0.3303298 -0.5556378
vn -0.7741205 -0.3093178 -0.552322
vn -0.838462 -0.02765934 -0.5442573
vn -0.8348151 -0.02420954 -0.5499974
vn -0.7726805 -0.01383844 -0.634644
vn -0.7642946 0.004448926 -0.6448517
vn -0.6687842 0.02938376 -0.7428756
vn -0.5453008 0.09292245 -0.833074
vn 0.621309 -0.1011161 -0.7770134
vn 0.6216655 -0.100952 -0.7767497
vn 0.6211699 -0.1012485 -0.7771074
vn 0.6216782 -0.1008753 -0.7767494
vn 0.6228496 -0.1009068 -0.7758062
vn 0.6227019 -0.1009974 -0.775913
vn 0.6151733 -0.1035042 -0.7815676
vn 0.6145896 -0.1037153 -0.7819986
vn 0.6206364 -0.10149 -0.7775021
vn 0.6204603 -0.1016015 -0.777628
vn -0.5576907 -0.5456169 0.6255254
vn -0.6315818 -0.1867353 0.7524849
vn -0.632392 -0.1868761 0.7517691
vn -0.5504123 -0.5311005 0.6441872
vn -0.2776655 -0.8826154 0.3793281
vn -0.2874599 -0.8639279 0.4135133
vn -0.1839915 -0.938358 0.2926242
vn -0.183378 -0.9354855 0.3020546
vn -0.1058089 -0.9938734 0.03190247
vn -0.10786 -0.9934571 0.03750535
vn -0.1087938 -0.9936447 0.02883797
vn -0.09972613 -0.9943099 0.03741578
vn -0.1114706 -0.9936656 0.01415912
vn -0.1119884 -0.9936163 0.01351571
vn -0.6036125 0.388378 0.6962853
vn -0.6128044 0.1023323 0.7835802
vn -0.6121368 0.10247 0.784084
vn -0.5957286 0.4275745 0.6799163
vn -0.4545103 0.6968597 0.5548019
vn -0.6036125 0.388378 0.6962853
vn -0.4496176 0.6976455 0.5577932
vn -0.4366194 0.1614511 0.8850402
vn -0.4805938 0.1358755 0.8663525
vn -0.4867081 0.1322207 0.8634999
vn -0.4306115 0.1648524 0.8873537
vn 0.1340909 0.9801119 -0.1462799
vn 0.1312348 0.9802572 -0.1478881
vn 0.1310469 0.9802663 -0.1479938
vn 0.134276 0.9801021 -0.1461756
vn 0.1635467 -0.9265837 0.3386636
vn 0.1669142 -0.9250072 0.3413197
vn 0.1672296 -0.9248584 0.3415683
vn 0.1633151 -0.9266913 0.3384808
vn 0.6314328 -0.6515464 -0.4204503
vn 0.6750597 -0.6400216 -0.3669677
vn 0.679438 -0.6386331 -0.3612619
vn 0.6750597 -0.6400216 -0.3669677
vn 0.6314328 -0.6515464 -0.4204503
vn 0.6280142 -0.6522868 -0.4244038
vn 0.05091998 0.9946435 -0.08993916
vn 0.04475512 0.9944927 -0.09475654
vn 0.04435128 0.9944807 -0.09507184
vn 0.05123221 0.9946495 -0.08969497
vn -0.4947186 -0.1710943 0.8520442
vn -0.2392842 0.05149284 0.9695828
vn 0.01816007 -0.2283143 0.9734176
vn 0.049775 0.2492741 0.9671527
vn -0.4675909 0.3093358 0.8280514
vn 0.3890798 -0.8036081 0.4503657
vn -0.1784791 0.5634832 -0.8066168
vn -0.2889154 0.7028387 -0.6500342
vn 0.4871729 -0.8732952 -0.004009187
vn -0.0734449 0.09179558 0.9930654
vn 0.3890798 -0.8036081 0.4503657
vn -0.2274968 0.4648939 0.8556387
vn -0.2889154 0.7028387 -0.6500342
vn -0.1784791 0.5634832 -0.8066168
vn 0.2377004 -0.04256894 -0.9704049
vn 0.2372383 -0.04318132 -0.970491
vn 0.23661 -0.0440135 -0.9706069
vn 0.2383392 -0.04172215 -0.9702849

vt 0.8007813 0.2802734
vt 0.7924805 0.2402344
vt 0.7924805 0.2800293
vt 0.8007813 0.2402344
vt 0.7924805 0.3010254
vt 0.7075195 0.2802734
vt 0.6811523 0.296875
vt 0.7924805 0.3696289
vt 0.6748047 0.3696289
vt 0.6630859 0.3693848
vt 0.6630859 0.3015137
vt 0.7163086 0.4389648
vt 0.7202148 0.4306641
vt 0.8012695 0.4389648
vt 0.7924805 0.4306641
vt 0.8007813 0.3693848
vt 0.8007813 0.3012695
vt 0.7192383 0.2402344
vt 0.9345703 0.2856445
vt 0.8569336 0.2495117
vt 0.8569336 0.2851563
vt 0.9238281 0.2495117
vt 0.8496094 0.2495117
vt 0.8496094 0.2854004
vt 0.8574219 0.3039551
vt 0.8496094 0.3041992
vt 0.8496094 0.3642578
vt 0.8588867 0.3654785
vt 0.859375 0.418457
vt 0.8500977 0.4287109
vt 0.9223633 0.4182129
vt 0.9272461 0.4284668
vt 0.9624023 0.3652344
vt 0.9750977 0.3642578
vt 0.9584961 0.2993164
vt 0.9750977 0.3032227
vt 0.9814453 0.05032349
vt 0.9667969 0.07122803
vt 0.9682617 0.05047607
vt 0.9829102 0.07147217
vt 0.9731445 0.1386719
vt 0.9643555 0.137207
vt 0.956543 0.2064209
vt 0.9492188 0.2064209
vt 0.9785156 0.01055908
vt 0.96875 0.01118469
vt 0.987793 0.2230225
vt 0.9770508 0.2648926
vt 0.9863281 0.2644043
vt 0.9741211 0.2235107
vt 0.9892578 0.192749
vt 0.972168 0.1925049
vt 0.9921875 0.173584
vt 0.9726563 0.173584
vt 0.8569336 0.2408447
vt 0.8496094 0.2495117
vt 0.8569336 0.2495117
vt 0.8496094 0.2408447
vt 0.9238281 0.2408447
vt 0.9238281 0.2495117
vt 0.9750977 0.3642578
vt 0.9931641 0.3041992
vt 0.9750977 0.3032227
vt 0.9833984 0.3654785
vt 0.9580078 0.442627
vt 0.9750977 0.3642578
vt 0.9648438 0.4428711
vt 0.784668 0.4233398
vt 0.7924805 0.3696289
vt 0.7832031 0.3786621
vt 0.7924805 0.4306641
vt 0.8500977 0.4287109
vt 0.9272461 0.4353027
vt 0.9272461 0.4284668
vt 0.8500977 0.4355469
vt 0.7241211 0.4228516
vt 0.7924805 0.4306641
vt 0.7851563 0.4228516
vt 0.7202148 0.4306641
vt 0.6928711 0.3789063
vt 0.7202148 0.4306641
vt 0.7246094 0.423584
vt 0.7202148 0.4306641
vt 0.6928711 0.3789063
vt 0.6748047 0.3696289
vt 0.7836914 0.3786621
vt 0.6748047 0.3696289
vt 0.6928711 0.3789063
vt 0.7924805 0.3696289
vt 0.07647705 0.001289368
vt 0.06060791 0.01182556
vt 0.04473877 0.001289368
vt 0.04473877 0.02235413
vt 0.07647705 0.02235413
vt 0.08239746 0.03106689
vt 0.1083374 0.02719116
vt 0.08288574 0.02360535
vt 0.1080322 0.03198242
vt 0.08239746 0.0385437
vt 0.08239746 0.03106689
vt 0.1080322 0.0368042
vt 0.08288574 0.04360962
vt 0.1083374 0.0401001
vt 0.128418 0.02171326
vt 0.1000366 0.001502037
vt 0.1000366 0.02171326
vt 0.128418 0.001502037

g door_frontL_10639_113
usemtl door_frontL_10639_113
usemap door_frontL_10639_113
f 1/1/1 3/3/3 2/2/2
f 2/2/2 4/4/4 1/1/1
f 5/5/5 3/3/3 1/1/1
f 6/6/6 3/3/3 5/5/5
f 5/5/5 7/7/7 6/6/6
f 7/7/7 5/5/5 8/8/8
f 8/8/8 9/9/9 7/7/7
f 7/7/7 9/9/9 10/10/10
f 10/10/10 11/11/11 7/7/7
f 12/12/12 10/10/10 9/9/9
f 9/9/9 13/13/13 12/12/12
f 14/14/14 12/12/12 13/13/13
f 13/13/13 15/15/15 14/14/14
f 15/15/15 8/8/8 16/16/16
f 16/16/16 14/14/14 15/15/15
f 17/17/17 16/16/16 8/8/8
f 8/8/8 5/5/5 17/17/17
f 1/1/1 17/17/17 5/5/5
f 3/3/3 6/6/6 18/18/18
f 18/18/18 2/2/2 3/3/3
f 19/19/19 21/21/21 20/20/20
f 20/20/20 22/22/22 19/19/19
f 23/23/23 20/20/20 21/21/21
f 21/21/21 24/24/24 23/23/23
f 24/24/24 21/21/21 25/25/25
f 25/25/25 21/21/21 19/19/19
f 25/25/25 26/26/26 24/24/24
f 27/27/27 26/26/26 25/25/25
f 25/25/25 28/28/28 27/27/27
f 27/27/27 28/28/28 29/29/29
f 29/29/29 30/30/30 27/27/27
f 30/30/30 29/29/29 31/31/31
f 31/31/31 32/32/32 30/30/30
f 32/32/32 31/31/31 33/33/33
f 33/33/33 34/34/34 32/32/32
f 34/34/34 33/33/33 35/35/35
f 28/28/28 25/25/25 35/35/35
f 35/35/35 33/33/33 28/28/28
f 35/35/35 36/36/36 34/34/34
f 19/19/19 35/35/35 25/25/25
f 37/37/37 39/39/39 38/38/38
f 38/38/38 40/40/40 37/37/37
f 41/41/41 40/40/40 38/38/38
f 38/38/38 42/42/42 41/41/41
f 43/43/43 41/41/41 42/42/42
f 42/42/42 44/44/44 43/43/43
f 39/39/39 37/37/37 45/45/45
f 45/45/45 46/46/46 39/39/39
f 47/47/47 49/49/49 48/48/48
f 48/48/48 50/50/50 47/47/47
f 51/51/51 47/47/47 50/50/50
f 50/50/50 52/52/52 51/51/51
f 53/53/53 51/51/51 52/52/52
f 52/52/52 54/54/54 53/53/53
f 55/55/55 57/57/57 56/56/56
f 56/56/56 58/58/58 55/55/55
f 57/57/57 55/55/55 59/59/59
f 59/59/59 60/60/60 57/57/57
f 61/61/61 63/63/63 62/62/62
f 62/62/62 64/64/64 61/61/61
f 65/65/65 66/66/66 64/64/64
f 64/64/64 67/67/67 65/65/65
f 68/68/68 70/70/70 69/69/69
f 69/69/69 71/71/71 68/68/68
f 72/72/72 74/74/74 73/73/73
f 73/73/73 75/75/75 72/72/72
f 76/76/76 78/78/78 77/77/77
f 77/77/77 79/79/79 76/76/76
f 80/80/80 82/82/82 81/81/81
f 83/83/83 85/85/85 84/84/84
f 86/86/86 88/88/88 87/87/87
f 87/87/87 89/89/89 86/86/86
f 90/90/90 92/92/92 91/91/91
f 92/92/92 93/93/93 91/91/91
f 93/93/93 94/94/94 91/91/91
f 94/94/94 90/90/90 91/91/91
f 95/95/95 97/97/97 96/96/96
f 96/96/96 98/98/98 95/95/95
f 99/99/99 100/100/100 98/98/98
f 98/98/98 101/101/101 99/99/99
f 102/102/102 99/99/99 101/101/101
f 101/101/101 103/103/103 102/102/102
f 104/104/104 106/106/106 105/105/105
f 105/105/105 107/107/107 104/104/104
