#door08_11310_236.obj

v -0.2499961 2.149999 0.5999927
v 0.05000369 2.149999 -0.6000081
v 0.05000373 2.149999 0.5999929
v -0.2499962 2.15 -0.6000082
v -0.2499964 0.04999914 0.5999869
v 0.05000373 2.149999 0.5999929
v 0.05000389 0.04999899 0.599987
v -0.2499961 2.149999 0.5999927
v 0.05000387 0.05000005 -0.6000075
v -0.2499962 2.15 -0.6000082
v -0.249996 0.05 -0.6000077
v 0.05000369 2.149999 -0.6000081
v 0.05000371 2.049999 -0.500006
v -0.249996 0.04999983 -0.5000087
v -0.2499962 2.05 -0.5000061
v 0.05000387 0.04999989 -0.5000085
v -0.2499962 2.05 -0.5000061
v 0.05000373 2.049999 0.4999906
v 0.05000371 2.049999 -0.500006
v -0.2499961 2.049999 0.4999904
v -0.2499961 2.049999 0.4999904
v 0.05000389 0.04999916 0.499988
v 0.05000373 2.049999 0.4999906
v -0.2499964 0.0499991 0.4999879
v -0.2499962 2.05 -0.5000061
v -0.249996 0.05 -0.6000077
v -0.2499962 2.15 -0.6000082
v -0.249996 0.04999983 -0.5000087
v 0.05000387 0.05000005 -0.6000075
v 0.05000371 2.049999 -0.500006
v 0.05000369 2.149999 -0.6000081
v 0.05000387 0.04999989 -0.5000085
v -0.2499961 2.049999 0.4999904
v -0.2499964 0.04999914 0.5999869
v -0.2499964 0.0499991 0.4999879
v -0.2499961 2.149999 0.5999927
v 0.05000389 0.04999899 0.599987
v 0.05000373 2.049999 0.4999906
v 0.05000389 0.04999916 0.499988
v 0.05000373 2.149999 0.5999929
v 0.05000373 2.149999 0.5999929
v 0.05000371 2.049999 -0.500006
v 0.05000373 2.049999 0.4999906
v 0.05000369 2.149999 -0.6000081
v -0.2499962 2.05 -0.5000061
v -0.2499961 2.149999 0.5999927
v -0.2499961 2.049999 0.4999904
v -0.2499962 2.15 -0.6000082
v -0.2499878 0.0549993 0.4999931
v 0.05001205 0.05500075 -0.5000097
v 0.0500121 0.05499936 0.4999932
v -0.2499878 0.0550007 -0.5000098
v 0.0500121 0.05499936 0.4999932
v 0.05001261 7.983302E-07 -0.5000103
v 0.05001266 -5.937729E-07 0.4999927
v 0.05001205 0.05500075 -0.5000097
v -0.2499873 7.454661E-07 -0.5000104
v -0.2499878 0.0549993 0.4999931
v -0.249988 -6.455886E-07 0.4999925
v -0.2499878 0.0550007 -0.5000098

vn 0.020567 0.9997877 0.001319169
vn 0.020567 0.9997877 0.001319169
vn 0.020567 0.9997877 0.001319169
vn 0.020567 0.9997877 0.001319169
vn 0.9997784 -0.02057273 0.004530101
vn 0.9997784 -0.02057273 0.004530101
vn 0.9997784 -0.02057273 0.004530101
vn 0.9997784 -0.02057273 0.004530101
vn -0.9997784 0.02057266 -0.004530102
vn -0.9997784 0.02057266 -0.004530102
vn -0.9997784 0.02057266 -0.004530102
vn -0.9997784 0.02057266 -0.004530102
vn 0.9997784 -0.02057268 0.004530101
vn 0.9997784 -0.02057268 0.004530101
vn 0.9997784 -0.02057268 0.004530101
vn 0.9997784 -0.02057268 0.004530101
vn -0.02056698 -0.9997877 -0.001319169
vn -0.02056698 -0.9997877 -0.001319169
vn -0.02056698 -0.9997877 -0.001319169
vn -0.02056698 -0.9997877 -0.001319169
vn -0.9997784 0.02057276 -0.004530101
vn -0.9997784 0.02057276 -0.004530101
vn -0.9997784 0.02057276 -0.004530101
vn -0.9997784 0.02057276 -0.004530101
vn -0.00455603 -0.001225705 0.9999889
vn -0.00455603 -0.001225705 0.9999889
vn -0.00455603 -0.001225705 0.9999889
vn -0.00455603 -0.001225705 0.9999889
vn 0.00455603 0.001225705 -0.9999889
vn 0.00455603 0.001225705 -0.9999889
vn 0.00455603 0.001225705 -0.9999889
vn 0.00455603 0.001225705 -0.9999889
vn -0.00455603 -0.001225705 0.9999889
vn -0.00455603 -0.001225705 0.9999889
vn -0.00455603 -0.001225705 0.9999889
vn -0.00455603 -0.001225705 0.9999889
vn 0.00455603 0.001225705 -0.9999889
vn 0.00455603 0.001225705 -0.9999889
vn 0.00455603 0.001225705 -0.9999889
vn 0.00455603 0.001225705 -0.9999889
vn 0.00455603 0.001225705 -0.9999889
vn 0.00455603 0.001225705 -0.9999889
vn 0.00455603 0.001225705 -0.9999889
vn 0.00455603 0.001225705 -0.9999889
vn -0.00455603 -0.001225705 0.9999889
vn -0.00455603 -0.001225705 0.9999889
vn -0.00455603 -0.001225705 0.9999889
vn -0.00455603 -0.001225705 0.9999889
vn 0.02056786 0.9997877 0.001319173
vn 0.02056786 0.9997877 0.001319173
vn 0.02056786 0.9997877 0.001319173
vn 0.02056786 0.9997877 0.001319173
vn 0.00455603 0.001225705 -0.9999889
vn 0.00455603 0.001225705 -0.9999889
vn 0.00455603 0.001225705 -0.9999889
vn 0.00455603 0.001225705 -0.9999889
vn -0.00455603 -0.001225705 0.9999889
vn -0.00455603 -0.001225705 0.9999889
vn -0.00455603 -0.001225705 0.9999889
vn -0.00455603 -0.001225705 0.9999889

vt 0.9316406 0.7382813
vt 0.8989258 0.605957
vt 0.8989258 0.7382813
vt 0.9316406 0.605957
vt 0.8989258 0.5097656
vt 0.9316406 0.7412109
vt 0.9316406 0.5097656
vt 0.8989258 0.7412109
vt 0.9316406 0.5097656
vt 0.8989258 0.7412109
vt 0.8989258 0.5097656
vt 0.9316406 0.7412109
vt 0.8989258 0.7280273
vt 0.9316406 0.5078125
vt 0.9316406 0.7280273
vt 0.8989258 0.5078125
vt 0.8989258 0.6176758
vt 0.9316406 0.7280273
vt 0.9316406 0.6176758
vt 0.8989258 0.7280273
vt 0.9316406 0.7280273
vt 0.8989258 0.5078125
vt 0.8989258 0.7280273
vt 0.9316406 0.5078125
vt 0.9316406 0.7280273
vt 0.9428711 0.5078125
vt 0.9428711 0.7387695
vt 0.9316406 0.5078125
vt 0.9316406 0.5097656
vt 0.9428711 0.7299805
vt 0.9316406 0.7412109
vt 0.9428711 0.5097656
vt 0.9316406 0.7280273
vt 0.9428711 0.5078125
vt 0.9316406 0.5078125
vt 0.9428711 0.7387695
vt 0.9316406 0.5097656
vt 0.9428711 0.7299805
vt 0.9428711 0.5097656
vt 0.9316406 0.7412109
vt 0.9428711 0.7387695
vt 0.9316406 0.6176758
vt 0.9316406 0.7280273
vt 0.9428711 0.6069336
vt 0.9428711 0.6171875
vt 0.9316406 0.7382813
vt 0.9428711 0.7270508
vt 0.9316406 0.605957
vt 0.9316406 0.6352539
vt 0.9003906 0.5078125
vt 0.9003906 0.6352539
vt 0.9316406 0.5078125
vt 0.9428711 0.6352539
vt 0.9316406 0.5078125
vt 0.9316406 0.6352539
vt 0.9428711 0.5078125
vt 0.9433594 0.5078125
vt 0.9316406 0.6352539
vt 0.9433594 0.6352539
vt 0.9316406 0.5078125

g door08_11310_236
usemtl door08_11310_236
usemap door08_11310_236
f 1/1/1 3/3/3 2/2/2
f 2/2/2 4/4/4 1/1/1
f 5/5/5 7/7/7 6/6/6
f 6/6/6 8/8/8 5/5/5
f 9/9/9 11/11/11 10/10/10
f 10/10/10 12/12/12 9/9/9
f 13/13/13 15/15/15 14/14/14
f 14/14/14 16/16/16 13/13/13
f 17/17/17 19/19/19 18/18/18
f 18/18/18 20/20/20 17/17/17
f 21/21/21 23/23/23 22/22/22
f 22/22/22 24/24/24 21/21/21
f 25/25/25 27/27/27 26/26/26
f 26/26/26 28/28/28 25/25/25
f 29/29/29 31/31/31 30/30/30
f 30/30/30 32/32/32 29/29/29
f 33/33/33 35/35/35 34/34/34
f 34/34/34 36/36/36 33/33/33
f 37/37/37 39/39/39 38/38/38
f 38/38/38 40/40/40 37/37/37
f 41/41/41 43/43/43 42/42/42
f 42/42/42 44/44/44 41/41/41
f 45/45/45 47/47/47 46/46/46
f 46/46/46 48/48/48 45/45/45
f 49/49/49 51/51/51 50/50/50
f 50/50/50 52/52/52 49/49/49
f 53/53/53 55/55/55 54/54/54
f 54/54/54 56/56/56 53/53/53
f 57/57/57 59/59/59 58/58/58
f 58/58/58 60/60/60 57/57/57
