#door06_10563_296.obj

v -0.07507492 9.548306E-09 4.444349E-06
v 0.02492609 -7.175462E-07 1.000005
v 0.02492601 9.548291E-09 4.390193E-06
v -0.07507443 -7.175464E-07 1.000004
v -0.07507484 1.999999 1.000004
v 0.0249256 2 4.538185E-06
v 0.02492568 1.999999 1.000005
v -0.07507492 2 3.911716E-06
v -0.07507492 2 3.911716E-06
v 0.02492601 9.548291E-09 4.390193E-06
v 0.0249256 2 4.538185E-06
v -0.07507492 9.548306E-09 4.444349E-06
v 0.02492568 1.999999 1.000005
v -0.07507443 -7.175464E-07 1.000004
v -0.07507484 1.999999 1.000004
v 0.02492609 -7.175462E-07 1.000005
v 0.02492609 -7.175462E-07 1.000005
v 0.0249256 2 4.538185E-06
v 0.02492601 9.548291E-09 4.390193E-06
v 0.02492568 1.999999 1.000005
v -0.07507484 1.999999 1.000004
v -0.07507492 9.548306E-09 4.444349E-06
v -0.07507492 2 3.911716E-06
v -0.07507443 -7.175464E-07 1.000004
v -0.1250743 1.104778 0.9229153
v -0.1104265 1.129778 0.8979147
v -0.1104242 1.140133 0.9229163
v -0.1104243 1.104778 0.8875544
v -0.1104265 1.079778 0.8979147
v -0.1104242 1.069422 0.9229163
v -0.1104243 1.079777 0.9479155
v -0.1104251 1.104777 0.9582674
v -0.1104243 1.129778 0.9479155
v -0.07507277 1.140133 0.8875545
v -0.07507228 1.154778 0.9229158
v -0.07507442 1.104778 0.872915
v -0.07507277 1.069422 0.8875546
v -0.07507228 1.054778 0.9229158
v -0.07507314 1.069422 0.9582669
v -0.07507328 1.104777 0.9729156
v -0.07507314 1.140133 0.9582669
v 0.07492714 1.104778 0.9229159
v 0.06027655 1.129778 0.9479148
v 0.06027705 1.140133 0.9229149
v 0.06027892 1.104777 0.9582677
v 0.06027655 1.079777 0.9479148
v 0.06027705 1.069422 0.9229149
v 0.06027755 1.079778 0.897915
v 0.06027697 1.104778 0.887553
v 0.06027755 1.129778 0.897915
v 0.02492738 1.140133 0.9582675
v 0.02492551 1.154778 0.9229147
v 0.02492724 1.104777 0.9729162
v 0.02492738 1.069422 0.9582675
v 0.02492551 1.054778 0.9229147
v 0.02492503 1.069422 0.8875536
v 0.0249261 1.104778 0.8729156
v 0.02492503 1.140133 0.8875535

vn -5.420045E-07 -0.9999993 -8.991059E-07
vn -5.420045E-07 -0.9999993 -8.991059E-07
vn -5.420045E-07 -0.9999993 -8.991059E-07
vn -5.420045E-07 -0.9999993 -8.991059E-07
vn 5.567751E-07 0.9999993 9.236084E-07
vn 5.567751E-07 0.9999993 9.236084E-07
vn 5.567751E-07 0.9999993 9.236084E-07
vn 5.567751E-07 0.9999993 9.236084E-07
vn -0.5162744 3.345819E-07 -0.8564236
vn -0.5162744 3.345819E-07 -0.8564236
vn -0.5162744 3.345819E-07 -0.8564236
vn -0.5162744 3.345819E-07 -0.8564236
vn 0.5162744 -3.155085E-07 0.8564236
vn 0.5162744 -3.155085E-07 0.8564236
vn 0.5162744 -3.155084E-07 0.8564236
vn 0.5162744 -3.155084E-07 0.8564236
vn 0.8564233 -6.03026E-14 -0.5162742
vn 0.8564233 -6.03026E-14 -0.5162742
vn 0.8564233 -6.03026E-14 -0.5162742
vn 0.8564233 -6.03026E-14 -0.5162742
vn -0.8564233 6.03026E-14 0.5162742
vn -0.8564233 6.03026E-14 0.5162742
vn -0.8564233 6.03026E-14 0.5162742
vn -0.8564233 6.03026E-14 0.5162742
vn -0.8564109 8.360823E-07 0.5162948
vn -0.8410903 0.5293769 -0.1110264
vn -0.5678011 0.7486209 0.3422982
vn -0.9542874 5.868945E-05 -0.2988911
vn -0.8410813 -0.529406 -0.110957
vn -0.5677959 -0.7486296 0.3422875
vn -0.2944847 -0.5293503 0.795655
vn -0.1813278 3.656718E-05 0.9834229
vn -0.2944482 0.5293278 0.7956834
vn -0.6651186 0.6531992 -0.3618669
vn -0.3277462 0.9238666 0.1976152
vn -0.804695 5.572617E-05 -0.5936889
vn -0.6650555 -0.6532613 -0.3618707
vn -0.3277624 -0.9238597 0.1976204
vn 0.009536266 -0.6533172 0.7570241
vn 0.1491555 3.414145E-05 0.988814
vn 0.009513974 0.6532757 0.7570602
vn 0.8564357 8.417317E-07 -0.5162537
vn 0.8410993 0.5293478 0.1110977
vn 0.5678038 0.7486285 -0.3422767
vn 0.9543053 -3.73345E-05 0.2988338
vn 0.8411048 -0.5293298 0.1111407
vn 0.5678108 -0.748621 -0.3422814
vn 0.2945431 -0.5293741 -0.7956175
vn 0.1812685 -5.818665E-05 -0.9834338
vn 0.2946001 0.529407 -0.7955744
vn 0.6649849 0.653315 0.3619036
vn 0.3277971 0.923859 -0.197566
vn 0.804763 -3.547348E-05 0.5935966
vn 0.6650228 -0.6532775 0.3619017
vn 0.3277792 -0.9238681 -0.1975532
vn -0.009439468 -0.6531988 -0.7571273
vn -0.1492683 -5.437189E-05 -0.988797
vn -0.009475559 0.6532609 -0.7570733

vt 0.2641602 0.2631836
vt 0.3745117 0.2521973
vt 0.2641602 0.2521973
vt 0.3745117 0.2631836
vt 0.3745117 0.4836426
vt 0.2641602 0.4946289
vt 0.3745117 0.4946289
vt 0.2641602 0.4836426
vt 0.2641602 0.4836426
vt 0.2531738 0.2631836
vt 0.2531738 0.4836426
vt 0.2641602 0.2631836
vt 0.385498 0.4836426
vt 0.3745117 0.2631836
vt 0.3745117 0.4836426
vt 0.385498 0.2631836
vt 0.3745117 0.2631836
vt 0.2641602 0.4836426
vt 0.2641602 0.2631836
vt 0.3745117 0.4836426
vt 0.3745117 0.4836426
vt 0.2641602 0.2631836
vt 0.2641602 0.4836426
vt 0.3745117 0.2631836
vt 0.3830566 0.4924316
vt 0.3813477 0.4941406
vt 0.3830566 0.4946289
vt 0.3808594 0.4924316
vt 0.3813477 0.4907227
vt 0.3830566 0.4899902
vt 0.3847656 0.4907227
vt 0.385498 0.4924316
vt 0.3847656 0.4941406
vt 0.3796387 0.4958496
vt 0.3830566 0.4973145
vt 0.3781738 0.4924316
vt 0.3796387 0.4890137
vt 0.3830566 0.4875488
vt 0.3864746 0.4890137
vt 0.3879395 0.4924316
vt 0.3864746 0.4958496
vt 0.3830566 0.4924316
vt 0.3813477 0.4941406
vt 0.3830566 0.4946289
vt 0.3808594 0.4924316
vt 0.3813477 0.4907227
vt 0.3830566 0.4899902
vt 0.3847656 0.4907227
vt 0.385498 0.4924316
vt 0.3847656 0.4941406
vt 0.3796387 0.4958496
vt 0.3830566 0.4973145
vt 0.3781738 0.4924316
vt 0.3796387 0.4890137
vt 0.3830566 0.4875488
vt 0.3864746 0.4890137
vt 0.3879395 0.4924316
vt 0.3864746 0.4958496

g door06_10563_296
usemtl door06_10563_296
usemap door06_10563_296
f 1/1/1 3/3/3 2/2/2
f 2/2/2 4/4/4 1/1/1
f 5/5/5 7/7/7 6/6/6
f 6/6/6 8/8/8 5/5/5
f 9/9/9 11/11/11 10/10/10
f 10/10/10 12/12/12 9/9/9
f 13/13/13 15/15/15 14/14/14
f 14/14/14 16/16/16 13/13/13
f 17/17/17 19/19/19 18/18/18
f 18/18/18 20/20/20 17/17/17
f 21/21/21 23/23/23 22/22/22
f 22/22/22 24/24/24 21/21/21
f 25/25/25 27/27/27 26/26/26
f 25/25/25 26/26/26 28/28/28
f 25/25/25 28/28/28 29/29/29
f 25/25/25 29/29/29 30/30/30
f 25/25/25 30/30/30 31/31/31
f 25/25/25 31/31/31 32/32/32
f 25/25/25 32/32/32 33/33/33
f 25/25/25 33/33/33 27/27/27
f 34/34/34 26/26/26 27/27/27
f 27/27/27 35/35/35 34/34/34
f 35/35/35 27/27/27 33/33/33
f 36/36/36 28/28/28 26/26/26
f 26/26/26 34/34/34 36/36/36
f 37/37/37 29/29/29 28/28/28
f 28/28/28 36/36/36 37/37/37
f 38/38/38 30/30/30 29/29/29
f 29/29/29 37/37/37 38/38/38
f 39/39/39 31/31/31 30/30/30
f 30/30/30 38/38/38 39/39/39
f 40/40/40 32/32/32 31/31/31
f 31/31/31 39/39/39 40/40/40
f 41/41/41 33/33/33 32/32/32
f 32/32/32 40/40/40 41/41/41
f 33/33/33 41/41/41 35/35/35
f 42/42/42 44/44/44 43/43/43
f 42/42/42 43/43/43 45/45/45
f 42/42/42 45/45/45 46/46/46
f 42/42/42 46/46/46 47/47/47
f 42/42/42 47/47/47 48/48/48
f 42/42/42 48/48/48 49/49/49
f 42/42/42 49/49/49 50/50/50
f 42/42/42 50/50/50 44/44/44
f 51/51/51 43/43/43 44/44/44
f 44/44/44 52/52/52 51/51/51
f 52/52/52 44/44/44 50/50/50
f 53/53/53 45/45/45 43/43/43
f 43/43/43 51/51/51 53/53/53
f 54/54/54 46/46/46 45/45/45
f 45/45/45 53/53/53 54/54/54
f 55/55/55 47/47/47 46/46/46
f 46/46/46 54/54/54 55/55/55
f 56/56/56 48/48/48 47/47/47
f 47/47/47 55/55/55 56/56/56
f 57/57/57 49/49/49 48/48/48
f 48/48/48 56/56/56 57/57/57
f 58/58/58 50/50/50 49/49/49
f 49/49/49 57/57/57 58/58/58
f 50/50/50 58/58/58 52/52/52
