#door_front02_9105_89.obj

v -0.01533319 -0.06296957 -0.04010988
v -0.05143172 0.09897327 -0.364818
v -0.01544482 0.1117044 -0.04211435
v -0.04562516 -0.07206156 -0.3630856
v -0.0150104 -0.8706398 -0.03114772
v -0.01496354 -1.086106 -0.3844459
v -0.02096957 -0.8709377 -0.3553352
v -0.01496152 -1.086127 -0.0001236531
v -0.01590999 1.028591 -0.04369877
v -0.01505127 1.062872 -0.01352618
v -0.08186957 0.9850313 -0.3661909
v -0.01505127 1.062872 -0.01352618
v -0.01590999 1.028591 -0.04369877
v -0.09429252 1.00963 -0.3957284
v -0.02096957 -0.8709377 -0.3553352
v -0.09429252 1.00963 -0.3957284
v -0.08186957 0.9850313 -0.3661909
v -0.09429252 1.00963 -0.3957284
v -0.02096957 -0.8709377 -0.3553352
v -0.01496354 -1.086106 -0.3844459
v 0.0145321 0.1103519 -0.04310047
v -0.01571577 -0.07300944 -0.3637977
v 0.01465023 -0.06404802 -0.0409321
v -0.02156227 0.09777761 -0.3656709
v 0.01503689 -1.086115 -0.3844523
v 0.01499273 -0.8707461 -0.03124039
v 0.009032133 -0.87103 -0.3554151
v 0.01503849 -1.086137 -0.0001350857
v 0.01493079 1.060371 -0.01462913
v 0.01404063 1.026119 -0.04481419
v -0.05214611 0.9827198 -0.3671527
v 0.01493079 1.060371 -0.01462913
v -0.05214611 0.9827198 -0.3671527
v 0.01404063 1.026119 -0.04481419
v -0.06457106 1.007312 -0.3966546
v 0.01503689 -1.086115 -0.3844523
v -0.05214611 0.9827198 -0.3671527
v -0.06457106 1.007312 -0.3966546
v -0.01533319 -0.06296957 -0.04010988
v 0.0145321 0.1103519 -0.04310047
v 0.01465023 -0.06404802 -0.0409321
v -0.01544482 0.1117044 -0.04211435
v -0.05143172 0.09897327 -0.364818
v -0.02156227 0.09777761 -0.3656709
v -0.01571577 -0.07300944 -0.3637977
v -0.04562516 -0.07206156 -0.3630856
v 0.01503689 -1.086115 -0.3844523
v -0.01496152 -1.086127 -0.0001236531
v 0.01503849 -1.086137 -0.0001350857
v -0.01496354 -1.086106 -0.3844459
v 0.01493079 1.060371 -0.01462913
v -0.01505127 1.062872 -0.01352618
v -0.09429252 1.00963 -0.3957284
v -0.06457106 1.007312 -0.3966546
v 0.01499273 -0.8707461 -0.03124039
v -0.02096957 -0.8709377 -0.3553352
v 0.009032133 -0.87103 -0.3554151
v -0.0150104 -0.8706398 -0.03114772
v -0.01590999 1.028591 -0.04369877
v 0.01404063 1.026119 -0.04481419
v -0.05214611 0.9827198 -0.3671527
v -0.08186957 0.9850313 -0.3661909

vn -0.7247348 0.0006394984 -0.6890278
vn -0.7247348 0.0006394982 -0.6890278
vn -0.7247348 0.0006394984 -0.6890278
vn -0.7128207 -0.03281032 -0.7005785
vn -0.6576016 -0.03038182 -0.7527531
vn -0.6576016 -0.03038182 -0.7527531
vn -0.6576016 -0.03038182 -0.7527531
vn -0.6439306 -0.000212368 -0.7650839
vn -0.6424682 -0.0004873216 -0.7663123
vn -0.6652642 0.0001337049 -0.7466081
vn -0.7865745 -0.1690844 -0.5938949
vn -0.7865745 -0.1690844 -0.5938949
vn -0.7865745 -0.1690844 -0.5938949
vn -0.7858121 -0.2086922 -0.5821915
vn -0.8796772 -0.02835665 -0.4747251
vn -0.8796772 -0.02835665 -0.4747251
vn -0.8796772 -0.02835665 -0.474725
vn -0.6957785 -0.03735257 -0.7172846
vn -0.6957785 -0.03735256 -0.7172846
vn -0.6957785 -0.03735256 -0.7172846
vn 0.7127358 -0.0004869224 0.7014325
vn 0.7127358 -0.0004869224 0.7014325
vn 0.7127358 -0.0004869224 0.7014325
vn 0.7255002 0.03276017 0.6874419
vn 0.6576008 0.03038976 0.7527535
vn 0.6576008 0.03038976 0.7527535
vn 0.6576008 0.03038976 0.7527535
vn 0.64393 0.0002139592 0.7650845
vn 0.6664078 0.0002872169 0.7455874
vn 0.6664078 0.0002872169 0.7455874
vn 0.6706231 0.03273487 0.7410756
vn 0.7869902 0.1689831 0.5933726
vn 0.7869902 0.1689831 0.5933726
vn 0.7869902 0.1689831 0.5933726
vn 0.7862146 0.2085055 0.5817146
vn 0.8780258 0.03326877 0.4774559
vn 0.8780258 0.03326876 0.4774558
vn 0.8780258 0.03326877 0.4774559
vn -0.551163 -0.6977819 0.4575133
vn -0.5121292 0.6969539 0.5019739
vn -0.5605989 -0.6846781 0.4657719
vn -0.4668871 0.7518927 0.4654804
vn 0.5617072 0.685472 -0.463262
vn 0.5591021 0.6887425 -0.4615595
vn 0.4787593 -0.7506911 -0.455248
vn 0.5275607 -0.6903576 -0.4950603
vn 0.5324979 -0.7175409 -0.4489759
vn -0.542787 -0.7045692 0.4571248
vn -0.5426833 -0.7049044 0.4567306
vn 0.5456707 -0.7005922 -0.4597962
vn -0.490886 0.6969659 0.5227504
vn -0.386222 0.8100579 0.4411767
vn 0.6062031 0.6370153 -0.4761597
vn 0.5947917 0.6561587 -0.4644107
vn 0.5450038 0.7018361 -0.4586889
vn -0.5449545 0.6981823 0.4642894
vn -0.5273483 0.7212099 0.4491753
vn 0.5413084 0.7069587 -0.4551847
vn 0.3889606 -0.8081278 -0.442309
vn 0.4908856 -0.6968116 -0.5229567
vn -0.5931119 -0.6581439 0.4637495
vn -0.6045825 -0.6382384 0.476582

vt 0.1726074 0.5839844
vt 0.1442871 0.5996094
vt 0.1726074 0.5996094
vt 0.1442871 0.5839844
vt 0.1726074 0.5126953
vt 0.1417236 0.4936523
vt 0.1442871 0.5126953
vt 0.1751709 0.4936523
vt 0.1726074 0.6801758
vt 0.1751709 0.6831055
vt 0.1442871 0.6801758
vt 0.1751709 0.6831055
vt 0.1726074 0.6801758
vt 0.1417236 0.6831055
vt 0.1442871 0.5126953
vt 0.1417236 0.6831055
vt 0.1442871 0.6801758
vt 0.1417236 0.6831055
vt 0.1442871 0.5126953
vt 0.1417236 0.4936523
vt 0.1726074 0.5996094
vt 0.1442871 0.5839844
vt 0.1726074 0.5839844
vt 0.1442871 0.5996094
vt 0.1417236 0.4936523
vt 0.1726074 0.5126953
vt 0.1442871 0.5126953
vt 0.1751709 0.4936523
vt 0.1751709 0.6831055
vt 0.1726074 0.6801758
vt 0.1442871 0.6801758
vt 0.1751709 0.6831055
vt 0.1442871 0.6801758
vt 0.1726074 0.6801758
vt 0.1417236 0.6831055
vt 0.1417236 0.4936523
vt 0.1442871 0.6801758
vt 0.1417236 0.6831055
vt 0.1726074 0.5839844
vt 0.1726074 0.5996094
vt 0.1726074 0.5839844
vt 0.1726074 0.5996094
vt 0.1442871 0.5996094
vt 0.1442871 0.5996094
vt 0.1442871 0.5839844
vt 0.1442871 0.5839844
vt 0.1417236 0.4936523
vt 0.1751709 0.4936523
vt 0.1751709 0.4936523
vt 0.1417236 0.4936523
vt 0.1751709 0.6831055
vt 0.1751709 0.6831055
vt 0.1417236 0.6831055
vt 0.1417236 0.6831055
vt 0.1726074 0.5126953
vt 0.1442871 0.5126953
vt 0.1442871 0.5126953
vt 0.1726074 0.5126953
vt 0.1726074 0.6801758
vt 0.1726074 0.6801758
vt 0.1442871 0.6801758
vt 0.1442871 0.6801758

g door_front02_9105_89
usemtl door_front02_9105_89
usemap door_front02_9105_89
f 1/1/1 3/3/3 2/2/2
f 2/2/2 4/4/4 1/1/1
f 5/5/5 7/7/7 6/6/6
f 6/6/6 8/8/8 5/5/5
f 9/9/9 5/5/5 8/8/8
f 8/8/8 10/10/10 9/9/9
f 11/11/11 13/13/13 12/12/12
f 12/12/12 14/14/14 11/11/11
f 15/15/15 17/17/17 16/16/16
f 18/18/18 20/20/20 19/19/19
f 21/21/21 23/23/23 22/22/22
f 22/22/22 24/24/24 21/21/21
f 25/25/25 27/27/27 26/26/26
f 26/26/26 28/28/28 25/25/25
f 29/29/29 28/28/28 26/26/26
f 26/26/26 30/30/30 29/29/29
f 31/31/31 27/27/27 25/25/25
f 32/32/32 34/34/34 33/33/33
f 33/33/33 35/35/35 32/32/32
f 36/36/36 38/38/38 37/37/37
f 39/39/39 41/41/41 40/40/40
f 40/40/40 42/42/42 39/39/39
f 43/43/43 42/42/42 40/40/40
f 40/40/40 44/44/44 43/43/43
f 43/43/43 44/44/44 45/45/45
f 45/45/45 41/41/41 39/39/39
f 45/45/45 46/46/46 43/43/43
f 39/39/39 46/46/46 45/45/45
f 47/47/47 49/49/49 48/48/48
f 48/48/48 50/50/50 47/47/47
f 48/48/48 49/49/49 51/51/51
f 51/51/51 52/52/52 48/48/48
f 53/53/53 52/52/52 51/51/51
f 47/47/47 50/50/50 53/53/53
f 51/51/51 54/54/54 53/53/53
f 53/53/53 54/54/54 47/47/47
f 55/55/55 57/57/57 56/56/56
f 56/56/56 58/58/58 55/55/55
f 55/55/55 58/58/58 59/59/59
f 59/59/59 60/60/60 55/55/55
f 61/61/61 60/60/60 59/59/59
f 56/56/56 57/57/57 61/61/61
f 59/59/59 62/62/62 61/61/61
f 61/61/61 62/62/62 56/56/56
