#door_frontR_10377_1883.obj

v -0.02930647 -0.05680189 -0.1635662
v 0.02220009 0.02660095 -0.1614871
v 0.02284698 0.01431996 -0.03325216
v -0.03034785 -0.06217676 -0.007068268
v -0.01386521 -0.2414301 -0.1438063
v -0.01349831 -0.2455541 -0.007067351
v 0.2503127 0.3883965 -0.6187789
v 0.2201464 0.3454053 -0.6357962
v 0.2038295 0.4459462 -1.235709
v 0.2049342 0.3987808 -1.153137
v -0.05293728 -0.03314997 -0.9745809
v 0.002275305 0.05983061 -1.024837
v 0.001426159 0.06097813 -1.101728
v 0.2049342 0.3987808 -1.153137
v -0.05603633 -0.03021052 -1.062924
v 0.01456467 -0.5419432 -0.03328046
v 0.01202657 -0.537686 -0.1476499
v -0.05391524 -0.5325791 -1.042986
v -0.0557076 -0.2372149 -0.969492
v -0.05882504 -0.2365979 -1.059185
v -0.0567281 -0.5333081 -1.112936
v 0.07491822 0.003119628 -0.0338131
v 0.07425758 0.01507397 -0.1624769
v 0.08157058 -0.06196466 -0.1636584
v 0.08191764 -0.06740504 -0.006865211
v 0.09763454 -0.2408239 -0.1437736
v 0.1025359 -0.2449589 -0.007039147
v 0.2976896 0.3673497 -0.6209805
v 0.2673227 0.324539 -0.6377749
v 0.2576073 0.4299717 -1.238293
v 0.2578013 0.3829948 -1.154654
v 0.05320289 0.04920515 -1.101252
v 0.05399445 0.04903181 -1.024426
v 0.05832614 -0.03796959 -0.9746934
v 0.05686017 -0.03554843 -1.063298
v 0.1123768 -0.5419454 -0.03328043
v 0.1098352 -0.5376882 -0.1476654
v 0.04388978 -0.5325853 -1.043018
v 0.05588765 -0.2365661 -0.9695206
v 0.05315169 -0.2359277 -1.059305
v 0.0410744 -0.5333135 -1.112956
v -0.03034785 -0.06217676 -0.007068268
v 0.02284698 0.01431996 -0.03325216
v 0.07491822 0.003119628 -0.0338131
v 0.08191764 -0.06740504 -0.006865211
v -0.01349831 -0.2455541 -0.007067351
v 0.1025359 -0.2449589 -0.007039147
v 0.2976896 0.3673497 -0.6209805
v 0.2503127 0.3883965 -0.6187789
v 0.01456467 -0.5419432 -0.03328046
v 0.1123768 -0.5419454 -0.03328043
v 0.2201464 0.3454053 -0.6357962
v 0.02220009 0.02660095 -0.1614871
v 0.07425758 0.01507397 -0.1624769
v 0.2201464 0.3454053 -0.6357962
v 0.2673227 0.324539 -0.6377749
v 0.2049342 0.3987808 -1.153137
v 0.2673227 0.324539 -0.6377749
v 0.2578013 0.3829948 -1.154654
v 0.002275305 0.05983061 -1.024837
v 0.2049342 0.3987808 -1.153137
v 0.2578013 0.3829948 -1.154654
v 0.002275305 0.05983061 -1.024837
v 0.2578013 0.3829948 -1.154654
v 0.05399445 0.04903181 -1.024426
v 0.2038295 0.4459462 -1.235709
v 0.001426159 0.06097813 -1.101728
v 0.05320289 0.04920515 -1.101252
v 0.2576073 0.4299717 -1.238293
v 0.05686017 -0.03554843 -1.063298
v -0.05603633 -0.03021052 -1.062924
v 0.05315169 -0.2359277 -1.059305
v -0.05882504 -0.2365979 -1.059185
v 0.0410744 -0.5333135 -1.112956
v -0.0567281 -0.5333081 -1.112936
v 0.2503127 0.3883965 -0.6187789
v 0.2038295 0.4459462 -1.235709
v 0.2576073 0.4299717 -1.238293
v 0.2976896 0.3673497 -0.6209805
v 0.02220009 0.02660095 -0.1614871
v 0.002275305 0.05983061 -1.024837
v 0.05399445 0.04903181 -1.024426
v 0.07425758 0.01507397 -0.1624769
v -0.05391524 -0.5325791 -1.042986
v 0.01202657 -0.537686 -0.1476499
v 0.1098352 -0.5376882 -0.1476654
v 0.04388978 -0.5325853 -1.043018
v 0.1123768 -0.5419454 -0.03328043
v 0.01456467 -0.5419432 -0.03328046
v -0.0567281 -0.5333081 -1.112936
v 0.0410744 -0.5333135 -1.112956
v -0.01714057 0.06911521 -0.2546091
v -0.0309326 0.1122186 -0.2550594
v 0.003749565 0.09369907 -0.2548457
v -0.02931929 0.1493326 -0.3079623
v 0.04776119 0.1014056 -0.3072582
v -0.1604187 0.1154518 -0.3079379
v -0.07975571 0.09804364 -0.2550082
v -0.137152 0.04360753 -0.3068079
v -0.07092913 0.07063129 -0.2547126
v 0.004750043 0.04256027 -0.3063965
v 0.0619774 0.06281161 -0.2268836
v 0.04395942 0.02766915 -0.2258134
v 0.07711159 0.09826333 -0.3129984
v 0.02608261 0.03715998 -0.3024843
v 0.004750043 0.04256027 -0.3063965
v 0.04776119 0.1014056 -0.3072582
v -0.02931929 0.1493326 -0.3079623
v -0.137152 0.04360753 -0.3068079
v -0.1604187 0.1154518 -0.3079379
v 0.02608261 0.03715998 -0.3024843
v 0.07711159 0.09826333 -0.3129984
v 0.05425805 0.01508734 -0.1624651
v 0.1293705 0.1170632 -0.3269931
v 0.05096341 0.02393421 -0.3243023
v 0.1293705 0.1170632 -0.3269931
v 0.09989996 0.1308799 -0.3257639
v 0.01897404 0.03532482 -0.3237295
v 0.05096341 0.02393421 -0.3243023
v 0.09989996 0.1308799 -0.3257639
v 0.02220009 0.02660095 -0.1614871
v 0.01897404 0.03532482 -0.3237295

vn -0.9327013 0.2545149 0.2555198
vn -0.7966791 0.5561074 0.2367412
vn -0.7976815 0.5571313 0.230886
vn -0.9483531 0.2051975 0.2419095
vn -0.9635654 -0.06700233 0.2589447
vn -0.9677489 -0.08937245 0.2355303
vn -0.838456 0.4712106 0.2737728
vn -0.8359426 0.4765131 0.2722769
vn -0.8115734 0.4734388 0.3423505
vn -0.8350098 0.4399443 0.330465
vn -0.9257121 0.2710476 0.2637995
vn -0.8033479 0.5305381 0.2704826
vn -0.7885336 0.5309013 0.310416
vn -0.8350098 0.4399443 0.330465
vn -0.9132423 0.315962 0.2572089
vn -0.9659506 -0.09109213 0.2421604
vn -0.9605695 -0.07310985 0.2682557
vn -0.9592277 -0.03153649 0.2808699
vn -0.9603584 -0.02300892 0.277817
vn -0.962882 -0.0007614488 0.2699211
vn -0.9625304 -0.01454528 0.2707834
vn 0.9685417 -0.05077087 -0.2436169
vn 0.9374558 -0.2335915 -0.2580919
vn 0.9647644 0.0725245 -0.2529226
vn 0.9654268 0.09963592 -0.2408811
vn 0.9619721 0.04710845 -0.2690546
vn 0.9643703 0.07032397 -0.2550384
vn 0.8365168 -0.4768262 -0.2699554
vn 0.8337866 -0.4824094 -0.2684782
vn 0.809525 -0.4821382 -0.3349798
vn 0.833729 -0.447801 -0.3230633
vn 0.8847033 -0.3316253 -0.3276042
vn 0.9482947 -0.1248368 -0.2918097
vn 0.9651541 0.03196871 -0.259722
vn 0.9675882 0.01582801 -0.2520364
vn 0.9642531 0.03850419 -0.2621702
vn 0.9601166 0.02359902 -0.2786022
vn 0.9599619 -0.01557375 -0.2796975
vn 0.9615292 3.873273E-05 -0.2747025
vn 0.9643697 -0.02490301 -0.2633836
vn 0.9627612 -0.03310544 -0.2683183
vn 0.2464908 0.1398732 0.9589985
vn 0.3280455 0.5342281 0.7790931
vn 0.3399127 0.5707076 0.747497
vn 0.2472984 0.1512245 0.9570659
vn 0.2342432 -0.04191031 0.9712744
vn 0.2342527 -0.04633643 0.971071
vn 0.3878819 0.8872103 0.2498081
vn 0.3886057 0.8843824 0.2585573
vn 0.2341157 -0.08804958 0.9682135
vn 0.2341157 -0.08804959 0.9682135
vn -0.3935299 -0.8738241 -0.2855943
vn -0.398126 -0.7511367 -0.5265819
vn -0.398126 -0.7511366 -0.5265819
vn -0.3935299 -0.8738241 -0.2855943
vn -0.3923222 -0.8792287 -0.2702568
vn -0.3574989 -0.9338694 -0.00899224
vn -0.3923222 -0.8792287 -0.2702568
vn -0.3574989 -0.9338693 -0.008992247
vn 0.3086911 0.3100197 0.8992206
vn 0.3086911 0.3100197 0.8992206
vn 0.3086911 0.3100197 0.8992206
vn 0.3086911 0.3100197 0.8992206
vn 0.3086911 0.3100197 0.8992206
vn 0.3086911 0.3100197 0.8992206
vn -0.3158076 -0.2871557 -0.904327
vn -0.2805504 -0.3477407 -0.8946329
vn -0.2859476 -0.3387321 -0.8963788
vn -0.3158076 -0.2871557 -0.904327
vn -0.2504209 -0.2012108 -0.9469973
vn -0.2490767 -0.1755238 -0.9524456
vn -0.2360792 0.07764153 -0.9686273
vn -0.2360081 0.08044367 -0.9684159
vn -0.2323501 0.1779182 -0.9562212
vn -0.2323501 0.1779182 -0.9562212
vn 0.3886057 0.8843824 0.2585573
vn 0.3517472 0.9359539 -0.016202
vn 0.3517471 0.9359539 -0.01620199
vn 0.3878819 0.8872103 0.2498081
vn 0.2122744 0.9770577 -0.01719758
vn 0.2122744 0.9770577 -0.01719758
vn 0.2122744 0.9770577 -0.01719757
vn 0.2122744 0.9770577 -0.01719757
vn 0.0005735466 -0.9999955 0.002591219
vn -0.004962739 -0.9997789 -0.02038418
vn -0.005186837 -0.9997584 -0.02131387
vn 0.0004377086 -0.9999968 0.002027152
vn -0.0087628 -0.999307 -0.03614909
vn -0.008762799 -0.999307 -0.03614909
vn 0.002391622 -0.9999447 0.01014077
vn 0.002391622 -0.9999447 0.01014077
vn -0.01342261 -0.4686477 0.883283
vn 0.2767552 0.541645 0.7937424
vn 0.3155407 0.5678878 0.7602218
vn 0.23444 0.8152352 0.5295548
vn 0.3997547 0.851356 0.339688
vn -0.289544 0.2398221 0.9266335
vn -0.1064159 0.3118345 0.9441583
vn -0.2384796 -0.4513335 0.8598984
vn 0.01811886 -0.4742152 0.8802224
vn -0.2683263 -0.9069704 0.3246599
vn 0.1088984 0.5843986 0.8041263
vn -0.3223998 -0.2709619 0.9069939
vn 0.331488 0.8896192 0.3141527
vn -0.4831971 -0.848448 0.2159976
vn -0.2489436 -0.02987609 -0.9680572
vn -0.2596009 -0.04009387 -0.9648836
vn -0.2324815 -0.01418531 -0.9724976
vn -0.2324815 -0.01418531 -0.9724976
vn -0.2324815 -0.01418531 -0.9724976
vn -0.2788034 -0.05862638 -0.9585573
vn -0.2788034 -0.05862637 -0.9585573
vn 0.7300024 -0.6440688 -0.2286285
vn 0.7300023 -0.6440688 -0.2286285
vn 0.7300023 -0.6440689 -0.2286286
vn -0.2633859 -0.0001985141 -0.9646907
vn -0.2633859 -0.0001985141 -0.9646907
vn -0.2633859 -0.0001985141 -0.9646907
vn -0.2633859 -0.0001985141 -0.9646907
vn -0.7286118 0.6460778 0.2273927
vn -0.7286118 0.6460778 0.2273927
vn -0.7286118 0.6460778 0.2273927

vt 0.609375 0.2319336
vt 0.6088867 0.2514648
vt 0.5883789 0.25
vt 0.5839844 0.2320557
vt 0.6064453 0.1968994
vt 0.5839844 0.1970215
vt 0.6777344 0.3251953
vt 0.6806641 0.3164063
vt 0.7680664 0.3349609
vt 0.7558594 0.326416
vt 0.7358398 0.2335205
vt 0.7421875 0.2543945
vt 0.753418 0.2546387
vt 0.7558594 0.326416
vt 0.7490234 0.2340088
vt 0.5883789 0.1524658
vt 0.6064453 0.1524658
vt 0.7412109 0.1524658
vt 0.7358398 0.1956787
vt 0.7490234 0.1959229
vt 0.7514648 0.1524658
vt 0.6196289 0.4511719
vt 0.6381836 0.4523926
vt 0.6381836 0.4379883
vt 0.6157227 0.4382324
vt 0.6357422 0.4074707
vt 0.6157227 0.4074707
vt 0.7001953 0.5185547
vt 0.703125 0.5107422
vt 0.7822266 0.527832
vt 0.7714844 0.5205078
vt 0.7685547 0.4555664
vt 0.7583008 0.4555664
vt 0.7524414 0.4394531
vt 0.7646484 0.4399414
vt 0.6191406 0.3671875
vt 0.6357422 0.3671875
vt 0.7578125 0.3671875
vt 0.7524414 0.40625
vt 0.7646484 0.4064941
vt 0.7666016 0.3671875
vt 0.9990234 0.2325439
vt 0.9902344 0.2470703
vt 0.9833984 0.2449951
vt 0.9838867 0.2312012
vt 0.9995117 0.2009277
vt 0.9838867 0.2009277
vt 0.9326172 0.3371582
vt 0.9384766 0.3393555
vt 0.9980469 0.1605225
vt 0.9848633 0.1602783
vt 0.6806641 0.3164063
vt 0.6088867 0.2514648
vt 0.6230469 0.2519531
vt 0.6806641 0.3164063
vt 0.6860352 0.3120117
vt 0.7558594 0.326416
vt 0.6821289 0.3095703
vt 0.7475586 0.3181152
vt 0.7421875 0.2543945
vt 0.7558594 0.326416
vt 0.7475586 0.3190918
vt 0.7421875 0.2543945
vt 0.7475586 0.3190918
vt 0.7363281 0.2624512
vt 0.9165039 0.3137207
vt 0.9580078 0.2521973
vt 0.9511719 0.2502441
vt 0.9106445 0.3117676
vt 0.9511719 0.2340088
vt 0.9663086 0.2349854
vt 0.9511719 0.2005615
vt 0.9663086 0.2004395
vt 0.9516602 0.1612549
vt 0.9648438 0.1612549
vt 0.699707 0.5249023
vt 0.78125 0.5341797
vt 0.7822266 0.527832
vt 0.7001953 0.5185547
vt 0.6088867 0.2514648
vt 0.7421875 0.2543945
vt 0.7368164 0.262207
vt 0.6181641 0.2592773
vt 0.7578125 0.3540039
vt 0.6357422 0.3540039
vt 0.6357422 0.3671875
vt 0.7578125 0.3671875
vt 0.6191406 0.3671875
vt 0.6191406 0.3540039
vt 0.7666016 0.3540039
vt 0.7666016 0.3671875
vt 0.5678711 0.01525879
vt 0.5737305 0.02468872
vt 0.5664063 0.02406311
vt 0.5795898 0.03707886
vt 0.5615234 0.03762817
vt 0.5996094 0.01887512
vt 0.5810547 0.0188446
vt 0.5922852 0.001438141
vt 0.578125 0.0135498
vt 0.5649414 0.001422882
vt 0.5522461 0.02171326
vt 0.5512695 0.01274872
vt 0.5566406 0.04058838
vt 0.5610352 0.0006093979
vt 0.5341797 0.03259277
vt 0.519043 0.04193115
vt 0.5073242 0.02792358
vt 0.5336914 0.005210876
vt 0.5151367 0.002006531
vt 0.5351563 0.03656006
vt 0.5195313 0.04760742
vt 0.6352539 0.2617188
vt 0.6757813 0.2617188
vt 0.6582031 0.2814941
vt 0.6757813 0.2617188
vt 0.6796875 0.2658691
vt 0.6621094 0.2861328
vt 0.6582031 0.2814941
vt 0.6757813 0.2617188
vt 0.6352539 0.2617188
vt 0.6582031 0.2814941

g door_frontR_10377_1883
usemtl door_frontR_10377_1883
usemap door_frontR_10377_1883
f 1/1/1 3/3/3 2/2/2
f 1/1/1 4/4/4 3/3/3
f 5/5/5 4/4/4 1/1/1
f 5/5/5 6/6/6 4/4/4
f 7/7/7 2/2/2 3/3/3
f 7/7/7 8/8/8 2/2/2
f 8/8/8 7/7/7 9/9/9
f 8/8/8 9/9/9 10/10/10
f 2/2/2 11/11/11 1/1/1
f 5/5/5 1/1/1 11/11/11
f 2/2/2 12/12/12 11/11/11
f 10/10/10 13/13/13 12/12/12
f 14/14/14 9/9/9 13/13/13
f 12/12/12 15/15/15 11/11/11
f 12/12/12 13/13/13 15/15/15
f 5/5/5 16/16/16 6/6/6
f 5/5/5 17/17/17 16/16/16
f 5/5/5 18/18/18 17/17/17
f 5/5/5 19/19/19 18/18/18
f 5/5/5 11/11/11 19/19/19
f 18/18/18 19/19/19 20/20/20
f 20/20/20 11/11/11 15/15/15
f 20/20/20 19/19/19 11/11/11
f 18/18/18 20/20/20 21/21/21
f 22/22/22 24/24/24 23/23/23
f 22/22/22 25/25/25 24/24/24
f 25/25/25 26/26/26 24/24/24
f 25/25/25 27/27/27 26/26/26
f 23/23/23 28/28/28 22/22/22
f 23/23/23 29/29/29 28/28/28
f 30/30/30 28/28/28 29/29/29
f 30/30/30 29/29/29 31/31/31
f 32/32/32 30/30/30 31/31/31
f 32/32/32 31/31/31 33/33/33
f 34/34/34 23/23/23 24/24/24
f 34/34/34 33/33/33 23/23/23
f 34/34/34 24/24/24 26/26/26
f 35/35/35 33/33/33 34/34/34
f 35/35/35 32/32/32 33/33/33
f 36/36/36 26/26/26 27/27/27
f 36/36/36 37/37/37 26/26/26
f 38/38/38 26/26/26 37/37/37
f 38/38/38 39/39/39 26/26/26
f 34/34/34 26/26/26 39/39/39
f 40/40/40 39/39/39 38/38/38
f 34/34/34 40/40/40 35/35/35
f 34/34/34 39/39/39 40/40/40
f 40/40/40 38/38/38 41/41/41
f 42/42/42 44/44/44 43/43/43
f 42/42/42 45/45/45 44/44/44
f 46/46/46 45/45/45 42/42/42
f 46/46/46 47/47/47 45/45/45
f 43/43/43 44/44/44 48/48/48
f 43/43/43 48/48/48 49/49/49
f 50/50/50 47/47/47 46/46/46
f 50/50/50 51/51/51 47/47/47
f 52/52/52 54/54/54 53/53/53
f 55/55/55 56/56/56 54/54/54
f 57/57/57 58/58/58 55/55/55
f 57/57/57 59/59/59 58/58/58
f 60/60/60 62/62/62 61/61/61
f 63/63/63 65/65/65 64/64/64
f 66/66/66 68/68/68 67/67/67
f 66/66/66 69/69/69 68/68/68
f 67/67/67 68/68/68 70/70/70
f 67/67/67 70/70/70 71/71/71
f 71/71/71 70/70/70 72/72/72
f 71/71/71 72/72/72 73/73/73
f 73/73/73 72/72/72 74/74/74
f 73/73/73 74/74/74 75/75/75
f 76/76/76 78/78/78 77/77/77
f 76/76/76 79/79/79 78/78/78
f 80/80/80 82/82/82 81/81/81
f 80/80/80 83/83/83 82/82/82
f 84/84/84 86/86/86 85/85/85
f 84/84/84 87/87/87 86/86/86
f 85/85/85 86/86/86 88/88/88
f 85/85/85 88/88/88 89/89/89
f 90/90/90 87/87/87 84/84/84
f 90/90/90 91/91/91 87/87/87
f 92/92/92 94/94/94 93/93/93
f 94/94/94 95/95/95 93/93/93
f 94/94/94 96/96/96 95/95/95
f 93/93/93 95/95/95 97/97/97
f 93/93/93 97/97/97 98/98/98
f 92/92/92 93/93/93 98/98/98
f 98/98/98 97/97/97 99/99/99
f 98/98/98 99/99/99 100/100/100
f 92/92/92 98/98/98 100/100/100
f 100/100/100 101/101/101 92/92/92
f 100/100/100 99/99/99 101/101/101
f 92/92/92 102/102/102 94/94/94
f 92/92/92 103/103/103 102/102/102
f 101/101/101 103/103/103 92/92/92
f 94/94/94 104/104/104 96/96/96
f 94/94/94 102/102/102 104/104/104
f 101/101/101 105/105/105 103/103/103
f 106/106/106 108/108/108 107/107/107
f 108/108/108 106/106/106 109/109/109
f 108/108/108 109/109/109 110/110/110
f 107/107/107 111/111/111 106/106/106
f 107/107/107 112/112/112 111/111/111
f 113/113/113 115/115/115 114/114/114
f 116/116/116 118/118/118 117/117/117
f 116/116/116 119/119/119 118/118/118
f 120/120/120 122/122/122 121/121/121
