#door04_10387_353.obj

v -0.07506984 2.49152E-08 -3.519327E-07
v 0.02492932 -5.728829E-07 0.9999998
v 0.02493019 2.495402E-08 -1.079009E-06
v -0.07507076 -5.729217E-07 0.9999997
v -0.0750707 1.999999 1
v 0.02493031 2 5.097431E-07
v 0.02492938 1.999999 1.000001
v -0.07506978 2 4.442338E-07
v -0.07506978 2 4.442338E-07
v 0.02493019 2.495402E-08 -1.079009E-06
v 0.02493031 2 5.097431E-07
v -0.07506984 2.49152E-08 -3.519327E-07
v 0.02492938 1.999999 1.000001
v -0.07507076 -5.729217E-07 0.9999997
v -0.0750707 1.999999 1
v 0.02492932 -5.728829E-07 0.9999998
v 0.02492932 -5.728829E-07 0.9999998
v 0.02493031 2 5.097431E-07
v 0.02493019 2.495402E-08 -1.079009E-06
v 0.02492938 1.999999 1.000001
v -0.0750707 1.999999 1
v -0.07506984 2.49152E-08 -3.519327E-07
v -0.07506978 2 4.442338E-07
v -0.07507076 -5.729217E-07 0.9999997
v -0.1250706 1.104778 0.9229058
v -0.110426 1.129778 0.8979059
v -0.1104256 1.140133 0.9229056
v -0.1104261 1.104778 0.8875506
v -0.110426 1.079778 0.8979059
v -0.1104256 1.069423 0.9229056
v -0.1104253 1.079778 0.9479052
v -0.1104251 1.104778 0.9582614
v -0.1104252 1.129778 0.947906
v -0.07507034 1.140133 0.88755
v -0.07506978 1.154778 0.9229058
v -0.07507052 1.104778 0.8729058
v -0.07507034 1.069423 0.88755
v -0.07506978 1.054778 0.9229058
v -0.07507085 1.069423 0.9582609
v -0.07507061 1.104778 0.9729059
v -0.07507085 1.140133 0.9582609
v 0.07492956 1.104778 0.9229059
v 0.06028492 1.129778 0.9479058
v 0.06028457 1.140133 0.9229062
v 0.06028508 1.104778 0.9582612
v 0.06028492 1.079778 0.9479058
v 0.06028451 1.069423 0.9229054
v 0.06028417 1.079778 0.8979058
v 0.06028559 1.104778 0.8875503
v 0.06028417 1.129778 0.8979058
v 0.02492923 1.140133 0.958261
v 0.02493031 1.154778 0.9229059
v 0.02492947 1.104778 0.9729059
v 0.02492923 1.069423 0.958261
v 0.02493031 1.054778 0.9229059
v 0.02492974 1.069423 0.8875501
v 0.02492956 1.104778 0.8729059
v 0.02492974 1.140133 0.8875501

vn 4.414889E-08 -0.9999993 -5.999888E-07
vn 4.414889E-08 -0.9999993 -5.999888E-07
vn 4.414889E-08 -0.9999993 -5.999888E-07
vn 4.414889E-08 -0.9999993 -5.999888E-07
vn -4.799806E-08 0.9999993 6.522994E-07
vn -4.799806E-08 0.9999993 6.522994E-07
vn -4.799806E-08 0.9999993 6.522994E-07
vn -4.799806E-08 0.9999993 6.522994E-07
vn 0.07338455 5.205482E-07 -0.9973037
vn 0.07338455 5.205482E-07 -0.9973037
vn 0.07338455 5.205482E-07 -0.9973037
vn 0.07338455 5.205482E-07 -0.9973037
vn -0.07338455 -5.968422E-07 0.9973037
vn -0.07338455 -5.968422E-07 0.9973037
vn -0.07338455 -5.968422E-07 0.9973037
vn -0.07338455 -5.968422E-07 0.9973037
vn 0.9973037 -5.121752E-14 0.07338474
vn 0.9973037 -5.121752E-14 0.07338474
vn 0.9973037 -5.121752E-14 0.07338474
vn 0.9973037 -5.121752E-14 0.07338474
vn -0.9973037 5.121752E-14 -0.07338474
vn -0.9973037 5.121752E-14 -0.07338474
vn -0.9973037 5.121752E-14 -0.07338474
vn -0.9973037 5.121752E-14 -0.07338474
vn -0.9973037 5.121752E-14 -0.07338474
vn -0.6223699 0.5293514 -0.5765782
vn -0.6612166 0.7486151 -0.04865473
vn -0.6062796 8.725386E-07 -0.7952516
vn -0.6223702 -0.52935 -0.5765793
vn -0.6612159 -0.7486157 -0.04865461
vn -0.7000623 -0.5293517 0.4792691
vn -0.7161532 -1.08537E-06 0.697943
vn -0.7000625 0.5293512 0.4792695
vn -0.3337107 0.6532809 -0.6796033
vn -0.3816521 0.9238787 -0.02808403
vn -0.3138531 1.02649E-06 -0.9494715
vn -0.3337115 -0.6532806 -0.6796033
vn -0.3816512 -0.9238791 -0.02808285
vn -0.4295916 -0.6532816 0.6234369
vn -0.4494501 -9.59257E-07 0.8933052
vn -0.4295918 0.6532811 0.6234373
vn 0.9973036 -8.016843E-14 0.0733854
vn 0.6223704 0.5293509 0.5765781
vn 0.6612167 0.748615 0.04865497
vn 0.6062794 -1.194661E-06 0.7952519
vn 0.6223698 -0.5293517 0.5765783
vn 0.6612162 -0.7486154 0.04865485
vn 0.700063 -0.5293496 -0.4792705
vn 0.7161537 5.67674E-07 -0.6979424
vn 0.700063 0.5293511 -0.4792687
vn 0.3337114 0.6532812 0.6796028
vn 0.3816521 0.9238787 0.02808228
vn 0.3138531 -1.160961E-06 0.9494715
vn 0.3337101 -0.6532816 0.679603
vn 0.3816507 -0.9238793 0.02808403
vn 0.4295925 -0.6532806 -0.6234373
vn 0.4494499 2.869104E-07 -0.8933054
vn 0.4295927 0.6532802 -0.6234376

vt 0.5537109 0.5131836
vt 0.6640625 0.5024414
vt 0.5537109 0.5024414
vt 0.6640625 0.5131836
vt 0.6640625 0.7338867
vt 0.5537109 0.7446289
vt 0.6640625 0.7446289
vt 0.5537109 0.7338867
vt 0.5537109 0.7338867
vt 0.5429688 0.5131836
vt 0.5429688 0.7338867
vt 0.5537109 0.5131836
vt 0.675293 0.7338867
vt 0.6640625 0.5131836
vt 0.6640625 0.7338867
vt 0.675293 0.5131836
vt 0.6640625 0.5131836
vt 0.5537109 0.7338867
vt 0.5537109 0.5131836
vt 0.6640625 0.7338867
vt 0.6640625 0.7338867
vt 0.5537109 0.5131836
vt 0.5537109 0.7338867
vt 0.6640625 0.5131836
vt 0.6728516 0.7421875
vt 0.6708984 0.7441406
vt 0.6728516 0.7446289
vt 0.6704102 0.7421875
vt 0.6708984 0.7407227
vt 0.6728516 0.7402344
vt 0.6743164 0.7407227
vt 0.6748047 0.7421875
vt 0.6743164 0.7441406
vt 0.6694336 0.7456055
vt 0.6728516 0.7470703
vt 0.6679688 0.7421875
vt 0.6694336 0.7387695
vt 0.6728516 0.737793
vt 0.6762695 0.7387695
vt 0.6772461 0.7421875
vt 0.6762695 0.7456055
vt 0.6728516 0.7421875
vt 0.6708984 0.7441406
vt 0.6728516 0.7446289
vt 0.6704102 0.7421875
vt 0.6708984 0.7407227
vt 0.6728516 0.7402344
vt 0.6743164 0.7407227
vt 0.6748047 0.7421875
vt 0.6743164 0.7441406
vt 0.6694336 0.7456055
vt 0.6728516 0.7470703
vt 0.6679688 0.7421875
vt 0.6694336 0.7387695
vt 0.6728516 0.737793
vt 0.6762695 0.7387695
vt 0.6772461 0.7421875
vt 0.6762695 0.7456055

g door04_10387_353
usemtl door04_10387_353
usemap door04_10387_353
f 1/1/1 3/3/3 2/2/2
f 2/2/2 4/4/4 1/1/1
f 5/5/5 7/7/7 6/6/6
f 6/6/6 8/8/8 5/5/5
f 9/9/9 11/11/11 10/10/10
f 10/10/10 12/12/12 9/9/9
f 13/13/13 15/15/15 14/14/14
f 14/14/14 16/16/16 13/13/13
f 17/17/17 19/19/19 18/18/18
f 18/18/18 20/20/20 17/17/17
f 21/21/21 23/23/23 22/22/22
f 22/22/22 24/24/24 21/21/21
f 25/25/25 27/27/27 26/26/26
f 25/25/25 26/26/26 28/28/28
f 25/25/25 28/28/28 29/29/29
f 25/25/25 29/29/29 30/30/30
f 25/25/25 30/30/30 31/31/31
f 25/25/25 31/31/31 32/32/32
f 25/25/25 32/32/32 33/33/33
f 25/25/25 33/33/33 27/27/27
f 34/34/34 26/26/26 27/27/27
f 27/27/27 35/35/35 34/34/34
f 35/35/35 27/27/27 33/33/33
f 36/36/36 28/28/28 26/26/26
f 26/26/26 34/34/34 36/36/36
f 37/37/37 29/29/29 28/28/28
f 28/28/28 36/36/36 37/37/37
f 38/38/38 30/30/30 29/29/29
f 29/29/29 37/37/37 38/38/38
f 39/39/39 31/31/31 30/30/30
f 30/30/30 38/38/38 39/39/39
f 40/40/40 32/32/32 31/31/31
f 31/31/31 39/39/39 40/40/40
f 41/41/41 33/33/33 32/32/32
f 32/32/32 40/40/40 41/41/41
f 33/33/33 41/41/41 35/35/35
f 42/42/42 44/44/44 43/43/43
f 42/42/42 43/43/43 45/45/45
f 42/42/42 45/45/45 46/46/46
f 42/42/42 46/46/46 47/47/47
f 42/42/42 47/47/47 48/48/48
f 42/42/42 48/48/48 49/49/49
f 42/42/42 49/49/49 50/50/50
f 42/42/42 50/50/50 44/44/44
f 51/51/51 43/43/43 44/44/44
f 44/44/44 52/52/52 51/51/51
f 52/52/52 44/44/44 50/50/50
f 53/53/53 45/45/45 43/43/43
f 43/43/43 51/51/51 53/53/53
f 54/54/54 46/46/46 45/45/45
f 45/45/45 53/53/53 54/54/54
f 55/55/55 47/47/47 46/46/46
f 46/46/46 54/54/54 55/55/55
f 56/56/56 48/48/48 47/47/47
f 47/47/47 55/55/55 56/56/56
f 57/57/57 49/49/49 48/48/48
f 48/48/48 56/56/56 57/57/57
f 58/58/58 50/50/50 49/49/49
f 49/49/49 57/57/57 58/58/58
f 50/50/50 58/58/58 52/52/52
