#door05_10745_381.obj

v -0.07507856 3.152477E-08 6.039189E-07
v 0.02492207 -7.303212E-07 1
v 0.0249214 2.770611E-08 5.733423E-07
v -0.07507796 -7.265024E-07 1.000001
v -0.07507803 1.999999 1.000001
v 0.02492143 2 4.56476E-07
v 0.024922 1.999999 1
v -0.07507863 2 5.01661E-07
v -0.07507863 2 5.01661E-07
v 0.0249214 2.770611E-08 5.733423E-07
v 0.02492143 2 4.56476E-07
v -0.07507856 3.152477E-08 6.039189E-07
v 0.024922 1.999999 1
v -0.07507796 -7.265024E-07 1.000001
v -0.07507803 1.999999 1.000001
v 0.02492207 -7.303212E-07 1
v 0.02492207 -7.303212E-07 1
v 0.02492143 2 4.56476E-07
v 0.0249214 2.770611E-08 5.733423E-07
v 0.024922 1.999999 1
v -0.07507803 1.999999 1.000001
v -0.07507856 3.152477E-08 6.039189E-07
v -0.07507863 2 5.01661E-07
v -0.07507796 -7.265024E-07 1.000001
v -0.125078 1.104778 0.9229107
v -0.1104296 1.129778 0.8979109
v -0.1104296 1.140133 0.9229107
v -0.1104297 1.104778 0.8875495
v -0.1104296 1.079778 0.897911
v -0.1104296 1.069422 0.9229107
v -0.1104295 1.079778 0.9479108
v -0.1104295 1.104777 0.9582624
v -0.1104295 1.129778 0.9479108
v -0.07507805 1.140133 0.8875494
v -0.07507795 1.154778 0.9229109
v -0.07507809 1.104778 0.8729107
v -0.07507805 1.069422 0.8875494
v -0.07507795 1.054778 0.9229109
v -0.07507796 1.069422 0.9582621
v -0.07507794 1.104777 0.9729108
v -0.07507796 1.140133 0.9582621
v 0.07492203 1.104778 0.9229107
v 0.06027354 1.129778 0.9479105
v 0.06027361 1.140133 0.9229108
v 0.0602736 1.104777 0.9582621
v 0.06027354 1.079778 0.9479105
v 0.06027358 1.069422 0.9229106
v 0.06027352 1.079778 0.8979107
v 0.06027351 1.104778 0.8875493
v 0.06027353 1.129778 0.8979106
v 0.024922 1.140133 0.9582621
v 0.02492198 1.154778 0.9229106
v 0.02492199 1.104777 0.9729106
v 0.024922 1.069422 0.9582621
v 0.02492198 1.054778 0.9229106
v 0.02492201 1.069422 0.8875493
v 0.02492197 1.104778 0.8729107
v 0.02492191 1.140133 0.8875493

vn 1.863682E-07 -0.9999998 -9.89681E-07
vn 1.863682E-07 -0.9999998 -9.89681E-07
vn 1.863682E-07 -0.9999998 -9.89681E-07
vn 1.863682E-07 -0.9999998 -9.89681E-07
vn -1.904374E-07 0.9999998 1.018E-06
vn -1.904374E-07 0.9999998 1.018E-06
vn -1.904374E-07 0.9999998 1.018E-06
vn -1.904374E-07 0.9999998 1.018E-06
vn 0.1422299 2.908709E-07 -0.9898335
vn 0.1422299 2.908709E-07 -0.9898335
vn 0.1422299 2.908709E-07 -0.9898335
vn 0.1422299 2.908709E-07 -0.9898335
vn -0.1422299 -2.717975E-07 0.9898335
vn -0.1422299 -2.717975E-07 0.9898335
vn -0.1422299 -2.717974E-07 0.9898335
vn -0.1422299 -2.717974E-07 0.9898335
vn 0.9898336 4.371128E-08 0.1422298
vn 0.9898336 4.371128E-08 0.1422298
vn 0.9898336 4.371128E-08 0.1422298
vn 0.9898336 4.371128E-08 0.1422298
vn -0.9898336 -4.371128E-08 -0.1422298
vn -0.9898336 -4.371128E-08 -0.1422298
vn -0.9898336 -4.371128E-08 -0.1422298
vn -0.9898336 -4.371128E-08 -0.1422298
vn -0.989837 7.923725E-07 -0.142206
vn -0.5809839 0.5293771 -0.6182371
vn -0.6562591 0.7486212 -0.09428713
vn -0.5497437 5.862777E-05 -0.8353332
vn -0.5810209 -0.5294062 -0.6181777
vn -0.6562483 -0.7486299 -0.09429199
vn -0.7315336 -0.5293506 0.429705
vn -0.7627437 3.657094E-05 0.6467007
vn -0.7315234 0.529328 0.4297501
vn -0.2859908 0.6531994 -0.7010986
vn -0.3788274 0.923867 -0.05439825
vn -0.247358 5.566908E-05 -0.9689239
vn -0.2859395 -0.6532617 -0.7010615
vn -0.3788431 -0.9238601 -0.05440438
vn -0.4716872 -0.6533174 0.5921886
vn -0.5102665 3.416511E-05 0.8600162
vn -0.4717273 0.6532761 0.5922022
vn 0.9898302 8.854445E-07 0.1422536
vn 0.5809457 0.5293481 0.6182979
vn 0.6562475 0.7486289 0.09430541
vn 0.5497939 -3.727282E-05 0.8353001
vn 0.5809229 -0.5293301 0.6183347
vn 0.656256 -0.7486214 0.09430623
vn 0.7315552 -0.5293743 -0.429639
vn 0.7627047 -5.819042E-05 -0.6467469
vn 0.731572 0.5294073 -0.4295696
vn 0.2858641 0.6533154 0.7010424
vn 0.3788356 0.9238594 0.05446856
vn 0.2474691 -3.541638E-05 0.9688956
vn 0.2858946 -0.6532778 0.7010649
vn 0.3788137 -0.9238685 0.0544672
vn 0.4718274 -0.6531992 -0.5922071
vn 0.5101684 -5.439557E-05 -0.8600744
vn 0.4717653 0.6532612 -0.5921882

vt 0.7641602 0.5131836
vt 0.8745117 0.5024414
vt 0.7641602 0.5024414
vt 0.8745117 0.5131836
vt 0.8745117 0.7338867
vt 0.7641602 0.7446289
vt 0.8745117 0.7446289
vt 0.7641602 0.7338867
vt 0.7641602 0.7338867
vt 0.753418 0.5131836
vt 0.753418 0.7338867
vt 0.7641602 0.5131836
vt 0.8857422 0.7338867
vt 0.8745117 0.5131836
vt 0.8745117 0.7338867
vt 0.8857422 0.5131836
vt 0.8745117 0.5131836
vt 0.7641602 0.7338867
vt 0.7641602 0.5131836
vt 0.8745117 0.7338867
vt 0.8745117 0.7338867
vt 0.7641602 0.5131836
vt 0.7641602 0.7338867
vt 0.8745117 0.5131836
vt 0.8833008 0.7421875
vt 0.8813477 0.7441406
vt 0.8833008 0.7446289
vt 0.8808594 0.7421875
vt 0.8813477 0.7407227
vt 0.8833008 0.7402344
vt 0.8847656 0.7407227
vt 0.8852539 0.7421875
vt 0.8847656 0.7441406
vt 0.8798828 0.7456055
vt 0.8833008 0.7470703
vt 0.878418 0.7421875
vt 0.8798828 0.7387695
vt 0.8833008 0.737793
vt 0.8862305 0.7387695
vt 0.8876953 0.7421875
vt 0.8862305 0.7456055
vt 0.8833008 0.7421875
vt 0.8813477 0.7441406
vt 0.8833008 0.7446289
vt 0.8808594 0.7421875
vt 0.8813477 0.7407227
vt 0.8833008 0.7402344
vt 0.8847656 0.7407227
vt 0.8852539 0.7421875
vt 0.8847656 0.7441406
vt 0.8798828 0.7456055
vt 0.8833008 0.7470703
vt 0.878418 0.7421875
vt 0.8798828 0.7387695
vt 0.8833008 0.737793
vt 0.8862305 0.7387695
vt 0.8876953 0.7421875
vt 0.8862305 0.7456055

g door05_10745_381
usemtl door05_10745_381
usemap door05_10745_381
f 1/1/1 3/3/3 2/2/2
f 2/2/2 4/4/4 1/1/1
f 5/5/5 7/7/7 6/6/6
f 6/6/6 8/8/8 5/5/5
f 9/9/9 11/11/11 10/10/10
f 10/10/10 12/12/12 9/9/9
f 13/13/13 15/15/15 14/14/14
f 14/14/14 16/16/16 13/13/13
f 17/17/17 19/19/19 18/18/18
f 18/18/18 20/20/20 17/17/17
f 21/21/21 23/23/23 22/22/22
f 22/22/22 24/24/24 21/21/21
f 25/25/25 27/27/27 26/26/26
f 25/25/25 26/26/26 28/28/28
f 25/25/25 28/28/28 29/29/29
f 25/25/25 29/29/29 30/30/30
f 25/25/25 30/30/30 31/31/31
f 25/25/25 31/31/31 32/32/32
f 25/25/25 32/32/32 33/33/33
f 25/25/25 33/33/33 27/27/27
f 34/34/34 26/26/26 27/27/27
f 27/27/27 35/35/35 34/34/34
f 35/35/35 27/27/27 33/33/33
f 36/36/36 28/28/28 26/26/26
f 26/26/26 34/34/34 36/36/36
f 37/37/37 29/29/29 28/28/28
f 28/28/28 36/36/36 37/37/37
f 38/38/38 30/30/30 29/29/29
f 29/29/29 37/37/37 38/38/38
f 39/39/39 31/31/31 30/30/30
f 30/30/30 38/38/38 39/39/39
f 40/40/40 32/32/32 31/31/31
f 31/31/31 39/39/39 40/40/40
f 41/41/41 33/33/33 32/32/32
f 32/32/32 40/40/40 41/41/41
f 33/33/33 41/41/41 35/35/35
f 42/42/42 44/44/44 43/43/43
f 42/42/42 43/43/43 45/45/45
f 42/42/42 45/45/45 46/46/46
f 42/42/42 46/46/46 47/47/47
f 42/42/42 47/47/47 48/48/48
f 42/42/42 48/48/48 49/49/49
f 42/42/42 49/49/49 50/50/50
f 42/42/42 50/50/50 44/44/44
f 51/51/51 43/43/43 44/44/44
f 44/44/44 52/52/52 51/51/51
f 52/52/52 44/44/44 50/50/50
f 53/53/53 45/45/45 43/43/43
f 43/43/43 51/51/51 53/53/53
f 54/54/54 46/46/46 45/45/45
f 45/45/45 53/53/53 54/54/54
f 55/55/55 47/47/47 46/46/46
f 46/46/46 54/54/54 55/55/55
f 56/56/56 48/48/48 47/47/47
f 47/47/47 55/55/55 56/56/56
f 57/57/57 49/49/49 48/48/48
f 48/48/48 56/56/56 57/57/57
f 58/58/58 50/50/50 49/49/49
f 49/49/49 57/57/57 58/58/58
f 50/50/50 58/58/58 52/52/52
