#fence_metal_A_5_8544_535.obj

v 0.03001506 0.0324855 -0.008953409
v 0.8764111 0.05416817 0.05740627
v 0.876162 0.01170644 0.02515459
v 0.02988528 0.07562711 0.02402625
v 0.8760499 0.08411528 0.02315499
v 0.03109408 0.105035 -0.01088108
v 0.875672 0.05037089 -0.02188488
v 0.03145752 0.07176156 -0.05513993
v 0.876162 0.01170644 0.02515459
v 0.03001506 0.0324855 -0.008953409
v 1.466863 0.02910784 -0.0216566
v 1.466973 0.07216205 0.01144115
v 1.465892 0.06825301 -0.06776494
v 1.466863 0.02910784 -0.0216566
v 1.466116 0.1016787 -0.02354423
v 1.971126 0.03254681 -0.008419539
v 1.970638 0.07537599 0.0240707
v 1.971494 0.07159653 -0.05516266
v 1.971126 0.03254681 -0.008419539
v 1.970936 0.1050181 -0.01042947
v 0.04166756 0.9479687 -4.705114E-05
v 0.8761302 0.9620076 0.007279624
v 0.875935 0.9160611 0.001066331
v 0.04290581 0.9941705 0.005580916
v 0.8761891 0.969407 -0.03161844
v 0.04333271 1.001172 -0.03282057
v 0.8759941 0.9249063 -0.05025536
v 0.04220726 0.9572635 -0.05193106
v 0.875935 0.9160611 0.001066331
v 0.04166756 0.9479687 -4.705114E-05
v 1.466995 0.9316846 -0.002133723
v 1.466143 0.9777708 0.003822766
v 1.466668 0.9407542 -0.05370359
v 1.466995 0.9316846 -0.002133723
v 1.465872 0.9849701 -0.03485778
v 1.96626 0.94766 -0.002708924
v 1.965391 0.9938 0.003007111
v 1.966007 0.9568565 -0.05451386
v 1.96626 0.94766 -0.002708924
v 1.965183 1.000895 -0.03547203
v 0.04077883 1.798715 0.003011968
v 0.8669071 1.795066 0.07645415
v 0.8669435 1.752757 0.04398402
v 0.04121873 1.842126 0.0359966
v 0.8671954 1.825205 0.04205294
v 0.0431178 1.871219 0.001067198
v 0.8672926 1.791195 -0.002870849
v 0.04309807 1.838274 -0.04308833
v 0.8669435 1.752757 0.04398402
v 0.04077883 1.798715 0.003011968
v 1.950716 1.805915 0.007772854
v 1.950212 1.849187 0.04061942
v 1.949092 1.845367 -0.03852487
v 1.950716 1.805915 0.007772854
v 1.948887 1.878421 0.00579819
v 0.06229487 -1.981715E-08 2.29231E-06
v 0.05107966 0.6665808 -0.05681312
v 0.03107197 -1.981715E-08 -0.05388494
v 0.08754881 0.6665493 0.006542171
v -0.02217033 0.6663999 -0.05698008
v -0.03108427 -1.981715E-08 -0.05376905
v 0.03112035 -1.981715E-08 0.05397426
v 0.05106423 0.6663423 0.06987242
v -0.0311373 -1.981715E-08 0.05386533
v -0.02215355 0.6661551 0.07003669
v -0.06211453 -1.981715E-08 2.385956E-06
v -0.05892599 0.6661814 0.006542827
v -0.03108427 -1.981715E-08 -0.05376905
v -0.02217033 0.6663999 -0.05698008
v 0.0275615 1.284516 -0.05635238
v 0.06547368 1.284727 0.009249596
v -0.04809788 1.284289 -0.05619576
v -0.08574191 1.284271 0.009248369
v -0.04809788 1.284289 -0.05619576
v -0.04804465 1.284471 0.07460402
v 0.0275073 1.2847 0.0747583
v 0.03695324 1.894996 -0.06372709
v 0.07377173 1.89504 1.827498E-05
v -0.03668449 1.895161 -0.06378038
v -0.07359376 1.895374 1.592981E-05
v -0.03668449 1.895161 -0.06378038
v -0.03673111 1.895421 0.06389618
v 0.0370019 1.895252 0.0638436
v 0.04298558 2.012799 -0.07422022
v 0.0858743 2.012799 6.302259E-05
v -0.04279067 2.012799 -0.07422159
v -0.08567826 2.012799 6.376798E-05
v -0.04279067 2.012799 -0.07422159
v -0.04279044 2.012799 0.07434873
v 0.04298584 2.012799 0.07434836
v 0.06413078 2.05939 6.336689E-05
v 0.04298558 2.012799 -0.07422022
v 0.0858743 2.012799 6.302259E-05
v 0.03211431 2.05939 -0.05539061
v -0.04279067 2.012799 -0.07422159
v -0.03191844 2.05939 -0.05539059
v -0.08567826 2.012799 6.376798E-05
v -0.0639356 2.05939 6.340546E-05
v -0.04279044 2.012799 0.07434873
v -0.03191913 2.05939 0.05551738
v 0.04298584 2.012799 0.07434836
v 0.03211449 2.05939 0.05551738
v 0.06413078 2.05939 6.336689E-05
v 9.802191E-05 2.064204 6.339528E-05
v 0.03211431 2.05939 -0.05539061
v 0.03211431 2.05939 -0.05539061
v 9.802191E-05 2.064204 6.339528E-05
v -0.03191844 2.05939 -0.05539059
v -0.03191844 2.05939 -0.05539059
v 9.802191E-05 2.064204 6.339528E-05
v -0.0639356 2.05939 6.340546E-05
v -0.0639356 2.05939 6.340546E-05
v 9.802191E-05 2.064204 6.339528E-05
v -0.03191913 2.05939 0.05551738
v -0.03191913 2.05939 0.05551738
v 9.802191E-05 2.064204 6.339528E-05
v 0.03211449 2.05939 0.05551738
v 0.03211449 2.05939 0.05551738
v 9.802191E-05 2.064204 6.339528E-05
v 0.06413078 2.05939 6.336689E-05
v 1.392964 0.01853742 0.02737198
v 0.7262967 1.048595 0.01795816
v 1.392813 1.129644 0.02572473
v 0.7262968 -0.003398332 0.07430552
v 1.92696 -0.003398767 0.01599491
v 1.926961 1.127224 0.002104676
v 0.7289256 1.856352 0.1515416
v 0.05962703 1.127224 0.005355323
v 0.06360092 1.892309 0.02859652
v 1.390935 1.876872 0.08444929
v 1.921817 1.886218 0.03986629
v 0.05962652 0.01667215 0.02527035
v 1.392964 0.01853742 0.02737198
v 0.7262967 1.048595 0.01795816
v 0.7262968 -0.003398332 0.07430552
v 1.392813 1.129644 0.02572473
v 1.92696 -0.003398767 0.01599491
v 1.926961 1.127224 0.002104676
v 0.7289256 1.856352 0.1515416
v 0.05962703 1.127224 0.005355323
v 0.06360092 1.892309 0.02859652
v 1.390935 1.876872 0.08444929
v 1.921817 1.886218 0.03986629
v 0.05962652 0.01667215 0.02527035

vn -0.02616525 -0.9948245 0.09817749
vn 0.0395897 0.08706924 0.9954154
vn 0.008408122 -0.9900217 0.1406607
vn -0.01611473 0.1145114 0.9932913
vn 0.0001366741 0.9980775 0.06197307
vn 0.0243043 0.9995083 0.01979029
vn -0.04047046 0.008554549 -0.9991443
vn 0.02018613 0.03428179 -0.9992085
vn 0.008408122 -0.9900217 0.1406607
vn -0.02616525 -0.9948245 0.09817749
vn 0.0212128 -0.9964588 0.08135797
vn 0.04493129 0.114935 0.9923565
vn -0.0478626 0.03286014 -0.9983133
vn 0.0212128 -0.9964588 0.08135797
vn -0.01796845 0.9998164 0.006600994
vn 0.006590292 -0.992791 0.1196734
vn -0.004780853 0.1065743 0.9942934
vn 0.004527828 0.02958978 -0.999552
vn 0.006590292 -0.992791 0.1196734
vn -0.006712389 0.9991883 0.03970964
vn -0.01944721 -0.8012926 0.597956
vn 0.02223417 0.574201 0.8184122
vn 0.008603219 -0.8107432 0.5853385
vn 0.03791045 0.5945821 0.8031406
vn -0.005808661 0.8784482 -0.4778018
vn 0.02503753 0.8832026 -0.4683222
vn -0.02292531 -0.4939674 -0.8691782
vn -0.03456111 -0.4682385 -0.8829259
vn 0.008603219 -0.8107432 0.5853385
vn -0.01944721 -0.8012926 0.597956
vn 0.03809306 -0.806217 0.5903919
vn 0.002642101 0.5879299 0.8089074
vn -0.007524194 -0.4771199 -0.878806
vn 0.03809306 -0.806217 0.5903919
vn -0.03730467 0.8803869 -0.472786
vn 0.0391788 -0.8020067 0.5960284
vn -0.0009389799 0.5946041 0.8040181
vn -0.004950974 -0.4685048 -0.8834471
vn 0.0391788 -0.8020067 0.5960284
vn -0.03892649 0.882921 -0.4679045
vn -0.05821209 -0.9937111 0.09564911
vn 0.01328173 0.07411044 0.9971617
vn -0.001782528 -0.9915972 0.1293477
vn -0.02155056 0.1257494 0.991828
vn 0.004073756 0.9985718 0.05326193
vn 0.05550034 0.9983161 0.01684811
vn -0.01304444 -0.0075309 -0.9998867
vn 0.03155361 0.044283 -0.9985207
vn -0.001782528 -0.9915972 0.1293477
vn -0.05821209 -0.9937111 0.09564911
vn 0.05434794 -0.9936337 0.0986794
vn 0.04801106 0.1233019 0.9912072
vn -0.05680908 0.04349172 -0.9974375
vn 0.05434794 -0.9936337 0.0986794
vn -0.04814838 0.9985747 0.02301468
vn 0.9989728 -0.03799086 -0.0247035
vn 0.4909547 0.0007294531 -0.8711848
vn 0.4735788 -0.01883702 -0.88055
vn 0.9998007 -0.001030591 -0.01994492
vn -0.5096765 -0.008339957 -0.860326
vn -0.5226633 0.002523741 -0.8525358
vn 0.5130158 -0.0354556 0.8576469
vn 0.5261248 -0.01162603 0.8503281
vn -0.4897624 -0.01382198 0.8717464
vn -0.4722287 -0.02097861 0.8812264
vn -0.9998397 0.005000724 0.01720191
vn -0.9995701 -0.01945154 0.02194129
vn -0.5226633 0.002523741 -0.8525358
vn -0.5096765 -0.008339957 -0.860326
vn 0.4751006 0.000459478 -0.8799314
vn 0.9997886 0.01121981 -0.01724038
vn -0.5274369 -0.01096552 -0.8495237
vn -0.9996299 -0.0116963 0.02456622
vn -0.5274369 -0.01096552 -0.8495237
vn -0.4881988 -0.001445765 0.8727313
vn 0.508391 0.01004688 0.861068
vn 0.4820244 -0.06095022 -0.8740353
vn 0.9979811 -0.05890859 -0.02373938
vn -0.5137254 -0.0526523 -0.8563378
vn -0.9989494 -0.04213176 0.01803185
vn -0.5137254 -0.0526523 -0.8563378
vn -0.4801823 -0.0400144 0.8762556
vn 0.5210302 -0.04849379 0.8521597
vn 0.4759721 0.1539527 -0.8658807
vn 0.9878544 0.1539989 -0.0206907
vn -0.5118988 0.1538542 -0.8451561
vn -0.9878868 0.1537897 0.02070111
vn -0.5118988 0.1538542 -0.8451561
vn -0.4760575 0.1538372 0.8658541
vn 0.5118085 0.1539473 0.8451939
vn 0.905979 0.4228971 -0.01897655
vn 0.4759721 0.1539527 -0.8658807
vn 0.9878544 0.1539989 -0.0206907
vn 0.4365534 0.4229035 -0.7940867
vn -0.5118988 0.1538542 -0.8451561
vn -0.4694252 0.4229026 -0.7751088
vn -0.9878868 0.1537897 0.02070111
vn -0.905979 0.422897 0.01897635
vn -0.4760575 0.1538372 0.8658541
vn -0.4365536 0.4229034 0.7940867
vn 0.5118085 0.1539473 0.8451939
vn 0.4694253 0.4229027 0.7751086
vn 0.07399458 0.9962509 -0.04481295
vn 0.07399458 0.9962509 -0.04481295
vn 0.07399458 0.9962509 -0.04481295
vn -0.001811711 0.9962509 -0.08648797
vn -0.001811711 0.9962509 -0.08648797
vn -0.001811711 0.9962509 -0.08648796
vn -0.07580625 0.9962509 -0.04167502
vn -0.07580625 0.9962509 -0.04167502
vn -0.07580625 0.9962509 -0.04167502
vn -0.07399457 0.9962509 0.04481292
vn -0.07399456 0.9962509 0.04481292
vn -0.07399457 0.9962509 0.04481292
vn 0.00181171 0.9962509 0.08648792
vn 0.00181171 0.9962509 0.08648792
vn 0.00181171 0.9962509 0.08648792
vn 0.07580625 0.9962509 0.04167499
vn 0.07580625 0.9962509 0.041675
vn 0.07580625 0.9962509 0.04167499
vn 0.05145198 0.01812526 0.9985111
vn 0.008598641 -0.06247806 0.9980093
vn 0.05599983 -0.04661752 0.997342
vn 0.01921248 0.05348563 0.9983838
vn 0.04888153 0.004594057 0.9987941
vn 0.06499596 -0.01837391 0.9977164
vn -0.008451059 -0.1043746 0.9945022
vn -0.04188624 -0.04800078 0.9979689
vn -0.1625278 -0.02889869 0.9862807
vn 0.1145367 -0.07776804 0.9903705
vn 0.08950433 -0.06662268 0.9937559
vn -0.0311342 0.04069258 0.9986867
vn -0.05145197 -0.01812537 -0.9985111
vn -0.008598668 0.06247796 -0.9980094
vn -0.01921248 -0.05348576 -0.9983838
vn -0.05599984 0.04661743 -0.997342
vn -0.04888154 -0.00459417 -0.9987941
vn -0.06499597 0.01837376 -0.9977164
vn 0.008451048 0.1043745 -0.9945022
vn 0.04188621 0.04800065 -0.9979689
vn 0.1625278 0.02889856 -0.9862807
vn -0.1145367 0.07776791 -0.9903705
vn -0.08950433 0.06662255 -0.9937559
vn 0.0311342 -0.04069271 -0.9986867

vt 0.007106781 0.006385803
vt 0.1434326 0.01481628
vt 0.1434326 0.005966187
vt 0.007225037 0.01540375
vt 0.1434326 0.02236938
vt 0.007270813 0.02297974
vt 0.1435547 0.0317688
vt 0.007274628 0.03213501
vt 0.1434326 0.04190063
vt 0.00749588 0.04217529
vt 0.2418213 0.005542755
vt 0.2418213 0.01457214
vt 0.2419434 0.03131104
vt 0.2418213 0.04129028
vt 0.2419434 0.02215576
vt 0.317627 0.005382538
vt 0.3178711 0.01429749
vt 0.3178711 0.03115845
vt 0.3181152 0.04129028
vt 0.3178711 0.02185059
vt 0.005462646 0.006175995
vt 0.1416016 0.01293945
vt 0.1416016 0.005237579
vt 0.005462646 0.01390076
vt 0.1416016 0.01972961
vt 0.005485535 0.0201416
vt 0.1416016 0.02813721
vt 0.005466461 0.02763367
vt 0.1416016 0.0369873
vt 0.005378723 0.03616333
vt 0.239624 0.005771637
vt 0.239624 0.01348877
vt 0.239624 0.02784729
vt 0.239624 0.03649902
vt 0.239624 0.01997375
vt 0.3156738 0.005847931
vt 0.3156738 0.01356506
vt 0.3156738 0.02780151
vt 0.3156738 0.03646851
vt 0.3156738 0.01998901
vt 0.001247406 0.005683899
vt 0.1362305 0.01416779
vt 0.1362305 0.005302429
vt 0.001335144 0.01473236
vt 0.1362305 0.02177429
vt 0.001320839 0.02224731
vt 0.1362305 0.03118896
vt 0.001277924 0.03134155
vt 0.1363525 0.04125977
vt 0.001566887 0.04141235
vt 0.3122559 0.005092621
vt 0.3122559 0.01410675
vt 0.3122559 0.03077698
vt 0.3120117 0.04086304
vt 0.3122559 0.02163696
vt 0.01048279 0.4238281
vt 0.1212769 0.4128418
vt 0.01044464 0.411377
vt 0.1213379 0.4238281
vt 0.1212158 0.4013672
vt 0.01054382 0.4001465
vt 0.01056671 0.4362793
vt 0.1213989 0.4348145
vt 0.01069641 0.4477539
vt 0.12146 0.4465332
vt 0.01060486 0.4580078
vt 0.1213379 0.4587402
vt 0.0104599 0.4682617
vt 0.1210327 0.4709473
vt 0.223999 0.4094238
vt 0.2241211 0.4221191
vt 0.223877 0.3967285
vt 0.223999 0.4597168
vt 0.2237549 0.472168
vt 0.2241211 0.4472656
vt 0.2242432 0.4348145
vt 0.3254395 0.4108887
vt 0.3256836 0.4233398
vt 0.3249512 0.3986816
vt 0.3254395 0.4614258
vt 0.3249512 0.473877
vt 0.3256836 0.4489746
vt 0.3256836 0.4360352
vt 0.3452148 0.4091797
vt 0.345459 0.4228516
vt 0.34375 0.3955078
vt 0.3452148 0.4628906
vt 0.3439941 0.4768066
vt 0.345459 0.4492188
vt 0.345459 0.4360352
vt 0.3225098 0.628418
vt 0.3061523 0.6269531
vt 0.3225098 0.6367188
vt 0.3134766 0.6230469
vt 0.3061523 0.6083984
vt 0.3134766 0.6123047
vt 0.3225098 0.5986328
vt 0.3225098 0.6069336
vt 0.3388672 0.6083984
vt 0.331543 0.6123047
vt 0.3388672 0.6269531
vt 0.331543 0.6230469
vt 0.3225098 0.628418
vt 0.3225098 0.6176758
vt 0.3134766 0.6230469
vt 0.3134766 0.6230469
vt 0.3225098 0.6176758
vt 0.3134766 0.6123047
vt 0.3134766 0.6123047
vt 0.3225098 0.6176758
vt 0.3225098 0.6069336
vt 0.3225098 0.6069336
vt 0.3225098 0.6176758
vt 0.331543 0.6123047
vt 0.331543 0.6123047
vt 0.3225098 0.6176758
vt 0.331543 0.6230469
vt 0.331543 0.6230469
vt 0.3225098 0.6176758
vt 0.3225098 0.628418
vt 0.2315674 0.05615234
vt 0.12323 0.2294922
vt 0.2344971 0.2412109
vt 0.1206665 0.05413818
vt 0.3203125 0.05099487
vt 0.3234863 0.2391357
vt 0.1259766 0.3654785
vt 0.0125885 0.2440186
vt 0.01356506 0.3708496
vt 0.2364502 0.3659668
vt 0.3249512 0.3654785
vt 0.009735107 0.05917358
vt 0.2315674 0.05615234
vt 0.12323 0.2294922
vt 0.1206665 0.05413818
vt 0.2344971 0.2412109
vt 0.3203125 0.05099487
vt 0.3234863 0.2391357
vt 0.1259766 0.3654785
vt 0.0125885 0.2440186
vt 0.01356506 0.3708496
vt 0.2364502 0.3659668
vt 0.3249512 0.3654785
vt 0.009735107 0.05917358

g fence_metal_A_5_8544_535
usemtl fence_metal_A_5_8544_535
usemap fence_metal_A_5_8544_535
f 1/1/1 3/3/3 2/2/2
f 2/2/2 4/4/4 1/1/1
f 4/4/4 2/2/2 5/5/5
f 5/5/5 6/6/6 4/4/4
f 6/6/6 5/5/5 7/7/7
f 7/7/7 8/8/8 6/6/6
f 8/8/8 7/7/7 9/9/9
f 9/9/9 10/10/10 8/8/8
f 2/2/2 3/3/3 11/11/11
f 11/11/11 12/12/12 2/2/2
f 5/5/5 2/2/2 12/12/12
f 9/9/9 7/7/7 13/13/13
f 13/13/13 14/14/14 9/9/9
f 15/15/15 13/13/13 7/7/7
f 7/7/7 5/5/5 15/15/15
f 12/12/12 15/15/15 5/5/5
f 12/12/12 11/11/11 16/16/16
f 16/16/16 17/17/17 12/12/12
f 14/14/14 13/13/13 18/18/18
f 18/18/18 19/19/19 14/14/14
f 20/20/20 18/18/18 13/13/13
f 13/13/13 15/15/15 20/20/20
f 12/12/12 17/17/17 20/20/20
f 20/20/20 15/15/15 12/12/12
f 21/21/21 23/23/23 22/22/22
f 22/22/22 24/24/24 21/21/21
f 24/24/24 22/22/22 25/25/25
f 25/25/25 26/26/26 24/24/24
f 26/26/26 25/25/25 27/27/27
f 27/27/27 28/28/28 26/26/26
f 28/28/28 27/27/27 29/29/29
f 29/29/29 30/30/30 28/28/28
f 22/22/22 23/23/23 31/31/31
f 31/31/31 32/32/32 22/22/22
f 25/25/25 22/22/22 32/32/32
f 29/29/29 27/27/27 33/33/33
f 33/33/33 34/34/34 29/29/29
f 35/35/35 33/33/33 27/27/27
f 27/27/27 25/25/25 35/35/35
f 32/32/32 35/35/35 25/25/25
f 32/32/32 31/31/31 36/36/36
f 36/36/36 37/37/37 32/32/32
f 34/34/34 33/33/33 38/38/38
f 38/38/38 39/39/39 34/34/34
f 40/40/40 38/38/38 33/33/33
f 33/33/33 35/35/35 40/40/40
f 32/32/32 37/37/37 40/40/40
f 40/40/40 35/35/35 32/32/32
f 41/41/41 43/43/43 42/42/42
f 42/42/42 44/44/44 41/41/41
f 44/44/44 42/42/42 45/45/45
f 45/45/45 46/46/46 44/44/44
f 46/46/46 45/45/45 47/47/47
f 47/47/47 48/48/48 46/46/46
f 48/48/48 47/47/47 49/49/49
f 49/49/49 50/50/50 48/48/48
f 42/42/42 43/43/43 51/51/51
f 51/51/51 52/52/52 42/42/42
f 45/45/45 42/42/42 52/52/52
f 49/49/49 47/47/47 53/53/53
f 53/53/53 54/54/54 49/49/49
f 55/55/55 53/53/53 47/47/47
f 47/47/47 45/45/45 55/55/55
f 52/52/52 55/55/55 45/45/45
f 56/56/56 58/58/58 57/57/57
f 57/57/57 59/59/59 56/56/56
f 60/60/60 57/57/57 58/58/58
f 58/58/58 61/61/61 60/60/60
f 62/62/62 56/56/56 59/59/59
f 59/59/59 63/63/63 62/62/62
f 64/64/64 62/62/62 63/63/63
f 63/63/63 65/65/65 64/64/64
f 66/66/66 64/64/64 65/65/65
f 65/65/65 67/67/67 66/66/66
f 68/68/68 66/66/66 67/67/67
f 67/67/67 69/69/69 68/68/68
f 59/59/59 57/57/57 70/70/70
f 70/70/70 71/71/71 59/59/59
f 63/63/63 59/59/59 71/71/71
f 57/57/57 60/60/60 72/72/72
f 72/72/72 70/70/70 57/57/57
f 69/69/69 67/67/67 73/73/73
f 73/73/73 74/74/74 69/69/69
f 67/67/67 65/65/65 75/75/75
f 75/75/75 73/73/73 67/67/67
f 65/65/65 63/63/63 76/76/76
f 76/76/76 75/75/75 65/65/65
f 71/71/71 76/76/76 63/63/63
f 71/71/71 70/70/70 77/77/77
f 77/77/77 78/78/78 71/71/71
f 76/76/76 71/71/71 78/78/78
f 70/70/70 72/72/72 79/79/79
f 79/79/79 77/77/77 70/70/70
f 74/74/74 73/73/73 80/80/80
f 80/80/80 81/81/81 74/74/74
f 73/73/73 75/75/75 82/82/82
f 82/82/82 80/80/80 73/73/73
f 75/75/75 76/76/76 83/83/83
f 83/83/83 82/82/82 75/75/75
f 78/78/78 83/83/83 76/76/76
f 78/78/78 77/77/77 84/84/84
f 84/84/84 85/85/85 78/78/78
f 83/83/83 78/78/78 85/85/85
f 77/77/77 79/79/79 86/86/86
f 86/86/86 84/84/84 77/77/77
f 81/81/81 80/80/80 87/87/87
f 87/87/87 88/88/88 81/81/81
f 80/80/80 82/82/82 89/89/89
f 89/89/89 87/87/87 80/80/80
f 82/82/82 83/83/83 90/90/90
f 90/90/90 89/89/89 82/82/82
f 85/85/85 90/90/90 83/83/83
f 91/91/91 93/93/93 92/92/92
f 92/92/92 94/94/94 91/91/91
f 94/94/94 92/92/92 95/95/95
f 95/95/95 96/96/96 94/94/94
f 96/96/96 95/95/95 97/97/97
f 97/97/97 98/98/98 96/96/96
f 98/98/98 97/97/97 99/99/99
f 99/99/99 100/100/100 98/98/98
f 100/100/100 99/99/99 101/101/101
f 101/101/101 102/102/102 100/100/100
f 102/102/102 101/101/101 93/93/93
f 93/93/93 91/91/91 102/102/102
f 103/103/103 105/105/105 104/104/104
f 106/106/106 108/108/108 107/107/107
f 109/109/109 111/111/111 110/110/110
f 112/112/112 114/114/114 113/113/113
f 115/115/115 117/117/117 116/116/116
f 118/118/118 120/120/120 119/119/119
f 121/121/121 123/123/123 122/122/122
f 122/122/122 124/124/124 121/121/121
f 123/123/123 121/121/121 125/125/125
f 125/125/125 126/126/126 123/123/123
f 127/127/127 122/122/122 123/123/123
f 128/128/128 122/122/122 127/127/127
f 127/127/127 129/129/129 128/128/128
f 123/123/123 130/130/130 127/127/127
f 131/131/131 130/130/130 123/123/123
f 123/123/123 126/126/126 131/131/131
f 132/132/132 124/124/124 122/122/122
f 122/122/122 128/128/128 132/132/132
f 133/133/133 135/135/135 134/134/134
f 134/134/134 136/136/136 133/133/133
f 137/137/137 133/133/133 136/136/136
f 136/136/136 138/138/138 137/137/137
f 136/136/136 134/134/134 139/139/139
f 139/139/139 134/134/134 140/140/140
f 140/140/140 141/141/141 139/139/139
f 139/139/139 142/142/142 136/136/136
f 143/143/143 138/138/138 136/136/136
f 136/136/136 142/142/142 143/143/143
f 144/144/144 140/140/140 134/134/134
f 134/134/134 135/135/135 144/144/144
