#fence_concrete_A_3_9346_518.obj

v 0.09332325 0.6427549 0.03994995
v 1.906674 0.02937159 0.03995004
v 0.09332377 0.02937137 0.03994993
v 1.906673 0.6427552 0.03995006
v 0.09332332 0.642755 -0.03995607
v 1.906673 0.6427552 0.03995006
v 0.09332325 0.6427549 0.03994995
v 1.906673 0.6427553 -0.03995596
v 0.09332385 0.02937135 -0.03995609
v 1.906673 0.6427553 -0.03995596
v 0.09332332 0.642755 -0.03995607
v 1.906674 0.02937168 -0.03995598
v 0.09332377 0.02937137 0.03994993
v 1.906674 0.02937168 -0.03995598
v 0.09332385 0.02937135 -0.03995609
v 1.906674 0.02937159 0.03995004
v 0.09332324 1.285767 0.03995021
v 1.906674 0.672384 0.0399503
v 0.09332377 0.6723837 0.03995018
v 1.906673 1.285768 0.03995032
v 0.09332331 1.285767 -0.03995581
v 1.906673 1.285768 0.03995032
v 0.09332324 1.285767 0.03995021
v 1.906673 1.285767 -0.0399557
v 0.09332383 0.6723837 -0.03995583
v 1.906673 1.285767 -0.0399557
v 0.09332331 1.285767 -0.03995581
v 1.906674 0.6723839 -0.03995572
v 0.09332377 0.6723837 0.03995018
v 1.906674 0.6723839 -0.03995572
v 0.09332383 0.6723837 -0.03995583
v 1.906674 0.672384 0.0399503
v 0.09332867 -6.887208E-08 -0.09333191
v -0.09333185 -3.853964E-08 0.09332613
v 0.09332857 -1.324742E-08 0.09332534
v -0.09333169 -3.034413E-08 -0.09333208
v 0.0933281 2 -0.09333245
v -0.09333146 2 0.09332564
v -0.09333225 2 -0.09333263
v 0.09332793 2 0.09332575
v 0.09332793 2 0.09332575
v -0.09333185 -3.853964E-08 0.09332613
v -0.09333146 2 0.09332564
v 0.09332857 -1.324742E-08 0.09332534
v 0.0933281 2 -0.09333245
v 0.09332857 -1.324742E-08 0.09332534
v 0.09332793 2 0.09332575
v 0.09332867 -6.887208E-08 -0.09333191
v -0.09333225 2 -0.09333263
v 0.09332867 -6.887208E-08 -0.09333191
v 0.0933281 2 -0.09333245
v -0.09333169 -3.034413E-08 -0.09333208
v -0.09333146 2 0.09332564
v -0.09333169 -3.034413E-08 -0.09333208
v -0.09333225 2 -0.09333263
v -0.09333185 -3.853964E-08 0.09332613
v 1.911864 1.784735 -0.05202192
v 0.07978831 1.636561 0.08168913
v 1.910908 1.625386 0.08168987
v 0.08113067 1.795907 -0.05202352
v 1.910953 1.638202 -0.06484473
v 0.08070665 1.783087 0.09450672
v 0.0802182 1.649375 -0.06484456
v 1.911822 1.771911 0.0945072
v 1.911864 1.784735 -0.05202192
v 0.07978831 1.636561 0.08168913
v 0.08113067 1.795907 -0.05202352
v 1.910908 1.625386 0.08168987
v 1.910953 1.638202 -0.06484473
v 0.08070665 1.783087 0.09450672
v 1.911822 1.771911 0.0945072
v 0.0802182 1.649375 -0.06484456
v 1.913762 1.992166 -0.05202212
v 0.08168076 1.843993 0.08168853
v 1.9128 1.832818 0.08169023
v 0.08302306 2.003339 -0.05202316
v 1.912848 1.845633 -0.06484473
v 0.08259809 1.990519 0.09450701
v 0.0821097 1.856807 -0.06484523
v 1.913716 1.979342 0.09450673
v 1.913762 1.992166 -0.05202212
v 0.08168076 1.843993 0.08168853
v 0.08302306 2.003339 -0.05202316
v 1.9128 1.832818 0.08169023
v 1.912848 1.845633 -0.06484473
v 0.08259809 1.990519 0.09450701
v 1.913716 1.979342 0.09450673
v 0.0821097 1.856807 -0.06484523
v 1.910386 1.675201 -0.0520222
v 0.08506935 1.458007 0.08168883
v 1.915315 1.515926 0.08169024
v 0.08051321 1.617294 -0.05202348
v 1.914889 1.528734 -0.06484472
v 0.08056737 1.604466 0.09450654
v 0.08501535 1.470827 -0.06484505
v 1.910817 1.662384 0.09450726
v 1.910386 1.675201 -0.0520222
v 0.08506935 1.458007 0.08168883
v 0.08051321 1.617294 -0.05202348
v 1.915315 1.515926 0.08169024
v 1.914889 1.528734 -0.06484472
v 0.08056737 1.604466 0.09450654
v 1.910817 1.662384 0.09450726
v 0.08501535 1.470827 -0.06484505
v 1.916267 1.407197 -0.05202204
v 0.07918067 1.350584 0.08168881
v 1.907521 1.248085 0.08168972
v 0.08830625 1.509675 -0.0520234
v 1.908191 1.260883 -0.06484453
v 0.08725698 1.49689 0.09450649
v 0.08023008 1.363362 -0.06484494
v 1.915597 1.394391 0.09450739
v 1.916267 1.407197 -0.05202204
v 0.07918067 1.350584 0.08168881
v 0.08830625 1.509675 -0.0520234
v 1.907521 1.248085 0.08168972
v 1.908191 1.260883 -0.06484453
v 0.08725698 1.49689 0.09450649
v 1.915597 1.394391 0.09450739
v 0.08023008 1.363362 -0.06484494

vn 0.06951302 0.005432942 0.9975668
vn 0.06951302 0.005432942 0.9975668
vn 0.06951302 0.005432942 0.9975668
vn 0.06951302 0.005432942 0.9975668
vn -0.0169256 0.9998472 -0.004265956
vn -0.0169256 0.9998472 -0.004265956
vn -0.0169256 0.9998472 -0.004265956
vn -0.0169256 0.9998472 -0.004265956
vn -0.06951301 -0.005432942 -0.9975668
vn -0.06951301 -0.005432942 -0.9975668
vn -0.06951302 -0.005432942 -0.9975668
vn -0.069513 -0.005432942 -0.9975668
vn 0.01692564 -0.9998472 0.004266075
vn 0.01692554 -0.9998472 0.004265179
vn 0.01692565 -0.9998472 0.004266102
vn 0.01692554 -0.9998472 0.004265152
vn 0.06951302 0.005432942 0.9975668
vn 0.06951302 0.005432942 0.9975668
vn 0.06951302 0.005432942 0.9975668
vn 0.06951302 0.005432942 0.9975668
vn -0.01692547 0.9998472 -0.004265965
vn -0.01692547 0.9998472 -0.004265965
vn -0.01692547 0.9998472 -0.004265965
vn -0.01692547 0.9998472 -0.004265965
vn -0.069513 -0.005432942 -0.9975668
vn -0.069513 -0.005432942 -0.9975668
vn -0.069513 -0.005432942 -0.9975668
vn -0.069513 -0.005432942 -0.9975668
vn 0.0169256 -0.9998472 0.004265956
vn 0.0169256 -0.9998472 0.004265956
vn 0.0169256 -0.9998472 0.004265956
vn 0.0169256 -0.9998472 0.004265956
vn 0.01692548 -0.9998472 0.004266084
vn 0.01692548 -0.9998472 0.004266084
vn 0.01692548 -0.9998472 0.004266084
vn 0.01692548 -0.9998472 0.004266084
vn -0.01692547 0.9998472 -0.004265965
vn -0.01692547 0.9998472 -0.004265965
vn -0.01692547 0.9998472 -0.004265965
vn -0.01692547 0.9998472 -0.004265965
vn 0.06951285 0.00543294 0.9975668
vn 0.06951294 0.005432941 0.9975668
vn 0.06951284 0.00543294 0.9975668
vn 0.06951295 0.005432941 0.9975668
vn 0.9974375 0.01658773 -0.06959435
vn 0.9974375 0.01658773 -0.06959435
vn 0.9974375 0.01658773 -0.06959435
vn 0.9974375 0.01658773 -0.06959435
vn -0.06951295 -0.005432941 -0.9975668
vn -0.06951295 -0.005432941 -0.9975668
vn -0.06951295 -0.005432941 -0.9975668
vn -0.06951295 -0.005432941 -0.9975668
vn -0.9974375 -0.01658773 0.06959435
vn -0.9974375 -0.01658773 0.06959435
vn -0.9974375 -0.01658773 0.06959435
vn -0.9974375 -0.01658773 0.06959435
vn -0.04628322 -0.6469049 -0.761165
vn -0.04628316 -0.6469052 -0.7611647
vn -0.04628323 -0.6469049 -0.761165
vn -0.04628316 -0.6469052 -0.7611647
vn -0.0529842 0.7624977 -0.6448177
vn -0.05298422 0.7624977 -0.6448178
vn -0.05298422 0.7624976 -0.6448178
vn -0.05298419 0.7624977 -0.6448177
vn 0.04628322 0.6469049 0.761165
vn 0.04628316 0.6469052 0.7611647
vn 0.04628316 0.6469052 0.7611647
vn 0.04628323 0.6469049 0.761165
vn 0.0529842 -0.7624977 0.6448177
vn 0.05298422 -0.7624977 0.6448178
vn 0.05298419 -0.7624977 0.6448177
vn 0.05298422 -0.7624976 0.6448178
vn -0.04628307 -0.6469055 -0.7611645
vn -0.04628326 -0.6469046 -0.7611653
vn -0.04628305 -0.6469055 -0.7611645
vn -0.04628327 -0.6469045 -0.7611653
vn -0.05298413 0.7624978 -0.6448175
vn -0.05298425 0.7624974 -0.6448181
vn -0.05298426 0.7624973 -0.6448181
vn -0.05298413 0.7624978 -0.6448175
vn 0.04628307 0.6469055 0.7611645
vn 0.04628326 0.6469046 0.7611653
vn 0.04628327 0.6469045 0.7611653
vn 0.04628305 0.6469055 0.7611645
vn 0.05298413 -0.7624978 0.6448175
vn 0.05298425 -0.7624974 0.6448181
vn 0.05298413 -0.7624978 0.6448175
vn 0.05298426 -0.7624973 0.6448181
vn -0.02209641 -0.6461942 -0.7628531
vn -0.02209656 -0.6461937 -0.7628537
vn -0.0220964 -0.6461943 -0.7628531
vn -0.02209658 -0.6461936 -0.7628538
vn -0.08180863 0.7616489 -0.642805
vn -0.08180867 0.7616487 -0.6428052
vn -0.08180867 0.7616487 -0.6428052
vn -0.08180862 0.7616489 -0.6428049
vn 0.02209641 0.6461942 0.7628531
vn 0.02209656 0.6461937 0.7628537
vn 0.02209658 0.6461936 0.7628538
vn 0.0220964 0.6461943 0.7628531
vn 0.08180863 -0.7616489 0.642805
vn 0.08180867 -0.7616487 0.6428052
vn 0.08180862 -0.7616489 0.6428049
vn 0.08180867 -0.7616487 0.6428052
vn -0.07827409 -0.6464411 -0.7589383
vn -0.07827434 -0.6464395 -0.7589396
vn -0.07827404 -0.6464413 -0.7589381
vn -0.07827435 -0.6464393 -0.7589396
vn -0.01485932 0.7619432 -0.6474732
vn -0.01485899 0.7619444 -0.647472
vn -0.01485896 0.7619444 -0.6474717
vn -0.01485934 0.7619432 -0.6474733
vn 0.07827409 0.6464411 0.7589383
vn 0.07827434 0.6464395 0.7589396
vn 0.07827435 0.6464393 0.7589396
vn 0.07827404 0.6464413 0.7589381
vn 0.01485932 -0.7619432 0.6474732
vn 0.01485899 -0.7619444 0.647472
vn 0.01485934 -0.7619432 0.6474733
vn 0.01485896 -0.7619444 0.6474717

vt 0.8129883 0.980957
vt 0.527832 0.8730469
vt 0.8129883 0.8730469
vt 0.527832 0.980957
vt 0.5180664 0.980957
vt 0.8032227 0.9946289
vt 0.5180664 0.9946289
vt 0.8032227 0.980957
vt 0.5180664 0.8730469
vt 0.8032227 0.980957
vt 0.5180664 0.980957
vt 0.8032227 0.8730469
vt 0.5180664 0.859375
vt 0.8032227 0.8730469
vt 0.5180664 0.8730469
vt 0.8032227 0.859375
vt 0.5180664 0.980957
vt 0.8032227 0.8730469
vt 0.5180664 0.8730469
vt 0.8032227 0.980957
vt 0.8129883 0.980957
vt 0.527832 0.9946289
vt 0.8129883 0.9946289
vt 0.527832 0.980957
vt 0.8129883 0.8730469
vt 0.527832 0.980957
vt 0.8129883 0.980957
vt 0.527832 0.8730469
vt 0.8129883 0.859375
vt 0.527832 0.8730469
vt 0.8129883 0.8730469
vt 0.527832 0.859375
vt 0.8442383 0.6303711
vt 0.8769531 0.5976563
vt 0.8442383 0.5976563
vt 0.8769531 0.6303711
vt 0.8442383 0.5976563
vt 0.8769531 0.6303711
vt 0.8769531 0.5976563
vt 0.8442383 0.6303711
vt 0.6738281 0.5419922
vt 0.322998 0.574707
vt 0.6738281 0.574707
vt 0.322998 0.5419922
vt 0.6738281 0.5087891
vt 0.322998 0.5415039
vt 0.6738281 0.5415039
vt 0.322998 0.5087891
vt 0.6738281 0.5419922
vt 0.322998 0.574707
vt 0.6738281 0.574707
vt 0.322998 0.5419922
vt 0.6738281 0.5087891
vt 0.322998 0.5415039
vt 0.6738281 0.5415039
vt 0.322998 0.5087891
vt 0.9970703 0.6328125
vt 0.9667969 0.9365234
vt 0.9667969 0.6328125
vt 0.9970703 0.9365234
vt 0.9970703 0.6328125
vt 0.9667969 0.9365234
vt 0.9970703 0.9365234
vt 0.9667969 0.6328125
vt 0.9970703 0.6328125
vt 0.9667969 0.9365234
vt 0.9970703 0.9365234
vt 0.9667969 0.6328125
vt 0.9970703 0.6328125
vt 0.9667969 0.9365234
vt 0.9667969 0.6328125
vt 0.9970703 0.9365234
vt 0.9970703 0.668457
vt 0.9667969 0.9794922
vt 0.9667969 0.668457
vt 0.9970703 0.9794922
vt 0.9970703 0.668457
vt 0.9667969 0.9794922
vt 0.9970703 0.9794922
vt 0.9667969 0.668457
vt 0.9970703 0.668457
vt 0.9667969 0.9794922
vt 0.9970703 0.9794922
vt 0.9667969 0.668457
vt 0.9970703 0.668457
vt 0.9667969 0.9794922
vt 0.9667969 0.668457
vt 0.9970703 0.9794922
vt 0.9970703 0.6669922
vt 0.9667969 0.9785156
vt 0.9667969 0.6669922
vt 0.9970703 0.9785156
vt 0.9970703 0.6669922
vt 0.9667969 0.9785156
vt 0.9970703 0.9785156
vt 0.9667969 0.6669922
vt 0.9970703 0.6669922
vt 0.9667969 0.9785156
vt 0.9970703 0.9785156
vt 0.9667969 0.6669922
vt 0.9970703 0.6669922
vt 0.9667969 0.9785156
vt 0.9667969 0.6669922
vt 0.9970703 0.9785156
vt 0.9970703 0.9379883
vt 0.9667969 0.6342773
vt 0.9667969 0.9379883
vt 0.9970703 0.6342773
vt 0.9970703 0.9379883
vt 0.9667969 0.6342773
vt 0.9970703 0.6342773
vt 0.9667969 0.9379883
vt 0.9970703 0.9379883
vt 0.9667969 0.6342773
vt 0.9970703 0.6342773
vt 0.9667969 0.9379883
vt 0.9970703 0.9379883
vt 0.9667969 0.6342773
vt 0.9667969 0.9379883
vt 0.9970703 0.6342773

g fence_concrete_A_3_9346_518
usemtl fence_concrete_A_3_9346_518
usemap fence_concrete_A_3_9346_518
f 1/1/1 3/3/3 2/2/2
f 2/2/2 4/4/4 1/1/1
f 5/5/5 7/7/7 6/6/6
f 6/6/6 8/8/8 5/5/5
f 9/9/9 11/11/11 10/10/10
f 10/10/10 12/12/12 9/9/9
f 13/13/13 15/15/15 14/14/14
f 14/14/14 16/16/16 13/13/13
f 17/17/17 19/19/19 18/18/18
f 18/18/18 20/20/20 17/17/17
f 21/21/21 23/23/23 22/22/22
f 22/22/22 24/24/24 21/21/21
f 25/25/25 27/27/27 26/26/26
f 26/26/26 28/28/28 25/25/25
f 29/29/29 31/31/31 30/30/30
f 30/30/30 32/32/32 29/29/29
f 33/33/33 35/35/35 34/34/34
f 34/34/34 36/36/36 33/33/33
f 37/37/37 39/39/39 38/38/38
f 38/38/38 40/40/40 37/37/37
f 41/41/41 43/43/43 42/42/42
f 42/42/42 44/44/44 41/41/41
f 45/45/45 47/47/47 46/46/46
f 46/46/46 48/48/48 45/45/45
f 49/49/49 51/51/51 50/50/50
f 50/50/50 52/52/52 49/49/49
f 53/53/53 55/55/55 54/54/54
f 54/54/54 56/56/56 53/53/53
f 57/57/57 59/59/59 58/58/58
f 58/58/58 60/60/60 57/57/57
f 61/61/61 63/63/63 62/62/62
f 62/62/62 64/64/64 61/61/61
f 65/65/65 67/67/67 66/66/66
f 66/66/66 68/68/68 65/65/65
f 69/69/69 71/71/71 70/70/70
f 70/70/70 72/72/72 69/69/69
f 73/73/73 75/75/75 74/74/74
f 74/74/74 76/76/76 73/73/73
f 77/77/77 79/79/79 78/78/78
f 78/78/78 80/80/80 77/77/77
f 81/81/81 83/83/83 82/82/82
f 82/82/82 84/84/84 81/81/81
f 85/85/85 87/87/87 86/86/86
f 86/86/86 88/88/88 85/85/85
f 89/89/89 91/91/91 90/90/90
f 90/90/90 92/92/92 89/89/89
f 93/93/93 95/95/95 94/94/94
f 94/94/94 96/96/96 93/93/93
f 97/97/97 99/99/99 98/98/98
f 98/98/98 100/100/100 97/97/97
f 101/101/101 103/103/103 102/102/102
f 102/102/102 104/104/104 101/101/101
f 105/105/105 107/107/107 106/106/106
f 106/106/106 108/108/108 105/105/105
f 109/109/109 111/111/111 110/110/110
f 110/110/110 112/112/112 109/109/109
f 113/113/113 115/115/115 114/114/114
f 114/114/114 116/116/116 113/113/113
f 117/117/117 119/119/119 118/118/118
f 118/118/118 120/120/120 117/117/117
