#fence_concrete_A_6_10674_507.obj

v 0.09332089 0.642755 0.03994788
v 1.906671 0.02937165 0.03994801
v 0.09332089 0.02937141 0.03994788
v 1.906671 0.6427553 0.03994801
v 0.09332085 0.642755 -0.03995806
v 1.906671 0.6427553 0.03994801
v 0.09332089 0.642755 0.03994788
v 1.906671 0.6427553 -0.03995794
v 0.09332085 0.02937141 -0.03995806
v 1.906671 0.6427553 -0.03995794
v 0.09332085 0.642755 -0.03995806
v 1.906671 0.02937171 -0.03995794
v 0.09332089 0.02937141 0.03994788
v 1.906671 0.02937171 -0.03995794
v 0.09332085 0.02937141 -0.03995806
v 1.906671 0.02937165 0.03994801
v 0.09332089 1.285768 0.03994788
v 1.906671 0.6723841 0.03994801
v 0.09332089 0.6723838 0.03994788
v 1.906671 1.285768 0.03994801
v 0.09332085 1.285768 -0.03995806
v 1.906671 1.285768 0.03994801
v 0.09332089 1.285768 0.03994788
v 1.906671 1.285768 -0.03995794
v 0.09332085 0.6723838 -0.03995806
v 1.906671 1.285768 -0.03995794
v 0.09332085 1.285768 -0.03995806
v 1.906671 0.6723841 -0.03995794
v 0.09332089 0.6723838 0.03994788
v 1.906671 0.6723841 -0.03995794
v 0.09332085 0.6723838 -0.03995806
v 1.906671 0.6723841 0.03994801
v 0.09332571 -6.176827E-09 -0.09333415
v -0.09333458 -6.176827E-09 0.09332369
v 0.09332559 -6.176827E-09 0.09332402
v -0.09333446 -6.176827E-09 -0.09333448
v 0.09332571 2 -0.09333415
v -0.09333458 2 0.09332369
v -0.09333446 2 -0.09333448
v 0.09332559 2 0.09332402
v 0.09332559 2 0.09332402
v -0.09333458 -6.176827E-09 0.09332369
v -0.09333458 2 0.09332369
v 0.09332559 -6.176827E-09 0.09332402
v 0.09332571 2 -0.09333415
v 0.09332559 -6.176827E-09 0.09332402
v 0.09332559 2 0.09332402
v 0.09332571 -6.176827E-09 -0.09333415
v -0.09333446 2 -0.09333448
v 0.09332571 -6.176827E-09 -0.09333415
v 0.09332571 2 -0.09333415
v -0.09333446 -6.176827E-09 -0.09333448
v -0.09333458 2 0.09332369
v -0.09333446 -6.176827E-09 -0.09333448
v -0.09333446 2 -0.09333448
v -0.09333458 -6.176827E-09 0.09332369
v 1.911861 1.784735 -0.05202425
v 0.07978573 1.636561 0.08168705
v 1.910904 1.625386 0.08168739
v 0.08112831 1.795907 -0.05202527
v 1.910951 1.638202 -0.0648469
v 0.0807036 1.783087 0.09450496
v 0.08021524 1.649375 -0.06484698
v 1.91182 1.771911 0.09450529
v 1.911861 1.784735 -0.05202425
v 0.07978573 1.636561 0.08168705
v 0.08112831 1.795907 -0.05202527
v 1.910904 1.625386 0.08168739
v 1.910951 1.638202 -0.0648469
v 0.0807036 1.783087 0.09450496
v 1.91182 1.771911 0.09450529
v 0.08021524 1.649375 -0.06484698
v 1.913758 1.992166 -0.05202402
v 0.08167771 1.843993 0.08168725
v 1.912796 1.832818 0.08168758
v 0.08302053 2.003339 -0.05202507
v 1.912845 1.845633 -0.06484669
v 0.08259559 1.990519 0.09450515
v 0.08210745 1.856807 -0.06484678
v 1.913714 1.979342 0.0945055
v 1.913758 1.992166 -0.05202402
v 0.08167771 1.843993 0.08168725
v 0.08302053 2.003339 -0.05202507
v 1.912796 1.832818 0.08168758
v 1.912845 1.845633 -0.06484669
v 0.08259559 1.990519 0.09450515
v 1.913714 1.979342 0.0945055
v 0.08210745 1.856807 -0.06484678
v 1.910384 1.675201 -0.052024
v 0.08506636 1.458007 0.08168636
v 1.915311 1.515926 0.08168748
v 0.08051071 1.617294 -0.05202494
v 1.914886 1.528734 -0.06484661
v 0.0805645 1.604466 0.09450513
v 0.08501259 1.470827 -0.06484658
v 1.910814 1.662385 0.09450532
v 1.910384 1.675201 -0.052024
v 0.08506636 1.458007 0.08168636
v 0.08051071 1.617294 -0.05202494
v 1.915311 1.515926 0.08168748
v 1.914886 1.528734 -0.06484661
v 0.0805645 1.604466 0.09450513
v 1.910814 1.662385 0.09450532
v 0.08501259 1.470827 -0.06484658
v 1.916263 1.407197 -0.05202418
v 0.07917769 1.350584 0.08168647
v 1.907518 1.248085 0.08168829
v 0.0883038 1.509675 -0.0520248
v 1.908187 1.260883 -0.06484629
v 0.08725385 1.49689 0.09450476
v 0.08022767 1.363362 -0.0648469
v 1.915594 1.394391 0.09450466
v 1.916263 1.407197 -0.05202418
v 0.07917769 1.350584 0.08168647
v 0.0883038 1.509675 -0.0520248
v 1.907518 1.248085 0.08168829
v 1.908187 1.260883 -0.06484629
v 0.08725385 1.49689 0.09450476
v 1.915594 1.394391 0.09450466
v 0.08022767 1.363362 -0.0648469

vn 0.005661295 0 0.9999845
vn 0.005661294 0 0.9999845
vn 0.005661296 0 0.9999845
vn 0.005661293 0 0.9999845
vn -1.262184E-07 0.9999995 7.145619E-10
vn -1.262184E-07 0.9999995 7.145619E-10
vn -1.262185E-07 0.9999995 7.14562E-10
vn -1.262185E-07 0.9999995 7.14562E-10
vn -0.005661291 0 -0.9999845
vn -0.005661285 0 -0.9999845
vn -0.005661293 0 -0.9999845
vn -0.005661283 0 -0.9999845
vn 1.678048E-07 -0.9999995 1.214718E-07
vn 1.229887E-07 -0.9999995 -7.795535E-07
vn 1.691358E-07 -0.9999995 1.482323E-07
vn 1.216576E-07 -0.9999995 -8.06314E-07
vn 0.005661295 0 0.9999845
vn 0.005661294 0 0.9999845
vn 0.005661296 0 0.9999845
vn 0.005661293 0 0.9999845
vn 0 0.9999995 0
vn 0 0.9999995 0
vn 0 0.9999995 0
vn 0 0.9999995 0
vn -0.005661283 0 -0.9999845
vn -0.005661283 0 -0.9999845
vn -0.005661283 0 -0.9999845
vn -0.005661283 0 -0.9999845
vn 1.262185E-07 -0.9999995 -7.14562E-10
vn 1.262184E-07 -0.9999995 -7.145619E-10
vn 1.262185E-07 -0.9999995 -7.14562E-10
vn 1.262184E-07 -0.9999995 -7.145619E-10
vn 6.748951E-10 -0.9999995 1.192075E-07
vn 6.748951E-10 -0.9999995 1.192075E-07
vn 6.748951E-10 -0.9999995 1.192075E-07
vn 6.748951E-10 -0.9999995 1.192075E-07
vn 0 0.9999995 0
vn 0 0.9999995 0
vn 0 0.9999995 0
vn 0 0.9999995 0
vn 0.005661129 0 0.9999845
vn 0.005661219 0 0.9999845
vn 0.005661123 0 0.9999845
vn 0.005661225 0 0.9999845
vn 0.999984 0 -0.005661221
vn 0.999984 0 -0.005661221
vn 0.999984 0 -0.005661221
vn 0.999984 0 -0.005661221
vn -0.005661225 0 -0.9999845
vn -0.005661225 0 -0.9999845
vn -0.005661225 0 -0.9999845
vn -0.005661225 0 -0.9999845
vn -0.999984 0 0.005661221
vn -0.999984 0 0.005661221
vn -0.999984 0 0.005661221
vn -0.999984 0 0.005661221
vn -0.008259271 -0.6427759 -0.7660099
vn -0.008259234 -0.6427761 -0.7660096
vn -0.008259274 -0.6427758 -0.7660099
vn -0.00825923 -0.6427761 -0.7660096
vn 0.001036268 0.7660291 -0.642805
vn 0.001036251 0.7660291 -0.6428051
vn 0.001036249 0.766029 -0.6428051
vn 0.001036269 0.7660291 -0.642805
vn 0.008259271 0.6427759 0.7660099
vn 0.008259234 0.6427761 0.7660096
vn 0.00825923 0.6427761 0.7660096
vn 0.008259274 0.6427758 0.7660099
vn -0.001036268 -0.7660291 0.642805
vn -0.001036251 -0.7660291 0.6428051
vn -0.001036269 -0.7660291 0.642805
vn -0.001036249 -0.766029 0.6428051
vn -0.008259154 -0.6427764 -0.7660094
vn -0.008259286 -0.6427756 -0.7660102
vn -0.008259143 -0.6427765 -0.7660094
vn -0.008259296 -0.6427754 -0.7660102
vn 0.00103632 0.7660292 -0.6428049
vn 0.001036236 0.7660288 -0.6428055
vn 0.001036229 0.7660287 -0.6428055
vn 0.001036327 0.7660292 -0.6428049
vn 0.008259154 0.6427764 0.7660094
vn 0.008259286 0.6427756 0.7660102
vn 0.008259296 0.6427754 0.7660102
vn 0.008259143 0.6427765 0.7660094
vn -0.00103632 -0.7660292 0.6428049
vn -0.001036236 -0.7660288 0.6428055
vn -0.001036327 -0.7660292 0.6428049
vn -0.001036229 -0.7660287 0.6428055
vn 0.01599445 -0.6424674 -0.7661461
vn 0.01599435 -0.642467 -0.7661467
vn 0.01599446 -0.6424676 -0.7661461
vn 0.01599433 -0.6424668 -0.7661468
vn -0.02786799 0.7656597 -0.6426419
vn -0.02786802 0.7656595 -0.6426421
vn -0.02786802 0.7656595 -0.6426421
vn -0.02786798 0.7656597 -0.6426418
vn -0.01599445 0.6424674 0.7661461
vn -0.01599435 0.642467 0.7661467
vn -0.01599433 0.6424668 0.7661468
vn -0.01599446 0.6424676 0.7661461
vn 0.02786799 -0.7656597 0.6426419
vn 0.02786802 -0.7656595 0.6426421
vn 0.02786798 -0.7656597 0.6426418
vn 0.02786802 -0.7656595 0.6426421
vn -0.04031491 -0.6417802 -0.7658284
vn -0.04031506 -0.6417786 -0.7658297
vn -0.04031489 -0.6417804 -0.7658282
vn -0.04031507 -0.6417784 -0.7658298
vn 0.03923844 0.7648407 -0.6430233
vn 0.0392387 0.7648419 -0.643022
vn 0.03923872 0.7648419 -0.6430218
vn 0.03923843 0.7648407 -0.6430234
vn 0.04031491 0.6417802 0.7658284
vn 0.04031506 0.6417786 0.7658297
vn 0.04031507 0.6417784 0.7658298
vn 0.04031489 0.6417804 0.7658282
vn -0.03923844 -0.7648407 0.6430233
vn -0.0392387 -0.7648419 0.643022
vn -0.03923843 -0.7648407 0.6430234
vn -0.03923872 -0.7648419 0.6430218

vt 0.8129883 0.980957
vt 0.527832 0.8730469
vt 0.8129883 0.8730469
vt 0.527832 0.980957
vt 0.5180664 0.980957
vt 0.8032227 0.9946289
vt 0.5180664 0.9946289
vt 0.8032227 0.980957
vt 0.5180664 0.8730469
vt 0.8032227 0.980957
vt 0.5180664 0.980957
vt 0.8032227 0.8730469
vt 0.5180664 0.859375
vt 0.8032227 0.8730469
vt 0.5180664 0.8730469
vt 0.8032227 0.859375
vt 0.5180664 0.980957
vt 0.8032227 0.8730469
vt 0.5180664 0.8730469
vt 0.8032227 0.980957
vt 0.8129883 0.980957
vt 0.527832 0.9946289
vt 0.8129883 0.9946289
vt 0.527832 0.980957
vt 0.8129883 0.8730469
vt 0.527832 0.980957
vt 0.8129883 0.980957
vt 0.527832 0.8730469
vt 0.8129883 0.859375
vt 0.527832 0.8730469
vt 0.8129883 0.8730469
vt 0.527832 0.859375
vt 0.8442383 0.6303711
vt 0.8769531 0.5976563
vt 0.8442383 0.5976563
vt 0.8769531 0.6303711
vt 0.8442383 0.5976563
vt 0.8769531 0.6303711
vt 0.8769531 0.5976563
vt 0.8442383 0.6303711
vt 0.6738281 0.5419922
vt 0.322998 0.574707
vt 0.6738281 0.574707
vt 0.322998 0.5419922
vt 0.6738281 0.5087891
vt 0.322998 0.5415039
vt 0.6738281 0.5415039
vt 0.322998 0.5087891
vt 0.6738281 0.5419922
vt 0.322998 0.574707
vt 0.6738281 0.574707
vt 0.322998 0.5419922
vt 0.6738281 0.5087891
vt 0.322998 0.5415039
vt 0.6738281 0.5415039
vt 0.322998 0.5087891
vt 0.9970703 0.6328125
vt 0.9667969 0.9365234
vt 0.9667969 0.6328125
vt 0.9970703 0.9365234
vt 0.9970703 0.6328125
vt 0.9667969 0.9365234
vt 0.9970703 0.9365234
vt 0.9667969 0.6328125
vt 0.9970703 0.6328125
vt 0.9667969 0.9365234
vt 0.9970703 0.9365234
vt 0.9667969 0.6328125
vt 0.9970703 0.6328125
vt 0.9667969 0.9365234
vt 0.9667969 0.6328125
vt 0.9970703 0.9365234
vt 0.9970703 0.668457
vt 0.9667969 0.9794922
vt 0.9667969 0.668457
vt 0.9970703 0.9794922
vt 0.9970703 0.668457
vt 0.9667969 0.9794922
vt 0.9970703 0.9794922
vt 0.9667969 0.668457
vt 0.9970703 0.668457
vt 0.9667969 0.9794922
vt 0.9970703 0.9794922
vt 0.9667969 0.668457
vt 0.9970703 0.668457
vt 0.9667969 0.9794922
vt 0.9667969 0.668457
vt 0.9970703 0.9794922
vt 0.9970703 0.6669922
vt 0.9667969 0.9785156
vt 0.9667969 0.6669922
vt 0.9970703 0.9785156
vt 0.9970703 0.6669922
vt 0.9667969 0.9785156
vt 0.9970703 0.9785156
vt 0.9667969 0.6669922
vt 0.9970703 0.6669922
vt 0.9667969 0.9785156
vt 0.9970703 0.9785156
vt 0.9667969 0.6669922
vt 0.9970703 0.6669922
vt 0.9667969 0.9785156
vt 0.9667969 0.6669922
vt 0.9970703 0.9785156
vt 0.9970703 0.9379883
vt 0.9667969 0.6342773
vt 0.9667969 0.9379883
vt 0.9970703 0.6342773
vt 0.9970703 0.9379883
vt 0.9667969 0.6342773
vt 0.9970703 0.6342773
vt 0.9667969 0.9379883
vt 0.9970703 0.9379883
vt 0.9667969 0.6342773
vt 0.9970703 0.6342773
vt 0.9667969 0.9379883
vt 0.9970703 0.9379883
vt 0.9667969 0.6342773
vt 0.9667969 0.9379883
vt 0.9970703 0.6342773

g fence_concrete_A_6_10674_507
usemtl fence_concrete_A_6_10674_507
usemap fence_concrete_A_6_10674_507
f 1/1/1 3/3/3 2/2/2
f 2/2/2 4/4/4 1/1/1
f 5/5/5 7/7/7 6/6/6
f 6/6/6 8/8/8 5/5/5
f 9/9/9 11/11/11 10/10/10
f 10/10/10 12/12/12 9/9/9
f 13/13/13 15/15/15 14/14/14
f 14/14/14 16/16/16 13/13/13
f 17/17/17 19/19/19 18/18/18
f 18/18/18 20/20/20 17/17/17
f 21/21/21 23/23/23 22/22/22
f 22/22/22 24/24/24 21/21/21
f 25/25/25 27/27/27 26/26/26
f 26/26/26 28/28/28 25/25/25
f 29/29/29 31/31/31 30/30/30
f 30/30/30 32/32/32 29/29/29
f 33/33/33 35/35/35 34/34/34
f 34/34/34 36/36/36 33/33/33
f 37/37/37 39/39/39 38/38/38
f 38/38/38 40/40/40 37/37/37
f 41/41/41 43/43/43 42/42/42
f 42/42/42 44/44/44 41/41/41
f 45/45/45 47/47/47 46/46/46
f 46/46/46 48/48/48 45/45/45
f 49/49/49 51/51/51 50/50/50
f 50/50/50 52/52/52 49/49/49
f 53/53/53 55/55/55 54/54/54
f 54/54/54 56/56/56 53/53/53
f 57/57/57 59/59/59 58/58/58
f 58/58/58 60/60/60 57/57/57
f 61/61/61 63/63/63 62/62/62
f 62/62/62 64/64/64 61/61/61
f 65/65/65 67/67/67 66/66/66
f 66/66/66 68/68/68 65/65/65
f 69/69/69 71/71/71 70/70/70
f 70/70/70 72/72/72 69/69/69
f 73/73/73 75/75/75 74/74/74
f 74/74/74 76/76/76 73/73/73
f 77/77/77 79/79/79 78/78/78
f 78/78/78 80/80/80 77/77/77
f 81/81/81 83/83/83 82/82/82
f 82/82/82 84/84/84 81/81/81
f 85/85/85 87/87/87 86/86/86
f 86/86/86 88/88/88 85/85/85
f 89/89/89 91/91/91 90/90/90
f 90/90/90 92/92/92 89/89/89
f 93/93/93 95/95/95 94/94/94
f 94/94/94 96/96/96 93/93/93
f 97/97/97 99/99/99 98/98/98
f 98/98/98 100/100/100 97/97/97
f 101/101/101 103/103/103 102/102/102
f 102/102/102 104/104/104 101/101/101
f 105/105/105 107/107/107 106/106/106
f 106/106/106 108/108/108 105/105/105
f 109/109/109 111/111/111 110/110/110
f 110/110/110 112/112/112 109/109/109
f 113/113/113 115/115/115 114/114/114
f 114/114/114 116/116/116 113/113/113
f 117/117/117 119/119/119 118/118/118
f 118/118/118 120/120/120 117/117/117
