#fence_concrete_A_17_9403_24.obj

v 0.09332602 0.642755 0.0399435
v 1.906677 0.02937159 0.0399432
v 0.09332585 0.02937136 0.03994253
v 1.906677 0.6427553 0.03994226
v 0.09332566 0.642755 -0.03996266
v 1.906677 0.6427553 0.03994226
v 0.09332602 0.642755 0.0399435
v 1.906676 0.6427552 -0.039962
v 0.09332645 0.02937138 -0.03996363
v 1.906676 0.6427552 -0.039962
v 0.09332566 0.642755 -0.03996266
v 1.906676 0.02937162 -0.03996296
v 0.09332585 0.02937136 0.03994253
v 1.906676 0.02937162 -0.03996296
v 0.09332645 0.02937138 -0.03996363
v 1.906677 0.02937159 0.0399432
v 0.09332622 1.285767 0.03994203
v 1.906677 0.6723839 0.03994364
v 0.09332605 0.6723838 0.03994297
v 1.906676 1.285767 0.03994269
v 0.09332585 1.285767 -0.03996223
v 1.906676 1.285767 0.03994269
v 0.09332622 1.285767 0.03994203
v 1.906677 1.285768 -0.03996347
v 0.09332568 0.6723837 -0.0399632
v 1.906677 1.285768 -0.03996347
v 0.09332585 1.285767 -0.03996223
v 1.906676 0.6723839 -0.03996253
v 0.09332605 0.6723838 0.03994297
v 1.906676 0.6723839 -0.03996253
v 0.09332568 0.6723837 -0.0399632
v 1.906677 0.6723839 0.03994364
v 0.09333043 -2.723485E-08 -0.09333955
v -0.09332974 -5.630761E-09 0.09331901
v 0.09333039 -1.378808E-08 0.0933185
v -0.09332971 -7.881938E-08 -0.09333904
v 0.09333053 2 -0.09333993
v -0.09332962 2 0.09331863
v -0.09332959 2 -0.09333942
v 0.0933305 2 0.09331812
v 0.0933305 2 0.09331812
v -0.09332974 -5.630761E-09 0.09331901
v -0.09332962 2 0.09331863
v 0.09333039 -1.378808E-08 0.0933185
v 0.09333053 2 -0.09333993
v 0.09333039 -1.378808E-08 0.0933185
v 0.0933305 2 0.09331812
v 0.09333043 -2.723485E-08 -0.09333955
v -0.09332959 2 -0.09333942
v 0.09333043 -2.723485E-08 -0.09333955
v 0.09333053 2 -0.09333993
v -0.09332971 -7.881938E-08 -0.09333904
v -0.09332962 2 0.09331863
v -0.09332971 -7.881938E-08 -0.09333904
v -0.09332959 2 -0.09333942
v -0.09332974 -5.630761E-09 0.09331901
v 1.911867 1.784735 -0.0520294
v 0.0797906 1.636562 0.08168238
v 1.910909 1.625386 0.08168337
v 0.08113374 1.795907 -0.05203012
v 1.910956 1.638201 -0.06485157
v 0.08070868 1.783087 0.09450071
v 0.08022035 1.649375 -0.06485229
v 1.911826 1.771911 0.09449979
v 1.911867 1.784735 -0.0520294
v 0.0797906 1.636562 0.08168238
v 0.08113374 1.795907 -0.05203012
v 1.910909 1.625386 0.08168337
v 1.910956 1.638201 -0.06485157
v 0.08070868 1.783087 0.09450071
v 1.911826 1.771911 0.09449979
v 0.08022035 1.649375 -0.06485229
v 1.913764 1.992166 -0.05202973
v 0.08168255 1.843993 0.08168201
v 1.912801 1.832818 0.08168302
v 0.08302569 2.003339 -0.05203048
v 1.91285 1.845633 -0.06485191
v 0.08260064 1.990519 0.09450036
v 0.0821123 1.856807 -0.06485265
v 1.91372 1.979342 0.09449945
v 1.913764 1.992166 -0.05202973
v 0.08168255 1.843993 0.08168201
v 0.08302569 2.003339 -0.05203048
v 1.912801 1.832818 0.08168302
v 1.91285 1.845633 -0.06485191
v 0.08260064 1.990519 0.09450036
v 1.91372 1.979342 0.09449945
v 0.0821123 1.856807 -0.06485265
v 1.91039 1.675201 -0.05202987
v 0.08507175 1.458007 0.08168115
v 1.915317 1.515926 0.08168269
v 0.08051629 1.617294 -0.05203113
v 1.914891 1.528734 -0.06485118
v 0.08056919 1.604466 0.0945005
v 0.08501779 1.470827 -0.06485243
v 1.91082 1.662385 0.09450015
v 1.91039 1.675201 -0.05202987
v 0.08507175 1.458007 0.08168115
v 0.08051629 1.617294 -0.05203113
v 1.915317 1.515926 0.08168269
v 1.914891 1.528734 -0.06485118
v 0.08056919 1.604466 0.0945005
v 1.91082 1.662385 0.09450015
v 0.08501779 1.470827 -0.06485243
v 1.916269 1.407197 -0.05202907
v 0.07918248 1.350584 0.08168191
v 1.907523 1.248085 0.08168231
v 0.0883093 1.509675 -0.05202931
v 1.908193 1.260883 -0.06485106
v 0.08725952 1.49689 0.09450004
v 0.08023311 1.363362 -0.0648513
v 1.9156 1.394391 0.09450044
v 1.916269 1.407197 -0.05202907
v 0.07918248 1.350584 0.08168191
v 0.0883093 1.509675 -0.05202931
v 1.907523 1.248085 0.08168231
v 1.908193 1.260883 -0.06485106
v 0.08725952 1.49689 0.09450004
v 1.9156 1.394391 0.09450044
v 0.08023311 1.363362 -0.0648513

vn 0.005654483 0.005432818 0.9999696
vn 0.005654482 0.005432818 0.9999696
vn 0.005654484 0.005432818 0.9999696
vn 0.005654481 0.005432818 0.9999696
vn -0.01661811 0.9998471 -0.005338197
vn -0.01661811 0.9998471 -0.005338197
vn -0.01661811 0.9998471 -0.005338197
vn -0.01661811 0.9998471 -0.005338197
vn -0.005654479 -0.005432818 -0.9999696
vn -0.005654473 -0.005432818 -0.9999696
vn -0.005654481 -0.005432818 -0.9999696
vn -0.005654471 -0.005432818 -0.9999696
vn 0.01661815 -0.9998471 0.00533832
vn 0.01661811 -0.9998471 0.005337418
vn 0.01661815 -0.9998471 0.005338346
vn 0.01661811 -0.9998471 0.005337392
vn 0.005654483 0.005432818 0.9999696
vn 0.005654482 0.005432818 0.9999696
vn 0.005654484 0.005432818 0.9999696
vn 0.005654481 0.005432818 0.9999696
vn -0.01661799 0.9998471 -0.005338198
vn -0.01661799 0.9998471 -0.005338198
vn -0.01661799 0.9998471 -0.005338198
vn -0.01661799 0.9998471 -0.005338198
vn -0.005654471 -0.005432818 -0.9999696
vn -0.005654471 -0.005432818 -0.9999696
vn -0.005654471 -0.005432818 -0.9999696
vn -0.005654471 -0.005432818 -0.9999696
vn 0.01661811 -0.9998471 0.005338197
vn 0.01661811 -0.9998471 0.005338197
vn 0.01661811 -0.9998471 0.005338197
vn 0.01661811 -0.9998471 0.005338197
vn 0.01661799 -0.9998471 0.005338317
vn 0.01661799 -0.9998471 0.005338317
vn 0.01661799 -0.9998471 0.005338317
vn 0.01661799 -0.9998471 0.005338317
vn -0.01661799 0.9998471 -0.005338198
vn -0.01661799 0.9998471 -0.005338198
vn -0.01661799 0.9998471 -0.005338198
vn -0.01661799 0.9998471 -0.005338198
vn 0.005654317 0.005432815 0.9999696
vn 0.005654407 0.005432817 0.9999696
vn 0.005654311 0.005432815 0.9999696
vn 0.005654413 0.005432817 0.9999696
vn 0.9998459 0.01658728 -0.005743766
vn 0.9998459 0.01658728 -0.005743766
vn 0.9998459 0.01658728 -0.005743766
vn 0.9998459 0.01658728 -0.005743766
vn -0.005654413 -0.005432817 -0.9999696
vn -0.005654413 -0.005432817 -0.9999696
vn -0.005654413 -0.005432817 -0.9999696
vn -0.005654413 -0.005432817 -0.9999696
vn -0.9998459 -0.01658728 0.005743766
vn -0.9998459 -0.01658728 0.005743766
vn -0.9998459 -0.01658728 0.005743766
vn -0.9998459 -0.01658728 0.005743766
vn 0.002428134 -0.6469048 -0.7625669
vn 0.002428176 -0.646905 -0.7625666
vn 0.002428129 -0.6469047 -0.7625669
vn 0.00242818 -0.646905 -0.7625666
vn -0.01168986 0.7624976 -0.646885
vn -0.01168988 0.7624976 -0.6468851
vn -0.01168988 0.7624975 -0.6468851
vn -0.01168986 0.7624976 -0.646885
vn -0.002428134 0.6469048 0.7625669
vn -0.002428176 0.646905 0.7625666
vn -0.00242818 0.646905 0.7625666
vn -0.002428129 0.6469047 0.7625669
vn 0.01168986 -0.7624976 0.646885
vn 0.01168988 -0.7624976 0.6468851
vn 0.01168986 -0.7624976 0.646885
vn 0.01168988 -0.7624975 0.6468851
vn 0.002428261 -0.6469053 -0.7625664
vn 0.002428114 -0.6469045 -0.7625672
vn 0.002428273 -0.6469054 -0.7625664
vn 0.002428101 -0.6469043 -0.7625672
vn -0.01168981 0.7624977 -0.6468849
vn -0.01168989 0.7624973 -0.6468855
vn -0.0116899 0.7624972 -0.6468855
vn -0.01168981 0.7624977 -0.6468849
vn -0.002428261 0.6469053 0.7625664
vn -0.002428114 0.6469045 0.7625672
vn -0.002428101 0.6469043 0.7625672
vn -0.002428273 0.6469054 0.7625664
vn 0.01168981 -0.7624977 0.6468849
vn 0.01168989 -0.7624973 0.6468855
vn 0.01168981 -0.7624977 0.6468849
vn 0.0116899 -0.7624972 0.6468855
vn 0.02667338 -0.646194 -0.7627068
vn 0.02667327 -0.6461935 -0.7627073
vn 0.0266734 -0.6461941 -0.7627068
vn 0.02667325 -0.6461933 -0.7627074
vn -0.04058399 0.7616488 -0.6467175
vn -0.04058402 0.7616486 -0.6467178
vn -0.04058402 0.7616486 -0.6467178
vn -0.04058399 0.7616488 -0.6467175
vn -0.02667338 0.646194 0.7627068
vn -0.02667327 0.6461935 0.7627073
vn -0.02667325 0.6461933 0.7627074
vn -0.0266734 0.6461941 0.7627068
vn 0.04058399 -0.7616488 0.6467175
vn 0.04058402 -0.7616486 0.6467178
vn 0.04058399 -0.7616488 0.6467175
vn 0.04058402 -0.7616486 0.6467178
vn -0.02963963 -0.6464409 -0.7623881
vn -0.0296398 -0.6464393 -0.7623894
vn -0.02963961 -0.646441 -0.7623878
vn -0.02963982 -0.6464391 -0.7623894
vn 0.02652679 0.7619432 -0.6471
vn 0.02652703 0.7619443 -0.6470988
vn 0.02652705 0.7619444 -0.6470985
vn 0.02652677 0.7619432 -0.6471002
vn 0.02963963 0.6464409 0.7623881
vn 0.0296398 0.6464393 0.7623894
vn 0.02963982 0.6464391 0.7623894
vn 0.02963961 0.646441 0.7623878
vn -0.02652679 -0.7619432 0.6471
vn -0.02652703 -0.7619443 0.6470988
vn -0.02652677 -0.7619432 0.6471002
vn -0.02652705 -0.7619444 0.6470985

vt 0.8129883 0.980957
vt 0.527832 0.8730469
vt 0.8129883 0.8730469
vt 0.527832 0.980957
vt 0.5180664 0.980957
vt 0.8032227 0.9946289
vt 0.5180664 0.9946289
vt 0.8032227 0.980957
vt 0.5180664 0.8730469
vt 0.8032227 0.980957
vt 0.5180664 0.980957
vt 0.8032227 0.8730469
vt 0.5180664 0.859375
vt 0.8032227 0.8730469
vt 0.5180664 0.8730469
vt 0.8032227 0.859375
vt 0.5180664 0.980957
vt 0.8032227 0.8730469
vt 0.5180664 0.8730469
vt 0.8032227 0.980957
vt 0.8129883 0.980957
vt 0.527832 0.9946289
vt 0.8129883 0.9946289
vt 0.527832 0.980957
vt 0.8129883 0.8730469
vt 0.527832 0.980957
vt 0.8129883 0.980957
vt 0.527832 0.8730469
vt 0.8129883 0.859375
vt 0.527832 0.8730469
vt 0.8129883 0.8730469
vt 0.527832 0.859375
vt 0.8442383 0.6303711
vt 0.8769531 0.5976563
vt 0.8442383 0.5976563
vt 0.8769531 0.6303711
vt 0.8442383 0.5976563
vt 0.8769531 0.6303711
vt 0.8769531 0.5976563
vt 0.8442383 0.6303711
vt 0.6738281 0.5419922
vt 0.322998 0.574707
vt 0.6738281 0.574707
vt 0.322998 0.5419922
vt 0.6738281 0.5087891
vt 0.322998 0.5415039
vt 0.6738281 0.5415039
vt 0.322998 0.5087891
vt 0.6738281 0.5419922
vt 0.322998 0.574707
vt 0.6738281 0.574707
vt 0.322998 0.5419922
vt 0.6738281 0.5087891
vt 0.322998 0.5415039
vt 0.6738281 0.5415039
vt 0.322998 0.5087891
vt 0.9970703 0.6328125
vt 0.9667969 0.9365234
vt 0.9667969 0.6328125
vt 0.9970703 0.9365234
vt 0.9970703 0.6328125
vt 0.9667969 0.9365234
vt 0.9970703 0.9365234
vt 0.9667969 0.6328125
vt 0.9970703 0.6328125
vt 0.9667969 0.9365234
vt 0.9970703 0.9365234
vt 0.9667969 0.6328125
vt 0.9970703 0.6328125
vt 0.9667969 0.9365234
vt 0.9667969 0.6328125
vt 0.9970703 0.9365234
vt 0.9970703 0.668457
vt 0.9667969 0.9794922
vt 0.9667969 0.668457
vt 0.9970703 0.9794922
vt 0.9970703 0.668457
vt 0.9667969 0.9794922
vt 0.9970703 0.9794922
vt 0.9667969 0.668457
vt 0.9970703 0.668457
vt 0.9667969 0.9794922
vt 0.9970703 0.9794922
vt 0.9667969 0.668457
vt 0.9970703 0.668457
vt 0.9667969 0.9794922
vt 0.9667969 0.668457
vt 0.9970703 0.9794922
vt 0.9970703 0.6669922
vt 0.9667969 0.9785156
vt 0.9667969 0.6669922
vt 0.9970703 0.9785156
vt 0.9970703 0.6669922
vt 0.9667969 0.9785156
vt 0.9970703 0.9785156
vt 0.9667969 0.6669922
vt 0.9970703 0.6669922
vt 0.9667969 0.9785156
vt 0.9970703 0.9785156
vt 0.9667969 0.6669922
vt 0.9970703 0.6669922
vt 0.9667969 0.9785156
vt 0.9667969 0.6669922
vt 0.9970703 0.9785156
vt 0.9970703 0.9379883
vt 0.9667969 0.6342773
vt 0.9667969 0.9379883
vt 0.9970703 0.6342773
vt 0.9970703 0.9379883
vt 0.9667969 0.6342773
vt 0.9970703 0.6342773
vt 0.9667969 0.9379883
vt 0.9970703 0.9379883
vt 0.9667969 0.6342773
vt 0.9970703 0.6342773
vt 0.9667969 0.9379883
vt 0.9970703 0.9379883
vt 0.9667969 0.6342773
vt 0.9667969 0.9379883
vt 0.9970703 0.6342773

g fence_concrete_A_17_9403_24
usemtl fence_concrete_A_17_9403_24
usemap fence_concrete_A_17_9403_24
f 1/1/1 3/3/3 2/2/2
f 2/2/2 4/4/4 1/1/1
f 5/5/5 7/7/7 6/6/6
f 6/6/6 8/8/8 5/5/5
f 9/9/9 11/11/11 10/10/10
f 10/10/10 12/12/12 9/9/9
f 13/13/13 15/15/15 14/14/14
f 14/14/14 16/16/16 13/13/13
f 17/17/17 19/19/19 18/18/18
f 18/18/18 20/20/20 17/17/17
f 21/21/21 23/23/23 22/22/22
f 22/22/22 24/24/24 21/21/21
f 25/25/25 27/27/27 26/26/26
f 26/26/26 28/28/28 25/25/25
f 29/29/29 31/31/31 30/30/30
f 30/30/30 32/32/32 29/29/29
f 33/33/33 35/35/35 34/34/34
f 34/34/34 36/36/36 33/33/33
f 37/37/37 39/39/39 38/38/38
f 38/38/38 40/40/40 37/37/37
f 41/41/41 43/43/43 42/42/42
f 42/42/42 44/44/44 41/41/41
f 45/45/45 47/47/47 46/46/46
f 46/46/46 48/48/48 45/45/45
f 49/49/49 51/51/51 50/50/50
f 50/50/50 52/52/52 49/49/49
f 53/53/53 55/55/55 54/54/54
f 54/54/54 56/56/56 53/53/53
f 57/57/57 59/59/59 58/58/58
f 58/58/58 60/60/60 57/57/57
f 61/61/61 63/63/63 62/62/62
f 62/62/62 64/64/64 61/61/61
f 65/65/65 67/67/67 66/66/66
f 66/66/66 68/68/68 65/65/65
f 69/69/69 71/71/71 70/70/70
f 70/70/70 72/72/72 69/69/69
f 73/73/73 75/75/75 74/74/74
f 74/74/74 76/76/76 73/73/73
f 77/77/77 79/79/79 78/78/78
f 78/78/78 80/80/80 77/77/77
f 81/81/81 83/83/83 82/82/82
f 82/82/82 84/84/84 81/81/81
f 85/85/85 87/87/87 86/86/86
f 86/86/86 88/88/88 85/85/85
f 89/89/89 91/91/91 90/90/90
f 90/90/90 92/92/92 89/89/89
f 93/93/93 95/95/95 94/94/94
f 94/94/94 96/96/96 93/93/93
f 97/97/97 99/99/99 98/98/98
f 98/98/98 100/100/100 97/97/97
f 101/101/101 103/103/103 102/102/102
f 102/102/102 104/104/104 101/101/101
f 105/105/105 107/107/107 106/106/106
f 106/106/106 108/108/108 105/105/105
f 109/109/109 111/111/111 110/110/110
f 110/110/110 112/112/112 109/109/109
f 113/113/113 115/115/115 114/114/114
f 114/114/114 116/116/116 113/113/113
f 117/117/117 119/119/119 118/118/118
f 118/118/118 120/120/120 117/117/117
