#fence_wood_B_5_19589_267.obj

v 0.1678746 0.03935212 0.0879259
v 0.4390804 0.0393525 0.04688056
v 0.1678755 0.03935211 0.0468786
v 0.4390812 0.0393525 0.08792503
v 0.1678728 1.699522 0.08792479
v 0.4390804 1.699522 0.04688056
v 0.4390812 1.699522 0.08792503
v 0.167872 1.699522 0.04688031
v 0.1678746 0.03935212 0.0879259
v 0.4390812 1.699522 0.08792503
v 0.4390812 0.0393525 0.08792503
v 0.1678728 1.699522 0.08792479
v 0.4390812 0.0393525 0.08792503
v 0.4390804 1.699522 0.04688056
v 0.4390804 0.0393525 0.04688056
v 0.4390812 1.699522 0.08792503
v 0.4390804 0.0393525 0.04688056
v 0.167872 1.699522 0.04688031
v 0.1678755 0.03935211 0.0468786
v 0.4390804 1.699522 0.04688056
v 0.1678755 0.03935211 0.0468786
v 0.1678728 1.699522 0.08792479
v 0.1678746 0.03935212 0.0879259
v 0.167872 1.699522 0.04688031
v 0.07499707 -1.038252E-08 -0.0750029
v -0.0750031 7.43409E-09 0.07499738
v 0.07499699 7.43409E-09 0.07499722
v -0.07500303 -1.038252E-08 -0.07500274
v 0.07499708 1.6 -0.07500289
v -0.07500304 1.6 0.07499742
v -0.07500301 1.6 -0.07500273
v 0.07499705 1.6 0.07499725
v 0.07499705 1.6 0.07499725
v -0.0750031 7.43409E-09 0.07499738
v -0.07500304 1.6 0.07499742
v 0.07499699 7.43409E-09 0.07499722
v 0.07499708 1.6 -0.07500289
v 0.07499699 7.43409E-09 0.07499722
v 0.07499705 1.6 0.07499725
v 0.07499707 -1.038252E-08 -0.0750029
v -0.07500301 1.6 -0.07500273
v 0.07499707 -1.038252E-08 -0.0750029
v 0.07499708 1.6 -0.07500289
v -0.07500303 -1.038252E-08 -0.07500274
v -0.07500304 1.6 0.07499742
v -0.07500303 -1.038252E-08 -0.07500274
v -0.07500301 1.6 -0.07500273
v -0.0750031 7.43409E-09 0.07499738
v 1.926196 1.238069 0.04687525
v 0.05492853 1.331825 0.04687582
v 1.926196 1.331825 0.04687525
v 0.05492852 1.238068 0.04687581
v 1.926195 1.238069 -0.04687935
v 0.05492852 1.238068 0.04687581
v 1.926196 1.238069 0.04687525
v 0.05492749 1.238068 -0.04687883
v 1.926195 1.331825 -0.04687935
v 0.05492749 1.238068 -0.04687883
v 1.926195 1.238069 -0.04687935
v 0.05492751 1.331825 -0.04687882
v 1.926196 1.331825 0.04687525
v 0.05492751 1.331825 -0.04687882
v 1.926195 1.331825 -0.04687935
v 0.05492853 1.331825 0.04687582
v 0.4916707 0.01735795 0.08792641
v 0.7255563 0.01735825 0.04687844
v 0.4916716 0.01735794 0.04687909
v 0.7255554 0.01735825 0.08792572
v 0.4916707 1.570106 0.08792638
v 0.7255563 1.570106 0.04687841
v 0.7255553 1.570106 0.08792569
v 0.4916716 1.570106 0.04687909
v 0.4916707 0.01735795 0.08792641
v 0.7255553 1.570106 0.08792569
v 0.7255554 0.01735825 0.08792572
v 0.4916707 1.570106 0.08792638
v 0.7255554 0.01735825 0.08792572
v 0.7255563 1.570106 0.04687841
v 0.7255563 0.01735825 0.04687844
v 0.7255553 1.570106 0.08792569
v 0.7255563 0.01735825 0.04687844
v 0.4916716 1.570106 0.04687909
v 0.4916716 0.01735794 0.04687909
v 0.7255563 1.570106 0.04687841
v 0.4916716 0.01735794 0.04687909
v 0.4916707 1.570106 0.08792638
v 0.4916707 0.01735795 0.08792641
v 0.4916716 1.570106 0.04687909
v 0.773492 0.2134672 0.08792648
v 0.9837419 0.1950732 0.04687945
v 0.7734929 0.2134672 0.04687917
v 0.9837409 0.1950732 0.08792672
v 0.851742 1.506331 0.08792558
v 1.061992 1.487937 0.04687849
v 1.061991 1.487937 0.08792575
v 0.8517447 1.506331 0.04687938
v 0.773492 0.2134672 0.08792648
v 1.061991 1.487937 0.08792575
v 0.9837409 0.1950732 0.08792672
v 0.851742 1.506331 0.08792558
v 0.9837409 0.1950732 0.08792672
v 1.061992 1.487937 0.04687849
v 0.9837419 0.1950732 0.04687945
v 1.061991 1.487937 0.08792575
v 0.9837419 0.1950732 0.04687945
v 0.8517447 1.506331 0.04687938
v 0.7734929 0.2134672 0.04687917
v 1.061992 1.487937 0.04687849
v 0.7734929 0.2134672 0.04687917
v 0.851742 1.506331 0.08792558
v 0.773492 0.2134672 0.08792648
v 0.8517447 1.506331 0.04687938
v 1.055804 0.03679063 0.08792641
v 1.326174 0.03000061 0.04687818
v 1.055805 0.03679062 0.0468791
v 1.326173 0.03000062 0.08792544
v 1.096827 1.670146 0.08792612
v 1.367194 1.663356 0.04687962
v 1.367195 1.663356 0.08792406
v 1.096828 1.670146 0.0468788
v 1.055804 0.03679063 0.08792641
v 1.367195 1.663356 0.08792406
v 1.326173 0.03000062 0.08792544
v 1.096827 1.670146 0.08792612
v 1.326173 0.03000062 0.08792544
v 1.367194 1.663356 0.04687962
v 1.326174 0.03000061 0.04687818
v 1.367195 1.663356 0.08792406
v 1.326174 0.03000061 0.04687818
v 1.096828 1.670146 0.0468788
v 1.055805 0.03679062 0.0468791
v 1.367194 1.663356 0.04687962
v 1.055805 0.03679062 0.0468791
v 1.096827 1.670146 0.08792612
v 1.055804 0.03679063 0.08792641
v 1.096828 1.670146 0.0468788
v 1.393559 0.008178873 0.0879249
v 1.604611 0.008179173 0.04687951
v 1.393558 0.008178868 0.04688041
v 1.604612 0.008179178 0.08792395
v 1.393559 1.560927 0.08792485
v 1.604611 1.560927 0.04687951
v 1.604612 1.560927 0.08792395
v 1.393558 1.560927 0.04688035
v 1.393559 0.008178873 0.0879249
v 1.604612 1.560927 0.08792395
v 1.604612 0.008179178 0.08792395
v 1.393559 1.560927 0.08792485
v 1.604612 0.008179178 0.08792395
v 1.604611 1.560927 0.04687951
v 1.604611 0.008179173 0.04687951
v 1.604612 1.560927 0.08792395
v 1.604611 0.008179173 0.04687951
v 1.393558 1.560927 0.04688035
v 1.393558 0.008178868 0.04688041
v 1.604611 1.560927 0.04687951
v 1.393558 0.008178868 0.04688041
v 1.393559 1.560927 0.08792485
v 1.393559 0.008178873 0.0879249
v 1.393558 1.560927 0.04688035
v 1.656737 0.01867242 0.08792621
v 1.867769 0.01615441 0.04688059
v 1.656738 0.01867241 0.0468789
v 1.86777 0.01615441 0.08792503
v 1.675266 1.57131 0.08792429
v 1.8863 1.568792 0.04687971
v 1.886301 1.568792 0.08792415
v 1.675265 1.57131 0.04687985
v 1.656737 0.01867242 0.08792621
v 1.886301 1.568792 0.08792415
v 1.86777 0.01615441 0.08792503
v 1.675266 1.57131 0.08792429
v 1.86777 0.01615441 0.08792503
v 1.8863 1.568792 0.04687971
v 1.867769 0.01615441 0.04688059
v 1.886301 1.568792 0.08792415
v 1.867769 0.01615441 0.04688059
v 1.675265 1.57131 0.04687985
v 1.656738 0.01867241 0.0468789
v 1.8863 1.568792 0.04687971
v 1.656738 0.01867241 0.0468789
v 1.675266 1.57131 0.08792429
v 1.656737 0.01867242 0.08792621
v 1.675265 1.57131 0.04687985
v 1.926196 0.2158093 0.04687525
v 0.05492852 0.3095653 0.04687581
v 1.926196 0.3095656 0.04687525
v 0.05492853 0.215809 0.04687582
v 1.926195 0.2158093 -0.04687935
v 0.05492853 0.215809 0.04687582
v 1.926196 0.2158093 0.04687525
v 0.05492751 0.215809 -0.04687882
v 1.926195 0.3095656 -0.04687941
v 0.05492751 0.215809 -0.04687882
v 1.926195 0.2158093 -0.04687935
v 0.05492751 0.3095653 -0.04687882
v 1.926196 0.3095656 0.04687525
v 0.05492751 0.3095653 -0.04687882
v 1.926195 0.3095656 -0.04687941
v 0.05492852 0.3095653 0.04687581

vn 1.256648E-06 -1 -6.424684E-07
vn 1.256648E-06 -1 -6.424681E-07
vn 1.256648E-06 -1 -6.424684E-07
vn 1.256648E-06 -1 -6.424681E-07
vn -4.781678E-07 1 2.964781E-07
vn -4.781677E-07 1 2.96478E-07
vn -4.781677E-07 1 2.96478E-07
vn -4.781678E-07 1 2.964781E-07
vn 0.5269578 0 0.8498915
vn 0.5269578 0 0.8498915
vn 0.5269578 0 0.8498915
vn 0.5269578 0 0.8498915
vn 0.8498915 0 -0.5269578
vn 0.8498915 0 -0.5269578
vn 0.8498915 0 -0.5269578
vn 0.8498915 0 -0.5269578
vn -0.5269574 0 -0.8498918
vn -0.5269574 0 -0.8498918
vn -0.5269574 0 -0.8498918
vn -0.5269574 0 -0.8498918
vn -0.8498915 -1.470576E-06 0.5269578
vn -0.8498915 -1.470576E-06 0.5269578
vn -0.8498915 -1.470576E-06 0.5269578
vn -0.8498915 -1.470577E-06 0.5269578
vn 6.281826E-08 -1 1.01315E-07
vn 6.281826E-08 -1 1.01315E-07
vn 6.281826E-08 -1 1.01315E-07
vn 6.281826E-08 -1 1.01315E-07
vn 0 1 0
vn 0 1 0
vn 0 1 0
vn 0 1 0
vn 0.5269579 0 0.8498914
vn 0.5269578 0 0.8498915
vn 0.526958 0 0.8498914
vn 0.5269578 0 0.8498915
vn 0.8498915 0 -0.5269578
vn 0.8498915 0 -0.5269578
vn 0.8498915 0 -0.5269578
vn 0.8498915 0 -0.5269578
vn -0.5269578 0 -0.8498915
vn -0.5269578 0 -0.8498915
vn -0.5269578 0 -0.8498915
vn -0.5269578 0 -0.8498915
vn -0.8498915 0 0.5269578
vn -0.8498915 0 0.5269578
vn -0.8498915 0 0.5269578
vn -0.8498915 0 0.5269578
vn 0.5269576 -2.542962E-07 0.8498916
vn 0.5269576 -2.542964E-07 0.8498916
vn 0.5269576 -2.542962E-07 0.8498916
vn 0.5269576 -2.542964E-07 0.8498916
vn 1.039535E-07 -1 -6.445421E-08
vn 1.039535E-07 -1 -6.445421E-08
vn 1.039535E-07 -1 -6.445421E-08
vn 1.039535E-07 -1 -6.445421E-08
vn -0.5269576 2.542962E-07 -0.8498917
vn -0.5269576 2.542964E-07 -0.8498917
vn -0.5269576 2.542962E-07 -0.8498917
vn -0.5269576 2.542964E-07 -0.8498917
vn -1.386046E-07 1 8.593895E-08
vn -1.386046E-07 1 8.593895E-08
vn -1.386046E-07 1 8.593896E-08
vn -1.386046E-07 1 8.593896E-08
vn 1.185474E-06 -1 -5.641656E-07
vn 1.185474E-06 -1 -5.641654E-07
vn 1.185474E-06 -1 -5.641657E-07
vn 1.185474E-06 -1 -5.641654E-07
vn 0 1 0
vn 0 1 0
vn 0 1 0
vn 0 1 0
vn 0.5269578 0 0.8498915
vn 0.5269576 0 0.8498916
vn 0.5269578 0 0.8498915
vn 0.5269576 0 0.8498916
vn 0.8498915 0 -0.5269578
vn 0.8498915 0 -0.5269578
vn 0.8498915 0 -0.5269578
vn 0.8498915 0 -0.5269578
vn -0.5269573 0 -0.8498918
vn -0.5269575 0 -0.8498917
vn -0.5269573 0 -0.8498918
vn -0.5269575 0 -0.8498917
vn -0.8498915 0 0.5269578
vn -0.8498915 0 0.5269578
vn -0.8498915 0 0.5269578
vn -0.8498915 0 0.5269578
vn -0.07407194 -0.9961948 0.04592541
vn -0.07407097 -0.996195 0.04592646
vn -0.07407209 -0.9961948 0.04592524
vn -0.0740708 -0.996195 0.04592662
vn 0.07407512 0.9961947 -0.0459234
vn 0.07407242 0.9961948 -0.04592633
vn 0.07407196 0.9961948 -0.04592679
vn 0.07407555 0.9961947 -0.04592292
vn 0.5269576 0 0.8498917
vn 0.5269576 0 0.8498917
vn 0.5269576 0 0.8498917
vn 0.5269576 0 0.8498917
vn 0.8483392 -0.06041363 -0.5259953
vn 0.8483392 -0.06041363 -0.5259953
vn 0.8483392 -0.06041363 -0.5259953
vn 0.8483392 -0.06041363 -0.5259953
vn -0.5269573 0 -0.8498918
vn -0.5269574 -1.059161E-07 -0.8498917
vn -0.5269573 0 -0.8498918
vn -0.5269575 -1.07595E-07 -0.8498917
vn -0.8483398 0.06041366 0.5259943
vn -0.8483697 0.06041546 0.5259458
vn -0.8483392 0.06041362 0.5259953
vn -0.8483704 0.0604155 0.5259447
vn -0.02133729 -0.9996848 0.01322989
vn -0.02133729 -0.9996848 0.01322989
vn -0.02133729 -0.9996848 0.01322989
vn -0.02133729 -0.9996848 0.01322989
vn 0.02133851 0.9996848 -0.0132305
vn 0.02133851 0.9996848 -0.0132305
vn 0.02133851 0.9996848 -0.0132305
vn 0.02133851 0.9996848 -0.0132305
vn 0.5269578 0 0.8498915
vn 0.5269578 0 0.8498915
vn 0.5269578 0 0.8498915
vn 0.5269578 0 0.8498915
vn 0.8496237 -0.02510634 -0.5267916
vn 0.8496237 -0.02510634 -0.5267916
vn 0.8496237 -0.02510634 -0.5267916
vn 0.8496237 -0.02510634 -0.5267916
vn -0.5269574 0 -0.8498917
vn -0.5269576 0 -0.8498916
vn -0.5269574 0 -0.8498918
vn -0.5269576 0 -0.8498916
vn -0.8496236 0.02510783 0.5267916
vn -0.8496236 0.02510783 0.5267916
vn -0.8496236 0.02510783 0.5267916
vn -0.8496236 0.02510783 0.5267916
vn 1.290138E-06 -1 -6.63233E-07
vn 1.290138E-06 -1 -6.632326E-07
vn 1.290138E-06 -1 -6.63233E-07
vn 1.290138E-06 -1 -6.632326E-07
vn 0 1 0
vn 0 1 0
vn 0 1 0
vn 0 1 0
vn 0.526958 0 0.8498914
vn 0.5269578 0 0.8498915
vn 0.526958 0 0.8498914
vn 0.5269578 0 0.8498915
vn 0.8498915 0 -0.5269578
vn 0.8498915 0 -0.5269578
vn 0.8498915 0 -0.5269578
vn 0.8498915 0 -0.5269578
vn -0.5269575 0 -0.8498917
vn -0.5269575 0 -0.8498917
vn -0.5269575 0 -0.8498917
vn -0.5269575 0 -0.8498917
vn -0.8498915 0 0.5269578
vn -0.8498915 0 0.5269578
vn -0.8498915 0 0.5269578
vn -0.8498915 0 0.5269578
vn -0.01013996 -0.9999288 0.006287244
vn -0.01013996 -0.9999288 0.006287244
vn -0.01013996 -0.9999288 0.006287244
vn -0.01013996 -0.9999288 0.006287244
vn 0.01014115 0.9999288 -0.006287809
vn 0.01014115 0.9999288 -0.006287809
vn 0.01014115 0.9999288 -0.006287809
vn 0.01014115 0.9999288 -0.00628781
vn 0.5269578 0 0.8498915
vn 0.5269578 0 0.8498915
vn 0.5269578 0 0.8498915
vn 0.5269578 0 0.8498915
vn 0.849831 -0.01193386 -0.5269203
vn 0.849831 -0.01193386 -0.5269203
vn 0.849831 -0.01193386 -0.5269203
vn 0.849831 -0.01193386 -0.5269203
vn -0.5269573 0 -0.8498918
vn -0.5269576 0 -0.8498917
vn -0.5269573 0 -0.8498918
vn -0.5269576 0 -0.8498917
vn -0.849831 0.01193229 0.5269203
vn -0.849831 0.01193229 0.5269203
vn -0.849831 0.01193229 0.5269203
vn -0.849831 0.01193229 0.5269203
vn 0.5269576 1.525777E-07 0.8498916
vn 0.5269576 1.525777E-07 0.8498916
vn 0.5269576 1.525777E-07 0.8498916
vn 0.5269576 1.525777E-07 0.8498916
vn 1.386046E-07 -1 -8.593895E-08
vn 1.386046E-07 -1 -8.593895E-08
vn 1.386046E-07 -1 -8.593895E-08
vn 1.386046E-07 -1 -8.593895E-08
vn -0.5269576 -9.403911E-07 -0.8498916
vn -0.5269576 -1.785121E-07 -0.8498916
vn -0.5269576 -9.663256E-07 -0.8498916
vn -0.5269576 -1.525777E-07 -0.8498916
vn -1.386046E-07 1 8.593895E-08
vn -1.386046E-07 1 8.593895E-08
vn -1.386046E-07 1 8.593896E-08
vn -1.386046E-07 1 8.593896E-08

vt 0.5810547 0.008628845
vt 0.5356445 0.01544189
vt 0.5810547 0.01544189
vt 0.5356445 0.008628845
vt 0.5356445 0.008628845
vt 0.5805664 0.01544189
vt 0.5805664 0.008628845
vt 0.5356445 0.01544189
vt 0.7104492 0.005794525
vt 0.7558594 0.2814941
vt 0.7558594 0.005794525
vt 0.7104492 0.2814941
vt 0.7041016 0.005794525
vt 0.7104492 0.2814941
vt 0.7104492 0.005794525
vt 0.7041016 0.2814941
vt 0.7104492 0.005794525
vt 0.7558594 0.2814941
vt 0.7558594 0.005794525
vt 0.7104492 0.2814941
vt 0.7041016 0.005794525
vt 0.7104492 0.2814941
vt 0.7104492 0.005794525
vt 0.7041016 0.2814941
vt 0.5922852 0.02909851
vt 0.6171875 0.004177094
vt 0.5922852 0.004177094
vt 0.6171875 0.02909851
vt 0.5922852 0.004177094
vt 0.6171875 0.02909851
vt 0.6171875 0.004177094
vt 0.5922852 0.02909851
vt 0.8212891 0.5429688
vt 0.7963867 0.2770996
vt 0.7963867 0.5429688
vt 0.8212891 0.2770996
vt 0.7963867 0.5429688
vt 0.7714844 0.2770996
vt 0.7714844 0.5429688
vt 0.7963867 0.2770996
vt 0.8212891 0.5429688
vt 0.7963867 0.2770996
vt 0.7963867 0.5429688
vt 0.8212891 0.2770996
vt 0.7963867 0.5429688
vt 0.7714844 0.2770996
vt 0.7714844 0.5429688
vt 0.7963867 0.2770996
vt 0.9770508 0.300293
vt 0.9921875 0.6181641
vt 0.9921875 0.300293
vt 0.9755859 0.6000977
vt 0.9614258 0.300293
vt 0.9755859 0.6000977
vt 0.9770508 0.300293
vt 0.9614258 0.6181641
vt 0.9770508 0.300293
vt 0.9921875 0.6181641
vt 0.9921875 0.300293
vt 0.9770508 0.6181641
vt 0.9614258 0.300293
vt 0.9770508 0.6181641
vt 0.9770508 0.300293
vt 0.9614258 0.6181641
vt 0.5776367 0.008628845
vt 0.5390625 0.01544189
vt 0.5776367 0.01544189
vt 0.5390625 0.008628845
vt 0.5385742 0.008628845
vt 0.5776367 0.01544189
vt 0.5776367 0.008628845
vt 0.5385742 0.01544189
vt 0.777832 0.005187988
vt 0.8168945 0.2631836
vt 0.8168945 0.005187988
vt 0.777832 0.2631836
vt 0.7709961 0.005187988
vt 0.777832 0.2631836
vt 0.777832 0.005187988
vt 0.7709961 0.2631836
vt 0.777832 0.005187988
vt 0.8168945 0.2631836
vt 0.8168945 0.005187988
vt 0.777832 0.2631836
vt 0.7709961 0.005187988
vt 0.777832 0.2631836
vt 0.777832 0.005187988
vt 0.7709961 0.2631836
vt 0.5756836 0.008628845
vt 0.5405273 0.01544189
vt 0.5756836 0.01544189
vt 0.5405273 0.008628845
vt 0.5405273 0.008628845
vt 0.5756836 0.01544189
vt 0.5756836 0.008628845
vt 0.5405273 0.01544189
vt 0.8383789 0.00819397
vt 0.8735352 0.2224121
vt 0.8735352 0.00725174
vt 0.8383789 0.2232666
vt 0.831543 0.00819397
vt 0.8383789 0.2232666
vt 0.8383789 0.00819397
vt 0.831543 0.2232666
vt 0.8383789 0.00819397
vt 0.8735352 0.2242432
vt 0.8735352 0.009132385
vt 0.8383789 0.2232666
vt 0.831543 0.00819397
vt 0.8383789 0.2232666
vt 0.8383789 0.00819397
vt 0.831543 0.2232666
vt 0.5805664 0.008628845
vt 0.5356445 0.01544189
vt 0.5805664 0.01544189
vt 0.5356445 0.008628845
vt 0.5356445 0.008628845
vt 0.5805664 0.01544189
vt 0.5805664 0.008628845
vt 0.5356445 0.01544189
vt 0.8935547 0.003118515
vt 0.9384766 0.2744141
vt 0.9384766 0.003118515
vt 0.8935547 0.2744141
vt 0.8867188 0.003118515
vt 0.8935547 0.2744141
vt 0.8935547 0.003118515
vt 0.8867188 0.2744141
vt 0.8935547 0.003118515
vt 0.9384766 0.2744141
vt 0.9384766 0.003118515
vt 0.8935547 0.2744141
vt 0.8867188 0.003118515
vt 0.8935547 0.2744141
vt 0.8935547 0.003118515
vt 0.8867188 0.2744141
vt 0.5756836 0.008628845
vt 0.5410156 0.01544189
vt 0.5756836 0.01544189
vt 0.5410156 0.008628845
vt 0.5405273 0.008628845
vt 0.5756836 0.01544189
vt 0.5756836 0.008628845
vt 0.5405273 0.01544189
vt 0.9575195 0.003591537
vt 0.9926758 0.2614746
vt 0.9926758 0.003591537
vt 0.9575195 0.2614746
vt 0.9506836 0.003591537
vt 0.9575195 0.2614746
vt 0.9575195 0.003591537
vt 0.9506836 0.2614746
vt 0.9575195 0.003591537
vt 0.9926758 0.2614746
vt 0.9926758 0.003591537
vt 0.9575195 0.2614746
vt 0.9506836 0.003591537
vt 0.9575195 0.2614746
vt 0.9575195 0.003591537
vt 0.9506836 0.2614746
vt 0.5756836 0.008628845
vt 0.5405273 0.01544189
vt 0.5756836 0.01544189
vt 0.5405273 0.008628845
vt 0.5405273 0.008628845
vt 0.5756836 0.01544189
vt 0.5756836 0.008628845
vt 0.5405273 0.01544189
vt 0.7099609 0.3076172
vt 0.7451172 0.5654297
vt 0.7451172 0.3076172
vt 0.7099609 0.5654297
vt 0.7451172 0.3076172
vt 0.7519531 0.5654297
vt 0.7519531 0.3076172
vt 0.7451172 0.5654297
vt 0.7099609 0.3076172
vt 0.7451172 0.5654297
vt 0.7451172 0.3076172
vt 0.7099609 0.5654297
vt 0.7451172 0.3076172
vt 0.7519531 0.5654297
vt 0.7519531 0.3076172
vt 0.7451172 0.5654297
vt 0.9770508 0.300293
vt 0.9921875 0.6181641
vt 0.9921875 0.300293
vt 0.9770508 0.6181641
vt 0.9614258 0.300293
vt 0.9770508 0.6181641
vt 0.9770508 0.300293
vt 0.9614258 0.6181641
vt 0.9770508 0.300293
vt 0.9921875 0.6181641
vt 0.9921875 0.300293
vt 0.9770508 0.6181641
vt 0.9614258 0.300293
vt 0.9770508 0.6181641
vt 0.9770508 0.300293
vt 0.9614258 0.6181641

g fence_wood_B_5_19589_267
usemtl fence_wood_B_5_19589_267
usemap fence_wood_B_5_19589_267
f 1/1/1 3/3/3 2/2/2
f 2/2/2 4/4/4 1/1/1
f 5/5/5 7/7/7 6/6/6
f 6/6/6 8/8/8 5/5/5
f 9/9/9 11/11/11 10/10/10
f 10/10/10 12/12/12 9/9/9
f 13/13/13 15/15/15 14/14/14
f 14/14/14 16/16/16 13/13/13
f 17/17/17 19/19/19 18/18/18
f 18/18/18 20/20/20 17/17/17
f 21/21/21 23/23/23 22/22/22
f 22/22/22 24/24/24 21/21/21
f 25/25/25 27/27/27 26/26/26
f 26/26/26 28/28/28 25/25/25
f 29/29/29 31/31/31 30/30/30
f 30/30/30 32/32/32 29/29/29
f 33/33/33 35/35/35 34/34/34
f 34/34/34 36/36/36 33/33/33
f 37/37/37 39/39/39 38/38/38
f 38/38/38 40/40/40 37/37/37
f 41/41/41 43/43/43 42/42/42
f 42/42/42 44/44/44 41/41/41
f 45/45/45 47/47/47 46/46/46
f 46/46/46 48/48/48 45/45/45
f 49/49/49 51/51/51 50/50/50
f 50/50/50 52/52/52 49/49/49
f 53/53/53 55/55/55 54/54/54
f 54/54/54 56/56/56 53/53/53
f 57/57/57 59/59/59 58/58/58
f 58/58/58 60/60/60 57/57/57
f 61/61/61 63/63/63 62/62/62
f 62/62/62 64/64/64 61/61/61
f 65/65/65 67/67/67 66/66/66
f 66/66/66 68/68/68 65/65/65
f 69/69/69 71/71/71 70/70/70
f 70/70/70 72/72/72 69/69/69
f 73/73/73 75/75/75 74/74/74
f 74/74/74 76/76/76 73/73/73
f 77/77/77 79/79/79 78/78/78
f 78/78/78 80/80/80 77/77/77
f 81/81/81 83/83/83 82/82/82
f 82/82/82 84/84/84 81/81/81
f 85/85/85 87/87/87 86/86/86
f 86/86/86 88/88/88 85/85/85
f 89/89/89 91/91/91 90/90/90
f 90/90/90 92/92/92 89/89/89
f 93/93/93 95/95/95 94/94/94
f 94/94/94 96/96/96 93/93/93
f 97/97/97 99/99/99 98/98/98
f 98/98/98 100/100/100 97/97/97
f 101/101/101 103/103/103 102/102/102
f 102/102/102 104/104/104 101/101/101
f 105/105/105 107/107/107 106/106/106
f 106/106/106 108/108/108 105/105/105
f 109/109/109 111/111/111 110/110/110
f 110/110/110 112/112/112 109/109/109
f 113/113/113 115/115/115 114/114/114
f 114/114/114 116/116/116 113/113/113
f 117/117/117 119/119/119 118/118/118
f 118/118/118 120/120/120 117/117/117
f 121/121/121 123/123/123 122/122/122
f 122/122/122 124/124/124 121/121/121
f 125/125/125 127/127/127 126/126/126
f 126/126/126 128/128/128 125/125/125
f 129/129/129 131/131/131 130/130/130
f 130/130/130 132/132/132 129/129/129
f 133/133/133 135/135/135 134/134/134
f 134/134/134 136/136/136 133/133/133
f 137/137/137 139/139/139 138/138/138
f 138/138/138 140/140/140 137/137/137
f 141/141/141 143/143/143 142/142/142
f 142/142/142 144/144/144 141/141/141
f 145/145/145 147/147/147 146/146/146
f 146/146/146 148/148/148 145/145/145
f 149/149/149 151/151/151 150/150/150
f 150/150/150 152/152/152 149/149/149
f 153/153/153 155/155/155 154/154/154
f 154/154/154 156/156/156 153/153/153
f 157/157/157 159/159/159 158/158/158
f 158/158/158 160/160/160 157/157/157
f 161/161/161 163/163/163 162/162/162
f 162/162/162 164/164/164 161/161/161
f 165/165/165 167/167/167 166/166/166
f 166/166/166 168/168/168 165/165/165
f 169/169/169 171/171/171 170/170/170
f 170/170/170 172/172/172 169/169/169
f 173/173/173 175/175/175 174/174/174
f 174/174/174 176/176/176 173/173/173
f 177/177/177 179/179/179 178/178/178
f 178/178/178 180/180/180 177/177/177
f 181/181/181 183/183/183 182/182/182
f 182/182/182 184/184/184 181/181/181
f 185/185/185 187/187/187 186/186/186
f 186/186/186 188/188/188 185/185/185
f 189/189/189 191/191/191 190/190/190
f 190/190/190 192/192/192 189/189/189
f 193/193/193 195/195/195 194/194/194
f 194/194/194 196/196/196 193/193/193
f 197/197/197 199/199/199 198/198/198
f 198/198/198 200/200/200 197/197/197
