#fern_19436_560.obj

v -0.5683388 0.3621462 0.3901989
v -1.25041 0.2753771 -0.3901969
v -0.5683388 0.3621462 -0.3901986
v -1.25041 0.275377 0.3901989
v 1.415497E-06 -0.02482067 0.3901989
v 1.415497E-06 -0.02482067 -0.3901986
v -0.6083201 0.2928425 -0.1471559
v -0.6252341 0.2224642 -0.9876532
v -0.2014445 0.2928426 -0.6320454
v -1.032106 0.2224642 -0.502762
v -0.2551952 -0.02102596 0.1491548
v 0.1516804 -0.02102593 -0.3357363
v -0.4251748 0.410812 -0.6077724
v 0.4533798 0.3131295 -1.375629
v 0.4533798 0.410812 -0.6077724
v -0.4251748 0.3131294 -1.375628
v -0.4251748 -0.02482559 0.03204527
v 0.4533798 -0.02482559 0.03204527
v -0.4538082 0.547729 -0.1747478
v -0.1819132 0.6229342 -0.9697954
v 0.09437703 0.547729 -0.4912383
v -0.7300951 0.6229341 -0.6533065
v -0.2717775 0.1252459 0.1405137
v 0.2763878 0.1252459 -0.1759752
v 0.5101973 0.3401783 -0.3260702
v 1.153556 0.258333 0.4100436
v 0.5101973 0.3401784 0.4100436
v 1.153556 0.2583328 -0.3260702
v -0.0258954 -0.02483013 -0.3260702
v -0.0258954 -0.02483013 0.4100436
v 0.2600792 0.5463347 -0.5902944
v 1.253809 0.5771213 -0.2550887
v 0.6536731 0.5463347 0.09140693
v 0.8602356 0.5771212 -0.9367917
v -0.205017 0.1655488 -0.3217629
v 0.1885569 0.1655488 0.3599384
v 0.5740055 0.5119791 0.2904197
v 0.2272678 0.4764294 1.306229
v -0.1258969 0.5119791 0.6945089
v 0.9271686 0.4764293 0.9021379
v 0.2797282 0.1655445 -0.2192952
v -0.4201925 0.1655445 0.184794
v -0.2525183 0.6144601 0.5263239
v -1.174099 0.6453272 0.2152536
v -0.6175948 0.6144601 -0.1060435
v -0.8090229 0.6453272 0.8476209
v 0.1465836 0.1655458 0.2959112
v -0.2185144 0.1655458 -0.3364545
v 0.2963487 0.3037299 0.5217927
v -0.3845698 0.1764414 1.108054
v -0.3845698 0.3037299 0.5217927
v 0.2963487 0.1764414 1.108054
v 0.2963487 0.01059597 -0.00163519
v -0.3845698 0.01059593 -0.00163519

vn 0.233445 0.97237 0
vn -0.1261973 0.9920052 0
vn 0.2334453 0.9723699 0
vn -0.1261974 0.9920052 0
vn 0.562803 0.8265911 0
vn 0.562803 0.8265911 0
vn 0.1788306 0.9723694 0.1500582
vn -0.09667339 0.9920049 -0.08111933
vn 0.1788302 0.9723694 0.1500578
vn -0.09667342 0.9920049 -0.08111934
vn 0.4311344 0.8265876 0.3617682
vn 0.4311344 0.8265876 0.3617682
vn 0 0.9723697 0.2334466
vn -1.103294E-07 0.9920052 -0.1261974
vn 0 0.9723696 0.2334467
vn -2.39954E-07 0.9920051 -0.1261975
vn 0 0.8265892 0.5628058
vn 0 0.8265892 0.5628058
vn 0.2385741 0.8788199 0.4132288
vn 0.06742572 0.9908656 0.1167866
vn 0.2385794 0.8788174 0.4132311
vn 0.06742572 0.9908656 0.1167866
vn 0.3787822 0.6527616 0.656069
vn 0.3787899 0.6527561 0.6560698
vn -0.2334426 0.9723706 0
vn 0.1261986 0.9920049 0
vn -0.2334426 0.9723706 0
vn 0.1261987 0.9920049 -1.542235E-07
vn -0.5627999 0.8265932 0
vn -0.5627999 0.8265932 0
vn -0.2811029 0.9458541 0.1622995
vn -0.03843587 0.9990146 0.02219102
vn -0.2810982 0.9458567 0.1622932
vn -0.03843561 0.9990146 0.02219024
vn -0.5008995 0.8157601 0.2891974
vn -0.5008972 0.8157647 0.2891884
vn -0.1192688 0.9711332 -0.2065795
vn 0.02513286 0.9987358 0.04353118
vn -0.1192653 0.9711344 -0.2065768
vn 0.02513291 0.9987358 0.04353119
vn -0.253626 0.8617952 -0.439298
vn -0.2536214 0.8617973 -0.4392968
vn 0.3453234 0.9170641 -0.1993621
vn 0.04155217 0.9988483 -0.02398887
vn 0.3453312 0.9170589 -0.199372
vn 0.04155218 0.9988483 -0.02398891
vn 0.604304 0.7163069 -0.3488854
vn 0.6043057 0.7163 -0.3488965
vn 0 0.9890158 -0.1478104
vn 0 0.9772314 0.2121761
vn 0 0.9890158 -0.1478105
vn 0 0.9772314 0.2121762
vn 0 0.8724958 -0.4886216
vn 0 0.8724958 -0.4886216

vt 0.02793884 0.3898926
vt 0.1282959 0.4802246
vt 0.1282959 0.3898926
vt 0.02793884 0.4802246
vt 0.02793884 0.2993164
vt 0.1282959 0.2993164
vt 0.02793884 0.3898926
vt 0.1282959 0.4802246
vt 0.1282959 0.3898926
vt 0.02793884 0.4802246
vt 0.02793884 0.2993164
vt 0.1282959 0.2993164
vt 0.02793884 0.3898926
vt 0.1282959 0.4802246
vt 0.1282959 0.3898926
vt 0.02793884 0.4802246
vt 0.02793884 0.2993164
vt 0.1282959 0.2993164
vt 0.02793884 0.3898926
vt 0.1282959 0.4802246
vt 0.1282959 0.3898926
vt 0.02793884 0.4802246
vt 0.02793884 0.2993164
vt 0.1282959 0.2993164
vt 0.02793884 0.3898926
vt 0.1282959 0.4802246
vt 0.1282959 0.3898926
vt 0.02793884 0.4802246
vt 0.02793884 0.2993164
vt 0.1282959 0.2993164
vt 0.02793884 0.3898926
vt 0.1282959 0.4802246
vt 0.1282959 0.3898926
vt 0.02793884 0.4802246
vt 0.02793884 0.2993164
vt 0.1282959 0.2993164
vt 0.02793884 0.3898926
vt 0.1282959 0.4802246
vt 0.1282959 0.3898926
vt 0.02793884 0.4802246
vt 0.02793884 0.2993164
vt 0.1282959 0.2993164
vt 0.02793884 0.3898926
vt 0.1282959 0.4802246
vt 0.1282959 0.3898926
vt 0.02793884 0.4802246
vt 0.02793884 0.2993164
vt 0.1282959 0.2993164
vt 0.02793884 0.3898926
vt 0.1282959 0.4802246
vt 0.1282959 0.3898926
vt 0.02793884 0.4802246
vt 0.02793884 0.2993164
vt 0.1282959 0.2993164

g fern_19436_560
usemtl fern_19436_560
usemap fern_19436_560
f 1/1/1 3/3/3 2/2/2
f 2/2/2 4/4/4 1/1/1
f 3/3/3 1/1/1 5/5/5
f 5/5/5 6/6/6 3/3/3
f 7/7/7 9/9/9 8/8/8
f 8/8/8 10/10/10 7/7/7
f 9/9/9 7/7/7 11/11/11
f 11/11/11 12/12/12 9/9/9
f 13/13/13 15/15/15 14/14/14
f 14/14/14 16/16/16 13/13/13
f 15/15/15 13/13/13 17/17/17
f 17/17/17 18/18/18 15/15/15
f 19/19/19 21/21/21 20/20/20
f 20/20/20 22/22/22 19/19/19
f 21/21/21 19/19/19 23/23/23
f 23/23/23 24/24/24 21/21/21
f 25/25/25 27/27/27 26/26/26
f 26/26/26 28/28/28 25/25/25
f 27/27/27 25/25/25 29/29/29
f 29/29/29 30/30/30 27/27/27
f 31/31/31 33/33/33 32/32/32
f 32/32/32 34/34/34 31/31/31
f 33/33/33 31/31/31 35/35/35
f 35/35/35 36/36/36 33/33/33
f 37/37/37 39/39/39 38/38/38
f 38/38/38 40/40/40 37/37/37
f 39/39/39 37/37/37 41/41/41
f 41/41/41 42/42/42 39/39/39
f 43/43/43 45/45/45 44/44/44
f 44/44/44 46/46/46 43/43/43
f 45/45/45 43/43/43 47/47/47
f 47/47/47 48/48/48 45/45/45
f 49/49/49 51/51/51 50/50/50
f 50/50/50 52/52/52 49/49/49
f 51/51/51 49/49/49 53/53/53
f 53/53/53 54/54/54 51/51/51
