#floor_1x3m_13_10677_98.obj

v 3.000017 -1.129221E-07 3.795384E-06
v 1.382992E-05 -5.100644E-07 0.9999992
v 3.000015 -5.100644E-07 0.9999992
v 1.569794E-05 -1.129221E-07 3.813585E-06

vn -3.943401E-07 -0.9999993 -8.540649E-09
vn -3.950437E-07 -0.9999993 -8.555887E-09
vn -3.94096E-07 -0.9999993 -8.535361E-09
vn -3.952878E-07 -0.9999993 -8.561173E-09

vt 1.788139E-07 5.960464E-07
vt 0.333252 1
vt 0.333252 1.788139E-07
vt 1.192093E-07 1

g floor_1x3m_13_10677_98
usemtl floor_1x3m_13_10677_98
usemap floor_1x3m_13_10677_98
f 1/1/1 3/3/3 2/2/2
f 2/2/2 4/4/4 1/1/1
