#floor_3x3m_1_8636_202.obj

v 2.999997 -5.518597E-06 2.999999
v -3.185379E-06 -5.037504E-06 2.439896E-06
v -3.307885E-06 -5.518597E-06 3.000001
v 2.999997 -5.037504E-06 3.191482E-06

vn 1.998682E-07 -0.9999991 1.728854E-09
vn 1.998682E-07 -0.9999991 1.728853E-09
vn 2.002654E-07 -0.9999991 1.732289E-09
vn 1.99471E-07 -0.9999991 1.725417E-09

vt 1 2.384186E-07
vt 1.192093E-07 1
vt 1 1
vt 1.788139E-07 5.960464E-07

g floor_3x3m_1_8636_202
usemtl floor_3x3m_1_8636_202
usemap floor_3x3m_1_8636_202
f 1/1/1 3/3/3 2/2/2
f 2/2/2 4/4/4 1/1/1
