#floor_3x3m_13_10498_55.obj

v 3.000037 -5.893273E-06 3.000026
v 3.499139E-05 -5.22481E-06 2.838401E-05
v 3.535287E-05 -5.893273E-06 3.000031
v 3.000037 -5.22481E-06 2.738621E-05

vn -1.363151E-10 -0.9999989 -1.998757E-07
vn -1.363151E-10 -0.9999989 -1.998756E-07
vn -1.36586E-10 -0.9999989 -2.002729E-07
vn -1.360442E-10 -0.9999989 -1.994784E-07

vt 1 2.384186E-07
vt 1.192093E-07 1
vt 1 1
vt 1.788139E-07 5.960464E-07

g floor_3x3m_13_10498_55
usemtl floor_3x3m_13_10498_55
usemap floor_3x3m_13_10498_55
f 1/1/1 3/3/3 2/2/2
f 2/2/2 4/4/4 1/1/1
