#floor_3x3m_28_10557_140.obj

v 3.000006 -5.712884E-06 3
v 6.800925E-06 -4.96231E-06 4.60975E-06
v 5.037887E-06 -5.27203E-06 3.000005
v 3.000008 -4.96231E-06 4.591549E-06

vn -1.998288E-07 -0.9999993 -4.327908E-09
vn -1.998288E-07 -0.9999993 -4.327908E-09
vn -2.00226E-07 -0.9999993 -4.336509E-09
vn -1.994317E-07 -0.9999993 -4.319307E-09

vt 1 2.384186E-07
vt 1.192093E-07 1
vt 1 1
vt 1.788139E-07 5.960464E-07

g floor_3x3m_28_10557_140
usemtl floor_3x3m_28_10557_140
usemap floor_3x3m_28_10557_140
f 1/1/1 3/3/3 2/2/2
f 2/2/2 4/4/4 1/1/1
