#floor_3x3m_3_10226_426.obj

v 3.000005 -5.457297E-06 2.999999
v 5.417866E-06 -5.096272E-06 2.993913E-06
v 2.235373E-06 -5.427833E-06 3.000004
v 3.000008 -5.133074E-06 3.78101E-06

vn -0.02056631 -0.9997873 -0.001318965
vn -0.02056631 -0.9997873 -0.001318965
vn -0.02056631 -0.9997873 -0.001318965
vn -0.02056631 -0.9997873 -0.001318966

vt 1 2.384186E-07
vt 1.192093E-07 1
vt 1 1
vt 1.788139E-07 5.960464E-07

g floor_3x3m_3_10226_426
usemtl floor_3x3m_3_10226_426
usemap floor_3x3m_3_10226_426
f 1/1/1 3/3/3 2/2/2
f 2/2/2 4/4/4 1/1/1
