#floor_3x3m_14_10402_50.obj

v 2.999995 -5.319734E-06 2.999995
v -4.617234E-06 -4.7986E-06 -1.247075E-06
v -5.450539E-06 -5.319733E-06 3
v 2.999996 -5.016022E-06 -6.087199E-07

vn 4.183582E-09 -0.9999996 1.998319E-07
vn 4.183582E-09 -0.9999996 1.998319E-07
vn 4.191897E-09 -0.9999996 2.002291E-07
vn 4.175268E-09 -0.9999996 1.994348E-07

vt 1 2.384186E-07
vt 1.192093E-07 1
vt 1 1
vt 1.788139E-07 5.960464E-07

g floor_3x3m_14_10402_50
usemtl floor_3x3m_14_10402_50
usemap floor_3x3m_14_10402_50
f 1/1/1 3/3/3 2/2/2
f 2/2/2 4/4/4 1/1/1
