#floor_1x3m_1_20343_99.obj

v 3 -1.083739E-07 -6.327617E-07
v -3.109807E-07 0.04999979 -1.141389E-07
v -3.109807E-07 -1.083739E-07 -1.119534E-07
v 3 0.04999979 -6.349472E-07
v 3 -4.793037E-07 0.9999958
v 4.15482E-07 0.04999942 0.9999946
v 3 0.04999942 0.9999957
v 4.15482E-07 -4.793037E-07 0.9999946
v -3.109807E-07 -1.083739E-07 -1.119534E-07
v 4.15482E-07 0.04999942 0.9999946
v 4.15482E-07 -4.793037E-07 0.9999946
v -3.109807E-07 0.04999979 -1.141389E-07
v 3 0.04999979 -6.349472E-07
v 3 -4.793037E-07 0.9999958
v 3 0.04999942 0.9999957
v 3 -1.083739E-07 -6.327617E-07
v -3.109807E-07 0.04999979 -1.141389E-07
v 3 0.04999942 0.9999957
v 4.15482E-07 0.04999942 0.9999946
v 3 0.04999979 -6.349472E-07

vn 1 4.371138E-08 -8.940696E-07
vn 1 4.371138E-08 -8.940696E-07
vn 1 4.371138E-08 -8.940696E-07
vn 1 4.371138E-08 -8.940696E-07
vn -1 -4.371138E-08 8.940696E-07
vn -1 -4.371138E-08 8.940696E-07
vn -1 -4.371138E-08 8.940696E-07
vn -1 -4.371138E-08 8.940696E-07
vn -8.940696E-07 -1.776357E-15 -1
vn -8.940696E-07 -1.776357E-15 -1
vn -8.940696E-07 -1.776357E-15 -1
vn -8.940696E-07 -1.776357E-15 -1
vn 8.940696E-07 1.776357E-15 1
vn 8.940696E-07 1.776357E-15 1
vn 8.940696E-07 1.776357E-15 1
vn 8.940696E-07 1.776357E-15 1
vn -3.965727E-07 0.9999999 3.581151E-13
vn -3.965727E-07 0.9999999 3.581151E-13
vn -3.965726E-07 0.9999999 3.58115E-13
vn -3.965726E-07 0.9999999 3.58115E-13

vt 1.788139E-07 5.960464E-07
vt -0.0166626 1
vt 1.192093E-07 1
vt -0.0166626 2.980232E-07
vt 1 1.192093E-07
vt 1.016602 1
vt 1.016602 -1.788139E-07
vt 1 1
vt 1.192093E-07 1
vt 0.333252 1.016602
vt 0.333252 1
vt 1.192093E-07 1.016602
vt -1.788139E-07 -0.0166626
vt 0.333252 1.788139E-07
vt 0.333252 -0.0166626
vt 1.788139E-07 5.960464E-07
vt -1.788139E-07 1.192093E-07
vt 0.333252 1
vt 0.333252 1.788139E-07
vt -2.384186E-07 1

g floor_1x3m_1_20343_99
usemtl floor_1x3m_1_20343_99
usemap floor_1x3m_1_20343_99
f 1/1/1 3/3/3 2/2/2
f 2/2/2 4/4/4 1/1/1
f 5/5/5 7/7/7 6/6/6
f 6/6/6 8/8/8 5/5/5
f 9/9/9 11/11/11 10/10/10
f 10/10/10 12/12/12 9/9/9
f 13/13/13 15/15/15 14/14/14
f 14/14/14 16/16/16 13/13/13
f 17/17/17 19/19/19 18/18/18
f 18/18/18 20/20/20 17/17/17
