#floor_3x3m_12_10355_633.obj

v 2.999994 -5.319734E-06 2.999992
v -5.244056E-06 -4.7986E-06 -4.312174E-06
v -5.207862E-06 -5.319733E-06 2.999996
v 2.999995 -5.016023E-06 -3.67382E-06

vn 4.183582E-09 -0.9999996 1.998319E-07
vn 4.183582E-09 -0.9999996 1.998319E-07
vn 4.191897E-09 -0.9999996 2.002291E-07
vn 4.175268E-09 -0.9999996 1.994348E-07

vt 1 2.384186E-07
vt 1.192093E-07 1
vt 1 1
vt 1.788139E-07 5.960464E-07

g floor_3x3m_12_10355_633
usemtl floor_3x3m_12_10355_633
usemap floor_3x3m_12_10355_633
f 1/1/1 3/3/3 2/2/2
f 2/2/2 4/4/4 1/1/1
