#floor_3x3m_15_10100_408.obj

v 3.000001 -5.443605E-06 2.999994
v 8.863112E-07 -5.032767E-06 -9.12131E-07
v 9.333875E-07 -5.443605E-06 2.999999
v 3 -5.032767E-06 -1.371006E-06

vn -1.562154E-07 -1 -4.352867E-08
vn -1.562153E-07 -1 -4.352867E-08
vn -1.566126E-07 -1 -4.352821E-08
vn -1.558181E-07 -1 -4.352914E-08

vt 1 2.384186E-07
vt 1.192093E-07 1
vt 1 1
vt 1.788139E-07 5.960464E-07

g floor_3x3m_15_10100_408
usemtl floor_3x3m_15_10100_408
usemap floor_3x3m_15_10100_408
f 1/1/1 3/3/3 2/2/2
f 2/2/2 4/4/4 1/1/1
