#floor_1x1m_9758_278.obj

v 1.000009 1.595042E-07 3.180815E-06
v 6.201089E-06 -1.721116E-08 1.000003
v 1.000008 -1.721116E-08 1.000003
v 7.964101E-06 1.595042E-07 2.991962E-06

vn -2.051919E-07 -0.9999993 -4.444061E-09
vn -2.051919E-07 -0.9999993 -4.444061E-09
vn -1.950614E-07 -0.9999993 -4.224656E-09
vn -2.153223E-07 -0.9999993 -4.663467E-09

vt 0 0.6665039
vt 0.3334961 1
vt 0.3334961 0.6665039
vt 0 1

g floor_1x1m_9758_278
usemtl floor_1x1m_9758_278
usemap floor_1x1m_9758_278
f 1/1/1 3/3/3 2/2/2
f 2/2/2 4/4/4 1/1/1
