#floor_3x3m_5_10419_506.obj

v 3.00001 -5.629421E-06 3
v 1.083202E-05 -5.268396E-06 4.39909E-06
v 7.649532E-06 -5.599957E-06 3.000005
v 3.000013 -5.304674E-06 4.788827E-06

vn -0.02056631 -0.9997873 -0.001318965
vn -0.02056631 -0.9997873 -0.001318965
vn -0.02056631 -0.9997873 -0.001318965
vn -0.02056631 -0.9997873 -0.001318966

vt 1 2.384186E-07
vt 1.192093E-07 1
vt 1 1
vt 1.788139E-07 5.960464E-07

g floor_3x3m_5_10419_506
usemtl floor_3x3m_5_10419_506
usemap floor_3x3m_5_10419_506
f 1/1/1 3/3/3 2/2/2
f 2/2/2 4/4/4 1/1/1
