#floor_3x3m_8_8634_51.obj

v 3.000036 -5.758467E-06 3.000049
v 3.364541E-05 -5.090003E-06 5.169107E-05
v 3.40069E-05 -5.758467E-06 3.000054
v 3.000036 -5.090003E-06 5.069327E-05

vn -1.363151E-10 -0.9999989 -1.998757E-07
vn -1.363151E-10 -0.9999989 -1.998756E-07
vn -1.36586E-10 -0.9999989 -2.002729E-07
vn -1.360442E-10 -0.9999989 -1.994784E-07

vt 1 2.384186E-07
vt 1.192093E-07 1
vt 1 1
vt 1.788139E-07 5.960464E-07

g floor_3x3m_8_8634_51
usemtl floor_3x3m_8_8634_51
usemap floor_3x3m_8_8634_51
f 1/1/1 3/3/3 2/2/2
f 2/2/2 4/4/4 1/1/1
