#floor_3x3m_2_11054_459.obj

v 2.999999 -5.158407E-06 2.999994
v -1.075008E-06 -4.878703E-06 -1.04325E-06
v -1.005205E-06 -5.158407E-06 2.999999
v 2.999999 -4.878703E-06 -1.112813E-06

vn -2.338632E-10 -0.9999999 -1.998756E-07
vn -2.338632E-10 -0.9999999 -1.998755E-07
vn -2.34328E-10 -0.9999999 -2.002728E-07
vn -2.333984E-10 -0.9999999 -1.994783E-07

vt 1 2.384186E-07
vt 1.192093E-07 1
vt 1 1
vt 1.788139E-07 5.960464E-07

g floor_3x3m_2_11054_459
usemtl floor_3x3m_2_11054_459
usemap floor_3x3m_2_11054_459
f 1/1/1 3/3/3 2/2/2
f 2/2/2 4/4/4 1/1/1
