#floor_3x3m_12_9618_250.obj

v 3.000007 -5.63084E-06 2.999999
v 7.642695E-06 -5.269946E-06 2.761273E-06
v 4.457955E-06 -5.600852E-06 3.000003
v 3.00001 -5.306487E-06 3.349691E-06

vn -0.02056631 -0.9997873 -0.001318965
vn -0.02056631 -0.9997873 -0.001318965
vn -0.02056631 -0.9997873 -0.001318965
vn -0.02056631 -0.9997873 -0.001318966

vt 1 2.384186E-07
vt 1.192093E-07 1
vt 1 1
vt 1.788139E-07 5.960464E-07

g floor_3x3m_12_9618_250
usemtl floor_3x3m_12_9618_250
usemap floor_3x3m_12_9618_250
f 1/1/1 3/3/3 2/2/2
f 2/2/2 4/4/4 1/1/1
