#floor_1x1m_1_8606_238.obj

v 1.000014 -7.092246E-07 4.312463E-06
v 8.411524E-06 -7.865193E-07 1.000004
v 1.000011 -5.773446E-07 1.000005
v 1.159585E-05 -5.211195E-07 4.192354E-06

vn -0.02056631 -0.9997873 -0.00131896
vn -0.02056631 -0.9997873 -0.00131896
vn -0.02056631 -0.9997873 -0.00131897
vn -0.02056631 -0.9997873 -0.00131895

vt 0 0.6665039
vt 0.3334961 1
vt 0.3334961 0.6665039
vt 0 1

g floor_1x1m_1_8606_238
usemtl floor_1x1m_1_8606_238
usemap floor_1x1m_1_8606_238
f 1/1/1 3/3/3 2/2/2
f 2/2/2 4/4/4 1/1/1
