#floor_3x3m_7_9433_530.obj

v 2.999993 -5.327483E-06 2.999992
v -6.932379E-06 -4.802419E-06 -3.856494E-06
v -6.350536E-06 -5.327482E-06 2.999997
v 2.999995 -5.021151E-06 -3.285598E-06

vn 3.168017E-09 -0.9999996 1.998506E-07
vn 3.168017E-09 -0.9999996 1.998505E-07
vn 3.174313E-09 -0.9999996 2.002477E-07
vn 3.16172E-09 -0.9999996 1.994534E-07

vt 1 2.384186E-07
vt 1.192093E-07 1
vt 1 1
vt 1.788139E-07 5.960464E-07

g floor_3x3m_7_9433_530
usemtl floor_3x3m_7_9433_530
usemap floor_3x3m_7_9433_530
f 1/1/1 3/3/3 2/2/2
f 2/2/2 4/4/4 1/1/1
