#floor_1x1m_C_10210_365.obj

v 1.000012 0.05000034 6.112401E-06
v 1.061781E-05 4.963584E-07 5.923548E-06
v 1.000012 4.963584E-07 6.112401E-06
v 1.061781E-05 0.05000034 5.923548E-06
v 1.061781E-05 4.963584E-07 5.923548E-06
v 8.845253E-06 0.05000034 1.000006
v 8.845253E-06 4.963584E-07 1.000006
v 1.061781E-05 0.05000034 5.923548E-06
v 1.00001 4.963584E-07 1.000006
v 8.845253E-06 0.05000034 1.000006
v 1.00001 0.05000034 1.000006
v 8.845253E-06 4.963584E-07 1.000006
v 1.00001 0.05000034 1.000006
v 1.000012 4.963584E-07 6.112401E-06
v 1.00001 4.963584E-07 1.000006
v 1.000012 0.05000034 6.112401E-06
v 1.061781E-05 0.05000034 5.923548E-06
v 1.00001 0.05000034 1.000006
v 8.845253E-06 0.05000034 1.000006
v 1.000012 0.05000034 6.112401E-06

vn -0.9997655 0 -0.021653
vn -0.9997655 0 -0.021653
vn -0.9997655 0 -0.021653
vn -0.9997655 0 -0.021653
vn -0.02165272 0 0.9997656
vn -0.02165272 0 0.9997656
vn -0.02165272 0 0.9997656
vn -0.02165272 0 0.9997656
vn 0.9997655 0 0.021653
vn 0.9997655 0 0.021653
vn 0.9997655 0 0.021653
vn 0.9997655 0 0.021653
vn 0.02165272 0 -0.9997656
vn 0.02165272 0 -0.9997656
vn 0.02165272 0 -0.9997656
vn 0.02165272 0 -0.9997656
vn 1.620866E-07 0.9999993 3.510485E-09
vn 1.620866E-07 0.9999993 3.510485E-09
vn 1.716211E-07 0.9999993 3.716984E-09
vn 1.525521E-07 0.9999993 3.303986E-09

vt -0.0166626 -5.835295E-05
vt 0 0.333252
vt 0 -5.835295E-05
vt -0.0166626 0.333252
vt 0 0.333252
vt 0.3334961 0.3500977
vt 0.3334961 0.333252
vt 0 0.3500977
vt 0.3334961 -5.829334E-05
vt 0.3500977 0.333252
vt 0.3500977 -5.835295E-05
vt 0.3334961 0.333252
vt 0.3334961 -0.01672363
vt 0 -5.835295E-05
vt 0.3334961 -5.829334E-05
vt 0 -0.01672363
vt 0 -5.835295E-05
vt 0.333252 0.333252
vt 0.333252 -5.835295E-05
vt 5.960464E-08 0.333252

g floor_1x1m_C_10210_365
usemtl floor_1x1m_C_10210_365
usemap floor_1x1m_C_10210_365
f 1/1/1 3/3/3 2/2/2
f 2/2/2 4/4/4 1/1/1
f 5/5/5 7/7/7 6/6/6
f 6/6/6 8/8/8 5/5/5
f 9/9/9 11/11/11 10/10/10
f 10/10/10 12/12/12 9/9/9
f 13/13/13 15/15/15 14/14/14
f 14/14/14 16/16/16 13/13/13
f 17/17/17 19/19/19 18/18/18
f 18/18/18 20/20/20 17/17/17
