#floor_3x3m_13_8986_34.obj

v 3 -5.340895E-06 2.999994
v -6.852976E-07 -4.930057E-06 -2.231639E-07
v -4.328023E-07 -5.340895E-06 3
v 2.999999 -4.724639E-06 -4.761398E-07

vn -1.562154E-07 -1 -4.352867E-08
vn -1.562153E-07 -1 -4.352867E-08
vn -1.566126E-07 -1 -4.352821E-08
vn -1.558181E-07 -1 -4.352914E-08

vt 1 2.384186E-07
vt 1.192093E-07 1
vt 1 1
vt 1.788139E-07 5.960464E-07

g floor_3x3m_13_8986_34
usemtl floor_3x3m_13_8986_34
usemap floor_3x3m_13_8986_34
f 1/1/1 3/3/3 2/2/2
f 2/2/2 4/4/4 1/1/1
