#floor_1x3m_19297_30.obj

v 3 -1.083739E-07 -9.437424E-07
v 4.154822E-07 -4.793038E-07 0.9999943
v 3 -4.793037E-07 0.9999954
v -3.109804E-07 -1.083739E-07 -4.229341E-07

vn 3.944326E-07 -0.9999999 -3.562017E-13
vn 3.951363E-07 -0.9999999 -3.568309E-13
vn 3.941884E-07 -0.9999999 -3.559834E-13
vn 3.953805E-07 -0.9999999 -3.570492E-13

vt 1.788139E-07 5.960464E-07
vt 0.333252 1
vt 0.333252 1.788139E-07
vt 1.192093E-07 1

g floor_1x3m_19297_30
usemtl floor_1x3m_19297_30
usemap floor_1x3m_19297_30
f 1/1/1 3/3/3 2/2/2
f 2/2/2 4/4/4 1/1/1
