#floor_3x3m_13_19832_37.obj

v 2.999999 -4.928575E-06 7.553036E-07
v -3.109812E-07 0.04999513 1.96906E-07
v -3.109812E-07 -4.876746E-06 1.990272E-07
v 2.999999 0.04999508 7.531825E-07
v 2.999998 -5.42327E-06 2.999995
v -8.672617E-07 0.04999463 3.000001
v 2.999998 0.04999458 2.999995
v -8.672617E-07 -5.371439E-06 3.000001
v -8.672617E-07 -5.371439E-06 3.000001
v -3.109812E-07 0.04999513 1.96906E-07
v -8.672617E-07 0.04999463 3.000001
v -3.109812E-07 -4.876746E-06 1.990272E-07
v 2.999998 0.04999458 2.999995
v 2.999999 -4.928575E-06 7.553036E-07
v 2.999998 -5.42327E-06 2.999995
v 2.999999 0.04999508 7.531825E-07
v -8.672617E-07 0.04999463 3.000001
v 2.999999 0.04999508 7.531825E-07
v 2.999998 0.04999458 2.999995
v -3.109812E-07 0.04999513 1.96906E-07

vn 1 4.37114E-08 -2.205372E-06
vn 1 4.37114E-08 -2.205372E-06
vn 1 4.37114E-08 -2.205372E-06
vn 1 4.37114E-08 -2.205372E-06
vn -1 -4.37114E-08 3.832976E-06
vn -1 -4.37114E-08 3.832976E-06
vn -1 -4.37114E-08 3.832976E-06
vn -1 -4.37114E-08 3.832976E-06
vn -2.205372E-06 -1.776357E-15 -1
vn -2.205372E-06 -1.776357E-15 -1
vn -2.205372E-06 -1.776357E-15 -1
vn -2.205372E-06 -1.776357E-15 -1
vn 2.205372E-06 1.776357E-15 1
vn 2.205372E-06 1.776357E-15 1
vn 2.205372E-06 1.776357E-15 1
vn 2.205372E-06 1.776357E-15 1
vn -2.010678E-07 1 4.44729E-13
vn -2.010678E-07 1 4.44729E-13
vn -2.010679E-07 1 4.447293E-13
vn -2.010677E-07 1 4.447287E-13

vt 1.788139E-07 5.960464E-07
vt -0.0166626 1
vt 1.192093E-07 1
vt -0.0166626 2.980232E-07
vt 1 2.384186E-07
vt 1.016602 1
vt 1.016602 -5.960464E-08
vt 1 1
vt 1 1
vt 1.192093E-07 1.016602
vt 1 1.016602
vt 1.192093E-07 1
vt 1 -0.0166626
vt 1.788139E-07 5.960464E-07
vt 1 2.384186E-07
vt -1.788139E-07 -0.0166626
vt 1 1.788139E-07
vt -2.384186E-07 1
vt 1 1
vt -1.788139E-07 1.192093E-07

g floor_3x3m_13_19832_37
usemtl floor_3x3m_13_19832_37
usemap floor_3x3m_13_19832_37
f 1/1/1 3/3/3 2/2/2
f 2/2/2 4/4/4 1/1/1
f 5/5/5 7/7/7 6/6/6
f 6/6/6 8/8/8 5/5/5
f 9/9/9 11/11/11 10/10/10
f 10/10/10 12/12/12 9/9/9
f 13/13/13 15/15/15 14/14/14
f 14/14/14 16/16/16 13/13/13
f 17/17/17 19/19/19 18/18/18
f 18/18/18 20/20/20 17/17/17
