#floor_3x3m_30_9588_269.obj

v 3.000014 -4.962311E-06 2.917957E-06
v 9.480676E-06 0.04999488 3.010337E-06
v 9.480676E-06 -4.962311E-06 3.012523E-06
v 3.000014 0.04999488 2.915771E-06
v 3.000009 -5.712884E-06 2.999999
v 7.717637E-06 0.04999457 3.000004
v 3.000009 0.04999457 2.999999
v 7.717637E-06 -5.27203E-06 3.000004
v 7.717637E-06 -5.27203E-06 3.000004
v 9.480676E-06 0.04999488 3.010337E-06
v 7.717637E-06 0.04999457 3.000004
v 9.480676E-06 -4.962311E-06 3.012523E-06
v 3.000009 0.04999457 2.999999
v 3.000014 -4.962311E-06 2.917957E-06
v 3.000009 -5.712884E-06 2.999999
v 3.000014 0.04999488 2.915771E-06
v 7.717637E-06 0.04999457 3.000004
v 3.000014 0.04999488 2.915771E-06
v 3.000009 0.04999457 2.999999
v 9.480676E-06 0.04999488 3.010337E-06

vn -0.9997655 4.371136E-08 -0.021653
vn -0.9997655 4.371136E-08 -0.021653
vn -0.9997655 4.371136E-08 -0.021653
vn -0.9997655 4.371136E-08 -0.021653
vn 0.9997656 -4.371136E-08 0.02165137
vn 0.9997656 -4.371136E-08 0.02165137
vn 0.9997656 -4.371136E-08 0.02165137
vn 0.9997656 -4.371136E-08 0.02165137
vn -0.02165272 0 0.9997656
vn -0.02165272 0 0.9997656
vn -0.02165272 0 0.9997656
vn -0.02165272 0 0.9997656
vn 0.02165272 0 -0.9997656
vn 0.02165272 0 -0.9997656
vn 0.02165272 0 -0.9997656
vn 0.02165272 0 -0.9997656
vn 2.010206E-07 0.9999993 4.35372E-09
vn 2.010206E-07 0.9999993 4.35372E-09
vn 2.010208E-07 0.9999993 4.353724E-09
vn 2.010205E-07 0.9999993 4.353718E-09

vt 1.788139E-07 5.960464E-07
vt -0.0166626 1
vt 1.192093E-07 1
vt -0.0166626 2.980232E-07
vt 1 2.384186E-07
vt 1.016602 1
vt 1.016602 -5.960464E-08
vt 1 1
vt 1 1
vt 1.192093E-07 1.016602
vt 1 1.016602
vt 1.192093E-07 1
vt 1 -0.0166626
vt 1.788139E-07 5.960464E-07
vt 1 2.384186E-07
vt -1.788139E-07 -0.0166626
vt 1 1.788139E-07
vt -2.384186E-07 1
vt 1 1
vt -1.788139E-07 1.192093E-07

g floor_3x3m_30_9588_269
usemtl floor_3x3m_30_9588_269
usemap floor_3x3m_30_9588_269
f 1/1/1 3/3/3 2/2/2
f 2/2/2 4/4/4 1/1/1
f 5/5/5 7/7/7 6/6/6
f 6/6/6 8/8/8 5/5/5
f 9/9/9 11/11/11 10/10/10
f 10/10/10 12/12/12 9/9/9
f 13/13/13 15/15/15 14/14/14
f 14/14/14 16/16/16 13/13/13
f 17/17/17 19/19/19 18/18/18
f 18/18/18 20/20/20 17/17/17
