#floor_3x3m_4_9196_142.obj

v 3.000007 -5.497245E-06 3.000002
v 7.665388E-06 -5.136219E-06 6.16517E-06
v 4.482894E-06 -5.467781E-06 3.000007
v 3.00001 -5.173022E-06 6.952267E-06

vn -0.02056631 -0.9997873 -0.001318965
vn -0.02056631 -0.9997873 -0.001318965
vn -0.02056631 -0.9997873 -0.001318965
vn -0.02056631 -0.9997873 -0.001318966

vt 1 2.384186E-07
vt 1.192093E-07 1
vt 1 1
vt 1.788139E-07 5.960464E-07

g floor_3x3m_4_9196_142
usemtl floor_3x3m_4_9196_142
usemap floor_3x3m_4_9196_142
f 1/1/1 3/3/3 2/2/2
f 2/2/2 4/4/4 1/1/1
