#floor_3x3m_8_9447_190.obj

v 3.000007 -5.597799E-06 2.999999
v 7.997389E-06 -5.038265E-06 2.497238E-06
v 4.808562E-06 -5.567811E-06 3.000003
v 3.00001 -5.074805E-06 3.085655E-06

vn -0.02056631 -0.9997873 -0.001318965
vn -0.02056631 -0.9997873 -0.001318965
vn -0.02056631 -0.9997873 -0.001318965
vn -0.02056631 -0.9997873 -0.001318966

vt 1 2.384186E-07
vt 1.192093E-07 1
vt 1 1
vt 1.788139E-07 5.960464E-07

g floor_3x3m_8_9447_190
usemtl floor_3x3m_8_9447_190
usemap floor_3x3m_8_9447_190
f 1/1/1 3/3/3 2/2/2
f 2/2/2 4/4/4 1/1/1
