#floor_1x1m_C_3_8960_364.obj

v 1.000007 -1.129223E-07 4.524702E-06
v 3.291972E-06 -5.537758E-07 1.000005
v 1.000005 -5.537758E-07 1.000004
v 5.054985E-06 -1.129223E-07 4.335849E-06

vn -1.614907E-07 -0.9999993 -3.497579E-09
vn -1.614907E-07 -0.9999993 -3.497579E-09
vn -1.513603E-07 -0.9999993 -3.278173E-09
vn -1.716211E-07 -0.9999993 -3.716984E-09

vt 0 -5.835295E-05
vt 0.3334961 0.333252
vt 0.3334961 -5.829334E-05
vt 0 0.333252

g floor_1x1m_C_3_8960_364
usemtl floor_1x1m_C_3_8960_364
usemap floor_1x1m_C_3_8960_364
f 1/1/1 3/3/3 2/2/2
f 2/2/2 4/4/4 1/1/1
