#floor_3x3m_43_20176_612.obj

v 3 -5.267779E-06 2.999995
v -5.183035E-07 -4.980406E-06 9.246484E-07
v -1.074584E-06 -5.267779E-06 3.000002
v 3 -4.980406E-06 1.480929E-06

vn 1.998757E-07 -1 -4.616399E-13
vn 1.998757E-07 -1 -4.616399E-13
vn 2.00273E-07 -1 -4.62516E-13
vn 1.994785E-07 -1 -4.607639E-13

vt 1 2.384186E-07
vt 1.192093E-07 1
vt 1 1
vt 1.788139E-07 5.960464E-07

g floor_3x3m_43_20176_612
usemtl floor_3x3m_43_20176_612
usemap floor_3x3m_43_20176_612
f 1/1/1 3/3/3 2/2/2
f 2/2/2 4/4/4 1/1/1
