#floor_3x3m_8_9021_257.obj

v 3.000003 -5.046249E-06 9.871221E-06
v 2.925741E-06 0.04999505 9.242372E-06
v 2.925741E-06 -4.827516E-06 9.244557E-06
v 3.000003 0.04999505 9.869035E-06
v 3.000003 -5.352581E-06 3.000006
v 2.935902E-06 0.04999452 3.000009
v 3.000003 0.04999452 3.000006
v 2.935902E-06 -5.352581E-06 3.000009
v 2.935902E-06 -5.352581E-06 3.000009
v 2.925741E-06 0.04999505 9.242372E-06
v 2.935902E-06 0.04999452 3.000009
v 2.925741E-06 -4.827516E-06 9.244557E-06
v 3.000003 0.04999452 3.000006
v 3.000003 -5.046249E-06 9.871221E-06
v 3.000003 -5.352581E-06 3.000006
v 3.000003 0.04999505 9.869035E-06
v 2.935902E-06 0.04999452 3.000009
v 3.000003 0.04999505 9.869035E-06
v 3.000003 0.04999452 3.000006
v 2.925741E-06 0.04999505 9.242372E-06

vn -0.9999999 4.371137E-08 -2.378717E-06
vn -0.9999999 4.371137E-08 -2.378717E-06
vn -0.9999999 4.371137E-08 -2.378717E-06
vn -0.9999999 4.371137E-08 -2.378717E-06
vn 0.9999999 -4.371137E-08 7.511125E-07
vn 0.9999999 -4.371137E-08 7.511125E-07
vn 0.9999999 -4.371137E-08 7.511123E-07
vn 0.9999999 -4.371137E-08 7.511123E-07
vn -2.159984E-06 0 1
vn -2.159984E-06 0 1
vn -2.159984E-06 0 1
vn -2.159984E-06 0 1
vn 2.159984E-06 0 -1
vn 2.159984E-06 0 -1
vn 2.159984E-06 0 -1
vn 2.159984E-06 0 -1
vn 2.010678E-07 0.9999997 4.786061E-13
vn 2.010678E-07 0.9999997 4.786061E-13
vn 2.010679E-07 0.9999997 4.786064E-13
vn 2.010676E-07 0.9999997 4.786058E-13

vt 1.788139E-07 5.960464E-07
vt -0.0166626 1
vt 1.192093E-07 1
vt -0.0166626 2.980232E-07
vt 1 2.384186E-07
vt 1.016602 1
vt 1.016602 -5.960464E-08
vt 1 1
vt 1 1
vt 1.192093E-07 1.016602
vt 1 1.016602
vt 1.192093E-07 1
vt 1 -0.0166626
vt 1.788139E-07 5.960464E-07
vt 1 2.384186E-07
vt -1.788139E-07 -0.0166626
vt 1 1.788139E-07
vt -2.384186E-07 1
vt 1 1
vt -1.788139E-07 1.192093E-07

g floor_3x3m_8_9021_257
usemtl floor_3x3m_8_9021_257
usemap floor_3x3m_8_9021_257
f 1/1/1 3/3/3 2/2/2
f 2/2/2 4/4/4 1/1/1
f 5/5/5 7/7/7 6/6/6
f 6/6/6 8/8/8 5/5/5
f 9/9/9 11/11/11 10/10/10
f 10/10/10 12/12/12 9/9/9
f 13/13/13 15/15/15 14/14/14
f 14/14/14 16/16/16 13/13/13
f 17/17/17 19/19/19 18/18/18
f 18/18/18 20/20/20 17/17/17
