#floor_3x3m_10_19658_22.obj

v 3.000001 -5.42327E-06 2.999995
v 6.21961E-07 -4.876746E-06 1.990294E-07
v 6.568062E-08 -5.371439E-06 3.000001
v 3.000001 -4.928575E-06 7.553098E-07

vn 1.998757E-07 -1 -4.421E-13
vn 1.998757E-07 -1 -4.421E-13
vn 2.002729E-07 -1 -4.42976E-13
vn 1.994785E-07 -1 -4.412239E-13

vt 1 2.384186E-07
vt 1.192093E-07 1
vt 1 1
vt 1.788139E-07 5.960464E-07

g floor_3x3m_10_19658_22
usemtl floor_3x3m_10_19658_22
usemap floor_3x3m_10_19658_22
f 1/1/1 3/3/3 2/2/2
f 2/2/2 4/4/4 1/1/1
