#floor_1x3m_11_9785_116.obj

v 3.000009 -1.12922E-07 5.740447E-06
v 9.423349E-06 -5.100644E-07 1.000001
v 3.000007 -5.100644E-07 1.000001
v 7.765367E-06 -1.12922E-07 5.758648E-06

vn -3.943401E-07 -0.9999993 -8.540649E-09
vn -3.950437E-07 -0.9999993 -8.555887E-09
vn -3.94096E-07 -0.9999993 -8.535361E-09
vn -3.952878E-07 -0.9999993 -8.561173E-09

vt 1.788139E-07 5.960464E-07
vt 0.333252 1
vt 0.333252 1.788139E-07
vt 1.192093E-07 1

g floor_1x3m_11_9785_116
usemtl floor_1x3m_11_9785_116
usemap floor_1x3m_11_9785_116
f 1/1/1 3/3/3 2/2/2
f 2/2/2 4/4/4 1/1/1
