#floor_1x3m_14_9034_154.obj

v 3.000007 -1.129221E-07 3.522569E-06
v 1.113861E-05 -5.100644E-07 0.999999
v 3.000012 -5.100645E-07 0.9999987
v 9.480624E-06 -1.129221E-07 3.68478E-06

vn -3.943401E-07 -0.9999993 -8.540649E-09
vn -3.950437E-07 -0.9999993 -8.555887E-09
vn -3.94096E-07 -0.9999993 -8.535361E-09
vn -3.952878E-07 -0.9999993 -8.561173E-09

vt 1.788139E-07 5.960464E-07
vt 0.333252 1
vt 0.333252 1.788139E-07
vt 1.192093E-07 1

g floor_1x3m_14_9034_154
usemtl floor_1x3m_14_9034_154
usemap floor_1x3m_14_9034_154
f 1/1/1 3/3/3 2/2/2
f 2/2/2 4/4/4 1/1/1
