#floor_3x3m_13_10754_106.obj

v 3.000007 -5.319733E-06 2.999998
v 5.220338E-06 -4.7986E-06 1.236627E-06
v 5.703325E-06 -5.319733E-06 3.000003
v 3.000006 -5.016022E-06 1.416007E-06

vn 3.528426E-09 -0.9999988 -1.998445E-07
vn 3.528426E-09 -0.9999988 -1.998445E-07
vn 3.535439E-09 -0.9999988 -2.002417E-07
vn 3.521414E-09 -0.9999988 -1.994474E-07

vt 1 2.384186E-07
vt 1.192093E-07 1
vt 1 1
vt 1.788139E-07 5.960464E-07

g floor_3x3m_13_10754_106
usemtl floor_3x3m_13_10754_106
usemap floor_3x3m_13_10754_106
f 1/1/1 3/3/3 2/2/2
f 2/2/2 4/4/4 1/1/1
