#floor_3x3m_47_20114_75.obj

v 3.000001 -5.084066E-06 9.626303E-07
v 6.219606E-07 0.04999482 4.042288E-07
v 6.219606E-07 -5.084066E-06 4.063499E-07
v 3.000001 0.04999482 9.605092E-07
v 3.000001 -5.371439E-06 2.999997
v 6.568409E-08 0.04999453 3
v 3.000001 0.04999453 2.999997
v 6.568409E-08 -5.371439E-06 3
v 6.568409E-08 -5.371439E-06 3
v 6.219606E-07 0.04999482 4.042288E-07
v 6.568409E-08 0.04999453 3
v 6.219606E-07 -5.084066E-06 4.063499E-07
v 3.000001 0.04999453 2.999997
v 3.000001 -5.084066E-06 9.626303E-07
v 3.000001 -5.371439E-06 2.999997
v 3.000001 0.04999482 9.605092E-07
v 6.568409E-08 0.04999453 3
v 3.000001 0.04999482 9.605092E-07
v 3.000001 0.04999453 2.999997
v 6.219606E-07 0.04999482 4.042288E-07

vn 1 4.37114E-08 -2.205372E-06
vn 1 4.37114E-08 -2.205372E-06
vn 1 4.37114E-08 -2.205372E-06
vn 1 4.37114E-08 -2.205372E-06
vn -1 -4.37114E-08 3.832976E-06
vn -1 -4.37114E-08 3.832976E-06
vn -1 -4.37114E-08 3.832976E-06
vn -1 -4.37114E-08 3.832976E-06
vn -2.205372E-06 3.552714E-15 -1
vn -2.205372E-06 3.552714E-15 -1
vn -2.205372E-06 3.552714E-15 -1
vn -2.205372E-06 3.552714E-15 -1
vn 2.205372E-06 -3.552714E-15 1
vn 2.205372E-06 -3.552714E-15 1
vn 2.205372E-06 -3.552714E-15 1
vn 2.205372E-06 -3.552714E-15 1
vn -2.010678E-07 1 4.500581E-13
vn -2.010678E-07 1 4.500581E-13
vn -2.010679E-07 1 4.500584E-13
vn -2.010677E-07 1 4.500578E-13

vt 1.788139E-07 5.960464E-07
vt -0.0166626 1
vt 1.192093E-07 1
vt -0.0166626 2.980232E-07
vt 1 2.384186E-07
vt 1.016602 1
vt 1.016602 -5.960464E-08
vt 1 1
vt 1 1
vt 1.192093E-07 1.016602
vt 1 1.016602
vt 1.192093E-07 1
vt 1 -0.0166626
vt 1.788139E-07 5.960464E-07
vt 1 2.384186E-07
vt -1.788139E-07 -0.0166626
vt 1 1.788139E-07
vt -2.384186E-07 1
vt 1 1
vt -1.788139E-07 1.192093E-07

g floor_3x3m_47_20114_75
usemtl floor_3x3m_47_20114_75
usemap floor_3x3m_47_20114_75
f 1/1/1 3/3/3 2/2/2
f 2/2/2 4/4/4 1/1/1
f 5/5/5 7/7/7 6/6/6
f 6/6/6 8/8/8 5/5/5
f 9/9/9 11/11/11 10/10/10
f 10/10/10 12/12/12 9/9/9
f 13/13/13 15/15/15 14/14/14
f 14/14/14 16/16/16 13/13/13
f 17/17/17 19/19/19 18/18/18
f 18/18/18 20/20/20 17/17/17
