#floor_1x3m_9095_320.obj

v 3.000011 -1.129222E-07 2.585901E-06
v 1.199251E-05 -5.100645E-07 0.9999979
v 3.000013 -5.100645E-07 0.9999979
v 1.033453E-05 -1.129222E-07 2.604102E-06

vn -3.943401E-07 -0.9999993 -8.540649E-09
vn -3.950437E-07 -0.9999993 -8.555887E-09
vn -3.94096E-07 -0.9999993 -8.535361E-09
vn -3.952878E-07 -0.9999993 -8.561173E-09

vt 1.788139E-07 5.960464E-07
vt 0.333252 1
vt 0.333252 1.788139E-07
vt 1.192093E-07 1

g floor_1x3m_9095_320
usemtl floor_1x3m_9095_320
usemap floor_1x3m_9095_320
f 1/1/1 3/3/3 2/2/2
f 2/2/2 4/4/4 1/1/1
