#floor_3x3m_13_11095_150.obj

v 3.000009 -5.63565E-06 3
v 1.023772E-05 -5.076116E-06 4.079055E-06
v 7.048894E-06 -5.605661E-06 3.000005
v 3.000012 -5.112656E-06 4.667472E-06

vn -0.02056631 -0.9997873 -0.001318965
vn -0.02056631 -0.9997873 -0.001318965
vn -0.02056631 -0.9997873 -0.001318965
vn -0.02056631 -0.9997873 -0.001318966

vt 1 2.384186E-07
vt 1.192093E-07 1
vt 1 1
vt 1.788139E-07 5.960464E-07

g floor_3x3m_13_11095_150
usemtl floor_3x3m_13_11095_150
usemap floor_3x3m_13_11095_150
f 1/1/1 3/3/3 2/2/2
f 2/2/2 4/4/4 1/1/1
