#floor_3x3m_4_9804_284.obj

v 3.000009 -5.375353E-06 3.000007
v 8.751544E-06 -4.910441E-06 1.079424E-05
v 1.130294E-05 -5.375353E-06 3.000012
v 3.000006 -4.910441E-06 1.043869E-05

vn -1.998697E-07 -0.9999993 1.542114E-09
vn -1.998697E-07 -0.9999993 1.542114E-09
vn -2.002669E-07 -0.9999993 1.545179E-09
vn -1.994725E-07 -0.9999993 1.539049E-09

vt 1 2.384186E-07
vt 1.192093E-07 1
vt 1 1
vt 1.788139E-07 5.960464E-07

g floor_3x3m_4_9804_284
usemtl floor_3x3m_4_9804_284
usemap floor_3x3m_4_9804_284
f 1/1/1 3/3/3 2/2/2
f 2/2/2 4/4/4 1/1/1
