#floor_3x3m_1_10878_454.obj

v 3.000009 -5.5523E-06 2.999999
v 9.541139E-06 -5.191275E-06 2.972612E-06
v 9.536854E-06 -5.588214E-06 3.000004
v 3.000012 -5.228077E-06 3.759709E-06

vn -0.02056631 -0.9997873 -0.001318965
vn -0.02056631 -0.9997873 -0.001318965
vn -0.02056631 -0.9997873 -0.001318965
vn -0.02056631 -0.9997873 -0.001318966

vt 1 2.384186E-07
vt 1.192093E-07 1
vt 1 1
vt 1.788139E-07 5.960464E-07

g floor_3x3m_1_10878_454
usemtl floor_3x3m_1_10878_454
usemap floor_3x3m_1_10878_454
f 1/1/1 3/3/3 2/2/2
f 2/2/2 4/4/4 1/1/1
