#floor_3x3m_3_10399_1328.obj

v 3.00004 -5.59525E-06 3.000036
v 3.739138E-05 -4.926786E-06 3.78735E-05
v 3.775286E-05 -5.59525E-06 3.00004
v 3.000039 -4.926786E-06 3.68757E-05

vn -1.363151E-10 -0.9999989 -1.998757E-07
vn -1.363151E-10 -0.9999989 -1.998756E-07
vn -1.36586E-10 -0.9999989 -2.002729E-07
vn -1.360442E-10 -0.9999989 -1.994784E-07

vt 1 2.384186E-07
vt 1.192093E-07 1
vt 1 1
vt 1.788139E-07 5.960464E-07

g floor_3x3m_3_10399_1328
usemtl floor_3x3m_3_10399_1328
usemap floor_3x3m_3_10399_1328
f 1/1/1 3/3/3 2/2/2
f 2/2/2 4/4/4 1/1/1
