#floor_1x4m_8964_156.obj

v 4.000005 -5.537758E-07 -7.49862E-06
v 4.787294E-06 -1.129223E-07 0.9999859
v 4.000005 -5.537758E-07 0.9999869
v 4.844255E-06 -1.129223E-07 -8.573482E-06

vn -4.099516E-08 -0.9999995 -1.258905E-07
vn -4.044458E-08 -0.9999995 -1.513127E-07
vn -4.111995E-08 -0.9999995 -1.201284E-07
vn -4.031978E-08 -0.9999995 -1.570748E-07

vt -0.333252 0.333252
vt 1 -2.980232E-07
vt -0.333252 0
vt 1 0.333252

g floor_1x4m_8964_156
usemtl floor_1x4m_8964_156
usemap floor_1x4m_8964_156
f 1/1/1 3/3/3 2/2/2
f 2/2/2 4/4/4 1/1/1
