#floor_3x3m_13_10074_512.obj

v 3 -5.352581E-06 3.000009
v -4.27312E-07 -4.827516E-06 1.151275E-05
v -4.171513E-07 -5.35258E-06 3.000011
v 3 -5.046249E-06 1.213942E-05

vn -1.998757E-07 -0.9999997 -4.757705E-13
vn -1.998757E-07 -0.9999997 -4.757704E-13
vn -2.002729E-07 -0.9999997 -4.767153E-13
vn -1.994784E-07 -0.9999997 -4.748255E-13

vt 1 2.384186E-07
vt 1.192093E-07 1
vt 1 1
vt 1.788139E-07 5.960464E-07

g floor_3x3m_13_10074_512
usemtl floor_3x3m_13_10074_512
usemap floor_3x3m_13_10074_512
f 1/1/1 3/3/3 2/2/2
f 2/2/2 4/4/4 1/1/1
