#floor_1x1m_B_1_9189_570.obj

v 1.000004 1.595041E-07 4.975676E-06
v 1.193522E-06 -6.092269E-08 1.000005
v 1.000003 -6.092269E-08 1.000005
v 2.956534E-06 1.595041E-07 4.786823E-06

vn -1.614907E-07 -0.9999993 -3.497579E-09
vn -1.614907E-07 -0.9999993 -3.497579E-09
vn -1.513603E-07 -0.9999993 -3.278173E-09
vn -1.716211E-07 -0.9999993 -3.716984E-09

vt 0 0.333252
vt 0.3334961 0.6665039
vt 0.3334961 0.333252
vt 0 0.6665039

g floor_1x1m_B_1_9189_570
usemtl floor_1x1m_B_1_9189_570
usemap floor_1x1m_B_1_9189_570
f 1/1/1 3/3/3 2/2/2
f 2/2/2 4/4/4 1/1/1
