#floor_3x3m_43_10787_134.obj

v 3.000005 -5.693448E-06 3.000005
v 4.518084E-06 -4.949652E-06 8.452616E-06
v 4.528245E-06 -5.693448E-06 3.000008
v 3.000005 -4.949652E-06 9.07928E-06

vn -1.998757E-07 -0.9999997 -4.757705E-13
vn -1.998757E-07 -0.9999997 -4.757704E-13
vn -2.002729E-07 -0.9999997 -4.767153E-13
vn -1.994784E-07 -0.9999997 -4.748255E-13

vt 1 2.384186E-07
vt 1.192093E-07 1
vt 1 1
vt 1.788139E-07 5.960464E-07

g floor_3x3m_43_10787_134
usemtl floor_3x3m_43_10787_134
usemap floor_3x3m_43_10787_134
f 1/1/1 3/3/3 2/2/2
f 2/2/2 4/4/4 1/1/1
