#floor_1x1m_11066_268.obj

v 1.000014 3.412134E-08 8.176095E-06
v 1.597121E-05 -3.195316E-07 1.000008
v 1.000011 -3.195316E-07 1.000008
v 1.299744E-05 3.412132E-08 7.748456E-06

vn -2.052338E-07 -0.9999993 1.583501E-09
vn -2.052338E-07 -0.9999993 1.583501E-09
vn -1.951013E-07 -0.9999993 1.505323E-09
vn -2.153663E-07 -0.9999993 1.661679E-09

vt 0 0.6665039
vt 0.3334961 1
vt 0.3334961 0.6665039
vt 0 1

g floor_1x1m_11066_268
usemtl floor_1x1m_11066_268
usemap floor_1x1m_11066_268
f 1/1/1 3/3/3 2/2/2
f 2/2/2 4/4/4 1/1/1
