#floor_1x1m_C_9915_438.obj

v 1.000012 1.595041E-07 6.112401E-06
v 8.845253E-06 -6.092269E-08 1.000006
v 1.00001 -6.092269E-08 1.000006
v 1.061781E-05 1.595041E-07 5.923548E-06

vn -1.614907E-07 -0.9999993 -3.497579E-09
vn -1.614907E-07 -0.9999993 -3.497579E-09
vn -1.513603E-07 -0.9999993 -3.278173E-09
vn -1.716211E-07 -0.9999993 -3.716984E-09

vt 0 -5.835295E-05
vt 0.3334961 0.333252
vt 0.3334961 -5.829334E-05
vt 0 0.333252

g floor_1x1m_C_9915_438
usemtl floor_1x1m_C_9915_438
usemap floor_1x1m_C_9915_438
f 1/1/1 3/3/3 2/2/2
f 2/2/2 4/4/4 1/1/1
