#floor_3x3m_13_10269_310.obj

v 3.000002 -5.220031E-06 3.000001
v 3.293992E-06 -4.689884E-06 5.903743E-06
v 1.530953E-06 -5.22003E-06 3.000006
v 3.000004 -4.689884E-06 5.885543E-06

vn -1.998288E-07 -0.9999993 -4.327908E-09
vn -1.998288E-07 -0.9999993 -4.327908E-09
vn -2.00226E-07 -0.9999993 -4.336509E-09
vn -1.994317E-07 -0.9999993 -4.319307E-09

vt 1 2.384186E-07
vt 1.192093E-07 1
vt 1 1
vt 1.788139E-07 5.960464E-07

g floor_3x3m_13_10269_310
usemtl floor_3x3m_13_10269_310
usemap floor_3x3m_13_10269_310
f 1/1/1 3/3/3 2/2/2
f 2/2/2 4/4/4 1/1/1
