#floor_3x3m_41_11166_410.obj

v 2.999996 -5.73317E-06 2.999993
v -3.234143E-06 -4.994614E-06 -3.076307E-06
v -3.207051E-06 -5.73317E-06 2.999998
v 2.999997 -4.994614E-06 -2.872701E-06

vn 4.183582E-09 -0.9999996 1.99832E-07
vn 4.183582E-09 -0.9999996 1.998319E-07
vn 4.191897E-09 -0.9999996 2.002291E-07
vn 4.175268E-09 -0.9999996 1.994348E-07

vt 1 2.384186E-07
vt 1.192093E-07 1
vt 1 1
vt 1.788139E-07 5.960464E-07

g floor_3x3m_41_11166_410
usemtl floor_3x3m_41_11166_410
usemap floor_3x3m_41_11166_410
f 1/1/1 3/3/3 2/2/2
f 2/2/2 4/4/4 1/1/1
