#floor_3x3m_12_10776_184.obj

v 3 -5.375353E-06 3
v -5.832266E-07 -4.910441E-06 4.111591E-06
v -4.159398E-07 -5.375353E-06 3.000005
v 3 -4.910441E-06 3.774438E-06

vn -1.998697E-07 -0.9999993 1.542114E-09
vn -1.998697E-07 -0.9999993 1.542114E-09
vn -2.002669E-07 -0.9999993 1.545179E-09
vn -1.994725E-07 -0.9999993 1.539049E-09

vt 1 2.384186E-07
vt 1.192093E-07 1
vt 1 1
vt 1.788139E-07 5.960464E-07

g floor_3x3m_12_10776_184
usemtl floor_3x3m_12_10776_184
usemap floor_3x3m_12_10776_184
f 1/1/1 3/3/3 2/2/2
f 2/2/2 4/4/4 1/1/1
