#floor_3x3m_19_10606_130.obj

v 2.999997 -5.518597E-06 3
v -3.517901E-06 -5.037504E-06 3.720258E-06
v -3.81922E-06 -5.518597E-06 3.000002
v 2.999997 -5.037503E-06 4.650658E-06

vn 1.998682E-07 -0.9999991 1.728843E-09
vn 1.998682E-07 -0.9999991 1.728842E-09
vn 2.002654E-07 -0.9999991 1.732278E-09
vn 1.99471E-07 -0.9999991 1.725406E-09

vt 1 2.384186E-07
vt 1.192093E-07 1
vt 1 1
vt 1.788139E-07 5.960464E-07

g floor_3x3m_19_10606_130
usemtl floor_3x3m_19_10606_130
usemap floor_3x3m_19_10606_130
f 1/1/1 3/3/3 2/2/2
f 2/2/2 4/4/4 1/1/1
