#floor_3x3m_11_9472_45.obj

v 3.000037 -5.893273E-06 3.000021
v 3.48144E-05 -5.22481E-06 2.331137E-05
v 3.517589E-05 -5.893273E-06 3.000026
v 3.000037 -5.22481E-06 2.231357E-05

vn -1.363151E-10 -0.9999989 -1.998757E-07
vn -1.363151E-10 -0.9999989 -1.998756E-07
vn -1.36586E-10 -0.9999989 -2.002729E-07
vn -1.360442E-10 -0.9999989 -1.994784E-07

vt 1 2.384186E-07
vt 1.192093E-07 1
vt 1 1
vt 1.788139E-07 5.960464E-07

g floor_3x3m_11_9472_45
usemtl floor_3x3m_11_9472_45
usemap floor_3x3m_11_9472_45
f 1/1/1 3/3/3 2/2/2
f 2/2/2 4/4/4 1/1/1
