#floor_1x1m_C_10400_420.obj

v 0.9999998 -1.027095E-07 -3.828516E-07
v 4.93146E-07 -5.135477E-07 0.9999996
v 1 -5.135477E-07 0.9999996
v 2.03522E-07 -1.027095E-07 -2.980457E-07

vn -1.615285E-07 -1 1.889666E-10
vn -1.615285E-07 -1 1.889666E-10
vn -1.513957E-07 -1 1.771126E-10
vn -1.716613E-07 -1 2.008206E-10

vt 0 -5.835295E-05
vt 0.3334961 0.333252
vt 0.3334961 -5.829334E-05
vt 0 0.333252

g floor_1x1m_C_10400_420
usemtl floor_1x1m_C_10400_420
usemap floor_1x1m_C_10400_420
f 1/1/1 3/3/3 2/2/2
f 2/2/2 4/4/4 1/1/1
