#floor_1x4m_1_11129_406.obj

v 4.000005 -6.092269E-08 -4.770735E-06
v 4.979573E-06 -6.092269E-08 0.9999886
v 4.000005 -2.813494E-07 0.9999896
v 5.146722E-06 1.595041E-07 -5.845597E-06

vn -4.099516E-08 -0.9999995 -1.258905E-07
vn -4.044458E-08 -0.9999995 -1.513127E-07
vn -4.111995E-08 -0.9999995 -1.201284E-07
vn -4.031978E-08 -0.9999995 -1.570748E-07

vt -0.333252 0.333252
vt 1 -2.980232E-07
vt -0.333252 0
vt 1 0.333252

g floor_1x4m_1_11129_406
usemtl floor_1x4m_1_11129_406
usemap floor_1x4m_1_11129_406
f 1/1/1 3/3/3 2/2/2
f 2/2/2 4/4/4 1/1/1
