#floor_3x3m_7_10613_1324.obj

v 3.000031 -5.758467E-06 3.00004
v 2.821408E-05 -5.090003E-06 4.225926E-05
v 2.857557E-05 -5.758467E-06 3.000044
v 3.00003 -5.090003E-06 4.126146E-05

vn -1.363151E-10 -0.9999989 -1.998757E-07
vn -1.363151E-10 -0.9999989 -1.998756E-07
vn -1.36586E-10 -0.9999989 -2.002729E-07
vn -1.360442E-10 -0.9999989 -1.994784E-07

vt 1 2.384186E-07
vt 1.192093E-07 1
vt 1 1
vt 1.788139E-07 5.960464E-07

g floor_3x3m_7_10613_1324
usemtl floor_3x3m_7_10613_1324
usemap floor_3x3m_7_10613_1324
f 1/1/1 3/3/3 2/2/2
f 2/2/2 4/4/4 1/1/1
