#floor_1x3m_1_19112_46.obj

v 3.000001 -4.713572E-09 1.06629E-06
v -1.163079E-07 -3.769322E-07 0.9999952
v 3.000001 -3.769322E-07 0.9999958
v 6.219603E-07 -4.713574E-09 5.1001E-07

vn 3.944326E-07 -1 -8.658413E-13
vn 3.951364E-07 -1 -8.673933E-13
vn 3.941884E-07 -1 -8.653027E-13
vn 3.953805E-07 -1 -8.679317E-13

vt 1.788139E-07 5.960464E-07
vt 0.333252 1
vt 0.333252 1.788139E-07
vt 1.192093E-07 1

g floor_1x3m_1_19112_46
usemtl floor_1x3m_1_19112_46
usemap floor_1x3m_1_19112_46
f 1/1/1 3/3/3 2/2/2
f 2/2/2 4/4/4 1/1/1
