#floor_3x3m_1_9168_464.obj

v 3.000003 -5.352581E-06 3.000007
v 2.83717E-06 -4.827516E-06 9.893014E-06
v 2.847331E-06 -5.352581E-06 3.00001
v 3.000003 -5.046249E-06 1.051968E-05

vn -1.998757E-07 -0.9999997 -4.757705E-13
vn -1.998757E-07 -0.9999997 -4.757704E-13
vn -2.002729E-07 -0.9999997 -4.767153E-13
vn -1.994784E-07 -0.9999997 -4.748255E-13

vt 1 2.384186E-07
vt 1.192093E-07 1
vt 1 1
vt 1.788139E-07 5.960464E-07

g floor_3x3m_1_9168_464
usemtl floor_3x3m_1_9168_464
usemap floor_3x3m_1_9168_464
f 1/1/1 3/3/3 2/2/2
f 2/2/2 4/4/4 1/1/1
