#floor_3x3m_10_10490_178.obj

v 3.000005 -5.319734E-06 2.999995
v 3.738595E-06 -4.7986E-06 -1.691179E-06
v 3.359705E-06 -5.319733E-06 3
v 3.000005 -5.016022E-06 -1.946575E-06

vn 3.528426E-09 -0.9999988 -1.998445E-07
vn 3.528426E-09 -0.9999988 -1.998445E-07
vn 3.535439E-09 -0.9999988 -2.002417E-07
vn 3.521414E-09 -0.9999988 -1.994474E-07

vt 1 2.384186E-07
vt 1.192093E-07 1
vt 1 1
vt 1.788139E-07 5.960464E-07

g floor_3x3m_10_10490_178
usemtl floor_3x3m_10_10490_178
usemap floor_3x3m_10_10490_178
f 1/1/1 3/3/3 2/2/2
f 2/2/2 4/4/4 1/1/1
