#floor_3x3m_4_9052_152.obj

v 3.000012 -5.479535E-06 2.999997
v 1.125677E-05 -4.972047E-06 7.672905E-07
v 1.216982E-05 -5.479534E-06 3.000002
v 3.000011 -4.972047E-06 9.232796E-07

vn -5.057291E-09 -0.9999996 1.998117E-07
vn -5.057291E-09 -0.9999996 1.998117E-07
vn -5.067342E-09 -0.9999996 2.002088E-07
vn -5.04724E-09 -0.9999996 1.994146E-07

vt 1 2.384186E-07
vt 1.192093E-07 1
vt 1 1
vt 1.788139E-07 5.960464E-07

g floor_3x3m_4_9052_152
usemtl floor_3x3m_4_9052_152
usemap floor_3x3m_4_9052_152
f 1/1/1 3/3/3 2/2/2
f 2/2/2 4/4/4 1/1/1
