#floor_3x3m_11_11349_520.obj

v 3.000004 -5.319733E-06 2.999997
v 2.372811E-06 -4.7986E-06 6.688509E-07
v 1.986244E-06 -5.319733E-06 3.000002
v 3.000003 -5.016022E-06 4.134546E-07

vn 3.528426E-09 -0.9999988 -1.998445E-07
vn 3.528426E-09 -0.9999988 -1.998445E-07
vn 3.535439E-09 -0.9999988 -2.002417E-07
vn 3.521414E-09 -0.9999988 -1.994474E-07

vt 1 2.384186E-07
vt 1.192093E-07 1
vt 1 1
vt 1.788139E-07 5.960464E-07

g floor_3x3m_11_11349_520
usemtl floor_3x3m_11_11349_520
usemap floor_3x3m_11_11349_520
f 1/1/1 3/3/3 2/2/2
f 2/2/2 4/4/4 1/1/1
