#floor_3x3m_1_8818_951.obj

v 3.000008 -5.418569E-06 2.999997
v 7.856745E-06 -4.911082E-06 1.178015E-06
v 8.769803E-06 -5.418569E-06 3.000002
v 3.000008 -4.911082E-06 1.334004E-06

vn -5.057291E-09 -0.9999996 1.998117E-07
vn -5.057291E-09 -0.9999996 1.998117E-07
vn -5.067342E-09 -0.9999996 2.002088E-07
vn -5.04724E-09 -0.9999996 1.994146E-07

vt 1 2.384186E-07
vt 1.192093E-07 1
vt 1 1
vt 1.788139E-07 5.960464E-07

g floor_3x3m_1_8818_951
usemtl floor_3x3m_1_8818_951
usemap floor_3x3m_1_8818_951
f 1/1/1 3/3/3 2/2/2
f 2/2/2 4/4/4 1/1/1
