#floor_3x3m_11_10721_204.obj

v 2.999995 -5.479534E-06 3.000001
v -6.126128E-06 -4.972047E-06 5.83167E-06
v -6.085837E-06 -5.479534E-06 3.000006
v 2.999995 -4.972047E-06 4.26367E-06

vn -5.057291E-09 -0.9999996 1.998117E-07
vn -5.057291E-09 -0.9999996 1.998117E-07
vn -5.067342E-09 -0.9999996 2.002088E-07
vn -5.04724E-09 -0.9999996 1.994146E-07

vt 1 2.384186E-07
vt 1.192093E-07 1
vt 1 1
vt 1.788139E-07 5.960464E-07

g floor_3x3m_11_10721_204
usemtl floor_3x3m_11_10721_204
usemap floor_3x3m_11_10721_204
f 1/1/1 3/3/3 2/2/2
f 2/2/2 4/4/4 1/1/1
