#floor_3x3m_43_10013_418.obj

v 2.999997 -5.66835E-06 2.999993
v -4.133101E-06 -4.924554E-06 -3.097023E-06
v -5.3009E-06 -5.66835E-06 2.999998
v 2.999996 -4.924554E-06 -2.553862E-06

vn 3.168017E-09 -0.9999996 1.998506E-07
vn 3.168017E-09 -0.9999996 1.998505E-07
vn 3.174313E-09 -0.9999996 2.002477E-07
vn 3.16172E-09 -0.9999996 1.994534E-07

vt 1 2.384186E-07
vt 1.192093E-07 1
vt 1 1
vt 1.788139E-07 5.960464E-07

g floor_3x3m_43_10013_418
usemtl floor_3x3m_43_10013_418
usemap floor_3x3m_43_10013_418
f 1/1/1 3/3/3 2/2/2
f 2/2/2 4/4/4 1/1/1
