#floor_3x3m_8984_977.obj

v 3.000009 -5.375353E-06 3.000008
v 8.435151E-06 -4.910441E-06 1.181089E-05
v 1.098655E-05 -5.375353E-06 3.000013
v 3.000006 -4.910441E-06 1.304475E-05

vn -1.998697E-07 -0.9999993 1.542115E-09
vn -1.998697E-07 -0.9999993 1.542115E-09
vn -2.002669E-07 -0.9999993 1.54518E-09
vn -1.994725E-07 -0.9999993 1.53905E-09

vt 1 2.384186E-07
vt 1.192093E-07 1
vt 1 1
vt 1.788139E-07 5.960464E-07

g floor_3x3m_8984_977
usemtl floor_3x3m_8984_977
usemap floor_3x3m_8984_977
f 1/1/1 3/3/3 2/2/2
f 2/2/2 4/4/4 1/1/1
