#floor_3x3m_32_19596_72.obj

v 2.999998 -5.371439E-06 2.999997
v -3.109817E-07 -5.084066E-06 4.063477E-07
v -8.672582E-07 -5.371439E-06 3
v 2.999999 -5.084066E-06 9.626241E-07

vn 1.998757E-07 -1 -4.474291E-13
vn 1.998757E-07 -1 -4.47429E-13
vn 2.002729E-07 -1 -4.483051E-13
vn 1.994785E-07 -1 -4.46553E-13

vt 1 2.384186E-07
vt 1.192093E-07 1
vt 1 1
vt 1.788139E-07 5.960464E-07

g floor_3x3m_32_19596_72
usemtl floor_3x3m_32_19596_72
usemap floor_3x3m_32_19596_72
f 1/1/1 3/3/3 2/2/2
f 2/2/2 4/4/4 1/1/1
