#floor_1x3m_9095_319.obj

v 3.000011 -1.129222E-07 2.585901E-06
v 1.033453E-05 0.04999973 2.601916E-06
v 1.033453E-05 -1.129222E-07 2.604102E-06
v 3.000011 0.04999973 2.583716E-06
v 3.000013 -5.100645E-07 0.9999979
v 1.199251E-05 0.04999933 0.9999979
v 3.000013 0.04999933 0.9999979
v 1.199251E-05 -5.100645E-07 0.9999979
v 1.033453E-05 -1.129222E-07 2.604102E-06
v 1.199251E-05 0.04999933 0.9999979
v 1.199251E-05 -5.100645E-07 0.9999979
v 1.033453E-05 0.04999973 2.601916E-06
v 3.000011 0.04999973 2.583716E-06
v 3.000013 -5.100645E-07 0.9999979
v 3.000013 0.04999933 0.9999979
v 3.000011 -1.129222E-07 2.585901E-06
v 1.033453E-05 0.04999973 2.601916E-06
v 3.000013 0.04999933 0.9999979
v 1.199251E-05 0.04999933 0.9999979
v 3.000011 0.04999973 2.583716E-06

vn -0.9997655 4.371136E-08 -0.021653
vn -0.9997655 4.371136E-08 -0.021653
vn -0.9997655 4.371136E-08 -0.021653
vn -0.9997655 4.371136E-08 -0.021653
vn 0.9997655 -4.371136E-08 0.021653
vn 0.9997655 -4.371136E-08 0.021653
vn 0.9997655 -4.371136E-08 0.021653
vn 0.9997655 -4.371136E-08 0.021653
vn -0.02165272 0 0.9997656
vn -0.02165272 0 0.9997656
vn -0.02165272 0 0.9997656
vn -0.02165272 0 0.9997656
vn 0.02165272 0 -0.9997656
vn 0.02165272 0 -0.9997656
vn 0.02165272 0 -0.9997656
vn 0.02165272 0 -0.9997656
vn 3.964797E-07 0.9999993 8.586988E-09
vn 3.964797E-07 0.9999993 8.586988E-09
vn 3.964796E-07 0.9999993 8.586986E-09
vn 3.964796E-07 0.9999993 8.586986E-09

vt 1.788139E-07 5.960464E-07
vt -0.0166626 1
vt 1.192093E-07 1
vt -0.0166626 2.980232E-07
vt 1 1.192093E-07
vt 1.016602 1
vt 1.016602 -1.788139E-07
vt 1 1
vt 1.192093E-07 1
vt 0.333252 1.016602
vt 0.333252 1
vt 1.192093E-07 1.016602
vt -1.788139E-07 -0.0166626
vt 0.333252 1.788139E-07
vt 0.333252 -0.0166626
vt 1.788139E-07 5.960464E-07
vt -1.788139E-07 1.192093E-07
vt 0.333252 1
vt 0.333252 1.788139E-07
vt -2.384186E-07 1

g floor_1x3m_9095_319
usemtl floor_1x3m_9095_319
usemap floor_1x3m_9095_319
f 1/1/1 3/3/3 2/2/2
f 2/2/2 4/4/4 1/1/1
f 5/5/5 7/7/7 6/6/6
f 6/6/6 8/8/8 5/5/5
f 9/9/9 11/11/11 10/10/10
f 10/10/10 12/12/12 9/9/9
f 13/13/13 15/15/15 14/14/14
f 14/14/14 16/16/16 13/13/13
f 17/17/17 19/19/19 18/18/18
f 18/18/18 20/20/20 17/17/17
