#floor_3x3m_16_9963_40.obj

v 3.00003 -5.045996E-06 4.131004E-05
v 2.80975E-05 0.0499949 4.230783E-05
v 2.80975E-05 -5.045996E-06 4.230783E-05
v 3.00003 0.0499949 4.131004E-05
v 3.00003 -5.714459E-06 3.00004
v 2.845899E-05 0.04999446 3.000044
v 3.00003 0.04999423 3.00004
v 2.845899E-05 -5.714459E-06 3.000044
v 2.845899E-05 -5.714459E-06 3.000044
v 2.80975E-05 0.0499949 4.230783E-05
v 2.845899E-05 0.04999446 3.000044
v 2.80975E-05 -5.045996E-06 4.230783E-05
v 3.00003 0.04999423 3.00004
v 3.00003 -5.045996E-06 4.131004E-05
v 3.00003 -5.714459E-06 3.00004
v 3.00003 0.0499949 4.131004E-05
v 2.845899E-05 0.04999446 3.000044
v 3.00003 0.0499949 4.131004E-05
v 3.00003 0.04999423 3.00004
v 2.80975E-05 0.0499949 4.230783E-05

vn -0.000681999 4.371134E-08 -0.9999998
vn -0.000681999 4.371134E-08 -0.9999998
vn -0.000681999 4.371134E-08 -0.9999998
vn -0.000681999 4.371134E-08 -0.9999998
vn 0.0006836266 -4.371134E-08 0.9999998
vn 0.0006836266 -4.371134E-08 0.9999998
vn 0.0006836266 -4.371134E-08 0.9999998
vn 0.0006836266 -4.371134E-08 0.9999998
vn -0.9999998 1.694064E-21 0.0006817484
vn -0.9999998 1.694064E-21 0.0006817484
vn -0.9999998 1.694064E-21 0.0006817484
vn -0.9999998 1.694064E-21 0.0006817484
vn 0.9999998 -1.694064E-21 -0.0006817484
vn 0.9999998 -1.694064E-21 -0.0006817484
vn 0.9999998 -1.694064E-21 -0.0006817484
vn 0.9999998 -1.694064E-21 -0.0006817484
vn 1.371281E-10 0.9999989 2.010677E-07
vn 1.371281E-10 0.9999989 2.010677E-07
vn 1.371282E-10 0.9999989 2.010679E-07
vn 1.37128E-10 0.9999989 2.010676E-07

vt 1.788139E-07 5.960464E-07
vt -0.0166626 1
vt 1.192093E-07 1
vt -0.0166626 2.980232E-07
vt 1 2.384186E-07
vt 1.016602 1
vt 1.016602 -5.960464E-08
vt 1 1
vt 1 1
vt 1.192093E-07 1.016602
vt 1 1.016602
vt 1.192093E-07 1
vt 1 -0.0166626
vt 1.788139E-07 5.960464E-07
vt 1 2.384186E-07
vt -1.788139E-07 -0.0166626
vt 1 1.788139E-07
vt -2.384186E-07 1
vt 1 1
vt -1.788139E-07 1.192093E-07

g floor_3x3m_16_9963_40
usemtl floor_3x3m_16_9963_40
usemap floor_3x3m_16_9963_40
f 1/1/1 3/3/3 2/2/2
f 2/2/2 4/4/4 1/1/1
f 5/5/5 7/7/7 6/6/6
f 6/6/6 8/8/8 5/5/5
f 9/9/9 11/11/11 10/10/10
f 10/10/10 12/12/12 9/9/9
f 13/13/13 15/15/15 14/14/14
f 14/14/14 16/16/16 13/13/13
f 17/17/17 19/19/19 18/18/18
f 18/18/18 20/20/20 17/17/17
