#foundation_3m_13_10911_375.obj

v -1.290306E-05 -1.498657E-08 -1.261049E-05
v -1.290306E-05 0.4999999 -1.261049E-05
v -1.11067E-05 0.4999999 2.999988
v -1.11067E-05 -1.498657E-08 2.999988

vn -0.9996799 2.96079E-15 -0.02530277
vn -0.9996799 2.96079E-15 -0.02530277
vn -0.9996799 2.96079E-15 -0.02530277
vn -0.9996799 2.96079E-15 -0.02530277

vt 0 0
vt 0 0.166626
vt 1 0.166626
vt 1 5.960464E-08

g foundation_3m_13_10911_375
usemtl foundation_3m_13_10911_375
usemap foundation_3m_13_10911_375
f 1/1/1 3/3/3 2/2/2
f 1/1/1 4/4/4 3/3/3
