#foundation_3m_13_10427_329.obj

v 2.382288E-06 -1.498656E-08 -1.815582E-05
v 2.382288E-06 0.4999999 -1.815582E-05
v 2.252621E-06 0.4999999 2.999982
v 2.252621E-06 -1.498656E-08 2.999982

vn -0.9996799 2.96079E-15 -0.02530277
vn -0.9996799 2.96079E-15 -0.02530277
vn -0.9996799 2.96079E-15 -0.02530277
vn -0.9996799 2.96079E-15 -0.02530277

vt 0 0
vt 0 0.166626
vt 1 0.166626
vt 1 5.960464E-08

g foundation_3m_13_10427_329
usemtl foundation_3m_13_10427_329
usemap foundation_3m_13_10427_329
f 1/1/1 3/3/3 2/2/2
f 1/1/1 4/4/4 3/3/3
