#foundation_porch_cornerL_9821_67.obj

v -0.2499975 1.161478E-07 3.000003
v -0.2499993 0.4999999 -0.249997
v -0.2499975 0.5000001 3.000003
v -0.2499993 -2.591428E-08 -0.249997
v 3.000001 3.998332E-07 -0.2499962
v 3.000003 0.5000005 3.000004
v 3.000001 0.5000004 -0.2499962
v 3.000003 5.418952E-07 3.000004
v -0.2499993 -2.591428E-08 -0.249997
v 3.000001 0.5000004 -0.2499962
v -0.2499993 0.4999999 -0.249997
v 3.000001 3.998332E-07 -0.2499962

vn -0.0253023 5.329069E-15 0.9996798
vn -0.0253023 5.329069E-15 0.9996798
vn -0.0253023 5.329069E-15 0.9996798
vn -0.0253023 5.329069E-15 0.9996798
vn 0.0253023 -5.329069E-15 -0.9996798
vn 0.0253023 -5.329069E-15 -0.9996798
vn 0.0253023 -5.329069E-15 -0.9996798
vn 0.0253023 -5.329069E-15 -0.9996798
vn -0.9996798 4.371137E-08 -0.02530253
vn -0.9996798 4.371137E-08 -0.02530253
vn -0.9996798 4.371137E-08 -0.02530253
vn -0.9996798 4.371137E-08 -0.02530253

vt 0 0
vt -1.083008 0.166626
vt 0 0.166626
vt -1.083008 -1.192093E-07
vt 2.083984 1.788139E-07
vt 1 0.166626
vt 2.083984 0.166626
vt 1 0
vt -1.083008 -1.192093E-07
vt -2.166016 0.166626
vt -1.083008 0.166626
vt -2.166016 -1.192093E-07

g foundation_porch_cornerL_9821_67
usemtl foundation_porch_cornerL_9821_67
usemap foundation_porch_cornerL_9821_67
f 1/1/1 3/3/3 2/2/2
f 2/2/2 4/4/4 1/1/1
f 5/5/5 7/7/7 6/6/6
f 6/6/6 8/8/8 5/5/5
f 9/9/9 11/11/11 10/10/10
f 10/10/10 12/12/12 9/9/9
