#foundation_porch_cornerL_19580_336.obj

v -0.2500009 1.828877E-07 3
v -0.2499997 0.5 -0.2499997
v -0.2500009 0.5000001 3
v -0.2499997 -1.207984E-08 -0.2499997
v 3 4.430534E-07 -0.2499994
v 2.999999 0.5000004 3
v 3 0.5000004 -0.2499994
v 2.999999 5.214031E-07 3
v -0.2499997 -1.207984E-08 -0.2499997
v 3 0.5000004 -0.2499994
v -0.2499997 0.5 -0.2499997
v 3 4.430534E-07 -0.2499994

vn -2.205372E-06 -1.24345E-14 -1
vn -2.205372E-06 -1.24345E-14 -1
vn -2.205372E-06 -1.24345E-14 -1
vn -2.205372E-06 -1.24345E-14 -1
vn 2.205372E-06 1.24345E-14 1
vn 2.205372E-06 1.24345E-14 1
vn 2.205372E-06 1.24345E-14 1
vn 2.205372E-06 1.24345E-14 1
vn 1 4.371139E-08 -2.205372E-06
vn 1 4.371139E-08 -2.205372E-06
vn 1 4.371139E-08 -2.205372E-06
vn 1 4.371139E-08 -2.205372E-06

vt 0 0
vt -1.083008 0.166626
vt 0 0.166626
vt -1.083008 -1.192093E-07
vt 2.083984 1.788139E-07
vt 1 0.166626
vt 2.083984 0.166626
vt 1 0
vt -1.083008 -1.192093E-07
vt -2.166016 0.166626
vt -1.083008 0.166626
vt -2.166016 -1.192093E-07

g foundation_porch_cornerL_19580_336
usemtl foundation_porch_cornerL_19580_336
usemap foundation_porch_cornerL_19580_336
f 1/1/1 3/3/3 2/2/2
f 2/2/2 4/4/4 1/1/1
f 5/5/5 7/7/7 6/6/6
f 6/6/6 8/8/8 5/5/5
f 9/9/9 11/11/11 10/10/10
f 10/10/10 12/12/12 9/9/9
