#foundation_3m_8_19289_337.obj

v -9.245638E-07 -8.763232E-09 -9.329431E-06
v -9.245638E-07 0.5 -9.351287E-06
v -2.663235E-07 0.5000001 2.999991
v -2.663235E-07 1.106281E-07 2.999991

vn -1 -3.065405E-14 9.179114E-06
vn -1 -3.065405E-14 9.179114E-06
vn -1 -3.065405E-14 9.179114E-06
vn -1 -3.065405E-14 9.179114E-06

vt 0 0
vt 0 0.166626
vt 1 0.166626
vt 1 5.960464E-08

g foundation_3m_8_19289_337
usemtl foundation_3m_8_19289_337
usemap foundation_3m_8_19289_337
f 1/1/1 3/3/3 2/2/2
f 1/1/1 4/4/4 3/3/3
