#foundation_porch_cornerL_10407_60.obj

v -0.2500019 1.161469E-07 2.999983
v -0.2500002 0.4999999 -0.2500138
v -0.2500019 0.5000001 2.999983
v -0.2500002 -2.591502E-08 -0.2500138
v 3 3.998325E-07 -0.2500115
v 2.999999 0.5000005 2.999985
v 3 0.5000004 -0.2500115
v 2.999999 5.418945E-07 2.999985
v -0.2500002 -2.591502E-08 -0.2500138
v 3 0.5000004 -0.2500115
v -0.2500002 0.4999999 -0.2500138
v 3 3.998325E-07 -0.2500115

vn -0.0253023 5.329069E-15 0.9996798
vn -0.0253023 5.329069E-15 0.9996798
vn -0.0253023 5.329069E-15 0.9996798
vn -0.0253023 5.329069E-15 0.9996798
vn 0.0253023 -5.329069E-15 -0.9996798
vn 0.0253023 -5.329069E-15 -0.9996798
vn 0.0253023 -5.329069E-15 -0.9996798
vn 0.0253023 -5.329069E-15 -0.9996798
vn -0.9996798 4.371137E-08 -0.02530253
vn -0.9996798 4.371137E-08 -0.02530253
vn -0.9996798 4.371137E-08 -0.02530253
vn -0.9996798 4.371137E-08 -0.02530253

vt 0 0
vt -1.083008 0.166626
vt 0 0.166626
vt -1.083008 -1.192093E-07
vt 2.083984 1.788139E-07
vt 1 0.166626
vt 2.083984 0.166626
vt 1 0
vt -1.083008 -1.192093E-07
vt -2.166016 0.166626
vt -1.083008 0.166626
vt -2.166016 -1.192093E-07

g foundation_porch_cornerL_10407_60
usemtl foundation_porch_cornerL_10407_60
usemap foundation_porch_cornerL_10407_60
f 1/1/1 3/3/3 2/2/2
f 2/2/2 4/4/4 1/1/1
f 5/5/5 7/7/7 6/6/6
f 6/6/6 8/8/8 5/5/5
f 9/9/9 11/11/11 10/10/10
f 10/10/10 12/12/12 9/9/9
