#foundation_porch_3m_8846_59.obj

v -0.2499962 7.768956E-07 2.999989
v -0.2499961 0.5000002 -1.209491E-05
v -0.2499962 0.5000007 2.999989
v -0.2499961 2.049079E-07 -1.207306E-05

vn -0.9997656 -1.776356E-15 -0.02165278
vn -0.9997656 -1.776356E-15 -0.02165278
vn -0.9997656 -1.776356E-15 -0.02165278
vn -0.9997656 -1.776356E-15 -0.02165278

vt 1 1.192093E-07
vt 0 0.166626
vt 1 0.166626
vt 0 0

g foundation_porch_3m_8846_59
usemtl foundation_porch_3m_8846_59
usemap foundation_porch_3m_8846_59
f 1/1/1 3/3/3 2/2/2
f 2/2/2 4/4/4 1/1/1
