#foundation_3m_14_9082_444.obj

v -1.195768E-05 -1.498657E-08 -1.046257E-05
v -1.195768E-05 0.4999999 -1.046257E-05
v -1.01721E-05 0.4999999 2.99999
v -1.01721E-05 -1.498657E-08 2.99999

vn -0.9996799 2.96079E-15 -0.02530277
vn -0.9996799 2.96079E-15 -0.02530277
vn -0.9996799 2.96079E-15 -0.02530277
vn -0.9996799 2.96079E-15 -0.02530277

vt 0 0
vt 0 0.166626
vt 1 0.166626
vt 1 5.960464E-08

g foundation_3m_14_9082_444
usemtl foundation_3m_14_9082_444
usemap foundation_3m_14_9082_444
f 1/1/1 3/3/3 2/2/2
f 1/1/1 4/4/4 3/3/3
