#glass_windshieldFront_8776_1777.obj

v 0.3621171 -0.1698413 0.3082432
v 2.426565E-05 -0.1613883 0.3295012
v 2.337307E-05 0.2043515 -0.2812432
v 0.5481883 0.1839375 -0.3294647
v 0.7800979 -0.2043514 0.2475654
v -0.3620694 -0.1698413 0.3082419
v -0.5481381 0.1839375 -0.3294633
v -0.7800462 -0.2043514 0.2475678
v 0.3621171 -0.1698413 0.3082432
v 2.337307E-05 0.2043515 -0.2812432
v 2.426565E-05 -0.1613883 0.3295012
v 0.5481883 0.1839375 -0.3294647
v 0.7800979 -0.2043514 0.2475654
v -0.3620694 -0.1698413 0.3082419
v -0.5481381 0.1839375 -0.3294633
v -0.7800462 -0.2043514 0.2475678

vn 0.1500302 0.8549375 0.4965596
vn 0.05707087 0.8579298 0.5105858
vn 0.05615542 0.8628115 0.5023956
vn 0.1529982 0.8579259 0.4904623
vn 0.200197 0.8468542 0.4927046
vn -0.03669122 0.8549375 0.5174304
vn -0.04093213 0.8579259 0.5121389
vn -0.08647099 0.8468542 0.524747
vn -0.1500302 -0.8549375 -0.4965596
vn -0.05615542 -0.8628115 -0.5023956
vn -0.05707087 -0.8579298 -0.5105858
vn -0.1529982 -0.8579259 -0.4904623
vn -0.200197 -0.8468542 -0.4927046
vn 0.03669122 -0.8549375 -0.5174304
vn 0.04093213 -0.8579259 -0.5121389
vn 0.08647099 -0.8468542 -0.524747

vt 0.5371094 0.03225708
vt 0.3762207 0.02610779
vt 0.3762207 0.3417969
vt 0.6201172 0.3554688
vt 0.7246094 0.0475769
vt 0.2155762 0.03225708
vt 0.1325684 0.3554688
vt 0.02827454 0.0475769
vt 0.5371094 0.03225708
vt 0.3762207 0.3417969
vt 0.3762207 0.02610779
vt 0.6201172 0.3554688
vt 0.7246094 0.0475769
vt 0.2155762 0.03225708
vt 0.1325684 0.3554688
vt 0.02827454 0.0475769

g glass_windshieldFront_8776_1777
usemtl glass_windshieldFront_8776_1777
usemap glass_windshieldFront_8776_1777
f 1/1/1 3/3/3 2/2/2
f 1/1/1 4/4/4 3/3/3
f 5/5/5 4/4/4 1/1/1
f 6/6/6 2/2/2 3/3/3
f 6/6/6 3/3/3 7/7/7
f 8/8/8 6/6/6 7/7/7
f 9/9/9 11/11/11 10/10/10
f 9/9/9 10/10/10 12/12/12
f 13/13/13 9/9/9 12/12/12
f 14/14/14 10/10/10 11/11/11
f 14/14/14 15/15/15 10/10/10
f 16/16/16 15/15/15 14/14/14
