#glass_windshieldRear_9947_1764.obj

v 0.8228229 -0.1742306 -0.1468961
v 0.5806732 0.1445187 0.2236183
v -2.649821E-06 0.174231 0.2236172
v -2.289014E-06 -0.174231 -0.2236219
v -0.8228295 -0.1742306 -0.1468971
v -0.5806794 0.1445187 0.2236174
v 0.8228229 -0.1742306 -0.1468961
v -2.289014E-06 -0.174231 -0.2236219
v -2.649821E-06 0.174231 0.2236172
v 0.5806732 0.1445187 0.2236183
v -0.8228295 -0.1742306 -0.1468971
v -0.5806794 0.1445187 0.2236174

vn 0.5233303 0.7811103 -0.3405742
vn 0.5233303 0.7811103 -0.3405742
vn 0.4930434 0.7821105 -0.3810643
vn 0.4930434 0.7821105 -0.3810643
vn 0.4614955 0.7811102 -0.4205799
vn 0.4614955 0.7811102 -0.4205799
vn -0.5233302 -0.7811103 0.3405742
vn -0.4930434 -0.7821105 0.3810644
vn -0.4930434 -0.7821105 0.3810644
vn -0.5233302 -0.7811103 0.3405742
vn -0.4614955 -0.7811102 0.4205799
vn -0.4614955 -0.7811102 0.4205799

vt 0.02680969 0.439209
vt 0.1362305 0.6591797
vt 0.3979492 0.6669922
vt 0.3979492 0.4118652
vt 0.769043 0.439209
vt 0.659668 0.6591797
vt 0.02680969 0.439209
vt 0.3979492 0.4118652
vt 0.3979492 0.6669922
vt 0.1362305 0.6591797
vt 0.769043 0.439209
vt 0.659668 0.6591797

g glass_windshieldRear_9947_1764
usemtl glass_windshieldRear_9947_1764
usemap glass_windshieldRear_9947_1764
f 1/1/1 3/3/3 2/2/2
f 1/1/1 4/4/4 3/3/3
f 5/5/5 3/3/3 4/4/4
f 5/5/5 6/6/6 3/3/3
f 7/7/7 9/9/9 8/8/8
f 7/7/7 10/10/10 9/9/9
f 11/11/11 8/8/8 9/9/9
f 11/11/11 9/9/9 12/12/12
