#glass_windshieldFront_9273_86.obj

v 0.3538203 -0.1693686 0.303224
v -0.001098766 -0.1605587 0.3233369
v -0.0004766162 0.1045667 -0.2770182
v 0.5390697 0.1867382 -0.3212488
v 0.7485839 -0.2049973 0.2452981
v -0.3619505 -0.1680495 0.3069344
v -0.5479843 0.096747 -0.3344795
v -0.7805294 -0.1996117 0.2478975
v 0.3538203 -0.1693686 0.303224
v -0.0004766162 0.1045667 -0.2770182
v -0.001098766 -0.1605587 0.3233369
v 0.5390697 0.1867382 -0.3212488
v 0.7485839 -0.2049973 0.2452981
v -0.3619505 -0.1680495 0.3069344
v -0.5479843 0.096747 -0.3344795
v -0.7805294 -0.1996117 0.2478975

vn 0.1814697 0.8803941 0.4381482
vn 0.1147261 0.9147596 0.3873647
vn 0.06742442 0.9034107 0.4234402
vn 0.1199344 0.8705702 0.4772023
vn 0.2902687 0.8383868 0.4613571
vn 0.03730219 0.9115457 0.4095016
vn 0.03441138 0.9132689 0.4058993
vn -0.008624509 0.9035652 0.4283622
vn -0.1814697 -0.8803941 -0.4381482
vn -0.06742442 -0.9034107 -0.4234402
vn -0.1147261 -0.9147596 -0.3873647
vn -0.1199344 -0.8705702 -0.4772023
vn -0.2902687 -0.8383868 -0.4613571
vn -0.03730219 -0.9115457 -0.4095016
vn -0.03441138 -0.9132689 -0.4058993
vn 0.008624509 -0.9035652 -0.4283622

vt 0.5371094 0.03225708
vt 0.3762207 0.02610779
vt 0.3762207 0.3417969
vt 0.6201172 0.3554688
vt 0.7246094 0.0475769
vt 0.2155762 0.03225708
vt 0.1325684 0.3554688
vt 0.02827454 0.0475769
vt 0.5371094 0.03225708
vt 0.3762207 0.3417969
vt 0.3762207 0.02610779
vt 0.6201172 0.3554688
vt 0.7246094 0.0475769
vt 0.2155762 0.03225708
vt 0.1325684 0.3554688
vt 0.02827454 0.0475769

g glass_windshieldFront_9273_86
usemtl glass_windshieldFront_9273_86
usemap glass_windshieldFront_9273_86
f 1/1/1 3/3/3 2/2/2
f 1/1/1 4/4/4 3/3/3
f 5/5/5 4/4/4 1/1/1
f 6/6/6 2/2/2 3/3/3
f 6/6/6 3/3/3 7/7/7
f 8/8/8 6/6/6 7/7/7
f 9/9/9 11/11/11 10/10/10
f 9/9/9 10/10/10 12/12/12
f 13/13/13 9/9/9 12/12/12
f 14/14/14 10/10/10 11/11/11
f 14/14/14 15/15/15 10/10/10
f 16/16/16 15/15/15 14/14/14
