#glass_frontL_9673_126.obj

v -0.03516947 0.2077255 -0.405422
v 0.211404 -0.1943239 -0.3044859
v 0.1032149 -0.2109405 0.4168406
v -0.07790734 0.1509374 0.1078605
v 0.0188591 -0.0836041 0.4168499
v -0.03516947 0.2077255 -0.405422
v -0.07790734 0.1509374 0.1078605
v 0.1032149 -0.2109405 0.4168406
v 0.211404 -0.1943239 -0.3044859
v 0.0188591 -0.0836041 0.4168499

vn 0.8366618 0.5377928 0.1038053
vn 0.8366618 0.5377927 0.1038053
vn 0.8334209 0.5409548 0.113036
vn 0.8359156 0.5385334 0.1059538
vn 0.8284989 0.5454971 0.1265777
vn -0.8366618 -0.5377927 -0.1038053
vn -0.8359156 -0.5385334 -0.1059539
vn -0.8334209 -0.5409547 -0.113036
vn -0.8366618 -0.5377927 -0.1038053
vn -0.8284989 -0.5454971 -0.1265777

vt 0.3928223 0.9833984
vt 0.3439941 0.7646484
vt 0.019104 0.7646484
vt 0.1628418 0.9575195
vt 0.02041626 0.8339844
vt 0.3928223 0.9833984
vt 0.1628418 0.9575195
vt 0.019104 0.7646484
vt 0.3439941 0.7646484
vt 0.02041626 0.8339844

g glass_frontL_9673_126
usemtl glass_frontL_9673_126
usemap glass_frontL_9673_126
f 1/1/1 3/3/3 2/2/2
f 1/1/1 4/4/4 3/3/3
f 4/4/4 5/5/5 3/3/3
f 6/6/6 8/8/8 7/7/7
f 6/6/6 9/9/9 8/8/8
f 7/7/7 8/8/8 10/10/10
