#glass_backR_9151_1771.obj

v 0.1218027 0.171932 -0.2110945
v 0.1417965 0.1882137 0.3608741
v -0.1417546 -0.2052599 0.4093429
v -0.1417553 -0.1943614 -0.4093092
v 0.1218027 0.171932 -0.2110945
v -0.1417553 -0.1943614 -0.4093092
v -0.1417546 -0.2052599 0.4093429
v 0.1417965 0.1882137 0.3608741

vn -0.806265 0.5831086 0.09960123
vn -0.806265 0.5831085 0.09960122
vn -0.806265 0.5831086 0.09960123
vn -0.806265 0.5831086 0.09960123
vn 0.806265 -0.5831086 -0.09960123
vn 0.806265 -0.5831086 -0.09960123
vn 0.806265 -0.5831086 -0.09960123
vn 0.806265 -0.5831085 -0.09960122

vt 0.7875977 0.965332
vt 0.5292969 0.9790039
vt 0.5053711 0.7602539
vt 0.875 0.7602539
vt 0.7875977 0.965332
vt 0.875 0.7602539
vt 0.5053711 0.7602539
vt 0.5292969 0.9790039

g glass_backR_9151_1771
usemtl glass_backR_9151_1771
usemap glass_backR_9151_1771
f 1/1/1 3/3/3 2/2/2
f 1/1/1 4/4/4 3/3/3
f 5/5/5 7/7/7 6/6/6
f 5/5/5 8/8/8 7/7/7
