#glass_windshieldFront_8930_100.obj

v 0.3538452 -0.1693685 0.3032175
v -0.001077345 -0.1605586 0.3233276
v -0.0004540521 0.1045669 -0.2770265
v 0.5390955 0.1867384 -0.3212568
v 0.7486112 -0.2049971 0.2452879
v -0.3619269 -0.1680494 0.3069251
v -0.5479607 0.09674719 -0.3344873
v -0.7805045 -0.1996115 0.2478878
v 0.3538452 -0.1693685 0.3032175
v -0.0004540521 0.1045669 -0.2770265
v -0.001077345 -0.1605586 0.3233276
v 0.5390955 0.1867384 -0.3212568
v 0.7486112 -0.2049971 0.2452879
v -0.3619269 -0.1680494 0.3069251
v -0.5479607 0.09674719 -0.3344873
v -0.7805045 -0.1996115 0.2478878

vn -0.05889359 0.8803938 0.4705704
vn -0.09179994 0.9147593 0.3934287
vn -0.1507521 0.9034104 0.4013992
vn -0.1316906 0.87057 0.4740925
vn 0.02420171 0.8383866 0.5445369
vn -0.1700434 0.9115455 0.3743903
vn -0.1707751 0.9132687 0.3698298
vn -0.219289 0.9035649 0.3680771
vn 0.05889359 -0.8803938 -0.4705704
vn 0.1507521 -0.9034104 -0.4013992
vn 0.09179994 -0.9147593 -0.3934287
vn 0.1316906 -0.87057 -0.4740925
vn -0.02420171 -0.8383866 -0.5445369
vn 0.1700434 -0.9115455 -0.3743903
vn 0.1707751 -0.9132687 -0.3698298
vn 0.219289 -0.9035649 -0.3680771

vt 0.5371094 0.03225708
vt 0.3762207 0.02610779
vt 0.3762207 0.3417969
vt 0.6201172 0.3554688
vt 0.7246094 0.0475769
vt 0.2155762 0.03225708
vt 0.1325684 0.3554688
vt 0.02827454 0.0475769
vt 0.5371094 0.03225708
vt 0.3762207 0.3417969
vt 0.3762207 0.02610779
vt 0.6201172 0.3554688
vt 0.7246094 0.0475769
vt 0.2155762 0.03225708
vt 0.1325684 0.3554688
vt 0.02827454 0.0475769

g glass_windshieldFront_8930_100
usemtl glass_windshieldFront_8930_100
usemap glass_windshieldFront_8930_100
f 1/1/1 3/3/3 2/2/2
f 1/1/1 4/4/4 3/3/3
f 5/5/5 4/4/4 1/1/1
f 6/6/6 2/2/2 3/3/3
f 6/6/6 3/3/3 7/7/7
f 8/8/8 6/6/6 7/7/7
f 9/9/9 11/11/11 10/10/10
f 9/9/9 10/10/10 12/12/12
f 13/13/13 9/9/9 12/12/12
f 14/14/14 10/10/10 11/11/11
f 14/14/14 15/15/15 10/10/10
f 16/16/16 15/15/15 14/14/14
