#glass_backL_10448_1768.obj

v -0.1217849 0.176739 -0.2111131
v 0.1417716 -0.1895543 -0.4093297
v 0.1417723 -0.200453 0.4093263
v -0.1417795 0.1930203 0.3608533
v -0.1217849 0.176739 -0.2111131
v -0.1417795 0.1930203 0.3608533
v 0.1417723 -0.200453 0.4093263
v 0.1417716 -0.1895543 -0.4093297

vn 0.4893101 0.5831085 0.6485056
vn 0.4893101 0.5831085 0.6485056
vn 0.4893101 0.5831085 0.6485056
vn 0.48931 0.5831085 0.6485054
vn -0.48931 -0.5831085 -0.6485054
vn -0.48931 -0.5831085 -0.6485054
vn -0.48931 -0.5831085 -0.6485054
vn -0.48931 -0.5831086 -0.6485054

vt 0.7875977 0.965332
vt 0.875 0.7602539
vt 0.5053711 0.7602539
vt 0.5292969 0.9790039
vt 0.7875977 0.965332
vt 0.5292969 0.9790039
vt 0.5053711 0.7602539
vt 0.875 0.7602539

g glass_backL_10448_1768
usemtl glass_backL_10448_1768
usemap glass_backL_10448_1768
f 1/1/1 3/3/3 2/2/2
f 1/1/1 4/4/4 3/3/3
f 5/5/5 7/7/7 6/6/6
f 5/5/5 8/8/8 7/7/7
