#glass_backR_10010_137.obj

v 0.1217884 0.1723897 -0.211109
v 0.14178 0.1886708 0.3608572
v -0.1417701 -0.2048024 0.4093297
v -0.1417701 -0.1939037 -0.4093257
v 0.1217884 0.1723897 -0.211109
v -0.1417701 -0.1939037 -0.4093257
v -0.1417701 -0.2048024 0.4093297
v 0.14178 0.1886708 0.3608572

vn 0.02485937 0.5831085 0.8120134
vn 0.02485937 0.5831085 0.8120133
vn 0.02485937 0.5831085 0.8120134
vn 0.02485937 0.5831084 0.8120134
vn -0.02485937 -0.5831085 -0.8120134
vn -0.02485937 -0.5831084 -0.8120134
vn -0.02485937 -0.5831085 -0.8120134
vn -0.02485937 -0.5831085 -0.8120133

vt 0.7875977 0.965332
vt 0.5292969 0.9790039
vt 0.5053711 0.7602539
vt 0.875 0.7602539
vt 0.7875977 0.965332
vt 0.875 0.7602539
vt 0.5053711 0.7602539
vt 0.5292969 0.9790039

g glass_backR_10010_137
usemtl glass_backR_10010_137
usemap glass_backR_10010_137
f 1/1/1 3/3/3 2/2/2
f 1/1/1 4/4/4 3/3/3
f 5/5/5 7/7/7 6/6/6
f 5/5/5 8/8/8 7/7/7
