#glass_windshieldRear_10700_473.obj

v 0.66315 0.05921772 -0.1700902
v 0.5864481 -0.05928521 0.1700899
v -1.866537E-05 -0.05796793 0.1664138
v -1.989346E-05 0.05921784 -0.1700902
v -0.6631898 0.05921797 -0.1700902
v -0.5864849 -0.05928579 0.1700899
v 0.66315 0.05921772 -0.1700902
v -1.989346E-05 0.05921784 -0.1700902
v -1.866537E-05 -0.05796793 0.1664138
v 0.5864481 -0.05928521 0.1700899
v -0.6631898 0.05921797 -0.1700902
v -0.5864849 -0.05928579 0.1700899

vn -0.9428914 0.3289228 -0.05258522
vn -0.9428913 0.3289228 -0.05258521
vn -0.942893 0.3289228 -0.0525572
vn -0.942893 0.3289228 -0.0525572
vn -0.9428945 0.3289228 -0.05252918
vn -0.9428944 0.3289228 -0.05252917
vn 0.9428913 -0.3289228 0.05258522
vn 0.9428928 -0.3289228 0.0525572
vn 0.942893 -0.3289228 0.0525572
vn 0.9428913 -0.3289229 0.05258522
vn 0.9428944 -0.3289228 0.05252918
vn 0.9428944 -0.3289229 0.05252918

vt 0.01934814 0.3737793
vt 0.06445313 0.5854492
vt 0.4091797 0.5834961
vt 0.4091797 0.3737793
vt 0.7993164 0.3737793
vt 0.7539063 0.5854492
vt 0.01934814 0.3737793
vt 0.4091797 0.3737793
vt 0.4091797 0.5834961
vt 0.06445313 0.5854492
vt 0.7993164 0.3737793
vt 0.7539063 0.5854492

g glass_windshieldRear_10700_473
usemtl glass_windshieldRear_10700_473
usemap glass_windshieldRear_10700_473
f 1/1/1 3/3/3 2/2/2
f 1/1/1 4/4/4 3/3/3
f 5/5/5 3/3/3 4/4/4
f 5/5/5 6/6/6 3/3/3
f 7/7/7 9/9/9 8/8/8
f 7/7/7 10/10/10 9/9/9
f 11/11/11 8/8/8 9/9/9
f 11/11/11 9/9/9 12/12/12
