#glass_door_frontL_9340_937.obj

v 0.04825615 -0.2082855 -0.4136909
v -0.0491229 0.2075781 0.09556192
v 0.04915614 -0.207966 0.4137393
v -0.04706608 0.2082853 -0.4133648
v 0.04825615 -0.2082855 -0.4136909
v -0.0491229 0.2075781 0.09556192
v -0.04706608 0.2082853 -0.4133648
v 0.04915614 -0.207966 0.4137393

vn -0.8162732 -0.2258499 0.5316857
vn -0.8152741 -0.2273523 0.5325778
vn -0.8139532 -0.2293295 0.533749
vn -0.8181167 -0.2230625 0.5300266
vn 0.8162732 0.2258499 -0.5316857
vn 0.8152741 0.2273523 -0.5325778
vn 0.8181167 0.2230625 -0.5300266
vn 0.8139532 0.2293295 -0.533749

vt 0.4414063 0.3864746
vt 0.1789551 0.605957
vt 0.01547241 0.3862305
vt 0.440918 0.6064453
vt 0.4414063 0.3864746
vt 0.1789551 0.605957
vt 0.440918 0.6064453
vt 0.01547241 0.3862305

g glass_door_frontL_9340_937
usemtl glass_door_frontL_9340_937
usemap glass_door_frontL_9340_937
f 1/1/1 3/3/3 2/2/2
f 2/2/2 4/4/4 1/1/1
f 5/5/5 7/7/7 6/6/6
f 6/6/6 8/8/8 5/5/5
