#glass_frontL_9889_470.obj

v -0.05158382 0.1809524 0.1826423
v -0.05515697 0.1890555 -0.3074802
v 0.03516195 -0.1890558 -0.3800853
v 0.03516091 -0.1890556 0.3800625
v -0.05158382 0.1809524 0.1826423
v 0.03516091 -0.1890556 0.3800625
v 0.03516195 -0.1890558 -0.3800853
v -0.05515697 0.1890555 -0.3074802

vn 0.5904334 0.2190413 -0.7767943
vn 0.5904334 0.2190413 -0.7767943
vn 0.5904334 0.2190413 -0.7767943
vn 0.5904334 0.2190413 -0.7767943
vn -0.5904334 -0.2190413 0.7767943
vn -0.5904334 -0.2190413 0.7767943
vn -0.5904334 -0.2190413 0.7767943
vn -0.5904334 -0.2190413 0.7767943

vt 0.5161133 0.8237305
vt 0.7011719 0.8305664
vt 0.7236328 0.6796875
vt 0.4372559 0.6796875
vt 0.09503174 0.8149414
vt 0.01600647 0.6708984
vt 0.3027344 0.6708984
vt 0.2800293 0.8217773

g glass_frontL_9889_470
usemtl glass_frontL_9889_470
usemap glass_frontL_9889_470
f 1/1/1 3/3/3 2/2/2
f 1/1/1 4/4/4 3/3/3
f 5/5/5 7/7/7 6/6/6
f 5/5/5 8/8/8 7/7/7
