#glass_door_front02_9961_25.obj

v 0.03188592 0.9962384 0.01974322
v 0.1147763 0.9453006 0.3423709
v 0.06333531 0.08839425 0.3437547
v 0.01473573 0.1142557 0.02093253
v 0.01247434 -0.05367654 0.02243829
v 0.05370273 -0.07843103 0.3455169
v 0.01114148 -0.8645295 0.3533601
v 0.002360358 -0.8259411 0.02916478
v 0.03188592 0.9962384 0.01974322
v 0.01473573 0.1142557 0.02093253
v 0.06333531 0.08839425 0.3437547
v 0.1147763 0.9453006 0.3423709
v 0.01247434 -0.05367654 0.02243829
v 0.002360358 -0.8259411 0.02916478
v 0.01114148 -0.8645295 0.3533601
v 0.05370273 -0.07843103 0.3455169

vn -0.9326035 0.03888766 0.3588015
vn -0.9326035 0.03888766 0.3588015
vn -0.9326035 0.03888766 0.3588015
vn -0.9326035 0.03888766 0.3588015
vn -0.9702286 0.03442347 0.239732
vn -0.9702286 0.03442347 0.239732
vn -0.9702286 0.03442347 0.239732
vn -0.9702286 0.03442347 0.239732
vn 0.9326035 -0.03888766 -0.3588015
vn 0.9326035 -0.03888766 -0.3588015
vn 0.9326035 -0.03888766 -0.3588015
vn 0.9326035 -0.03888766 -0.3588015
vn 0.9702286 -0.03442346 -0.239732
vn 0.9702286 -0.03442346 -0.239732
vn 0.9702286 -0.03442346 -0.239732
vn 0.9702286 -0.03442346 -0.239732

vt 0.9741211 0.956543
vt 0.8637695 0.956543
vt 0.8637695 0.640625
vt 0.9741211 0.640625
vt 0.9702148 0.5849609
vt 0.8598633 0.5849609
vt 0.8598633 0.3061523
vt 0.9702148 0.3061523
vt 0.9741211 0.956543
vt 0.9741211 0.640625
vt 0.8637695 0.640625
vt 0.8637695 0.956543
vt 0.9702148 0.5849609
vt 0.9702148 0.3061523
vt 0.8598633 0.3061523
vt 0.8598633 0.5849609

g glass_door_front02_9961_25
usemtl glass_door_front02_9961_25
usemap glass_door_front02_9961_25
f 1/1/1 3/3/3 2/2/2
f 1/1/1 4/4/4 3/3/3
f 5/5/5 7/7/7 6/6/6
f 5/5/5 8/8/8 7/7/7
f 9/9/9 11/11/11 10/10/10
f 9/9/9 12/12/12 11/11/11
f 13/13/13 15/15/15 14/14/14
f 13/13/13 16/16/16 15/15/15
