#glass_windshieldFront_8728_92.obj

v 0.3538153 -0.1693684 0.303185
v -0.001104447 -0.1605584 0.3232951
v -0.000480679 0.1045673 -0.2770588
v 0.5390637 0.1867386 -0.3212898
v 0.7485793 -0.2049969 0.2452561
v -0.3619547 -0.168049 0.3068912
v -0.5479922 0.09674704 -0.3345201
v -0.7805342 -0.1996114 0.2478563
v 0.3538153 -0.1693684 0.303185
v -0.000480679 0.1045673 -0.2770588
v -0.001104447 -0.1605584 0.3232951
v 0.5390637 0.1867386 -0.3212898
v 0.7485793 -0.2049969 0.2452561
v -0.3619547 -0.168049 0.3068912
v -0.5479922 0.09674704 -0.3345201
v -0.7805342 -0.1996114 0.2478563

vn -0.314889 0.8803945 -0.3546125
vn -0.2351996 0.9147601 -0.3284732
vn -0.202312 0.9034111 -0.3780443
vn -0.2695269 0.8705707 -0.411657
vn -0.4252914 0.8383873 -0.3409305
vn -0.1692867 0.9115462 -0.3747333
vn -0.165376 0.9132694 -0.3722757
vn -0.1320635 0.9035656 -0.4075878
vn 0.314889 -0.8803945 0.3546125
vn 0.202312 -0.9034111 0.3780443
vn 0.2351996 -0.9147601 0.3284732
vn 0.2695269 -0.8705707 0.411657
vn 0.4252914 -0.8383873 0.3409305
vn 0.1692867 -0.9115462 0.3747333
vn 0.165376 -0.9132694 0.3722757
vn 0.1320635 -0.9035656 0.4075878

vt 0.5371094 0.03225708
vt 0.3762207 0.02610779
vt 0.3762207 0.3417969
vt 0.6201172 0.3554688
vt 0.7246094 0.0475769
vt 0.2155762 0.03225708
vt 0.1325684 0.3554688
vt 0.02827454 0.0475769
vt 0.5371094 0.03225708
vt 0.3762207 0.3417969
vt 0.3762207 0.02610779
vt 0.6201172 0.3554688
vt 0.7246094 0.0475769
vt 0.2155762 0.03225708
vt 0.1325684 0.3554688
vt 0.02827454 0.0475769

g glass_windshieldFront_8728_92
usemtl glass_windshieldFront_8728_92
usemap glass_windshieldFront_8728_92
f 1/1/1 3/3/3 2/2/2
f 1/1/1 4/4/4 3/3/3
f 5/5/5 4/4/4 1/1/1
f 6/6/6 2/2/2 3/3/3
f 6/6/6 3/3/3 7/7/7
f 8/8/8 6/6/6 7/7/7
f 9/9/9 11/11/11 10/10/10
f 9/9/9 10/10/10 12/12/12
f 13/13/13 9/9/9 12/12/12
f 14/14/14 10/10/10 11/11/11
f 14/14/14 15/15/15 10/10/10
f 16/16/16 15/15/15 14/14/14
