#glass_windshieldRear_9112_88.obj

v 0.8311712 -0.1719159 -0.152924
v 0.574378 0.1498085 0.2224935
v -0.0001684891 0.07103629 0.244694
v 0.001252548 -0.2013015 -0.1618149
v -0.8229995 -0.174645 -0.1148463
v -0.580604 0.05794823 0.243546
v 0.8311712 -0.1719159 -0.152924
v 0.001252548 -0.2013015 -0.1618149
v -0.0001684891 0.07103629 0.244694
v 0.574378 0.1498085 0.2224935
v -0.8229995 -0.174645 -0.1148463
v -0.580604 0.05794823 0.243546

vn 0.08186556 0.7838592 -0.615517
vn 0.08186556 0.7838592 -0.615517
vn 0.1009472 0.8105463 -0.5769078
vn 0.1009962 0.8106124 -0.5768062
vn 0.1203954 0.8359403 -0.5354502
vn 0.1203954 0.8359403 -0.5354501
vn -0.08186556 -0.7838592 0.615517
vn -0.1009962 -0.8106124 0.5768062
vn -0.1009472 -0.8105463 0.5769078
vn -0.08186556 -0.7838592 0.6155171
vn -0.1203954 -0.8359403 0.5354501
vn -0.1203954 -0.8359404 0.5354501

vt 0.02680969 0.439209
vt 0.1362305 0.6591797
vt 0.3979492 0.6669922
vt 0.3979492 0.4118652
vt 0.769043 0.439209
vt 0.659668 0.6591797
vt 0.02680969 0.439209
vt 0.3979492 0.4118652
vt 0.3979492 0.6669922
vt 0.1362305 0.6591797
vt 0.769043 0.439209
vt 0.659668 0.6591797

g glass_windshieldRear_9112_88
usemtl glass_windshieldRear_9112_88
usemap glass_windshieldRear_9112_88
f 1/1/1 3/3/3 2/2/2
f 1/1/1 4/4/4 3/3/3
f 5/5/5 3/3/3 4/4/4
f 5/5/5 6/6/6 3/3/3
f 7/7/7 9/9/9 8/8/8
f 7/7/7 10/10/10 9/9/9
f 11/11/11 8/8/8 9/9/9
f 11/11/11 9/9/9 12/12/12
