#glass_backL_9966_140.obj

v -0.01657812 0.1402708 -0.2111257
v 0.2331913 -0.2028557 -0.4106848
v 0.1274189 -0.2021357 0.4150157
v -0.1116977 0.1926698 0.3651721
v -0.01657812 0.1402708 -0.2111257
v -0.1116977 0.1926698 0.3651721
v 0.1274189 -0.2021357 0.4150157
v 0.2331913 -0.2028557 -0.4106848

vn 0.8315686 0.5083898 0.2236798
vn 0.8315686 0.5083898 0.2236798
vn 0.8315686 0.5083899 0.2236798
vn 0.8315686 0.5083898 0.2236798
vn -0.8315686 -0.5083899 -0.2236798
vn -0.8315685 -0.5083899 -0.2236798
vn -0.8315686 -0.5083899 -0.2236798
vn -0.8315686 -0.5083899 -0.2236798

vt 0.7875977 0.965332
vt 0.875 0.7602539
vt 0.5053711 0.7602539
vt 0.5292969 0.9790039
vt 0.7875977 0.965332
vt 0.5292969 0.9790039
vt 0.5053711 0.7602539
vt 0.875 0.7602539

g glass_backL_9966_140
usemtl glass_backL_9966_140
usemap glass_backL_9966_140
f 1/1/1 3/3/3 2/2/2
f 1/1/1 4/4/4 3/3/3
f 5/5/5 7/7/7 6/6/6
f 5/5/5 8/8/8 7/7/7
