#glass_backL_9242_89.obj

v -0.01657099 0.1402706 -0.2111284
v 0.2331944 -0.2028562 -0.4106858
v 0.1274237 -0.2021358 0.4150125
v -0.1116913 0.1926693 0.365167
v -0.01657099 0.1402706 -0.2111284
v -0.1116913 0.1926693 0.365167
v 0.1274237 -0.2021358 0.4150125
v 0.2331944 -0.2028562 -0.4106858

vn 0.7911826 0.5353689 0.295651
vn 0.7911826 0.5353689 0.295651
vn 0.7911826 0.5353689 0.295651
vn 0.7911826 0.5353689 0.295651
vn -0.7911826 -0.5353689 -0.295651
vn -0.7911825 -0.535369 -0.295651
vn -0.7911826 -0.5353689 -0.295651
vn -0.7911826 -0.5353689 -0.295651

vt 0.7875977 0.965332
vt 0.875 0.7602539
vt 0.5053711 0.7602539
vt 0.5292969 0.9790039
vt 0.7875977 0.965332
vt 0.5292969 0.9790039
vt 0.5053711 0.7602539
vt 0.875 0.7602539

g glass_backL_9242_89
usemtl glass_backL_9242_89
usemap glass_backL_9242_89
f 1/1/1 3/3/3 2/2/2
f 1/1/1 4/4/4 3/3/3
f 5/5/5 7/7/7 6/6/6
f 5/5/5 8/8/8 7/7/7
