#glass_backR_9623_133.obj

v 0.001978382 0.04129957 -0.210369
v 0.1275545 0.08877242 0.3489909
v -0.1687343 -0.2038837 0.4027046
v -0.2342471 -0.2091957 -0.4024368
v 0.001978382 0.04129957 -0.210369
v -0.2342471 -0.2091957 -0.4024368
v -0.1687343 -0.2038837 0.4027046
v 0.1275545 0.08877242 0.3489909

vn -0.6425621 0.7098619 0.2884597
vn -0.6425621 0.7098619 0.2884597
vn -0.6425621 0.7098619 0.2884597
vn -0.6425621 0.7098619 0.2884597
vn 0.642562 -0.7098621 -0.2884596
vn 0.642562 -0.709862 -0.2884596
vn 0.642562 -0.7098621 -0.2884596
vn 0.642562 -0.7098621 -0.2884596

vt 0.7875977 0.965332
vt 0.5292969 0.9790039
vt 0.5053711 0.7602539
vt 0.875 0.7602539
vt 0.7875977 0.965332
vt 0.875 0.7602539
vt 0.5053711 0.7602539
vt 0.5292969 0.9790039

g glass_backR_9623_133
usemtl glass_backR_9623_133
usemap glass_backR_9623_133
f 1/1/1 3/3/3 2/2/2
f 1/1/1 4/4/4 3/3/3
f 5/5/5 7/7/7 6/6/6
f 5/5/5 8/8/8 7/7/7
