#glass_frontL_10284_114.obj

v 0.1781452 0.1919691 -0.4212206
v 0.2887155 -0.1859504 -0.321227
v 0.1655485 -0.226676 0.4099023
v 2.96338E-05 0.1023098 0.0945012
v 0.0803114 -0.114557 0.4099323
v 0.1781452 0.1919691 -0.4212206
v 2.96338E-05 0.1023098 0.0945012
v 0.1655485 -0.226676 0.4099023
v 0.2887155 -0.1859504 -0.321227
v 0.0803114 -0.114557 0.4099323

vn 0.8456387 -0.5194354 0.1228073
vn 0.8456387 -0.5194354 0.1228073
vn 0.8115373 -0.5663335 0.1437813
vn 0.8384362 -0.5298885 0.1274465
vn 0.7650664 -0.6213852 0.1689781
vn -0.8456387 0.5194354 -0.1228074
vn -0.8384362 0.5298885 -0.1274465
vn -0.8115373 0.5663335 -0.1437813
vn -0.8456387 0.5194354 -0.1228074
vn -0.7650664 0.6213852 -0.1689781

vt 0.3928223 0.9833984
vt 0.3439941 0.7646484
vt 0.019104 0.7646484
vt 0.1628418 0.9575195
vt 0.02041626 0.8339844
vt 0.3928223 0.9833984
vt 0.1628418 0.9575195
vt 0.019104 0.7646484
vt 0.3439941 0.7646484
vt 0.02041626 0.8339844

g glass_frontL_10284_114
usemtl glass_frontL_10284_114
usemap glass_frontL_10284_114
f 1/1/1 3/3/3 2/2/2
f 1/1/1 4/4/4 3/3/3
f 4/4/4 5/5/5 3/3/3
f 6/6/6 8/8/8 7/7/7
f 6/6/6 9/9/9 8/8/8
f 7/7/7 8/8/8 10/10/10
