#glass_door_rearL_8947_930.obj

v 0.2627085 -0.1894131 -0.04957816
v -0.2626356 0.1894132 0.04960227
v -0.2626357 -0.1894131 -0.04957983
v 0.2627086 0.1894132 0.04960393
v 0.2627085 -0.1894131 -0.04957816
v -0.2626356 0.1894132 0.04960227
v 0.2627086 0.1894132 0.04960393
v -0.2626357 -0.1894131 -0.04957983

vn -0.0006593305 0.253282 -0.9673922
vn -0.0006593305 0.253282 -0.9673922
vn -0.0006593305 0.253282 -0.9673922
vn -0.0006593305 0.253282 -0.9673922
vn 0.0006593305 -0.253282 0.9673922
vn 0.0006593305 -0.253282 0.9673922
vn 0.0006593305 -0.253282 0.9673922
vn 0.0006593305 -0.253282 0.9673922

vt 0.06118774 0.7568359
vt 0.3300781 0.9570313
vt 0.3300781 0.7568359
vt 0.06118774 0.9570313
vt 0.06118774 0.7568359
vt 0.3300781 0.9570313
vt 0.06118774 0.9570313
vt 0.3300781 0.7568359

g glass_door_rearL_8947_930
usemtl glass_door_rearL_8947_930
usemap glass_door_rearL_8947_930
f 1/1/1 3/3/3 2/2/2
f 2/2/2 4/4/4 1/1/1
f 5/5/5 7/7/7 6/6/6
f 6/6/6 8/8/8 5/5/5
