#glass_frontL_9854_144.obj

v -0.03516722 0.207733 -0.4054423
v 0.2114071 -0.1943169 -0.3045068
v 0.1032191 -0.2109326 0.4168166
v -0.07790396 0.1509454 0.1078381
v 0.01886018 -0.0835972 0.4168306
v -0.03516722 0.207733 -0.4054423
v -0.07790396 0.1509454 0.1078381
v 0.1032191 -0.2109326 0.4168166
v 0.2114071 -0.1943169 -0.3045068
v 0.01886018 -0.0835972 0.4168306

vn 0.8129767 0.5539349 -0.1795124
vn 0.8129767 0.5539348 -0.1795124
vn 0.8110512 0.5594144 -0.1710286
vn 0.8125364 0.5552149 -0.1775403
vn 0.8080666 0.5673587 -0.1585299
vn -0.8129767 -0.5539348 0.1795124
vn -0.8125364 -0.5552148 0.1775402
vn -0.8110512 -0.5594144 0.1710286
vn -0.8129767 -0.5539348 0.1795124
vn -0.8080666 -0.5673587 0.1585299

vt 0.3928223 0.9833984
vt 0.3439941 0.7646484
vt 0.019104 0.7646484
vt 0.1628418 0.9575195
vt 0.02041626 0.8339844
vt 0.3928223 0.9833984
vt 0.1628418 0.9575195
vt 0.019104 0.7646484
vt 0.3439941 0.7646484
vt 0.02041626 0.8339844

g glass_frontL_9854_144
usemtl glass_frontL_9854_144
usemap glass_frontL_9854_144
f 1/1/1 3/3/3 2/2/2
f 1/1/1 4/4/4 3/3/3
f 4/4/4 5/5/5 3/3/3
f 6/6/6 8/8/8 7/7/7
f 6/6/6 9/9/9 8/8/8
f 7/7/7 8/8/8 10/10/10
