#glass_backL_10864_83.obj

v -0.05399082 0.01630109 -0.2066657
v 0.1963546 -0.1878414 -0.3876629
v 0.1444487 -0.1973981 0.4094118
v -0.133737 0.06258519 0.360908
v -0.05399082 0.01630109 -0.2066657
v -0.133737 0.06258519 0.360908
v 0.1444487 -0.1973981 0.4094118
v 0.1963546 -0.1878414 -0.3876629

vn 0.1951125 0.7451585 -0.6377058
vn 0.1951125 0.7451585 -0.6377058
vn 0.1951125 0.7451585 -0.6377058
vn 0.1951125 0.7451585 -0.6377058
vn -0.1951125 -0.7451584 0.6377059
vn -0.1951125 -0.7451585 0.6377058
vn -0.1951125 -0.7451584 0.6377059
vn -0.1951125 -0.7451584 0.6377059

vt 0.7875977 0.965332
vt 0.875 0.7602539
vt 0.5053711 0.7602539
vt 0.5292969 0.9790039
vt 0.7875977 0.965332
vt 0.5292969 0.9790039
vt 0.5053711 0.7602539
vt 0.875 0.7602539

g glass_backL_10864_83
usemtl glass_backL_10864_83
usemap glass_backL_10864_83
f 1/1/1 3/3/3 2/2/2
f 1/1/1 4/4/4 3/3/3
f 5/5/5 7/7/7 6/6/6
f 5/5/5 8/8/8 7/7/7
