#glass_backR_10999_112.obj

v -0.01391201 0.1328186 -0.2110981
v 0.139536 0.1590479 0.3608674
v -0.1447916 -0.2119729 0.4093407
v -0.2683565 -0.1985583 -0.4093151
v -0.01391201 0.1328186 -0.2110981
v -0.2683565 -0.1985583 -0.4093151
v -0.1447916 -0.2119729 0.4093407
v 0.139536 0.1590479 0.3608674

vn 0.4167406 0.5804988 0.6995338
vn 0.4167406 0.5804988 0.6995338
vn 0.4167406 0.5804988 0.6995338
vn 0.4167406 0.5804988 0.6995338
vn -0.4167406 -0.5804988 -0.6995338
vn -0.4167406 -0.5804988 -0.6995338
vn -0.4167406 -0.5804988 -0.6995338
vn -0.4167406 -0.5804988 -0.6995338

vt 0.7875977 0.965332
vt 0.5292969 0.9790039
vt 0.5053711 0.7602539
vt 0.875 0.7602539
vt 0.7875977 0.965332
vt 0.875 0.7602539
vt 0.5053711 0.7602539
vt 0.5292969 0.9790039

g glass_backR_10999_112
usemtl glass_backR_10999_112
usemap glass_backR_10999_112
f 1/1/1 3/3/3 2/2/2
f 1/1/1 4/4/4 3/3/3
f 5/5/5 7/7/7 6/6/6
f 5/5/5 8/8/8 7/7/7
