#glass_frontL_9298_85.obj

v -0.1083127 0.1451598 0.09938218
v 0.1423494 -0.1933992 -0.3118391
v 0.1423502 -0.2103767 0.4110501
v -0.1423356 0.203445 -0.4110464
v 0.05254724 -0.08562496 0.4110501
v -0.1083127 0.1451598 0.09938218
v 0.1423494 -0.1933992 -0.3118391
v -0.1423356 0.203445 -0.4110464
v 0.1423502 -0.2103767 0.4110501
v 0.05254724 -0.08562496 0.4110501

vn -0.002059809 0.5844533 -0.8114242
vn -0.002232436 0.5845929 -0.8113233
vn -0.001705687 0.584167 -0.8116313
vn -0.002673927 0.5849498 -0.8110647
vn -0.001705501 0.5841671 -0.8116311
vn 0.002059805 -0.5844533 0.8114242
vn 0.002232436 -0.5845929 0.8113233
vn 0.002673927 -0.5849498 0.8110647
vn 0.001705665 -0.584167 0.8116313
vn 0.001705439 -0.5841671 0.8116311

vt 0.1628418 0.9575195
vt 0.3439941 0.7646484
vt 0.019104 0.7646484
vt 0.3928223 0.9833984
vt 0.02041626 0.8339844
vt 0.1628418 0.9575195
vt 0.3439941 0.7646484
vt 0.3928223 0.9833984
vt 0.019104 0.7646484
vt 0.02041626 0.8339844

g glass_frontL_9298_85
usemtl glass_frontL_9298_85
usemap glass_frontL_9298_85
f 1/1/1 3/3/3 2/2/2
f 2/2/2 4/4/4 1/1/1
f 1/1/1 5/5/5 3/3/3
f 6/6/6 8/8/8 7/7/7
f 7/7/7 9/9/9 6/6/6
f 6/6/6 9/9/9 10/10/10
