#glass_frontR_9565_132.obj

v 0.1083251 0.1405487 0.09938287
v -0.1423382 -0.1980103 -0.3118386
v 0.1423468 0.1988338 -0.411046
v -0.1423375 -0.2149878 0.4110508
v -0.05253453 -0.09023603 0.4110508
v 0.1083251 0.1405487 0.09938287
v -0.1423382 -0.1980103 -0.3118386
v -0.1423375 -0.2149878 0.4110508
v 0.1423468 0.1988338 -0.411046
v -0.05253453 -0.09023603 0.4110508

vn 0.02877898 0.5844532 0.8109164
vn 0.02860266 0.5845928 0.810822
vn 0.0281517 0.5849496 0.8105804
vn 0.02914067 0.5841669 0.8111098
vn 0.02914084 0.5841671 0.8111098
vn -0.02877898 -0.5844532 -0.8109164
vn -0.02860266 -0.5845928 -0.810822
vn -0.02914066 -0.5841669 -0.8111098
vn -0.0281517 -0.5849496 -0.8105804
vn -0.02914081 -0.5841671 -0.8111098

vt 0.1628418 0.9575195
vt 0.3439941 0.7646484
vt 0.3928223 0.9833984
vt 0.019104 0.7646484
vt 0.02041626 0.8339844
vt 0.1628418 0.9575195
vt 0.3439941 0.7646484
vt 0.019104 0.7646484
vt 0.3928223 0.9833984
vt 0.02041626 0.8339844

g glass_frontR_9565_132
usemtl glass_frontR_9565_132
usemap glass_frontR_9565_132
f 1/1/1 3/3/3 2/2/2
f 2/2/2 4/4/4 1/1/1
f 1/1/1 4/4/4 5/5/5
f 6/6/6 8/8/8 7/7/7
f 7/7/7 9/9/9 6/6/6
f 6/6/6 10/10/10 8/8/8
