#glass_frontR_10940_1765.obj

v 0.1083492 0.1406289 0.09940463
v -0.1423158 -0.1979301 -0.31182
v 0.1423717 0.1989139 -0.4110231
v -0.1423125 -0.2149075 0.411072
v -0.05251073 -0.09015578 0.4110722
v 0.1083492 0.1406289 0.09940463
v -0.1423158 -0.1979301 -0.31182
v -0.1423125 -0.2149075 0.411072
v 0.1423717 0.1989139 -0.4110231
v -0.05251073 -0.09015578 0.4110722

vn -0.8048113 0.5844533 0.1034031
vn -0.8047336 0.5845929 0.1032188
vn -0.8045347 0.5849497 0.1027475
vn -0.8049707 0.5841671 0.1037811
vn -0.8049706 0.5841672 0.1037813
vn 0.8048113 -0.5844533 -0.1034031
vn 0.8047336 -0.5845929 -0.1032188
vn 0.8049707 -0.5841671 -0.1037811
vn 0.8045347 -0.5849497 -0.1027475
vn 0.8049706 -0.5841672 -0.1037813

vt 0.1628418 0.9575195
vt 0.3439941 0.7646484
vt 0.3928223 0.9833984
vt 0.019104 0.7646484
vt 0.02041626 0.8339844
vt 0.1628418 0.9575195
vt 0.3439941 0.7646484
vt 0.019104 0.7646484
vt 0.3928223 0.9833984
vt 0.02041626 0.8339844

g glass_frontR_10940_1765
usemtl glass_frontR_10940_1765
usemap glass_frontR_10940_1765
f 1/1/1 3/3/3 2/2/2
f 2/2/2 4/4/4 1/1/1
f 1/1/1 4/4/4 5/5/5
f 6/6/6 8/8/8 7/7/7
f 7/7/7 9/9/9 6/6/6
f 6/6/6 10/10/10 8/8/8
