#glass_door_frontR_9176_928.obj

v -0.04821211 -0.2082859 -0.4137009
v 0.04916954 0.2075777 0.09555764
v 0.047112 0.2082849 -0.413368
v -0.04911608 -0.2079663 0.4137304
v -0.04821211 -0.2082859 -0.4137009
v 0.04916954 0.2075777 0.09555764
v -0.04911608 -0.2079663 0.4137304
v 0.047112 0.2082849 -0.413368

vn 0.9524698 -0.2258499 0.2044338
vn 0.9518559 -0.2273522 0.2056241
vn 0.9535974 -0.2230627 0.2022251
vn 0.9510416 -0.2293292 0.2071904
vn -0.9524698 0.2258499 -0.2044338
vn -0.9518559 0.2273522 -0.2056241
vn -0.9510416 0.2293292 -0.2071904
vn -0.9535974 0.2230627 -0.2022251

vt 0.5458984 0.3894043
vt 0.8081055 0.609375
vt 0.5458984 0.609375
vt 0.9716797 0.3896484
vt 0.5458984 0.3894043
vt 0.8081055 0.609375
vt 0.9716797 0.3896484
vt 0.5458984 0.609375

g glass_door_frontR_9176_928
usemtl glass_door_frontR_9176_928
usemap glass_door_frontR_9176_928
f 1/1/1 3/3/3 2/2/2
f 2/2/2 4/4/4 1/1/1
f 5/5/5 7/7/7 6/6/6
f 6/6/6 8/8/8 5/5/5
