#glass_frontL_8577_1775.obj

v -0.1082895 0.1448897 0.09939404
v 0.1423757 -0.1936692 -0.3118286
v 0.1423754 -0.2106468 0.411063
v -0.1423116 0.2031748 -0.4110342
v 0.05257011 -0.08589501 0.4110623
v -0.1082895 0.1448897 0.09939404
v 0.1423757 -0.1936692 -0.3118286
v -0.1423116 0.2031748 -0.4110342
v 0.1423754 -0.2106468 0.411063
v 0.05257011 -0.08589501 0.4110623

vn 0.8077798 0.5844534 -0.07684443
vn 0.8076634 0.5845931 -0.07700702
vn 0.8080187 0.584167 -0.07651094
vn 0.8073652 0.5849499 -0.07742281
vn 0.8080188 0.5841672 -0.07651081
vn -0.8077798 -0.5844534 0.07684443
vn -0.8076634 -0.5845931 0.07700702
vn -0.8073652 -0.5849499 0.07742281
vn -0.8080187 -0.584167 0.07651091
vn -0.8080187 -0.5841672 0.07651073

vt 0.1628418 0.9575195
vt 0.3439941 0.7646484
vt 0.019104 0.7646484
vt 0.3928223 0.9833984
vt 0.02041626 0.8339844
vt 0.1628418 0.9575195
vt 0.3439941 0.7646484
vt 0.3928223 0.9833984
vt 0.019104 0.7646484
vt 0.02041626 0.8339844

g glass_frontL_8577_1775
usemtl glass_frontL_8577_1775
usemap glass_frontL_8577_1775
f 1/1/1 3/3/3 2/2/2
f 2/2/2 4/4/4 1/1/1
f 1/1/1 5/5/5 3/3/3
f 6/6/6 8/8/8 7/7/7
f 7/7/7 9/9/9 6/6/6
f 6/6/6 9/9/9 10/10/10
