#glass_backL_8625_1759.obj

v -0.1217601 0.1767135 -0.2110924
v 0.1417982 -0.18958 -0.4093071
v 0.1417989 -0.2004784 0.409345
v -0.14175 0.1929947 0.3608696
v -0.1217601 0.1767135 -0.2110924
v -0.14175 0.1929947 0.3608696
v 0.1417989 -0.2004784 0.409345
v 0.1417982 -0.18958 -0.4093071

vn 0.8083583 0.5831085 -0.08087333
vn 0.8083583 0.5831085 -0.08087333
vn 0.8083584 0.5831085 -0.08087335
vn 0.8083583 0.5831085 -0.08087333
vn -0.8083583 -0.5831085 0.08087331
vn -0.8083584 -0.5831085 0.08087333
vn -0.8083583 -0.5831085 0.08087331
vn -0.8083583 -0.5831085 0.08087331

vt 0.7875977 0.965332
vt 0.875 0.7602539
vt 0.5053711 0.7602539
vt 0.5292969 0.9790039
vt 0.7875977 0.965332
vt 0.5292969 0.9790039
vt 0.5053711 0.7602539
vt 0.875 0.7602539

g glass_backL_8625_1759
usemtl glass_backL_8625_1759
usemap glass_backL_8625_1759
f 1/1/1 3/3/3 2/2/2
f 1/1/1 4/4/4 3/3/3
f 5/5/5 7/7/7 6/6/6
f 5/5/5 8/8/8 7/7/7
