#glass_windshieldFront_10277_115.obj

v 0.3621001 -0.169841 0.3082227
v 5.260094E-06 -0.1613881 0.3294814
v 5.699757E-06 0.2043516 -0.2812638
v 0.5481668 0.1839378 -0.3294794
v 0.7800768 -0.2043512 0.2475488
v -0.3620886 -0.169841 0.3082224
v -0.548156 0.1839378 -0.3294794
v -0.7800655 -0.2043512 0.2475489
v 0.3621001 -0.169841 0.3082227
v 5.699757E-06 0.2043516 -0.2812638
v 5.260094E-06 -0.1613881 0.3294814
v 0.5481668 0.1839378 -0.3294794
v 0.7800768 -0.2043512 0.2475488
v -0.3620886 -0.169841 0.3082224
v -0.548156 0.1839378 -0.3294794
v -0.7800655 -0.2043512 0.2475489

vn 0.5082747 0.8549374 -0.1036207
vn 0.5136726 0.8579296 -0.009764186
vn 0.505433 0.8628114 -0.009607561
vn 0.5024769 0.8579258 -0.107138
vn 0.5090603 0.846854 -0.1539291
vn 0.5118455 0.8549374 0.08422966
vn 0.5061856 0.8579258 0.08796477
vn 0.5145424 0.846854 0.1344719
vn -0.5082747 -0.8549374 0.1036207
vn -0.505433 -0.8628114 0.009607561
vn -0.5136726 -0.8579296 0.009764186
vn -0.5024769 -0.8579258 0.107138
vn -0.5090603 -0.846854 0.1539291
vn -0.5118455 -0.8549374 -0.08422966
vn -0.5061856 -0.8579258 -0.08796477
vn -0.5145424 -0.846854 -0.1344719

vt 0.5371094 0.03225708
vt 0.3762207 0.02610779
vt 0.3762207 0.3417969
vt 0.6201172 0.3554688
vt 0.7246094 0.0475769
vt 0.2155762 0.03225708
vt 0.1325684 0.3554688
vt 0.02827454 0.0475769
vt 0.5371094 0.03225708
vt 0.3762207 0.3417969
vt 0.3762207 0.02610779
vt 0.6201172 0.3554688
vt 0.7246094 0.0475769
vt 0.2155762 0.03225708
vt 0.1325684 0.3554688
vt 0.02827454 0.0475769

g glass_windshieldFront_10277_115
usemtl glass_windshieldFront_10277_115
usemap glass_windshieldFront_10277_115
f 1/1/1 3/3/3 2/2/2
f 1/1/1 4/4/4 3/3/3
f 5/5/5 4/4/4 1/1/1
f 6/6/6 2/2/2 3/3/3
f 6/6/6 3/3/3 7/7/7
f 8/8/8 6/6/6 7/7/7
f 9/9/9 11/11/11 10/10/10
f 9/9/9 10/10/10 12/12/12
f 13/13/13 9/9/9 12/12/12
f 14/14/14 10/10/10 11/11/11
f 14/14/14 15/15/15 10/10/10
f 16/16/16 15/15/15 14/14/14
