#glass_door_frontL_10979_932.obj

v 0.04827132 -0.2082859 -0.4136935
v -0.04911174 0.2075777 0.09556478
v 0.04916862 -0.2079663 0.4137343
v -0.04705555 0.2082849 -0.4133655
v 0.04827132 -0.2082859 -0.4136935
v -0.04911174 0.2075777 0.09556478
v -0.04705555 0.2082849 -0.4133655
v 0.04916862 -0.2079663 0.4137343

vn -0.9516863 -0.2258499 -0.20805
vn -0.9516202 -0.2273523 -0.2067122
vn -0.9515271 -0.2293295 -0.2049493
vn -0.951799 -0.2230625 -0.2105275
vn 0.9516863 0.2258499 0.20805
vn 0.9516202 0.2273523 0.2067122
vn 0.951799 0.2230625 0.2105275
vn 0.9515271 0.2293295 0.2049493

vt 0.4414063 0.3864746
vt 0.1789551 0.605957
vt 0.01547241 0.3862305
vt 0.440918 0.6064453
vt 0.4414063 0.3864746
vt 0.1789551 0.605957
vt 0.440918 0.6064453
vt 0.01547241 0.3862305

g glass_door_frontL_10979_932
usemtl glass_door_frontL_10979_932
usemap glass_door_frontL_10979_932
f 1/1/1 3/3/3 2/2/2
f 2/2/2 4/4/4 1/1/1
f 5/5/5 7/7/7 6/6/6
f 6/6/6 8/8/8 5/5/5
