#glass_frontR_9102_81.obj

v 0.108325 0.1405489 0.09937626
v -0.1423377 -0.1980101 -0.3118444
v 0.1423472 0.198834 -0.4110526
v -0.1423386 -0.2149876 0.411045
v -0.05253515 -0.09023582 0.4110447
v 0.108325 0.1405489 0.09937626
v -0.1423377 -0.1980101 -0.3118444
v -0.1423386 -0.2149876 0.411045
v 0.1423472 0.198834 -0.4110526
v -0.05253515 -0.09023582 0.4110447

vn -0.0600402 0.5844536 -0.8092024
vn -0.05986037 0.5845932 -0.809115
vn -0.05940044 0.58495 -0.8088909
vn -0.06040909 0.5841672 -0.8093818
vn -0.06040926 0.5841674 -0.8093817
vn 0.0600402 -0.5844536 0.8092024
vn 0.05986037 -0.5845932 0.809115
vn 0.06040908 -0.5841672 0.8093818
vn 0.05940044 -0.58495 0.8088909
vn 0.06040923 -0.5841674 0.8093817

vt 0.1628418 0.9575195
vt 0.3439941 0.7646484
vt 0.3928223 0.9833984
vt 0.019104 0.7646484
vt 0.02041626 0.8339844
vt 0.1628418 0.9575195
vt 0.3439941 0.7646484
vt 0.019104 0.7646484
vt 0.3928223 0.9833984
vt 0.02041626 0.8339844

g glass_frontR_9102_81
usemtl glass_frontR_9102_81
usemap glass_frontR_9102_81
f 1/1/1 3/3/3 2/2/2
f 2/2/2 4/4/4 1/1/1
f 1/1/1 4/4/4 5/5/5
f 6/6/6 8/8/8 7/7/7
f 7/7/7 9/9/9 6/6/6
f 6/6/6 10/10/10 8/8/8
