#glass_frontL_10899_467.obj

v -0.05157761 0.1809525 0.1826496
v -0.05515463 0.1890555 -0.3074754
v 0.03516686 -0.1890557 -0.3800791
v 0.03516475 -0.1890552 0.3800708
v -0.05157761 0.1809525 0.1826496
v 0.03516475 -0.1890552 0.3800708
v 0.03516686 -0.1890557 -0.3800791
v -0.05515463 0.1890555 -0.3074754

vn 0.7842097 0.230113 0.5762493
vn 0.7842097 0.230113 0.5762493
vn 0.7842097 0.230113 0.5762493
vn 0.7842097 0.230113 0.5762493
vn -0.7842097 -0.230113 -0.5762493
vn -0.7842097 -0.230113 -0.5762493
vn -0.7842097 -0.230113 -0.5762493
vn -0.7842097 -0.230113 -0.5762493

vt 0.5161133 0.8237305
vt 0.7011719 0.8305664
vt 0.7236328 0.6796875
vt 0.4372559 0.6796875
vt 0.09503174 0.8149414
vt 0.01600647 0.6708984
vt 0.3027344 0.6708984
vt 0.2800293 0.8217773

g glass_frontL_10899_467
usemtl glass_frontL_10899_467
usemap glass_frontL_10899_467
f 1/1/1 3/3/3 2/2/2
f 1/1/1 4/4/4 3/3/3
f 5/5/5 7/7/7 6/6/6
f 5/5/5 8/8/8 7/7/7
