#glass_windshieldRear_10610_123.obj

v 0.831163 -0.1719157 -0.1529803
v 0.5743715 0.1498086 0.2224427
v -0.0001751144 0.0710365 0.2446439
v 0.0012406 -0.2013012 -0.1618646
v -0.8230093 -0.1746448 -0.1149007
v -0.5806065 0.05794854 0.2434911
v 0.831163 -0.1719157 -0.1529803
v 0.0012406 -0.2013012 -0.1618646
v -0.0001751144 0.0710365 0.2446439
v 0.5743715 0.1498086 0.2224427
v -0.8230093 -0.1746448 -0.1149007
v -0.5806065 0.05794854 0.2434911

vn -0.390358 0.7838594 -0.4828913
vn -0.390358 0.7838594 -0.4828913
vn -0.3492109 0.8105464 -0.4701755
vn -0.3491035 0.8106126 -0.4701411
vn -0.3057444 0.8359405 -0.4557659
vn -0.3057444 0.8359405 -0.4557658
vn 0.390358 -0.7838594 0.4828913
vn 0.3491035 -0.8106126 0.4701411
vn 0.3492109 -0.8105464 0.4701754
vn 0.390358 -0.7838594 0.4828914
vn 0.3057444 -0.8359405 0.4557658
vn 0.3057444 -0.8359406 0.4557658

vt 0.02680969 0.439209
vt 0.1362305 0.6591797
vt 0.3979492 0.6669922
vt 0.3979492 0.4118652
vt 0.769043 0.439209
vt 0.659668 0.6591797
vt 0.02680969 0.439209
vt 0.3979492 0.4118652
vt 0.3979492 0.6669922
vt 0.1362305 0.6591797
vt 0.769043 0.439209
vt 0.659668 0.6591797

g glass_windshieldRear_10610_123
usemtl glass_windshieldRear_10610_123
usemap glass_windshieldRear_10610_123
f 1/1/1 3/3/3 2/2/2
f 1/1/1 4/4/4 3/3/3
f 5/5/5 3/3/3 4/4/4
f 5/5/5 6/6/6 3/3/3
f 7/7/7 9/9/9 8/8/8
f 7/7/7 10/10/10 9/9/9
f 11/11/11 8/8/8 9/9/9
f 11/11/11 9/9/9 12/12/12
