#glass_windshieldFront_10059_136.obj

v 0.3620928 -0.1610675 0.3084075
v -3.276148E-06 -0.1524586 0.3220915
v 1.828322E-06 0.1471671 -0.2711147
v 0.5481601 0.1676087 -0.3340754
v 0.7800709 -0.2052556 0.2475858
v -0.3620932 -0.2455693 0.3019675
v -0.5481652 0.08757897 -0.3153541
v -0.7800685 -0.2725066 0.2428536
v 0.3620928 -0.1610675 0.3084075
v 1.828322E-06 0.1471671 -0.2711147
v -3.276148E-06 -0.1524586 0.3220915
v 0.5481601 0.1676087 -0.3340754
v 0.7800709 -0.2052556 0.2475858
v -0.3620932 -0.2455693 0.3019675
v -0.5481652 0.08757897 -0.3153541
v -0.7800685 -0.2725066 0.2428536

vn 0.1911301 0.879657 0.4355128
vn -0.000936918 0.8872553 0.4612762
vn 0.04334635 0.8790523 0.474749
vn 0.1747614 0.8803918 0.4408708
vn 0.271213 0.8588246 0.4345831
vn -0.05160716 0.8607703 0.5063689
vn -0.009653494 0.8553939 0.5178868
vn -0.004913226 0.8566547 0.5158653
vn -0.1911301 -0.879657 -0.4355128
vn -0.04334635 -0.8790523 -0.474749
vn 0.000936918 -0.8872553 -0.4612762
vn -0.1747614 -0.8803918 -0.4408708
vn -0.271213 -0.8588246 -0.4345831
vn 0.05160716 -0.8607703 -0.5063689
vn 0.009653494 -0.8553939 -0.5178868
vn 0.004913226 -0.8566547 -0.5158653

vt 0.5371094 0.03225708
vt 0.3762207 0.02610779
vt 0.3762207 0.3417969
vt 0.6201172 0.3554688
vt 0.7246094 0.0475769
vt 0.2155762 0.03225708
vt 0.1325684 0.3554688
vt 0.02827454 0.0475769
vt 0.5371094 0.03225708
vt 0.3762207 0.3417969
vt 0.3762207 0.02610779
vt 0.6201172 0.3554688
vt 0.7246094 0.0475769
vt 0.2155762 0.03225708
vt 0.1325684 0.3554688
vt 0.02827454 0.0475769

g glass_windshieldFront_10059_136
usemtl glass_windshieldFront_10059_136
usemap glass_windshieldFront_10059_136
f 1/1/1 3/3/3 2/2/2
f 1/1/1 4/4/4 3/3/3
f 5/5/5 4/4/4 1/1/1
f 6/6/6 2/2/2 3/3/3
f 6/6/6 3/3/3 7/7/7
f 8/8/8 6/6/6 7/7/7
f 9/9/9 11/11/11 10/10/10
f 9/9/9 10/10/10 12/12/12
f 13/13/13 9/9/9 12/12/12
f 14/14/14 10/10/10 11/11/11
f 14/14/14 15/15/15 10/10/10
f 16/16/16 15/15/15 14/14/14
