#glass_door_frontR_9357_225.obj

v -0.1333285 -0.2071998 -0.4281122
v 0.0496287 0.1957083 0.09499779
v 0.03133792 0.1711752 -0.4165109
v -0.0491132 -0.208079 0.4137563
v -0.1333285 -0.2071998 -0.4281122
v 0.0496287 0.1957083 0.09499779
v -0.0491132 -0.208079 0.4137563
v 0.03133792 0.1711752 -0.4165109

vn 0.2316615 -0.3586535 -0.9042678
vn 0.2135975 -0.3344259 -0.9178971
vn 0.2615764 -0.3986562 -0.8790056
vn 0.1929249 -0.3066362 -0.9320698
vn -0.2316615 0.3586535 0.9042678
vn -0.2135975 0.3344259 0.9178971
vn -0.1929249 0.3066362 0.9320698
vn -0.2615764 0.3986562 0.8790056

vt 0.5458984 0.3894043
vt 0.8081055 0.609375
vt 0.5458984 0.609375
vt 0.9716797 0.3896484
vt 0.5458984 0.3894043
vt 0.8081055 0.609375
vt 0.9716797 0.3896484
vt 0.5458984 0.609375

g glass_door_frontR_9357_225
usemtl glass_door_frontR_9357_225
usemap glass_door_frontR_9357_225
f 1/1/1 3/3/3 2/2/2
f 2/2/2 4/4/4 1/1/1
f 5/5/5 7/7/7 6/6/6
f 6/6/6 8/8/8 5/5/5
