#glass_frontL_9051_459.obj

v -0.05158142 0.1809525 0.1826376
v -0.05515844 0.1890555 -0.3074874
v 0.03516305 -0.1890557 -0.3800911
v 0.03516283 -0.1890552 0.3800614
v -0.05158142 0.1809525 0.1826376
v 0.03516283 -0.1890552 0.3800614
v 0.03516305 -0.1890557 -0.3800911
v -0.05515844 0.1890555 -0.3074874

vn 0.7842097 0.230113 0.5762493
vn 0.7842097 0.230113 0.5762493
vn 0.7842097 0.230113 0.5762493
vn 0.7842097 0.230113 0.5762493
vn -0.7842097 -0.230113 -0.5762493
vn -0.7842097 -0.230113 -0.5762493
vn -0.7842097 -0.230113 -0.5762493
vn -0.7842097 -0.230113 -0.5762493

vt 0.5161133 0.8237305
vt 0.7011719 0.8305664
vt 0.7236328 0.6796875
vt 0.4372559 0.6796875
vt 0.09503174 0.8149414
vt 0.01600647 0.6708984
vt 0.3027344 0.6708984
vt 0.2800293 0.8217773

g glass_frontL_9051_459
usemtl glass_frontL_9051_459
usemap glass_frontL_9051_459
f 1/1/1 3/3/3 2/2/2
f 1/1/1 4/4/4 3/3/3
f 5/5/5 7/7/7 6/6/6
f 5/5/5 8/8/8 7/7/7
