#hood_9378_677.obj

v 2.536104E-05 -0.1763824 0.4635498
v 0.7499911 -0.2987896 0.5602864
v 2.052286E-05 -0.2987896 0.5602875
v 0.7508296 -0.178673 0.4551714
v 2.609092E-05 -0.03480674 0.09267891
v 0.8110743 1.404791E-07 1.928344E-05
v -0.7499431 -0.2987896 0.5602871
v -0.7507829 -0.178673 0.4551709
v -0.8110266 1.404789E-07 1.541063E-05
v 0.7497203 -0.3183965 0.5375826
v 2.093986E-05 -0.2006017 0.4458478
v 2.099381E-05 -0.3173903 0.536748
v 0.7506236 -0.2034141 0.4382063
v 2.26557E-05 -0.06279754 0.08188574
v 0.8110211 -0.02792247 -0.01095281
v -0.7496741 -0.3183965 0.5375831
v 2.093986E-05 -0.2006017 0.4458478
v -0.7505763 -0.2034141 0.4382075
v 2.099381E-05 -0.3173903 0.536748
v 2.26557E-05 -0.06279754 0.08188574
v -0.8109726 -0.02792247 -0.01095069
v 0.7497203 -0.3183965 0.5375826
v 0.7508296 -0.178673 0.4551714
v 0.7506236 -0.2034141 0.4382063
v 0.7499911 -0.2987896 0.5602864
v 0.8110743 1.404791E-07 1.928344E-05
v 0.8110211 -0.02792247 -0.01095281
v 2.099381E-05 -0.3173903 0.536748
v 0.7499911 -0.2987896 0.5602864
v 0.7497203 -0.3183965 0.5375826
v 2.052286E-05 -0.2987896 0.5602875
v 0.8110211 -0.02792247 -0.01095281
v 2.609092E-05 -0.03480674 0.09267891
v 2.26557E-05 -0.06279754 0.08188574
v 0.8110743 1.404791E-07 1.928344E-05
v -0.7496741 -0.3183965 0.5375831
v 2.052286E-05 -0.2987896 0.5602875
v 2.099381E-05 -0.3173903 0.536748
v -0.7499431 -0.2987896 0.5602871
v -0.7505763 -0.2034141 0.4382075
v -0.7499431 -0.2987896 0.5602871
v -0.7496741 -0.3183965 0.5375831
v -0.7507829 -0.178673 0.4551709
v -0.8109726 -0.02792247 -0.01095069
v -0.8110266 1.404789E-07 1.541063E-05
v 2.26557E-05 -0.06279754 0.08188574
v -0.8110266 1.404789E-07 1.541063E-05
v -0.8109726 -0.02792247 -0.01095069
v 2.609092E-05 -0.03480674 0.09267891

vn -0.1249366 0.8073111 0.576748
vn -0.1513774 0.6535659 0.7415762
vn -0.1661048 0.620029 0.7667934
vn -0.1130055 0.82471 0.5541493
vn -0.07617978 0.9330178 0.3516707
vn -0.07562037 0.9307621 0.3577171
vn -0.1690765 0.6535659 0.7377423
vn -0.1264464 0.82471 0.5512378
vn -0.07919132 0.9307621 0.3569435
vn 0.1523656 -0.6490114 -0.7453643
vn 0.1253161 -0.8059975 -0.5785002
vn 0.1670698 -0.6142172 -0.7712482
vn 0.113508 -0.8236108 -0.5556793
vn 0.07571044 -0.9338698 -0.3495041
vn 0.07549436 -0.9313527 -0.356203
vn 0.1697445 -0.6490114 -0.7415996
vn 0.1253161 -0.8059975 -0.5785002
vn 0.1266221 -0.8236108 -0.5528384
vn 0.1670698 -0.6142172 -0.7712482
vn 0.07571044 -0.9338698 -0.3495041
vn 0.07867945 -0.9313527 -0.355513
vn 0.9779232 -0.009727375 0.2087387
vn 0.9644292 -0.04333956 0.2607642
vn 0.964609 -0.04205345 0.2603091
vn 0.9779944 -0.009934625 0.2083945
vn 0.9455234 -0.04828808 0.3219532
vn 0.9454031 -0.04712674 0.3224779
vn -0.13053 -0.7842347 0.6065775
vn -0.1398559 -0.7575631 0.6376026
vn -0.1400781 -0.7568349 0.638418
vn -0.13053 -0.7842348 0.6065775
vn 0.07720731 0.3629974 -0.9285858
vn 0.1974141 0.3598914 -0.9118691
vn 0.197414 0.3598913 -0.9118692
vn 0.07720146 0.3631369 -0.9285316
vn -0.1381536 -0.7575662 0.63797
vn -0.13053 -0.7842348 0.6065775
vn -0.13053 -0.7842347 0.6065775
vn -0.1383733 -0.7568464 0.6387761
vn -0.9858529 -0.04311134 -0.1619741
vn -0.9767041 -0.01009334 -0.2143534
vn -0.9766467 -0.01041638 -0.2145993
vn -0.9860747 -0.04288827 -0.1606776
vn -0.9938561 -0.04761655 -0.09991406
vn -0.9939523 -0.04639795 -0.09952998
vn 0.197414 0.3598913 -0.9118692
vn 0.3141991 0.3629878 -0.8772219
vn 0.3141924 0.3631268 -0.8771667
vn 0.1974141 0.3598914 -0.9118691

vt 0.4521484 0.6875
vt 0.4741211 0.7919922
vt 0.473877 0.6875
vt 0.4519043 0.7924805
vt 0.3967285 0.6875
vt 0.3835449 0.8007813
vt 0.4741211 0.5825195
vt 0.4519043 0.5825195
vt 0.3835449 0.5737305
vt 0.01649475 0.565918
vt 0.1207886 0.5444336
vt 0.1209717 0.5649414
vt 0.01603699 0.5444336
vt 0.1204224 0.4902344
vt 0.007278442 0.4768066
vt 0.01646423 0.565918
vt 0.1207886 0.5444336
vt 0.01603699 0.5444336
vt 0.1209106 0.5649414
vt 0.1204224 0.4902344
vt 0.007312775 0.4768066
vt 0.01649475 0.565918
vt 0.01196289 0.5449219
vt 0.01603699 0.5444336
vt 0.01243591 0.5664063
vt 0.003152847 0.4772949
vt 0.007278442 0.4768066
vt 0.1209717 0.5649414
vt 0.01644897 0.5703125
vt 0.01649475 0.565918
vt 0.1210327 0.5693359
vt 0.007278442 0.4768066
vt 0.1209106 0.486084
vt 0.1204224 0.4902344
vt 0.007774353 0.4726563
vt 0.01646423 0.565918
vt 0.1209717 0.5693359
vt 0.1209106 0.5649414
vt 0.01641846 0.5698242
vt 0.01603699 0.5444336
vt 0.01241302 0.565918
vt 0.01646423 0.565918
vt 0.01196289 0.5444336
vt 0.007312775 0.4768066
vt 0.003183365 0.4770508
vt 0.1204224 0.4902344
vt 0.007801056 0.4726563
vt 0.007312775 0.4768066
vt 0.1209106 0.486084

g hood_9378_677
usemtl hood_9378_677
usemap hood_9378_677
f 1/1/1 3/3/3 2/2/2
f 2/2/2 4/4/4 1/1/1
f 5/5/5 1/1/1 4/4/4
f 4/4/4 6/6/6 5/5/5
f 7/7/7 3/3/3 1/1/1
f 1/1/1 8/8/8 7/7/7
f 8/8/8 1/1/1 5/5/5
f 5/5/5 9/9/9 8/8/8
f 10/10/10 12/12/12 11/11/11
f 11/11/11 13/13/13 10/10/10
f 13/13/13 11/11/11 14/14/14
f 14/14/14 15/15/15 13/13/13
f 16/16/16 18/18/18 17/17/17
f 17/17/17 19/19/19 16/16/16
f 20/20/20 17/17/17 18/18/18
f 18/18/18 21/21/21 20/20/20
f 22/22/22 24/24/24 23/23/23
f 23/23/23 25/25/25 22/22/22
f 26/26/26 23/23/23 24/24/24
f 24/24/24 27/27/27 26/26/26
f 28/28/28 30/30/30 29/29/29
f 29/29/29 31/31/31 28/28/28
f 32/32/32 34/34/34 33/33/33
f 33/33/33 35/35/35 32/32/32
f 36/36/36 38/38/38 37/37/37
f 37/37/37 39/39/39 36/36/36
f 40/40/40 42/42/42 41/41/41
f 41/41/41 43/43/43 40/40/40
f 44/44/44 40/40/40 43/43/43
f 43/43/43 45/45/45 44/44/44
f 46/46/46 48/48/48 47/47/47
f 47/47/47 49/49/49 46/46/46
