#hood_9802_1024.obj

v 0.3620819 0.03451022 0.06070915
v 0.765376 -0.1184516 1.185811
v 0.3630112 -0.09665076 1.334548
v 0.7800585 1.292579E-07 3.368693E-05
v -1.040828E-05 0.04296316 0.08171596
v 0.3630112 -0.09665076 1.334548
v -1.038836E-05 -0.08890372 1.362768
v 0.3620819 0.03451022 0.06070915
v -0.363032 -0.09665076 1.334544
v -0.3621055 0.03451022 0.06070808
v -0.3621055 0.03451022 0.06070808
v -0.7653978 -0.1184516 1.185813
v -0.7800826 1.292579E-07 3.450752E-05
v -0.363032 -0.09665076 1.334544
v 0.7624016 -0.1515998 1.182752
v 0.3601259 0.00473285 0.05763042
v 0.361231 -0.1264402 1.331481
v 0.77716 -0.02969881 -0.003056664
v 0.361231 -0.1264402 1.331481
v -1.143561E-05 0.01312073 0.07864572
v -1.141569E-05 -0.1187381 1.359698
v 0.3601259 0.00473285 0.05763042
v -0.7624235 -0.1481461 1.18275
v -0.360149 0.00473285 0.05763057
v -0.7771834 -0.02969881 -0.003053924
v -0.361255 -0.1264402 1.331478
v -0.361255 -0.1264402 1.331478
v -1.143561E-05 0.01312073 0.07864572
v -0.360149 0.00473285 0.05763057
v -1.141569E-05 -0.1187381 1.359698
v 0.7624016 -0.1515998 1.182752
v 0.7800585 1.292579E-07 3.368693E-05
v 0.77716 -0.02969881 -0.003056664
v 0.765376 -0.1184516 1.185811
v 0.77716 -0.02969881 -0.003056664
v 0.3620819 0.03451022 0.06070915
v 0.3601259 0.00473285 0.05763042
v 0.7800585 1.292579E-07 3.368693E-05
v -1.040828E-05 0.04296316 0.08171596
v -1.143561E-05 0.01312073 0.07864572
v 0.361231 -0.1264402 1.331481
v 0.765376 -0.1184516 1.185811
v 0.7624016 -0.1515998 1.182752
v 0.3630112 -0.09665076 1.334548
v -1.141569E-05 -0.1187381 1.359698
v -1.038836E-05 -0.08890372 1.362768
v -0.7624235 -0.1481461 1.18275
v -0.363032 -0.09665076 1.334544
v -0.361255 -0.1264402 1.331478
v -0.7653978 -0.1184516 1.185813
v -1.038836E-05 -0.08890372 1.362768
v -1.141569E-05 -0.1187381 1.359698
v -0.360149 0.00473285 0.05763057
v -0.7800826 1.292579E-07 3.450752E-05
v -0.7771834 -0.02969881 -0.003053924
v -0.3621055 0.03451022 0.06070808
v -1.143561E-05 0.01312073 0.07864572
v -1.040828E-05 0.04296316 0.08171596
v -0.7771834 -0.02969881 -0.003053924
v -0.7653978 -0.1184516 1.185813
v -0.7624235 -0.1481461 1.18275
v -0.7800826 1.292579E-07 3.450752E-05

vn 0.1245863 0.9903629 -0.06047923
vn 0.124729 0.9905372 -0.05724178
vn 0.1247714 0.9905874 -0.05627255
vn 0.1245395 0.9903037 -0.06153511
vn 0.09761252 0.9947422 0.03094854
vn 0.1063831 0.9943193 0.003125785
vn 0.09760673 0.9947428 0.03094671
vn 0.1063825 0.9943193 0.003147777
vn 0.08874963 0.9943193 0.05874223
vn 0.08876196 0.9943193 0.05872376
vn 0.06697902 0.9903629 0.121216
vn 0.06896106 0.9905372 0.1186521
vn 0.06633236 0.9903037 0.122052
vn 0.06955425 0.9905874 0.1178843
vn -0.1272701 -0.9898147 0.06377439
vn -0.1273596 -0.9899323 0.06173711
vn -0.1272433 -0.9897788 0.06438193
vn -0.1273885 -0.9899697 0.06107508
vn -0.1063828 -0.9943194 -0.003112908
vn -0.09761524 -0.9947419 -0.03094941
vn -0.09760105 -0.9947434 -0.03094491
vn -0.1063813 -0.9943194 -0.003167201
vn -0.06894892 -0.9905345 -0.1186817
vn -0.06696601 -0.9903594 -0.1212509
vn -0.06632201 -0.9903004 -0.1220848
vn -0.0695398 -0.9905847 -0.1179157
vn -0.08874194 -0.9943194 -0.05875257
vn -0.09761524 -0.9947419 -0.03094941
vn -0.08877217 -0.9943193 -0.0587072
vn -0.09760105 -0.9947434 -0.03094491
vn 0.3042013 -0.08984565 -0.9483614
vn 0.3030684 -0.09730808 -0.9479877
vn 0.3030474 -0.09744562 -0.9479803
vn 0.3042201 -0.089721 -0.9483672
vn -0.9786289 0.1151936 -0.1703424
vn -0.9719169 0.1086525 -0.2087407
vn -0.9719204 0.1084321 -0.2088394
vn -0.9785987 0.1154082 -0.1703709
vn -0.9482611 0.1025134 -0.3004874
vn -0.9482634 0.1025099 -0.3004813
vn 0.9891853 -0.1124935 0.09411764
vn 0.9923398 -0.1166084 -0.04080096
vn 0.9923384 -0.1166207 -0.04080117
vn 0.9891669 -0.112356 0.0944764
vn 0.9481561 -0.1025567 0.3008032
vn 0.9481579 -0.1025604 0.3007964
vn 0.786681 -0.1293511 0.6036572
vn 0.8627236 -0.1127952 0.492936
vn 0.8627337 -0.1123718 0.4930151
vn 0.7866635 -0.1299509 0.6035511
vn 0.9481579 -0.1025604 0.3007964
vn 0.9481561 -0.1025567 0.3008032
vn -0.9146822 0.1086422 -0.3892992
vn -0.8978631 0.1152191 -0.4249318
vn -0.8978413 0.1154361 -0.4249188
vn -0.9146571 0.1084338 -0.3894164
vn -0.9482634 0.1025099 -0.3004813
vn -0.9482611 0.1025134 -0.3004874
vn -0.2983229 -0.09750817 0.9494712
vn -0.2984248 -0.09992533 0.9491879
vn -0.2984264 -0.09996537 0.949183
vn -0.2983212 -0.0974681 0.9494759

vt 0.293457 0.6391602
vt 0.232666 0.809082
vt 0.2932129 0.8310547
vt 0.2304688 0.6308594
vt 0.3476563 0.6420898
vt 0.2932129 0.8310547
vt 0.3476563 0.8349609
vt 0.293457 0.6391602
vt 0.4020996 0.8310547
vt 0.4018555 0.6391602
vt 0.4018555 0.6391602
vt 0.4626465 0.809082
vt 0.4648438 0.6308594
vt 0.4020996 0.8310547
vt 0.2053223 0.5507813
vt 0.15625 0.4130859
vt 0.1563721 0.5683594
vt 0.2071533 0.4060059
vt 0.1563721 0.5683594
vt 0.1125488 0.4155273
vt 0.1125488 0.5717773
vt 0.15625 0.4130859
vt 0.2053223 0.5507813
vt 0.15625 0.4130859
vt 0.2071533 0.4060059
vt 0.1563721 0.5683594
vt 0.1563721 0.5683594
vt 0.1125488 0.4155273
vt 0.15625 0.4130859
vt 0.1125488 0.5717773
vt 0.2053223 0.5507813
vt 0.2108154 0.40625
vt 0.2071533 0.4060059
vt 0.2093506 0.5507813
vt 0.2071533 0.4060059
vt 0.1560059 0.4094238
vt 0.15625 0.4130859
vt 0.206665 0.4025879
vt 0.1122437 0.4118652
vt 0.1125488 0.4155273
vt 0.1563721 0.5683594
vt 0.206665 0.5546875
vt 0.2053223 0.5507813
vt 0.1571045 0.5717773
vt 0.1125488 0.5717773
vt 0.1127319 0.5751953
vt 0.2053223 0.5507813
vt 0.1572266 0.5717773
vt 0.1563721 0.5683594
vt 0.206543 0.5541992
vt 0.1127319 0.5751953
vt 0.1125488 0.5717773
vt 0.15625 0.4130859
vt 0.206665 0.4025879
vt 0.2071533 0.4060059
vt 0.1560059 0.4094238
vt 0.1125488 0.4155273
vt 0.1122437 0.4118652
vt 0.2071533 0.4060059
vt 0.2089844 0.5507813
vt 0.2053223 0.5507813
vt 0.2108154 0.40625

g hood_9802_1024
usemtl hood_9802_1024
usemap hood_9802_1024
f 1/1/1 3/3/3 2/2/2
f 2/2/2 4/4/4 1/1/1
f 5/5/5 7/7/7 6/6/6
f 6/6/6 8/8/8 5/5/5
f 9/9/9 7/7/7 5/5/5
f 5/5/5 10/10/10 9/9/9
f 11/11/11 13/13/13 12/12/12
f 12/12/12 14/14/14 11/11/11
f 15/15/15 17/17/17 16/16/16
f 16/16/16 18/18/18 15/15/15
f 19/19/19 21/21/21 20/20/20
f 20/20/20 22/22/22 19/19/19
f 23/23/23 25/25/25 24/24/24
f 24/24/24 26/26/26 23/23/23
f 27/27/27 29/29/29 28/28/28
f 28/28/28 30/30/30 27/27/27
f 31/31/31 33/33/33 32/32/32
f 32/32/32 34/34/34 31/31/31
f 35/35/35 37/37/37 36/36/36
f 36/36/36 38/38/38 35/35/35
f 39/39/39 36/36/36 37/37/37
f 37/37/37 40/40/40 39/39/39
f 41/41/41 43/43/43 42/42/42
f 42/42/42 44/44/44 41/41/41
f 45/45/45 41/41/41 44/44/44
f 44/44/44 46/46/46 45/45/45
f 47/47/47 49/49/49 48/48/48
f 48/48/48 50/50/50 47/47/47
f 51/51/51 48/48/48 49/49/49
f 49/49/49 52/52/52 51/51/51
f 53/53/53 55/55/55 54/54/54
f 54/54/54 56/56/56 53/53/53
f 57/57/57 53/53/53 56/56/56
f 56/56/56 58/58/58 57/57/57
f 59/59/59 61/61/61 60/60/60
f 60/60/60 62/62/62 59/59/59
