#hood_10595_594.obj

v 0.4887181 -0.02569751 1.005576
v 0.8859172 -0.1758007 1.059779
v 0.5250674 -0.1758245 1.114235
v 0.7791753 -0.02569393 0.9511042
v 0.2603903 0.02008085 0.0008621116
v 0.7618597 0.01435801 0.000860549
v 0.8859427 -0.1758281 0.0008581933
v 0.8859172 -0.1758007 1.059779
v 8.895604E-06 -0.1758249 1.162535
v 7.970856E-06 -0.02569592 1.053921
v 7.247853E-06 0.02008124 0.0008615422
v -0.4887029 -0.02569472 1.005573
v -0.5250543 -0.1758245 1.114237
v -0.8859028 -0.1758007 1.05978
v -0.7791775 -0.02569393 0.9511058
v -0.2603757 0.02008085 0.0008609728
v -0.7618452 0.01435801 0.0008625354
v -0.885925 -0.1758285 0.000858558
v -0.8859028 -0.1758007 1.05978
v 0.8737518 -0.1926561 1.048997
v 0.487426 -0.0446339 0.9954631
v 0.5230957 -0.1878639 1.098261
v 0.7691131 -0.04537379 0.9433588
v 0.2602856 4.290548E-08 -3.385733E-06
v 0.7508985 -0.005600807 3.205998E-05
v 0.869186 -0.1870981 0.000468182
v 0.8737518 -0.1926561 1.048997
v 7.463283E-06 -0.1876958 1.146245
v 6.79058E-06 -0.04493907 1.042953
v 7.61297E-06 4.290548E-08 -9.503114E-06
v -0.8737361 -0.1926561 1.049002
v -0.4873732 -0.0451914 0.9951684
v -0.7679836 -0.04539168 0.9435944
v -0.5230808 -0.1878639 1.098261
v -0.2602705 4.290548E-08 -2.905221E-06
v -0.7508839 -0.005600807 3.158307E-05
v -0.8692513 -0.1870449 0.000465893
v -0.8737361 -0.1926561 1.049002
v 7.463283E-06 -0.1876958 1.146245
v 6.79058E-06 -0.04493907 1.042953
v 7.61297E-06 4.290548E-08 -9.503114E-06
v 0.5230957 -0.1878639 1.098261
v 0.8859172 -0.1758007 1.059779
v 0.8737518 -0.1926561 1.048997
v 0.5250674 -0.1758245 1.114235
v 7.463283E-06 -0.1876958 1.146245
v 8.895604E-06 -0.1758249 1.162535
v -0.5230808 -0.1878639 1.098261
v -0.5250543 -0.1758245 1.114237
v -0.8737361 -0.1926561 1.049002
v -0.8859028 -0.1758007 1.05978
v 0.7508985 -0.005600807 3.205998E-05
v 0.2603903 0.02008085 0.0008621116
v 0.2602856 4.290548E-08 -3.385733E-06
v 0.7618597 0.01435801 0.000860549
v 0.869186 -0.1870981 0.000468182
v 0.8859427 -0.1758281 0.0008581933
v 7.247853E-06 0.02008124 0.0008615422
v 7.61297E-06 4.290548E-08 -9.503114E-06
v -0.2603757 0.02008085 0.0008609728
v -0.2602705 4.290548E-08 -2.905221E-06
v -0.7618452 0.01435801 0.0008625354
v -0.7508839 -0.005600807 3.158307E-05
v -0.885925 -0.1758285 0.000858558
v -0.8692513 -0.1870449 0.000465893
v 0.8737518 -0.1926561 1.048997
v 0.8859427 -0.1758281 0.0008581933
v 0.869186 -0.1870981 0.000468182
v 0.8859172 -0.1758007 1.059779
v -0.8692513 -0.1870449 0.000465893
v -0.8859028 -0.1758007 1.05978
v -0.8737361 -0.1926561 1.049002
v -0.885925 -0.1758285 0.000858558

vn 0.06286392 0.8805773 0.4697131
vn 0.5369239 0.7045598 0.4640123
vn 0.1043331 0.5989975 0.7939245
vn 0.4150907 0.8547856 0.3115129
vn 0.005591697 0.9990565 0.04304883
vn 0.471817 0.8813437 0.02491404
vn 0.8348452 0.5504841 0.0003808136
vn 0.5369239 0.7045598 0.4640123
vn 0.00623964 0.588954 0.8081421
vn 0.003824451 0.8688144 0.4951217
vn 0.000335197 0.9990556 0.04342842
vn -0.05560745 0.8805756 0.4706306
vn -0.0920668 0.5989854 0.7954491
vn -0.5297126 0.7045296 0.4722728
vn -0.4102678 0.8547699 0.3178794
vn -0.004926396 0.9990565 0.04312933
vn -0.4713728 0.8813457 0.03218517
vn -0.8347462 0.5504751 0.0132533
vn -0.5297126 0.7045296 0.4722728
vn -0.5404494 -0.7029471 -0.4623623
vn -0.063287 -0.8801869 -0.4703876
vn -0.1047735 -0.5963324 -0.7958703
vn -0.4159449 -0.8538057 -0.3130563
vn -0.005681162 -0.9990712 -0.04269411
vn -0.4714433 -0.8815571 -0.0244306
vn -0.8351682 -0.5499938 0.0004773065
vn -0.5404494 -0.7029471 -0.4623623
vn -0.005807831 -0.5885195 -0.8084617
vn -0.003223757 -0.869054 -0.4947054
vn -0.0003322509 -0.9990721 -0.04304673
vn 0.5319154 -0.7051604 -0.4688428
vn 0.05560074 -0.8805939 -0.4705971
vn 0.4080102 -0.8548256 -0.3206238
vn 0.09228699 -0.5989154 -0.7954764
vn 0.005046896 -0.9990653 -0.04291255
vn 0.47108 -0.8814992 -0.03226805
vn 0.8345016 -0.5508439 -0.01331877
vn 0.5319154 -0.7051604 -0.4688428
vn -0.005807831 -0.5885195 -0.8084617
vn -0.003223757 -0.869054 -0.4947054
vn -0.0003322509 -0.9990721 -0.04304673
vn 0.07692266 -0.7975532 0.5983232
vn 0.5402927 -0.6996115 0.4675754
vn 0.5457975 -0.6954035 0.4674595
vn 0.07657939 -0.8008386 0.5939629
vn 0.004756036 -0.8080941 0.589033
vn 0.004736324 -0.8080873 0.5890425
vn -0.05911602 -0.800799 0.5960076
vn -0.06007911 -0.7974313 0.6004103
vn -0.5471131 -0.6971238 0.463341
vn -0.5405087 -0.696373 0.4721376
vn 0.01088226 0.03149757 -0.9994446
vn -0.007431178 0.04311677 -0.9990423
vn -0.007429312 0.0431462 -0.9990411
vn 0.0100488 0.03103412 -0.9994678
vn 0.00977627 0.01128633 -0.9998885
vn 0.008621876 0.01067146 -0.9999059
vn -0.007700287 0.04342152 -0.9990271
vn -0.007700287 0.04342153 -0.9990271
vn -0.007967413 0.04314638 -0.999037
vn -0.007968724 0.04311704 -0.9990382
vn -0.02532917 0.03204986 -0.9991652
vn -0.02493941 0.03171284 -0.9991858
vn -0.02619614 0.009782727 -0.999609
vn -0.02519019 0.008984395 -0.9996423
vn 0.5457975 -0.6954035 0.4674595
vn 0.5617312 -0.8272449 -0.01108393
vn 0.5581556 -0.8296608 -0.01113669
vn 0.5402927 -0.6996115 0.4675754
vn -0.5617746 -0.8272785 0.004285716
vn -0.5405087 -0.696373 0.4721376
vn -0.5471131 -0.6971238 0.463341
vn -0.558108 -0.8297563 0.004341352

vt 0.3945313 0.4643555
vt 0.3432617 0.4802246
vt 0.388916 0.4873047
vt 0.3601074 0.4577637
vt 0.4230957 0.3378906
vt 0.3603516 0.3381348
vt 0.3317871 0.3391113
vt 0.3361816 0.472168
vt 0.4558105 0.4934082
vt 0.4558105 0.4702148
vt 0.4558105 0.3378906
vt 0.5170898 0.4643555
vt 0.5224609 0.4873047
vt 0.5683594 0.4802246
vt 0.5512695 0.4577637
vt 0.4882813 0.3378906
vt 0.5512695 0.3381348
vt 0.5795898 0.3391113
vt 0.5751953 0.472168
vt 0.6796875 0.2060547
vt 0.6694336 0.1741943
vt 0.6835938 0.1777344
vt 0.6655273 0.1954346
vt 0.5893555 0.1558838
vt 0.5893555 0.1953125
vt 0.590332 0.2127686
vt 0.6743164 0.2105713
vt 0.6875 0.1351318
vt 0.6733398 0.1351318
vt 0.5893555 0.1351318
vt 0.6796875 0.2060547
vt 0.6694336 0.1741943
vt 0.6655273 0.1954346
vt 0.6835938 0.1777344
vt 0.5893555 0.1558838
vt 0.5893555 0.1953125
vt 0.590332 0.2127686
vt 0.6743164 0.2104492
vt 0.6875 0.1351318
vt 0.6733398 0.1351318
vt 0.5893555 0.1351318
vt 0.388916 0.4873047
vt 0.3432617 0.4802246
vt 0.3432617 0.4802246
vt 0.388916 0.4873047
vt 0.4558105 0.4934082
vt 0.4558105 0.4934082
vt 0.5224609 0.4873047
vt 0.5224609 0.4873047
vt 0.5683594 0.4802246
vt 0.5683594 0.4802246
vt 0.3603516 0.3381348
vt 0.4230957 0.3378906
vt 0.4230957 0.3378906
vt 0.3603516 0.3381348
vt 0.3317871 0.3391113
vt 0.3317871 0.3391113
vt 0.4558105 0.3378906
vt 0.4558105 0.3378906
vt 0.4882813 0.3378906
vt 0.4882813 0.3378906
vt 0.5512695 0.3381348
vt 0.5512695 0.3381348
vt 0.5795898 0.3391113
vt 0.5795898 0.3391113
vt 0.3361816 0.472168
vt 0.3317871 0.3391113
vt 0.3317871 0.3391113
vt 0.3361816 0.472168
vt 0.5795898 0.3391113
vt 0.5751953 0.472168
vt 0.5751953 0.472168
vt 0.5795898 0.3391113

g hood_10595_594
usemtl hood_10595_594
usemap hood_10595_594
f 1/1/1 3/3/3 2/2/2
f 2/2/2 4/4/4 1/1/1
f 5/5/5 1/1/1 4/4/4
f 4/4/4 6/6/6 5/5/5
f 7/7/7 6/6/6 4/4/4
f 4/4/4 8/8/8 7/7/7
f 9/9/9 3/3/3 1/1/1
f 1/1/1 10/10/10 9/9/9
f 10/10/10 1/1/1 5/5/5
f 5/5/5 11/11/11 10/10/10
f 9/9/9 10/10/10 12/12/12
f 12/12/12 13/13/13 9/9/9
f 14/14/14 13/13/13 12/12/12
f 12/12/12 15/15/15 14/14/14
f 15/15/15 12/12/12 16/16/16
f 16/16/16 12/12/12 10/10/10
f 10/10/10 11/11/11 16/16/16
f 16/16/16 17/17/17 15/15/15
f 15/15/15 17/17/17 18/18/18
f 18/18/18 19/19/19 15/15/15
f 20/20/20 22/22/22 21/21/21
f 21/21/21 23/23/23 20/20/20
f 23/23/23 21/21/21 24/24/24
f 24/24/24 25/25/25 23/23/23
f 23/23/23 25/25/25 26/26/26
f 26/26/26 27/27/27 23/23/23
f 21/21/21 22/22/22 28/28/28
f 28/28/28 29/29/29 21/21/21
f 24/24/24 21/21/21 29/29/29
f 29/29/29 30/30/30 24/24/24
f 31/31/31 33/33/33 32/32/32
f 32/32/32 34/34/34 31/31/31
f 35/35/35 32/32/32 33/33/33
f 33/33/33 36/36/36 35/35/35
f 37/37/37 36/36/36 33/33/33
f 33/33/33 38/38/38 37/37/37
f 39/39/39 34/34/34 32/32/32
f 32/32/32 40/40/40 39/39/39
f 40/40/40 32/32/32 35/35/35
f 35/35/35 41/41/41 40/40/40
f 42/42/42 44/44/44 43/43/43
f 43/43/43 45/45/45 42/42/42
f 46/46/46 42/42/42 45/45/45
f 45/45/45 47/47/47 46/46/46
f 48/48/48 46/46/46 47/47/47
f 47/47/47 49/49/49 48/48/48
f 50/50/50 48/48/48 49/49/49
f 49/49/49 51/51/51 50/50/50
f 52/52/52 54/54/54 53/53/53
f 53/53/53 55/55/55 52/52/52
f 56/56/56 52/52/52 55/55/55
f 55/55/55 57/57/57 56/56/56
f 58/58/58 53/53/53 54/54/54
f 54/54/54 59/59/59 58/58/58
f 60/60/60 58/58/58 59/59/59
f 59/59/59 61/61/61 60/60/60
f 62/62/62 60/60/60 61/61/61
f 61/61/61 63/63/63 62/62/62
f 64/64/64 62/62/62 63/63/63
f 63/63/63 65/65/65 64/64/64
f 66/66/66 68/68/68 67/67/67
f 67/67/67 69/69/69 66/66/66
f 70/70/70 72/72/72 71/71/71
f 71/71/71 73/73/73 70/70/70
