#hood_8592_705.obj

v 0.4886766 -0.02569727 1.005628
v 0.8858786 -0.1758003 1.059834
v 0.5250272 -0.1758239 1.114293
v 0.7791319 -0.02569371 0.9511622
v 0.2603495 0.02008129 0.0009176823
v 0.7618181 0.01435835 0.000918705
v 0.8859022 -0.175828 0.0009150522
v 0.8858786 -0.1758003 1.059834
v -3.297099E-05 -0.1758248 1.16259
v -3.48936E-05 -0.02569593 1.053975
v -3.447541E-05 0.02008129 0.000918552
v -0.4887443 -0.0256946 1.00563
v -0.5250927 -0.1758239 1.114293
v -0.8859451 -0.1758003 1.059835
v -0.7792158 -0.02569371 0.9511612
v -0.2604185 0.02008129 0.000917642
v -0.7618834 0.01435835 0.0009182012
v -0.8859679 -0.1758284 0.0009165312
v -0.8859451 -0.1758003 1.059835
v 0.8737123 -0.1926558 1.049054
v 0.4873847 -0.0446335 0.9955201
v 0.5230548 -0.1878638 1.098318
v 0.7690734 -0.04537327 0.943414
v 0.260244 2.017473E-07 5.053309E-05
v 0.750856 -0.00560063 8.53935E-05
v 0.8691446 -0.1870978 0.0005226214
v 0.8737123 -0.1926558 1.049054
v -3.399552E-05 -0.1876958 1.1463
v -3.197061E-05 -0.04493877 1.04301
v -3.315313E-05 2.01747E-07 4.545043E-05
v -0.8737772 -0.1926558 1.049055
v -0.4874141 -0.045191 0.9952226
v -0.7680227 -0.04539154 0.9436495
v -0.5231194 -0.1878638 1.098318
v -0.2603097 2.017473E-07 5.104661E-05
v -0.750925 -0.00560063 8.599592E-05
v -0.8692933 -0.1870448 0.0005244716
v -0.8737772 -0.1926558 1.049055
v -3.399552E-05 -0.1876958 1.1463
v -3.197061E-05 -0.04493877 1.04301
v -3.315313E-05 2.01747E-07 4.545043E-05
v 0.5230548 -0.1878638 1.098318
v 0.8858786 -0.1758003 1.059834
v 0.8737123 -0.1926558 1.049054
v 0.5250272 -0.1758239 1.114293
v -3.399552E-05 -0.1876958 1.1463
v -3.297099E-05 -0.1758248 1.16259
v -0.5231194 -0.1878638 1.098318
v -0.5250927 -0.1758239 1.114293
v -0.8737772 -0.1926558 1.049055
v -0.8859451 -0.1758003 1.059835
v 0.750856 -0.00560063 8.53935E-05
v 0.2603495 0.02008129 0.0009176823
v 0.260244 2.017473E-07 5.053309E-05
v 0.7618181 0.01435835 0.000918705
v 0.8691446 -0.1870978 0.0005226214
v 0.8859022 -0.175828 0.0009150522
v -3.447541E-05 0.02008129 0.000918552
v -3.315313E-05 2.01747E-07 4.545043E-05
v -0.2604185 0.02008129 0.000917642
v -0.2603097 2.017473E-07 5.104661E-05
v -0.7618834 0.01435835 0.0009182012
v -0.750925 -0.00560063 8.599592E-05
v -0.8859679 -0.1758284 0.0009165312
v -0.8692933 -0.1870448 0.0005244716
v 0.8737123 -0.1926558 1.049054
v 0.8859022 -0.175828 0.0009150522
v 0.8691446 -0.1870978 0.0005226214
v 0.8858786 -0.1758003 1.059834
v -0.8692933 -0.1870448 0.0005244716
v -0.8859451 -0.1758003 1.059835
v -0.8737772 -0.1926558 1.049055
v -0.8859679 -0.1758284 0.0009165312

vn 0.4727523 0.8805771 -0.03297728
vn 0.4970985 0.7045597 -0.5064461
vn 0.7989397 0.5989974 -0.05382161
vn 0.3371864 0.8547854 -0.3945197
vn 0.04331662 0.9990562 -0.002852952
vn 0.05475741 0.8813434 -0.4692906
vn 0.05327424 0.550484 -0.8331437
vn 0.4970985 0.7045597 -0.5064461
vn 0.8069137 0.5889539 0.04497559
vn 0.4943692 0.8688142 0.02755341
vn 0.04336241 0.9990554 0.002417037
vn 0.4661618 0.8805754 0.08531419
vn 0.7880178 0.5989853 0.1422803
vn 0.4377623 0.7045295 0.5585709
vn 0.291247 0.8547698 0.4295839
vn 0.04273055 0.9990562 0.007649109
vn 0.002255227 0.8813455 0.472465
vn -0.03966125 0.5504749 0.8339088
vn 0.4377623 0.7045295 0.5585709
vn -0.4956753 -0.702947 0.510069
vn -0.4734523 -0.8801866 0.03335678
vn -0.8009095 -0.5963323 0.05413786
vn -0.3387808 -0.8538055 0.3952745
vn -0.04296828 -0.9990709 0.002964711
vn -0.05425127 -0.8815569 0.4689483
vn -0.05243832 -0.5499936 0.8335206
vn -0.4956753 -0.702947 0.510069
vn -0.8072054 -0.5885194 -0.04542678
vn -0.4939158 -0.8690537 -0.02812653
vn -0.04298129 -0.9990719 -0.002395794
vn -0.4341997 -0.7051603 -0.5605519
vn -0.4661289 -0.8805937 -0.08530538
vn -0.2941288 -0.8548254 -0.4275047
vn -0.7880311 -0.5989153 -0.1425018
vn -0.04250658 -0.999065 -0.007755633
vn -0.002356492 -0.881499 -0.472178
vn 0.03958042 -0.5508438 -0.8336689
vn -0.4341997 -0.7051603 -0.5605519
vn -0.8072054 -0.5885194 -0.04542678
vn -0.4939158 -0.8690537 -0.02812653
vn -0.04298129 -0.9990719 -0.002395794
vn 0.6019947 -0.7975531 -0.03885923
vn 0.5008679 -0.6996113 -0.5095823
vn 0.501101 -0.6954033 -0.5150833
vn 0.5976215 -0.8008385 -0.03879291
vn 0.5881509 -0.808094 0.03257379
vn 0.5881592 -0.8080872 0.03259406
vn 0.5910647 -0.8007988 0.09675941
vn 0.5953975 -0.7974312 0.09799952
vn 0.4277461 -0.6971236 0.5753704
vn 0.4369434 -0.6963729 0.5693367
vn -0.9967471 0.03149756 -0.07418375
vn -0.997506 0.04311676 -0.05588161
vn -0.9975047 0.04314619 -0.0558834
vn -0.9968231 0.03103411 -0.07335342
vn -0.9972603 0.01128632 -0.0731081
vn -0.9973507 0.01067145 -0.07195712
vn -0.9975079 0.04342151 -0.05561208
vn -0.9975079 0.04342151 -0.05561208
vn -0.9975346 0.04314636 -0.05534611
vn -0.9975359 0.04311702 -0.05534488
vn -0.9987626 0.03204985 -0.03802736
vn -0.9987585 0.03171283 -0.03841764
vn -0.9992604 0.009782724 -0.03719025
vn -0.9992299 0.008984393 -0.03819628
vn 0.501101 -0.6954033 -0.5150833
vn 0.02452856 -0.8272446 -0.5613049
vn 0.02424935 -0.8296605 -0.5577398
vn 0.5008679 -0.6996113 -0.5095823
vn -0.03131586 -0.8272783 0.5609175
vn 0.4369434 -0.6963729 0.5693367
vn 0.4277461 -0.6971236 0.5753704
vn -0.03102803 -0.829756 0.5572618

vt 0.3945313 0.4643555
vt 0.3432617 0.4802246
vt 0.388916 0.4873047
vt 0.3601074 0.4577637
vt 0.4230957 0.3378906
vt 0.3603516 0.3381348
vt 0.3317871 0.3391113
vt 0.3361816 0.472168
vt 0.4558105 0.4934082
vt 0.4558105 0.4702148
vt 0.4558105 0.3378906
vt 0.5170898 0.4643555
vt 0.5224609 0.4873047
vt 0.5683594 0.4802246
vt 0.5512695 0.4577637
vt 0.4882813 0.3378906
vt 0.5512695 0.3381348
vt 0.5795898 0.3391113
vt 0.5751953 0.472168
vt 0.6796875 0.2060547
vt 0.6694336 0.1741943
vt 0.6835938 0.1777344
vt 0.6655273 0.1954346
vt 0.5893555 0.1558838
vt 0.5893555 0.1953125
vt 0.590332 0.2127686
vt 0.6743164 0.2105713
vt 0.6875 0.1351318
vt 0.6733398 0.1351318
vt 0.5893555 0.1351318
vt 0.6796875 0.2060547
vt 0.6694336 0.1741943
vt 0.6655273 0.1954346
vt 0.6835938 0.1777344
vt 0.5893555 0.1558838
vt 0.5893555 0.1953125
vt 0.590332 0.2127686
vt 0.6743164 0.2104492
vt 0.6875 0.1351318
vt 0.6733398 0.1351318
vt 0.5893555 0.1351318
vt 0.388916 0.4873047
vt 0.3432617 0.4802246
vt 0.3432617 0.4802246
vt 0.388916 0.4873047
vt 0.4558105 0.4934082
vt 0.4558105 0.4934082
vt 0.5224609 0.4873047
vt 0.5224609 0.4873047
vt 0.5683594 0.4802246
vt 0.5683594 0.4802246
vt 0.3603516 0.3381348
vt 0.4230957 0.3378906
vt 0.4230957 0.3378906
vt 0.3603516 0.3381348
vt 0.3317871 0.3391113
vt 0.3317871 0.3391113
vt 0.4558105 0.3378906
vt 0.4558105 0.3378906
vt 0.4882813 0.3378906
vt 0.4882813 0.3378906
vt 0.5512695 0.3381348
vt 0.5512695 0.3381348
vt 0.5795898 0.3391113
vt 0.5795898 0.3391113
vt 0.3361816 0.472168
vt 0.3317871 0.3391113
vt 0.3317871 0.3391113
vt 0.3361816 0.472168
vt 0.5795898 0.3391113
vt 0.5751953 0.472168
vt 0.5751953 0.472168
vt 0.5795898 0.3391113

g hood_8592_705
usemtl hood_8592_705
usemap hood_8592_705
f 1/1/1 3/3/3 2/2/2
f 2/2/2 4/4/4 1/1/1
f 5/5/5 1/1/1 4/4/4
f 4/4/4 6/6/6 5/5/5
f 7/7/7 6/6/6 4/4/4
f 4/4/4 8/8/8 7/7/7
f 9/9/9 3/3/3 1/1/1
f 1/1/1 10/10/10 9/9/9
f 10/10/10 1/1/1 5/5/5
f 5/5/5 11/11/11 10/10/10
f 9/9/9 10/10/10 12/12/12
f 12/12/12 13/13/13 9/9/9
f 14/14/14 13/13/13 12/12/12
f 12/12/12 15/15/15 14/14/14
f 15/15/15 12/12/12 16/16/16
f 16/16/16 12/12/12 10/10/10
f 10/10/10 11/11/11 16/16/16
f 16/16/16 17/17/17 15/15/15
f 15/15/15 17/17/17 18/18/18
f 18/18/18 19/19/19 15/15/15
f 20/20/20 22/22/22 21/21/21
f 21/21/21 23/23/23 20/20/20
f 23/23/23 21/21/21 24/24/24
f 24/24/24 25/25/25 23/23/23
f 23/23/23 25/25/25 26/26/26
f 26/26/26 27/27/27 23/23/23
f 21/21/21 22/22/22 28/28/28
f 28/28/28 29/29/29 21/21/21
f 24/24/24 21/21/21 29/29/29
f 29/29/29 30/30/30 24/24/24
f 31/31/31 33/33/33 32/32/32
f 32/32/32 34/34/34 31/31/31
f 35/35/35 32/32/32 33/33/33
f 33/33/33 36/36/36 35/35/35
f 37/37/37 36/36/36 33/33/33
f 33/33/33 38/38/38 37/37/37
f 39/39/39 34/34/34 32/32/32
f 32/32/32 40/40/40 39/39/39
f 40/40/40 32/32/32 35/35/35
f 35/35/35 41/41/41 40/40/40
f 42/42/42 44/44/44 43/43/43
f 43/43/43 45/45/45 42/42/42
f 46/46/46 42/42/42 45/45/45
f 45/45/45 47/47/47 46/46/46
f 48/48/48 46/46/46 47/47/47
f 47/47/47 49/49/49 48/48/48
f 50/50/50 48/48/48 49/49/49
f 49/49/49 51/51/51 50/50/50
f 52/52/52 54/54/54 53/53/53
f 53/53/53 55/55/55 52/52/52
f 56/56/56 52/52/52 55/55/55
f 55/55/55 57/57/57 56/56/56
f 58/58/58 53/53/53 54/54/54
f 54/54/54 59/59/59 58/58/58
f 60/60/60 58/58/58 59/59/59
f 59/59/59 61/61/61 60/60/60
f 62/62/62 60/60/60 61/61/61
f 61/61/61 63/63/63 62/62/62
f 64/64/64 62/62/62 63/63/63
f 63/63/63 65/65/65 64/64/64
f 66/66/66 68/68/68 67/67/67
f 67/67/67 69/69/69 66/66/66
f 70/70/70 72/72/72 71/71/71
f 71/71/71 73/73/73 70/70/70
