#hood_10848_59.obj

v -0.01821101 -0.08568811 0.4744269
v 0.6811671 -0.2106029 0.4828055
v -0.02607422 -0.1914835 0.5740859
v 0.705961 -0.09920038 0.3832685
v -0.001180048 -0.02197482 0.09675635
v 0.8111272 -0.01035066 -0.02325837
v -0.7500986 -0.09255853 0.5595283
v -0.7508897 -0.01986427 0.4548342
v -0.8110435 0.06153627 -2.719744E-05
v 0.6864078 -0.2313591 0.4618315
v -0.01696733 -0.1121253 0.4567899
v -0.02409054 -0.2132739 0.5505528
v 0.7089496 -0.1254858 0.3682581
v -0.0009857857 -0.05375269 0.08578516
v 0.8110965 -0.04158569 -0.03274383
v -0.7498167 -0.1231842 0.5367774
v -0.01696733 -0.1121253 0.4567899
v -0.750676 -0.0513895 0.437808
v -0.02409054 -0.2132739 0.5505528
v -0.0009857857 -0.05375269 0.08578516
v -0.8109877 0.03333952 -0.01099257
v 0.6864078 -0.2313591 0.4618315
v 0.705961 -0.09920038 0.3832685
v 0.7089496 -0.1254858 0.3682581
v 0.6811671 -0.2106029 0.4828055
v 0.8111272 -0.01035066 -0.02325837
v 0.8110965 -0.04158569 -0.03274383
v -0.02409054 -0.2132739 0.5505528
v 0.6811671 -0.2106029 0.4828055
v 0.6864078 -0.2313591 0.4618315
v -0.02607422 -0.1914835 0.5740859
v 0.8110965 -0.04158569 -0.03274383
v -0.001180048 -0.02197482 0.09675635
v -0.0009857857 -0.05375269 0.08578516
v 0.8111272 -0.01035066 -0.02325837
v -0.7498167 -0.1231842 0.5367774
v -0.02607422 -0.1914835 0.5740859
v -0.02409054 -0.2132739 0.5505528
v -0.7500986 -0.09255853 0.5595283
v -0.750676 -0.0513895 0.437808
v -0.7500986 -0.09255853 0.5595283
v -0.7498167 -0.1231842 0.5367774
v -0.7508897 -0.01986427 0.4548342
v -0.8109877 0.03333952 -0.01099257
v -0.8110435 0.06153627 -2.719744E-05
v -0.0009857857 -0.05375269 0.08578516
v -0.8110435 0.06153627 -2.719744E-05
v -0.8109877 0.03333952 -0.01099257
v -0.001180048 -0.02197482 0.09675635

vn 0.4868993 0.8710295 0.06507905
vn 0.7480348 0.6523312 0.1220949
vn 0.7231351 0.6788357 0.1275023
vn 0.4496309 0.8898692 0.07722309
vn 0.1850433 0.9827275 -0.001923233
vn 0.213443 0.9757808 0.04787526
vn 0.5805761 0.8055606 0.1183309
vn 0.365988 0.929827 0.03838032
vn 0.1819685 0.9828922 -0.02843382
vn -0.750378 -0.6489084 -0.1258971
vn -0.4840372 -0.872274 -0.06960251
vn -0.7265291 -0.6737612 -0.1349096
vn -0.4468629 -0.8911176 -0.07887689
vn -0.1769211 -0.9842225 0.001755089
vn -0.2037769 -0.9778681 -0.04740255
vn -0.592422 -0.7951621 -0.12943
vn -0.4840372 -0.872274 -0.06960251
vn -0.3754684 -0.9257788 -0.04422119
vn -0.7265291 -0.6737612 -0.1349096
vn -0.1769211 -0.9842225 0.001755089
vn -0.191234 -0.9811217 0.02877224
vn 0.5190635 -0.001407678 -0.8547345
vn 0.5138303 -0.02053588 -0.857646
vn 0.5121734 -0.02261455 -0.8585843
vn 0.5215254 0.0003580329 -0.8532356
vn 0.5124801 -0.06975272 -0.8558612
vn 0.5119846 -0.0715112 -0.8560126
vn 0.645256 -0.7337596 0.2126981
vn 0.698487 -0.7007803 0.1449895
vn 0.6991729 -0.7000655 0.1451373
vn 0.6411396 -0.7324471 0.2290423
vn -0.9462373 0.2885813 -0.1461374
vn -0.9000282 0.3259124 -0.2893624
vn -0.9026531 0.3267221 -0.2801253
vn -0.9465145 0.2876608 -0.146156
vn 0.7298427 -0.5980197 0.3312126
vn 0.6411396 -0.7324471 0.2290423
vn 0.645256 -0.7337596 0.2126981
vn 0.7327548 -0.5940661 0.3318968
vn -0.2377653 -0.04136193 0.9704415
vn -0.2980718 -0.009741506 0.9544937
vn -0.2982073 -0.0101649 0.954447
vn -0.2447311 -0.036757 0.9688941
vn -0.1803461 -0.05061724 0.9823
vn -0.1802296 -0.04948221 0.9823793
vn -0.9026531 0.3267221 -0.2801253
vn -0.8351112 0.3577581 -0.41785
vn -0.8347219 0.3586938 -0.4178253
vn -0.9000282 0.3259124 -0.2893624

vt 0.4521484 0.6875
vt 0.4741211 0.7919922
vt 0.473877 0.6875
vt 0.4519043 0.7924805
vt 0.3967285 0.6875
vt 0.3835449 0.8007813
vt 0.4741211 0.5825195
vt 0.4519043 0.5825195
vt 0.3835449 0.5737305
vt 0.01649475 0.565918
vt 0.1207886 0.5444336
vt 0.1209717 0.5649414
vt 0.01603699 0.5444336
vt 0.1204224 0.4902344
vt 0.007278442 0.4768066
vt 0.01646423 0.565918
vt 0.1207886 0.5444336
vt 0.01603699 0.5444336
vt 0.1209106 0.5649414
vt 0.1204224 0.4902344
vt 0.007312775 0.4768066
vt 0.01649475 0.565918
vt 0.01196289 0.5449219
vt 0.01603699 0.5444336
vt 0.01243591 0.5664063
vt 0.003152847 0.4772949
vt 0.007278442 0.4768066
vt 0.1209717 0.5649414
vt 0.01644897 0.5703125
vt 0.01649475 0.565918
vt 0.1210327 0.5693359
vt 0.007278442 0.4768066
vt 0.1209106 0.486084
vt 0.1204224 0.4902344
vt 0.007774353 0.4726563
vt 0.01646423 0.565918
vt 0.1209717 0.5693359
vt 0.1209106 0.5649414
vt 0.01641846 0.5698242
vt 0.01603699 0.5444336
vt 0.01241302 0.565918
vt 0.01646423 0.565918
vt 0.01196289 0.5444336
vt 0.007312775 0.4768066
vt 0.003183365 0.4770508
vt 0.1204224 0.4902344
vt 0.007801056 0.4726563
vt 0.007312775 0.4768066
vt 0.1209106 0.486084

g hood_10848_59
usemtl hood_10848_59
usemap hood_10848_59
f 1/1/1 3/3/3 2/2/2
f 2/2/2 4/4/4 1/1/1
f 5/5/5 1/1/1 4/4/4
f 4/4/4 6/6/6 5/5/5
f 7/7/7 3/3/3 1/1/1
f 1/1/1 8/8/8 7/7/7
f 8/8/8 1/1/1 5/5/5
f 5/5/5 9/9/9 8/8/8
f 10/10/10 12/12/12 11/11/11
f 11/11/11 13/13/13 10/10/10
f 13/13/13 11/11/11 14/14/14
f 14/14/14 15/15/15 13/13/13
f 16/16/16 18/18/18 17/17/17
f 17/17/17 19/19/19 16/16/16
f 20/20/20 17/17/17 18/18/18
f 18/18/18 21/21/21 20/20/20
f 22/22/22 24/24/24 23/23/23
f 23/23/23 25/25/25 22/22/22
f 26/26/26 23/23/23 24/24/24
f 24/24/24 27/27/27 26/26/26
f 28/28/28 30/30/30 29/29/29
f 29/29/29 31/31/31 28/28/28
f 32/32/32 34/34/34 33/33/33
f 33/33/33 35/35/35 32/32/32
f 36/36/36 38/38/38 37/37/37
f 37/37/37 39/39/39 36/36/36
f 40/40/40 42/42/42 41/41/41
f 41/41/41 43/43/43 40/40/40
f 44/44/44 40/40/40 43/43/43
f 43/43/43 45/45/45 44/44/44
f 46/46/46 48/48/48 47/47/47
f 47/47/47 49/49/49 46/46/46
