#hood_9687_398.obj

v 0.655558 -0.05777191 1.131223
v 0.2453411 -0.04525132 1.23392
v 0.3546165 0.004629709 0.05494112
v 0.7503713 0.007317244 -0.002859748
v -0.0007670106 0.09985025 0.07475923
v -0.04619798 -0.02142376 1.26015
v -0.360769 -0.02760768 1.308787
v -0.3619544 0.09684249 0.05917492
v -0.7748489 -0.1085274 1.197093
v -0.7804905 0.004730233 0.0004111724
v 0.3518136 -0.02391445 0.05199987
v 0.2439358 -0.07489438 1.230904
v 0.6529458 -0.09082741 1.127744
v 0.7508802 -0.02288606 -0.005829511
v -0.001178779 0.07328799 0.07184273
v -0.04618699 -0.05124855 1.257269
v -0.3599957 0.07008043 0.05610799
v -0.7792577 -0.02277398 -0.002693361
v -0.773313 -0.1381756 1.193996
v -0.3590712 -0.05741382 1.305376
v -0.001178779 0.07328799 0.07184273
v -0.04618699 -0.05124855 1.257269
v 0.7503713 0.007317244 -0.002859748
v 0.7508802 -0.02288606 -0.005829511
v 0.6529458 -0.09082741 1.127744
v 0.6529458 -0.09082741 1.127744
v 0.655558 -0.05777191 1.131223
v 0.3546165 0.004629709 0.05494112
v 0.3518136 -0.02391445 0.05199987
v 0.7508802 -0.02288606 -0.005829511
v 0.7503713 0.007317244 -0.002859748
v -0.0007670106 0.09985025 0.07475923
v -0.001178779 0.07328799 0.07184273
v 0.655558 -0.05777191 1.131223
v 0.6529458 -0.09082741 1.127744
v 0.2439358 -0.07489438 1.230904
v 0.2453411 -0.04525132 1.23392
v -0.04618699 -0.05124855 1.257269
v -0.04619798 -0.02142376 1.26015
v -0.360769 -0.02760768 1.308787
v -0.3590712 -0.05741382 1.305376
v -0.773313 -0.1381756 1.193996
v -0.7748489 -0.1085274 1.197093
v -0.04619798 -0.02142376 1.26015
v -0.04618699 -0.05124855 1.257269
v -0.7804905 0.004730233 0.0004111724
v -0.7792577 -0.02277398 -0.002693361
v -0.3599957 0.07008043 0.05610799
v -0.3619544 0.09684249 0.05917492
v -0.001178779 0.07328799 0.07184273
v -0.0007670106 0.09985025 0.07475923
v -0.7748489 -0.1085274 1.197093
v -0.773313 -0.1381756 1.193996
v -0.7792577 -0.02277398 -0.002693361
v -0.7804905 0.004730233 0.0004111724

vn -0.1492488 0.9311994 -0.3325525
vn -0.0518696 0.9369465 -0.3455996
vn -0.07575816 0.9363791 -0.3427149
vn -0.1492488 0.9311994 -0.3325526
vn -0.07208286 0.9453514 -0.3179831
vn -0.08259962 0.9459318 -0.3136698
vn -0.2609572 0.9341127 -0.2435845
vn -0.2689261 0.9326428 -0.24053
vn -0.3610122 0.9101304 -0.2033008
vn -0.3610122 0.9101304 -0.2033008
vn 0.06982727 -0.9369314 0.3424649
vn 0.04643404 -0.9373689 0.3452269
vn 0.1422401 -0.9322526 0.3326728
vn 0.14224 -0.9322526 0.3326728
vn 0.06972784 -0.9460263 0.3164975
vn 0.08037381 -0.9466364 0.3121187
vn 0.2687071 -0.9332904 0.2382519
vn 0.3610694 -0.9105868 0.2011447
vn 0.3610694 -0.9105868 0.2011447
vn 0.260767 -0.9347646 0.2412764
vn 0.06972784 -0.9460263 0.3164975
vn 0.08037381 -0.9466364 0.3121187
vn 0.9678714 0.05133282 -0.2461504
vn 0.9678714 0.05133282 -0.2461504
vn 0.9678714 0.05133282 -0.2461504
vn 0.9678714 0.05133282 -0.2461504
vn 0.9678714 0.05133282 -0.2461504
vn -0.3795398 -0.3147308 -0.8699965
vn -0.382495 -0.3148645 -0.8686531
vn -0.4336108 -0.3166656 -0.843626
vn -0.4336108 -0.3166656 -0.843626
vn -0.2923702 -0.3070278 -0.9056785
vn -0.2969837 -0.3076938 -0.9039497
vn 0.5190379 0.3041527 0.798806
vn 0.5190379 0.3041527 0.798806
vn 0.4505299 0.3130648 0.8360702
vn 0.4480321 0.3133473 0.8373056
vn 0.4084611 0.3211372 0.8544182
vn 0.4102396 0.3211735 0.853552
vn 0.2691324 0.3049315 0.913556
vn 0.2563618 0.3033125 0.9177582
vn 0.07282437 0.2747986 0.9587401
vn 0.07282437 0.2747986 0.95874
vn 0.4102396 0.3211735 0.853552
vn 0.4084611 0.3211372 0.8544182
vn -0.196197 -0.2905225 -0.936538
vn -0.196197 -0.2905225 -0.936538
vn -0.2285959 -0.2965602 -0.9272519
vn -0.2306868 -0.2969395 -0.9266124
vn -0.2969837 -0.3076938 -0.9039497
vn -0.2923702 -0.3070278 -0.9056785
vn -0.9307477 -0.09945071 0.351878
vn -0.9307477 -0.09945071 0.351878
vn -0.9307477 -0.09945071 0.351878
vn -0.9307477 -0.09945071 0.351878

vt 0.232666 0.809082
vt 0.2932129 0.8310547
vt 0.293457 0.6391602
vt 0.2304688 0.6308594
vt 0.3476563 0.6420898
vt 0.3476563 0.8349609
vt 0.4020996 0.8310547
vt 0.4018555 0.6391602
vt 0.4626465 0.809082
vt 0.4648438 0.6308594
vt 0.15625 0.4130859
vt 0.1563721 0.5683594
vt 0.2053223 0.5507813
vt 0.2071533 0.4060059
vt 0.1125488 0.4155273
vt 0.1125488 0.5717773
vt 0.15625 0.4130859
vt 0.2071533 0.4060059
vt 0.2053223 0.5507813
vt 0.1563721 0.5683594
vt 0.1125488 0.4155273
vt 0.1125488 0.5717773
vt 0.2108154 0.40625
vt 0.2071533 0.4060059
vt 0.2053223 0.5507813
vt 0.2053223 0.5507813
vt 0.2093506 0.5507813
vt 0.1560059 0.4094238
vt 0.15625 0.4130859
vt 0.2071533 0.4060059
vt 0.206665 0.4025879
vt 0.1122437 0.4118652
vt 0.1125488 0.4155273
vt 0.206665 0.5546875
vt 0.2053223 0.5507813
vt 0.1563721 0.5683594
vt 0.1571045 0.5717773
vt 0.1125488 0.5717773
vt 0.1127319 0.5751953
vt 0.1572266 0.5717773
vt 0.1563721 0.5683594
vt 0.2053223 0.5507813
vt 0.206543 0.5541992
vt 0.1127319 0.5751953
vt 0.1125488 0.5717773
vt 0.206665 0.4025879
vt 0.2071533 0.4060059
vt 0.15625 0.4130859
vt 0.1560059 0.4094238
vt 0.1125488 0.4155273
vt 0.1122437 0.4118652
vt 0.2089844 0.5507813
vt 0.2053223 0.5507813
vt 0.2071533 0.4060059
vt 0.2108154 0.40625

g hood_9687_398
usemtl hood_9687_398
usemap hood_9687_398
f 1/1/1 3/3/3 2/2/2
f 1/1/1 4/4/4 3/3/3
f 2/2/2 3/3/3 5/5/5
f 2/2/2 5/5/5 6/6/6
f 7/7/7 6/6/6 5/5/5
f 7/7/7 5/5/5 8/8/8
f 9/9/9 7/7/7 8/8/8
f 9/9/9 8/8/8 10/10/10
f 11/11/11 13/13/13 12/12/12
f 11/11/11 14/14/14 13/13/13
f 15/15/15 11/11/11 12/12/12
f 15/15/15 12/12/12 16/16/16
f 17/17/17 19/19/19 18/18/18
f 17/17/17 20/20/20 19/19/19
f 21/21/21 20/20/20 17/17/17
f 21/21/21 22/22/22 20/20/20
f 23/23/23 25/25/25 24/24/24
f 23/23/23 27/27/27 26/26/26
f 28/28/28 30/30/30 29/29/29
f 28/28/28 31/31/31 30/30/30
f 32/32/32 28/28/28 29/29/29
f 32/32/32 29/29/29 33/33/33
f 34/34/34 36/36/36 35/35/35
f 34/34/34 37/37/37 36/36/36
f 37/37/37 38/38/38 36/36/36
f 37/37/37 39/39/39 38/38/38
f 40/40/40 42/42/42 41/41/41
f 40/40/40 43/43/43 42/42/42
f 44/44/44 40/40/40 41/41/41
f 44/44/44 41/41/41 45/45/45
f 46/46/46 48/48/48 47/47/47
f 46/46/46 49/49/49 48/48/48
f 49/49/49 50/50/50 48/48/48
f 49/49/49 51/51/51 50/50/50
f 52/52/52 54/54/54 53/53/53
f 52/52/52 55/55/55 54/54/54
