#hood_20092_236.obj

v 0.4887096 -0.02569779 1.005583
v 0.885911 -0.1758007 1.059788
v 0.5250608 -0.1758244 1.114246
v 0.779166 -0.02569409 0.9511168
v 0.2603835 0.0200808 0.0008726151
v 0.761852 0.01435792 0.0008710749
v 0.885934 -0.1758285 0.0008687299
v 0.885911 -0.1758007 1.059788
v 8.879136E-07 -0.1758252 1.162542
v 8.980513E-07 -0.02569624 1.053927
v 6.503508E-07 0.02008092 0.0008713574
v -0.4887087 -0.02569505 1.005581
v -0.52506 -0.1758244 1.114244
v -0.8859102 -0.1758007 1.059789
v -0.7791832 -0.02569409 0.951115
v -0.2603837 0.0200808 0.0008736253
v -0.7618508 0.01435792 0.0008716014
v -0.8859327 -0.1758287 0.0008699684
v -0.8859102 -0.1758007 1.059789
v 0.8737454 -0.192656 1.049007
v 0.4874187 -0.04463395 0.9954715
v 0.5230881 -0.187864 1.09827
v 0.7691063 -0.04537376 0.9433685
v 0.2602773 -2.414471E-07 3.894243E-06
v 0.7508906 -0.005601052 3.778657E-05
v 0.869179 -0.1870983 0.0004752775
v 0.8737454 -0.192656 1.049007
v 7.907597E-07 -0.187696 1.146253
v 5.931291E-08 -0.04493924 1.042964
v 3.703358E-07 -1.222381E-07 -9.518382E-07
v -0.873744 -0.192656 1.049007
v -0.4873796 -0.04519149 0.9951762
v -0.7679898 -0.04539164 0.9436015
v -0.5230867 -0.187864 1.098272
v -0.2602767 -2.414471E-07 6.264287E-06
v -0.7508888 -0.005601052 3.742096E-05
v -0.8692573 -0.1870449 0.0004766514
v -0.873744 -0.192656 1.049007
v 7.907597E-07 -0.187696 1.146253
v 5.931291E-08 -0.04493924 1.042964
v 3.703358E-07 -1.222381E-07 -9.518382E-07
v 0.5230881 -0.187864 1.09827
v 0.885911 -0.1758007 1.059788
v 0.8737454 -0.192656 1.049007
v 0.5250608 -0.1758244 1.114246
v 7.907597E-07 -0.187696 1.146253
v 8.879136E-07 -0.1758252 1.162542
v -0.5230867 -0.187864 1.098272
v -0.52506 -0.1758244 1.114244
v -0.873744 -0.192656 1.049007
v -0.8859102 -0.1758007 1.059789
v 0.7508906 -0.005601052 3.778657E-05
v 0.2603835 0.0200808 0.0008726151
v 0.2602773 -2.414471E-07 3.894243E-06
v 0.761852 0.01435792 0.0008710749
v 0.869179 -0.1870983 0.0004752775
v 0.885934 -0.1758285 0.0008687299
v 6.503508E-07 0.02008092 0.0008713574
v 3.703358E-07 -1.222381E-07 -9.518382E-07
v -0.2603837 0.0200808 0.0008736253
v -0.2602767 -2.414471E-07 6.264287E-06
v -0.7618508 0.01435792 0.0008716014
v -0.7508888 -0.005601052 3.742096E-05
v -0.8859327 -0.1758287 0.0008699684
v -0.8692573 -0.1870449 0.0004766514
v 0.8737454 -0.192656 1.049007
v 0.885934 -0.1758285 0.0008687299
v 0.869179 -0.1870983 0.0004752775
v 0.885911 -0.1758007 1.059788
v -0.8692573 -0.1870449 0.0004766514
v -0.8859102 -0.1758007 1.059789
v -0.873744 -0.192656 1.049007
v -0.8859327 -0.1758287 0.0008699684

vn -0.4247536 0.880578 0.2101587
vn -0.2673457 0.7045604 0.657359
vn -0.7185485 0.598998 0.353397
vn -0.1619647 0.8547863 0.4930598
vn -0.03898275 0.9990573 0.01910011
vn 0.1276904 0.8813444 0.4548925
vn 0.2673337 0.5504845 0.7908852
vn -0.2673457 0.7045604 0.657359
vn -0.7634693 0.5889544 0.265042
vn -0.4677516 0.8688151 0.162384
vn -0.0410278 0.9990565 0.01424288
vn -0.4636106 0.8805763 0.09823711
vn -0.7829686 0.5989859 0.1678564
vn -0.6171887 0.7045302 -0.3503074
vn -0.4326476 0.8547707 -0.286676
vn -0.04243165 0.9990573 0.009163212
vn -0.1816322 0.8813465 -0.4361629
vn -0.2802162 0.5504755 -0.7864196
vn -0.6171887 0.7045302 -0.3503074
vn 0.2646524 -0.7029477 -0.6601694
vn 0.4252568 -0.8801876 -0.2107757
vn 0.7202504 -0.5963328 -0.3544381
vn 0.1631526 -0.8538064 -0.4943638
vn 0.03861807 -0.999072 -0.01907111
vn -0.1280285 -0.8815578 -0.4543835
vn -0.2682501 -0.5499942 -0.790916
vn 0.2646524 -0.7029477 -0.6601694
vn 0.7639105 -0.58852 -0.2647355
vn 0.46755 -0.8690547 -0.1616815
vn 0.04066721 -0.999073 -0.0141177
vn 0.6146462 -0.705161 0.3534938
vn 0.4635768 -0.8805946 -0.09823273
vn 0.434523 -0.8548263 0.2836577
vn 0.7830651 -0.5989159 -0.1676566
vn 0.04226495 -0.9990661 -0.008979563
vn 0.1816168 -0.8814999 0.4358589
vn 0.2801998 -0.5508443 0.786167
vn 0.6146462 -0.705161 0.3534938
vn 0.7639105 -0.58852 -0.2647355
vn 0.46755 -0.8690547 -0.1616815
vn 0.04066721 -0.999073 -0.0141177
vn -0.5420647 -0.7975539 0.2647141
vn -0.2696404 -0.699612 0.6616924
vn -0.2677656 -0.6954041 0.6668693
vn -0.5380448 -0.8008393 0.2629908
vn -0.5564055 -0.8080948 0.1933791
vn -0.5564209 -0.808088 0.1933635
vn -0.5834925 -0.8007996 0.1351161
vn -0.5879715 -0.797432 0.1356156
vn -0.6143081 -0.6971243 -0.369653
vn -0.6205224 -0.6963736 -0.3605768
vn 0.9501607 0.0314976 -0.3101656
vn 0.9439074 0.04311681 -0.3273831
vn 0.943907 0.04314624 -0.327381
vn 0.9499154 0.03103414 -0.3109625
vn 0.9502265 0.01128634 -0.3113556
vn 0.9498729 0.01067147 -0.3124546
vn 0.9438068 0.04342156 -0.3276331
vn 0.9438068 0.04342156 -0.3276331
vn 0.9437305 0.04314641 -0.3278893
vn 0.9437312 0.04311707 -0.3278909
vn 0.9382849 0.03204989 -0.3443754
vn 0.9384293 0.03171287 -0.3440129
vn 0.9384272 0.009782734 -0.3453389
vn 0.9387812 0.008984403 -0.3443968
vn -0.2677656 -0.6954041 0.6668693
vn 0.1906187 -0.8272455 0.5285162
vn 0.1895221 -0.8296614 0.5251125
vn -0.2696404 -0.699612 0.6616924
vn -0.1841934 -0.8272792 -0.5307372
vn -0.6205224 -0.6963736 -0.3605768
vn -0.6143081 -0.6971243 -0.369653
vn -0.1830703 -0.8297569 -0.5272463

vt 0.3945313 0.4643555
vt 0.3432617 0.4802246
vt 0.388916 0.4873047
vt 0.3601074 0.4577637
vt 0.4230957 0.3378906
vt 0.3603516 0.3381348
vt 0.3317871 0.3391113
vt 0.3361816 0.472168
vt 0.4558105 0.4934082
vt 0.4558105 0.4702148
vt 0.4558105 0.3378906
vt 0.5170898 0.4643555
vt 0.5224609 0.4873047
vt 0.5683594 0.4802246
vt 0.5512695 0.4577637
vt 0.4882813 0.3378906
vt 0.5512695 0.3381348
vt 0.5795898 0.3391113
vt 0.5751953 0.472168
vt 0.6796875 0.2060547
vt 0.6694336 0.1741943
vt 0.6835938 0.1777344
vt 0.6655273 0.1954346
vt 0.5893555 0.1558838
vt 0.5893555 0.1953125
vt 0.590332 0.2127686
vt 0.6743164 0.2105713
vt 0.6875 0.1351318
vt 0.6733398 0.1351318
vt 0.5893555 0.1351318
vt 0.6796875 0.2060547
vt 0.6694336 0.1741943
vt 0.6655273 0.1954346
vt 0.6835938 0.1777344
vt 0.5893555 0.1558838
vt 0.5893555 0.1953125
vt 0.590332 0.2127686
vt 0.6743164 0.2104492
vt 0.6875 0.1351318
vt 0.6733398 0.1351318
vt 0.5893555 0.1351318
vt 0.388916 0.4873047
vt 0.3432617 0.4802246
vt 0.3432617 0.4802246
vt 0.388916 0.4873047
vt 0.4558105 0.4934082
vt 0.4558105 0.4934082
vt 0.5224609 0.4873047
vt 0.5224609 0.4873047
vt 0.5683594 0.4802246
vt 0.5683594 0.4802246
vt 0.3603516 0.3381348
vt 0.4230957 0.3378906
vt 0.4230957 0.3378906
vt 0.3603516 0.3381348
vt 0.3317871 0.3391113
vt 0.3317871 0.3391113
vt 0.4558105 0.3378906
vt 0.4558105 0.3378906
vt 0.4882813 0.3378906
vt 0.4882813 0.3378906
vt 0.5512695 0.3381348
vt 0.5512695 0.3381348
vt 0.5795898 0.3391113
vt 0.5795898 0.3391113
vt 0.3361816 0.472168
vt 0.3317871 0.3391113
vt 0.3317871 0.3391113
vt 0.3361816 0.472168
vt 0.5795898 0.3391113
vt 0.5751953 0.472168
vt 0.5751953 0.472168
vt 0.5795898 0.3391113

g hood_20092_236
usemtl hood_20092_236
usemap hood_20092_236
f 1/1/1 3/3/3 2/2/2
f 2/2/2 4/4/4 1/1/1
f 5/5/5 1/1/1 4/4/4
f 4/4/4 6/6/6 5/5/5
f 7/7/7 6/6/6 4/4/4
f 4/4/4 8/8/8 7/7/7
f 9/9/9 3/3/3 1/1/1
f 1/1/1 10/10/10 9/9/9
f 10/10/10 1/1/1 5/5/5
f 5/5/5 11/11/11 10/10/10
f 9/9/9 10/10/10 12/12/12
f 12/12/12 13/13/13 9/9/9
f 14/14/14 13/13/13 12/12/12
f 12/12/12 15/15/15 14/14/14
f 15/15/15 12/12/12 16/16/16
f 16/16/16 12/12/12 10/10/10
f 10/10/10 11/11/11 16/16/16
f 16/16/16 17/17/17 15/15/15
f 15/15/15 17/17/17 18/18/18
f 18/18/18 19/19/19 15/15/15
f 20/20/20 22/22/22 21/21/21
f 21/21/21 23/23/23 20/20/20
f 23/23/23 21/21/21 24/24/24
f 24/24/24 25/25/25 23/23/23
f 23/23/23 25/25/25 26/26/26
f 26/26/26 27/27/27 23/23/23
f 21/21/21 22/22/22 28/28/28
f 28/28/28 29/29/29 21/21/21
f 24/24/24 21/21/21 29/29/29
f 29/29/29 30/30/30 24/24/24
f 31/31/31 33/33/33 32/32/32
f 32/32/32 34/34/34 31/31/31
f 35/35/35 32/32/32 33/33/33
f 33/33/33 36/36/36 35/35/35
f 37/37/37 36/36/36 33/33/33
f 33/33/33 38/38/38 37/37/37
f 39/39/39 34/34/34 32/32/32
f 32/32/32 40/40/40 39/39/39
f 40/40/40 32/32/32 35/35/35
f 35/35/35 41/41/41 40/40/40
f 42/42/42 44/44/44 43/43/43
f 43/43/43 45/45/45 42/42/42
f 46/46/46 42/42/42 45/45/45
f 45/45/45 47/47/47 46/46/46
f 48/48/48 46/46/46 47/47/47
f 47/47/47 49/49/49 48/48/48
f 50/50/50 48/48/48 49/49/49
f 49/49/49 51/51/51 50/50/50
f 52/52/52 54/54/54 53/53/53
f 53/53/53 55/55/55 52/52/52
f 56/56/56 52/52/52 55/55/55
f 55/55/55 57/57/57 56/56/56
f 58/58/58 53/53/53 54/54/54
f 54/54/54 59/59/59 58/58/58
f 60/60/60 58/58/58 59/59/59
f 59/59/59 61/61/61 60/60/60
f 62/62/62 60/60/60 61/61/61
f 61/61/61 63/63/63 62/62/62
f 64/64/64 62/62/62 63/63/63
f 63/63/63 65/65/65 64/64/64
f 66/66/66 68/68/68 67/67/67
f 67/67/67 69/69/69 66/66/66
f 70/70/70 72/72/72 71/71/71
f 71/71/71 73/73/73 70/70/70
