#ladder02_19525_153.obj

v 0.2244819 -1.44742E-07 -0.05343423
v 0.331347 -2.122489E-07 0.05343132
v 0.3313465 -3.307051E-07 -0.05343411
v 0.2244824 -1.342905E-07 0.05343134
v 0.2244812 3.570418 -0.0534331
v 0.3313464 3.570417 0.05343264
v 0.2244819 3.570417 0.05343268
v 0.3313473 3.570418 -0.05343317
v 0.2244819 -1.44742E-07 -0.05343423
v 0.3313473 3.570418 -0.05343317
v 0.2244812 3.570418 -0.0534331
v 0.3313465 -3.307051E-07 -0.05343411
v 0.3313465 -3.307051E-07 -0.05343411
v 0.3313464 3.570417 0.05343264
v 0.3313473 3.570418 -0.05343317
v 0.331347 -2.122489E-07 0.05343132
v 0.331347 -2.122489E-07 0.05343132
v 0.2244819 3.570417 0.05343268
v 0.3313464 3.570417 0.05343264
v 0.2244824 -1.342905E-07 0.05343134
v 0.2244824 -1.342905E-07 0.05343134
v 0.2244812 3.570418 -0.0534331
v 0.2244819 3.570417 0.05343268
v 0.2244819 -1.44742E-07 -0.05343423
v -0.2244788 -3.504958E-07 -0.05343405
v -0.3313428 -1.540812E-07 0.0534314
v -0.2244783 -2.320396E-07 0.05343138
v -0.3313433 -1.682688E-07 -0.05343418
v -0.2244779 3.570418 -0.05343312
v -0.3313434 3.570417 0.05343256
v -0.3313441 3.570418 -0.05343306
v -0.2244789 3.570417 0.05343251
v -0.2244788 -3.504958E-07 -0.05343405
v -0.3313441 3.570418 -0.05343306
v -0.3313433 -1.682688E-07 -0.05343418
v -0.2244779 3.570418 -0.05343312
v -0.3313433 -1.682688E-07 -0.05343418
v -0.3313434 3.570417 0.05343256
v -0.3313428 -1.540812E-07 0.0534314
v -0.3313441 3.570418 -0.05343306
v -0.3313428 -1.540812E-07 0.0534314
v -0.2244789 3.570417 0.05343251
v -0.2244783 -2.320396E-07 0.05343138
v -0.3313434 3.570417 0.05343256
v -0.2244783 -2.320396E-07 0.05343138
v -0.2244779 3.570418 -0.05343312
v -0.2244788 -3.504958E-07 -0.05343405
v -0.2244789 3.570417 0.05343251
v 0.2446184 0.2802046 -0.01825915
v -0.2779114 0.3586357 -0.01825907
v -0.2779101 0.2802047 -0.01825912
v 0.2446187 0.3586358 -0.01825913
v 0.2446187 0.3586358 -0.01825913
v -0.2779109 0.3586358 0.01825703
v -0.2779114 0.3586357 -0.01825907
v 0.2446192 0.3586358 0.01825697
v 0.2446192 0.3586358 0.01825697
v -0.2779112 0.2802047 0.01825707
v -0.2779109 0.3586358 0.01825703
v 0.2446189 0.2802047 0.01825702
v 0.2446189 0.2802047 0.01825702
v -0.2779101 0.2802047 -0.01825912
v -0.2779112 0.2802047 0.01825707
v 0.2446184 0.2802046 -0.01825915
v 0.244619 0.8502046 -0.0182592
v -0.2779109 0.9286358 -0.01825934
v -0.2779111 0.8502045 -0.01825918
v 0.2446192 0.928636 -0.01825933
v 0.2446192 0.928636 -0.01825933
v -0.2779104 0.9286358 0.01825676
v -0.2779109 0.9286358 -0.01825934
v 0.2446181 0.9286358 0.01825679
v 0.2446181 0.9286358 0.01825679
v -0.2779107 0.8502046 0.01825692
v -0.2779104 0.9286358 0.01825676
v 0.2446178 0.8502045 0.01825692
v 0.2446178 0.8502045 0.01825692
v -0.2779111 0.8502045 -0.01825918
v -0.2779107 0.8502046 0.01825692
v 0.244619 0.8502046 -0.0182592
v 0.2446178 1.420205 -0.01825957
v -0.2779103 1.498636 -0.01825932
v -0.2779106 1.420205 -0.01825941
v 0.2446181 1.498636 -0.01825948
v 0.2446181 1.498636 -0.01825948
v -0.2779115 1.498636 0.0182568
v -0.2779103 1.498636 -0.01825932
v 0.2446186 1.498636 0.01825662
v 0.2446186 1.498636 0.01825662
v -0.2779101 1.420205 0.01825676
v -0.2779115 1.498636 0.0182568
v 0.2446183 1.420205 0.0182566
v 0.2446183 1.420205 0.0182566
v -0.2779106 1.420205 -0.01825941
v -0.2779101 1.420205 0.01825676
v 0.2446178 1.420205 -0.01825957
v 0.2446184 1.990204 -0.01825956
v -0.2779114 2.068636 -0.01825982
v -0.27791 1.990204 -0.0182597
v 0.2446187 2.068636 -0.0182597
v 0.2446187 2.068636 -0.0182597
v -0.277911 2.068636 0.01825634
v -0.2779114 2.068636 -0.01825982
v 0.2446191 2.068636 0.01825647
v 0.2446191 2.068636 0.01825647
v -0.2779112 1.990205 0.01825663
v -0.277911 2.068636 0.01825634
v 0.2446188 1.990205 0.01825644
v 0.2446188 1.990205 0.01825644
v -0.27791 1.990204 -0.0182597
v -0.2779112 1.990205 0.01825663
v 0.2446184 1.990204 -0.01825956
v 0.2446189 2.560205 -0.01825988
v -0.2779109 2.638636 -0.01825997
v -0.2779112 2.560205 -0.01826
v 0.2446193 2.638636 -0.01825985
v 0.2446193 2.638636 -0.01825985
v -0.2779104 2.638636 0.01825619
v -0.2779109 2.638636 -0.01825997
v 0.2446181 2.638636 0.01825634
v 0.2446181 2.638636 0.01825634
v -0.2779107 2.560205 0.01825631
v -0.2779104 2.638636 0.01825619
v 0.2446177 2.560205 0.01825645
v 0.2446177 2.560205 0.01825645
v -0.2779112 2.560205 -0.01826
v -0.2779107 2.560205 0.01825631
v 0.2446189 2.560205 -0.01825988
v 0.2446178 3.130205 -0.01825973
v -0.2779104 3.208636 -0.01825985
v -0.2779106 3.130205 -0.01825987
v 0.2446181 3.208636 -0.01826001
v 0.2446181 3.208636 -0.01826001
v -0.2779115 3.208636 0.0182562
v -0.2779104 3.208636 -0.01825985
v 0.2446185 3.208636 0.01825602
v 0.2446185 3.208636 0.01825602
v -0.2779102 3.130205 0.01825615
v -0.2779115 3.208636 0.0182562
v 0.2446183 3.130205 0.0182563
v 0.2446183 3.130205 0.0182563
v -0.2779106 3.130205 -0.01825987
v -0.2779102 3.130205 0.01825615
v 0.2446178 3.130205 -0.01825973

vn 0.664847 -0.7359482 0.1279008
vn 0.664847 -0.7359482 0.1279008
vn 0.664847 -0.7359482 0.1279008
vn 0.664847 -0.7359482 0.1279008
vn -0.6648362 0.7359581 -0.1279006
vn -0.6648362 0.7359581 -0.1279006
vn -0.6648362 0.7359581 -0.1279006
vn -0.6648362 0.7359581 -0.1279006
vn -0.7408245 -0.6715665 -0.01332076
vn -0.7408245 -0.6715665 -0.01332076
vn -0.7408245 -0.6715665 -0.01332076
vn -0.7408245 -0.6715665 -0.01332076
vn 0.09569731 -0.08589581 -0.9916975
vn 0.09569731 -0.08589581 -0.9916975
vn 0.09569731 -0.08589581 -0.9916975
vn 0.09569731 -0.08589581 -0.9916975
vn 0.7408245 0.6715665 0.01332076
vn 0.7408245 0.6715665 0.01332076
vn 0.7408245 0.6715665 0.01332076
vn 0.7408245 0.6715665 0.01332076
vn -0.09569731 0.08589581 0.9916975
vn -0.09569731 0.08589581 0.9916975
vn -0.09569731 0.08589581 0.9916975
vn -0.09569731 0.08589581 0.9916975
vn 0.664847 -0.7359482 0.1279008
vn 0.664847 -0.7359482 0.1279008
vn 0.664847 -0.7359482 0.1279008
vn 0.664847 -0.7359482 0.1279008
vn -0.6648389 0.7359555 -0.1279006
vn -0.6648389 0.7359555 -0.1279006
vn -0.6648389 0.7359555 -0.1279006
vn -0.6648389 0.7359555 -0.1279006
vn -0.7408245 -0.6715665 -0.01332076
vn -0.7408245 -0.6715665 -0.01332076
vn -0.7408245 -0.6715665 -0.01332076
vn -0.7408245 -0.6715665 -0.01332076
vn -0.09569731 0.08589581 0.9916975
vn -0.09569731 0.08589581 0.9916975
vn -0.09569731 0.08589581 0.9916975
vn -0.09569731 0.08589581 0.9916975
vn 0.7408245 0.6715665 0.01332076
vn 0.7408245 0.6715665 0.01332076
vn 0.7408245 0.6715665 0.01332076
vn 0.7408245 0.6715665 0.01332076
vn 0.09569731 -0.08589581 -0.9916975
vn 0.09569731 -0.08589581 -0.9916975
vn 0.09569731 -0.08589581 -0.9916975
vn 0.09569731 -0.08589581 -0.9916975
vn -0.7408242 -0.6715668 -0.0133207
vn -0.7408242 -0.6715668 -0.0133207
vn -0.7408242 -0.6715668 -0.0133207
vn -0.7408242 -0.6715668 -0.0133207
vn -0.664847 0.7359482 -0.1279008
vn -0.664847 0.7359482 -0.1279008
vn -0.664847 0.7359482 -0.1279008
vn -0.664847 0.7359482 -0.1279008
vn 0.7408242 0.6715668 0.0133207
vn 0.7408242 0.6715668 0.0133207
vn 0.7408242 0.6715668 0.0133207
vn 0.7408242 0.6715668 0.0133207
vn 0.664849 -0.7359465 0.1279008
vn 0.664849 -0.7359465 0.1279008
vn 0.664849 -0.7359465 0.1279008
vn 0.664849 -0.7359465 0.1279008
vn -0.7408242 -0.6715668 -0.0133207
vn -0.7408242 -0.6715668 -0.0133207
vn -0.7408242 -0.6715668 -0.0133207
vn -0.7408242 -0.6715668 -0.0133207
vn -0.664847 0.7359482 -0.1279008
vn -0.664847 0.7359482 -0.1279008
vn -0.664847 0.7359482 -0.1279008
vn -0.664847 0.7359482 -0.1279008
vn 0.7408242 0.6715668 0.0133207
vn 0.7408242 0.6715668 0.0133207
vn 0.7408242 0.6715668 0.0133207
vn 0.7408242 0.6715668 0.0133207
vn 0.664847 -0.7359482 0.1279008
vn 0.664847 -0.7359482 0.1279008
vn 0.664847 -0.7359482 0.1279008
vn 0.664847 -0.7359482 0.1279008
vn -0.7408242 -0.6715668 -0.0133207
vn -0.7408242 -0.6715668 -0.0133207
vn -0.7408242 -0.6715668 -0.0133207
vn -0.7408242 -0.6715668 -0.0133207
vn -0.664847 0.7359482 -0.1279008
vn -0.664847 0.7359482 -0.1279008
vn -0.664847 0.7359482 -0.1279008
vn -0.664847 0.7359482 -0.1279008
vn 0.7408242 0.6715668 0.0133207
vn 0.7408242 0.6715668 0.0133207
vn 0.7408242 0.6715668 0.0133207
vn 0.7408242 0.6715668 0.0133207
vn 0.664851 -0.7359447 0.1279009
vn 0.664851 -0.7359447 0.1279009
vn 0.664851 -0.7359447 0.1279009
vn 0.664851 -0.7359447 0.1279009
vn -0.7408242 -0.6715668 -0.0133207
vn -0.7408242 -0.6715668 -0.0133207
vn -0.7408242 -0.6715668 -0.0133207
vn -0.7408242 -0.6715668 -0.0133207
vn -0.664847 0.7359482 -0.1279008
vn -0.664847 0.7359482 -0.1279008
vn -0.664847 0.7359482 -0.1279008
vn -0.664847 0.7359482 -0.1279008
vn 0.7408242 0.6715668 0.0133207
vn 0.7408242 0.6715668 0.0133207
vn 0.7408242 0.6715668 0.0133207
vn 0.7408242 0.6715668 0.0133207
vn 0.664851 -0.7359447 0.1279009
vn 0.664851 -0.7359447 0.1279009
vn 0.664851 -0.7359447 0.1279009
vn 0.664851 -0.7359447 0.1279009
vn -0.7408242 -0.6715668 -0.0133207
vn -0.7408242 -0.6715668 -0.0133207
vn -0.7408242 -0.6715668 -0.0133207
vn -0.7408242 -0.6715668 -0.0133207
vn -0.664847 0.7359482 -0.1279008
vn -0.664847 0.7359482 -0.1279008
vn -0.664847 0.7359482 -0.1279008
vn -0.664847 0.7359482 -0.1279008
vn 0.7408242 0.6715668 0.0133207
vn 0.7408242 0.6715668 0.0133207
vn 0.7408242 0.6715668 0.0133207
vn 0.7408242 0.6715668 0.0133207
vn 0.6648549 -0.7359411 0.1279009
vn 0.6648549 -0.7359411 0.1279009
vn 0.6648549 -0.7359411 0.1279009
vn 0.6648549 -0.7359411 0.1279009
vn -0.7408242 -0.6715668 -0.0133207
vn -0.7408242 -0.6715668 -0.0133207
vn -0.7408242 -0.6715668 -0.0133207
vn -0.7408242 -0.6715668 -0.0133207
vn -0.664847 0.7359482 -0.1279008
vn -0.664847 0.7359482 -0.1279008
vn -0.664847 0.7359482 -0.1279008
vn -0.664847 0.7359482 -0.1279008
vn 0.7408242 0.6715668 0.0133207
vn 0.7408242 0.6715668 0.0133207
vn 0.7408242 0.6715668 0.0133207
vn 0.7408242 0.6715668 0.0133207
vn 0.664847 -0.7359482 0.1279008
vn 0.664847 -0.7359482 0.1279008
vn 0.664847 -0.7359482 0.1279008
vn 0.664847 -0.7359482 0.1279008

vt 0.8867188 0.9741211
vt 0.8691406 0.9921875
vt 0.8867188 0.9921875
vt 0.8691406 0.9741211
vt 0.8691406 0.9741211
vt 0.8867188 0.9921875
vt 0.8867188 0.9741211
vt 0.8691406 0.9921875
vt 0.9794922 0.7529297
vt 0.9970703 0.9970703
vt 0.9794922 0.9970703
vt 0.9970703 0.7529297
vt 0.9970703 0.7529297
vt 0.9794922 0.9970703
vt 0.9970703 0.9970703
vt 0.9794922 0.7529297
vt 0.9794922 0.7529297
vt 0.9619141 0.9970703
vt 0.9794922 0.9970703
vt 0.9619141 0.7529297
vt 0.9619141 0.7529297
vt 0.9794922 0.9970703
vt 0.9619141 0.9970703
vt 0.9794922 0.7529297
vt 0.8867188 0.9741211
vt 0.8691406 0.9921875
vt 0.8691406 0.9741211
vt 0.8867188 0.9921875
vt 0.8691406 0.9741211
vt 0.8867188 0.9921875
vt 0.8691406 0.9921875
vt 0.8867188 0.9741211
vt 0.9794922 0.7529297
vt 0.9970703 0.9970703
vt 0.9970703 0.7529297
vt 0.9794922 0.9970703
vt 0.9970703 0.7529297
vt 0.9794922 0.9970703
vt 0.9794922 0.7529297
vt 0.9970703 0.9970703
vt 0.9794922 0.7529297
vt 0.9619141 0.9970703
vt 0.9619141 0.7529297
vt 0.9794922 0.9970703
vt 0.9619141 0.7529297
vt 0.9794922 0.9970703
vt 0.9794922 0.7529297
vt 0.9619141 0.9970703
vt 0.9145508 0.9956055
vt 0.9472656 0.9179688
vt 0.9145508 0.9179688
vt 0.9472656 0.9956055
vt 0.9067383 0.9956055
vt 0.9145508 0.9179688
vt 0.9067383 0.9179688
vt 0.9145508 0.9956055
vt 0.9145508 0.9956055
vt 0.9472656 0.9179688
vt 0.9145508 0.9179688
vt 0.9472656 0.9956055
vt 0.9067383 0.9956055
vt 0.9145508 0.9179688
vt 0.9067383 0.9179688
vt 0.9145508 0.9956055
vt 0.9145508 0.9956055
vt 0.9472656 0.9179688
vt 0.9145508 0.9179688
vt 0.9472656 0.9956055
vt 0.9067383 0.9956055
vt 0.9145508 0.9179688
vt 0.9067383 0.9179688
vt 0.9145508 0.9956055
vt 0.9145508 0.9956055
vt 0.9472656 0.9179688
vt 0.9145508 0.9179688
vt 0.9472656 0.9956055
vt 0.9067383 0.9956055
vt 0.9145508 0.9179688
vt 0.9067383 0.9179688
vt 0.9145508 0.9956055
vt 0.9145508 0.9956055
vt 0.9472656 0.9179688
vt 0.9145508 0.9179688
vt 0.9472656 0.9956055
vt 0.9067383 0.9956055
vt 0.9145508 0.9179688
vt 0.9067383 0.9179688
vt 0.9145508 0.9956055
vt 0.9145508 0.9956055
vt 0.9472656 0.9179688
vt 0.9145508 0.9179688
vt 0.9472656 0.9956055
vt 0.9067383 0.9956055
vt 0.9145508 0.9179688
vt 0.9067383 0.9179688
vt 0.9145508 0.9956055
vt 0.9145508 0.9956055
vt 0.9472656 0.9179688
vt 0.9145508 0.9179688
vt 0.9472656 0.9956055
vt 0.9067383 0.9956055
vt 0.9145508 0.9179688
vt 0.9067383 0.9179688
vt 0.9145508 0.9956055
vt 0.9145508 0.9956055
vt 0.9472656 0.9179688
vt 0.9145508 0.9179688
vt 0.9472656 0.9956055
vt 0.9067383 0.9956055
vt 0.9145508 0.9179688
vt 0.9067383 0.9179688
vt 0.9145508 0.9956055
vt 0.9145508 0.9956055
vt 0.9472656 0.9179688
vt 0.9145508 0.9179688
vt 0.9472656 0.9956055
vt 0.9067383 0.9956055
vt 0.9145508 0.9179688
vt 0.9067383 0.9179688
vt 0.9145508 0.9956055
vt 0.9145508 0.9956055
vt 0.9472656 0.9179688
vt 0.9145508 0.9179688
vt 0.9472656 0.9956055
vt 0.9067383 0.9956055
vt 0.9145508 0.9179688
vt 0.9067383 0.9179688
vt 0.9145508 0.9956055
vt 0.9145508 0.9956055
vt 0.9472656 0.9179688
vt 0.9145508 0.9179688
vt 0.9472656 0.9956055
vt 0.9067383 0.9956055
vt 0.9145508 0.9179688
vt 0.9067383 0.9179688
vt 0.9145508 0.9956055
vt 0.9145508 0.9956055
vt 0.9472656 0.9179688
vt 0.9145508 0.9179688
vt 0.9472656 0.9956055
vt 0.9067383 0.9956055
vt 0.9145508 0.9179688
vt 0.9067383 0.9179688
vt 0.9145508 0.9956055

g ladder02_19525_153
usemtl ladder02_19525_153
usemap ladder02_19525_153
f 1/1/1 3/3/3 2/2/2
f 2/2/2 4/4/4 1/1/1
f 5/5/5 7/7/7 6/6/6
f 6/6/6 8/8/8 5/5/5
f 9/9/9 11/11/11 10/10/10
f 10/10/10 12/12/12 9/9/9
f 13/13/13 15/15/15 14/14/14
f 14/14/14 16/16/16 13/13/13
f 17/17/17 19/19/19 18/18/18
f 18/18/18 20/20/20 17/17/17
f 21/21/21 23/23/23 22/22/22
f 22/22/22 24/24/24 21/21/21
f 25/25/25 27/27/27 26/26/26
f 26/26/26 28/28/28 25/25/25
f 29/29/29 31/31/31 30/30/30
f 30/30/30 32/32/32 29/29/29
f 33/33/33 35/35/35 34/34/34
f 34/34/34 36/36/36 33/33/33
f 37/37/37 39/39/39 38/38/38
f 38/38/38 40/40/40 37/37/37
f 41/41/41 43/43/43 42/42/42
f 42/42/42 44/44/44 41/41/41
f 45/45/45 47/47/47 46/46/46
f 46/46/46 48/48/48 45/45/45
f 49/49/49 51/51/51 50/50/50
f 50/50/50 52/52/52 49/49/49
f 53/53/53 55/55/55 54/54/54
f 54/54/54 56/56/56 53/53/53
f 57/57/57 59/59/59 58/58/58
f 58/58/58 60/60/60 57/57/57
f 61/61/61 63/63/63 62/62/62
f 62/62/62 64/64/64 61/61/61
f 65/65/65 67/67/67 66/66/66
f 66/66/66 68/68/68 65/65/65
f 69/69/69 71/71/71 70/70/70
f 70/70/70 72/72/72 69/69/69
f 73/73/73 75/75/75 74/74/74
f 74/74/74 76/76/76 73/73/73
f 77/77/77 79/79/79 78/78/78
f 78/78/78 80/80/80 77/77/77
f 81/81/81 83/83/83 82/82/82
f 82/82/82 84/84/84 81/81/81
f 85/85/85 87/87/87 86/86/86
f 86/86/86 88/88/88 85/85/85
f 89/89/89 91/91/91 90/90/90
f 90/90/90 92/92/92 89/89/89
f 93/93/93 95/95/95 94/94/94
f 94/94/94 96/96/96 93/93/93
f 97/97/97 99/99/99 98/98/98
f 98/98/98 100/100/100 97/97/97
f 101/101/101 103/103/103 102/102/102
f 102/102/102 104/104/104 101/101/101
f 105/105/105 107/107/107 106/106/106
f 106/106/106 108/108/108 105/105/105
f 109/109/109 111/111/111 110/110/110
f 110/110/110 112/112/112 109/109/109
f 113/113/113 115/115/115 114/114/114
f 114/114/114 116/116/116 113/113/113
f 117/117/117 119/119/119 118/118/118
f 118/118/118 120/120/120 117/117/117
f 121/121/121 123/123/123 122/122/122
f 122/122/122 124/124/124 121/121/121
f 125/125/125 127/127/127 126/126/126
f 126/126/126 128/128/128 125/125/125
f 129/129/129 131/131/131 130/130/130
f 130/130/130 132/132/132 129/129/129
f 133/133/133 135/135/135 134/134/134
f 134/134/134 136/136/136 133/133/133
f 137/137/137 139/139/139 138/138/138
f 138/138/138 140/140/140 137/137/137
f 141/141/141 143/143/143 142/142/142
f 142/142/142 144/144/144 141/141/141
