#light_frontR_19238_159.obj

v -0.5250509 0.849221 2.417815
v -0.5250501 0.5298804 2.364268
v -0.8858497 0.5298804 2.309838
v -0.8858502 0.8492209 2.363386

vn -0.9698063 -0.16357 0.1808891
vn -0.9698063 -0.16357 0.1808891
vn -0.9698063 -0.16357 0.1808891
vn -0.9698063 -0.16357 0.1808891

vt 0.3867188 0.840332
vt 0.3842773 0.7392578
vt 0.2702637 0.7392578
vt 0.2727051 0.840332

g light_frontR_19238_159
usemtl light_frontR_19238_159
usemap light_frontR_19238_159
f 1/1/1 3/3/3 2/2/2
f 1/1/1 4/4/4 3/3/3
