#light_rearL_20353_160.obj

v 0.8858506 0.8911965 -2.379088
v 0.6951916 1.080032 -2.379085
v 0.6951918 0.4043394 -2.379085
v 0.8858498 0.4043395 -2.379085

vn 0.9446935 -1.694242E-06 -0.3279546
vn 0.9446935 -1.694242E-06 -0.3279546
vn 0.9446935 -1.694242E-06 -0.3279546
vn 0.9446935 -1.694243E-06 -0.3279546

vt 0.4956055 0.934082
vt 0.4353027 0.9936523
vt 0.4353027 0.7802734
vt 0.4956055 0.7802734

g light_rearL_20353_160
usemtl light_rearL_20353_160
usemap light_rearL_20353_160
f 1/1/1 3/3/3 2/2/2
f 1/1/1 4/4/4 3/3/3
