#light_frontL_20551_161.obj

v 0.5250513 0.8492209 2.417816
v 0.8858504 0.8492209 2.363384
v 0.8858497 0.5298804 2.309839
v 0.5250518 0.5298804 2.364268

vn -0.8732798 -0.1635701 0.4589416
vn -0.8732798 -0.1635701 0.4589416
vn -0.8732798 -0.1635701 0.4589416
vn -0.8732798 -0.1635701 0.4589416

vt 0.3867188 0.840332
vt 0.2727051 0.840332
vt 0.2702637 0.7392578
vt 0.3842773 0.7392578

g light_frontL_20551_161
usemtl light_frontL_20551_161
usemap light_frontL_20551_161
f 1/1/1 3/3/3 2/2/2
f 1/1/1 4/4/4 3/3/3
