#parkingIsland_3_11101_1830.obj

v 0.7499728 0.1499998 2.999949
v -0.7500235 0.15 -4.952282E-05
v 0.749972 0.15 -5.018192E-05
v -0.7500228 0.1499998 2.999953

vn -2.999882E-11 0.9999989 -4.371137E-08
vn -2.999882E-11 0.9999989 -4.371137E-08
vn -2.999882E-11 0.9999989 -4.371137E-08
vn -2.999882E-11 0.9999989 -4.371137E-08

vt 1 1
vt 5.960464E-08 0.5
vt 5.960464E-08 1
vt 1 0.5

g parkingIsland_3_11101_1830
usemtl parkingIsland_3_11101_1830
usemap parkingIsland_3_11101_1830
f 1/1/1 3/3/3 2/2/2
f 2/2/2 4/4/4 1/1/1
