#parkingIsland_endR_9010_1823.obj

v -0.7499986 0.1500001 2.139994
v 0.7500009 0.15 1.91782E-06
v 0.7500008 0.1500001 2.139995
v -0.7499984 0.15 2.592094E-06
v 0.6969475 0.1500001 2.4024
v -0.6969464 0.1500001 2.4024
v -0.5581551 0.1500001 2.608159
v 0.5581562 0.1500001 2.608158
v -0.3523962 0.1500001 2.74695
v 0.3523982 0.1500001 2.746949
v -0.08999066 0.1500001 2.800002
v 0.08999287 0.1500001 2.800002

vn 3.78071E-10 0.9999992 -4.370975E-08
vn 3.78071E-10 0.9999992 -4.370975E-08
vn 3.78071E-10 0.9999992 -4.370975E-08
vn 3.78071E-10 0.9999992 -4.370975E-08
vn 3.78071E-10 0.9999992 -4.370975E-08
vn 3.78071E-10 0.9999992 -4.370975E-08
vn 3.78071E-10 0.9999992 -4.370975E-08
vn 3.78071E-10 0.9999992 -4.370975E-08
vn 3.78071E-10 0.9999992 -4.370975E-08
vn 3.78071E-10 0.9999992 -4.370975E-08
vn 3.78071E-10 0.9999992 -4.370975E-08
vn 3.78071E-10 0.9999992 -4.370975E-08

vt 0.7133789 0.5
vt 1.192093E-07 1
vt 0.7133789 1
vt 1.192093E-07 0.5
vt 0.8007813 0.9824219
vt 0.8007813 0.5175781
vt 0.8696289 0.5639648
vt 0.8696289 0.9360352
vt 0.9155273 0.6323242
vt 0.9155273 0.8676758
vt 0.9331055 0.7202148
vt 0.9331055 0.7797852

g parkingIsland_endR_9010_1823
usemtl parkingIsland_endR_9010_1823
usemap parkingIsland_endR_9010_1823
f 1/1/1 3/3/3 2/2/2
f 2/2/2 4/4/4 1/1/1
f 5/5/5 3/3/3 1/1/1
f 1/1/1 6/6/6 5/5/5
f 5/5/5 6/6/6 7/7/7
f 7/7/7 8/8/8 5/5/5
f 8/8/8 7/7/7 9/9/9
f 9/9/9 10/10/10 8/8/8
f 10/10/10 9/9/9 11/11/11
f 11/11/11 12/12/12 10/10/10
