#parkingIsland_endL_10318_1807.obj

v -0.7499983 0.1500001 -2.139988
v 0.750001 0.15 4.774773E-06
v -0.7499984 0.15 3.00023E-06
v 0.7500027 0.1500001 -2.139988
v 0.696949 0.1500001 -2.402394
v -0.696945 0.1500001 -2.402394
v -0.5581537 0.1500001 -2.608152
v 0.5581576 0.1500001 -2.608152
v -0.3523941 0.15 -2.746944
v 0.3524003 0.15 -2.746944
v -0.08998871 0.15 -2.799995
v 0.08999482 0.15 -2.799995

vn 3.78071E-10 0.9999992 -4.370975E-08
vn 3.78071E-10 0.9999992 -4.370975E-08
vn 3.78071E-10 0.9999992 -4.370975E-08
vn 3.78071E-10 0.9999992 -4.370975E-08
vn 3.78071E-10 0.9999992 -4.370975E-08
vn 3.78071E-10 0.9999992 -4.370975E-08
vn 3.78071E-10 0.9999992 -4.370975E-08
vn 3.78071E-10 0.9999992 -4.370975E-08
vn 3.78071E-10 0.9999992 -4.370975E-08
vn 3.78071E-10 0.9999992 -4.370975E-08
vn 3.78071E-10 0.9999992 -4.370975E-08
vn 3.78071E-10 0.9999992 -4.370975E-08

vt 0.2866211 0.5
vt 1 1
vt 1 0.5
vt 0.2866211 1
vt 0.1992188 0.9824219
vt 0.1992188 0.5175781
vt 0.1306152 0.5639648
vt 0.1306152 0.9360352
vt 0.08435059 0.6323242
vt 0.08435059 0.8676758
vt 0.06665039 0.7202148
vt 0.06665039 0.7797852

g parkingIsland_endL_10318_1807
usemtl parkingIsland_endL_10318_1807
usemap parkingIsland_endL_10318_1807
f 1/1/1 3/3/3 2/2/2
f 2/2/2 4/4/4 1/1/1
f 1/1/1 4/4/4 5/5/5
f 5/5/5 6/6/6 1/1/1
f 7/7/7 6/6/6 5/5/5
f 5/5/5 8/8/8 7/7/7
f 9/9/9 7/7/7 8/8/8
f 8/8/8 10/10/10 9/9/9
f 11/11/11 9/9/9 10/10/10
f 10/10/10 12/12/12 11/11/11
