#parking_corner_8920_671.obj

v -0.2999718 -1.237941E-07 0.3000579
v -0.2999743 0.3000008 -2.999943
v -0.2999718 0.2999998 0.3000579
v -0.2999743 6.232428E-07 -2.999943
v -0.2999743 6.232428E-07 -2.999943
v 2.481951E-05 6.232427E-07 -2.999946
v 2.481951E-05 0.2250007 -2.999946
v -0.2999743 0.3000008 -2.999943
v -0.04997979 0.3000008 -2.999944
v -0.2999743 0.3000008 -2.999943
v -0.04997787 0.2999998 0.05005559
v -0.2999718 0.2999998 0.3000579
v -0.04997979 0.3000008 -2.999944
v -0.04997979 0.3000008 -2.999944
v 2.517856E-05 0.2249997 6.011229E-05
v -0.04997787 0.2999998 0.05005559
v 2.481951E-05 0.2250007 -2.999946
v 2.517856E-05 -1.369074E-07 6.012213E-05
v 3.000024 0.2249997 5.554693E-05
v 2.517856E-05 0.2249997 6.011229E-05
v 3.000031 -1.369076E-07 5.556162E-05
v -0.04997787 0.2999998 0.05005559
v 3.000026 0.2999998 0.3000582
v -0.2999718 0.2999998 0.3000579
v 3.000025 0.2999998 0.05005659
v 3.000026 0.2999998 0.3000582
v 3.000024 0.2249997 5.554693E-05
v 3.000026 -1.237941E-07 0.3000583
v 3.000025 0.2999998 0.05005659
v 3.000031 -1.369076E-07 5.556162E-05
v -0.04997787 0.2999998 0.05005559
v 3.000024 0.2249997 5.554693E-05
v 3.000025 0.2999998 0.05005659
v 2.517856E-05 0.2249997 6.011229E-05
v 2.481951E-05 6.232427E-07 -2.999946
v 2.517856E-05 0.2249997 6.011229E-05
v 2.481951E-05 0.2250007 -2.999946
v 2.517856E-05 -1.369074E-07 6.012213E-05
v 3.000026 -1.237941E-07 0.3000583
v -0.2999718 0.2999998 0.3000579
v 3.000026 0.2999998 0.3000582
v -0.2999718 -1.237941E-07 0.3000579

vn -0.9999998 -3.233853E-14 0.0006824882
vn -0.9999998 -3.233853E-14 0.0006824882
vn -0.9999998 -3.233853E-14 0.0006824882
vn -0.9999998 -3.233853E-14 0.0006824882
vn -0.000681999 4.371134E-08 -0.9999998
vn -0.000681999 4.371134E-08 -0.9999998
vn -0.000681999 4.371134E-08 -0.9999998
vn -0.000681999 4.371134E-08 -0.9999998
vn -0.000681999 4.371134E-08 -0.9999998
vn 1.019284E-07 0.9999989 2.97955E-07
vn 1.019284E-07 0.9999989 2.97955E-07
vn 1.019284E-07 0.9999989 2.97955E-07
vn 2.089391E-10 0.9999989 3.063626E-07
vn 0.83205 0.5546999 -0.0005677449
vn 0.83205 0.5546999 -0.0005677449
vn 0.83205 0.5546999 -0.0005677449
vn 0.83205 0.5546998 -0.0005677501
vn -0.0006836266 4.371134E-08 -0.9999998
vn -0.0006836266 4.371134E-08 -0.9999998
vn -0.0006836266 4.371134E-08 -0.9999998
vn -0.0006836266 4.371134E-08 -0.9999998
vn 1.417597E-10 0.9999989 2.078589E-07
vn 1.417597E-10 0.9999989 2.078589E-07
vn 1.417597E-10 0.9999989 2.078589E-07
vn 2.379408E-10 0.9999989 3.488871E-07
vn 0.9999998 0 -0.0006817484
vn 0.9999998 0 -0.0006817484
vn 0.9999998 0 -0.0006817484
vn 0.9999998 0 -0.0006817484
vn 0.9999998 5.425342E-06 -0.0006776794
vn -0.0005674575 0.5546996 -0.8320501
vn -0.0005674575 0.5546996 -0.8320501
vn -0.0005674575 0.5546996 -0.8320501
vn -0.0005688256 0.5546616 -0.8320755
vn 0.9999998 3.557232E-14 -0.0006825622
vn 0.9999998 3.557232E-14 -0.0006825622
vn 0.9999998 3.557233E-14 -0.0006825622
vn 0.9999998 3.557233E-14 -0.0006825622
vn 0.000681999 -4.371134E-08 0.9999998
vn 0.000681999 -4.371134E-08 0.9999998
vn 0.000681999 -4.371134E-08 0.9999998
vn 0.000681999 -4.371134E-08 0.9999998

vt 0.7890625 0.4428711
vt 0.9785156 0.421875
vt 0.7890625 0.4223633
vt 0.9785156 0.4396973
vt 0.9521484 0.4458008
vt 0.9716797 0.4458008
vt 0.9716797 0.4313965
vt 0.9521484 0.4265137
vt 0.9682617 0.4265137
vt 0.9785156 0.421875
vt 0.8037109 0.4060059
vt 0.7890625 0.4223633
vt 0.9785156 0.4060059
vt 0.9785156 0.4060059
vt 0.8061523 0.4001465
vt 0.8037109 0.4060059
vt 0.9785156 0.4001465
vt 0.9609375 0.3881836
vt 0.7890625 0.4006348
vt 0.9609375 0.4006348
vt 0.7890625 0.3881836
vt 0.9638672 0.4064941
vt 0.7890625 0.4228516
vt 0.9785156 0.4228516
vt 0.7890625 0.4064941
vt 0.9208984 0.4248047
vt 0.9399414 0.4294434
vt 0.9208984 0.4438477
vt 0.9370117 0.4248047
vt 0.9399414 0.4438477
vt 0.9638672 0.4064941
vt 0.7890625 0.4006348
vt 0.7890625 0.4064941
vt 0.9609375 0.4006348
vt 0.9785156 0.3859863
vt 0.8061523 0.4001465
vt 0.9785156 0.4001465
vt 0.8061523 0.3859863
vt 0.7890625 0.4418945
vt 0.9785156 0.4228516
vt 0.7890625 0.4228516
vt 0.9785156 0.4450684

g parking_corner_8920_671
usemtl parking_corner_8920_671
usemap parking_corner_8920_671
f 1/1/1 3/3/3 2/2/2
f 2/2/2 4/4/4 1/1/1
f 5/5/5 7/7/7 6/6/6
f 7/7/7 5/5/5 8/8/8
f 8/8/8 9/9/9 7/7/7
f 10/10/10 12/12/12 11/11/11
f 11/11/11 13/13/13 10/10/10
f 14/14/14 16/16/16 15/15/15
f 15/15/15 17/17/17 14/14/14
f 18/18/18 20/20/20 19/19/19
f 19/19/19 21/21/21 18/18/18
f 22/22/22 24/24/24 23/23/23
f 23/23/23 25/25/25 22/22/22
f 26/26/26 28/28/28 27/27/27
f 27/27/27 29/29/29 26/26/26
f 28/28/28 30/30/30 27/27/27
f 31/31/31 33/33/33 32/32/32
f 32/32/32 34/34/34 31/31/31
f 35/35/35 37/37/37 36/36/36
f 36/36/36 38/38/38 35/35/35
f 39/39/39 41/41/41 40/40/40
f 40/40/40 42/42/42 39/39/39
