#pillar01_A_2_9895_1277.obj

v -1.095574E-05 3 -0.2499942
v -0.2500103 3 7.207779E-06
v -0.2500105 3 -0.2499941
v -1.078069E-05 3 7.016551E-06

vn 9.465893E-10 0.9999995 -4.370117E-08
vn 9.465893E-10 0.9999995 -4.370117E-08
vn 9.465893E-10 0.9999995 -4.370117E-08
vn 9.465893E-10 0.9999995 -4.370117E-08

vt 0.2907715 0.7441406
vt 0.3337402 0.7011719
vt 0.2907715 0.7011719
vt 0.3337402 0.7441406

g pillar01_A_2_9895_1277
usemtl pillar01_A_2_9895_1277
usemap pillar01_A_2_9895_1277
f 1/1/1 3/3/3 2/2/2
f 2/2/2 4/4/4 1/1/1
