#pillar01_B_2_10341_1127.obj

v 2.498717E-06 3 -0.2000053
v -0.1999974 3 -7.093181E-06
v -0.1999975 3 -0.2000051
v 2.447586E-06 3 -7.283773E-06

vn 0.02056636 0.9997877 0.001319166
vn 0.02056636 0.9997877 0.001319166
vn 0.02056636 0.9997877 0.001319166
vn 0.02056636 0.9997877 0.001319166

vt 0.9892578 -0.3359375
vt 1.047852 -0.3947754
vt 0.9892578 -0.3947754
vt 1.047852 -0.3359375

g pillar01_B_2_10341_1127
usemtl pillar01_B_2_10341_1127
usemap pillar01_B_2_10341_1127
f 1/1/1 3/3/3 2/2/2
f 2/2/2 4/4/4 1/1/1
