#pillar01_A_10_10540_1231.obj

v 8.287356E-06 3 -0.2499972
v -0.2499923 3 2.738175E-06
v -0.2499924 3 -0.2499972
v 8.457385E-06 3 2.803611E-06

vn 0.02056631 0.9997873 0.001319122
vn 0.02056631 0.9997873 0.001319122
vn 0.02056631 0.9997873 0.001319122
vn 0.02056631 0.9997873 0.001319122

vt 0.2907715 0.7441406
vt 0.3337402 0.7011719
vt 0.2907715 0.7011719
vt 0.3337402 0.7441406

g pillar01_A_10_10540_1231
usemtl pillar01_A_10_10540_1231
usemap pillar01_A_10_10540_1231
f 1/1/1 3/3/3 2/2/2
f 2/2/2 4/4/4 1/1/1
