#pillar01_A_5_11109_1073.obj

v -5.208499E-06 3 -0.2500042
v -0.2500038 3 -4.061264E-06
v -0.2500059 3 -0.2500046
v -9.403389E-06 3 -4.479063E-06

vn 0.02056631 0.9997872 0.001319209
vn 0.02056631 0.9997872 0.001319209
vn 0.02056631 0.9997872 0.001319209
vn 0.02056631 0.9997872 0.001319209

vt 0.2907715 0.7441406
vt 0.3337402 0.7011719
vt 0.2907715 0.7011719
vt 0.3337402 0.7441406

g pillar01_A_5_11109_1073
usemtl pillar01_A_5_11109_1073
usemap pillar01_A_5_11109_1073
f 1/1/1 3/3/3 2/2/2
f 2/2/2 4/4/4 1/1/1
