#pillar01_A_1_8843_1175.obj

v -4.823095E-06 3 -0.2499952
v -0.2500048 3 3.070522E-06
v -0.2500054 3 -0.2499976
v -4.281122E-06 3 2.383916E-06

vn 0.02056627 0.9997874 0.001319166
vn 0.02056627 0.9997874 0.001319166
vn 0.02056627 0.9997874 0.001319166
vn 0.02056627 0.9997874 0.001319166

vt 0.2907715 0.7441406
vt 0.3337402 0.7011719
vt 0.2907715 0.7011719
vt 0.3337402 0.7441406

g pillar01_A_1_8843_1175
usemtl pillar01_A_1_8843_1175
usemap pillar01_A_1_8843_1175
f 1/1/1 3/3/3 2/2/2
f 2/2/2 4/4/4 1/1/1
