#pillar01_A_3_8644_1121.obj

v 2.484812E-06 3 -0.2500085
v -0.2499977 3 -7.310328E-06
v -0.2499976 3 -0.2500079
v 2.428027E-06 3 -7.935765E-06

vn -1.105977E-09 0.9999995 4.369738E-08
vn -1.105977E-09 0.9999995 4.369738E-08
vn -1.105977E-09 0.9999995 4.369738E-08
vn -1.105977E-09 0.9999995 4.369738E-08

vt 0.2907715 0.7441406
vt 0.3337402 0.7011719
vt 0.2907715 0.7011719
vt 0.3337402 0.7441406

g pillar01_A_3_8644_1121
usemtl pillar01_A_3_8644_1121
usemap pillar01_A_3_8644_1121
f 1/1/1 3/3/3 2/2/2
f 2/2/2 4/4/4 1/1/1
