#pillar01_middle_1_10435_1242.obj

v -0.2000006 3 0.1250002
v -0.2400006 5.463932E-09 0.1250002
v -0.2400006 3 0.1250001
v -0.2000006 5.46393E-09 0.1250001
v -0.2400006 3 -0.1249998
v -0.2000006 -5.463921E-09 -0.1249999
v -0.2000006 3 -0.1249999
v -0.2400006 -5.46392E-09 -0.1249999
v -0.2400006 3 0.1250001
v -0.2400006 -5.46392E-09 -0.1249999
v -0.2400006 3 -0.1249998
v -0.2400006 5.463932E-09 0.1250002

vn 0.001170043 -4.371138E-08 0.9999993
vn 0.001170043 -4.371138E-08 0.9999993
vn 0.001170043 -4.371138E-08 0.9999993
vn 0.001170043 -4.371138E-08 0.9999993
vn -0.001170043 4.371138E-08 -0.9999993
vn -0.001170043 4.371138E-08 -0.9999993
vn -0.001170043 4.371138E-08 -0.9999993
vn -0.001170043 4.371138E-08 -0.9999993
vn -0.9999994 0 0.001170043
vn -0.9999994 0 0.001170043
vn -0.9999994 0 0.001170043
vn -0.9999994 0 0.001170043

vt 0.06488037 0.7402344
vt 0.05630493 0.3181152
vt 0.05630493 0.7402344
vt 0.06488037 0.3181152
vt 0.01329803 0.7402344
vt 0.004695892 0.3181152
vt 0.004695892 0.7402344
vt 0.01329803 0.3181152
vt 0.05630493 0.7402344
vt 0.01329803 0.3181152
vt 0.01329803 0.7402344
vt 0.05630493 0.3181152

g pillar01_middle_1_10435_1242
usemtl pillar01_middle_1_10435_1242
usemap pillar01_middle_1_10435_1242
f 1/1/1 3/3/3 2/2/2
f 2/2/2 4/4/4 1/1/1
f 5/5/5 7/7/7 6/6/6
f 6/6/6 8/8/8 5/5/5
f 9/9/9 11/11/11 10/10/10
f 10/10/10 12/12/12 9/9/9
