#pillar01_B_10297_1189.obj

v 5.52703E-06 3 -0.1999975
v -0.1999941 3 2.495454E-06
v -0.1999961 3 -0.1999975
v 4.305102E-06 3 2.463328E-06

vn 3.779554E-10 0.9999992 -4.370975E-08
vn 3.779554E-10 0.9999992 -4.370975E-08
vn 3.779554E-10 0.9999992 -4.370975E-08
vn 3.779554E-10 0.9999992 -4.370975E-08

vt 0.9892578 -0.3359375
vt 1.047852 -0.3947754
vt 0.9892578 -0.3947754
vt 1.047852 -0.3359375

g pillar01_B_10297_1189
usemtl pillar01_B_10297_1189
usemap pillar01_B_10297_1189
f 1/1/1 3/3/3 2/2/2
f 2/2/2 4/4/4 1/1/1
