#pillar01_A_10771_1158.obj

v -1.007685E-05 3 -4.887042E-06
v -0.2500082 -2.197018E-07 -5.655995E-06
v -0.2500044 3 -5.413E-06
v -7.493095E-06 -2.729128E-07 -5.158932E-06
v -8.12072E-06 3 -0.2500054
v -7.493095E-06 -2.729128E-07 -5.158932E-06
v -1.007685E-05 3 -4.887042E-06
v -5.541055E-06 -1.522059E-07 -0.2500057
v -0.2500088 3 -0.2500044
v -5.541055E-06 -1.522059E-07 -0.2500057
v -8.12072E-06 3 -0.2500054
v -0.2500063 -2.955381E-07 -0.2500046
v -0.2500044 3 -5.413E-06
v -0.2500063 -2.955381E-07 -0.2500046
v -0.2500088 3 -0.2500044
v -0.2500082 -2.197018E-07 -5.655995E-06

vn -0.004544507 -0.001226088 0.9999888
vn -0.004544507 -0.001226088 0.9999888
vn -0.004544507 -0.001226088 0.9999888
vn -0.004544507 -0.001226088 0.9999888
vn 0.9997782 -0.02057207 0.004518528
vn 0.9997782 -0.02057207 0.004518528
vn 0.9997782 -0.02057207 0.004518528
vn 0.9997782 -0.02057207 0.004518528
vn 0.004544507 0.001226088 -0.9999888
vn 0.004544507 0.001226088 -0.9999888
vn 0.004544507 0.001226088 -0.9999888
vn 0.004544507 0.001226088 -0.9999888
vn -0.9997782 0.02057207 -0.004518528
vn -0.9997782 0.02057207 -0.004518528
vn -0.9997782 0.02057207 -0.004518528
vn -0.9997782 0.02057207 -0.004518528

vt 0.1723633 0.7392578
vt 0.1292725 0.3093262
vt 0.1292725 0.7392578
vt 0.1723633 0.3093262
vt 0.1292725 0.7392578
vt 0.08630371 0.3093262
vt 0.08630371 0.7392578
vt 0.1292725 0.3093262
vt 0.1723633 0.7392578
vt 0.1292725 0.3093262
vt 0.1292725 0.7392578
vt 0.1723633 0.3093262
vt 0.1292725 0.7392578
vt 0.08630371 0.3093262
vt 0.08630371 0.7392578
vt 0.1292725 0.3093262

g pillar01_A_10771_1158
usemtl pillar01_A_10771_1158
usemap pillar01_A_10771_1158
f 1/1/1 3/3/3 2/2/2
f 2/2/2 4/4/4 1/1/1
f 5/5/5 7/7/7 6/6/6
f 6/6/6 8/8/8 5/5/5
f 9/9/9 11/11/11 10/10/10
f 10/10/10 12/12/12 9/9/9
f 13/13/13 15/15/15 14/14/14
f 14/14/14 16/16/16 13/13/13
