#pillar01_A_11_9103_1067.obj

v -7.003727E-06 3 -0.2500008
v -0.2500083 3 -9.141694E-07
v -0.2500074 3 -0.2500009
v -7.944052E-06 3 -8.180614E-07

vn -3.375401E-10 0.9999993 -4.371008E-08
vn -3.375401E-10 0.9999993 -4.371008E-08
vn -3.375401E-10 0.9999993 -4.371008E-08
vn -3.375401E-10 0.9999993 -4.371008E-08

vt 0.2907715 0.7441406
vt 0.3337402 0.7011719
vt 0.2907715 0.7011719
vt 0.3337402 0.7441406

g pillar01_A_11_9103_1067
usemtl pillar01_A_11_9103_1067
usemap pillar01_A_11_9103_1067
f 1/1/1 3/3/3 2/2/2
f 2/2/2 4/4/4 1/1/1
