#pillar01_B_4_9495_1250.obj

v 3.651858E-06 3 -2.363043E-06
v -0.1999964 -1.396837E-07 -2.189978E-06
v -0.1999964 3 -2.189978E-06
v 3.651858E-06 -1.396837E-07 -2.363043E-06
v 3.435913E-06 3 -0.2000024
v 3.651858E-06 -1.396837E-07 -2.363043E-06
v 3.651858E-06 3 -2.363043E-06
v 3.435913E-06 -1.396837E-07 -0.2000024
v -0.1999966 3 -0.2000022
v 3.435913E-06 -1.396837E-07 -0.2000024
v 3.435913E-06 3 -0.2000024
v -0.1999966 -1.396837E-07 -0.2000022
v -0.1999964 3 -2.189978E-06
v -0.1999966 -1.396837E-07 -0.2000022
v -0.1999966 3 -0.2000022
v -0.1999964 -1.396837E-07 -2.189978E-06

vn 0.9999626 -1.454365E-07 0.008654084
vn 0.9999626 -1.454365E-07 0.008654084
vn 0.9999626 -1.454365E-07 0.008654084
vn 0.9999626 -1.454365E-07 0.008654084
vn 0.00865388 -2.244423E-14 -0.9999626
vn 0.00865388 -2.244423E-14 -0.9999626
vn 0.00865388 -2.244423E-14 -0.9999626
vn 0.00865388 -2.244423E-14 -0.9999626
vn -0.9999626 1.454365E-07 -0.008654084
vn -0.9999626 1.454365E-07 -0.008654084
vn -0.9999626 1.454365E-07 -0.008654084
vn -0.9999626 1.454365E-07 -0.008654084
vn -0.00865388 2.244423E-14 0.9999626
vn -0.00865388 2.244423E-14 0.9999626
vn -0.00865388 2.244423E-14 0.9999626
vn -0.00865388 2.244423E-14 0.9999626

vt 0.06665039 1
vt 0.1333008 0
vt 0.1333008 1
vt 0.06665039 0
vt -3.576279E-06 1
vt 0.06665039 0
vt 0.06665039 1
vt -3.516674E-06 0
vt 0.06665039 1
vt -9.536743E-07 -7.271767E-06
vt -8.940697E-07 1
vt 0.06665039 -7.271767E-06
vt 0.1333008 1
vt 0.06665039 -7.271767E-06
vt 0.06665039 1
vt 0.1333008 -7.271767E-06

g pillar01_B_4_9495_1250
usemtl pillar01_B_4_9495_1250
usemap pillar01_B_4_9495_1250
f 1/1/1 3/3/3 2/2/2
f 2/2/2 4/4/4 1/1/1
f 5/5/5 7/7/7 6/6/6
f 6/6/6 8/8/8 5/5/5
f 9/9/9 11/11/11 10/10/10
f 10/10/10 12/12/12 9/9/9
f 13/13/13 15/15/15 14/14/14
f 14/14/14 16/16/16 13/13/13
