#pillar01_A_4_8588_1103.obj

v 7.883598E-06 3 -0.2499981
v -0.249992 3 1.494397E-06
v -0.2499927 3 -0.2499991
v 8.496646E-06 3 7.836808E-07

vn 1.106001E-09 0.9999996 -4.369738E-08
vn 1.106001E-09 0.9999996 -4.369738E-08
vn 1.106001E-09 0.9999996 -4.369738E-08
vn 1.106001E-09 0.9999996 -4.369738E-08

vt 0.2907715 0.7441406
vt 0.3337402 0.7011719
vt 0.2907715 0.7011719
vt 0.3337402 0.7441406

g pillar01_A_4_8588_1103
usemtl pillar01_A_4_8588_1103
usemap pillar01_A_4_8588_1103
f 1/1/1 3/3/3 2/2/2
f 2/2/2 4/4/4 1/1/1
