#pillar01_middle_9266_1156.obj

v -0.199996 3 0.1249807
v -0.239996 1.649671E-07 0.1249794
v -0.239996 3 0.1249792
v -0.199996 1.649671E-07 0.1249809
v -0.239996 3 -0.1250185
v -0.199996 1.540394E-07 -0.1250169
v -0.199996 3 -0.125017
v -0.239996 1.540393E-07 -0.1250184
v -0.239996 3 0.1249792
v -0.239996 1.540393E-07 -0.1250184
v -0.239996 3 -0.1250185
v -0.239996 1.649671E-07 0.1249794

vn -0.02165253 -4.371136E-08 0.9997657
vn -0.02165253 -4.371136E-08 0.9997657
vn -0.02165253 -4.371136E-08 0.9997657
vn -0.02165253 -4.371136E-08 0.9997657
vn 0.02165253 4.371136E-08 -0.9997657
vn 0.02165253 4.371136E-08 -0.9997657
vn 0.02165253 4.371136E-08 -0.9997657
vn 0.02165253 4.371136E-08 -0.9997657
vn -0.9997656 -1.776356E-15 -0.02165278
vn -0.9997656 -1.776356E-15 -0.02165278
vn -0.9997656 -1.776356E-15 -0.02165278
vn -0.9997656 -1.776356E-15 -0.02165278

vt 0.06488037 0.7402344
vt 0.05630493 0.3181152
vt 0.05630493 0.7402344
vt 0.06488037 0.3181152
vt 0.01329803 0.7402344
vt 0.004695892 0.3181152
vt 0.004695892 0.7402344
vt 0.01329803 0.3181152
vt 0.05630493 0.7402344
vt 0.01329803 0.3181152
vt 0.01329803 0.7402344
vt 0.05630493 0.3181152

g pillar01_middle_9266_1156
usemtl pillar01_middle_9266_1156
usemap pillar01_middle_9266_1156
f 1/1/1 3/3/3 2/2/2
f 2/2/2 4/4/4 1/1/1
f 5/5/5 7/7/7 6/6/6
f 6/6/6 8/8/8 5/5/5
f 9/9/9 11/11/11 10/10/10
f 10/10/10 12/12/12 9/9/9
