#pillar01_B_4_9495_1249.obj

v 3.435913E-06 3 -0.2000024
v -0.1999964 3 -2.189978E-06
v -0.1999966 3 -0.2000022
v 3.651858E-06 3 -2.363043E-06

vn 4.370977E-08 0.9999992 3.78258E-10
vn 4.370977E-08 0.9999992 3.78258E-10
vn 4.370977E-08 0.9999992 3.78258E-10
vn 4.370977E-08 0.9999992 3.78258E-10

vt 0.9892578 -0.3359375
vt 1.047852 -0.3947754
vt 0.9892578 -0.3947754
vt 1.047852 -0.3359375

g pillar01_B_4_9495_1249
usemtl pillar01_B_4_9495_1249
usemap pillar01_B_4_9495_1249
f 1/1/1 3/3/3 2/2/2
f 2/2/2 4/4/4 1/1/1
