#pillar01_A_4_9110_1144.obj

v 4.2761E-06 3 -1.270112E-05
v -0.2499957 -1.336993E-07 -7.25421E-06
v -0.2499957 3 -9.970395E-06
v 4.349536E-06 -1.431599E-07 -9.989249E-06
v 4.383685E-06 3 -0.2500071
v 4.349536E-06 -1.431599E-07 -9.989249E-06
v 4.2761E-06 3 -1.270112E-05
v 4.427782E-06 -9.813944E-08 -0.2500107
v -0.2499957 3 -0.2500107
v 4.427782E-06 -9.813944E-08 -0.2500107
v 4.383685E-06 3 -0.2500071
v -0.2499956 -8.867892E-08 -0.250008
v -0.2499957 3 -9.970395E-06
v -0.2499956 -8.867892E-08 -0.250008
v -0.2499957 3 -0.2500107
v -0.2499957 -1.336993E-07 -7.25421E-06

vn 0.9997784 -0.02057221 0.00451202
vn 0.9997784 -0.02057221 0.00451202
vn 0.9997784 -0.02057221 0.00451202
vn 0.9997784 -0.02057221 0.00451202
vn 0.004537998 0.001226076 -0.999989
vn 0.004537998 0.001226076 -0.999989
vn 0.004537998 0.001226076 -0.999989
vn 0.004537998 0.001226076 -0.999989
vn -0.9997784 0.02057221 -0.00451202
vn -0.9997784 0.02057221 -0.00451202
vn -0.9997784 0.02057221 -0.00451202
vn -0.9997784 0.02057221 -0.00451202
vn -0.004537998 -0.001226076 0.999989
vn -0.004537998 -0.001226076 0.999989
vn -0.004537998 -0.001226076 0.999989
vn -0.004537998 -0.001226076 0.999989

vt 0.1723633 0.7392578
vt 0.1292725 0.3093262
vt 0.1292725 0.7392578
vt 0.1723633 0.3093262
vt 0.1292725 0.7392578
vt 0.08630371 0.3093262
vt 0.08630371 0.7392578
vt 0.1292725 0.3093262
vt 0.1723633 0.7392578
vt 0.1292725 0.3093262
vt 0.1292725 0.7392578
vt 0.1723633 0.3093262
vt 0.1292725 0.7392578
vt 0.08630371 0.3093262
vt 0.08630371 0.7392578
vt 0.1292725 0.3093262

g pillar01_A_4_9110_1144
usemtl pillar01_A_4_9110_1144
usemap pillar01_A_4_9110_1144
f 1/1/1 3/3/3 2/2/2
f 2/2/2 4/4/4 1/1/1
f 5/5/5 7/7/7 6/6/6
f 6/6/6 8/8/8 5/5/5
f 9/9/9 11/11/11 10/10/10
f 10/10/10 12/12/12 9/9/9
f 13/13/13 15/15/15 14/14/14
f 14/14/14 16/16/16 13/13/13
