#pillar01_A_11_10008_1137.obj

v -1.160963E-05 3 -0.2499878
v -0.2500129 3 1.166217E-05
v -0.250012 3 -0.2499919
v -1.252848E-05 3 9.374163E-06

vn -3.375401E-10 0.9999993 -4.371008E-08
vn -3.375401E-10 0.9999993 -4.371008E-08
vn -3.375401E-10 0.9999993 -4.371008E-08
vn -3.375401E-10 0.9999993 -4.371008E-08

vt 0.2907715 0.7441406
vt 0.3337402 0.7011719
vt 0.2907715 0.7011719
vt 0.3337402 0.7441406

g pillar01_A_11_10008_1137
usemtl pillar01_A_11_10008_1137
usemap pillar01_A_11_10008_1137
f 1/1/1 3/3/3 2/2/2
f 2/2/2 4/4/4 1/1/1
