#pillar01_A_10_19678_186.obj

v -5.130581E-12 3 4.817585E-07
v -0.2500003 -6.738196E-09 1.41701E-07
v -0.2500003 3 4.244319E-07
v -1.696137E-12 -6.738202E-09 1.990277E-07
v 4.71959E-07 3 -0.2499994
v -1.696137E-12 -6.738202E-09 1.990277E-07
v -5.130581E-12 3 4.817585E-07
v 4.719624E-07 1.466312E-08 -0.2499997
v -0.2499999 3 -0.2499995
v 4.719624E-07 1.466312E-08 -0.2499997
v 4.71959E-07 3 -0.2499994
v -0.2499999 1.466312E-08 -0.2499998
v -0.2500003 3 4.244319E-07
v -0.2499999 1.466312E-08 -0.2499998
v -0.2499999 3 -0.2499995
v -0.2500003 -6.738196E-09 1.41701E-07

vn -1 -1.454366E-07 8.46386E-06
vn -1 -1.454366E-07 8.46386E-06
vn -1 -1.454366E-07 8.46386E-06
vn -1 -1.454366E-07 8.46386E-06
vn 8.46386E-06 3.197442E-14 1
vn 8.46386E-06 3.197442E-14 1
vn 8.46386E-06 3.197442E-14 1
vn 8.46386E-06 3.197442E-14 1
vn 1 1.454366E-07 -8.46386E-06
vn 1 1.454366E-07 -8.46386E-06
vn 1 1.454366E-07 -8.46386E-06
vn 1 1.454366E-07 -8.46386E-06
vn -8.46386E-06 -3.197442E-14 -1
vn -8.46386E-06 -3.197442E-14 -1
vn -8.46386E-06 -3.197442E-14 -1
vn -8.46386E-06 -3.197442E-14 -1

vt 0.1723633 0.7392578
vt 0.1292725 0.3093262
vt 0.1292725 0.7392578
vt 0.1723633 0.3093262
vt 0.1292725 0.7392578
vt 0.08630371 0.3093262
vt 0.08630371 0.7392578
vt 0.1292725 0.3093262
vt 0.1723633 0.7392578
vt 0.1292725 0.3093262
vt 0.1292725 0.7392578
vt 0.1723633 0.3093262
vt 0.1292725 0.7392578
vt 0.08630371 0.3093262
vt 0.08630371 0.7392578
vt 0.1292725 0.3093262

g pillar01_A_10_19678_186
usemtl pillar01_A_10_19678_186
usemap pillar01_A_10_19678_186
f 1/1/1 3/3/3 2/2/2
f 2/2/2 4/4/4 1/1/1
f 5/5/5 7/7/7 6/6/6
f 6/6/6 8/8/8 5/5/5
f 9/9/9 11/11/11 10/10/10
f 10/10/10 12/12/12 9/9/9
f 13/13/13 15/15/15 14/14/14
f 14/14/14 16/16/16 13/13/13
