#pillar01_A_12_19372_172.obj

v -9.246495E-07 3 5.944876E-07
v -0.2500013 -4.713601E-09 -1.036603E-07
v -0.2500013 3 5.944876E-07
v -9.246495E-07 -4.7136E-09 -1.036603E-07
v -9.246495E-07 3 -0.2499997
v -9.246495E-07 -4.7136E-09 -1.036603E-07
v -9.246495E-07 3 5.944876E-07
v -9.246495E-07 -1.564146E-08 -0.2500004
v -0.2500013 3 -0.2499997
v -9.246495E-07 -1.564146E-08 -0.2500004
v -9.246495E-07 3 -0.2499997
v -0.2500013 -1.564146E-08 -0.2500004
v -0.2500013 3 5.944876E-07
v -0.2500013 -1.564146E-08 -0.2500004
v -0.2500013 3 -0.2499997
v -0.2500013 -4.713601E-09 -1.036603E-07

vn 9.553422E-16 -1.454366E-07 1
vn 9.553422E-16 -1.454366E-07 1
vn 9.553422E-16 -1.454366E-07 1
vn 9.553422E-16 -1.454366E-07 1
vn 1 -3.278712E-15 -9.553427E-16
vn 1 -3.278712E-15 -9.553427E-16
vn 1 -3.278712E-15 -9.553427E-16
vn 1 -3.278712E-15 -9.553427E-16
vn -9.553422E-16 1.454366E-07 -1
vn -9.553422E-16 1.454366E-07 -1
vn -9.553422E-16 1.454366E-07 -1
vn -9.553422E-16 1.454366E-07 -1
vn -1 3.278712E-15 9.553427E-16
vn -1 3.278712E-15 9.553427E-16
vn -1 3.278712E-15 9.553427E-16
vn -1 3.278712E-15 9.553427E-16

vt 0.1723633 0.7392578
vt 0.1292725 0.3093262
vt 0.1292725 0.7392578
vt 0.1723633 0.3093262
vt 0.1292725 0.7392578
vt 0.08630371 0.3093262
vt 0.08630371 0.7392578
vt 0.1292725 0.3093262
vt 0.1723633 0.7392578
vt 0.1292725 0.3093262
vt 0.1292725 0.7392578
vt 0.1723633 0.3093262
vt 0.1292725 0.7392578
vt 0.08630371 0.3093262
vt 0.08630371 0.7392578
vt 0.1292725 0.3093262

g pillar01_A_12_19372_172
usemtl pillar01_A_12_19372_172
usemap pillar01_A_12_19372_172
f 1/1/1 3/3/3 2/2/2
f 2/2/2 4/4/4 1/1/1
f 5/5/5 7/7/7 6/6/6
f 6/6/6 8/8/8 5/5/5
f 9/9/9 11/11/11 10/10/10
f 10/10/10 12/12/12 9/9/9
f 13/13/13 15/15/15 14/14/14
f 14/14/14 16/16/16 13/13/13
