#pillar01_A_10359_1313.obj

v 5.957032E-06 3 -0.2500162
v -0.2499941 3 -1.53712E-05
v -0.2499942 3 -0.2500201
v 5.852545E-06 3 -1.845644E-05

vn 4.370115E-08 0.9999993 9.464872E-10
vn 4.370115E-08 0.9999993 9.464872E-10
vn 4.370115E-08 0.9999993 9.464872E-10
vn 4.370115E-08 0.9999993 9.464872E-10

vt 0.2907715 0.7441406
vt 0.3337402 0.7011719
vt 0.2907715 0.7011719
vt 0.3337402 0.7441406

g pillar01_A_10359_1313
usemtl pillar01_A_10359_1313
usemap pillar01_A_10359_1313
f 1/1/1 3/3/3 2/2/2
f 2/2/2 4/4/4 1/1/1
