#pillar01_A_2_10129_1235.obj

v 4.879799E-06 3 -0.249995
v -0.2499956 3 5.594498E-06
v -0.2499958 3 -0.2499949
v 5.073698E-06 3 5.529817E-06

vn 0.02056631 0.9997873 0.001319122
vn 0.02056631 0.9997873 0.001319122
vn 0.02056631 0.9997873 0.001319122
vn 0.02056631 0.9997873 0.001319122

vt 0.2907715 0.7441406
vt 0.3337402 0.7011719
vt 0.2907715 0.7011719
vt 0.3337402 0.7441406

g pillar01_A_2_10129_1235
usemtl pillar01_A_2_10129_1235
usemap pillar01_A_2_10129_1235
f 1/1/1 3/3/3 2/2/2
f 2/2/2 4/4/4 1/1/1
