#pillar01_A_5_10993_1283.obj

v -6.014542E-06 3 -0.2500088
v -0.2500059 3 -7.57394E-06
v -0.2500066 3 -0.2500081
v -5.303826E-06 3 -8.230077E-06

vn 1.105999E-09 0.9999995 -4.369739E-08
vn 1.105999E-09 0.9999995 -4.369739E-08
vn 1.105999E-09 0.9999995 -4.369739E-08
vn 1.105999E-09 0.9999995 -4.369739E-08

vt 0.2907715 0.7441406
vt 0.3337402 0.7011719
vt 0.2907715 0.7011719
vt 0.3337402 0.7441406

g pillar01_A_5_10993_1283
usemtl pillar01_A_5_10993_1283
usemap pillar01_A_5_10993_1283
f 1/1/1 3/3/3 2/2/2
f 2/2/2 4/4/4 1/1/1
