#pillar01_A_2_9742_1097.obj

v -6.295307E-06 3 -0.2500046
v -0.2500061 3 -4.21544E-06
v -0.2500069 3 -0.2500047
v -5.518012E-06 3 -4.086934E-06

vn -4.369737E-08 0.9999996 -1.106028E-09
vn -4.369737E-08 0.9999996 -1.106028E-09
vn -4.369737E-08 0.9999996 -1.106028E-09
vn -4.369737E-08 0.9999996 -1.106028E-09

vt 0.2907715 0.7441406
vt 0.3337402 0.7011719
vt 0.2907715 0.7011719
vt 0.3337402 0.7441406

g pillar01_A_2_9742_1097
usemtl pillar01_A_2_9742_1097
usemap pillar01_A_2_9742_1097
f 1/1/1 3/3/3 2/2/2
f 2/2/2 4/4/4 1/1/1
