#pillar01_A_2_9226_1070.obj

v 5.037243E-06 3 1.384018E-06
v -0.2499957 9.699549E-09 1.080295E-06
v -0.2499957 3 1.299001E-06
v 5.04071E-06 9.699549E-09 1.165313E-06
v 5.820029E-06 3 -0.2499987
v 5.04071E-06 9.699549E-09 1.165313E-06
v 5.037243E-06 3 1.384018E-06
v 5.821762E-06 9.699549E-09 -0.2499989
v -0.249995 3 -0.2499988
v 5.821762E-06 9.699549E-09 -0.2499989
v 5.820029E-06 3 -0.2499987
v -0.249995 9.699549E-09 -0.2499989
v -0.2499957 3 1.299001E-06
v -0.249995 9.699549E-09 -0.2499989
v -0.249995 3 -0.2499988
v -0.2499957 9.699549E-09 1.080295E-06

vn 0.01584974 -5.801384E-08 0.9998744
vn 0.01584974 -5.801384E-08 0.9998744
vn 0.01584974 -5.801384E-08 0.9998744
vn 0.01584974 -5.801384E-08 0.9998744
vn 0.9998744 -6.750035E-15 -0.0158495
vn 0.9998744 -6.750035E-15 -0.0158495
vn 0.9998744 -6.750035E-15 -0.0158495
vn 0.9998744 -6.750035E-15 -0.0158495
vn -0.01584974 5.801384E-08 -0.9998744
vn -0.01584974 5.801384E-08 -0.9998744
vn -0.01584974 5.801384E-08 -0.9998744
vn -0.01584974 5.801384E-08 -0.9998744
vn -0.9998744 6.750035E-15 0.0158495
vn -0.9998744 6.750035E-15 0.0158495
vn -0.9998744 6.750035E-15 0.0158495
vn -0.9998744 6.750035E-15 0.0158495

vt 0.1723633 0.7392578
vt 0.1292725 0.3093262
vt 0.1292725 0.7392578
vt 0.1723633 0.3093262
vt 0.1292725 0.7392578
vt 0.08630371 0.3093262
vt 0.08630371 0.7392578
vt 0.1292725 0.3093262
vt 0.1723633 0.7392578
vt 0.1292725 0.3093262
vt 0.1292725 0.7392578
vt 0.1723633 0.3093262
vt 0.1292725 0.7392578
vt 0.08630371 0.3093262
vt 0.08630371 0.7392578
vt 0.1292725 0.3093262

g pillar01_A_2_9226_1070
usemtl pillar01_A_2_9226_1070
usemap pillar01_A_2_9226_1070
f 1/1/1 3/3/3 2/2/2
f 2/2/2 4/4/4 1/1/1
f 5/5/5 7/7/7 6/6/6
f 6/6/6 8/8/8 5/5/5
f 9/9/9 11/11/11 10/10/10
f 10/10/10 12/12/12 9/9/9
f 13/13/13 15/15/15 14/14/14
f 14/14/14 16/16/16 13/13/13
