#pillar01_A_2_19443_198.obj

v 4.229262E-07 3 6.981517E-07
v -0.2499999 -4.713583E-09 1.781669E-07
v -0.2499999 3 4.703275E-08
v 4.229338E-07 -4.713596E-09 3.907573E-12
v 1.074045E-06 3 -0.2499996
v 4.229338E-07 -4.713596E-09 3.907573E-12
v 4.229262E-07 3 6.981517E-07
v 1.074053E-06 3.618867E-08 -0.2500003
v -0.2499993 3 -0.2499995
v 1.074053E-06 3.618867E-08 -0.2500003
v 1.074045E-06 3 -0.2499996
v -0.2499993 3.618868E-08 -0.2500001
v -0.2499999 3 4.703275E-08
v -0.2499993 3.618868E-08 -0.2500001
v -0.2499993 3 -0.2499995
v -0.2499999 -4.713583E-09 1.781669E-07

vn 9.23872E-06 -1.454367E-07 1
vn 9.23872E-06 -1.454367E-07 1
vn 9.23872E-06 -1.454367E-07 1
vn 9.23872E-06 -1.454367E-07 1
vn 1 2.03326E-14 -9.23872E-06
vn 1 2.03326E-14 -9.23872E-06
vn 1 2.03326E-14 -9.23872E-06
vn 1 2.03326E-14 -9.23872E-06
vn -9.23872E-06 1.454367E-07 -1
vn -9.23872E-06 1.454367E-07 -1
vn -9.23872E-06 1.454367E-07 -1
vn -9.23872E-06 1.454367E-07 -1
vn -1 -2.03326E-14 9.23872E-06
vn -1 -2.03326E-14 9.23872E-06
vn -1 -2.03326E-14 9.23872E-06
vn -1 -2.03326E-14 9.23872E-06

vt 0.1723633 0.7392578
vt 0.1292725 0.3093262
vt 0.1292725 0.7392578
vt 0.1723633 0.3093262
vt 0.1292725 0.7392578
vt 0.08630371 0.3093262
vt 0.08630371 0.7392578
vt 0.1292725 0.3093262
vt 0.1723633 0.7392578
vt 0.1292725 0.3093262
vt 0.1292725 0.7392578
vt 0.1723633 0.3093262
vt 0.1292725 0.7392578
vt 0.08630371 0.3093262
vt 0.08630371 0.7392578
vt 0.1292725 0.3093262

g pillar01_A_2_19443_198
usemtl pillar01_A_2_19443_198
usemap pillar01_A_2_19443_198
f 1/1/1 3/3/3 2/2/2
f 2/2/2 4/4/4 1/1/1
f 5/5/5 7/7/7 6/6/6
f 6/6/6 8/8/8 5/5/5
f 9/9/9 11/11/11 10/10/10
f 10/10/10 12/12/12 9/9/9
f 13/13/13 15/15/15 14/14/14
f 14/14/14 16/16/16 13/13/13
