#pillar01_B_5_10134_214.obj

v 3.141547E-05 3 3.588657E-05
v -0.1999692 -1.879381E-07 3.481133E-05
v -0.1999692 3 3.481133E-05
v 3.141547E-05 -1.879381E-07 3.588657E-05
v 3.253313E-05 3 -0.1999647
v 3.141547E-05 -1.879381E-07 3.588657E-05
v 3.141547E-05 3 3.588657E-05
v 3.253313E-05 -1.879381E-07 -0.1999647
v -0.1999681 3 -0.1999622
v 3.253313E-05 -1.879381E-07 -0.1999647
v 3.253313E-05 3 -0.1999647
v -0.1999681 -1.879381E-07 -0.1999658
v -0.1999692 3 3.481133E-05
v -0.1999681 -1.879381E-07 -0.1999658
v -0.1999681 3 -0.1999622
v -0.1999692 -1.879381E-07 3.481133E-05

vn 0.000682946 -1.454365E-07 0.9999996
vn 0.000682946 -1.454365E-07 0.9999996
vn 0.000682946 -1.454365E-07 0.9999996
vn 0.000682946 -1.454365E-07 0.9999996
vn 0.9999998 4.394568E-14 -0.0006827232
vn 0.9999998 4.394568E-14 -0.0006827232
vn 0.9999998 4.394568E-14 -0.0006827232
vn 0.9999998 4.394568E-14 -0.0006827232
vn -0.000682946 1.454365E-07 -0.9999996
vn -0.000682946 1.454365E-07 -0.9999996
vn -0.000682946 1.454365E-07 -0.9999996
vn -0.000682946 1.454365E-07 -0.9999996
vn -0.9999998 -4.394568E-14 0.0006827232
vn -0.9999998 -4.394568E-14 0.0006827232
vn -0.9999998 -4.394568E-14 0.0006827232
vn -0.9999998 -4.394568E-14 0.0006827232

vt 0.06665039 1
vt 0.1333008 0
vt 0.1333008 1
vt 0.06665039 0
vt -3.576279E-06 1
vt 0.06665039 0
vt 0.06665039 1
vt -3.516674E-06 0
vt 0.06665039 1
vt -9.536743E-07 -7.271767E-06
vt -8.940697E-07 1
vt 0.06665039 -7.271767E-06
vt 0.1333008 1
vt 0.06665039 -7.271767E-06
vt 0.06665039 1
vt 0.1333008 -7.271767E-06

g pillar01_B_5_10134_214
usemtl pillar01_B_5_10134_214
usemap pillar01_B_5_10134_214
f 1/1/1 3/3/3 2/2/2
f 2/2/2 4/4/4 1/1/1
f 5/5/5 7/7/7 6/6/6
f 6/6/6 8/8/8 5/5/5
f 9/9/9 11/11/11 10/10/10
f 10/10/10 12/12/12 9/9/9
f 13/13/13 15/15/15 14/14/14
f 14/14/14 16/16/16 13/13/13
