#pillar01_A_9874_1191.obj

v -1.049123E-05 3 -0.2500094
v -0.2500049 3 -9.420353E-06
v -0.2500077 3 -0.2500098
v -7.73433E-06 3 -8.970398E-06

vn -4.371006E-08 0.9999993 3.37438E-10
vn -4.371006E-08 0.9999993 3.37438E-10
vn -4.371006E-08 0.9999993 3.37438E-10
vn -4.371006E-08 0.9999993 3.37438E-10

vt 0.2907715 0.7441406
vt 0.3337402 0.7011719
vt 0.2907715 0.7011719
vt 0.3337402 0.7441406

g pillar01_A_9874_1191
usemtl pillar01_A_9874_1191
usemap pillar01_A_9874_1191
f 1/1/1 3/3/3 2/2/2
f 2/2/2 4/4/4 1/1/1
