#pillar01_A_5_8648_1099.obj

v 8.022286E-07 3 -0.2499937
v -0.2499999 3 7.487831E-06
v -0.2499997 3 -0.2499931
v 6.617224E-07 3 6.831693E-06

vn 1.105999E-09 0.9999995 -4.369739E-08
vn 1.105999E-09 0.9999995 -4.369739E-08
vn 1.105999E-09 0.9999995 -4.369739E-08
vn 1.105999E-09 0.9999995 -4.369739E-08

vt 0.2907715 0.7441406
vt 0.3337402 0.7011719
vt 0.2907715 0.7011719
vt 0.3337402 0.7441406

g pillar01_A_5_8648_1099
usemtl pillar01_A_5_8648_1099
usemap pillar01_A_5_8648_1099
f 1/1/1 3/3/3 2/2/2
f 2/2/2 4/4/4 1/1/1
