#pillar01_A_2_10131_1251.obj

v -6.653173E-06 3 -0.2499981
v -0.2500067 3 1.123385E-06
v -0.2500067 3 -0.2499981
v -6.607299E-06 3 1.998727E-06

vn 4.37018E-08 0.9999993 -9.153873E-10
vn 4.37018E-08 0.9999993 -9.153873E-10
vn 4.37018E-08 0.9999993 -9.153873E-10
vn 4.37018E-08 0.9999993 -9.153873E-10

vt 0.2907715 0.7441406
vt 0.3337402 0.7011719
vt 0.2907715 0.7011719
vt 0.3337402 0.7441406

g pillar01_A_2_10131_1251
usemtl pillar01_A_2_10131_1251
usemap pillar01_A_2_10131_1251
f 1/1/1 3/3/3 2/2/2
f 2/2/2 4/4/4 1/1/1
