#pillar01_B_10786_571.obj

v 3.031232E-05 3 -3.775749E-05
v -0.1999703 -2.472161E-08 -3.699481E-05
v -0.1999703 3 -3.699481E-05
v 3.031232E-05 -2.472161E-08 -3.775749E-05
v 3.128979E-05 3 -0.2000384
v 3.031232E-05 -2.472161E-08 -3.775749E-05
v 3.031232E-05 3 -3.775749E-05
v 3.128979E-05 -2.472161E-08 -0.2000384
v -0.1999693 3 -0.2000376
v 3.128979E-05 -2.472161E-08 -0.2000384
v 3.128979E-05 3 -0.2000384
v -0.1999693 -2.472161E-08 -0.2000376
v -0.1999703 3 -3.699481E-05
v -0.1999693 -2.472161E-08 -0.2000376
v -0.1999693 3 -0.2000376
v -0.1999703 -2.472161E-08 -3.699481E-05

vn -0.9999998 -1.017252E-07 0.0006822775
vn -0.9999998 -1.017252E-07 0.0006822775
vn -0.9999998 -1.017252E-07 0.0006822775
vn -0.9999998 -1.017252E-07 0.0006822775
vn 0.0006825282 -4.371135E-08 0.9999998
vn 0.0006825282 -4.371135E-08 0.9999998
vn 0.0006825282 -4.371135E-08 0.9999998
vn 0.0006825282 -4.371135E-08 0.9999998
vn 0.9999998 1.017252E-07 -0.0006822775
vn 0.9999998 1.017252E-07 -0.0006822775
vn 0.9999998 1.017252E-07 -0.0006822775
vn 0.9999998 1.017252E-07 -0.0006822775
vn -0.0006825282 4.371135E-08 -0.9999998
vn -0.0006825282 4.371135E-08 -0.9999998
vn -0.0006825282 4.371135E-08 -0.9999998
vn -0.0006825282 4.371135E-08 -0.9999998

vt 0.06665039 1
vt 0.1333008 0
vt 0.1333008 1
vt 0.06665039 0
vt -3.576279E-06 1
vt 0.06665039 0
vt 0.06665039 1
vt -3.516674E-06 0
vt 0.06665039 1
vt -9.536743E-07 -7.271767E-06
vt -8.940697E-07 1
vt 0.06665039 -7.271767E-06
vt 0.1333008 1
vt 0.06665039 -7.271767E-06
vt 0.06665039 1
vt 0.1333008 -7.271767E-06

g pillar01_B_10786_571
usemtl pillar01_B_10786_571
usemap pillar01_B_10786_571
f 1/1/1 3/3/3 2/2/2
f 2/2/2 4/4/4 1/1/1
f 5/5/5 7/7/7 6/6/6
f 6/6/6 8/8/8 5/5/5
f 9/9/9 11/11/11 10/10/10
f 10/10/10 12/12/12 9/9/9
f 13/13/13 15/15/15 14/14/14
f 14/14/14 16/16/16 13/13/13
