#pillar01_B_6_9515_242.obj

v -2.242923E-06 3 3.743897E-06
v -0.2000023 -1.53068E-08 2.966247E-06
v -0.2000023 3 2.966247E-06
v -2.25827E-06 -1.53068E-08 2.874343E-06
v -2.385809E-06 3 -0.1999968
v -2.25827E-06 -1.53068E-08 2.874343E-06
v -2.242923E-06 3 3.743897E-06
v -2.401157E-06 -1.53068E-08 -0.1999976
v -0.2000024 3 -0.1999967
v -2.401157E-06 -1.53068E-08 -0.1999976
v -2.385809E-06 3 -0.1999968
v -0.2000025 -1.53068E-08 -0.1999975
v -0.2000023 3 2.966247E-06
v -0.2000025 -1.53068E-08 -0.1999975
v -0.2000024 3 -0.1999967
v -0.2000023 -1.53068E-08 2.966247E-06

vn 0.9998444 -1.454365E-07 0.01764666
vn 0.9998444 -1.454365E-07 0.01764666
vn 0.9998444 -1.454365E-07 0.01764666
vn 0.9998444 -1.454365E-07 0.01764666
vn 0.01764645 -1.776355E-15 -0.9998444
vn 0.01764645 -1.776355E-15 -0.9998444
vn 0.01764645 -1.776355E-15 -0.9998444
vn 0.01764645 -1.776355E-15 -0.9998444
vn -0.9998444 1.454365E-07 -0.01764666
vn -0.9998444 1.454365E-07 -0.01764666
vn -0.9998444 1.454365E-07 -0.01764666
vn -0.9998444 1.454365E-07 -0.01764666
vn -0.01764645 1.776355E-15 0.9998444
vn -0.01764645 1.776355E-15 0.9998444
vn -0.01764645 1.776355E-15 0.9998444
vn -0.01764645 1.776355E-15 0.9998444

vt 0.06665039 1
vt 0.1333008 0
vt 0.1333008 1
vt 0.06665039 0
vt -3.576279E-06 1
vt 0.06665039 0
vt 0.06665039 1
vt -3.516674E-06 0
vt 0.06665039 1
vt -9.536743E-07 -7.271767E-06
vt -8.940697E-07 1
vt 0.06665039 -7.271767E-06
vt 0.1333008 1
vt 0.06665039 -7.271767E-06
vt 0.06665039 1
vt 0.1333008 -7.271767E-06

g pillar01_B_6_9515_242
usemtl pillar01_B_6_9515_242
usemap pillar01_B_6_9515_242
f 1/1/1 3/3/3 2/2/2
f 2/2/2 4/4/4 1/1/1
f 5/5/5 7/7/7 6/6/6
f 6/6/6 8/8/8 5/5/5
f 9/9/9 11/11/11 10/10/10
f 10/10/10 12/12/12 9/9/9
f 13/13/13 15/15/15 14/14/14
f 14/14/14 16/16/16 13/13/13
