#pillar01_A_5_8854_1205.obj

v -1.059398E-06 3 -0.2500001
v -0.2500011 3 1.659559E-08
v -0.2500011 3 -0.2500001
v -1.053661E-06 3 1.085873E-08

vn 5.114422E-11 0.9999999 4.371136E-08
vn 5.114422E-11 0.9999999 4.371136E-08
vn 5.114422E-11 0.9999999 4.371136E-08
vn 5.114422E-11 0.9999999 4.371136E-08

vt 0.2907715 0.7441406
vt 0.3337402 0.7011719
vt 0.2907715 0.7011719
vt 0.3337402 0.7441406

g pillar01_A_5_8854_1205
usemtl pillar01_A_5_8854_1205
usemap pillar01_A_5_8854_1205
f 1/1/1 3/3/3 2/2/2
f 2/2/2 4/4/4 1/1/1
