#pillar01_middle_11280_1225.obj

v -0.1999878 3 -0.1250024
v -0.2399896 3 0.1249968
v -0.2399896 3 -0.1250024
v -0.1999878 3 0.1249968

vn 3.259369E-15 0.9999998 4.371139E-08
vn 3.259369E-15 0.9999998 4.371139E-08
vn 3.259369E-15 0.9999998 4.371139E-08
vn 3.259369E-15 0.9999998 4.371139E-08

vt 0.2907715 0.7348633
vt 0.3337402 0.7260742
vt 0.2907715 0.7260742
vt 0.3337402 0.7348633

g pillar01_middle_11280_1225
usemtl pillar01_middle_11280_1225
usemap pillar01_middle_11280_1225
f 1/1/1 3/3/3 2/2/2
f 2/2/2 4/4/4 1/1/1
