#pillar01_A_short_2_9786_1298.obj

v 3.502012E-06 2.5 4.886409E-06
v -0.2499971 -7.595153E-08 4.232423E-06
v -0.2499971 2.5 4.658034E-06
v 3.491239E-06 -7.595153E-08 4.460798E-06
v 2.835358E-06 2.5 -0.2499952
v 3.491239E-06 -7.595153E-08 4.460798E-06
v 3.502012E-06 2.5 4.886409E-06
v 2.824585E-06 -7.595153E-08 -0.2499956
v -0.2499977 2.5 -0.2499952
v 2.824585E-06 -7.595153E-08 -0.2499956
v 2.835358E-06 2.5 -0.2499952
v -0.2499977 -7.595153E-08 -0.2499957
v -0.2499971 2.5 4.658034E-06
v -0.2499977 -7.595153E-08 -0.2499957
v -0.2499977 2.5 -0.2499952
v -0.2499971 -7.595153E-08 4.232423E-06

vn 0.9996798 -1.220703E-07 0.02530253
vn 0.9996798 -1.220703E-07 0.02530253
vn 0.9996798 -1.220703E-07 0.02530253
vn 0.9996798 -1.220703E-07 0.02530253
vn 0.0253023 0 -0.9996798
vn 0.0253023 0 -0.9996798
vn 0.0253023 0 -0.9996798
vn 0.0253023 0 -0.9996798
vn -0.9996798 1.220703E-07 -0.02530253
vn -0.9996798 1.220703E-07 -0.02530253
vn -0.9996798 1.220703E-07 -0.02530253
vn -0.9996798 1.220703E-07 -0.02530253
vn -0.0253023 0 0.9996798
vn -0.0253023 0 0.9996798
vn -0.0253023 0 0.9996798
vn -0.0253023 0 0.9996798

vt 0.1723633 0.6674805
vt 0.1292725 0.3093262
vt 0.1292725 0.6674805
vt 0.1723633 0.3093262
vt 0.1292725 0.6674805
vt 0.08630371 0.3093262
vt 0.08630371 0.6674805
vt 0.1292725 0.3093262
vt 0.1723633 0.6674805
vt 0.1292725 0.3093262
vt 0.1292725 0.6674805
vt 0.1723633 0.3093262
vt 0.1292725 0.6674805
vt 0.08630371 0.3093262
vt 0.08630371 0.6674805
vt 0.1292725 0.3093262

g pillar01_A_short_2_9786_1298
usemtl pillar01_A_short_2_9786_1298
usemap pillar01_A_short_2_9786_1298
f 1/1/1 3/3/3 2/2/2
f 2/2/2 4/4/4 1/1/1
f 5/5/5 7/7/7 6/6/6
f 6/6/6 8/8/8 5/5/5
f 9/9/9 11/11/11 10/10/10
f 10/10/10 12/12/12 9/9/9
f 13/13/13 15/15/15 14/14/14
f 14/14/14 16/16/16 13/13/13
