#pillar01_A_10_9632_1081.obj

v 6.403233E-06 3 -0.2499943
v -0.2499891 3 6.132662E-06
v -0.2499908 3 -0.2499942
v 8.102151E-06 3 6.051179E-06

vn 4.371007E-08 0.9999995 -3.376246E-10
vn 4.371007E-08 0.9999995 -3.376246E-10
vn 4.371007E-08 0.9999995 -3.376246E-10
vn 4.371007E-08 0.9999995 -3.376246E-10

vt 0.2907715 0.7441406
vt 0.3337402 0.7011719
vt 0.2907715 0.7011719
vt 0.3337402 0.7441406

g pillar01_A_10_9632_1081
usemtl pillar01_A_10_9632_1081
usemap pillar01_A_10_9632_1081
f 1/1/1 3/3/3 2/2/2
f 2/2/2 4/4/4 1/1/1
