#pillar01_A_4_10769_1071.obj

v 8.368882E-06 3 -0.2500016
v -0.2499902 3 -1.939389E-06
v -0.2499908 3 -0.250001
v 8.899945E-06 3 -2.52352E-06

vn 4.371141E-08 0.9999997 1.222263E-13
vn 4.371141E-08 0.9999997 1.222263E-13
vn 4.371141E-08 0.9999997 1.222263E-13
vn 4.371141E-08 0.9999997 1.222263E-13

vt 0.2907715 0.7441406
vt 0.3337402 0.7011719
vt 0.2907715 0.7011719
vt 0.3337402 0.7441406

g pillar01_A_4_10769_1071
usemtl pillar01_A_4_10769_1071
usemap pillar01_A_4_10769_1071
f 1/1/1 3/3/3 2/2/2
f 2/2/2 4/4/4 1/1/1
