#pillar01_A_3_10085_1092.obj

v 1.004712E-05 3 -5.205322E-06
v -0.2499903 5.661192E-08 -8.109101E-06
v -0.2499903 3 -1.88534E-06
v 1.004712E-05 5.661206E-08 -5.071446E-06
v 9.933999E-06 3 -0.2500024
v 1.004712E-05 5.661206E-08 -5.071446E-06
v 1.004712E-05 3 -5.205322E-06
v 9.933999E-06 4.545585E-08 -0.2500022
v -0.2499904 3 -0.2500054
v 9.933999E-06 4.545585E-08 -0.2500022
v 9.933999E-06 3 -0.2500024
v -0.2499904 4.545571E-08 -0.2500053
v -0.2499903 3 -1.88534E-06
v -0.2499904 4.545571E-08 -0.2500053
v -0.2499904 3 -0.2500054
v -0.2499903 5.661192E-08 -8.109101E-06

vn 0.007718003 -1.454366E-07 0.9999703
vn 0.007718003 -1.454366E-07 0.9999703
vn 0.007718003 -1.454366E-07 0.9999703
vn 0.007718003 -1.454366E-07 0.9999703
vn 0.9999702 7.105424E-15 -0.007717754
vn 0.9999702 7.105424E-15 -0.007717754
vn 0.9999702 7.105424E-15 -0.007717754
vn 0.9999702 7.105424E-15 -0.007717754
vn -0.007718003 1.454366E-07 -0.9999703
vn -0.007718003 1.454366E-07 -0.9999703
vn -0.007718003 1.454366E-07 -0.9999703
vn -0.007718003 1.454366E-07 -0.9999703
vn -0.9999702 -7.105424E-15 0.007717754
vn -0.9999702 -7.105424E-15 0.007717754
vn -0.9999702 -7.105424E-15 0.007717754
vn -0.9999702 -7.105424E-15 0.007717754

vt 0.1723633 0.7392578
vt 0.1292725 0.3093262
vt 0.1292725 0.7392578
vt 0.1723633 0.3093262
vt 0.1292725 0.7392578
vt 0.08630371 0.3093262
vt 0.08630371 0.7392578
vt 0.1292725 0.3093262
vt 0.1723633 0.7392578
vt 0.1292725 0.3093262
vt 0.1292725 0.7392578
vt 0.1723633 0.3093262
vt 0.1292725 0.7392578
vt 0.08630371 0.3093262
vt 0.08630371 0.7392578
vt 0.1292725 0.3093262

g pillar01_A_3_10085_1092
usemtl pillar01_A_3_10085_1092
usemap pillar01_A_3_10085_1092
f 1/1/1 3/3/3 2/2/2
f 2/2/2 4/4/4 1/1/1
f 5/5/5 7/7/7 6/6/6
f 6/6/6 8/8/8 5/5/5
f 9/9/9 11/11/11 10/10/10
f 10/10/10 12/12/12 9/9/9
f 13/13/13 15/15/15 14/14/14
f 14/14/14 16/16/16 13/13/13
