#pillar01_A_11_8617_1145.obj

v -4.824046E-06 3 -0.2499891
v -0.2500047 3 9.210959E-06
v -0.2500046 3 -0.2499915
v -4.215494E-06 3 8.46595E-06

vn 0.02056627 0.9997874 0.001319166
vn 0.02056627 0.9997874 0.001319166
vn 0.02056627 0.9997874 0.001319166
vn 0.02056627 0.9997874 0.001319166

vt 0.2907715 0.7441406
vt 0.3337402 0.7011719
vt 0.2907715 0.7011719
vt 0.3337402 0.7441406

g pillar01_A_11_8617_1145
usemtl pillar01_A_11_8617_1145
usemap pillar01_A_11_8617_1145
f 1/1/1 3/3/3 2/2/2
f 2/2/2 4/4/4 1/1/1
