#pillar01_B_1_10200_529.obj

v 3.905309E-06 3 -0.2000036
v -0.199997 3 -3.483919E-06
v -0.1999966 3 -0.2000022
v 3.506603E-06 3 -3.128522E-06

vn -7.712512E-10 0.9999989 4.370457E-08
vn -7.712512E-10 0.9999989 4.370457E-08
vn -7.712512E-10 0.9999989 4.370457E-08
vn -7.712512E-10 0.9999989 4.370457E-08

vt 0.9892578 -0.3359375
vt 1.047852 -0.3947754
vt 0.9892578 -0.3947754
vt 1.047852 -0.3359375

g pillar01_B_1_10200_529
usemtl pillar01_B_1_10200_529
usemap pillar01_B_1_10200_529
f 1/1/1 3/3/3 2/2/2
f 2/2/2 4/4/4 1/1/1
