#pillar01_B_9538_1224.obj

v 5.309442E-06 3 -8.585265E-06
v -0.199994 3.412067E-08 -7.05957E-06
v -0.199994 3 -7.193446E-06
v 5.309442E-06 3.41206E-08 -8.451389E-06
v 5.536829E-06 3 -0.2000063
v 5.309442E-06 3.41206E-08 -8.451389E-06
v 5.309442E-06 3 -8.585265E-06
v 5.536829E-06 2.519563E-08 -0.2000062
v -0.1999953 3 -0.2000113
v 5.536829E-06 2.519563E-08 -0.2000062
v 5.536829E-06 3 -0.2000063
v -0.1999953 2.519541E-08 -0.2000112
v -0.199994 3 -7.193446E-06
v -0.1999953 2.519541E-08 -0.2000112
v -0.1999953 3 -0.2000113
v -0.199994 3.412067E-08 -7.05957E-06

vn 0.007718003 -1.454366E-07 0.9999703
vn 0.007718003 -1.454366E-07 0.9999703
vn 0.007718003 -1.454366E-07 0.9999703
vn 0.007718003 -1.454366E-07 0.9999703
vn 0.9999702 1.243449E-14 -0.007717754
vn 0.9999702 1.243449E-14 -0.007717754
vn 0.9999702 1.243449E-14 -0.007717754
vn 0.9999702 1.243449E-14 -0.007717754
vn -0.007718003 1.454366E-07 -0.9999703
vn -0.007718003 1.454366E-07 -0.9999703
vn -0.007718003 1.454366E-07 -0.9999703
vn -0.007718003 1.454366E-07 -0.9999703
vn -0.9999702 -1.243449E-14 0.007717754
vn -0.9999702 -1.243449E-14 0.007717754
vn -0.9999702 -1.243449E-14 0.007717754
vn -0.9999702 -1.243449E-14 0.007717754

vt 0.06665039 1
vt 0.1333008 0
vt 0.1333008 1
vt 0.06665039 0
vt -3.576279E-06 1
vt 0.06665039 0
vt 0.06665039 1
vt -3.516674E-06 0
vt 0.06665039 1
vt -9.536743E-07 -7.271767E-06
vt -8.940697E-07 1
vt 0.06665039 -7.271767E-06
vt 0.1333008 1
vt 0.06665039 -7.271767E-06
vt 0.06665039 1
vt 0.1333008 -7.271767E-06

g pillar01_B_9538_1224
usemtl pillar01_B_9538_1224
usemap pillar01_B_9538_1224
f 1/1/1 3/3/3 2/2/2
f 2/2/2 4/4/4 1/1/1
f 5/5/5 7/7/7 6/6/6
f 6/6/6 8/8/8 5/5/5
f 9/9/9 11/11/11 10/10/10
f 10/10/10 12/12/12 9/9/9
f 13/13/13 15/15/15 14/14/14
f 14/14/14 16/16/16 13/13/13
