#pillar01_B_10786_570.obj

v 3.128979E-05 3 -0.2000384
v -0.1999703 3 -3.699481E-05
v -0.1999693 3 -0.2000376
v 3.031232E-05 3 -3.775749E-05

vn 2.981786E-11 0.9999989 4.371138E-08
vn 2.981786E-11 0.9999989 4.371138E-08
vn 2.981786E-11 0.9999989 4.371138E-08
vn 2.981786E-11 0.9999989 4.371138E-08

vt 0.9892578 -0.3359375
vt 1.047852 -0.3947754
vt 0.9892578 -0.3947754
vt 1.047852 -0.3359375

g pillar01_B_10786_570
usemtl pillar01_B_10786_570
usemap pillar01_B_10786_570
f 1/1/1 3/3/3 2/2/2
f 2/2/2 4/4/4 1/1/1
