#pillar01_B_2_9328_366.obj

v -8.191449E-07 3 -0.2000001
v -0.2000009 3 -7.846491E-08
v -0.2000002 3 -0.1999999
v -6.504126E-07 3 1.636406E-07

vn 5.114601E-11 0.9999999 4.371137E-08
vn 5.114601E-11 0.9999999 4.371137E-08
vn 5.114601E-11 0.9999999 4.371137E-08
vn 5.114601E-11 0.9999999 4.371137E-08

vt 0.9892578 -0.3359375
vt 1.047852 -0.3947754
vt 0.9892578 -0.3947754
vt 1.047852 -0.3359375

g pillar01_B_2_9328_366
usemtl pillar01_B_2_9328_366
usemap pillar01_B_2_9328_366
f 1/1/1 3/3/3 2/2/2
f 2/2/2 4/4/4 1/1/1
