#pillar01_A_5_11109_1074.obj

v -9.403389E-06 3 -4.479063E-06
v -0.2500075 -1.325016E-08 -5.099014E-06
v -0.2500038 3 -4.061264E-06
v -6.819635E-06 -6.960629E-08 -4.750929E-06
v -5.208499E-06 3 -0.2500042
v -6.819635E-06 -6.960629E-08 -4.750929E-06
v -9.403389E-06 3 -4.479063E-06
v -8.985249E-06 -7.860802E-08 -0.2500045
v -0.2500059 3 -0.2500046
v -8.985249E-06 -7.860802E-08 -0.2500045
v -5.208499E-06 3 -0.2500042
v -0.2500097 -2.225189E-08 -0.2500048
v -0.2500038 3 -4.061264E-06
v -0.2500097 -2.225189E-08 -0.2500048
v -0.2500059 3 -0.2500046
v -0.2500075 -1.325016E-08 -5.099014E-06

vn -0.004535565 -0.001226271 0.9999887
vn -0.004535565 -0.001226271 0.9999887
vn -0.004535565 -0.001226271 0.9999887
vn -0.004535565 -0.001226271 0.9999887
vn 0.9997782 -0.02057205 0.004509586
vn 0.9997782 -0.02057205 0.004509586
vn 0.9997782 -0.02057205 0.004509586
vn 0.9997782 -0.02057205 0.004509586
vn 0.004535565 0.001226271 -0.9999887
vn 0.004535565 0.001226271 -0.9999887
vn 0.004535565 0.001226271 -0.9999887
vn 0.004535565 0.001226271 -0.9999887
vn -0.9997782 0.02057205 -0.004509586
vn -0.9997782 0.02057205 -0.004509586
vn -0.9997782 0.02057205 -0.004509586
vn -0.9997782 0.02057205 -0.004509586

vt 0.1723633 0.7392578
vt 0.1292725 0.3093262
vt 0.1292725 0.7392578
vt 0.1723633 0.3093262
vt 0.1292725 0.7392578
vt 0.08630371 0.3093262
vt 0.08630371 0.7392578
vt 0.1292725 0.3093262
vt 0.1723633 0.7392578
vt 0.1292725 0.3093262
vt 0.1292725 0.7392578
vt 0.1723633 0.3093262
vt 0.1292725 0.7392578
vt 0.08630371 0.3093262
vt 0.08630371 0.7392578
vt 0.1292725 0.3093262

g pillar01_A_5_11109_1074
usemtl pillar01_A_5_11109_1074
usemap pillar01_A_5_11109_1074
f 1/1/1 3/3/3 2/2/2
f 2/2/2 4/4/4 1/1/1
f 5/5/5 7/7/7 6/6/6
f 6/6/6 8/8/8 5/5/5
f 9/9/9 11/11/11 10/10/10
f 10/10/10 12/12/12 9/9/9
f 13/13/13 15/15/15 14/14/14
f 14/14/14 16/16/16 13/13/13
