#pillar01_A_4_10549_1141.obj

v -2.750451E-09 3 -0.2499995
v -0.2500001 3 4.957059E-07
v -0.2500001 3 -0.2499995
v 2.986406E-09 3 5.413238E-07

vn 5.11389E-11 0.9999999 4.371137E-08
vn 5.11389E-11 0.9999999 4.371137E-08
vn 5.11389E-11 0.9999999 4.371137E-08
vn 5.11389E-11 0.9999999 4.371137E-08

vt 0.2907715 0.7441406
vt 0.3337402 0.7011719
vt 0.2907715 0.7011719
vt 0.3337402 0.7441406

g pillar01_A_4_10549_1141
usemtl pillar01_A_4_10549_1141
usemap pillar01_A_4_10549_1141
f 1/1/1 3/3/3 2/2/2
f 2/2/2 4/4/4 1/1/1
