#pillar01_B_4_11306_437.obj

v -3.378362E-05 3 -0.1999753
v -0.2000356 3 2.411589E-05
v -0.2000344 3 -0.1999729
v -3.494751E-05 3 2.53222E-05

vn 2.981123E-11 0.999999 4.371138E-08
vn 2.981123E-11 0.999999 4.371138E-08
vn 2.981123E-11 0.999999 4.371138E-08
vn 2.981123E-11 0.999999 4.371138E-08

vt 0.9892578 -0.3359375
vt 1.047852 -0.3947754
vt 0.9892578 -0.3947754
vt 1.047852 -0.3359375

g pillar01_B_4_11306_437
usemtl pillar01_B_4_11306_437
usemap pillar01_B_4_11306_437
f 1/1/1 3/3/3 2/2/2
f 2/2/2 4/4/4 1/1/1
