#pillar01_A_4_10549_1142.obj

v 2.986406E-09 3 5.413238E-07
v -0.2500001 -5.135476E-08 1.875776E-07
v -0.2500001 3 4.957059E-07
v 3.34693E-09 -5.135476E-08 2.331955E-07
v -2.750451E-09 3 -0.2499995
v 3.34693E-09 -5.135476E-08 2.331955E-07
v 2.986406E-09 3 5.413238E-07
v -2.389926E-09 -5.135476E-08 -0.2499998
v -0.2500001 3 -0.2499995
v -2.389926E-09 -5.135476E-08 -0.2499998
v -2.750451E-09 3 -0.2499995
v -0.2500001 -5.135476E-08 -0.2499998
v -0.2500001 3 4.957059E-07
v -0.2500001 -5.135476E-08 -0.2499998
v -0.2500001 3 -0.2499995
v -0.2500001 -5.135476E-08 1.875776E-07

vn -0.9999995 -1.017253E-07 0.001169924
vn -0.9999995 -1.017253E-07 0.001169924
vn -0.9999995 -1.017253E-07 0.001169924
vn -0.9999995 -1.017253E-07 0.001169924
vn 0.001169924 -4.371139E-08 0.9999994
vn 0.001169924 -4.371139E-08 0.9999994
vn 0.001169924 -4.371139E-08 0.9999994
vn 0.001169924 -4.371139E-08 0.9999994
vn 0.9999995 1.017253E-07 -0.001169924
vn 0.9999995 1.017253E-07 -0.001169924
vn 0.9999995 1.017253E-07 -0.001169924
vn 0.9999995 1.017253E-07 -0.001169924
vn -0.001169924 4.371139E-08 -0.9999994
vn -0.001169924 4.371139E-08 -0.9999994
vn -0.001169924 4.371139E-08 -0.9999994
vn -0.001169924 4.371139E-08 -0.9999994

vt 0.1723633 0.7392578
vt 0.1292725 0.3093262
vt 0.1292725 0.7392578
vt 0.1723633 0.3093262
vt 0.1292725 0.7392578
vt 0.08630371 0.3093262
vt 0.08630371 0.7392578
vt 0.1292725 0.3093262
vt 0.1723633 0.7392578
vt 0.1292725 0.3093262
vt 0.1292725 0.7392578
vt 0.1723633 0.3093262
vt 0.1292725 0.7392578
vt 0.08630371 0.3093262
vt 0.08630371 0.7392578
vt 0.1292725 0.3093262

g pillar01_A_4_10549_1142
usemtl pillar01_A_4_10549_1142
usemap pillar01_A_4_10549_1142
f 1/1/1 3/3/3 2/2/2
f 2/2/2 4/4/4 1/1/1
f 5/5/5 7/7/7 6/6/6
f 6/6/6 8/8/8 5/5/5
f 9/9/9 11/11/11 10/10/10
f 10/10/10 12/12/12 9/9/9
f 13/13/13 15/15/15 14/14/14
f 14/14/14 16/16/16 13/13/13
