#pillar01_A_6_11288_1107.obj

v -5.826361E-06 3 -0.249989
v -0.2500071 3 1.04511E-05
v -0.2500062 3 -0.2499931
v -6.745207E-06 3 8.16309E-06

vn -3.375372E-10 0.9999995 -4.371008E-08
vn -3.375372E-10 0.9999995 -4.371008E-08
vn -3.375372E-10 0.9999995 -4.371008E-08
vn -3.375372E-10 0.9999995 -4.371008E-08

vt 0.2907715 0.7441406
vt 0.3337402 0.7011719
vt 0.2907715 0.7011719
vt 0.3337402 0.7441406

g pillar01_A_6_11288_1107
usemtl pillar01_A_6_11288_1107
usemap pillar01_A_6_11288_1107
f 1/1/1 3/3/3 2/2/2
f 2/2/2 4/4/4 1/1/1
