#pillar01_A_8831_1063.obj

v -3.830637E-07 3 -0.2500072
v -0.2500004 3 -1.282929E-05
v -0.2499993 3 -0.25001
v 2.081837E-07 3 -1.004725E-05

vn 4.369739E-08 0.9999996 1.106012E-09
vn 4.369739E-08 0.9999996 1.106012E-09
vn 4.369739E-08 0.9999996 1.106012E-09
vn 4.369739E-08 0.9999996 1.106012E-09

vt 0.2907715 0.7441406
vt 0.3337402 0.7011719
vt 0.2907715 0.7011719
vt 0.3337402 0.7441406

g pillar01_A_8831_1063
usemtl pillar01_A_8831_1063
usemap pillar01_A_8831_1063
f 1/1/1 3/3/3 2/2/2
f 2/2/2 4/4/4 1/1/1
