#pillar01_A_4_10895_1244.obj

v 5.376124E-06 3 -1.294815E-06
v -0.249995 5.661221E-08 -1.663332E-06
v -0.249995 3 -2.052333E-07
v 5.376124E-06 5.661223E-08 -1.163504E-06
v 5.928533E-06 3 -0.2500017
v 5.376124E-06 5.661223E-08 -1.163504E-06
v 5.376124E-06 3 -1.294815E-06
v 5.928533E-06 4.566966E-08 -0.2500015
v -0.2499945 3 -0.2500006
v 5.928533E-06 4.566966E-08 -0.2500015
v 5.928533E-06 3 -0.2500017
v -0.2499944 4.566965E-08 -0.250002
v -0.249995 3 -2.052333E-07
v -0.2499944 4.566965E-08 -0.250002
v -0.2499945 3 -0.2500006
v -0.249995 5.661221E-08 -1.663332E-06

vn 0.007726744 -1.454365E-07 0.9999701
vn 0.007726744 -1.454365E-07 0.9999701
vn 0.007726744 -1.454365E-07 0.9999701
vn 0.007726744 -1.454365E-07 0.9999701
vn 0.9999701 1.776356E-14 -0.007726545
vn 0.9999701 1.776356E-14 -0.007726545
vn 0.9999701 1.776356E-14 -0.007726545
vn 0.9999701 1.776356E-14 -0.007726545
vn -0.007726744 1.454365E-07 -0.9999701
vn -0.007726744 1.454365E-07 -0.9999701
vn -0.007726744 1.454365E-07 -0.9999701
vn -0.007726744 1.454365E-07 -0.9999701
vn -0.9999701 -1.776356E-14 0.007726545
vn -0.9999701 -1.776356E-14 0.007726545
vn -0.9999701 -1.776356E-14 0.007726545
vn -0.9999701 -1.776356E-14 0.007726545

vt 0.1723633 0.7392578
vt 0.1292725 0.3093262
vt 0.1292725 0.7392578
vt 0.1723633 0.3093262
vt 0.1292725 0.7392578
vt 0.08630371 0.3093262
vt 0.08630371 0.7392578
vt 0.1292725 0.3093262
vt 0.1723633 0.7392578
vt 0.1292725 0.3093262
vt 0.1292725 0.7392578
vt 0.1723633 0.3093262
vt 0.1292725 0.7392578
vt 0.08630371 0.3093262
vt 0.08630371 0.7392578
vt 0.1292725 0.3093262

g pillar01_A_4_10895_1244
usemtl pillar01_A_4_10895_1244
usemap pillar01_A_4_10895_1244
f 1/1/1 3/3/3 2/2/2
f 2/2/2 4/4/4 1/1/1
f 5/5/5 7/7/7 6/6/6
f 6/6/6 8/8/8 5/5/5
f 9/9/9 11/11/11 10/10/10
f 10/10/10 12/12/12 9/9/9
f 13/13/13 15/15/15 14/14/14
f 14/14/14 16/16/16 13/13/13
