#pillar01_A_4_9096_1285.obj

v 7.281994E-06 3 -0.2500051
v -0.2499936 3 -6.845828E-06
v -0.2499931 3 -0.2500104
v 6.754149E-06 3 -7.935409E-06

vn 3.377355E-10 0.9999993 4.371006E-08
vn 3.377355E-10 0.9999993 4.371006E-08
vn 3.377355E-10 0.9999993 4.371006E-08
vn 3.377355E-10 0.9999993 4.371006E-08

vt 0.2907715 0.7441406
vt 0.3337402 0.7011719
vt 0.2907715 0.7011719
vt 0.3337402 0.7441406

g pillar01_A_4_9096_1285
usemtl pillar01_A_4_9096_1285
usemap pillar01_A_4_9096_1285
f 1/1/1 3/3/3 2/2/2
f 2/2/2 4/4/4 1/1/1
