#pillar01_B_9538_1223.obj

v 5.536829E-06 3 -0.2000063
v -0.199994 3 -7.193446E-06
v -0.1999953 3 -0.2000113
v 5.309442E-06 3 -8.585265E-06

vn 3.373537E-10 0.9999995 4.371009E-08
vn 3.373537E-10 0.9999995 4.371009E-08
vn 3.373537E-10 0.9999995 4.371009E-08
vn 3.373537E-10 0.9999995 4.371009E-08

vt 0.9892578 -0.3359375
vt 1.047852 -0.3947754
vt 0.9892578 -0.3947754
vt 1.047852 -0.3359375

g pillar01_B_9538_1223
usemtl pillar01_B_9538_1223
usemap pillar01_B_9538_1223
f 1/1/1 3/3/3 2/2/2
f 2/2/2 4/4/4 1/1/1
