#pillar01_middle_1_10435_1241.obj

v -0.2000006 3 -0.1249999
v -0.2400006 3 0.1250001
v -0.2400006 3 -0.1249998
v -0.2000006 3 0.1250002

vn 5.114422E-11 0.9999999 4.371136E-08
vn 5.114422E-11 0.9999999 4.371136E-08
vn 5.114422E-11 0.9999999 4.371136E-08
vn 5.114422E-11 0.9999999 4.371136E-08

vt 0.2907715 0.7348633
vt 0.3337402 0.7260742
vt 0.2907715 0.7260742
vt 0.3337402 0.7348633

g pillar01_middle_1_10435_1241
usemtl pillar01_middle_1_10435_1241
usemap pillar01_middle_1_10435_1241
f 1/1/1 3/3/3 2/2/2
f 2/2/2 4/4/4 1/1/1
