#pillar01_A_1_10609_1065.obj

v -3.967767E-06 3 -0.2499987
v -0.2500038 3 2.546934E-06
v -0.2500045 3 -0.249998
v -4.162852E-06 3 1.857762E-06

vn 1.106001E-09 0.9999996 -4.369738E-08
vn 1.106001E-09 0.9999996 -4.369738E-08
vn 1.106001E-09 0.9999996 -4.369738E-08
vn 1.106001E-09 0.9999996 -4.369738E-08

vt 0.2907715 0.7441406
vt 0.3337402 0.7011719
vt 0.2907715 0.7011719
vt 0.3337402 0.7441406

g pillar01_A_1_10609_1065
usemtl pillar01_A_1_10609_1065
usemap pillar01_A_1_10609_1065
f 1/1/1 3/3/3 2/2/2
f 2/2/2 4/4/4 1/1/1
