#pillar01_A_5_11253_1290.obj

v -8.951748E-07 3 -5.3524E-06
v -0.2500013 5.661228E-08 -4.883256E-06
v -0.2500013 3 -4.883256E-06
v -8.951748E-07 5.661228E-08 -5.3524E-06
v -1.416899E-06 3 -0.2500057
v -8.951748E-07 5.661228E-08 -5.3524E-06
v -8.951748E-07 3 -5.3524E-06
v -1.416899E-06 5.661228E-08 -0.2500057
v -0.2500002 3 -0.2500052
v -1.416899E-06 5.661228E-08 -0.2500057
v -1.416899E-06 3 -0.2500057
v -0.2500002 5.661228E-08 -0.2500052
v -0.2500013 3 -4.883256E-06
v -0.2500002 5.661228E-08 -0.2500052
v -0.2500002 3 -0.2500052
v -0.2500013 5.661228E-08 -4.883256E-06

vn -0.99997 -1.454365E-07 0.007728929
vn -0.99997 -1.454365E-07 0.007728929
vn -0.99997 -1.454365E-07 0.007728929
vn -0.99997 -1.454365E-07 0.007728929
vn 0.007729177 2.745345E-14 0.9999701
vn 0.007729177 2.745345E-14 0.9999701
vn 0.007729177 2.745345E-14 0.9999701
vn 0.007729177 2.745345E-14 0.9999701
vn 0.99997 1.454365E-07 -0.007728929
vn 0.99997 1.454365E-07 -0.007728929
vn 0.99997 1.454365E-07 -0.007728929
vn 0.99997 1.454365E-07 -0.007728929
vn -0.007729177 -2.745345E-14 -0.9999701
vn -0.007729177 -2.745345E-14 -0.9999701
vn -0.007729177 -2.745345E-14 -0.9999701
vn -0.007729177 -2.745345E-14 -0.9999701

vt 0.1723633 0.7392578
vt 0.1292725 0.3093262
vt 0.1292725 0.7392578
vt 0.1723633 0.3093262
vt 0.1292725 0.7392578
vt 0.08630371 0.3093262
vt 0.08630371 0.7392578
vt 0.1292725 0.3093262
vt 0.1723633 0.7392578
vt 0.1292725 0.3093262
vt 0.1292725 0.7392578
vt 0.1723633 0.3093262
vt 0.1292725 0.7392578
vt 0.08630371 0.3093262
vt 0.08630371 0.7392578
vt 0.1292725 0.3093262

g pillar01_A_5_11253_1290
usemtl pillar01_A_5_11253_1290
usemap pillar01_A_5_11253_1290
f 1/1/1 3/3/3 2/2/2
f 2/2/2 4/4/4 1/1/1
f 5/5/5 7/7/7 6/6/6
f 6/6/6 8/8/8 5/5/5
f 9/9/9 11/11/11 10/10/10
f 10/10/10 12/12/12 9/9/9
f 13/13/13 15/15/15 14/14/14
f 14/14/14 16/16/16 13/13/13
