#pillar01_A_9413_1167.obj

v 9.175982E-07 3 -0.2500079
v -0.2499991 3 -8.048509E-06
v -0.2499986 3 -0.2500084
v 1.290386E-06 3 -7.574011E-06

vn -4.371006E-08 0.9999993 3.37438E-10
vn -4.371006E-08 0.9999993 3.37438E-10
vn -4.371006E-08 0.9999993 3.37438E-10
vn -4.371006E-08 0.9999993 3.37438E-10

vt 0.2907715 0.7441406
vt 0.3337402 0.7011719
vt 0.2907715 0.7011719
vt 0.3337402 0.7441406

g pillar01_A_9413_1167
usemtl pillar01_A_9413_1167
usemap pillar01_A_9413_1167
f 1/1/1 3/3/3 2/2/2
f 2/2/2 4/4/4 1/1/1
