#pillar01_A_3_10703_1125.obj

v 5.703298E-06 3 -0.2500007
v -0.249994 3 -1.350502E-06
v -0.2499941 3 -0.2500021
v 5.739921E-06 3 -6.310279E-06

vn 0.02056636 0.9997876 0.001319166
vn 0.02056636 0.9997876 0.001319166
vn 0.02056636 0.9997876 0.001319166
vn 0.02056636 0.9997876 0.001319166

vt 0.2907715 0.7441406
vt 0.3337402 0.7011719
vt 0.2907715 0.7011719
vt 0.3337402 0.7441406

g pillar01_A_3_10703_1125
usemtl pillar01_A_3_10703_1125
usemap pillar01_A_3_10703_1125
f 1/1/1 3/3/3 2/2/2
f 2/2/2 4/4/4 1/1/1
