#pillar01_A_2_11062_1177.obj

v -2.979115E-06 3 -0.2499936
v -0.2500028 3 8.420953E-06
v -0.250003 3 -0.249992
v -2.839804E-06 3 6.741745E-06

vn 4.371007E-08 0.9999995 -3.376231E-10
vn 4.371007E-08 0.9999995 -3.376231E-10
vn 4.371007E-08 0.9999995 -3.376231E-10
vn 4.371007E-08 0.9999995 -3.376231E-10

vt 0.2907715 0.7441406
vt 0.3337402 0.7011719
vt 0.2907715 0.7011719
vt 0.3337402 0.7441406

g pillar01_A_2_11062_1177
usemtl pillar01_A_2_11062_1177
usemap pillar01_A_2_11062_1177
f 1/1/1 3/3/3 2/2/2
f 2/2/2 4/4/4 1/1/1
