#pillar01_A_4_11133_1193.obj

v -3.860359E-06 3 -0.2499957
v -0.2500037 3 4.212573E-06
v -0.2500038 3 -0.2499966
v -3.74364E-06 3 3.286955E-06

vn -6.928049E-10 0.9999996 -4.370592E-08
vn -6.928049E-10 0.9999996 -4.370592E-08
vn -6.928049E-10 0.9999996 -4.370592E-08
vn -6.928049E-10 0.9999996 -4.370592E-08

vt 0.2907715 0.7441406
vt 0.3337402 0.7011719
vt 0.2907715 0.7011719
vt 0.3337402 0.7441406

g pillar01_A_4_11133_1193
usemtl pillar01_A_4_11133_1193
usemap pillar01_A_4_11133_1193
f 1/1/1 3/3/3 2/2/2
f 2/2/2 4/4/4 1/1/1
