#pillar01_A_3_10694_1101.obj

v 4.287657E-06 3 -0.2500055
v -0.2499957 3 -7.1909E-06
v -0.2499957 3 -0.2500062
v 4.361602E-06 3 -6.431723E-06

vn -6.928182E-10 0.9999999 -4.37059E-08
vn -6.928182E-10 0.9999999 -4.37059E-08
vn -6.928182E-10 0.9999999 -4.37059E-08
vn -6.928182E-10 0.9999999 -4.37059E-08

vt 0.2907715 0.7441406
vt 0.3337402 0.7011719
vt 0.2907715 0.7011719
vt 0.3337402 0.7441406

g pillar01_A_3_10694_1101
usemtl pillar01_A_3_10694_1101
usemap pillar01_A_3_10694_1101
f 1/1/1 3/3/3 2/2/2
f 2/2/2 4/4/4 1/1/1
