#porch_railing_A_3_8830_851.obj

v 0.1113967 0.9631739 -0.8500007
v 0.138609 0.1905287 -0.8500013
v 0.1113967 0.1905287 -0.8500007
v 0.138609 0.9631739 -0.8500013
v 0.111397 0.9631739 -0.8999995
v 0.1386092 0.1905287 -0.9
v 0.1386092 0.9631739 -0.9
v 0.111397 0.1905287 -0.8999995
v 0.138609 0.9631739 -0.8500013
v 0.1386092 0.1905287 -0.9
v 0.138609 0.1905287 -0.8500013
v 0.1386092 0.9631739 -0.9
v 0.1113967 0.1905287 -0.8500007
v 0.111397 0.9631739 -0.8999995
v 0.1113967 0.9631739 -0.8500007
v 0.111397 0.1905287 -0.8999995
v 0.1113965 0.9631739 -0.6000001
v 0.1386088 0.1905283 -0.6000007
v 0.1113965 0.1905283 -0.6000001
v 0.1386088 0.9631739 -0.6000007
v 0.1113968 0.9631739 -0.6499989
v 0.138609 0.1905287 -0.6499994
v 0.138609 0.9631739 -0.6499994
v 0.1113968 0.1905287 -0.6499989
v 0.1386088 0.9631739 -0.6000007
v 0.138609 0.1905287 -0.6499994
v 0.1386088 0.1905283 -0.6000007
v 0.138609 0.9631739 -0.6499994
v 0.1113965 0.1905283 -0.6000001
v 0.1113968 0.9631739 -0.6499989
v 0.1113965 0.9631739 -0.6000001
v 0.1113968 0.1905287 -0.6499989
v 0.1113972 0.9631739 -0.3499996
v 0.1386095 0.1905287 -0.3500001
v 0.1113972 0.1905287 -0.3499996
v 0.1386095 0.9631739 -0.3500001
v 0.1113966 0.9631739 -0.3999984
v 0.1386088 0.1905287 -0.3999989
v 0.1386088 0.9631739 -0.3999989
v 0.1113966 0.1905287 -0.3999984
v 0.1386095 0.9631739 -0.3500001
v 0.1386088 0.1905287 -0.3999989
v 0.1386095 0.1905287 -0.3500001
v 0.1386088 0.9631739 -0.3999989
v 0.1113972 0.1905287 -0.3499996
v 0.1113966 0.9631739 -0.3999984
v 0.1113972 0.9631739 -0.3499996
v 0.1113966 0.1905287 -0.3999984
v 0.111397 0.9631739 -0.09999904
v 0.1386093 0.1905283 -0.09999957
v 0.111397 0.1905283 -0.09999904
v 0.1386093 0.9631739 -0.09999957
v 0.1113972 0.9631739 -0.1500012
v 0.1386095 0.1905287 -0.1499983
v 0.1386095 0.9631739 -0.1499983
v 0.1113972 0.1905287 -0.1500012
v 0.1386093 0.9631739 -0.09999957
v 0.1386095 0.1905287 -0.1499983
v 0.1386093 0.1905283 -0.09999957
v 0.1386095 0.9631739 -0.1499983
v 0.111397 0.1905283 -0.09999904
v 0.1113972 0.9631739 -0.1500012
v 0.111397 0.9631739 -0.09999904
v 0.1113972 0.1905287 -0.1500012
v 3.181984E-06 -7.595153E-08 -3.157717E-06
v 0.01000386 0.04999992 -0.9999996
v 0.01000376 0.04999992 -4.154165E-06
v 3.283459E-06 -7.595153E-08 -0.9999986
v 0.07500394 0.9561125 -0.9999992
v 0.1750039 0.956112 -3.323347E-06
v 0.175004 0.9561125 -0.9999988
v 0.07500384 0.956112 -3.724348E-06
v 0.175004 1.006112 -0.9999988
v 0.07500384 1.006112 -3.724348E-06
v 0.07500394 1.006112 -0.9999992
v 0.1750039 1.006112 -3.323347E-06
v 0.175004 0.9561125 -0.9999988
v 0.1750039 1.006112 -3.323347E-06
v 0.175004 1.006112 -0.9999988
v 0.1750039 0.956112 -3.323347E-06
v 0.07500394 1.006112 -0.9999992
v 0.07500384 0.956112 -3.724348E-06
v 0.07500394 0.9561125 -0.9999992
v 0.07500384 1.006112 -3.724348E-06
v 0.175004 0.1941114 -0.9999988
v 0.07500384 0.194111 -3.724348E-06
v 0.07500394 0.1941114 -0.9999992
v 0.1750039 0.194111 -3.323347E-06
v 0.175004 0.1441112 -0.9999988
v 0.1750039 0.194111 -3.323347E-06
v 0.175004 0.1941114 -0.9999988
v 0.1750039 0.1441112 -3.323347E-06
v 0.07500394 0.1941114 -0.9999992
v 0.07500384 0.1441112 -3.724348E-06
v 0.07500394 0.1441112 -0.9999992
v 0.07500384 0.194111 -3.724348E-06
v 0.2400032 0.04999992 -1.000002
v 0.01000376 0.04999992 -4.154165E-06
v 0.01000386 0.04999992 -0.9999996
v 0.2400039 0.04999992 -6.298419E-06
v 0.2500038 -7.595153E-08 -0.9999993
v 0.2400039 0.04999992 -6.298419E-06
v 0.2400032 0.04999992 -1.000002
v 0.2500037 -7.595153E-08 -3.868433E-06
v 0.07500394 0.1441112 -0.9999992
v 0.1750039 0.1441112 -3.323347E-06
v 0.175004 0.1441112 -0.9999988
v 0.07500384 0.1441112 -3.724348E-06

vn -0.02530219 -4.371136E-08 0.9996799
vn -0.02530219 -4.371136E-08 0.9996799
vn -0.02530219 -4.371136E-08 0.9996799
vn -0.02530219 -4.371136E-08 0.9996799
vn 0.02530219 4.371136E-08 -0.9996799
vn 0.02530219 4.371136E-08 -0.9996799
vn 0.02530219 4.371136E-08 -0.9996799
vn 0.02530219 4.371136E-08 -0.9996799
vn 0.9996799 -2.087967E-23 0.02530243
vn 0.9996799 -2.087967E-23 0.02530243
vn 0.9996799 -2.087967E-23 0.02530243
vn 0.9996799 -2.087967E-23 0.02530243
vn -0.9996799 2.087967E-23 -0.02530243
vn -0.9996799 2.087967E-23 -0.02530243
vn -0.9996799 2.087967E-23 -0.02530243
vn -0.9996799 2.087967E-23 -0.02530243
vn -0.02530219 -4.371136E-08 0.9996799
vn -0.02530219 -4.371136E-08 0.9996799
vn -0.02530219 -4.371136E-08 0.9996799
vn -0.02530219 -4.371136E-08 0.9996799
vn 0.02530219 4.371136E-08 -0.9996799
vn 0.02530219 4.371136E-08 -0.9996799
vn 0.02530219 4.371136E-08 -0.9996799
vn 0.02530219 4.371136E-08 -0.9996799
vn 0.9996799 -2.087967E-23 0.02530243
vn 0.9996799 -2.087967E-23 0.02530243
vn 0.9996799 -2.087967E-23 0.02530243
vn 0.9996799 -2.087967E-23 0.02530243
vn -0.9996799 2.087967E-23 -0.02530243
vn -0.9996799 2.087967E-23 -0.02530243
vn -0.9996799 2.087967E-23 -0.02530243
vn -0.9996799 2.087967E-23 -0.02530243
vn -0.02530219 -4.371136E-08 0.9996799
vn -0.02530219 -4.371136E-08 0.9996799
vn -0.02530219 -4.371136E-08 0.9996799
vn -0.02530219 -4.371136E-08 0.9996799
vn 0.02530219 4.371136E-08 -0.9996799
vn 0.02530219 4.371136E-08 -0.9996799
vn 0.02530219 4.371136E-08 -0.9996799
vn 0.02530219 4.371136E-08 -0.9996799
vn 0.9996799 -2.087967E-23 0.02530243
vn 0.9996799 -2.087967E-23 0.02530243
vn 0.9996799 -2.087967E-23 0.02530243
vn 0.9996799 -2.087967E-23 0.02530243
vn -0.9996799 2.087967E-23 -0.02530243
vn -0.9996799 2.087967E-23 -0.02530243
vn -0.9996799 2.087967E-23 -0.02530243
vn -0.9996799 2.087967E-23 -0.02530243
vn -0.02530219 -4.371136E-08 0.9996799
vn -0.02530219 -4.371136E-08 0.9996799
vn -0.02530219 -4.371136E-08 0.9996799
vn -0.02530219 -4.371136E-08 0.9996799
vn 0.02530219 4.371136E-08 -0.9996799
vn 0.02530219 4.371136E-08 -0.9996799
vn 0.02530219 4.371136E-08 -0.9996799
vn 0.02530219 4.371136E-08 -0.9996799
vn 0.9996799 -2.087967E-23 0.02530243
vn 0.9996799 -2.087967E-23 0.02530243
vn 0.9996799 -2.087967E-23 0.02530243
vn 0.9996799 -2.087967E-23 0.02530243
vn -0.9996799 2.087967E-23 -0.02530243
vn -0.9996799 2.087967E-23 -0.02530243
vn -0.9996799 2.087967E-23 -0.02530243
vn -0.9996799 2.087967E-23 -0.02530243
vn -0.9802667 0.1961161 -0.02481106
vn -0.9802667 0.1961161 -0.02481106
vn -0.9802667 0.196116 -0.02481106
vn -0.9802667 0.196116 -0.02481106
vn 6.897234E-09 -0.9999996 -2.725071E-07
vn 6.897234E-09 -0.9999996 -2.725071E-07
vn 6.897234E-09 -0.9999996 -2.725071E-07
vn 6.897234E-09 -0.9999996 -2.725071E-07
vn -6.897234E-09 0.9999996 2.725071E-07
vn -6.897234E-09 0.9999996 2.725071E-07
vn -6.897234E-09 0.9999996 2.725071E-07
vn -6.897234E-09 0.9999996 2.725071E-07
vn 0.9996799 -2.087967E-23 0.02530243
vn 0.9996799 -2.087967E-23 0.02530243
vn 0.9996799 -2.087967E-23 0.02530243
vn 0.9996799 -2.087967E-23 0.02530243
vn -0.9996799 2.087967E-23 -0.02530243
vn -0.9996799 2.087967E-23 -0.02530243
vn -0.9996799 2.087967E-23 -0.02530243
vn -0.9996799 2.087967E-23 -0.02530243
vn -1.105994E-09 0.9999996 4.369739E-08
vn -1.105994E-09 0.9999996 4.369739E-08
vn -1.105994E-09 0.9999996 4.369739E-08
vn -1.105994E-09 0.9999996 4.369739E-08
vn 0.9996799 -2.087967E-23 0.02530243
vn 0.9996799 -2.087967E-23 0.02530243
vn 0.9996799 -2.087967E-23 0.02530243
vn 0.9996799 -2.087967E-23 0.02530243
vn -0.9996799 2.087967E-23 -0.02530243
vn -0.9996799 2.087967E-23 -0.02530243
vn -0.9996799 2.087967E-23 -0.02530243
vn -0.9996799 2.087967E-23 -0.02530243
vn -1.105994E-09 0.9999996 4.369739E-08
vn -1.105994E-09 0.9999996 4.369739E-08
vn -1.105994E-09 0.9999996 4.369739E-08
vn -1.105994E-09 0.9999996 4.369739E-08
vn 0.9802667 0.1961161 0.02481108
vn 0.9802667 0.1961161 0.02481108
vn 0.9802667 0.1961161 0.02481108
vn 0.9802667 0.1961161 0.02481108
vn 1.105994E-09 -0.9999996 -4.369739E-08
vn 1.105994E-09 -0.9999996 -4.369739E-08
vn 1.105994E-09 -0.9999996 -4.369739E-08
vn 1.105994E-09 -0.9999996 -4.369739E-08

vt 0.0553894 0.8691406
vt 0.0526123 0.9477539
vt 0.0553894 0.9477539
vt 0.0526123 0.8691406
vt 0.0526123 0.8691406
vt 0.0553894 0.9477539
vt 0.0553894 0.8691406
vt 0.0526123 0.9477539
vt 0.0526123 0.8691406
vt 0.04751587 0.9477539
vt 0.0526123 0.9477539
vt 0.04751587 0.8691406
vt 0.04751587 0.9477539
vt 0.0526123 0.8691406
vt 0.04751587 0.8691406
vt 0.0526123 0.9477539
vt 0.0553894 0.8691406
vt 0.0526123 0.9477539
vt 0.0553894 0.9477539
vt 0.0526123 0.8691406
vt 0.0526123 0.8691406
vt 0.0553894 0.9477539
vt 0.0553894 0.8691406
vt 0.0526123 0.9477539
vt 0.0526123 0.8691406
vt 0.04751587 0.9477539
vt 0.0526123 0.9477539
vt 0.04751587 0.8691406
vt 0.04751587 0.9477539
vt 0.0526123 0.8691406
vt 0.04751587 0.8691406
vt 0.0526123 0.9477539
vt 0.0553894 0.8691406
vt 0.0526123 0.9477539
vt 0.0553894 0.9477539
vt 0.0526123 0.8691406
vt 0.0526123 0.8691406
vt 0.0553894 0.9477539
vt 0.0553894 0.8691406
vt 0.0526123 0.9477539
vt 0.0526123 0.8691406
vt 0.04751587 0.9477539
vt 0.0526123 0.9477539
vt 0.04751587 0.8691406
vt 0.04751587 0.9477539
vt 0.0526123 0.8691406
vt 0.04751587 0.8691406
vt 0.0526123 0.9477539
vt 0.0553894 0.8691406
vt 0.0526123 0.9477539
vt 0.0553894 0.9477539
vt 0.0526123 0.8691406
vt 0.0526123 0.8691406
vt 0.0553894 0.9477539
vt 0.0553894 0.8691406
vt 0.0526123 0.9477539
vt 0.0526123 0.8691406
vt 0.04751587 0.9477539
vt 0.0526123 0.9477539
vt 0.04751587 0.8691406
vt 0.04751587 0.9477539
vt 0.0526123 0.8691406
vt 0.04751587 0.8691406
vt 0.0526123 0.9477539
vt 0.07525635 0.8564453
vt 0.1773682 0.8510742
vt 0.07525635 0.8510742
vt 0.1773682 0.8564453
vt 0.05108643 0.9804688
vt 0.1531982 0.9707031
vt 0.05108643 0.9707031
vt 0.1531982 0.9804688
vt 0.05108643 0.9804688
vt 0.1531982 0.9707031
vt 0.05108643 0.9707031
vt 0.1531982 0.9804688
vt 0.05108643 0.9858398
vt 0.1531982 0.9804688
vt 0.05108643 0.9804688
vt 0.1531982 0.9858398
vt 0.05108643 0.9707031
vt 0.1531982 0.965332
vt 0.05108643 0.965332
vt 0.1531982 0.9707031
vt 0.1531982 0.9707031
vt 0.05108643 0.9804688
vt 0.1531982 0.9804688
vt 0.05108643 0.9707031
vt 0.1531982 0.965332
vt 0.05108643 0.9707031
vt 0.1531982 0.9707031
vt 0.05108643 0.965332
vt 0.1531982 0.9804688
vt 0.05108643 0.9858398
vt 0.1531982 0.9858398
vt 0.05108643 0.9804688
vt 0.1773682 0.8276367
vt 0.07525635 0.8510742
vt 0.1773682 0.8510742
vt 0.07525635 0.8276367
vt 0.1773682 0.8222656
vt 0.07525635 0.8276367
vt 0.1773682 0.8276367
vt 0.07525635 0.8222656
vt 0.05108643 0.9804688
vt 0.1531982 0.9707031
vt 0.05108643 0.9707031
vt 0.1531982 0.9804688

g porch_railing_A_3_8830_851
usemtl porch_railing_A_3_8830_851
usemap porch_railing_A_3_8830_851
f 1/1/1 3/3/3 2/2/2
f 2/2/2 4/4/4 1/1/1
f 5/5/5 7/7/7 6/6/6
f 6/6/6 8/8/8 5/5/5
f 9/9/9 11/11/11 10/10/10
f 10/10/10 12/12/12 9/9/9
f 13/13/13 15/15/15 14/14/14
f 14/14/14 16/16/16 13/13/13
f 17/17/17 19/19/19 18/18/18
f 18/18/18 20/20/20 17/17/17
f 21/21/21 23/23/23 22/22/22
f 22/22/22 24/24/24 21/21/21
f 25/25/25 27/27/27 26/26/26
f 26/26/26 28/28/28 25/25/25
f 29/29/29 31/31/31 30/30/30
f 30/30/30 32/32/32 29/29/29
f 33/33/33 35/35/35 34/34/34
f 34/34/34 36/36/36 33/33/33
f 37/37/37 39/39/39 38/38/38
f 38/38/38 40/40/40 37/37/37
f 41/41/41 43/43/43 42/42/42
f 42/42/42 44/44/44 41/41/41
f 45/45/45 47/47/47 46/46/46
f 46/46/46 48/48/48 45/45/45
f 49/49/49 51/51/51 50/50/50
f 50/50/50 52/52/52 49/49/49
f 53/53/53 55/55/55 54/54/54
f 54/54/54 56/56/56 53/53/53
f 57/57/57 59/59/59 58/58/58
f 58/58/58 60/60/60 57/57/57
f 61/61/61 63/63/63 62/62/62
f 62/62/62 64/64/64 61/61/61
f 65/65/65 67/67/67 66/66/66
f 66/66/66 68/68/68 65/65/65
f 69/69/69 71/71/71 70/70/70
f 70/70/70 72/72/72 69/69/69
f 73/73/73 75/75/75 74/74/74
f 74/74/74 76/76/76 73/73/73
f 77/77/77 79/79/79 78/78/78
f 78/78/78 80/80/80 77/77/77
f 81/81/81 83/83/83 82/82/82
f 82/82/82 84/84/84 81/81/81
f 85/85/85 87/87/87 86/86/86
f 86/86/86 88/88/88 85/85/85
f 89/89/89 91/91/91 90/90/90
f 90/90/90 92/92/92 89/89/89
f 93/93/93 95/95/95 94/94/94
f 94/94/94 96/96/96 93/93/93
f 97/97/97 99/99/99 98/98/98
f 98/98/98 100/100/100 97/97/97
f 101/101/101 103/103/103 102/102/102
f 102/102/102 104/104/104 101/101/101
f 105/105/105 107/107/107 106/106/106
f 106/106/106 108/108/108 105/105/105
