#porch_railing_A_2_11047_865.obj

v 0.1114075 0.9631742 -0.849996
v 0.1386198 0.1905291 -0.8499961
v 0.1114075 0.1905291 -0.8499959
v 0.1386198 0.9631742 -0.8499962
v 0.111404 0.9631742 -0.899996
v 0.1386164 0.1905291 -0.8999962
v 0.1386164 0.9631742 -0.8999962
v 0.111404 0.1905291 -0.8999959
v 0.1386198 0.9631742 -0.8499962
v 0.1386164 0.1905291 -0.8999962
v 0.1386198 0.1905291 -0.8499961
v 0.1386164 0.9631742 -0.8999962
v 0.1114075 0.1905291 -0.8499959
v 0.111404 0.9631742 -0.899996
v 0.1114075 0.9631742 -0.849996
v 0.111404 0.1905291 -0.8999959
v 0.1114035 0.9631742 -0.599996
v 0.1386158 0.1905286 -0.5999957
v 0.1114035 0.1905286 -0.5999959
v 0.1386158 0.9631742 -0.5999957
v 0.1114071 0.9631742 -0.6499961
v 0.1386194 0.1905286 -0.6499959
v 0.1386194 0.9631742 -0.6499959
v 0.1114071 0.1905286 -0.649996
v 0.1386158 0.9631742 -0.5999957
v 0.1386194 0.1905286 -0.6499959
v 0.1386158 0.1905286 -0.5999957
v 0.1386194 0.9631742 -0.6499959
v 0.1114035 0.1905286 -0.5999959
v 0.1114071 0.9631742 -0.6499961
v 0.1114035 0.9631742 -0.599996
v 0.1114071 0.1905286 -0.649996
v 0.1114066 0.9631742 -0.3499961
v 0.1386189 0.1905286 -0.3499959
v 0.1114066 0.1905286 -0.3499961
v 0.1386189 0.9631742 -0.3499959
v 0.1114032 0.9631742 -0.3999959
v 0.1386155 0.1905286 -0.3999959
v 0.1386155 0.9631742 -0.3999959
v 0.1114032 0.1905286 -0.3999958
v 0.1386189 0.9631742 -0.3499959
v 0.1386155 0.1905286 -0.3999959
v 0.1386189 0.1905286 -0.3499959
v 0.1386155 0.9631742 -0.3999959
v 0.1114066 0.1905286 -0.3499961
v 0.1114032 0.9631742 -0.3999959
v 0.1114066 0.9631742 -0.3499961
v 0.1114032 0.1905286 -0.3999958
v 0.1114026 0.9631742 -0.09999585
v 0.1386149 0.1905287 -0.09999584
v 0.1114026 0.1905287 -0.09999581
v 0.1386149 0.9631742 -0.09999587
v 0.1114062 0.9631742 -0.149996
v 0.1386186 0.1905287 -0.149996
v 0.1386186 0.9631742 -0.149996
v 0.1114062 0.1905287 -0.149996
v 0.1386149 0.9631742 -0.09999587
v 0.1386186 0.1905287 -0.149996
v 0.1386149 0.1905287 -0.09999584
v 0.1386186 0.9631742 -0.149996
v 0.1114026 0.1905287 -0.09999581
v 0.1114062 0.9631742 -0.149996
v 0.1114026 0.9631742 -0.09999585
v 0.1114062 0.1905287 -0.149996
v 1.316661E-05 1.59504E-07 -7.516782E-07
v 0.0100124 0.05000018 -0.9999961
v 0.01001054 0.05 -7.652211E-07
v 1.503462E-05 1.157928E-07 -0.9999961
v 0.07501294 0.9561126 -0.9999959
v 0.175013 0.9561122 -8.831012E-07
v 0.1750149 0.9561126 -0.9999962
v 0.07501107 0.9561122 -8.197288E-07
v 0.1750149 1.006112 -0.9999962
v 0.07501107 1.006112 -8.219143E-07
v 0.07501294 1.006112 -0.9999959
v 0.175013 1.006112 -8.852867E-07
v 0.1750149 0.9561126 -0.9999962
v 0.175013 1.006112 -8.852867E-07
v 0.1750149 1.006112 -0.9999962
v 0.175013 0.9561122 -8.831012E-07
v 0.07501294 1.006112 -0.9999959
v 0.07501107 0.9561122 -8.197288E-07
v 0.07501294 0.9561126 -0.9999959
v 0.07501107 1.006112 -8.219143E-07
v 0.1750149 0.1941114 -0.9999962
v 0.07501107 0.1941115 -7.864206E-07
v 0.07501294 0.1941114 -0.9999959
v 0.175013 0.1941115 -8.49793E-07
v 0.1750149 0.1441116 -0.9999962
v 0.175013 0.1941115 -8.49793E-07
v 0.1750149 0.1941114 -0.9999962
v 0.175013 0.1441112 -8.476075E-07
v 0.07501294 0.1941114 -0.9999959
v 0.07501107 0.1441112 -7.842351E-07
v 0.07501294 0.1441116 -0.9999959
v 0.07501107 0.1941115 -7.864206E-07
v 0.2400154 0.05000018 -0.999996
v 0.01001054 0.05 -7.652211E-07
v 0.0100124 0.05000018 -0.9999961
v 0.2400135 0.05 -8.583939E-07
v 0.2500128 1.157929E-07 -0.999996
v 0.2400135 0.05 -8.583939E-07
v 0.2400154 0.05000018 -0.999996
v 0.2500109 1.59504E-07 -6.471909E-07
v 0.07501294 0.1441116 -0.9999959
v 0.175013 0.1441112 -8.476075E-07
v 0.1750149 0.1441116 -0.9999962
v 0.07501107 0.1441112 -7.842351E-07

vn 0.9997655 -4.371136E-08 0.021653
vn 0.9997655 -4.371136E-08 0.021653
vn 0.9997655 -4.371136E-08 0.021653
vn 0.9997655 -4.371136E-08 0.021653
vn -0.9997655 4.371136E-08 -0.021653
vn -0.9997655 4.371136E-08 -0.021653
vn -0.9997655 4.371136E-08 -0.021653
vn -0.9997655 4.371136E-08 -0.021653
vn 0.02165272 0 -0.9997656
vn 0.02165272 0 -0.9997656
vn 0.02165272 0 -0.9997656
vn 0.02165272 0 -0.9997656
vn -0.02165272 0 0.9997656
vn -0.02165272 0 0.9997656
vn -0.02165272 0 0.9997656
vn -0.02165272 0 0.9997656
vn 0.9997655 -4.371136E-08 0.021653
vn 0.9997655 -4.371136E-08 0.021653
vn 0.9997655 -4.371136E-08 0.021653
vn 0.9997655 -4.371136E-08 0.021653
vn -0.9997655 4.371136E-08 -0.021653
vn -0.9997655 4.371136E-08 -0.021653
vn -0.9997655 4.371136E-08 -0.021653
vn -0.9997655 4.371136E-08 -0.021653
vn 0.02165272 0 -0.9997656
vn 0.02165272 0 -0.9997656
vn 0.02165272 0 -0.9997656
vn 0.02165272 0 -0.9997656
vn -0.02165272 0 0.9997656
vn -0.02165272 0 0.9997656
vn -0.02165272 0 0.9997656
vn -0.02165272 0 0.9997656
vn 0.9997655 -4.371136E-08 0.021653
vn 0.9997655 -4.371136E-08 0.021653
vn 0.9997655 -4.371136E-08 0.021653
vn 0.9997655 -4.371136E-08 0.021653
vn -0.9997655 4.371136E-08 -0.021653
vn -0.9997655 4.371136E-08 -0.021653
vn -0.9997655 4.371136E-08 -0.021653
vn -0.9997655 4.371136E-08 -0.021653
vn 0.02165272 0 -0.9997656
vn 0.02165272 0 -0.9997656
vn 0.02165272 0 -0.9997656
vn 0.02165272 0 -0.9997656
vn -0.02165272 0 0.9997656
vn -0.02165272 0 0.9997656
vn -0.02165272 0 0.9997656
vn -0.02165272 0 0.9997656
vn 0.9997655 -4.371136E-08 0.021653
vn 0.9997655 -4.371136E-08 0.021653
vn 0.9997655 -4.371136E-08 0.021653
vn 0.9997655 -4.371136E-08 0.021653
vn -0.9997655 4.371136E-08 -0.021653
vn -0.9997655 4.371136E-08 -0.021653
vn -0.9997655 4.371136E-08 -0.021653
vn -0.9997655 4.371136E-08 -0.021653
vn 0.02165272 0 -0.9997656
vn 0.02165272 0 -0.9997656
vn 0.02165272 0 -0.9997656
vn 0.02165272 0 -0.9997656
vn -0.02165272 0 0.9997656
vn -0.02165272 0 0.9997656
vn -0.02165272 0 0.9997656
vn -0.02165272 0 0.9997656
vn -0.02123223 0.196116 0.9803509
vn -0.02123223 0.196116 0.9803509
vn -0.02123223 0.196116 0.9803509
vn -0.02123223 0.196116 0.9803509
vn -2.725304E-07 -0.9999993 -5.902485E-09
vn -2.725304E-07 -0.9999993 -5.902485E-09
vn -2.725304E-07 -0.9999993 -5.902486E-09
vn -2.725304E-07 -0.9999993 -5.902486E-09
vn 2.725304E-07 0.9999993 5.902485E-09
vn 2.725304E-07 0.9999993 5.902485E-09
vn 2.725304E-07 0.9999993 5.902486E-09
vn 2.725304E-07 0.9999993 5.902486E-09
vn 0.02165272 0 -0.9997656
vn 0.02165272 0 -0.9997656
vn 0.02165272 0 -0.9997656
vn 0.02165272 0 -0.9997656
vn -0.02165272 0 0.9997656
vn -0.02165272 0 0.9997656
vn -0.02165272 0 0.9997656
vn -0.02165272 0 0.9997656
vn 4.370114E-08 0.9999993 9.464823E-10
vn 4.370114E-08 0.9999993 9.464823E-10
vn 4.370114E-08 0.9999993 9.464823E-10
vn 4.370114E-08 0.9999993 9.464823E-10
vn 0.02165272 0 -0.9997656
vn 0.02165272 0 -0.9997656
vn 0.02165272 0 -0.9997656
vn 0.02165272 0 -0.9997656
vn -0.02165272 0 0.9997656
vn -0.02165272 0 0.9997656
vn -0.02165272 0 0.9997656
vn -0.02165272 0 0.9997656
vn 4.370114E-08 0.9999993 9.464823E-10
vn 4.370114E-08 0.9999993 9.464823E-10
vn 4.370114E-08 0.9999993 9.464823E-10
vn 4.370114E-08 0.9999993 9.464823E-10
vn 0.02123225 0.196116 -0.9803509
vn 0.02123225 0.196116 -0.9803509
vn 0.02123225 0.196116 -0.9803509
vn 0.02123225 0.196116 -0.9803509
vn -4.370114E-08 -0.9999993 -9.464823E-10
vn -4.370114E-08 -0.9999993 -9.464823E-10
vn -4.370114E-08 -0.9999993 -9.464823E-10
vn -4.370114E-08 -0.9999993 -9.464823E-10

vt 0.0553894 0.8691406
vt 0.0526123 0.9477539
vt 0.0553894 0.9477539
vt 0.0526123 0.8691406
vt 0.0526123 0.8691406
vt 0.0553894 0.9477539
vt 0.0553894 0.8691406
vt 0.0526123 0.9477539
vt 0.0526123 0.8691406
vt 0.04751587 0.9477539
vt 0.0526123 0.9477539
vt 0.04751587 0.8691406
vt 0.04751587 0.9477539
vt 0.0526123 0.8691406
vt 0.04751587 0.8691406
vt 0.0526123 0.9477539
vt 0.0553894 0.8691406
vt 0.0526123 0.9477539
vt 0.0553894 0.9477539
vt 0.0526123 0.8691406
vt 0.0526123 0.8691406
vt 0.0553894 0.9477539
vt 0.0553894 0.8691406
vt 0.0526123 0.9477539
vt 0.0526123 0.8691406
vt 0.04751587 0.9477539
vt 0.0526123 0.9477539
vt 0.04751587 0.8691406
vt 0.04751587 0.9477539
vt 0.0526123 0.8691406
vt 0.04751587 0.8691406
vt 0.0526123 0.9477539
vt 0.0553894 0.8691406
vt 0.0526123 0.9477539
vt 0.0553894 0.9477539
vt 0.0526123 0.8691406
vt 0.0526123 0.8691406
vt 0.0553894 0.9477539
vt 0.0553894 0.8691406
vt 0.0526123 0.9477539
vt 0.0526123 0.8691406
vt 0.04751587 0.9477539
vt 0.0526123 0.9477539
vt 0.04751587 0.8691406
vt 0.04751587 0.9477539
vt 0.0526123 0.8691406
vt 0.04751587 0.8691406
vt 0.0526123 0.9477539
vt 0.0553894 0.8691406
vt 0.0526123 0.9477539
vt 0.0553894 0.9477539
vt 0.0526123 0.8691406
vt 0.0526123 0.8691406
vt 0.0553894 0.9477539
vt 0.0553894 0.8691406
vt 0.0526123 0.9477539
vt 0.0526123 0.8691406
vt 0.04751587 0.9477539
vt 0.0526123 0.9477539
vt 0.04751587 0.8691406
vt 0.04751587 0.9477539
vt 0.0526123 0.8691406
vt 0.04751587 0.8691406
vt 0.0526123 0.9477539
vt 0.07525635 0.8564453
vt 0.1773682 0.8510742
vt 0.07525635 0.8510742
vt 0.1773682 0.8564453
vt 0.05108643 0.9804688
vt 0.1531982 0.9707031
vt 0.05108643 0.9707031
vt 0.1531982 0.9804688
vt 0.05108643 0.9804688
vt 0.1531982 0.9707031
vt 0.05108643 0.9707031
vt 0.1531982 0.9804688
vt 0.05108643 0.9858398
vt 0.1531982 0.9804688
vt 0.05108643 0.9804688
vt 0.1531982 0.9858398
vt 0.05108643 0.9707031
vt 0.1531982 0.965332
vt 0.05108643 0.965332
vt 0.1531982 0.9707031
vt 0.1531982 0.9707031
vt 0.05108643 0.9804688
vt 0.1531982 0.9804688
vt 0.05108643 0.9707031
vt 0.1531982 0.965332
vt 0.05108643 0.9707031
vt 0.1531982 0.9707031
vt 0.05108643 0.965332
vt 0.1531982 0.9804688
vt 0.05108643 0.9858398
vt 0.1531982 0.9858398
vt 0.05108643 0.9804688
vt 0.1773682 0.8276367
vt 0.07525635 0.8510742
vt 0.1773682 0.8510742
vt 0.07525635 0.8276367
vt 0.1773682 0.8222656
vt 0.07525635 0.8276367
vt 0.1773682 0.8276367
vt 0.07525635 0.8222656
vt 0.05108643 0.9804688
vt 0.1531982 0.9707031
vt 0.05108643 0.9707031
vt 0.1531982 0.9804688

g porch_railing_A_2_11047_865
usemtl porch_railing_A_2_11047_865
usemap porch_railing_A_2_11047_865
f 1/1/1 3/3/3 2/2/2
f 2/2/2 4/4/4 1/1/1
f 5/5/5 7/7/7 6/6/6
f 6/6/6 8/8/8 5/5/5
f 9/9/9 11/11/11 10/10/10
f 10/10/10 12/12/12 9/9/9
f 13/13/13 15/15/15 14/14/14
f 14/14/14 16/16/16 13/13/13
f 17/17/17 19/19/19 18/18/18
f 18/18/18 20/20/20 17/17/17
f 21/21/21 23/23/23 22/22/22
f 22/22/22 24/24/24 21/21/21
f 25/25/25 27/27/27 26/26/26
f 26/26/26 28/28/28 25/25/25
f 29/29/29 31/31/31 30/30/30
f 30/30/30 32/32/32 29/29/29
f 33/33/33 35/35/35 34/34/34
f 34/34/34 36/36/36 33/33/33
f 37/37/37 39/39/39 38/38/38
f 38/38/38 40/40/40 37/37/37
f 41/41/41 43/43/43 42/42/42
f 42/42/42 44/44/44 41/41/41
f 45/45/45 47/47/47 46/46/46
f 46/46/46 48/48/48 45/45/45
f 49/49/49 51/51/51 50/50/50
f 50/50/50 52/52/52 49/49/49
f 53/53/53 55/55/55 54/54/54
f 54/54/54 56/56/56 53/53/53
f 57/57/57 59/59/59 58/58/58
f 58/58/58 60/60/60 57/57/57
f 61/61/61 63/63/63 62/62/62
f 62/62/62 64/64/64 61/61/61
f 65/65/65 67/67/67 66/66/66
f 66/66/66 68/68/68 65/65/65
f 69/69/69 71/71/71 70/70/70
f 70/70/70 72/72/72 69/69/69
f 73/73/73 75/75/75 74/74/74
f 74/74/74 76/76/76 73/73/73
f 77/77/77 79/79/79 78/78/78
f 78/78/78 80/80/80 77/77/77
f 81/81/81 83/83/83 82/82/82
f 82/82/82 84/84/84 81/81/81
f 85/85/85 87/87/87 86/86/86
f 86/86/86 88/88/88 85/85/85
f 89/89/89 91/91/91 90/90/90
f 90/90/90 92/92/92 89/89/89
f 93/93/93 95/95/95 94/94/94
f 94/94/94 96/96/96 93/93/93
f 97/97/97 99/99/99 98/98/98
f 98/98/98 100/100/100 97/97/97
f 101/101/101 103/103/103 102/102/102
f 102/102/102 104/104/104 101/101/101
f 105/105/105 107/107/107 106/106/106
f 106/106/106 108/108/108 105/105/105
