#porch_railing_A_1_10942_878.obj

v 0.1113926 0.9631741 -0.8500004
v 0.1386049 0.1905285 -0.8500014
v 0.1113926 0.1905285 -0.8500004
v 0.1386049 0.9631741 -0.8500015
v 0.1113926 0.9631741 -0.9000011
v 0.1386049 0.1905285 -0.9000005
v 0.1386049 0.9631741 -0.9000005
v 0.1113926 0.1905285 -0.900001
v 0.1386049 0.9631741 -0.8500015
v 0.1386049 0.1905285 -0.9000005
v 0.1386049 0.1905285 -0.8500014
v 0.1386049 0.9631741 -0.9000005
v 0.1113926 0.1905285 -0.8500004
v 0.1113926 0.9631741 -0.9000011
v 0.1113926 0.9631741 -0.8500004
v 0.1113926 0.1905285 -0.900001
v 0.1113926 0.9631741 -0.6000012
v 0.1386049 0.1905285 -0.6000013
v 0.1113926 0.1905285 -0.6000011
v 0.1386049 0.9631741 -0.6000005
v 0.1113926 0.9631741 -0.650001
v 0.1386049 0.1905285 -0.6500012
v 0.1386049 0.9631741 -0.6500012
v 0.1113926 0.1905285 -0.6500009
v 0.1386049 0.9631741 -0.6000005
v 0.1386049 0.1905285 -0.6500012
v 0.1386049 0.1905285 -0.6000013
v 0.1386049 0.9631741 -0.6500012
v 0.1113926 0.1905285 -0.6000011
v 0.1113926 0.9631741 -0.650001
v 0.1113926 0.9631741 -0.6000012
v 0.1113926 0.1905285 -0.6500009
v 0.1113926 0.9631737 -0.350001
v 0.1386049 0.1905285 -0.3500012
v 0.1113926 0.1905285 -0.350001
v 0.1386049 0.9631737 -0.3500012
v 0.1113926 0.9631737 -0.4000009
v 0.1386048 0.1905285 -0.4000011
v 0.1386048 0.9631737 -0.4000011
v 0.1113926 0.1905285 -0.4000009
v 0.1386049 0.9631737 -0.3500012
v 0.1386048 0.1905285 -0.4000011
v 0.1386049 0.1905285 -0.3500012
v 0.1386048 0.9631737 -0.4000011
v 0.1113926 0.1905285 -0.350001
v 0.1113926 0.9631737 -0.4000009
v 0.1113926 0.9631737 -0.350001
v 0.1113926 0.1905285 -0.4000009
v 0.1113926 0.9631737 -0.1000009
v 0.1386049 0.1905285 -0.1000011
v 0.1113926 0.1905285 -0.1000009
v 0.1386049 0.9631737 -0.1000012
v 0.1113927 0.9631737 -0.1500008
v 0.1386048 0.1905285 -0.150001
v 0.1386048 0.9631737 -0.150001
v 0.1113927 0.1905285 -0.1500008
v 0.1386049 0.9631737 -0.1000012
v 0.1386048 0.1905285 -0.150001
v 0.1386049 0.1905285 -0.1000011
v 0.1386048 0.9631737 -0.150001
v 0.1113926 0.1905285 -0.1000009
v 0.1113927 0.9631737 -0.1500008
v 0.1113926 0.9631737 -0.1000009
v 0.1113927 0.1905285 -0.1500008
v -7.958661E-07 -1.027098E-07 -5.81798E-06
v 0.009999186 0.05000009 -1.000001
v 0.009999215 0.04999972 -5.623183E-06
v -7.732272E-07 -1.46421E-07 -1.000001
v 0.07499921 0.9561121 -1.000001
v 0.1749992 0.9561122 -5.699526E-06
v 0.1749992 0.9561121 -1
v 0.07499918 0.9561122 -6.025877E-06
v 0.1749992 1.006112 -1
v 0.07499918 1.006112 -6.028063E-06
v 0.07499921 1.006112 -1.000001
v 0.1749992 1.006112 -5.701711E-06
v 0.1749992 0.9561121 -1
v 0.1749992 1.006112 -5.701711E-06
v 0.1749992 1.006112 -1
v 0.1749992 0.9561122 -5.699526E-06
v 0.07499921 1.006112 -1.000001
v 0.07499918 0.9561122 -6.025877E-06
v 0.07499921 0.9561121 -1.000001
v 0.07499918 1.006112 -6.028063E-06
v 0.1749992 0.194111 -1
v 0.07499918 0.194111 -5.992569E-06
v 0.07499921 0.194111 -1.000001
v 0.1749992 0.194111 -5.666217E-06
v 0.1749992 0.1441112 -1
v 0.1749992 0.194111 -5.666217E-06
v 0.1749992 0.194111 -1
v 0.1749992 0.1441112 -5.664032E-06
v 0.07499921 0.194111 -1.000001
v 0.07499918 0.1441112 -5.990384E-06
v 0.07499921 0.1441112 -1.000001
v 0.07499918 0.194111 -5.992569E-06
v 0.2399992 0.05000009 -1.000001
v 0.009999215 0.04999972 -5.623183E-06
v 0.009999186 0.05000009 -1.000001
v 0.2399993 0.04999972 -6.022885E-06
v 0.2499992 -1.46421E-07 -1.000001
v 0.2399993 0.04999972 -6.022885E-06
v 0.2399992 0.05000009 -1.000001
v 0.2499993 -1.027098E-07 -5.823717E-06
v 0.07499921 0.1441112 -1.000001
v 0.1749992 0.1441112 -5.664032E-06
v 0.1749992 0.1441112 -1
v 0.07499918 0.1441112 -5.990384E-06

vn 0.001170043 -4.371138E-08 0.9999993
vn 0.001170043 -4.371138E-08 0.9999993
vn 0.001170043 -4.371138E-08 0.9999993
vn 0.001170043 -4.371138E-08 0.9999993
vn -0.001170043 4.371138E-08 -0.9999993
vn -0.001170043 4.371138E-08 -0.9999993
vn -0.001170043 4.371138E-08 -0.9999993
vn -0.001170043 4.371138E-08 -0.9999993
vn 0.9999994 0 -0.001170043
vn 0.9999994 0 -0.001170043
vn 0.9999994 0 -0.001170043
vn 0.9999994 0 -0.001170043
vn -0.9999994 0 0.001170043
vn -0.9999994 0 0.001170043
vn -0.9999994 0 0.001170043
vn -0.9999994 0 0.001170043
vn 0.001170043 -4.371138E-08 0.9999993
vn 0.001170043 -4.371138E-08 0.9999993
vn 0.001170043 -4.371138E-08 0.9999993
vn 0.001170043 -4.371138E-08 0.9999993
vn -0.001170043 4.371138E-08 -0.9999993
vn -0.001170043 4.371138E-08 -0.9999993
vn -0.001170043 4.371138E-08 -0.9999993
vn -0.001170043 4.371138E-08 -0.9999993
vn 0.9999994 0 -0.001170043
vn 0.9999994 0 -0.001170043
vn 0.9999994 0 -0.001170043
vn 0.9999994 0 -0.001170043
vn -0.9999994 0 0.001170043
vn -0.9999994 0 0.001170043
vn -0.9999994 0 0.001170043
vn -0.9999994 0 0.001170043
vn 0.001170043 -4.371138E-08 0.9999993
vn 0.001170043 -4.371138E-08 0.9999993
vn 0.001170043 -4.371138E-08 0.9999993
vn 0.001170043 -4.371138E-08 0.9999993
vn -0.001170043 4.371138E-08 -0.9999993
vn -0.001170043 4.371138E-08 -0.9999993
vn -0.001170043 4.371138E-08 -0.9999993
vn -0.001170043 4.371138E-08 -0.9999993
vn 0.9999994 0 -0.001170043
vn 0.9999994 0 -0.001170043
vn 0.9999994 0 -0.001170043
vn 0.9999994 0 -0.001170043
vn -0.9999994 0 0.001170043
vn -0.9999994 0 0.001170043
vn -0.9999994 0 0.001170043
vn -0.9999994 0 0.001170043
vn 0.001170043 -4.371138E-08 0.9999993
vn 0.001170043 -4.371138E-08 0.9999993
vn 0.001170043 -4.371138E-08 0.9999993
vn 0.001170043 -4.371138E-08 0.9999993
vn -0.001170043 4.371138E-08 -0.9999993
vn -0.001170043 4.371138E-08 -0.9999993
vn -0.001170043 4.371138E-08 -0.9999993
vn -0.001170043 4.371138E-08 -0.9999993
vn 0.9999994 0 -0.001170043
vn 0.9999994 0 -0.001170043
vn 0.9999994 0 -0.001170043
vn 0.9999994 0 -0.001170043
vn -0.9999994 0 0.001170043
vn -0.9999994 0 0.001170043
vn -0.9999994 0 0.001170043
vn -0.9999994 0 0.001170043
vn -0.9805801 0.1961161 0.001147331
vn -0.9805801 0.1961161 0.001147331
vn -0.9805801 0.1961161 0.001147331
vn -0.9805801 0.1961161 0.001147331
vn -3.189472E-10 -0.9999999 -2.725941E-07
vn -3.189472E-10 -0.9999999 -2.725941E-07
vn -3.189472E-10 -0.9999999 -2.725941E-07
vn -3.189472E-10 -0.9999999 -2.725941E-07
vn 3.189472E-10 0.9999999 2.725941E-07
vn 3.189472E-10 0.9999999 2.725941E-07
vn 3.189472E-10 0.9999999 2.725941E-07
vn 3.189472E-10 0.9999999 2.725941E-07
vn 0.9999994 0 -0.001170043
vn 0.9999994 0 -0.001170043
vn 0.9999994 0 -0.001170043
vn 0.9999994 0 -0.001170043
vn -0.9999994 0 0.001170043
vn -0.9999994 0 0.001170043
vn -0.9999994 0 0.001170043
vn -0.9999994 0 0.001170043
vn 5.114422E-11 0.9999999 4.371136E-08
vn 5.114422E-11 0.9999999 4.371136E-08
vn 5.114422E-11 0.9999999 4.371136E-08
vn 5.114422E-11 0.9999999 4.371136E-08
vn 0.9999994 0 -0.001170043
vn 0.9999994 0 -0.001170043
vn 0.9999994 0 -0.001170043
vn 0.9999994 0 -0.001170043
vn -0.9999994 0 0.001170043
vn -0.9999994 0 0.001170043
vn -0.9999994 0 0.001170043
vn -0.9999994 0 0.001170043
vn 5.114422E-11 0.9999999 4.371136E-08
vn 5.114422E-11 0.9999999 4.371136E-08
vn 5.114422E-11 0.9999999 4.371136E-08
vn 5.114422E-11 0.9999999 4.371136E-08
vn 0.9805801 0.1961161 -0.001147313
vn 0.9805801 0.1961161 -0.001147313
vn 0.9805801 0.1961161 -0.001147313
vn 0.9805801 0.1961161 -0.001147313
vn -5.114422E-11 -0.9999999 -4.371136E-08
vn -5.114422E-11 -0.9999999 -4.371136E-08
vn -5.114422E-11 -0.9999999 -4.371136E-08
vn -5.114422E-11 -0.9999999 -4.371136E-08

vt 0.0553894 0.8691406
vt 0.0526123 0.9477539
vt 0.0553894 0.9477539
vt 0.0526123 0.8691406
vt 0.0526123 0.8691406
vt 0.0553894 0.9477539
vt 0.0553894 0.8691406
vt 0.0526123 0.9477539
vt 0.0526123 0.8691406
vt 0.04751587 0.9477539
vt 0.0526123 0.9477539
vt 0.04751587 0.8691406
vt 0.04751587 0.9477539
vt 0.0526123 0.8691406
vt 0.04751587 0.8691406
vt 0.0526123 0.9477539
vt 0.0553894 0.8691406
vt 0.0526123 0.9477539
vt 0.0553894 0.9477539
vt 0.0526123 0.8691406
vt 0.0526123 0.8691406
vt 0.0553894 0.9477539
vt 0.0553894 0.8691406
vt 0.0526123 0.9477539
vt 0.0526123 0.8691406
vt 0.04751587 0.9477539
vt 0.0526123 0.9477539
vt 0.04751587 0.8691406
vt 0.04751587 0.9477539
vt 0.0526123 0.8691406
vt 0.04751587 0.8691406
vt 0.0526123 0.9477539
vt 0.0553894 0.8691406
vt 0.0526123 0.9477539
vt 0.0553894 0.9477539
vt 0.0526123 0.8691406
vt 0.0526123 0.8691406
vt 0.0553894 0.9477539
vt 0.0553894 0.8691406
vt 0.0526123 0.9477539
vt 0.0526123 0.8691406
vt 0.04751587 0.9477539
vt 0.0526123 0.9477539
vt 0.04751587 0.8691406
vt 0.04751587 0.9477539
vt 0.0526123 0.8691406
vt 0.04751587 0.8691406
vt 0.0526123 0.9477539
vt 0.0553894 0.8691406
vt 0.0526123 0.9477539
vt 0.0553894 0.9477539
vt 0.0526123 0.8691406
vt 0.0526123 0.8691406
vt 0.0553894 0.9477539
vt 0.0553894 0.8691406
vt 0.0526123 0.9477539
vt 0.0526123 0.8691406
vt 0.04751587 0.9477539
vt 0.0526123 0.9477539
vt 0.04751587 0.8691406
vt 0.04751587 0.9477539
vt 0.0526123 0.8691406
vt 0.04751587 0.8691406
vt 0.0526123 0.9477539
vt 0.07525635 0.8564453
vt 0.1773682 0.8510742
vt 0.07525635 0.8510742
vt 0.1773682 0.8564453
vt 0.05108643 0.9804688
vt 0.1531982 0.9707031
vt 0.05108643 0.9707031
vt 0.1531982 0.9804688
vt 0.05108643 0.9804688
vt 0.1531982 0.9707031
vt 0.05108643 0.9707031
vt 0.1531982 0.9804688
vt 0.05108643 0.9858398
vt 0.1531982 0.9804688
vt 0.05108643 0.9804688
vt 0.1531982 0.9858398
vt 0.05108643 0.9707031
vt 0.1531982 0.965332
vt 0.05108643 0.965332
vt 0.1531982 0.9707031
vt 0.1531982 0.9707031
vt 0.05108643 0.9804688
vt 0.1531982 0.9804688
vt 0.05108643 0.9707031
vt 0.1531982 0.965332
vt 0.05108643 0.9707031
vt 0.1531982 0.9707031
vt 0.05108643 0.965332
vt 0.1531982 0.9804688
vt 0.05108643 0.9858398
vt 0.1531982 0.9858398
vt 0.05108643 0.9804688
vt 0.1773682 0.8276367
vt 0.07525635 0.8510742
vt 0.1773682 0.8510742
vt 0.07525635 0.8276367
vt 0.1773682 0.8222656
vt 0.07525635 0.8276367
vt 0.1773682 0.8276367
vt 0.07525635 0.8222656
vt 0.05108643 0.9804688
vt 0.1531982 0.9707031
vt 0.05108643 0.9707031
vt 0.1531982 0.9804688

g porch_railing_A_1_10942_878
usemtl porch_railing_A_1_10942_878
usemap porch_railing_A_1_10942_878
f 1/1/1 3/3/3 2/2/2
f 2/2/2 4/4/4 1/1/1
f 5/5/5 7/7/7 6/6/6
f 6/6/6 8/8/8 5/5/5
f 9/9/9 11/11/11 10/10/10
f 10/10/10 12/12/12 9/9/9
f 13/13/13 15/15/15 14/14/14
f 14/14/14 16/16/16 13/13/13
f 17/17/17 19/19/19 18/18/18
f 18/18/18 20/20/20 17/17/17
f 21/21/21 23/23/23 22/22/22
f 22/22/22 24/24/24 21/21/21
f 25/25/25 27/27/27 26/26/26
f 26/26/26 28/28/28 25/25/25
f 29/29/29 31/31/31 30/30/30
f 30/30/30 32/32/32 29/29/29
f 33/33/33 35/35/35 34/34/34
f 34/34/34 36/36/36 33/33/33
f 37/37/37 39/39/39 38/38/38
f 38/38/38 40/40/40 37/37/37
f 41/41/41 43/43/43 42/42/42
f 42/42/42 44/44/44 41/41/41
f 45/45/45 47/47/47 46/46/46
f 46/46/46 48/48/48 45/45/45
f 49/49/49 51/51/51 50/50/50
f 50/50/50 52/52/52 49/49/49
f 53/53/53 55/55/55 54/54/54
f 54/54/54 56/56/56 53/53/53
f 57/57/57 59/59/59 58/58/58
f 58/58/58 60/60/60 57/57/57
f 61/61/61 63/63/63 62/62/62
f 62/62/62 64/64/64 61/61/61
f 65/65/65 67/67/67 66/66/66
f 66/66/66 68/68/68 65/65/65
f 69/69/69 71/71/71 70/70/70
f 70/70/70 72/72/72 69/69/69
f 73/73/73 75/75/75 74/74/74
f 74/74/74 76/76/76 73/73/73
f 77/77/77 79/79/79 78/78/78
f 78/78/78 80/80/80 77/77/77
f 81/81/81 83/83/83 82/82/82
f 82/82/82 84/84/84 81/81/81
f 85/85/85 87/87/87 86/86/86
f 86/86/86 88/88/88 85/85/85
f 89/89/89 91/91/91 90/90/90
f 90/90/90 92/92/92 89/89/89
f 93/93/93 95/95/95 94/94/94
f 94/94/94 96/96/96 93/93/93
f 97/97/97 99/99/99 98/98/98
f 98/98/98 100/100/100 97/97/97
f 101/101/101 103/103/103 102/102/102
f 102/102/102 104/104/104 101/101/101
f 105/105/105 107/107/107 106/106/106
f 106/106/106 108/108/108 105/105/105
