#roof01_9x3m_B_1_19602_121.obj

v -4.14641E-07 2.816414 0.7169914
v 2.999999 2.989619 0.6169915
v -4.14641E-07 2.989619 0.6169915
v 2.999999 2.816414 0.7169914
v -4.14641E-07 2.916414 0.8901952
v 2.999999 3.089619 0.7901954
v 2.999999 2.916414 0.8901952
v -4.14641E-07 3.089619 0.7901954
v -4.14641E-07 2.816414 0.7169914
v 2.999999 2.916414 0.8901952
v 2.999999 2.816414 0.7169914
v -4.14641E-07 2.916414 0.8901952
v 2.999999 2.816414 0.7169914
v 2.999999 3.089619 0.7901954
v 2.999999 2.989619 0.6169915
v 2.999999 2.916414 0.8901952
v 2.999999 2.989619 0.6169915
v -4.14641E-07 3.089619 0.7901954
v -4.14641E-07 2.989619 0.6169915
v 2.999999 3.089619 0.7901954
v -4.14641E-07 2.989619 0.6169915
v -4.14641E-07 2.916414 0.8901952
v -4.14641E-07 2.816414 0.7169914
v -4.14641E-07 3.089619 0.7901954
v 1.067876 2.732093 0.5502824
v 1.317463 5.038078 4.44909
v 1.067874 5.038085 4.4491
v 1.317483 2.732096 0.5502874
v 1.067876 2.646017 0.6011854
v 1.067874 5.038085 4.4491
v 1.067874 4.952009 4.500005
v 1.067876 2.732093 0.5502824
v 1.317463 4.95201 4.50001
v 1.317483 2.732096 0.5502874
v 1.317483 2.646025 0.6011954
v 1.317463 5.038078 4.44909
v 1.067876 2.732091 8.525312
v 1.317463 5.038078 4.626514
v 1.317483 2.732094 8.525317
v 1.067874 5.038085 4.626504
v 1.067876 2.646017 8.474414
v 1.067874 5.038085 4.626504
v 1.067876 2.732091 8.525312
v 1.067874 4.95201 4.575606
v 1.317463 4.952012 4.575596
v 1.317483 2.732094 8.525317
v 1.317463 5.038078 4.626514
v 1.317483 2.646024 8.474409
v -4.14641E-07 3.557668 1.970259
v 2.999999 3.730873 1.870259
v -4.14641E-07 3.730873 1.870259
v 2.999999 3.557668 1.970259
v -4.14641E-07 3.657669 2.143461
v 2.999999 3.830873 2.043461
v 2.999999 3.657669 2.143461
v -4.14641E-07 3.830873 2.043461
v -4.14641E-07 3.557668 1.970259
v 2.999999 3.657669 2.143461
v 2.999999 3.557668 1.970259
v -4.14641E-07 3.657669 2.143461
v 2.999999 3.557668 1.970259
v 2.999999 3.830873 2.043461
v 2.999999 3.730873 1.870259
v 2.999999 3.657669 2.143461
v 2.999999 3.730873 1.870259
v -4.14641E-07 3.830873 2.043461
v -4.14641E-07 3.730873 1.870259
v 2.999999 3.830873 2.043461
v -4.14641E-07 3.730873 1.870259
v -4.14641E-07 3.657669 2.143461
v -4.14641E-07 3.557668 1.970259
v -4.14641E-07 3.830873 2.043461
v -4.14641E-07 4.298932 3.223529
v 2.999999 4.472136 3.12353
v -4.14641E-07 4.472136 3.12353
v 2.999999 4.298932 3.223529
v -4.14641E-07 4.398932 3.396733
v 2.999999 4.572136 3.296733
v 2.999999 4.398932 3.396733
v -4.14641E-07 4.572136 3.296733
v -4.14641E-07 4.298932 3.223529
v 2.999999 4.398932 3.396733
v 2.999999 4.298932 3.223529
v -4.14641E-07 4.398932 3.396733
v 2.999999 4.298932 3.223529
v 2.999999 4.572136 3.296733
v 2.999999 4.472136 3.12353
v 2.999999 4.398932 3.396733
v 2.999999 4.472136 3.12353
v -4.14641E-07 4.572136 3.296733
v -4.14641E-07 4.472136 3.12353
v 2.999999 4.572136 3.296733
v -4.14641E-07 4.472136 3.12353
v -4.14641E-07 4.398932 3.396733
v -4.14641E-07 4.298932 3.223529
v -4.14641E-07 4.572136 3.296733
v -4.14641E-07 4.875725 4.50001
v 2.999999 5.087857 4.287875
v -4.14641E-07 5.087857 4.287875
v 2.999999 4.875725 4.50001
v -4.14641E-07 5.087857 4.712139
v 2.999999 5.299989 4.50001
v 2.999999 5.087857 4.712139
v -4.14641E-07 5.299989 4.50001
v -4.14641E-07 4.875725 4.50001
v 2.999999 5.087857 4.712139
v 2.999999 4.875725 4.50001
v -4.14641E-07 5.087857 4.712139
v 2.999999 4.875725 4.50001
v 2.999999 5.299989 4.50001
v 2.999999 5.087857 4.287875
v 2.999999 5.087857 4.712139
v 2.999999 5.087857 4.287875
v -4.14641E-07 5.299989 4.50001
v -4.14641E-07 5.087857 4.287875
v 2.999999 5.299989 4.50001
v -4.14641E-07 5.087857 4.287875
v -4.14641E-07 5.087857 4.712139
v -4.14641E-07 4.875725 4.50001
v -4.14641E-07 5.299989 4.50001
v -2.073205E-06 4.298929 5.776474
v 2.999999 4.398929 5.603272
v -2.073205E-06 4.398929 5.603272
v 2.999999 4.298929 5.776474
v -2.073205E-06 4.472135 5.876474
v 2.999999 4.572134 5.70327
v 2.999999 4.472135 5.876474
v -2.073205E-06 4.572134 5.70327
v -2.073205E-06 4.298929 5.776474
v 2.999999 4.472135 5.876474
v 2.999999 4.298929 5.776474
v -2.073205E-06 4.472135 5.876474
v 2.999999 4.298929 5.776474
v 2.999999 4.572134 5.70327
v 2.999999 4.398929 5.603272
v 2.999999 4.472135 5.876474
v 2.999999 4.398929 5.603272
v -2.073205E-06 4.572134 5.70327
v -2.073205E-06 4.398929 5.603272
v 2.999999 4.572134 5.70327
v -2.073205E-06 4.398929 5.603272
v -2.073205E-06 4.472135 5.876474
v -2.073205E-06 4.298929 5.776474
v -2.073205E-06 4.572134 5.70327
v -2.073205E-06 3.557666 7.029741
v 2.999999 3.657666 6.856533
v -2.073205E-06 3.657666 6.856533
v 2.999999 3.557665 7.029741
v -2.073205E-06 3.730871 7.129741
v 2.999999 3.830871 6.956532
v 2.999999 3.730871 7.129741
v -2.073205E-06 3.830871 6.956532
v -2.073205E-06 3.557666 7.029741
v 2.999999 3.730871 7.129741
v 2.999999 3.557665 7.029741
v -2.073205E-06 3.730871 7.129741
v 2.999999 3.557665 7.029741
v 2.999999 3.830871 6.956532
v 2.999999 3.657666 6.856533
v 2.999999 3.730871 7.129741
v 2.999999 3.657666 6.856533
v -2.073205E-06 3.830871 6.956532
v -2.073205E-06 3.657666 6.856533
v 2.999999 3.830871 6.956532
v -2.073205E-06 3.657666 6.856533
v -2.073205E-06 3.730871 7.129741
v -2.073205E-06 3.557666 7.029741
v -2.073205E-06 3.830871 6.956532
v 1.317463 4.95201 4.50001
v 1.067876 2.646017 0.6011854
v 1.067874 4.952009 4.500005
v 1.317483 2.646025 0.6011954
v 1.317483 2.646024 8.474409
v 1.067874 4.95201 4.575606
v 1.067876 2.646017 8.474414
v 1.317463 4.952012 4.575596

vn -0.8660253 -0.5000001 -7.347484E-08
vn -0.8660253 -0.5000001 -7.347484E-08
vn -0.8660253 -0.5000002 -7.347484E-08
vn -0.8660253 -0.5000002 -7.347484E-08
vn 0.8660253 0.5000002 7.347484E-08
vn 0.8660253 0.5000002 7.347484E-08
vn 0.8660253 0.5000003 7.347484E-08
vn 0.8660253 0.5000003 7.347484E-08
vn 0.5000041 -0.8660231 -8.052513E-09
vn 0.5000041 -0.8660231 -8.052513E-09
vn 0.5000041 -0.866023 -8.05251E-09
vn 0.5000041 -0.866023 -8.05251E-09
vn 5.960464E-08 4.37114E-08 -1
vn 5.960464E-08 4.37114E-08 -1
vn 5.960464E-08 4.37114E-08 -1
vn 5.960464E-08 4.37114E-08 -1
vn -0.5000041 0.866023 8.052506E-09
vn -0.5000041 0.866023 8.052506E-09
vn -0.5000041 0.866023 8.052506E-09
vn -0.5000041 0.866023 8.052506E-09
vn -5.960464E-08 -4.37114E-08 1
vn -5.960464E-08 -4.37114E-08 1
vn -5.960464E-08 -4.37114E-08 1
vn -5.960464E-08 -4.37114E-08 1
vn -0.50908 0.8607193 -1.665788E-06
vn -0.5090801 0.8607191 -5.19881E-06
vn -0.5090802 0.8607191 -5.331953E-06
vn -0.50908 0.8607192 -1.53265E-06
vn 4.44901E-07 -1.493158E-06 1
vn -3.382324E-07 -2.33398E-07 1
vn -3.495572E-07 -2.151806E-07 1
vn 4.562245E-07 -1.511373E-06 1
vn 3.857605E-06 2.290628E-06 -1
vn 3.857826E-06 2.290238E-06 -1
vn 3.857828E-06 2.290232E-06 -1
vn 3.857603E-06 2.290634E-06 -1
vn 0.5090804 0.860719 1.776177E-05
vn 0.5090813 0.8607184 -3.779439E-07
vn 0.5090804 0.860719 1.844531E-05
vn 0.5090812 0.8607185 -1.06154E-06
vn -5.641413E-07 -1.493207E-06 1
vn 2.190331E-07 -2.333824E-07 1
vn -5.754614E-07 -1.511417E-06 1
vn 2.303532E-07 -2.151728E-07 1
vn -3.738385E-06 2.290646E-06 -1
vn -3.738602E-06 2.290262E-06 -1
vn -3.738382E-06 2.290652E-06 -1
vn -3.738605E-06 2.290256E-06 -1
vn -0.8660256 -0.4999996 -7.347483E-08
vn -0.8660256 -0.4999996 -7.347483E-08
vn -0.8660256 -0.4999996 -7.347483E-08
vn -0.8660256 -0.4999996 -7.347483E-08
vn 0.8660256 0.4999996 7.347483E-08
vn 0.8660256 0.4999996 7.347483E-08
vn 0.8660256 0.4999996 7.347483E-08
vn 0.8660256 0.4999996 7.347483E-08
vn 0.5000042 -0.8660229 -8.052496E-09
vn 0.5000042 -0.8660229 -8.052496E-09
vn 0.5000042 -0.8660229 -8.052496E-09
vn 0.5000042 -0.8660229 -8.052496E-09
vn 5.960464E-08 4.37114E-08 -1
vn 5.960464E-08 4.37114E-08 -1
vn 5.960464E-08 4.37114E-08 -1
vn 5.960464E-08 4.37114E-08 -1
vn -0.5000042 0.8660229 8.052496E-09
vn -0.5000042 0.8660229 8.052496E-09
vn -0.5000042 0.8660229 8.052496E-09
vn -0.5000042 0.8660229 8.052496E-09
vn -5.960464E-08 -4.37114E-08 1
vn -5.960464E-08 -4.37114E-08 1
vn -5.960464E-08 -4.37114E-08 1
vn -5.960464E-08 -4.37114E-08 1
vn -0.8660253 -0.5000002 -7.347484E-08
vn -0.8660253 -0.5000002 -7.347484E-08
vn -0.8660253 -0.5000003 -7.347484E-08
vn -0.8660253 -0.5000003 -7.347484E-08
vn 0.8660253 0.5000002 7.347484E-08
vn 0.8660253 0.5000002 7.347484E-08
vn 0.8660253 0.5000003 7.347484E-08
vn 0.8660253 0.5000003 7.347484E-08
vn 0.5000042 -0.8660229 -8.052496E-09
vn 0.5000042 -0.8660229 -8.052496E-09
vn 0.5000042 -0.8660229 -8.052496E-09
vn 0.5000042 -0.8660229 -8.052496E-09
vn 5.960464E-08 4.37114E-08 -1
vn 5.960464E-08 4.37114E-08 -1
vn 5.960464E-08 4.37114E-08 -1
vn 5.960464E-08 4.37114E-08 -1
vn -0.5000042 0.8660229 8.052496E-09
vn -0.5000042 0.8660229 8.052496E-09
vn -0.5000042 0.8660229 8.052496E-09
vn -0.5000042 0.8660229 8.052496E-09
vn -5.960464E-08 -4.37114E-08 1
vn -5.960464E-08 -4.37114E-08 1
vn -5.960464E-08 -4.37114E-08 1
vn -5.960464E-08 -4.37114E-08 1
vn -0.7071043 -0.7071093 -7.305543E-08
vn -0.7071043 -0.7071093 -7.305543E-08
vn -0.7071042 -0.7071093 -7.305543E-08
vn -0.7071042 -0.7071093 -7.305543E-08
vn 0.7071114 0.7071021 7.305555E-08
vn 0.7071114 0.7071021 7.305555E-08
vn 0.7071114 0.7071022 7.305555E-08
vn 0.7071114 0.7071022 7.305555E-08
vn 0.7071118 -0.7071017 1.123875E-08
vn 0.7071118 -0.7071017 1.123875E-08
vn 0.7071118 -0.7071017 1.123875E-08
vn 0.7071118 -0.7071017 1.123875E-08
vn 5.960464E-08 4.37114E-08 -1
vn 5.960464E-08 4.37114E-08 -1
vn 5.960464E-08 4.37114E-08 -1
vn 5.960464E-08 4.37114E-08 -1
vn -0.7071027 0.7071108 -1.12378E-08
vn -0.7071027 0.7071108 -1.12378E-08
vn -0.7071027 0.7071108 -1.123781E-08
vn -0.7071027 0.7071108 -1.123781E-08
vn -5.960464E-08 -4.37114E-08 1
vn -5.960464E-08 -4.37114E-08 1
vn -5.960464E-08 -4.37114E-08 1
vn -5.960464E-08 -4.37114E-08 1
vn -0.5000042 -0.8660229 -6.765764E-08
vn -0.5000042 -0.8660229 -6.765764E-08
vn -0.5000042 -0.8660229 -6.765764E-08
vn -0.5000042 -0.8660229 -6.765764E-08
vn 0.5000042 0.8660229 6.765764E-08
vn 0.5000042 0.8660229 6.765764E-08
vn 0.5000042 0.8660229 6.765764E-08
vn 0.5000042 0.8660229 6.765764E-08
vn 0.866026 -0.499999 2.976352E-08
vn 0.866026 -0.499999 2.976352E-08
vn 0.866026 -0.499999 2.976352E-08
vn 0.866026 -0.499999 2.976352E-08
vn 5.960464E-08 4.37114E-08 -1
vn 5.960464E-08 4.37114E-08 -1
vn 5.960464E-08 4.37114E-08 -1
vn 5.960464E-08 4.37114E-08 -1
vn -0.866026 0.499999 -2.976352E-08
vn -0.866026 0.499999 -2.976352E-08
vn -0.866026 0.499999 -2.976352E-08
vn -0.866026 0.499999 -2.976352E-08
vn -5.960464E-08 -4.37114E-08 1
vn -5.960464E-08 -4.37114E-08 1
vn -5.960464E-08 -4.37114E-08 1
vn -5.960464E-08 -4.37114E-08 1
vn -0.4999926 -0.8660297 -6.765725E-08
vn -0.4999936 -0.8660291 -6.765728E-08
vn -0.4999926 -0.8660297 -6.765725E-08
vn -0.4999937 -0.8660291 -6.765729E-08
vn 0.4999937 0.8660291 6.765728E-08
vn 0.4999937 0.8660291 6.765728E-08
vn 0.4999937 0.8660291 6.765728E-08
vn 0.4999937 0.8660291 6.765728E-08
vn 0.8660249 -0.5000008 2.976337E-08
vn 0.8660253 -0.5000002 2.976342E-08
vn 0.8660253 -0.5000002 2.976342E-08
vn 0.8660249 -0.5000009 2.976337E-08
vn 5.960464E-08 4.37114E-08 -1
vn 5.960464E-08 4.37114E-08 -1
vn 5.960464E-08 4.37114E-08 -1
vn 5.960464E-08 4.37114E-08 -1
vn -0.8660253 0.5000002 -2.976342E-08
vn -0.8660253 0.5000002 -2.976342E-08
vn -0.8660253 0.5000003 -2.976342E-08
vn -0.8660253 0.5000003 -2.976342E-08
vn -5.960464E-08 -4.37114E-08 1
vn -5.960464E-08 -4.37114E-08 1
vn -5.960464E-08 -4.37114E-08 1
vn -5.960464E-08 -4.37114E-08 1
vn 0.50908 -0.8607192 1.291691E-06
vn 0.5090798 -0.8607194 -5.105085E-06
vn 0.5090801 -0.8607192 1.532765E-06
vn 0.5090798 -0.8607194 -5.346145E-06
vn -0.5090812 -0.8607185 -1.232173E-05
vn -0.5090801 -0.8607192 1.259724E-05
vn -0.5090813 -0.8607184 -1.326073E-05
vn -0.5090801 -0.8607192 1.353629E-05

vt 0.3942871 0.7416992
vt 0.3762207 0.4709473
vt 0.3762207 0.7416992
vt 0.3942871 0.4709473
vt 0.4123535 0.7416992
vt 0.3942871 0.4709473
vt 0.4123535 0.4709473
vt 0.3942871 0.7416992
vt 0.3942871 0.7416992
vt 0.4123535 0.4709473
vt 0.3942871 0.4709473
vt 0.4123535 0.7416992
vt 0.4389648 0.420166
vt 0.4208984 0.4382324
vt 0.4208984 0.420166
vt 0.4389648 0.4382324
vt 0.3762207 0.4709473
vt 0.3942871 0.7416992
vt 0.3762207 0.7416992
vt 0.3942871 0.4709473
vt 0.4208984 0.4382324
vt 0.4389648 0.420166
vt 0.4389648 0.4382324
vt 0.4208984 0.420166
vt 0.3166504 0.7304688
vt 0.3513184 0.3220215
vt 0.3166504 0.3217773
vt 0.3513184 0.7304688
vt 0.3027344 0.7304688
vt 0.3166504 0.3217773
vt 0.3027344 0.3217773
vt 0.3166504 0.7304688
vt 0.3649902 0.3220215
vt 0.3513184 0.7304688
vt 0.3649902 0.730957
vt 0.3513184 0.3220215
vt 0.3166504 0.3217773
vt 0.3513184 0.7304688
vt 0.3513184 0.3220215
vt 0.3166504 0.7304688
vt 0.3027344 0.3217773
vt 0.3166504 0.7304688
vt 0.3166504 0.3217773
vt 0.3027344 0.7304688
vt 0.3649902 0.730957
vt 0.3513184 0.3220215
vt 0.3513184 0.7304688
vt 0.3649902 0.3220215
vt 0.3942871 0.7416992
vt 0.3762207 0.4709473
vt 0.3762207 0.7416992
vt 0.3942871 0.4709473
vt 0.3762207 0.7416992
vt 0.3942871 0.4709473
vt 0.3762207 0.4709473
vt 0.3942871 0.7416992
vt 0.3942871 0.7416992
vt 0.4123535 0.4709473
vt 0.3942871 0.4709473
vt 0.4123535 0.7416992
vt 0.4208984 0.420166
vt 0.4389648 0.4382324
vt 0.4389648 0.420166
vt 0.4208984 0.4382324
vt 0.4123535 0.4709473
vt 0.3942871 0.7416992
vt 0.4123535 0.7416992
vt 0.3942871 0.4709473
vt 0.4389648 0.4382324
vt 0.4208984 0.420166
vt 0.4208984 0.4382324
vt 0.4389648 0.420166
vt 0.4123535 0.3103027
vt 0.3942871 0.5810547
vt 0.3942871 0.3103027
vt 0.4123535 0.5810547
vt 0.3942871 0.7416992
vt 0.3762207 0.4709473
vt 0.3942871 0.4709473
vt 0.3762207 0.7416992
vt 0.4123535 0.7416992
vt 0.3942871 0.4709473
vt 0.4123535 0.4709473
vt 0.3942871 0.7416992
vt 0.4389648 0.420166
vt 0.4208984 0.4382324
vt 0.4208984 0.420166
vt 0.4389648 0.4382324
vt 0.3942871 0.5810547
vt 0.3762207 0.3103027
vt 0.3942871 0.3103027
vt 0.3762207 0.5810547
vt 0.4208984 0.4382324
vt 0.4389648 0.420166
vt 0.4389648 0.4382324
vt 0.4208984 0.420166
vt 0.4492188 0.7416992
vt 0.4213867 0.4628906
vt 0.4213867 0.7416992
vt 0.4492188 0.4628906
vt 0.4213867 0.7416992
vt 0.4492188 0.4628906
vt 0.4213867 0.4628906
vt 0.4492188 0.7416992
vt 0.4492188 0.7416992
vt 0.4770508 0.4628906
vt 0.4492188 0.4628906
vt 0.4770508 0.7416992
vt 0.4187012 0.4428711
vt 0.4396973 0.4152832
vt 0.4396973 0.4428711
vt 0.4187012 0.4152832
vt 0.4770508 0.4628906
vt 0.4492188 0.7416992
vt 0.4770508 0.7416992
vt 0.4492188 0.4628906
vt 0.4396973 0.4152832
vt 0.4187012 0.4428711
vt 0.4187012 0.4152832
vt 0.4396973 0.4428711
vt 0.3942871 0.7416992
vt 0.3762207 0.4709473
vt 0.3762207 0.7416992
vt 0.3942871 0.4709473
vt 0.4123535 0.6411133
vt 0.3942871 0.3706055
vt 0.4123535 0.3706055
vt 0.3942871 0.6411133
vt 0.3942871 0.7416992
vt 0.4123535 0.4709473
vt 0.3942871 0.4709473
vt 0.4123535 0.7416992
vt 0.4208984 0.4382324
vt 0.4389648 0.420166
vt 0.4208984 0.420166
vt 0.4389648 0.4382324
vt 0.3762207 0.3706055
vt 0.3942871 0.6411133
vt 0.3762207 0.6411133
vt 0.3942871 0.3706055
vt 0.4208984 0.4382324
vt 0.4389648 0.420166
vt 0.4208984 0.420166
vt 0.4389648 0.4382324
vt 0.4123535 0.7416992
vt 0.3942871 0.4709473
vt 0.3942871 0.7416992
vt 0.4123535 0.4709473
vt 0.3942871 0.7416992
vt 0.4123535 0.4709473
vt 0.3942871 0.4709473
vt 0.4123535 0.7416992
vt 0.3762207 0.7416992
vt 0.3942871 0.4709473
vt 0.3762207 0.4709473
vt 0.3942871 0.7416992
vt 0.4208984 0.420166
vt 0.4389648 0.4382324
vt 0.4389648 0.420166
vt 0.4208984 0.4382324
vt 0.3942871 0.4709473
vt 0.3762207 0.7416992
vt 0.3942871 0.7416992
vt 0.3762207 0.4709473
vt 0.4389648 0.4382324
vt 0.4208984 0.420166
vt 0.4208984 0.4382324
vt 0.4389648 0.420166
vt 0.3513184 0.7304688
vt 0.3166504 0.3217773
vt 0.3166504 0.7304688
vt 0.3513184 0.3220215
vt 0.3166504 0.3217773
vt 0.3513184 0.7304688
vt 0.3513184 0.3220215
vt 0.3166504 0.7304688

g roof01_9x3m_B_1_19602_121
usemtl roof01_9x3m_B_1_19602_121
usemap roof01_9x3m_B_1_19602_121
f 1/1/1 3/3/3 2/2/2
f 2/2/2 4/4/4 1/1/1
f 5/5/5 7/7/7 6/6/6
f 6/6/6 8/8/8 5/5/5
f 9/9/9 11/11/11 10/10/10
f 10/10/10 12/12/12 9/9/9
f 13/13/13 15/15/15 14/14/14
f 14/14/14 16/16/16 13/13/13
f 17/17/17 19/19/19 18/18/18
f 18/18/18 20/20/20 17/17/17
f 21/21/21 23/23/23 22/22/22
f 22/22/22 24/24/24 21/21/21
f 25/25/25 27/27/27 26/26/26
f 26/26/26 28/28/28 25/25/25
f 29/29/29 31/31/31 30/30/30
f 30/30/30 32/32/32 29/29/29
f 33/33/33 35/35/35 34/34/34
f 34/34/34 36/36/36 33/33/33
f 37/37/37 39/39/39 38/38/38
f 38/38/38 40/40/40 37/37/37
f 41/41/41 43/43/43 42/42/42
f 42/42/42 44/44/44 41/41/41
f 45/45/45 47/47/47 46/46/46
f 46/46/46 48/48/48 45/45/45
f 49/49/49 51/51/51 50/50/50
f 50/50/50 52/52/52 49/49/49
f 53/53/53 55/55/55 54/54/54
f 54/54/54 56/56/56 53/53/53
f 57/57/57 59/59/59 58/58/58
f 58/58/58 60/60/60 57/57/57
f 61/61/61 63/63/63 62/62/62
f 62/62/62 64/64/64 61/61/61
f 65/65/65 67/67/67 66/66/66
f 66/66/66 68/68/68 65/65/65
f 69/69/69 71/71/71 70/70/70
f 70/70/70 72/72/72 69/69/69
f 73/73/73 75/75/75 74/74/74
f 74/74/74 76/76/76 73/73/73
f 77/77/77 79/79/79 78/78/78
f 78/78/78 80/80/80 77/77/77
f 81/81/81 83/83/83 82/82/82
f 82/82/82 84/84/84 81/81/81
f 85/85/85 87/87/87 86/86/86
f 86/86/86 88/88/88 85/85/85
f 89/89/89 91/91/91 90/90/90
f 90/90/90 92/92/92 89/89/89
f 93/93/93 95/95/95 94/94/94
f 94/94/94 96/96/96 93/93/93
f 97/97/97 99/99/99 98/98/98
f 98/98/98 100/100/100 97/97/97
f 101/101/101 103/103/103 102/102/102
f 102/102/102 104/104/104 101/101/101
f 105/105/105 107/107/107 106/106/106
f 106/106/106 108/108/108 105/105/105
f 109/109/109 111/111/111 110/110/110
f 110/110/110 112/112/112 109/109/109
f 113/113/113 115/115/115 114/114/114
f 114/114/114 116/116/116 113/113/113
f 117/117/117 119/119/119 118/118/118
f 118/118/118 120/120/120 117/117/117
f 121/121/121 123/123/123 122/122/122
f 122/122/122 124/124/124 121/121/121
f 125/125/125 127/127/127 126/126/126
f 126/126/126 128/128/128 125/125/125
f 129/129/129 131/131/131 130/130/130
f 130/130/130 132/132/132 129/129/129
f 133/133/133 135/135/135 134/134/134
f 134/134/134 136/136/136 133/133/133
f 137/137/137 139/139/139 138/138/138
f 138/138/138 140/140/140 137/137/137
f 141/141/141 143/143/143 142/142/142
f 142/142/142 144/144/144 141/141/141
f 145/145/145 147/147/147 146/146/146
f 146/146/146 148/148/148 145/145/145
f 149/149/149 151/151/151 150/150/150
f 150/150/150 152/152/152 149/149/149
f 153/153/153 155/155/155 154/154/154
f 154/154/154 156/156/156 153/153/153
f 157/157/157 159/159/159 158/158/158
f 158/158/158 160/160/160 157/157/157
f 161/161/161 163/163/163 162/162/162
f 162/162/162 164/164/164 161/161/161
f 165/165/165 167/167/167 166/166/166
f 166/166/166 168/168/168 165/165/165
f 169/169/169 171/171/171 170/170/170
f 170/170/170 172/172/172 169/169/169
f 173/173/173 175/175/175 174/174/174
f 174/174/174 176/176/176 173/173/173
