#roof_porch_endR_20132_214.obj

v -0.2000005 3.625117 0.330577
v -3.577813 2.944893 5.105896E-07
v -0.1999997 3.625117 2.83509E-07
v -3.577812 2.944893 0.8305779
v -0.2000005 3.625117 0.330577
v -0.2 2.944893 0.8305777
v -3.577812 2.944893 0.8305779
v -3.558086 2.846861 5.622468E-07
v -0.2000004 3.534074 0.291143
v -0.1999997 3.527085 2.878837E-07
v -3.56 2.847286 0.7500015
v -0.1999999 2.885666 0.7500063
v -0.2000004 3.534074 0.291143
v -3.56 2.847286 0.7500015
v -3.558086 2.846861 5.622468E-07
v -3.577812 2.944893 0.8305779
v -3.56 2.847286 0.7500015
v -3.577813 2.944893 5.105896E-07
v -0.2000004 3.534074 0.291143
v -0.1999997 3.625117 2.83509E-07
v -0.1999997 3.527085 2.878837E-07
v -0.2000005 3.625117 0.330577
v -3.56 2.847286 0.7500015
v -0.2 2.944893 0.8305777
v -0.1999999 2.885666 0.7500063
v -3.577812 2.944893 0.8305779
v -0.1999999 2.885666 0.7500063
v -0.2000005 3.625117 0.330577
v -0.2000004 3.534074 0.291143
v -0.2 2.944893 0.8305777

vn -1.342358E-06 0.9803197 -0.1974168
vn -9.068982E-07 0.9803197 -0.1974168
vn -1.418525E-06 0.9803197 -0.1974168
vn -8.73725E-07 0.9803197 -0.1974168
vn -0.8057442 0.5922638 1.921044E-06
vn -0.8057442 0.5922638 1.921044E-06
vn -0.8057442 0.5922638 1.921044E-06
vn -0.0022753 -0.979732 0.2002992
vn -0.02064372 -0.9798372 0.1987283
vn -0.02352102 -0.9798235 0.198476
vn -0.001065435 -0.9797135 0.2004004
vn 0.8162599 -0.577647 0.00659761
vn 0.81626 -0.577647 0.006597609
vn 0.81626 -0.577647 0.00659761
vn 0.0001801786 -0.1957858 -0.9806467
vn 0.002083662 -0.1802562 -0.9836175
vn 0.002408645 -0.1775999 -0.9840999
vn -2.328711E-06 -0.1972716 -0.9803489
vn 2.384186E-06 1.598721E-14 1
vn 2.384186E-06 1.598721E-14 1
vn 2.384186E-06 1.598721E-14 1
vn 2.384186E-06 1.598721E-14 1
vn -0.7684531 -0.6399062 0.000162662
vn -0.5969629 -0.8022185 0.008989886
vn -0.5922536 -0.8056991 0.009203919
vn -0.7711781 -0.6366194 1.838632E-06
vn 2.384186E-06 1.598721E-14 1
vn 2.384186E-06 1.598721E-14 1
vn 2.384186E-06 1.598721E-14 1
vn 2.384186E-06 1.598721E-14 1

vt 0.1101685 1.148438
vt 0 0
vt 3.576279E-07 1.148438
vt 0.2768555 -1.788139E-07
vt -0.25 0.2900391
vt -0.25 1.192093E-07
vt -1.401367 2.980232E-07
vt 0 0
vt 0.1101685 1.148438
vt 3.576279E-07 1.148438
vt 0.2768555 -1.788139E-07
vt -0.25 0
vt -0.25 0.2900391
vt -1.401367 4.172325E-07
vt 0 -1.788139E-07
vt 0.2768555 -1.788139E-07
vt 0.25 -1.788139E-07
vt 0 -1.788139E-07
vt 0.1101685 1.148438
vt 3.576279E-07 1.148438
vt 3.576279E-07 1.148438
vt 0.1101685 1.148438
vt -1.395508 0
vt -0.25 0
vt -0.25 0
vt -1.401367 0
vt -0.25 0
vt -0.25 0.2900391
vt -0.25 0.2900391
vt -0.25 0

g roof_porch_endR_20132_214
usemtl roof_porch_endR_20132_214
usemap roof_porch_endR_20132_214
f 1/1/1 3/3/3 2/2/2
f 2/2/2 4/4/4 1/1/1
f 5/5/5 7/7/7 6/6/6
f 8/8/8 10/10/10 9/9/9
f 9/9/9 11/11/11 8/8/8
f 12/12/12 14/14/14 13/13/13
f 15/15/15 17/17/17 16/16/16
f 16/16/16 18/18/18 15/15/15
f 19/19/19 21/21/21 20/20/20
f 20/20/20 22/22/22 19/19/19
f 23/23/23 25/25/25 24/24/24
f 24/24/24 26/26/26 23/23/23
f 27/27/27 29/29/29 28/28/28
f 28/28/28 30/30/30 27/27/27
