#roof01_6m_endR_A_8844_148.obj

v 0.2000088 2.499999 -0.2031351
v 0.2000083 2.499999 -9.270676E-06
v 0.2000083 2.620487 -9.275867E-06
v 0.2000062 4.4 2.999995
v 0.2000073 2.499999 5.999993
v 0.2000073 2.620487 5.999993
v 0.2000068 2.499999 6.203119

vn 0.9999702 1.598721E-14 -0.007717755
vn 0.9999702 1.598721E-14 -0.007717755
vn 0.9999702 1.598721E-14 -0.007717755
vn 0.9999702 1.598721E-14 -0.007717755
vn 0.9999702 1.598721E-14 -0.007717755
vn 0.9999702 1.598721E-14 -0.007717755
vn 0.9999702 1.598721E-14 -0.007717755

vt 1.067383 0
vt 1 0
vt 1 0.04016113
vt -7.152557E-07 0.6333008
vt -1 4.768372E-07
vt -1 0.04016113
vt -1.067383 4.768372E-07

g roof01_6m_endR_A_8844_148
usemtl roof01_6m_endR_A_8844_148
usemap roof01_6m_endR_A_8844_148
f 1/1/1 3/3/3 2/2/2
f 3/3/3 4/4/4 2/2/2
f 4/4/4 5/5/5 2/2/2
f 4/4/4 6/6/6 5/5/5
f 6/6/6 7/7/7 5/5/5
