#roof01_3m_endL_A_9880_803.obj

v 1.045148E-05 2.5 -0.203125
v 1.030197E-05 2.5 -2.782044E-06
v 1.030197E-05 2.619267 -2.782044E-06
v 1.14107E-05 2.499999 2.999991
v 9.974836E-06 3.5 1.499994
v 1.148706E-05 2.619266 2.999995
v 1.12612E-05 2.499999 3.203113

vn 0.9997657 2.844857E-15 0.0216511
vn 0.9997657 2.844857E-15 0.0216511
vn 0.9997657 2.844857E-15 0.0216511
vn 0.9997657 2.844857E-15 0.0216511
vn 0.9997657 2.844857E-15 0.0216511
vn 0.9997657 2.844857E-15 0.0216511
vn 0.9997657 2.844857E-15 0.0216511

vt 1.067383 2.384186E-07
vt 1 2.384186E-07
vt 1 0.0397644
vt 3.33786E-06 0
vt 0.5 0.333252
vt 3.33786E-06 0.0397644
vt -0.06768799 -1.192093E-07

g roof01_3m_endL_A_9880_803
usemtl roof01_3m_endL_A_9880_803
usemap roof01_3m_endL_A_9880_803
f 1/1/1 3/3/3 2/2/2
f 3/3/3 4/4/4 2/2/2
f 3/3/3 5/5/5 4/4/4
f 5/5/5 6/6/6 4/4/4
f 6/6/6 7/7/7 4/4/4
