#roof02_edge_2_9107_351.obj

v -2.999997 3.500001 -3.000005
v 2.253637E-06 3.500001 -3.200005
v 1.989056E-06 3.500001 -3.000005
v -2.999996 3.500001 -3.200005
v -2.999997 3.100001 -3.000005
v 1.989056E-06 3.500001 -3.000005
v 1.989056E-06 3.100001 -3.000005
v -2.999997 3.500001 -3.000005
v 1.989056E-06 3.100001 -3.000005
v 2.253637E-06 3.500001 -3.200005
v 2.253637E-06 3.100001 -3.200005
v 1.989056E-06 3.500001 -3.000005
v 2.253637E-06 3.100001 -3.200005
v -2.999996 3.500001 -3.200005
v -2.999996 3.100001 -3.200005
v 2.253637E-06 3.500001 -3.200005
v -2.999996 3.100001 -3.200005
v -2.999997 3.500001 -3.000005
v -2.999997 3.100001 -3.000005
v -2.999996 3.500001 -3.200005

vn -3.781698E-10 0.9999991 4.370973E-08
vn -3.781698E-10 0.9999991 4.370973E-08
vn -3.781698E-10 0.9999991 4.370973E-08
vn -3.781698E-10 0.9999991 4.370973E-08
vn -0.008651787 -4.371133E-08 0.9999626
vn -0.008651787 -4.371133E-08 0.9999626
vn -0.008651787 -4.371133E-08 0.9999626
vn -0.008651787 -4.371133E-08 0.9999626
vn 0.9999626 -1.14605E-14 0.008651991
vn 0.9999626 -1.14605E-14 0.008651991
vn 0.9999626 -1.14605E-14 0.008651991
vn 0.9999626 -1.14605E-14 0.008651991
vn 0.008651787 4.371133E-08 -0.9999626
vn 0.008651787 4.371133E-08 -0.9999626
vn 0.008651787 4.371133E-08 -0.9999626
vn 0.008651787 4.371133E-08 -0.9999626
vn -0.9999626 1.14605E-14 -0.008651991
vn -0.9999626 1.14605E-14 -0.008651991
vn -0.9999626 1.14605E-14 -0.008651991
vn -0.9999626 1.14605E-14 -0.008651991

vt 1.916992 1.822266
vt 0.9174805 1.755859
vt 0.9174805 1.822266
vt 1.916992 1.755859
vt 0.9174805 1.648438
vt -0.08258057 1.78125
vt -0.08258057 1.648438
vt 0.9174805 1.78125
vt -0.149292 1.648438
vt -0.08258057 1.78125
vt -0.08258057 1.648438
vt -0.149292 1.78125
vt -0.08258057 1.648438
vt 0.9174805 1.78125
vt 0.9174805 1.648438
vt -0.08258057 1.78125
vt 0.8505859 1.648438
vt 0.9174805 1.78125
vt 0.9174805 1.648438
vt 0.8505859 1.78125

g roof02_edge_2_9107_351
usemtl roof02_edge_2_9107_351
usemap roof02_edge_2_9107_351
f 1/1/1 3/3/3 2/2/2
f 2/2/2 4/4/4 1/1/1
f 5/5/5 7/7/7 6/6/6
f 6/6/6 8/8/8 5/5/5
f 9/9/9 11/11/11 10/10/10
f 10/10/10 12/12/12 9/9/9
f 13/13/13 15/15/15 14/14/14
f 14/14/14 16/16/16 13/13/13
f 17/17/17 19/19/19 18/18/18
f 18/18/18 20/20/20 17/17/17
