#roof_porch_3m_3_20181_313.obj

v -3.577813 2.944893 -1.224662E-09
v -0.2000003 3.625117 3
v -3.577814 2.944892 2.999999
v -0.1999997 3.625117 6.024751E-07
v -0.2000003 3.523109 3
v -3.558086 2.846861 5.021657E-08
v -3.558087 2.84686 2.999999
v -0.1999997 3.523109 6.068025E-07
v -0.2000003 3.523109 3
v -0.1999997 3.625117 6.024751E-07
v -0.1999997 3.523109 6.068025E-07
v -0.2000003 3.625117 3
v -3.558086 2.846861 5.021657E-08
v -3.577814 2.944892 2.999999
v -3.558087 2.84686 2.999999
v -3.577813 2.944893 -1.224662E-09

vn -6.321961E-07 0.9803197 -0.197417
vn -6.234317E-07 0.9803197 -0.1974169
vn -6.776755E-07 0.9803196 -0.197417
vn -4.782288E-07 0.9803197 -0.1974169
vn 6.236139E-07 -0.9803197 0.1974161
vn 6.320098E-07 -0.9803197 0.1974161
vn 6.776736E-07 -0.9803197 0.1974161
vn 4.782269E-07 -0.9803197 0.197416
vn 2.205372E-06 7.105427E-15 1
vn 2.205372E-06 7.105427E-15 1
vn 2.205372E-06 7.105427E-15 1
vn 2.205372E-06 7.105427E-15 1
vn -2.153411E-06 -0.1972716 -0.9803489
vn -2.153411E-06 -0.1972716 -0.9803489
vn -2.153411E-06 -0.1972716 -0.9803489
vn -2.153411E-06 -0.1972716 -0.9803489

vt 0 0
vt 1 1.148438
vt 1 -7.152557E-07
vt 3.576279E-07 1.148438
vt 1 1.148438
vt 0 0
vt 1 -7.152557E-07
vt 3.576279E-07 1.148438
vt 1 1.148438
vt 3.576279E-07 1.148438
vt 3.576279E-07 1.148438
vt 1 1.148438
vt 0 0
vt 1 -7.152557E-07
vt 1 -7.152557E-07
vt 0 0

g roof_porch_3m_3_20181_313
usemtl roof_porch_3m_3_20181_313
usemap roof_porch_3m_3_20181_313
f 1/1/1 3/3/3 2/2/2
f 2/2/2 4/4/4 1/1/1
f 5/5/5 7/7/7 6/6/6
f 6/6/6 8/8/8 5/5/5
f 9/9/9 11/11/11 10/10/10
f 10/10/10 12/12/12 9/9/9
f 13/13/13 15/15/15 14/14/14
f 14/14/14 16/16/16 13/13/13
