#roof02_corner_9476_57.obj

v -2.999967 3 -2.999961
v -3.299966 3 3.987466E-05
v -2.999966 3 4.120021E-05
v -3.299964 3 -3.299961
v -2.999967 3 -2.999961
v 3.649692E-05 3 -3.299961
v -3.299964 3 -3.299961
v 3.510774E-05 3 -2.999962
v -3.299966 3.1 3.987466E-05
v -2.999967 3.1 -2.999961
v -2.999966 3.1 4.120021E-05
v -3.299964 3.1 -3.299961
v 3.649692E-05 3.1 -3.299961
v -2.999967 3.1 -2.999961
v -3.299964 3.1 -3.299961
v 3.510774E-05 3.1 -2.999962
v -3.299966 3.1 3.987466E-05
v -3.299964 3 -3.299961
v -3.299964 3.1 -3.299961
v -3.299966 3 3.987466E-05
v -2.999966 3.1 4.120021E-05
v -3.299966 3 3.987466E-05
v -3.299966 3.1 3.987466E-05
v -2.999966 3 4.120021E-05
v 3.649692E-05 3.1 -3.299961
v 3.510774E-05 3 -2.999962
v 3.510774E-05 3.1 -2.999962
v 3.649692E-05 3 -3.299961
v -3.299964 3.1 -3.299961
v 3.649692E-05 3 -3.299961
v 3.649692E-05 3.1 -3.299961
v -3.299964 3 -3.299961

vn -2.981122E-11 -0.9999989 -4.371138E-08
vn -2.981122E-11 -0.9999989 -4.371138E-08
vn -2.981122E-11 -0.9999989 -4.371138E-08
vn -2.981122E-11 -0.9999989 -4.371138E-08
vn -2.981122E-11 -0.9999989 -4.371138E-08
vn -2.981122E-11 -0.9999989 -4.371138E-08
vn -2.981122E-11 -0.9999989 -4.371138E-08
vn -2.981122E-11 -0.9999989 -4.371138E-08
vn 2.981122E-11 0.9999989 4.371138E-08
vn 2.981122E-11 0.9999989 4.371138E-08
vn 2.981122E-11 0.9999989 4.371138E-08
vn 2.981122E-11 0.9999989 4.371138E-08
vn 2.981122E-11 0.9999989 4.371138E-08
vn 2.981122E-11 0.9999989 4.371138E-08
vn 2.981122E-11 0.9999989 4.371138E-08
vn 2.981122E-11 0.9999989 4.371138E-08
vn -0.9999998 1.694064E-21 0.0006817484
vn -0.9999998 1.694064E-21 0.0006817484
vn -0.9999998 1.694064E-21 0.0006817484
vn -0.9999998 1.694064E-21 0.0006817484
vn 0.000681999 -4.371134E-08 0.9999998
vn 0.000681999 -4.371134E-08 0.9999998
vn 0.000681999 -4.371134E-08 0.9999998
vn 0.000681999 -4.371134E-08 0.9999998
vn 0.9999998 -1.694064E-21 -0.0006817484
vn 0.9999998 -1.694064E-21 -0.0006817484
vn 0.9999998 -1.694064E-21 -0.0006817484
vn 0.9999998 -1.694064E-21 -0.0006817484
vn -0.000681999 4.371134E-08 -0.9999998
vn -0.000681999 4.371134E-08 -0.9999998
vn -0.000681999 4.371134E-08 -0.9999998
vn -0.000681999 4.371134E-08 -0.9999998

vt 0 -0.5
vt 1 -0.3876953
vt 1 -0.5
vt -0.1122437 -0.3876953
vt 4.768372E-07 -0.2380371
vt 1 -0.3503418
vt -0.1122437 -0.3503418
vt 1 -0.2380371
vt 1 -0.3503418
vt 0 -0.2380371
vt 1 -0.2380371
vt -0.1122437 -0.3503418
vt 1 -0.3876953
vt 2.980232E-07 -0.5
vt -0.1122437 -0.3876953
vt 1 -0.5
vt 1 -0.3503418
vt -0.1122437 -0.3876953
vt -0.1122437 -0.3503418
vt 1 -0.3876953
vt 1 -0.2380371
vt 1.037109 -0.3503418
vt 1 -0.3503418
vt 1.037109 -0.2380371
vt 1.037109 -0.3503418
vt 1 -0.2380371
vt 1.037109 -0.2380371
vt 1 -0.3503418
vt -0.1122437 -0.3876953
vt 1 -0.3503418
vt 1 -0.3876953
vt -0.1122437 -0.3503418

g roof02_corner_9476_57
usemtl roof02_corner_9476_57
usemap roof02_corner_9476_57
f 1/1/1 3/3/3 2/2/2
f 2/2/2 4/4/4 1/1/1
f 5/5/5 7/7/7 6/6/6
f 6/6/6 8/8/8 5/5/5
f 9/9/9 11/11/11 10/10/10
f 10/10/10 12/12/12 9/9/9
f 13/13/13 15/15/15 14/14/14
f 14/14/14 16/16/16 13/13/13
f 17/17/17 19/19/19 18/18/18
f 18/18/18 20/20/20 17/17/17
f 21/21/21 23/23/23 22/22/22
f 22/22/22 24/24/24 21/21/21
f 25/25/25 27/27/27 26/26/26
f 26/26/26 28/28/28 25/25/25
f 29/29/29 31/31/31 30/30/30
f 30/30/30 32/32/32 29/29/29
