#roof01_3m_endL_A_10321_915.obj

v 2.659719E-06 2.434961 -0.5130808
v -0.4999982 3.599999 1.499986
v -0.4999974 2.43496 -0.5130772
v 1.915949E-06 3.599999 1.499989
v 1.213465E-06 2.43496 3.513054
v -0.4999982 3.599999 1.499986
v 1.915949E-06 3.599999 1.499989
v -0.4999989 2.43496 3.513052
v -0.4999982 3.5 1.499989
v 2.677621E-06 2.34841 -0.4629892
v -0.4999974 2.34841 -0.462992
v 1.91E-06 3.5 1.499986
v -0.4999982 3.5 1.499989
v 1.132165E-06 2.34841 3.462962
v 1.91E-06 3.5 1.499986
v -0.4999989 2.34841 3.462966
v 2.677621E-06 2.34841 -0.4629892
v -0.4999974 2.43496 -0.5130772
v -0.4999974 2.34841 -0.462992
v 2.659719E-06 2.434961 -0.5130808
v -0.4999974 2.34841 -0.462992
v -0.4999982 3.599999 1.499986
v -0.4999982 3.5 1.499989
v -0.4999974 2.43496 -0.5130772
v -0.4999989 2.43496 3.513052
v -0.4999989 2.34841 3.462966
v -0.4999989 2.34841 3.462966
v 1.213465E-06 2.43496 3.513054
v 1.132165E-06 2.34841 3.462962
v -0.4999989 2.43496 3.513052

vn -0.4829895 0.8756254 -0.001122834
vn -0.4829896 0.8756254 -0.001122834
vn -0.4829895 0.8756254 -0.001122834
vn -0.4829895 0.8756254 -0.001122834
vn 0.5185902 0.8550162 0.003406323
vn 0.5185901 0.8550162 0.003406323
vn 0.5185901 0.8550162 0.003406323
vn 0.5185901 0.8550162 0.003406323
vn 0.4881553 -0.8727561 0.001149841
vn 0.4881552 -0.8727561 0.001149841
vn 0.4881552 -0.8727561 0.001149841
vn 0.4881552 -0.8727561 0.001149841
vn -0.5236334 -0.8519368 -0.003425481
vn -0.5236335 -0.8519368 -0.003425481
vn -0.5236334 -0.8519368 -0.003425481
vn -0.5236334 -0.8519368 -0.003425481
vn -0.8756232 -0.4829733 -0.004573748
vn -0.8756232 -0.4829733 -0.004573748
vn -0.8756232 -0.4829733 -0.004573748
vn -0.8756232 -0.4829733 -0.004573748
vn -0.004546939 -0.001225892 0.999989
vn -0.004546939 -0.001225892 0.999989
vn -0.004546939 -0.001225892 0.999989
vn -0.004546939 -0.001225892 0.999989
vn -0.004546939 -0.001225892 0.999989
vn -0.004546939 -0.001225892 0.999989
vn 0.8550204 -0.5185842 0.003252247
vn 0.8550204 -0.5185842 0.003252247
vn 0.8550204 -0.5185842 0.003252247
vn 0.8550204 -0.5185842 0.003252247

vt 0 0
vt 0.1921387 0.7739258
vt 0.1921387 0
vt -4.768372E-07 0.7739258
vt 0 0
vt 0.1921387 0.7739258
vt -4.768372E-07 0.7739258
vt 0.1921387 0
vt 0.1921387 0.7739258
vt 0 0
vt 0.1921387 0
vt -4.768372E-07 0.7739258
vt 0.1921387 0.7739258
vt 0 0
vt -4.768372E-07 0.7739258
vt 0.1921387 0
vt 0 0
vt 0.1921387 0
vt 0.1921387 0
vt 0 0
vt 0.1921387 0
vt 0.1921387 0.7739258
vt 0.1921387 0.7739258
vt 0.1921387 0
vt 0.1921387 0
vt 0.1921387 0
vt 0.1921387 0
vt 0 0
vt 0 0
vt 0.1921387 0

g roof01_3m_endL_A_10321_915
usemtl roof01_3m_endL_A_10321_915
usemap roof01_3m_endL_A_10321_915
f 1/1/1 3/3/3 2/2/2
f 2/2/2 4/4/4 1/1/1
f 5/5/5 7/7/7 6/6/6
f 6/6/6 8/8/8 5/5/5
f 9/9/9 11/11/11 10/10/10
f 10/10/10 12/12/12 9/9/9
f 13/13/13 15/15/15 14/14/14
f 14/14/14 16/16/16 13/13/13
f 17/17/17 19/19/19 18/18/18
f 18/18/18 20/20/20 17/17/17
f 21/21/21 23/23/23 22/22/22
f 22/22/22 24/24/24 21/21/21
f 25/25/25 22/22/22 23/23/23
f 23/23/23 26/26/26 25/25/25
f 27/27/27 29/29/29 28/28/28
f 28/28/28 30/30/30 27/27/27
