#roof_porch_endR_11220_50.obj

v -0.2402735 3.527085 9.220211E-07
v -0.2402735 3.009998 0.7000009
v -0.240274 3.534075 0.2911436
v -0.2402735 3.009999 9.446237E-07
v -0.2402735 3.527085 1.332859E-06
v -0.2402735 3.009998 0.7000013
v -0.2402735 3.009999 1.355461E-06
v -0.240274 3.534075 0.291144

vn 0.001170222 1.776357E-15 0.9999993
vn 0.001170222 1.776357E-15 0.9999993
vn 0.001170222 1.776357E-15 0.9999993
vn 0.001170222 1.776357E-15 0.9999993
vn -0.001170222 -1.776357E-15 -0.9999993
vn -0.001170222 -1.776357E-15 -0.9999993
vn -0.001170222 -1.776357E-15 -0.9999993
vn -0.001170222 -1.776357E-15 -0.9999993

vt 1 0.2260742
vt 0.7666016 0.05371094
vt 0.902832 0.2283936
vt 1 0.05371094
vt 1 0.2260742
vt 0.7666016 0.05371094
vt 1 0.05371094
vt 0.902832 0.2283936

g roof_porch_endR_11220_50
usemtl roof_porch_endR_11220_50
usemap roof_porch_endR_11220_50
f 1/1/1 3/3/3 2/2/2
f 2/2/2 4/4/4 1/1/1
f 5/5/5 7/7/7 6/6/6
f 6/6/6 8/8/8 5/5/5
