#roof01_9m_endL_A_11001_889.obj

v -0.1999937 2.499997 8.999991
v -0.1999939 5.299992 4.499991
v -0.1999937 2.620927 9.000004
v -0.1999926 2.62093 -8.772457E-06
v -0.1999926 2.5 -2.409495E-06
v -0.1999937 2.5 -0.2031347
v -0.1999941 2.499997 9.203117

vn -0.9999703 1.776356E-15 0.007717356
vn -0.9999703 1.776356E-15 0.007717356
vn -0.9999703 1.776356E-15 0.007717356
vn -0.9999703 1.776356E-15 0.007717356
vn -0.9999703 1.776356E-15 0.007717356
vn -0.9999703 1.776356E-15 0.007717356
vn -0.9999703 1.776356E-15 0.007717356

vt 1 0
vt -0.4992676 0.9331055
vt 1 0.0402832
vt -2 0.0402832
vt -2 0
vt -2.068359 0
vt 1.067383 0

g roof01_9m_endL_A_11001_889
usemtl roof01_9m_endL_A_11001_889
usemap roof01_9m_endL_A_11001_889
f 1/1/1 3/3/3 2/2/2
f 1/1/1 2/2/2 4/4/4
f 1/1/1 4/4/4 5/5/5
f 4/4/4 6/6/6 5/5/5
f 1/1/1 7/7/7 3/3/3
