#roof01_6m_endL_A_10025_636.obj

v -0.4999965 4.5 2.999995
v 3.24583E-06 2.43496 -0.5130773
v 3.525635E-06 4.5 2.999994
v -0.4999968 2.43496 -0.5130777
v 3.276111E-06 2.348751 -0.4624037
v -0.4999965 4.384003 2.999995
v 3.525635E-06 4.384003 2.999994
v -0.4999968 2.348751 -0.4624042
v 3.276111E-06 2.348751 -0.4624037
v -0.4999968 2.43496 -0.5130777
v -0.4999968 2.348751 -0.4624042
v 3.24583E-06 2.43496 -0.5130773
v -0.4999968 2.348751 -0.4624042
v -0.4999965 4.5 2.999995
v -0.4999965 4.384003 2.999995
v -0.4999968 2.43496 -0.5130777
v -0.4999964 2.34875 6.462392
v -0.4999964 2.434959 6.513065
v 3.696088E-06 2.434959 6.513066
v -0.4999965 4.5 2.999995
v 3.525635E-06 4.5 2.999994
v -0.4999964 2.434959 6.513065
v 3.775159E-06 2.34875 6.462392
v -0.4999965 4.384003 2.999995
v -0.4999964 2.34875 6.462392
v 3.525635E-06 4.384003 2.999994
v -0.4999964 2.434959 6.513065
v 3.775159E-06 2.34875 6.462392
v -0.4999964 2.34875 6.462392
v 3.696088E-06 2.434959 6.513066

vn 0.506688 0.8620918 -0.008030748
vn 0.506688 0.8620918 -0.008030748
vn 0.506688 0.8620918 -0.008030748
vn 0.506688 0.8620918 -0.008030748
vn -0.5066879 -0.862092 0.008030747
vn -0.5066879 -0.862092 0.008030747
vn -0.506688 -0.862092 0.008030748
vn -0.506688 -0.862092 0.008030748
vn 0.8619894 -0.5067419 -0.0136621
vn 0.8619894 -0.5067419 -0.0136621
vn 0.8619895 -0.5067419 -0.0136621
vn 0.8619895 -0.5067419 -0.0136621
vn -0.01584772 0 -0.9998744
vn -0.01584772 0 -0.9998744
vn -0.01584772 0 -0.9998744
vn -0.01584772 0 -0.9998744
vn -0.01584772 0 -0.9998744
vn -0.01584772 0 -0.9998744
vn -0.5066883 0.8620918 0.008030753
vn -0.5066882 0.8620918 0.008030752
vn -0.5066882 0.8620918 0.008030752
vn -0.5066882 0.8620918 0.008030752
vn 0.5066883 -0.8620918 -0.008030753
vn 0.5066883 -0.8620918 -0.008030753
vn 0.5066884 -0.8620918 -0.008030754
vn 0.5066884 -0.8620918 -0.008030754
vn -0.8619902 -0.5067408 0.01366211
vn -0.8619902 -0.5067408 0.01366211
vn -0.8619902 -0.5067407 0.01366211
vn -0.8619902 -0.5067407 0.01366211

vt 0.166626 1.358398
vt 0 0
vt 2.086163E-06 1.358398
vt 0.166626 0
vt 0 0
vt 0.166626 1.338867
vt 2.026558E-06 1.338867
vt 0.166626 0
vt 0 0
vt 0.166626 0
vt 0.166626 0
vt 0 0
vt 0.166626 0
vt 0.166626 1.358398
vt 0.166626 1.338867
vt 0.166626 0
vt 0.166626 0
vt 0.166626 0
vt 0 0
vt 0.166626 1.358398
vt 2.086163E-06 1.358398
vt 0.166626 0
vt 0 0
vt 0.166626 1.338867
vt 0.166626 0
vt 2.026558E-06 1.338867
vt 0.166626 0
vt 0 0
vt 0.166626 0
vt 0 0

g roof01_6m_endL_A_10025_636
usemtl roof01_6m_endL_A_10025_636
usemap roof01_6m_endL_A_10025_636
f 1/1/1 3/3/3 2/2/2
f 2/2/2 4/4/4 1/1/1
f 5/5/5 7/7/7 6/6/6
f 6/6/6 8/8/8 5/5/5
f 9/9/9 11/11/11 10/10/10
f 10/10/10 12/12/12 9/9/9
f 13/13/13 15/15/15 14/14/14
f 14/14/14 16/16/16 13/13/13
f 14/14/14 15/15/15 17/17/17
f 17/17/17 18/18/18 14/14/14
f 19/19/19 21/21/21 20/20/20
f 20/20/20 22/22/22 19/19/19
f 23/23/23 25/25/25 24/24/24
f 24/24/24 26/26/26 23/23/23
f 27/27/27 29/29/29 28/28/28
f 28/28/28 30/30/30 27/27/27
