#roof01_3m_endL_A_9880_801.obj

v -0.2499893 2.63208 2.999976
v 1.10289E-05 2.5 2.999973
v 1.10289E-05 2.63208 2.999973
v -0.2499893 2.5 2.999976
v -0.2499893 2.5 2.999976
v -0.2499893 2.63208 2.999976
v -0.2499894 2.5 3.249974
v 1.014925E-05 2.63208 -9.834042E-06
v -0.2499893 2.5 -1.07157E-05
v -0.2499893 2.63208 -1.07157E-05
v 1.014925E-05 2.5 -9.834042E-06
v -0.2499893 2.5 -1.07157E-05
v -0.2499902 2.5 -0.250012
v -0.2499893 2.63208 -1.07157E-05

vn 0.02165083 4.371136E-08 -0.9997658
vn 0.02165083 4.371136E-08 -0.9997658
vn 0.02165083 4.371136E-08 -0.9997658
vn 0.02165083 4.371136E-08 -0.9997658
vn -0.9997657 -2.844857E-15 -0.0216511
vn -0.9997657 -2.844857E-15 -0.0216511
vn -0.9997657 -2.844857E-15 -0.0216511
vn -0.02165083 -4.371136E-08 0.9997658
vn -0.02165083 -4.371136E-08 0.9997658
vn -0.02165083 -4.371136E-08 0.9997658
vn -0.02165083 -4.371136E-08 0.9997658
vn -0.9997657 -2.844857E-15 -0.0216511
vn -0.9997657 -2.844857E-15 -0.0216511
vn -0.9997657 -2.844857E-15 -0.0216511

vt 0.1292725 0.7158203
vt 0.08630371 0.7392578
vt 0.08630371 0.7158203
vt 0.1292725 0.7392578
vt 0.1292725 0.7392578
vt 0.1292725 0.7158203
vt 0.1723633 0.7392578
vt 0.1292725 0.7158203
vt 0.1723633 0.7392578
vt 0.1723633 0.7158203
vt 0.1292725 0.7392578
vt 0.1292725 0.7392578
vt 0.08630371 0.7392578
vt 0.1292725 0.7158203

g roof01_3m_endL_A_9880_801
usemtl roof01_3m_endL_A_9880_801
usemap roof01_3m_endL_A_9880_801
f 1/1/1 3/3/3 2/2/2
f 2/2/2 4/4/4 1/1/1
f 5/5/5 7/7/7 6/6/6
f 8/8/8 10/10/10 9/9/9
f 9/9/9 11/11/11 8/8/8
f 12/12/12 14/14/14 13/13/13
