#roof01_9m_endL_A_10317_745.obj

v -2.805487E-06 2.63208 2.923909E-06
v -0.250003 2.5 3.136115E-06
v -0.250003 2.63208 3.130512E-06
v -2.805487E-06 2.5 2.929512E-06
v -0.250003 2.5 3.136115E-06
v -0.2500029 2.5 -0.2499967
v -0.250003 2.63208 3.130512E-06
v -0.2500013 2.632078 8.999997
v -1.086455E-06 2.499998 8.999995
v -1.086455E-06 2.632078 8.999995
v -0.2500013 2.499998 8.999997
v -0.2500013 2.499998 8.999997
v -0.2500013 2.632078 8.999997
v -0.250001 2.499998 9.249996

vn 0.999844 -4.371135E-08 0.01765552
vn 0.999844 -4.371135E-08 0.01765552
vn 0.999844 -4.371135E-08 0.01765552
vn 0.999844 -4.371135E-08 0.01765552
vn -0.01765533 1.95399E-14 0.9998441
vn -0.01765533 1.95399E-14 0.9998441
vn -0.01765533 1.95399E-14 0.9998441
vn -0.999844 4.371135E-08 -0.01765552
vn -0.999844 4.371135E-08 -0.01765552
vn -0.999844 4.371135E-08 -0.01765552
vn -0.999844 4.371135E-08 -0.01765552
vn -0.01765533 1.95399E-14 0.9998441
vn -0.01765533 1.95399E-14 0.9998441
vn -0.01765533 1.95399E-14 0.9998441

vt 0.1292725 0.7158203
vt 0.1723633 0.7392578
vt 0.1723633 0.7158203
vt 0.1292725 0.7392578
vt 0.1292725 0.7392578
vt 0.08630371 0.7392578
vt 0.1292725 0.7158203
vt 0.1292725 0.7158203
vt 0.08630371 0.7392578
vt 0.08630371 0.7158203
vt 0.1292725 0.7392578
vt 0.1292725 0.7392578
vt 0.1292725 0.7158203
vt 0.1723633 0.7392578

g roof01_9m_endL_A_10317_745
usemtl roof01_9m_endL_A_10317_745
usemap roof01_9m_endL_A_10317_745
f 1/1/1 3/3/3 2/2/2
f 2/2/2 4/4/4 1/1/1
f 5/5/5 7/7/7 6/6/6
f 8/8/8 10/10/10 9/9/9
f 9/9/9 11/11/11 8/8/8
f 12/12/12 14/14/14 13/13/13
