#roof01_9x3m_A_2_10663_121.obj

v 3.000004 2.43496 -0.5130705
v 2.689792E-06 5.39999 4.500006
v 3.244138E-06 2.43496 -0.5130704
v 2.99973 5.399986 4.500011
v 3.000006 2.348887 -0.4621619
v 2.689792E-06 5.283829 4.500006
v 3.000004 5.283828 4.500007
v 4.51469E-06 2.348887 -0.4621617
v 3.000006 2.348887 -0.4621619
v 3.244138E-06 2.43496 -0.5130704
v 4.51469E-06 2.348887 -0.4621617
v 3.000004 2.43496 -0.5130705
v 2.689792E-06 5.39999 4.500006
v 3.000003 2.434958 9.513087
v 2.104777E-06 2.434958 9.513087
v 2.99973 5.399986 4.500011
v 3.000002 2.348887 9.462171
v 2.689792E-06 5.283829 4.500006
v 9.016962E-07 2.348887 9.46217
v 3.000004 5.283828 4.500007
v 2.104777E-06 2.434958 9.513087
v 3.000002 2.348887 9.462171
v 9.016962E-07 2.348887 9.46217
v 3.000003 2.434958 9.513087

vn -0.003928981 0.8607187 -0.509065
vn -0.003928981 0.8607187 -0.509065
vn -0.003928981 0.8607187 -0.509065
vn -0.003927096 0.8607192 -0.5090643
vn 0.003928827 -0.8607172 0.5090677
vn 0.003928827 -0.8607172 0.5090677
vn 0.003928827 -0.8607172 0.5090677
vn 0.003929002 -0.8607171 0.5090677
vn -0.006642853 -0.5090819 -0.8606924
vn -0.006642853 -0.5090819 -0.8606924
vn -0.006642853 -0.5090819 -0.8606924
vn -0.006642853 -0.5090819 -0.8606924
vn 0.003928979 0.8607189 0.5090647
vn 0.003928979 0.8607189 0.5090647
vn 0.00392898 0.8607189 0.5090649
vn 0.003929201 0.8607189 0.5090647
vn -0.003929006 -0.8607169 -0.5090683
vn -0.003929006 -0.8607168 -0.5090683
vn -0.003929006 -0.8607169 -0.5090683
vn -0.00392918 -0.860717 -0.5090681
vn 0.006642523 -0.5091544 0.8606496
vn 0.006642523 -0.5091544 0.8606496
vn 0.006642523 -0.5091544 0.8606496
vn 0.006642523 -0.5091544 0.8606496

vt 0 0
vt 1 1.74707
vt 1 5.960464E-08
vt -5.960464E-06 1.74707
vt 0 0
vt 1 1.729492
vt -5.90086E-06 1.729492
vt 1 5.960464E-08
vt 0 0
vt 1 5.960464E-08
vt 1 5.960464E-08
vt 0 0
vt 1 1.74707
vt 0 0
vt 1 5.960464E-08
vt -5.960464E-06 1.74707
vt 0 0
vt 1 1.729492
vt 1 5.960464E-08
vt -5.90086E-06 1.729492
vt 1 5.960464E-08
vt 0 0
vt 1 5.960464E-08
vt 0 0

g roof01_9x3m_A_2_10663_121
usemtl roof01_9x3m_A_2_10663_121
usemap roof01_9x3m_A_2_10663_121
f 1/1/1 3/3/3 2/2/2
f 2/2/2 4/4/4 1/1/1
f 5/5/5 7/7/7 6/6/6
f 6/6/6 8/8/8 5/5/5
f 9/9/9 11/11/11 10/10/10
f 10/10/10 12/12/12 9/9/9
f 13/13/13 15/15/15 14/14/14
f 14/14/14 16/16/16 13/13/13
f 17/17/17 19/19/19 18/18/18
f 18/18/18 20/20/20 17/17/17
f 21/21/21 23/23/23 22/22/22
f 22/22/22 24/24/24 21/21/21
