#roof01_9m_endL_A_11314_819.obj

v -0.1999967 2.499998 8.999996
v -0.1999968 5.299992 4.499995
v -0.1999967 2.620927 9.000006
v -0.1999967 2.62093 -4.747916E-06
v -0.1999967 2.5 3.956754E-06
v -0.1999966 2.5 -0.2031304
v -0.1999968 2.499998 9.20312

vn -0.02092872 1.953991E-14 -0.999781
vn -0.02092872 1.953991E-14 -0.999781
vn -0.02092872 1.953991E-14 -0.999781
vn -0.02092872 1.953991E-14 -0.999781
vn -0.02092872 1.953991E-14 -0.999781
vn -0.02092872 1.953991E-14 -0.999781
vn -0.02092872 1.953991E-14 -0.999781

vt 1 0
vt -0.4992676 0.9331055
vt 1 0.0402832
vt -2 0.0402832
vt -2 0
vt -2.068359 0
vt 1.067383 0

g roof01_9m_endL_A_11314_819
usemtl roof01_9m_endL_A_11314_819
usemap roof01_9m_endL_A_11314_819
f 1/1/1 3/3/3 2/2/2
f 1/1/1 2/2/2 4/4/4
f 1/1/1 4/4/4 5/5/5
f 4/4/4 6/6/6 5/5/5
f 1/1/1 7/7/7 3/3/3
