#roof_porch_endL_10716_40.obj

v -0.2402736 3.523109 2.727101E-07
v -0.2402736 3.009999 -0.6999996
v -0.2402736 3.009999 2.823002E-07
v -0.2402735 3.531529 -0.2928415
v -0.2402736 3.523109 5.808384E-07
v -0.2402736 3.009999 -0.6999994
v -0.2402735 3.531529 -0.2928412
v -0.2402736 3.009999 5.775899E-07

vn 0.001170222 1.776357E-15 0.9999993
vn 0.001170222 1.776357E-15 0.9999993
vn 0.001170222 1.776357E-15 0.9999993
vn 0.001170222 1.776357E-15 0.9999993
vn -0.001170222 -1.776357E-15 -0.9999993
vn -0.001170222 -1.776357E-15 -0.9999993
vn -0.001170222 -1.776357E-15 -0.9999993
vn -0.001170222 -1.776357E-15 -0.9999993

vt 1 0.2247314
vt 0.75 0.05371094
vt 1 0.05371094
vt 0.9023438 0.2275391
vt 1 0.2247314
vt 0.75 0.05371094
vt 0.9023438 0.2275391
vt 1 0.05371094

g roof_porch_endL_10716_40
usemtl roof_porch_endL_10716_40
usemap roof_porch_endL_10716_40
f 1/1/1 3/3/3 2/2/2
f 2/2/2 4/4/4 1/1/1
f 5/5/5 7/7/7 6/6/6
f 6/6/6 8/8/8 5/5/5
