#roof_garage_endL_1_8910_140.obj

v 2.774776E-06 3.747689 5.984857
v -0.4999967 3.052051 -0.523869
v 3.291797E-06 3.052051 -0.523868
v -0.4999971 3.747689 5.984863
v -0.4999966 2.953201 -0.5087424
v 2.858617E-06 3.648839 5.999983
v 3.375638E-06 2.953201 -0.5087414
v -0.4999971 3.648839 5.999982
v -0.4999966 2.953201 -0.5087424
v -0.4999971 3.747689 5.984863
v -0.4999971 3.648839 5.999982
v -0.4999967 3.052051 -0.523869
v -0.4999971 3.648839 5.999982
v 2.774776E-06 3.747689 5.984857
v 2.858617E-06 3.648839 5.999983
v -0.4999971 3.747689 5.984863
v 3.375638E-06 2.953201 -0.5087414
v -0.4999967 3.052051 -0.523869
v -0.4999966 2.953201 -0.5087424
v 3.291797E-06 3.052051 -0.523868

vn 0.002301069 0.9943365 -0.1062476
vn 0.002301069 0.9943365 -0.1062476
vn 0.002301069 0.9943365 -0.1062476
vn 0.002301676 0.9943365 -0.1062476
vn -0.002301069 -0.9943365 0.1062476
vn -0.002301069 -0.9943365 0.1062476
vn -0.002301069 -0.9943365 0.1062476
vn -0.002301676 -0.9943365 0.1062476
vn -0.9997656 -1.776356E-15 -0.02165278
vn -0.9997656 -1.776356E-15 -0.02165278
vn -0.9997656 -1.776356E-15 -0.02165278
vn -0.9997656 -1.776356E-15 -0.02165278
vn -0.02140353 0.1512204 0.9882684
vn -0.02140353 0.1512204 0.9882684
vn -0.02140353 0.1512205 0.9882684
vn -0.02140353 0.1512205 0.9882684
vn 0.02140353 -0.1512204 -0.9882684
vn 0.02140353 -0.1512204 -0.9882684
vn 0.02140353 -0.1512205 -0.9882684
vn 0.02140353 -0.1512205 -0.9882684

vt 1.192093E-07 2.195313
vt 0.166626 0
vt 0 0
vt 0.166626 2.195313
vt 0.166626 0
vt 1.192093E-07 2.195313
vt 0 0
vt 0.166626 2.195313
vt 0.166626 0
vt 0.166626 2.195313
vt 0.166626 2.195313
vt 0.166626 0
vt 0.166626 2.195313
vt 1.192093E-07 2.195313
vt 1.192093E-07 2.195313
vt 0.166626 2.195313
vt 0 0
vt 0.166626 0
vt 0.166626 0
vt 0 0

g roof_garage_endL_1_8910_140
usemtl roof_garage_endL_1_8910_140
usemap roof_garage_endL_1_8910_140
f 1/1/1 3/3/3 2/2/2
f 2/2/2 4/4/4 1/1/1
f 5/5/5 7/7/7 6/6/6
f 6/6/6 8/8/8 5/5/5
f 9/9/9 11/11/11 10/10/10
f 10/10/10 12/12/12 9/9/9
f 13/13/13 15/15/15 14/14/14
f 14/14/14 16/16/16 13/13/13
f 17/17/17 19/19/19 18/18/18
f 18/18/18 20/20/20 17/17/17
