#roof_porch_3m_1_10527_74.obj

v -3.577813 2.944893 -5.173325E-06
v -0.1999999 3.625117 2.999992
v -3.577813 2.944892 2.999995
v -0.1999994 3.625117 -7.93956E-06
v -0.1999999 3.523109 2.999992
v -3.558086 2.846861 -7.03162E-06
v -3.558086 2.84686 2.999993
v -0.1999994 3.52311 -7.93956E-06
v -0.1999999 3.523109 2.999992
v -0.1999994 3.625117 -7.93956E-06
v -0.1999994 3.52311 -7.93956E-06
v -0.1999999 3.625117 2.999992
v -3.558086 2.846861 -7.03162E-06
v -3.577813 2.944892 2.999995
v -3.558086 2.84686 2.999993
v -3.577813 2.944893 -5.173325E-06

vn -0.004994948 0.9803193 0.1973538
vn -0.004994957 0.9803193 0.1973537
vn -0.004994904 0.9803192 0.1973538
vn -0.004995101 0.9803193 0.1973537
vn 0.004994934 -0.9803194 -0.1973528
vn 0.004994926 -0.9803194 -0.1973529
vn 0.004994881 -0.9803194 -0.1973529
vn 0.004995078 -0.9803194 -0.1973528
vn 0.0253023 0 -0.9996798
vn 0.0253023 0 -0.9996798
vn 0.0253023 0 -0.9996798
vn 0.0253023 0 -0.9996798
vn -0.02480508 -0.1972715 0.980035
vn -0.02480508 -0.1972715 0.980035
vn -0.02480508 -0.1972715 0.980035
vn -0.02480508 -0.1972715 0.980035

vt 0 0
vt 1 1.148438
vt 1 -7.152557E-07
vt 3.576279E-07 1.148438
vt 1 1.148438
vt 0 0
vt 1 -7.152557E-07
vt 3.576279E-07 1.148438
vt 1 1.148438
vt 3.576279E-07 1.148438
vt 3.576279E-07 1.148438
vt 1 1.148438
vt 0 0
vt 1 -7.152557E-07
vt 1 -7.152557E-07
vt 0 0

g roof_porch_3m_1_10527_74
usemtl roof_porch_3m_1_10527_74
usemap roof_porch_3m_1_10527_74
f 1/1/1 3/3/3 2/2/2
f 2/2/2 4/4/4 1/1/1
f 5/5/5 7/7/7 6/6/6
f 6/6/6 8/8/8 5/5/5
f 9/9/9 11/11/11 10/10/10
f 10/10/10 12/12/12 9/9/9
f 13/13/13 15/15/15 14/14/14
f 14/14/14 16/16/16 13/13/13
