#roof01_9x3m_A_2_9062_120.obj

v 3.000012 2.43496 -0.5130835
v 1.049286E-05 5.39999 4.499991
v 1.265502E-05 2.43496 -0.5130881
v 2.999738 5.399986 4.499993
v 3.000013 2.348887 -0.4621748
v 1.049286E-05 5.283829 4.499991
v 3.000012 5.283828 4.499989
v 1.233616E-05 2.348887 -0.4621795
v 3.000013 2.348887 -0.4621748
v 1.265502E-05 2.43496 -0.5130881
v 1.233616E-05 2.348887 -0.4621795
v 3.000012 2.43496 -0.5130835
v 1.049286E-05 5.39999 4.499991
v 3.000011 2.434958 9.513068
v 9.920117E-06 2.434958 9.51307
v 2.999738 5.399986 4.499993
v 3.00001 2.348887 9.462153
v 1.049286E-05 5.283829 4.499991
v 1.028804E-05 2.348887 9.462155
v 3.000012 5.283828 4.499989
v 9.920117E-06 2.434958 9.51307
v 3.00001 2.348887 9.462153
v 1.028804E-05 2.348887 9.462155
v 3.000011 2.434958 9.513068

vn -0.003928981 0.8607187 -0.509065
vn -0.003928981 0.8607187 -0.509065
vn -0.003928981 0.8607187 -0.509065
vn -0.003927096 0.8607192 -0.5090643
vn 0.003928827 -0.8607172 0.5090677
vn 0.003928827 -0.8607172 0.5090677
vn 0.003928827 -0.8607172 0.5090677
vn 0.003929002 -0.8607171 0.5090677
vn -0.006642853 -0.5090819 -0.8606924
vn -0.006642853 -0.5090819 -0.8606924
vn -0.006642853 -0.5090819 -0.8606924
vn -0.006642853 -0.5090819 -0.8606924
vn 0.003928979 0.8607189 0.5090647
vn 0.003928979 0.8607189 0.5090647
vn 0.00392898 0.8607189 0.5090649
vn 0.003929201 0.8607189 0.5090647
vn -0.003929006 -0.8607169 -0.5090683
vn -0.003929006 -0.8607168 -0.5090683
vn -0.003929006 -0.8607169 -0.5090683
vn -0.00392918 -0.860717 -0.5090681
vn 0.006642523 -0.5091544 0.8606496
vn 0.006642523 -0.5091544 0.8606496
vn 0.006642523 -0.5091544 0.8606496
vn 0.006642523 -0.5091544 0.8606496

vt 0 0
vt 1 1.74707
vt 1 5.960464E-08
vt -5.960464E-06 1.74707
vt 0 0
vt 1 1.729492
vt -5.90086E-06 1.729492
vt 1 5.960464E-08
vt 0 0
vt 1 5.960464E-08
vt 1 5.960464E-08
vt 0 0
vt 1 1.74707
vt 0 0
vt 1 5.960464E-08
vt -5.960464E-06 1.74707
vt 0 0
vt 1 1.729492
vt 1 5.960464E-08
vt -5.90086E-06 1.729492
vt 1 5.960464E-08
vt 0 0
vt 1 5.960464E-08
vt 0 0

g roof01_9x3m_A_2_9062_120
usemtl roof01_9x3m_A_2_9062_120
usemap roof01_9x3m_A_2_9062_120
f 1/1/1 3/3/3 2/2/2
f 2/2/2 4/4/4 1/1/1
f 5/5/5 7/7/7 6/6/6
f 6/6/6 8/8/8 5/5/5
f 9/9/9 11/11/11 10/10/10
f 10/10/10 12/12/12 9/9/9
f 13/13/13 15/15/15 14/14/14
f 14/14/14 16/16/16 13/13/13
f 17/17/17 19/19/19 18/18/18
f 18/18/18 20/20/20 17/17/17
f 21/21/21 23/23/23 22/22/22
f 22/22/22 24/24/24 21/21/21
