#roof02_edge_3_10954_319.obj

v -2.99997 3 -3.000037
v 3.189286E-05 3 -3.589973E-05
v 3.228822E-05 3 -3.000036
v -2.999967 3 -3.514762E-05
v 3.189286E-05 3.1 -3.589973E-05
v -2.99997 3.1 -3.000037
v 3.228822E-05 3.1 -3.000036
v -2.999967 3.1 -3.514762E-05
v 3.189286E-05 3.1 -3.589973E-05
v -2.999967 3 -3.514762E-05
v -2.999967 3.1 -3.514762E-05
v 3.189286E-05 3 -3.589973E-05
v -2.999967 3.1 -3.514762E-05
v -2.99997 3 -3.000037
v -2.99997 3.1 -3.000037
v -2.999967 3 -3.514762E-05
v 3.228822E-05 3.1 -3.000036
v 3.189286E-05 3 -3.589973E-05
v 3.189286E-05 3.1 -3.589973E-05
v 3.228822E-05 3 -3.000036

vn 1.016954E-07 -0.9999989 -4.378079E-08
vn 1.016954E-07 -0.9999989 -4.378079E-08
vn 1.016954E-07 -0.9999989 -4.378079E-08
vn 1.016954E-07 -0.9999989 -4.378079E-08
vn -1.016954E-07 0.9999989 4.378079E-08
vn -1.016954E-07 0.9999989 4.378079E-08
vn -1.016954E-07 0.9999989 4.378079E-08
vn -1.016954E-07 0.9999989 4.378079E-08
vn -0.9999998 -1.432504E-07 0.0006822775
vn -0.9999998 -1.432504E-07 0.0006822775
vn -0.9999998 -1.432504E-07 0.0006822775
vn -0.9999998 -1.432504E-07 0.0006822775
vn -0.0006825282 4.371135E-08 -0.9999998
vn -0.0006825282 4.371135E-08 -0.9999998
vn -0.0006825282 4.371135E-08 -0.9999998
vn -0.0006825282 4.371135E-08 -0.9999998
vn 0.0006825282 -4.371135E-08 0.9999998
vn 0.0006825282 -4.371135E-08 0.9999998
vn 0.0006825282 -4.371135E-08 0.9999998
vn 0.0006825282 -4.371135E-08 0.9999998

vt 1 1
vt 0 2.384186E-07
vt 0 1
vt 1 2.384186E-07
vt 0 2.384186E-07
vt 1 1
vt 0 1
vt 1 2.384186E-07
vt 0 -0.1833496
vt 1 -0.1500244
vt 1 -0.1833496
vt 0 -0.1500244
vt 0 -0.25
vt 1 -0.2166748
vt 1 -0.25
vt 0 -0.2166748
vt 0 -0.2166748
vt 1 -0.1833496
vt 1 -0.2166748
vt 0 -0.1833496

g roof02_edge_3_10954_319
usemtl roof02_edge_3_10954_319
usemap roof02_edge_3_10954_319
f 1/1/1 3/3/3 2/2/2
f 2/2/2 4/4/4 1/1/1
f 5/5/5 7/7/7 6/6/6
f 6/6/6 8/8/8 5/5/5
f 9/9/9 11/11/11 10/10/10
f 10/10/10 12/12/12 9/9/9
f 13/13/13 15/15/15 14/14/14
f 14/14/14 16/16/16 13/13/13
f 17/17/17 19/19/19 18/18/18
f 18/18/18 20/20/20 17/17/17
