#roof02_corner_6_9247_99.obj

v 2.32601E-06 3 -3.000003
v -2.999998 3 -1.680203E-06
v 1.982067E-06 3 -1.495216E-06
v -2.999998 3 -3.000002
v -2.999998 3.099999 -1.680203E-06
v 2.32601E-06 3.1 -3.000003
v 1.982067E-06 3.099999 -1.495216E-06
v -2.999998 3.1 -3.000002
v 2.32601E-06 3.1 -3.000003
v 1.982067E-06 3 -1.495216E-06
v 1.982067E-06 3.099999 -1.495216E-06
v 2.32601E-06 3 -3.000003
v 1.982067E-06 3.099999 -1.495216E-06
v -2.999998 3 -1.680203E-06
v -2.999998 3.099999 -1.680203E-06
v 1.982067E-06 3 -1.495216E-06

vn -4.370976E-08 -0.9999992 -3.779113E-10
vn -4.370976E-08 -0.9999992 -3.779113E-10
vn -4.370976E-08 -0.9999992 -3.779113E-10
vn -4.370976E-08 -0.9999992 -3.779113E-10
vn 4.370976E-08 0.9999992 3.779113E-10
vn 4.370976E-08 0.9999992 3.779113E-10
vn 4.370976E-08 0.9999992 3.779113E-10
vn 4.370976E-08 0.9999992 3.779113E-10
vn 0.008644748 3.055638E-14 -0.9999626
vn 0.008644748 3.055638E-14 -0.9999626
vn 0.008644748 3.055638E-14 -0.9999626
vn 0.008644748 3.055638E-14 -0.9999626
vn 0.9999627 -4.371136E-08 0.008644952
vn 0.9999627 -4.371136E-08 0.008644952
vn 0.9999627 -4.371136E-08 0.008644952
vn 0.9999627 -4.371136E-08 0.008644952

vt 1 4.768372E-07
vt 0 1
vt 1 1
vt 5.960464E-08 2.384186E-07
vt 0 1
vt 1 4.768372E-07
vt 1 1
vt 5.960464E-08 2.384186E-07
vt 1 4.768372E-07
vt 1 1
vt 1 1
vt 1 4.768372E-07
vt 1 1
vt 0 1
vt 0 1
vt 1 1

g roof02_corner_6_9247_99
usemtl roof02_corner_6_9247_99
usemap roof02_corner_6_9247_99
f 1/1/1 3/3/3 2/2/2
f 2/2/2 4/4/4 1/1/1
f 5/5/5 7/7/7 6/6/6
f 6/6/6 8/8/8 5/5/5
f 9/9/9 11/11/11 10/10/10
f 10/10/10 12/12/12 9/9/9
f 13/13/13 15/15/15 14/14/14
f 14/14/14 16/16/16 13/13/13
