#roof01_3m_endL_A_11073_734.obj

v -0.1999895 2.499999 3.203111
v -0.1999906 2.499999 2.999985
v -0.1999906 2.619266 2.999992
v -0.1999895 3.5 1.49999
v -0.1999886 2.5 2.129728E-07
v -0.1999886 2.619266 2.079132E-07
v -0.1999896 2.5 -0.2031257

vn -0.9999703 -8.881781E-15 0.007717606
vn -0.9999703 -8.881781E-15 0.007717606
vn -0.9999703 -8.881781E-15 0.007717606
vn -0.9999703 -8.881781E-15 0.007717606
vn -0.9999703 -8.881781E-15 0.007717606
vn -0.9999703 -8.881781E-15 0.007717606
vn -0.9999703 -8.881781E-15 0.007717606

vt 1.067383 -5.960464E-08
vt 1 -5.960464E-08
vt 1 0.0397644
vt 0.5 0.333252
vt 2.920628E-06 1.788139E-07
vt 2.920628E-06 0.0397644
vt -0.06768799 1.192093E-07

g roof01_3m_endL_A_11073_734
usemtl roof01_3m_endL_A_11073_734
usemap roof01_3m_endL_A_11073_734
f 1/1/1 3/3/3 2/2/2
f 3/3/3 4/4/4 2/2/2
f 4/4/4 5/5/5 2/2/2
f 4/4/4 6/6/6 5/5/5
f 6/6/6 7/7/7 5/5/5
