#roof01_9m_endR_A_10706_893.obj

v 0.2000096 5.299993 4.499949
v 0.2000081 2.499999 8.999943
v 0.2000081 2.62093 8.999949
v 0.2000112 2.620929 -5.741949E-05
v 0.2000111 2.5 -5.105673E-05
v 0.2000075 2.499999 9.203074
v 0.2000085 2.5 -0.203177

vn 0.9999703 8.881781E-15 -0.007717606
vn 0.9999703 8.881781E-15 -0.007717606
vn 0.9999703 8.881781E-15 -0.007717606
vn 0.9999703 8.881781E-15 -0.007717606
vn 0.9999703 8.881781E-15 -0.007717606
vn 0.9999703 8.881781E-15 -0.007717606
vn 0.9999703 8.881781E-15 -0.007717606

vt -0.4992676 0.9331055
vt -2 0
vt -2 0.0402832
vt 1 0.0402832
vt 1 -4.768372E-07
vt -2.068359 0
vt 1.067383 -4.768372E-07

g roof01_9m_endR_A_10706_893
usemtl roof01_9m_endR_A_10706_893
usemap roof01_9m_endR_A_10706_893
f 1/1/1 3/3/3 2/2/2
f 4/4/4 1/1/1 2/2/2
f 5/5/5 4/4/4 2/2/2
f 3/3/3 6/6/6 2/2/2
f 5/5/5 7/7/7 4/4/4
