#roof_garage_3m_10544_119.obj

v 4.452848E-06 3.74769 5.984855
v 3.000005 3.052051 -0.5238707
v 3.000004 3.747689 5.984861
v 4.96987E-06 3.052051 -0.5238698
v 3.000005 2.953201 -0.5087441
v 4.426502E-06 3.64884 5.999981
v 3.000005 3.648839 5.99998
v 4.943523E-06 2.953201 -0.5087432
v 3.000005 2.953201 -0.5087441
v 4.96987E-06 3.052051 -0.5238698
v 4.943523E-06 2.953201 -0.5087432
v 3.000005 3.052051 -0.5238707
v 4.426502E-06 3.64884 5.999981
v 3.000004 3.747689 5.984861
v 3.000005 3.648839 5.99998
v 4.452848E-06 3.74769 5.984855

vn 0.002301474 0.9943365 -0.1062476
vn 0.002301473 0.9943365 -0.1062476
vn 0.002301473 0.9943365 -0.1062476
vn 0.002301073 0.9943365 -0.1062478
vn -0.002301473 -0.9943365 0.1062476
vn -0.002301474 -0.9943365 0.1062476
vn -0.002301473 -0.9943365 0.1062476
vn -0.002301073 -0.9943365 0.1062478
vn 0.02140353 -0.1512205 -0.9882684
vn 0.02140353 -0.1512205 -0.9882684
vn 0.02140353 -0.1512204 -0.9882684
vn 0.02140353 -0.1512204 -0.9882684
vn -0.02140353 0.1512205 0.9882684
vn -0.02140353 0.1512205 0.9882684
vn -0.02140353 0.1512205 0.9882684
vn -0.02140353 0.1512205 0.9882684

vt 1 2.195313
vt 0 0
vt 4.172325E-07 2.195313
vt 1 -5.960464E-08
vt 0 0
vt 1 2.195313
vt 4.172325E-07 2.195313
vt 1 -5.960464E-08
vt 0 0
vt 1 -5.960464E-08
vt 1 -5.960464E-08
vt 0 0
vt 1 2.195313
vt 4.172325E-07 2.195313
vt 4.172325E-07 2.195313
vt 1 2.195313

g roof_garage_3m_10544_119
usemtl roof_garage_3m_10544_119
usemap roof_garage_3m_10544_119
f 1/1/1 3/3/3 2/2/2
f 2/2/2 4/4/4 1/1/1
f 5/5/5 7/7/7 6/6/6
f 6/6/6 8/8/8 5/5/5
f 9/9/9 11/11/11 10/10/10
f 10/10/10 12/12/12 9/9/9
f 13/13/13 15/15/15 14/14/14
f 14/14/14 16/16/16 13/13/13
