#roof_porch_endR_11220_51.obj

v -0.2000005 3.625116 0.330577
v -3.577813 2.944893 4.192774E-07
v -0.2000006 3.625116 8.030608E-07
v -3.577812 2.944893 0.8305767
v -0.2000005 3.625116 0.330577
v -0.2000006 2.944893 0.8305771
v -3.577812 2.944893 0.8305767
v -3.558086 2.846861 5.031163E-07
v -0.2000004 3.534075 0.2911434
v -0.2000006 3.527085 8.073459E-07
v -3.560001 2.847286 0.7500005
v -0.2000008 2.885666 0.7500055
v -0.2000004 3.534075 0.2911434
v -3.560001 2.847286 0.7500005
v -3.558086 2.846861 5.031163E-07
v -3.577812 2.944893 0.8305767
v -3.560001 2.847286 0.7500005
v -3.577813 2.944893 4.192774E-07
v -0.2000004 3.534075 0.2911434
v -0.2000006 3.625116 8.030608E-07
v -0.2000006 3.527085 8.073459E-07
v -0.2000005 3.625116 0.330577
v -3.560001 2.847286 0.7500005
v -0.2000006 2.944893 0.8305771
v -0.2000008 2.885666 0.7500055
v -3.577812 2.944893 0.8305767
v -0.2000008 2.885666 0.7500055
v -0.2000005 3.625116 0.330577
v -0.2000004 3.534075 0.2911434
v -0.2000006 2.944893 0.8305771

vn -0.0002318932 0.9803197 -0.1974167
vn -0.0002314577 0.9803197 -0.1974166
vn -0.0002319694 0.9803197 -0.1974167
vn -0.0002314245 0.9803197 -0.1974166
vn -0.8057437 0.5922638 0.0009428998
vn -0.8057437 0.5922638 0.0009428998
vn -0.8057437 0.5922638 0.0009428998
vn -0.002041381 -0.979732 0.2003018
vn -0.02041162 -0.9798372 0.1987523
vn -0.02328921 -0.9798235 0.1985033
vn -0.0008313993 -0.9797135 0.2004015
vn 0.8162671 -0.577647 0.005644346
vn 0.8162672 -0.577647 0.005644345
vn 0.8162672 -0.577647 0.005644346
vn -0.000965058 -0.1957858 -0.9806463
vn 0.0009349553 -0.1802562 -0.9836193
vn 0.001259374 -0.1775999 -0.984102
vn -0.001147217 -0.1972716 -0.9803482
vn 0.001170222 1.776357E-15 0.9999993
vn 0.001170222 1.776357E-15 0.9999993
vn 0.001170222 1.776357E-15 0.9999993
vn 0.001170222 1.776357E-15 0.9999993
vn -0.7684523 -0.6399062 0.001060091
vn -0.596952 -0.8022185 0.009687036
vn -0.5922425 -0.8056991 0.009895569
vn -0.7711776 -0.6366194 0.0009024498
vn 0.001170222 1.776357E-15 0.9999993
vn 0.001170222 1.776357E-15 0.9999993
vn 0.001170222 1.776357E-15 0.9999993
vn 0.001170222 1.776357E-15 0.9999993

vt 0.1101685 1.148438
vt 0 0
vt 3.576279E-07 1.148438
vt 0.2768555 -1.788139E-07
vt -0.25 0.2900391
vt -0.25 1.192093E-07
vt -1.401367 2.980232E-07
vt 0 0
vt 0.1101685 1.148438
vt 3.576279E-07 1.148438
vt 0.2768555 -1.788139E-07
vt -0.25 0
vt -0.25 0.2900391
vt -1.401367 4.172325E-07
vt 0 -1.788139E-07
vt 0.2768555 -1.788139E-07
vt 0.25 -1.788139E-07
vt 0 -1.788139E-07
vt 0.1101685 1.148438
vt 3.576279E-07 1.148438
vt 3.576279E-07 1.148438
vt 0.1101685 1.148438
vt -1.395508 0
vt -0.25 0
vt -0.25 0
vt -1.401367 0
vt -0.25 0
vt -0.25 0.2900391
vt -0.25 0.2900391
vt -0.25 0

g roof_porch_endR_11220_51
usemtl roof_porch_endR_11220_51
usemap roof_porch_endR_11220_51
f 1/1/1 3/3/3 2/2/2
f 2/2/2 4/4/4 1/1/1
f 5/5/5 7/7/7 6/6/6
f 8/8/8 10/10/10 9/9/9
f 9/9/9 11/11/11 8/8/8
f 12/12/12 14/14/14 13/13/13
f 15/15/15 17/17/17 16/16/16
f 16/16/16 18/18/18 15/15/15
f 19/19/19 21/21/21 20/20/20
f 20/20/20 22/22/22 19/19/19
f 23/23/23 25/25/25 24/24/24
f 24/24/24 26/26/26 23/23/23
f 27/27/27 29/29/29 28/28/28
f 28/28/28 30/30/30 27/27/27
