#roof01_6m_endR_A_10112_151.obj

v 7.074092E-06 4.499996 2.999995
v 0.5000088 2.43496 -0.5130746
v 0.5000082 4.499995 2.999997
v 7.709978E-06 2.43496 -0.5130773
v 0.5000082 2.34875 -0.4623986
v 8.276782E-06 4.384007 3.000002
v 0.5000077 4.384007 3.000002
v 8.633703E-06 2.34875 -0.4624014
v 0.5000082 2.34875 -0.4623986
v 7.709978E-06 2.43496 -0.5130773
v 8.633703E-06 2.34875 -0.4624014
v 0.5000088 2.43496 -0.5130746
v 0.5000088 2.43496 -0.5130746
v 0.5000077 4.384007 3.000002
v 0.5000082 4.499995 2.999997
v 0.5000088 2.43496 -0.5130746
v 0.5000082 2.34875 -0.4623986
v 0.5000064 2.434959 6.513075
v 0.5000069 2.34875 6.462404
v 0.5000064 2.434959 6.513075
v 7.074092E-06 4.499996 2.999995
v 0.5000082 4.499995 2.999997
v 6.900619E-06 2.434959 6.513076
v 0.5000069 2.34875 6.462404
v 8.276782E-06 4.384007 3.000002
v 7.416741E-06 2.34875 6.462401
v 0.5000077 4.384007 3.000002
v 6.900619E-06 2.434959 6.513076
v 0.5000069 2.34875 6.462404
v 7.416741E-06 2.34875 6.462401
v 0.5000064 2.434959 6.513075
v 0.5000077 4.384007 3.000002
v 0.5000064 2.434959 6.513075
v 0.5000082 4.499995 2.999997

vn -0.4889084 0.8723345 -0.001155812
vn -0.4889084 0.8723345 -0.001155812
vn -0.4889084 0.8723345 -0.001155812
vn -0.4889086 0.8723344 -0.001153709
vn 0.4889093 -0.872334 0.001154239
vn 0.4889094 -0.872334 0.001154239
vn 0.4889094 -0.872334 0.001154239
vn 0.4889095 -0.8723339 0.001153713
vn -0.8723292 -0.4888981 -0.004565904
vn -0.8723292 -0.4888981 -0.004565904
vn -0.8723292 -0.488898 -0.004565904
vn -0.8723292 -0.488898 -0.004565904
vn 0.004546791 0.001225896 -0.9999889
vn 0.004546791 0.001225896 -0.9999889
vn 0.004546791 0.001225896 -0.9999889
vn 0.004546791 0.001225896 -0.9999889
vn 0.004546791 0.001225896 -0.9999889
vn 0.004546791 0.001225896 -0.9999889
vn 0.004546791 0.001225896 -0.9999889
vn 0.5243676 0.8514853 0.003426086
vn 0.5243676 0.8514853 0.003426086
vn 0.5243676 0.8514853 0.003426086
vn 0.5243677 0.8514852 0.003428191
vn -0.5243697 -0.851484 -0.003428199
vn -0.5243697 -0.851484 -0.003428199
vn -0.5243697 -0.851484 -0.003428199
vn -0.5243697 -0.8514841 -0.003427672
vn 0.8514856 -0.5243685 0.003228954
vn 0.8514856 -0.5243685 0.003228954
vn 0.8514856 -0.5243684 0.003228954
vn 0.8514856 -0.5243684 0.003228954
vn 0.004546791 0.001225896 -0.9999889
vn 0.004546791 0.001225896 -0.9999889
vn 0.004546791 0.001225896 -0.9999889

vt 1 1.358398
vt 0.8334961 0
vt 0.8334961 1.358398
vt 1 0
vt 0.8334961 0
vt 1 1.338867
vt 0.8334961 1.338867
vt 1 0
vt 0.8334961 0
vt 1 0
vt 1 0
vt 0.8334961 0
vt 0.8334961 0
vt 0.8334961 1.338867
vt 0.8334961 1.358398
vt 0.8334961 0
vt 0.8334961 0
vt 0.8334961 0
vt 0.8334961 0
vt 0.8334961 0
vt 1 1.358398
vt 0.8334961 1.358398
vt 1 0
vt 0.8334961 0
vt 1 1.338867
vt 1 0
vt 0.8334961 1.338867
vt 1 0
vt 0.8334961 0
vt 1 0
vt 0.8334961 0
vt 0.8334961 1.338867
vt 0.8334961 0
vt 0.8334961 1.358398

g roof01_6m_endR_A_10112_151
usemtl roof01_6m_endR_A_10112_151
usemap roof01_6m_endR_A_10112_151
f 1/1/1 3/3/3 2/2/2
f 2/2/2 4/4/4 1/1/1
f 5/5/5 7/7/7 6/6/6
f 6/6/6 8/8/8 5/5/5
f 9/9/9 11/11/11 10/10/10
f 10/10/10 12/12/12 9/9/9
f 13/13/13 15/15/15 14/14/14
f 14/14/14 17/17/17 16/16/16
f 18/18/18 19/19/19 14/14/14
f 20/20/20 22/22/22 21/21/21
f 21/21/21 23/23/23 20/20/20
f 24/24/24 26/26/26 25/25/25
f 25/25/25 27/27/27 24/24/24
f 28/28/28 30/30/30 29/29/29
f 29/29/29 31/31/31 28/28/28
f 32/32/32 34/34/34 33/33/33
