#roof02_corner_6_9725_66.obj

v -2.999959 3 -3.000038
v -3.299957 3 -3.745709E-05
v -2.999958 3 -3.644779E-05
v -3.299957 3 -3.300038
v -2.999959 3 -3.000038
v 4.420003E-05 3 -3.300038
v -3.299957 3 -3.300038
v 4.325436E-05 3 -3.000039
v -3.299957 3.1 -3.745709E-05
v -2.999959 3.1 -3.000038
v -2.999958 3.1 -3.644779E-05
v -3.299957 3.1 -3.300038
v 4.420003E-05 3.1 -3.300038
v -2.999959 3.1 -3.000038
v -3.299957 3.1 -3.300038
v 4.325436E-05 3.1 -3.000039
v -3.299957 3.1 -3.745709E-05
v -3.299957 3 -3.300038
v -3.299957 3.1 -3.300038
v -3.299957 3 -3.745709E-05
v -2.999958 3.1 -3.644779E-05
v -3.299957 3 -3.745709E-05
v -3.299957 3.1 -3.745709E-05
v -2.999958 3 -3.644779E-05
v 4.420003E-05 3.1 -3.300038
v 4.325436E-05 3 -3.000039
v 4.325436E-05 3.1 -3.000039
v 4.420003E-05 3 -3.300038
v -3.299957 3.1 -3.300038
v 4.420003E-05 3 -3.300038
v 4.420003E-05 3.1 -3.300038
v -3.299957 3 -3.300038

vn -2.979794E-11 -0.9999988 -4.371139E-08
vn -2.979794E-11 -0.9999988 -4.371139E-08
vn -2.979794E-11 -0.9999988 -4.371139E-08
vn -2.979794E-11 -0.9999988 -4.371139E-08
vn -2.979794E-11 -0.9999988 -4.371139E-08
vn -2.979794E-11 -0.9999988 -4.371139E-08
vn -2.979794E-11 -0.9999988 -4.371139E-08
vn -2.979794E-11 -0.9999988 -4.371139E-08
vn 2.979794E-11 0.9999988 4.371139E-08
vn 2.979794E-11 0.9999988 4.371139E-08
vn 2.979794E-11 0.9999988 4.371139E-08
vn 2.979794E-11 0.9999988 4.371139E-08
vn 2.979794E-11 0.9999988 4.371139E-08
vn 2.979794E-11 0.9999988 4.371139E-08
vn 2.979794E-11 0.9999988 4.371139E-08
vn 2.979794E-11 0.9999988 4.371139E-08
vn -0.0006808013 4.371136E-08 -0.9999998
vn -0.0006808013 4.371136E-08 -0.9999998
vn -0.0006808013 4.371136E-08 -0.9999998
vn -0.0006808013 4.371136E-08 -0.9999998
vn -0.9999998 3.800491E-14 0.0006805506
vn -0.9999998 3.800491E-14 0.0006805506
vn -0.9999998 3.800491E-14 0.0006805506
vn -0.9999998 3.800491E-14 0.0006805506
vn 0.0006808013 -4.371136E-08 0.9999998
vn 0.0006808013 -4.371136E-08 0.9999998
vn 0.0006808013 -4.371136E-08 0.9999998
vn 0.0006808013 -4.371136E-08 0.9999998
vn 0.9999998 -3.800491E-14 -0.0006805506
vn 0.9999998 -3.800491E-14 -0.0006805506
vn 0.9999998 -3.800491E-14 -0.0006805506
vn 0.9999998 -3.800491E-14 -0.0006805506

vt 0 -0.5
vt 1 -0.3876953
vt 1 -0.5
vt -0.1122437 -0.3876953
vt 4.768372E-07 -0.2380371
vt 1 -0.3503418
vt -0.1122437 -0.3503418
vt 1 -0.2380371
vt 1 -0.3503418
vt 0 -0.2380371
vt 1 -0.2380371
vt -0.1122437 -0.3503418
vt 1 -0.3876953
vt 2.980232E-07 -0.5
vt -0.1122437 -0.3876953
vt 1 -0.5
vt 1 -0.3503418
vt -0.1122437 -0.3876953
vt -0.1122437 -0.3503418
vt 1 -0.3876953
vt 1 -0.2380371
vt 1.037109 -0.3503418
vt 1 -0.3503418
vt 1.037109 -0.2380371
vt 1.037109 -0.3503418
vt 1 -0.2380371
vt 1.037109 -0.2380371
vt 1 -0.3503418
vt -0.1122437 -0.3876953
vt 1 -0.3503418
vt 1 -0.3876953
vt -0.1122437 -0.3503418

g roof02_corner_6_9725_66
usemtl roof02_corner_6_9725_66
usemap roof02_corner_6_9725_66
f 1/1/1 3/3/3 2/2/2
f 2/2/2 4/4/4 1/1/1
f 5/5/5 7/7/7 6/6/6
f 6/6/6 8/8/8 5/5/5
f 9/9/9 11/11/11 10/10/10
f 10/10/10 12/12/12 9/9/9
f 13/13/13 15/15/15 14/14/14
f 14/14/14 16/16/16 13/13/13
f 17/17/17 19/19/19 18/18/18
f 18/18/18 20/20/20 17/17/17
f 21/21/21 23/23/23 22/22/22
f 22/22/22 24/24/24 21/21/21
f 25/25/25 27/27/27 26/26/26
f 26/26/26 28/28/28 25/25/25
f 29/29/29 31/31/31 30/30/30
f 30/30/30 32/32/32 29/29/29
