#roof_9589_53.obj

v 0.7425026 1.830848 1.647704
v 0.8088132 1.744203 1.010207
v 0.813198 1.760991 1.624648
v 0.7335579 1.809331 1.001475
v 0.7559595 1.777824 1.730635
v 0.6956111 1.758359 1.736665
v 0.6751431 1.686556 -0.199458
v 0.7626275 1.627125 -0.1788378
v 0.7401935 1.821162 -1.394003
v 0.8099884 1.751894 -1.400345
v 0.7462769 1.804682 -1.830964
v 0.8129525 1.730418 -1.877762
v 0.6621321 1.795171 -1.8998
v 4.26349E-06 1.831308 -1.797231
v 5.285061E-06 1.824642 -1.864163
v 0.7462769 1.804682 -1.830964
v 0.7401935 1.821162 -1.394003
v 6.16607E-06 1.863508 -1.350597
v 0.6751431 1.686556 -0.199458
v 4.640388E-06 1.865464 -0.07636698
v 0.7335579 1.809331 1.001475
v 6.547435E-06 1.865464 1.001475
v 0.7425026 1.830848 1.647704
v 4.602917E-06 1.865464 1.670086
v 0.6956111 1.758359 1.736665
v 5.201473E-06 1.755722 1.791309
v -0.6571806 1.78184 -1.89953
v -0.7398796 1.788472 -1.830632
v -0.7398791 1.824431 1.64181
v -0.7398795 1.82443 1.001475
v -0.6947896 1.755722 1.732059
v -0.7398796 1.824431 -0.1994583
v -0.7398796 1.820441 -1.394002
v 0.8129525 1.730418 -1.877762
v 0.6621321 1.795171 -1.8998
v 0.7074476 1.719412 -1.959208
v 0.7462769 1.804682 -1.830964
v 0.6415654 1.748436 -1.935231
v 5.285061E-06 1.824642 -1.864163
v 5.126498E-06 1.738733 -1.934751
v 0.640542 1.717923 -1.959153
v -0.6392387 1.738958 -1.935067
v -0.6571806 1.78184 -1.89953
v -0.7053602 1.710568 -1.959075
v -0.8088867 1.718045 -1.877549
v -0.7398796 1.788472 -1.830632
v -0.6392384 1.710545 -1.959042
v 0.6415654 1.748436 -1.935231
v 0.6129686 1.727555 -1.869671
v 0.640542 1.717923 -1.959153
v 5.126498E-06 1.738733 -1.934751
v 0.6129686 1.727555 -1.869671
v 0.6415654 1.748436 -1.935231
v 5.454387E-06 1.719829 -1.869537
v 5.201473E-06 1.755722 1.791309
v 0.7536634 1.599599 1.010207
v 0.760775 1.59673 -1.868685
v 0.7194877 1.760544 1.628732
v 0.6956111 1.758359 1.736665
v 0.7194877 1.760544 1.628732
v 0.8088132 1.744203 1.010207
v 0.7536634 1.599599 1.010207
v 0.813198 1.760991 1.624648
v -0.7398791 1.824431 1.64181
v -0.8131993 1.755722 1.010206
v -0.7398795 1.82443 1.001475
v -0.8110437 1.755152 1.617327
v -0.754747 1.77438 1.724833
v -0.6947896 1.755722 1.732059
v -0.7398796 1.824431 -0.1994583
v -0.8114218 1.755251 -0.1788388
v -0.7398796 1.820441 -1.394002
v -0.8095941 1.750885 -1.400346
v -0.7398796 1.788472 -1.830632
v -0.8088867 1.718045 -1.877549
v -0.6392387 1.738958 -1.935067
v -0.6392384 1.710545 -1.959042
v -0.6115384 1.719829 -1.869538
v 5.126498E-06 1.738733 -1.934751
v -0.6115384 1.719829 -1.869538
v 5.454387E-06 1.719829 -1.869537
v -0.6392387 1.738958 -1.935067
v 5.201473E-06 1.755722 1.791309
v -0.7574159 1.755722 1.010206
v -0.7574174 1.719747 -1.870457
v -0.7178948 1.755722 1.623339
v -0.8131993 1.755722 1.010206
v -0.8110437 1.755152 1.617327
v -0.6947896 1.755722 1.732059

vn 0.3585653 0.894175 -0.2681052
vn 0.1308938 0.7504053 -0.6478871
vn 0.2904741 0.6957721 -0.6569055
vn 0.06474282 0.9144332 -0.3995228
vn 0.5355576 0.8442746 0.01941538
vn 0.5878597 0.7803708 0.2131695
vn 0.1154592 0.9194226 -0.3759381
vn 0.1659023 0.8236583 -0.5422748
vn 0.1569404 0.9154981 -0.3704473
vn 0.2485579 0.7051913 -0.6640207
vn -0.09015243 0.8851953 -0.4563994
vn -0.1736608 0.7353365 -0.6550734
vn -0.4698158 0.8398904 -0.2717646
vn -0.0826128 0.9964058 -0.01866663
vn -0.437933 0.8897508 -0.1286728
vn -0.09015243 0.8851953 -0.4563994
vn 0.1569404 0.9154981 -0.3704473
vn -0.009100338 0.9997126 -0.0221304
vn 0.1154592 0.9194226 -0.3759381
vn 0.003975023 0.9965141 -0.08331729
vn 0.06474282 0.9144332 -0.3995228
vn -0.001804455 0.9999707 -0.007305392
vn 0.3585653 0.894175 -0.2681052
vn 0.3425221 0.9327977 0.1120949
vn 0.5878597 0.7803708 0.2131695
vn 0.6392404 0.7413374 0.2044246
vn -0.5203933 0.8535061 -0.02677089
vn -0.3340159 0.8897554 0.3110743
vn 0.138281 0.8953947 0.4232554
vn -0.1177688 0.9194287 0.3752062
vn 0.5816113 0.7963029 0.1662191
vn -0.1214936 0.9163067 0.3816013
vn -0.1544818 0.9141366 0.374817
vn -0.1736608 0.7353365 -0.6550734
vn -0.4698158 0.8398904 -0.2717646
vn -0.6014084 0.6808482 -0.4180346
vn -0.09015243 0.8851953 -0.4563994
vn -0.7595329 0.6118178 -0.2208808
vn -0.437933 0.8897508 -0.1286728
vn -0.7386003 0.6348347 -0.2268342
vn -0.7548518 0.6172333 -0.2218588
vn -0.7326005 0.6399238 -0.2319339
vn -0.5203933 0.8535061 -0.02677089
vn -0.701829 0.7119715 0.02306274
vn -0.4942985 0.7612048 0.4198037
vn -0.3340159 0.8897554 0.3110743
vn -0.729019 0.6448882 -0.2294556
vn -0.5684645 0.2735506 0.7758982
vn -0.5684645 0.2735506 0.7758982
vn -0.5684644 0.2735506 0.7758982
vn -0.2645184 -0.960225 -0.08942048
vn -0.1787735 -0.9701335 0.1639483
vn -0.2798907 -0.9545168 -0.1027482
vn -0.1275657 -0.9907355 -0.04656464
vn 0.0338789 -0.9981936 0.04959562
vn -0.0198819 -0.9832818 0.1809962
vn -0.1993344 -0.7488146 0.6320927
vn 0.1568153 -0.9876062 0.006396338
vn -0.0181662 -0.9998016 -0.008048356
vn 0.09354446 -0.9863824 -0.1352668
vn 0.400252 -0.4331174 -0.8075934
vn 0.4132554 -0.3526935 -0.8395397
vn 0.02780086 -0.9996095 0.002482237
vn 0.138281 0.8953947 0.4232554
vn -0.2049637 0.7287261 0.6534119
vn -0.1177688 0.9194287 0.3752062
vn -0.1285841 0.6984159 0.7040457
vn 0.4223374 0.8582819 0.2915167
vn 0.5816113 0.7963029 0.1662191
vn -0.1214936 0.9163067 0.3816013
vn -0.210076 0.7183498 0.6632048
vn -0.1544818 0.9141366 0.374817
vn -0.2385631 0.7093952 0.6632081
vn -0.3340159 0.8897554 0.3110743
vn -0.4942985 0.7612048 0.4198037
vn -0.02204123 0.2615703 -0.9649327
vn -0.02204123 0.2615703 -0.9649327
vn -0.02204123 0.2615703 -0.9649327
vn -0.2645184 -0.960225 -0.08942048
vn -0.09691802 -0.9948406 -0.02994937
vn -0.1275657 -0.9907355 -0.04656464
vn -0.2673472 -0.9599568 -0.08370507
vn 0.0338789 -0.9981936 0.04959562
vn 0.005962589 -0.9999149 0.01151835
vn 0.01205887 -0.9999209 0.003278894
vn -1.455404E-06 -0.999999 -1.057853E-06
vn 9.003401E-05 -0.9999989 -0.0005954179
vn 0.0009358125 -0.9999794 -0.006194109
vn -4.050788E-06 -0.999999 -2.59244E-06

vt 0.1478271 0.2211914
vt 0.2362061 0.2039795
vt 0.1516113 0.2032471
vt 0.2374268 0.2220459
vt 0.135498 0.2092285
vt 0.1281738 0.2178955
vt 0.4052734 0.2209473
vt 0.4023438 0.2028809
vt 0.5722656 0.2197266
vt 0.5727539 0.2017822
vt 0.6323242 0.2192383
vt 0.6391602 0.2012939
vt 0.6396484 0.2386475
vt 0.625 0.3305664
vt 0.6342773 0.3305664
vt 0.6298828 0.2270508
vt 0.5698242 0.2270508
vt 0.5634766 0.3305664
vt 0.402832 0.2270508
vt 0.3857422 0.3305664
vt 0.2351074 0.2270508
vt 0.2351074 0.3305664
vt 0.1456299 0.2272949
vt 0.1417236 0.3305664
vt 0.1293945 0.2331543
vt 0.1190796 0.3305664
vt 0.6396484 0.4226074
vt 0.6298828 0.434082
vt 0.1456299 0.4338379
vt 0.2351074 0.434082
vt 0.1293945 0.4279785
vt 0.402832 0.434082
vt 0.5698242 0.434082
vt 0.7006836 0.2059326
vt 0.7226563 0.2158203
vt 0.71875 0.2020264
vt 0.7080078 0.2199707
vt 0.7260742 0.208374
vt 0.8154297 0.2254639
vt 0.8154297 0.210083
vt 0.7275391 0.2030029
vt 0.9042969 0.208374
vt 0.9077148 0.2159424
vt 0.9116211 0.2020264
vt 0.9296875 0.2055664
vt 0.9228516 0.2196045
vt 0.902832 0.203125
vt 0.3447266 0.7329102
vt 0.3374023 0.7319336
vt 0.3461914 0.7299805
vt 0.3598633 0.7592773
vt 0.3537598 0.8115234
vt 0.3598633 0.8139648
vt 0.3537598 0.7592773
vt 0.04232788 0.7592773
vt 0.1088867 0.8237305
vt 0.3537598 0.8237305
vt 0.05670166 0.8203125
vt 0.04742432 0.8183594
vt 0.05670166 0.8203125
vt 0.1088867 0.8286133
vt 0.1088867 0.8237305
vt 0.05718994 0.8286133
vt 0.1478271 0.2211914
vt 0.2362061 0.2039795
vt 0.2374268 0.2220459
vt 0.1516113 0.2032471
vt 0.135498 0.2092285
vt 0.1281738 0.2178955
vt 0.4052734 0.2209473
vt 0.4023438 0.2028809
vt 0.5722656 0.2197266
vt 0.5727539 0.2017822
vt 0.6323242 0.2192383
vt 0.6391602 0.2012939
vt 0.3444824 0.7329102
vt 0.3461914 0.7299805
vt 0.3374023 0.7319336
vt 0.3598633 0.7592773
vt 0.3537598 0.8115234
vt 0.3537598 0.7592773
vt 0.3598633 0.8139648
vt 0.04232788 0.7592773
vt 0.1088867 0.8237305
vt 0.3537598 0.8237305
vt 0.05670166 0.8203125
vt 0.1088867 0.8286133
vt 0.05718994 0.8286133
vt 0.04742432 0.8183594

g roof_9589_53
usemtl roof_9589_53
usemap roof_9589_53
f 1/1/1 3/3/3 2/2/2
f 2/2/2 4/4/4 1/1/1
f 1/1/1 5/5/5 3/3/3
f 1/1/1 6/6/6 5/5/5
f 7/7/7 4/4/4 2/2/2
f 2/2/2 8/8/8 7/7/7
f 9/9/9 7/7/7 8/8/8
f 8/8/8 10/10/10 9/9/9
f 11/11/11 9/9/9 10/10/10
f 10/10/10 12/12/12 11/11/11
f 13/13/13 15/15/15 14/14/14
f 14/14/14 16/16/16 13/13/13
f 17/17/17 16/16/16 14/14/14
f 14/14/14 18/18/18 17/17/17
f 19/19/19 17/17/17 18/18/18
f 18/18/18 20/20/20 19/19/19
f 21/21/21 19/19/19 20/20/20
f 20/20/20 22/22/22 21/21/21
f 23/23/23 21/21/21 22/22/22
f 22/22/22 24/24/24 23/23/23
f 25/25/25 23/23/23 24/24/24
f 24/24/24 26/26/26 25/25/25
f 14/14/14 15/15/15 27/27/27
f 27/27/27 28/28/28 14/14/14
f 29/29/29 24/24/24 22/22/22
f 22/22/22 30/30/30 29/29/29
f 30/30/30 22/22/22 20/20/20
f 24/24/24 29/29/29 31/31/31
f 31/31/31 26/26/26 24/24/24
f 32/32/32 20/20/20 18/18/18
f 20/20/20 32/32/32 30/30/30
f 18/18/18 33/33/33 32/32/32
f 33/33/33 18/18/18 14/14/14
f 14/14/14 28/28/28 33/33/33
f 34/34/34 36/36/36 35/35/35
f 35/35/35 37/37/37 34/34/34
f 38/38/38 35/35/35 36/36/36
f 39/39/39 35/35/35 38/38/38
f 38/38/38 40/40/40 39/39/39
f 36/36/36 41/41/41 38/38/38
f 39/39/39 40/40/40 42/42/42
f 42/42/42 43/43/43 39/39/39
f 44/44/44 43/43/43 42/42/42
f 43/43/43 44/44/44 45/45/45
f 45/45/45 46/46/46 43/43/43
f 42/42/42 47/47/47 44/44/44
f 48/48/48 50/50/50 49/49/49
f 51/51/51 53/53/53 52/52/52
f 52/52/52 54/54/54 51/51/51
f 54/54/54 52/52/52 55/55/55
f 56/56/56 55/55/55 52/52/52
f 52/52/52 57/57/57 56/56/56
f 56/56/56 58/58/58 55/55/55
f 59/59/59 55/55/55 58/58/58
f 60/60/60 62/62/62 61/61/61
f 61/61/61 63/63/63 60/60/60
f 64/64/64 66/66/66 65/65/65
f 65/65/65 67/67/67 64/64/64
f 64/64/64 67/67/67 68/68/68
f 64/64/64 68/68/68 69/69/69
f 65/65/65 66/66/66 70/70/70
f 70/70/70 71/71/71 65/65/65
f 71/71/71 70/70/70 72/72/72
f 72/72/72 73/73/73 71/71/71
f 73/73/73 72/72/72 74/74/74
f 74/74/74 75/75/75 73/73/73
f 76/76/76 78/78/78 77/77/77
f 79/79/79 81/81/81 80/80/80
f 80/80/80 82/82/82 79/79/79
f 81/81/81 83/83/83 80/80/80
f 80/80/80 83/83/83 84/84/84
f 84/84/84 85/85/85 80/80/80
f 84/84/84 83/83/83 86/86/86
f 87/87/87 84/84/84 86/86/86
f 86/86/86 88/88/88 87/87/87
f 89/89/89 86/86/86 83/83/83
