#roof01_9m_endL_A_10317_748.obj

v -0.200001 2.499998 9.000007
v -0.2000022 5.299992 4.500005
v -0.2000013 2.620927 9.000017
v -0.2000029 2.62093 3.088129E-06
v -0.2000027 2.5 1.265835E-05
v -0.2000031 2.5 -0.2031219
v -0.2000013 2.499998 9.203132

vn -0.01765533 1.95399E-14 0.9998441
vn -0.01765533 1.95399E-14 0.9998441
vn -0.01765533 1.95399E-14 0.9998441
vn -0.01765533 1.95399E-14 0.9998441
vn -0.01765533 1.95399E-14 0.9998441
vn -0.01765533 1.95399E-14 0.9998441
vn -0.01765533 1.95399E-14 0.9998441

vt 1 0
vt -0.4992676 0.9331055
vt 1 0.0402832
vt -2 0.0402832
vt -2 0
vt -2.068359 0
vt 1.067383 0

g roof01_9m_endL_A_10317_748
usemtl roof01_9m_endL_A_10317_748
usemap roof01_9m_endL_A_10317_748
f 1/1/1 3/3/3 2/2/2
f 1/1/1 2/2/2 4/4/4
f 1/1/1 4/4/4 5/5/5
f 4/4/4 6/6/6 5/5/5
f 1/1/1 7/7/7 3/3/3
