#roof01_3m_endL_A_10321_916.obj

v 2.487289E-06 2.5 -0.203134
v 2.446613E-06 2.499999 -7.244363E-06
v 2.42782E-06 2.619266 -5.998248E-06
v 1.364957E-06 2.499999 2.999982
v 1.91E-06 3.5 1.499986
v 1.374585E-06 2.619265 2.99999
v 1.323794E-06 2.499999 3.203109

vn 0.004546939 0.001225892 -0.999989
vn 0.004546939 0.001225892 -0.999989
vn 0.004546939 0.001225892 -0.999989
vn 0.004546939 0.001225892 -0.999989
vn 0.004546939 0.001225892 -0.999989
vn 0.004546939 0.001225892 -0.999989
vn 0.004546939 0.001225892 -0.999989

vt 1.067383 2.384186E-07
vt 1 2.384186E-07
vt 1 0.0397644
vt 3.33786E-06 0
vt 0.5 0.333252
vt 3.33786E-06 0.0397644
vt -0.06768799 -1.192093E-07

g roof01_3m_endL_A_10321_916
usemtl roof01_3m_endL_A_10321_916
usemap roof01_3m_endL_A_10321_916
f 1/1/1 3/3/3 2/2/2
f 3/3/3 4/4/4 2/2/2
f 3/3/3 5/5/5 4/4/4
f 5/5/5 6/6/6 4/4/4
f 6/6/6 7/7/7 4/4/4
