#roof01_9m_endR_A_9749_897.obj

v 3.048246E-06 2.499999 9.203084
v 3.100474E-06 2.499999 8.999959
v 3.300687E-06 2.62093 8.999949
v 3.226072E-06 2.5 -5.205035E-05
v 2.619315E-06 5.299992 4.499959
v 3.007656E-06 2.62093 -4.162149E-05
v 3.078085E-06 2.5 -0.2031673

vn -0.02092872 1.953991E-14 -0.999781
vn -0.02092872 1.953991E-14 -0.999781
vn -0.02092872 1.953991E-14 -0.999781
vn -0.02092872 1.953991E-14 -0.999781
vn -0.02092872 1.953991E-14 -0.999781
vn -0.02092872 1.953991E-14 -0.999781
vn -0.02092872 1.953991E-14 -0.999781

vt 1.067383 0
vt 1 0
vt 1 0.0402832
vt -2 4.768372E-07
vt -0.4992676 0.9331055
vt -2 0.0402832
vt -2.068359 4.768372E-07

g roof01_9m_endR_A_9749_897
usemtl roof01_9m_endR_A_9749_897
usemap roof01_9m_endR_A_9749_897
f 1/1/1 3/3/3 2/2/2
f 2/2/2 3/3/3 4/4/4
f 3/3/3 5/5/5 4/4/4
f 5/5/5 6/6/6 4/4/4
f 7/7/7 4/4/4 6/6/6
