#roof01_6m_endL_A_11125_130.obj

v 5.939104E-06 2.5 -0.203133
v 5.501555E-06 2.5 -6.2664E-06
v 5.505897E-06 2.620488 -4.708328E-06
v 4.644007E-06 2.499999 5.999998
v 5.301876E-06 4.399999 2.999995
v 4.619928E-06 2.620487 5.999993
v 4.97227E-06 2.499999 6.203119

vn 0.00454679 0.001225896 -0.999989
vn 0.00454679 0.001225896 -0.999989
vn 0.00454679 0.001225896 -0.999989
vn 0.00454679 0.001225896 -0.999989
vn 0.00454679 0.001225896 -0.999989
vn 0.00454679 0.001225896 -0.999989
vn 0.00454679 0.001225896 -0.999989

vt 1.067383 -2.384186E-07
vt 1 -1.788139E-07
vt 1 0.04016113
vt -1 0
vt -8.34465E-07 0.6333008
vt -1 0.04016113
vt -1.067383 5.960464E-08

g roof01_6m_endL_A_11125_130
usemtl roof01_6m_endL_A_11125_130
usemap roof01_6m_endL_A_11125_130
f 1/1/1 3/3/3 2/2/2
f 3/3/3 4/4/4 2/2/2
f 3/3/3 5/5/5 4/4/4
f 5/5/5 6/6/6 4/4/4
f 6/6/6 7/7/7 4/4/4
