#roof01_3m_endR_A_10518_985.obj

v 9.033836E-06 2.499999 3.203112
v 9.066001E-06 2.499999 2.999986
v 9.218783E-06 2.619266 2.999993
v 7.835434E-06 2.499999 -4.616794E-06
v 8.488913E-06 3.499999 1.499992
v 7.835434E-06 2.619266 -4.616794E-06
v 7.94399E-06 2.499999 -0.2031269

vn -0.9997655 1.895096E-14 -0.02165994
vn -0.9997655 1.895096E-14 -0.02165994
vn -0.9997655 1.895096E-14 -0.02165994
vn -0.9997655 1.895096E-14 -0.02165994
vn -0.9997655 1.895096E-14 -0.02165994
vn -0.9997655 1.895096E-14 -0.02165994
vn -0.9997655 1.895096E-14 -0.02165994

vt 1.067383 1.788139E-07
vt 1 1.788139E-07
vt 1 0.0397644
vt 0 1.788139E-07
vt 0.5 0.333252
vt 0 0.0397644
vt -0.06768799 1.788139E-07

g roof01_3m_endR_A_10518_985
usemtl roof01_3m_endR_A_10518_985
usemap roof01_3m_endR_A_10518_985
f 1/1/1 3/3/3 2/2/2
f 3/3/3 4/4/4 2/2/2
f 3/3/3 5/5/5 4/4/4
f 5/5/5 6/6/6 4/4/4
f 6/6/6 7/7/7 4/4/4
