#roof02_corner_6_9725_65.obj

v 4.325436E-05 3 -3.000039
v -2.999958 3 -3.644779E-05
v 4.448582E-05 3 -3.704293E-05
v -2.999959 3 -3.000038
v -2.999958 3.1 -3.644779E-05
v 4.325436E-05 3.1 -3.000039
v 4.448582E-05 3.1 -3.704293E-05
v -2.999959 3.1 -3.000038
v 4.325436E-05 3.1 -3.000039
v 4.448582E-05 3 -3.704293E-05
v 4.448582E-05 3.1 -3.704293E-05
v 4.325436E-05 3 -3.000039
v 4.448582E-05 3.1 -3.704293E-05
v -2.999958 3 -3.644779E-05
v -2.999958 3.1 -3.644779E-05
v 4.448582E-05 3 -3.704293E-05

vn -2.979794E-11 -0.9999988 -4.371139E-08
vn -2.979794E-11 -0.9999988 -4.371139E-08
vn -2.979794E-11 -0.9999988 -4.371139E-08
vn -2.979794E-11 -0.9999988 -4.371139E-08
vn 2.979794E-11 0.9999988 4.371139E-08
vn 2.979794E-11 0.9999988 4.371139E-08
vn 2.979794E-11 0.9999988 4.371139E-08
vn 2.979794E-11 0.9999988 4.371139E-08
vn 0.0006808013 -4.371136E-08 0.9999998
vn 0.0006808013 -4.371136E-08 0.9999998
vn 0.0006808013 -4.371136E-08 0.9999998
vn 0.0006808013 -4.371136E-08 0.9999998
vn -0.9999998 3.800491E-14 0.0006805506
vn -0.9999998 3.800491E-14 0.0006805506
vn -0.9999998 3.800491E-14 0.0006805506
vn -0.9999998 3.800491E-14 0.0006805506

vt 1 4.768372E-07
vt 0 1
vt 1 1
vt 5.960464E-08 2.384186E-07
vt 0 1
vt 1 4.768372E-07
vt 1 1
vt 5.960464E-08 2.384186E-07
vt 1 4.768372E-07
vt 1 1
vt 1 1
vt 1 4.768372E-07
vt 1 1
vt 0 1
vt 0 1
vt 1 1

g roof02_corner_6_9725_65
usemtl roof02_corner_6_9725_65
usemap roof02_corner_6_9725_65
f 1/1/1 3/3/3 2/2/2
f 2/2/2 4/4/4 1/1/1
f 5/5/5 7/7/7 6/6/6
f 6/6/6 8/8/8 5/5/5
f 9/9/9 11/11/11 10/10/10
f 10/10/10 12/12/12 9/9/9
f 13/13/13 15/15/15 14/14/14
f 14/14/14 16/16/16 13/13/13
