#roof02_edge_10_8941_258.obj

v -3 3.500001 -3.000003
v -1.470246E-06 3.500001 -3.200002
v -1.722906E-06 3.500001 -3.000002
v -3 3.500001 -3.200003
v -3 3.100001 -3.000003
v -1.722906E-06 3.500001 -3.000002
v -1.722906E-06 3.100001 -3.000002
v -3 3.500001 -3.000003
v -1.722906E-06 3.100001 -3.000002
v -1.470246E-06 3.500001 -3.200002
v -1.470246E-06 3.100001 -3.200002
v -1.722906E-06 3.500001 -3.000002
v -1.470246E-06 3.100001 -3.200002
v -3 3.500001 -3.200003
v -3 3.100001 -3.200003
v -1.470246E-06 3.500001 -3.200002
v -3 3.100001 -3.200003
v -3 3.500001 -3.000003
v -3 3.100001 -3.000003
v -3 3.500001 -3.200003

vn -3.781546E-10 0.9999991 4.370975E-08
vn -3.781546E-10 0.9999991 4.370975E-08
vn -3.781546E-10 0.9999991 4.370975E-08
vn -3.781546E-10 0.9999991 4.370975E-08
vn -0.00865189 -4.371135E-08 0.9999624
vn -0.00865189 -4.371135E-08 0.9999624
vn -0.00865189 -4.371135E-08 0.9999624
vn -0.00865189 -4.371135E-08 0.9999624
vn 0.9999626 -3.185906E-14 0.008652094
vn 0.9999626 -3.185906E-14 0.008652094
vn 0.9999626 -3.185906E-14 0.008652094
vn 0.9999626 -3.185906E-14 0.008652094
vn 0.00865189 4.371135E-08 -0.9999624
vn 0.00865189 4.371135E-08 -0.9999624
vn 0.00865189 4.371135E-08 -0.9999624
vn 0.00865189 4.371135E-08 -0.9999624
vn -0.9999626 3.185906E-14 -0.008652094
vn -0.9999626 3.185906E-14 -0.008652094
vn -0.9999626 3.185906E-14 -0.008652094
vn -0.9999626 3.185906E-14 -0.008652094

vt 1.916992 1.822266
vt 0.9174805 1.755859
vt 0.9174805 1.822266
vt 1.916992 1.755859
vt 0.9174805 1.648438
vt -0.08258057 1.78125
vt -0.08258057 1.648438
vt 0.9174805 1.78125
vt -0.149292 1.648438
vt -0.08258057 1.78125
vt -0.08258057 1.648438
vt -0.149292 1.78125
vt -0.08258057 1.648438
vt 0.9174805 1.78125
vt 0.9174805 1.648438
vt -0.08258057 1.78125
vt 0.8505859 1.648438
vt 0.9174805 1.78125
vt 0.9174805 1.648438
vt 0.8505859 1.78125

g roof02_edge_10_8941_258
usemtl roof02_edge_10_8941_258
usemap roof02_edge_10_8941_258
f 1/1/1 3/3/3 2/2/2
f 2/2/2 4/4/4 1/1/1
f 5/5/5 7/7/7 6/6/6
f 6/6/6 8/8/8 5/5/5
f 9/9/9 11/11/11 10/10/10
f 10/10/10 12/12/12 9/9/9
f 13/13/13 15/15/15 14/14/14
f 14/14/14 16/16/16 13/13/13
f 17/17/17 19/19/19 18/18/18
f 18/18/18 20/20/20 17/17/17
