#roof01_9m_endR_A_11195_796.obj

v 7.192238E-06 5.400003 4.499971
v 0.5000075 2.43496 9.513028
v 6.791235E-06 2.43496 9.513028
v 0.5000079 5.400003 4.499971
v 0.5000061 2.348888 9.462131
v 0.5000079 5.400003 4.499971
v 0.5000079 5.283821 4.499971
v 0.5000075 2.43496 9.513028
v 0.5000097 2.348887 -0.4621868
v 0.5000083 2.43496 -0.5130859
v 5.440945E-06 2.348888 9.46213
v 0.5000075 2.43496 9.513028
v 0.5000061 2.348888 9.462131
v 6.791235E-06 2.43496 9.513028
v 0.5000061 2.348888 9.462131
v 7.192238E-06 5.28382 4.499971
v 5.440945E-06 2.348888 9.46213
v 0.5000079 5.283821 4.499971
v 0.5000083 2.43496 -0.5130859
v 7.192238E-06 5.400003 4.499971
v 7.593241E-06 2.434959 -0.5130856
v 0.5000079 5.400003 4.499971
v 0.5000083 2.43496 -0.5130859
v 8.949664E-06 2.348887 -0.4621881
v 0.5000097 2.348887 -0.4621868
v 7.593241E-06 2.434959 -0.5130856
v 0.5000097 2.348887 -0.4621868
v 7.192238E-06 5.28382 4.499971
v 0.5000079 5.283821 4.499971
v 8.949664E-06 2.348887 -0.4621881

vn 0.00392848 0.8607169 0.5090682
vn 0.00392848 0.8607169 0.5090682
vn 0.00392848 0.8607169 0.5090682
vn 0.003929005 0.860717 0.5090681
vn 0.9999703 8.881781E-15 -0.007717606
vn 0.9999703 8.881781E-15 -0.007717606
vn 0.9999703 8.881781E-15 -0.007717606
vn 0.9999703 8.881781E-15 -0.007717606
vn 0.9999703 8.881781E-15 -0.007717606
vn 0.9999703 8.881781E-15 -0.007717606
vn 0.0066435 -0.5090083 0.8607359
vn 0.0066435 -0.5090083 0.8607359
vn 0.0066435 -0.5090083 0.8607359
vn 0.0066435 -0.5090083 0.8607359
vn -0.003928474 -0.8607174 -0.5090675
vn -0.003928474 -0.8607174 -0.5090675
vn -0.003928474 -0.8607174 -0.5090675
vn -0.003927949 -0.8607174 -0.5090675
vn -0.003929531 0.8607169 -0.5090681
vn -0.003929531 0.8607169 -0.5090681
vn -0.00392953 0.8607169 -0.5090681
vn -0.003929005 0.8607169 -0.5090681
vn -0.006642872 -0.5090095 -0.8607351
vn -0.006642872 -0.5090095 -0.8607351
vn -0.006642872 -0.5090095 -0.8607351
vn -0.006642872 -0.5090095 -0.8607351
vn 0.00393005 -0.8607174 0.5090674
vn 0.00393005 -0.8607174 0.5090674
vn 0.00393005 -0.8607174 0.5090674
vn 0.003929525 -0.8607174 0.5090674

vt 1 1.74707
vt 0.8334961 0
vt 1 0
vt 0.8334961 1.74707
vt 0.8334961 0
vt 0.8334961 1.74707
vt 0.8334961 1.729492
vt 0.8334961 0
vt 0.8334961 0
vt 0.8334961 0
vt 1 0
vt 0.8334961 0
vt 0.8334961 0
vt 1 0
vt 0.8334961 0
vt 1 1.729492
vt 1 0
vt 0.8334961 1.729492
vt 0.8334961 0
vt 1 1.74707
vt 1 0
vt 0.8334961 1.74707
vt 0.8334961 0
vt 1 0
vt 0.8334961 0
vt 1 0
vt 0.8334961 0
vt 1 1.729492
vt 0.8334961 1.729492
vt 1 0

g roof01_9m_endR_A_11195_796
usemtl roof01_9m_endR_A_11195_796
usemap roof01_9m_endR_A_11195_796
f 1/1/1 3/3/3 2/2/2
f 2/2/2 4/4/4 1/1/1
f 5/5/5 7/7/7 6/6/6
f 6/6/6 8/8/8 5/5/5
f 6/6/6 7/7/7 9/9/9
f 9/9/9 10/10/10 6/6/6
f 11/11/11 13/13/13 12/12/12
f 12/12/12 14/14/14 11/11/11
f 15/15/15 17/17/17 16/16/16
f 16/16/16 18/18/18 15/15/15
f 19/19/19 21/21/21 20/20/20
f 20/20/20 22/22/22 19/19/19
f 23/23/23 25/25/25 24/24/24
f 24/24/24 26/26/26 23/23/23
f 27/27/27 29/29/29 28/28/28
f 28/28/28 30/30/30 27/27/27
