#roof01_6m_endR_A_8844_145.obj

v 8.49318E-06 4.499997 2.99999
v 0.5000071 2.434959 -0.513081
v 0.500006 4.499995 2.99999
v 6.369537E-06 2.434959 -0.5130807
v 0.500007 2.34875 -0.4624076
v 8.44411E-06 4.384007 2.999996
v 0.500006 4.384007 2.999996
v 6.276857E-06 2.34875 -0.4624073
v 0.500007 2.34875 -0.4624076
v 6.369537E-06 2.434959 -0.5130807
v 6.276857E-06 2.34875 -0.4624073
v 0.5000071 2.434959 -0.513081
v 0.5000071 2.434959 -0.513081
v 0.500006 4.384007 2.999996
v 0.500006 4.499995 2.99999
v 0.5000071 2.434959 -0.513081
v 0.500007 2.34875 -0.4624076
v 0.500008 2.434959 6.513073
v 0.5000082 2.34875 6.462399
v 0.500008 2.434959 6.513073
v 8.49318E-06 4.499997 2.99999
v 0.500006 4.499995 2.99999
v 7.339865E-06 2.434959 6.513073
v 0.5000082 2.34875 6.462399
v 8.44411E-06 4.384007 2.999996
v 7.432544E-06 2.34875 6.4624
v 0.500006 4.384007 2.999996
v 7.339865E-06 2.434959 6.513073
v 0.5000082 2.34875 6.462399
v 7.432544E-06 2.34875 6.4624
v 0.500008 2.434959 6.513073
v 0.500006 4.384007 2.999996
v 0.500008 2.434959 6.513073
v 0.500006 4.499995 2.99999

vn -0.003908975 0.8620922 -0.5067357
vn -0.003908975 0.8620922 -0.5067357
vn -0.003908975 0.8620922 -0.5067357
vn -0.003911081 0.862092 -0.5067359
vn 0.00391056 -0.8620917 0.5067366
vn 0.00391056 -0.8620917 0.5067366
vn 0.00391056 -0.8620917 0.5067366
vn 0.003911087 -0.8620916 0.5067368
vn -0.006653635 -0.5067406 -0.8620727
vn -0.006653635 -0.5067406 -0.8620727
vn -0.006653635 -0.5067405 -0.8620727
vn -0.006653635 -0.5067405 -0.8620727
vn 0.9999702 1.598721E-14 -0.007717755
vn 0.9999702 1.598721E-14 -0.007717755
vn 0.9999702 1.598721E-14 -0.007717755
vn 0.9999702 1.598721E-14 -0.007717755
vn 0.9999702 1.598721E-14 -0.007717755
vn 0.9999702 1.598721E-14 -0.007717755
vn 0.9999702 1.598721E-14 -0.007717755
vn 0.003913176 0.8620928 0.5067347
vn 0.003913176 0.8620928 0.5067347
vn 0.003913176 0.8620928 0.5067347
vn 0.003911073 0.8620927 0.5067349
vn -0.003911088 -0.8620916 -0.5067369
vn -0.003911088 -0.8620916 -0.5067369
vn -0.003911088 -0.8620916 -0.5067369
vn -0.003911614 -0.8620917 -0.5067368
vn 0.006653635 -0.5067407 0.8620727
vn 0.006653635 -0.5067407 0.8620727
vn 0.006653635 -0.5067406 0.8620727
vn 0.006653635 -0.5067406 0.8620727
vn 0.9999702 1.598721E-14 -0.007717755
vn 0.9999702 1.598721E-14 -0.007717755
vn 0.9999702 1.598721E-14 -0.007717755

vt 1 1.358398
vt 0.8334961 0
vt 0.8334961 1.358398
vt 1 0
vt 0.8334961 0
vt 1 1.338867
vt 0.8334961 1.338867
vt 1 0
vt 0.8334961 0
vt 1 0
vt 1 0
vt 0.8334961 0
vt 0.8334961 0
vt 0.8334961 1.338867
vt 0.8334961 1.358398
vt 0.8334961 0
vt 0.8334961 0
vt 0.8334961 0
vt 0.8334961 0
vt 0.8334961 0
vt 1 1.358398
vt 0.8334961 1.358398
vt 1 0
vt 0.8334961 0
vt 1 1.338867
vt 1 0
vt 0.8334961 1.338867
vt 1 0
vt 0.8334961 0
vt 1 0
vt 0.8334961 0
vt 0.8334961 1.338867
vt 0.8334961 0
vt 0.8334961 1.358398

g roof01_6m_endR_A_8844_145
usemtl roof01_6m_endR_A_8844_145
usemap roof01_6m_endR_A_8844_145
f 1/1/1 3/3/3 2/2/2
f 2/2/2 4/4/4 1/1/1
f 5/5/5 7/7/7 6/6/6
f 6/6/6 8/8/8 5/5/5
f 9/9/9 11/11/11 10/10/10
f 10/10/10 12/12/12 9/9/9
f 13/13/13 15/15/15 14/14/14
f 14/14/14 17/17/17 16/16/16
f 18/18/18 19/19/19 14/14/14
f 20/20/20 22/22/22 21/21/21
f 21/21/21 23/23/23 20/20/20
f 24/24/24 26/26/26 25/25/25
f 25/25/25 27/27/27 24/24/24
f 28/28/28 30/30/30 29/29/29
f 29/29/29 31/31/31 28/28/28
f 32/32/32 34/34/34 33/33/33
