#roof01_9m_endR_A_19702_130.obj

v 0.199999 5.299993 4.499962
v 0.1999981 2.499999 8.999951
v 0.1999981 2.620929 8.999962
v 0.1999998 2.620929 -4.815311E-05
v 0.1999998 2.5 -3.902588E-05
v 0.1999977 2.499999 9.203086
v 0.2000003 2.5 -0.2031634

vn 2.205372E-06 7.105427E-15 1
vn 2.205372E-06 7.105427E-15 1
vn 2.205372E-06 7.105427E-15 1
vn 2.205372E-06 7.105427E-15 1
vn 2.205372E-06 7.105427E-15 1
vn 2.205372E-06 7.105427E-15 1
vn 2.205372E-06 7.105427E-15 1

vt -0.4992676 0.9331055
vt -2 0
vt -2 0.0402832
vt 1 0.0402832
vt 1 -4.768372E-07
vt -2.068359 0
vt 1.067383 -4.768372E-07

g roof01_9m_endR_A_19702_130
usemtl roof01_9m_endR_A_19702_130
usemap roof01_9m_endR_A_19702_130
f 1/1/1 3/3/3 2/2/2
f 4/4/4 1/1/1 2/2/2
f 5/5/5 4/4/4 2/2/2
f 3/3/3 6/6/6 2/2/2
f 5/5/5 7/7/7 4/4/4
