#roof01_6m_endL_A_10025_637.obj

v -0.2499963 2.63208 5.999995
v 3.611856E-06 2.5 5.999995
v 3.611856E-06 2.63208 5.999995
v -0.2499963 2.5 5.999995
v -0.2499963 2.5 5.999995
v -0.2499963 2.63208 5.999995
v -0.2499963 2.5 6.249995
v 3.330062E-06 2.63208 -6.166429E-06
v -0.2499967 2.5 -6.38737E-06
v -0.2499967 2.632079 -6.392973E-06
v 3.330062E-06 2.5 -6.160825E-06
v -0.2499967 2.5 -6.38737E-06
v -0.2499968 2.5 -0.2500054
v -0.2499967 2.632079 -6.392973E-06

vn 0.9998745 4.371137E-08 -0.0158475
vn 0.9998745 4.371137E-08 -0.0158475
vn 0.9998745 4.371137E-08 -0.0158475
vn 0.9998745 4.371137E-08 -0.0158475
vn -0.01584772 0 -0.9998744
vn -0.01584772 0 -0.9998744
vn -0.01584772 0 -0.9998744
vn -0.9998745 -4.371137E-08 0.0158475
vn -0.9998745 -4.371137E-08 0.0158475
vn -0.9998745 -4.371137E-08 0.0158475
vn -0.9998745 -4.371137E-08 0.0158475
vn -0.01584772 0 -0.9998744
vn -0.01584772 0 -0.9998744
vn -0.01584772 0 -0.9998744

vt 0.1292725 0.7158203
vt 0.08630371 0.7392578
vt 0.08630371 0.7158203
vt 0.1292725 0.7392578
vt 0.1292725 0.7392578
vt 0.1292725 0.7158203
vt 0.1723633 0.7392578
vt 0.1292725 0.7158203
vt 0.1723633 0.7392578
vt 0.1723633 0.7158203
vt 0.1292725 0.7392578
vt 0.1292725 0.7392578
vt 0.08630371 0.7392578
vt 0.1292725 0.7158203

g roof01_6m_endL_A_10025_637
usemtl roof01_6m_endL_A_10025_637
usemap roof01_6m_endL_A_10025_637
f 1/1/1 3/3/3 2/2/2
f 2/2/2 4/4/4 1/1/1
f 5/5/5 7/7/7 6/6/6
f 8/8/8 10/10/10 9/9/9
f 9/9/9 11/11/11 8/8/8
f 12/12/12 14/14/14 13/13/13
