#roof01_6m_endL_A_11125_129.obj

v -0.2499949 2.63208 5.999995
v 4.631501E-06 2.5 5.999995
v 4.813326E-06 2.63208 5.999993
v -0.2499951 2.5 5.999994
v -0.2499951 2.5 5.999994
v -0.2499949 2.63208 5.999995
v -0.2499951 2.499999 6.249994
v 5.682893E-06 2.632079 -7.865672E-06
v -0.2499942 2.5 -7.654865E-06
v -0.2499941 2.632079 -9.254137E-06
v 5.501555E-06 2.5 -6.2664E-06
v -0.2499942 2.5 -7.654865E-06
v -0.2499943 2.5 -0.2500084
v -0.2499941 2.632079 -9.254137E-06

vn -0.9997783 0.02057212 -0.004520813
vn -0.9997783 0.02057212 -0.004520813
vn -0.9997783 0.02057212 -0.004520813
vn -0.9997783 0.02057212 -0.004520813
vn -0.00454679 -0.001225896 0.999989
vn -0.00454679 -0.001225896 0.999989
vn -0.00454679 -0.001225896 0.999989
vn 0.9997783 -0.02057212 0.004520813
vn 0.9997783 -0.02057212 0.004520813
vn 0.9997783 -0.02057212 0.004520813
vn 0.9997783 -0.02057212 0.004520813
vn -0.00454679 -0.001225896 0.999989
vn -0.00454679 -0.001225896 0.999989
vn -0.00454679 -0.001225896 0.999989

vt 0.1292725 0.7158203
vt 0.08630371 0.7392578
vt 0.08630371 0.7158203
vt 0.1292725 0.7392578
vt 0.1292725 0.7392578
vt 0.1292725 0.7158203
vt 0.1723633 0.7392578
vt 0.1292725 0.7158203
vt 0.1723633 0.7392578
vt 0.1723633 0.7158203
vt 0.1292725 0.7392578
vt 0.1292725 0.7392578
vt 0.08630371 0.7392578
vt 0.1292725 0.7158203

g roof01_6m_endL_A_11125_129
usemtl roof01_6m_endL_A_11125_129
usemap roof01_6m_endL_A_11125_129
f 1/1/1 3/3/3 2/2/2
f 2/2/2 4/4/4 1/1/1
f 5/5/5 7/7/7 6/6/6
f 8/8/8 10/10/10 9/9/9
f 9/9/9 11/11/11 8/8/8
f 12/12/12 14/14/14 13/13/13
