#roof01_9x3m_B_9282_787.obj

v 4.603439E-06 2.816414 0.7169817
v 3.000005 2.989619 0.6169811
v 5.724888E-06 2.989619 0.6169828
v 3.000006 2.816414 0.71698
v 5.753931E-06 2.916414 0.8901867
v 3.000005 3.089619 0.7901862
v 3.000005 2.916414 0.8901851
v 5.335055E-06 3.089619 0.7901815
v 4.603439E-06 2.816414 0.7169817
v 3.000005 2.916414 0.8901851
v 3.000006 2.816414 0.71698
v 5.753931E-06 2.916414 0.8901867
v 3.000006 2.816414 0.71698
v 3.000005 3.089619 0.7901862
v 3.000005 2.989619 0.6169811
v 3.000005 2.916414 0.8901851
v 3.000005 2.989619 0.6169811
v 5.335055E-06 3.089619 0.7901815
v 5.724888E-06 2.989619 0.6169828
v 3.000005 3.089619 0.7901862
v 5.724888E-06 2.989619 0.6169828
v 5.753931E-06 2.916414 0.8901867
v 4.603439E-06 2.816414 0.7169817
v 5.335055E-06 3.089619 0.7901815
v 1.067882 2.732094 0.5502724
v 1.317469 5.038078 4.449084
v 1.067881 5.038085 4.44909
v 1.31749 2.732096 0.5502793
v 1.067882 2.646017 0.6011747
v 1.067881 5.038085 4.44909
v 1.06788 4.952008 4.499992
v 1.067882 2.732094 0.5502724
v 1.317469 4.952011 4.499999
v 1.31749 2.732096 0.5502793
v 1.31749 2.646024 0.6011879
v 1.317469 5.038078 4.449084
v 1.067881 2.732091 8.525303
v 1.31747 5.038078 4.626504
v 1.317489 2.732094 8.52531
v 1.067881 5.038084 4.626492
v 1.067882 2.646018 8.474401
v 1.067881 5.038084 4.626492
v 1.067881 2.732091 8.525303
v 1.067881 4.95201 4.575595
v 1.317469 4.952012 4.575583
v 1.317489 2.732094 8.52531
v 1.31747 5.038078 4.626504
v 1.317489 2.646024 8.474395
v 5.788189E-06 3.557668 1.970248
v 3.000005 3.730874 1.870248
v 5.320229E-06 3.730874 1.870249
v 3.000005 3.557668 1.970247
v 5.349273E-06 3.657669 2.143453
v 3.000006 3.830873 2.043453
v 3.000005 3.657669 2.143452
v 4.930396E-06 3.830873 2.043448
v 5.788189E-06 3.557668 1.970248
v 3.000005 3.657669 2.143452
v 3.000005 3.557668 1.970247
v 5.349273E-06 3.657669 2.143453
v 3.000005 3.557668 1.970247
v 3.000006 3.830873 2.043453
v 3.000005 3.730874 1.870248
v 3.000005 3.657669 2.143452
v 3.000005 3.730874 1.870248
v 4.930396E-06 3.830873 2.043448
v 5.320229E-06 3.730874 1.870249
v 3.000006 3.830873 2.043453
v 5.320229E-06 3.730874 1.870249
v 5.349273E-06 3.657669 2.143453
v 5.788189E-06 3.557668 1.970248
v 4.930396E-06 3.830873 2.043448
v 5.334447E-06 4.298932 3.223521
v 3.000006 4.472137 3.123521
v 4.866487E-06 4.472137 3.123522
v 3.000005 4.298932 3.22352
v 4.944614E-06 4.398931 3.39672
v 3.000005 4.572136 3.296726
v 3.000006 4.398931 3.396724
v 4.476653E-06 4.572136 3.296721
v 5.334447E-06 4.298932 3.223521
v 3.000006 4.398931 3.396724
v 3.000005 4.298932 3.22352
v 4.944614E-06 4.398931 3.39672
v 3.000005 4.298932 3.22352
v 3.000005 4.572136 3.296726
v 3.000006 4.472137 3.123521
v 3.000006 4.398931 3.396724
v 3.000006 4.472137 3.123521
v 4.476653E-06 4.572136 3.296721
v 4.866487E-06 4.472137 3.123522
v 3.000005 4.572136 3.296726
v 4.866487E-06 4.472137 3.123522
v 4.944614E-06 4.398931 3.39672
v 5.334447E-06 4.298932 3.223521
v 4.476653E-06 4.572136 3.296721
v 5.329257E-06 4.875725 4.500001
v 3.000005 5.087858 4.287864
v 4.318549E-06 5.087858 4.287866
v 3.000005 4.875725 4.499999
v 4.799639E-06 5.087858 4.71213
v 3.000005 5.299989 4.499999
v 3.000006 5.087858 4.712128
v 5.329257E-06 5.299989 4.500001
v 5.329257E-06 4.875725 4.500001
v 3.000006 5.087858 4.712128
v 3.000005 4.875725 4.499999
v 4.799639E-06 5.087858 4.71213
v 3.000005 4.875725 4.499999
v 3.000005 5.299989 4.499999
v 3.000005 5.087858 4.287864
v 3.000006 5.087858 4.712128
v 3.000005 5.087858 4.287864
v 5.329257E-06 5.299989 4.500001
v 4.318549E-06 5.087858 4.287866
v 3.000005 5.299989 4.499999
v 4.318549E-06 5.087858 4.287866
v 4.799639E-06 5.087858 4.71213
v 5.329257E-06 4.875725 4.500001
v 5.329257E-06 5.299989 4.500001
v 5.471317E-06 4.298929 5.776462
v 3.000005 4.398929 5.603261
v 4.271741E-06 4.398929 5.603263
v 3.000005 4.298929 5.776466
v 4.349868E-06 4.472135 5.876461
v 3.000006 4.572134 5.70326
v 3.000005 4.472135 5.876465
v 4.739701E-06 4.572134 5.703262
v 5.471317E-06 4.298929 5.776462
v 3.000005 4.472135 5.876465
v 3.000005 4.298929 5.776466
v 4.349868E-06 4.472135 5.876461
v 3.000005 4.298929 5.776466
v 3.000006 4.572134 5.70326
v 3.000005 4.398929 5.603261
v 3.000005 4.472135 5.876465
v 3.000005 4.398929 5.603261
v 4.739701E-06 4.572134 5.703262
v 4.271741E-06 4.398929 5.603263
v 3.000006 4.572134 5.70326
v 4.271741E-06 4.398929 5.603263
v 4.349868E-06 4.472135 5.876461
v 5.471317E-06 4.298929 5.776462
v 4.739701E-06 4.572134 5.703262
v 5.066658E-06 3.557667 7.029728
v 3.000005 3.657666 6.856522
v 5.505575E-06 3.657666 6.856523
v 3.000006 3.557666 7.029733
v 5.534619E-06 3.730871 7.129727
v 3.000005 3.83087 6.956521
v 3.000005 3.730871 7.129732
v 4.384126E-06 3.83087 6.956522
v 5.066658E-06 3.557667 7.029728
v 3.000005 3.730871 7.129732
v 3.000006 3.557666 7.029733
v 5.534619E-06 3.730871 7.129727
v 3.000006 3.557666 7.029733
v 3.000005 3.83087 6.956521
v 3.000005 3.657666 6.856522
v 3.000005 3.730871 7.129732
v 3.000005 3.657666 6.856522
v 4.384126E-06 3.83087 6.956522
v 5.505575E-06 3.657666 6.856523
v 3.000005 3.83087 6.956521
v 5.505575E-06 3.657666 6.856523
v 5.534619E-06 3.730871 7.129727
v 5.066658E-06 3.557667 7.029728
v 4.384126E-06 3.83087 6.956522
v 1.317469 4.952011 4.499999
v 1.067882 2.646017 0.6011747
v 1.06788 4.952008 4.499992
v 1.31749 2.646024 0.6011879
v 1.317489 2.646024 8.474395
v 1.067881 4.95201 4.575595
v 1.067882 2.646018 8.474401
v 1.317469 4.952012 4.575583

vn -0.006685836 -0.4999999 -0.8659995
vn -0.006685836 -0.4999999 -0.8659995
vn -0.006685836 -0.4999999 -0.8659995
vn -0.006685836 -0.4999999 -0.8659995
vn 0.006685835 0.5 0.8659995
vn 0.006685835 0.5 0.8659995
vn 0.006685835 0.5 0.8659995
vn 0.006685835 0.5 0.8659995
vn 0.003860101 -0.8660228 0.4999892
vn 0.003860101 -0.8660228 0.4999892
vn 0.0038601 -0.8660226 0.4999891
vn 0.0038601 -0.8660226 0.4999891
vn 0.9999702 1.776356E-15 -0.007719941
vn 0.9999702 1.776356E-15 -0.007719941
vn 0.9999702 1.776356E-15 -0.007719941
vn 0.9999702 1.776356E-15 -0.007719941
vn -0.003860101 0.8660226 -0.4999892
vn -0.003860101 0.8660226 -0.4999892
vn -0.003860101 0.8660226 -0.4999892
vn -0.003860101 0.8660226 -0.4999892
vn -0.9999702 -1.776356E-15 0.007719941
vn -0.9999702 -1.776356E-15 0.007719941
vn -0.9999702 -1.776356E-15 0.007719941
vn -0.9999702 -1.776356E-15 0.007719941
vn -0.003928495 0.8607189 -0.5090648
vn -0.003924963 0.8607187 -0.5090649
vn -0.003924831 0.8607187 -0.509065
vn -0.003928628 0.8607188 -0.5090648
vn -0.9999702 -1.449446E-06 0.007720445
vn -0.9999702 -1.896865E-07 0.007719662
vn -0.9999702 -1.714691E-07 0.00771965
vn -0.9999702 -1.467661E-06 0.007720456
vn 0.9999702 2.246916E-06 -0.007716143
vn 0.9999702 2.246525E-06 -0.007716143
vn 0.9999702 2.246519E-06 -0.007716143
vn 0.9999702 2.246922E-06 -0.007716143
vn 0.003912479 0.8607187 0.5090654
vn 0.003930625 0.8607181 0.5090662
vn 0.003911795 0.8607187 0.5090653
vn 0.003931308 0.8607181 0.509066
vn -0.9999702 -1.449495E-06 0.007719436
vn -0.9999702 -1.896709E-07 0.007720219
vn -0.9999702 -1.467705E-06 0.007719425
vn -0.9999702 -1.714613E-07 0.007720231
vn 0.9999702 2.246934E-06 -0.007723738
vn 0.9999702 2.24655E-06 -0.007723738
vn 0.9999702 2.24694E-06 -0.007723738
vn 0.9999702 2.246544E-06 -0.007723738
vn -0.006685838 -0.4999994 -0.8659998
vn -0.006685838 -0.4999994 -0.8659998
vn -0.006685838 -0.4999994 -0.8659998
vn -0.006685838 -0.4999994 -0.8659998
vn 0.006685838 0.4999994 0.8659998
vn 0.006685838 0.4999994 0.8659998
vn 0.006685838 0.4999994 0.8659998
vn 0.006685838 0.4999994 0.8659998
vn 0.003860102 -0.8660226 0.4999893
vn 0.003860102 -0.8660226 0.4999893
vn 0.003860102 -0.8660226 0.4999893
vn 0.003860102 -0.8660226 0.4999893
vn 0.9999702 1.776356E-15 -0.007719941
vn 0.9999702 1.776356E-15 -0.007719941
vn 0.9999702 1.776356E-15 -0.007719941
vn 0.9999702 1.776356E-15 -0.007719941
vn -0.003860102 0.8660226 -0.4999893
vn -0.003860102 0.8660226 -0.4999893
vn -0.003860102 0.8660226 -0.4999893
vn -0.003860102 0.8660226 -0.4999893
vn -0.9999702 -1.776356E-15 0.007719941
vn -0.9999702 -1.776356E-15 0.007719941
vn -0.9999702 -1.776356E-15 0.007719941
vn -0.9999702 -1.776356E-15 0.007719941
vn -0.006685835 -0.5 -0.8659995
vn -0.006685835 -0.5 -0.8659995
vn -0.006685835 -0.5 -0.8659995
vn -0.006685835 -0.5 -0.8659995
vn 0.006685835 0.5 0.8659995
vn 0.006685835 0.5 0.8659995
vn 0.006685835 0.5 0.8659995
vn 0.006685835 0.5 0.8659995
vn 0.003860102 -0.8660226 0.4999893
vn 0.003860102 -0.8660226 0.4999893
vn 0.003860102 -0.8660226 0.4999893
vn 0.003860102 -0.8660226 0.4999893
vn 0.9999702 1.776356E-15 -0.007719941
vn 0.9999702 1.776356E-15 -0.007719941
vn 0.9999702 1.776356E-15 -0.007719941
vn 0.9999702 1.776356E-15 -0.007719941
vn -0.003860102 0.8660226 -0.4999893
vn -0.003860102 0.8660226 -0.4999893
vn -0.003860102 0.8660226 -0.4999893
vn -0.003860102 0.8660226 -0.4999893
vn -0.9999702 -1.776356E-15 0.007719941
vn -0.9999702 -1.776356E-15 0.007719941
vn -0.9999702 -1.776356E-15 0.007719941
vn -0.9999702 -1.776356E-15 0.007719941
vn -0.005458944 -0.7071089 -0.7070832
vn -0.005458944 -0.7071089 -0.7070832
vn -0.005458943 -0.707109 -0.7070832
vn -0.005458943 -0.707109 -0.7070832
vn 0.005458998 0.7071018 0.7070903
vn 0.005458998 0.7071018 0.7070903
vn 0.005458998 0.7071019 0.7070903
vn 0.005458998 0.7071019 0.7070903
vn 0.005459001 -0.7071015 0.7070907
vn 0.005459001 -0.7071015 0.7070907
vn 0.005459001 -0.7071015 0.7070907
vn 0.005459001 -0.7071015 0.7070907
vn 0.9999702 1.776356E-15 -0.007719941
vn 0.9999702 1.776356E-15 -0.007719941
vn 0.9999702 1.776356E-15 -0.007719941
vn 0.9999702 1.776356E-15 -0.007719941
vn -0.00545893 0.7071106 -0.7070815
vn -0.00545893 0.7071106 -0.7070815
vn -0.005458931 0.7071106 -0.7070816
vn -0.005458931 0.7071106 -0.7070816
vn -0.9999702 -1.776356E-15 0.007719941
vn -0.9999702 -1.776356E-15 0.007719941
vn -0.9999702 -1.776356E-15 0.007719941
vn -0.9999702 -1.776356E-15 0.007719941
vn -0.003860102 -0.8660226 -0.4999894
vn -0.003860102 -0.8660226 -0.4999894
vn -0.003860102 -0.8660226 -0.4999894
vn -0.003860102 -0.8660226 -0.4999894
vn 0.003860102 0.8660226 0.4999894
vn 0.003860102 0.8660226 0.4999894
vn 0.003860102 0.8660226 0.4999894
vn 0.003860102 0.8660226 0.4999894
vn 0.006685841 -0.4999988 0.8660002
vn 0.006685841 -0.4999988 0.8660002
vn 0.006685841 -0.4999988 0.8660002
vn 0.006685841 -0.4999988 0.8660002
vn 0.9999702 1.776356E-15 -0.007719941
vn 0.9999702 1.776356E-15 -0.007719941
vn 0.9999702 1.776356E-15 -0.007719941
vn 0.9999702 1.776356E-15 -0.007719941
vn -0.006685841 0.4999988 -0.8660002
vn -0.006685841 0.4999988 -0.8660002
vn -0.006685841 0.4999988 -0.8660002
vn -0.006685841 0.4999988 -0.8660002
vn -0.9999702 -1.776356E-15 0.007719941
vn -0.9999702 -1.776356E-15 0.007719941
vn -0.9999702 -1.776356E-15 0.007719941
vn -0.9999702 -1.776356E-15 0.007719941
vn -0.003860012 -0.8660294 -0.4999777
vn -0.00386002 -0.8660287 -0.4999787
vn -0.003860012 -0.8660294 -0.4999777
vn -0.003860021 -0.8660287 -0.4999788
vn 0.003860021 0.8660287 0.4999788
vn 0.003860021 0.8660287 0.4999788
vn 0.003860021 0.8660287 0.4999788
vn 0.003860021 0.8660287 0.4999788
vn 0.006685833 -0.5000007 0.8659991
vn 0.006685835 -0.5000001 0.8659995
vn 0.006685835 -0.5000001 0.8659995
vn 0.006685833 -0.5000007 0.8659991
vn 0.9999702 1.776356E-15 -0.007719941
vn 0.9999702 1.776356E-15 -0.007719941
vn 0.9999702 1.776356E-15 -0.007719941
vn 0.9999702 1.776356E-15 -0.007719941
vn -0.006685835 0.5000001 -0.8659995
vn -0.006685835 0.5000001 -0.8659995
vn -0.006685835 0.5000001 -0.8659995
vn -0.006685835 0.5000001 -0.8659995
vn -0.9999702 -1.776356E-15 0.007719941
vn -0.9999702 -1.776356E-15 0.007719941
vn -0.9999702 -1.776356E-15 0.007719941
vn -0.9999702 -1.776356E-15 0.007719941
vn 0.003928869 -0.8607188 0.5090648
vn 0.003935264 -0.860719 0.5090645
vn 0.003928628 -0.8607188 0.5090649
vn 0.003935505 -0.860719 0.5090645
vn -0.003917925 -0.8607181 -0.5090662
vn -0.003942834 -0.8607188 -0.5090649
vn -0.003916986 -0.8607181 -0.5090662
vn -0.003943773 -0.8607188 -0.5090648

vt 0.3942871 0.7416992
vt 0.3762207 0.4709473
vt 0.3762207 0.7416992
vt 0.3942871 0.4709473
vt 0.4123535 0.7416992
vt 0.3942871 0.4709473
vt 0.4123535 0.4709473
vt 0.3942871 0.7416992
vt 0.3942871 0.7416992
vt 0.4123535 0.4709473
vt 0.3942871 0.4709473
vt 0.4123535 0.7416992
vt 0.4389648 0.420166
vt 0.4208984 0.4382324
vt 0.4208984 0.420166
vt 0.4389648 0.4382324
vt 0.3762207 0.4709473
vt 0.3942871 0.7416992
vt 0.3762207 0.7416992
vt 0.3942871 0.4709473
vt 0.4208984 0.4382324
vt 0.4389648 0.420166
vt 0.4389648 0.4382324
vt 0.4208984 0.420166
vt 0.3166504 0.7304688
vt 0.3513184 0.3220215
vt 0.3166504 0.3217773
vt 0.3513184 0.7304688
vt 0.3027344 0.7304688
vt 0.3166504 0.3217773
vt 0.3027344 0.3217773
vt 0.3166504 0.7304688
vt 0.3649902 0.3220215
vt 0.3513184 0.7304688
vt 0.3649902 0.730957
vt 0.3513184 0.3220215
vt 0.3166504 0.3217773
vt 0.3513184 0.7304688
vt 0.3513184 0.3220215
vt 0.3166504 0.7304688
vt 0.3027344 0.3217773
vt 0.3166504 0.7304688
vt 0.3166504 0.3217773
vt 0.3027344 0.7304688
vt 0.3649902 0.730957
vt 0.3513184 0.3220215
vt 0.3513184 0.7304688
vt 0.3649902 0.3220215
vt 0.3942871 0.7416992
vt 0.3762207 0.4709473
vt 0.3762207 0.7416992
vt 0.3942871 0.4709473
vt 0.3762207 0.7416992
vt 0.3942871 0.4709473
vt 0.3762207 0.4709473
vt 0.3942871 0.7416992
vt 0.3942871 0.7416992
vt 0.4123535 0.4709473
vt 0.3942871 0.4709473
vt 0.4123535 0.7416992
vt 0.4208984 0.420166
vt 0.4389648 0.4382324
vt 0.4389648 0.420166
vt 0.4208984 0.4382324
vt 0.4123535 0.4709473
vt 0.3942871 0.7416992
vt 0.4123535 0.7416992
vt 0.3942871 0.4709473
vt 0.4389648 0.4382324
vt 0.4208984 0.420166
vt 0.4208984 0.4382324
vt 0.4389648 0.420166
vt 0.4123535 0.3103027
vt 0.3942871 0.5810547
vt 0.3942871 0.3103027
vt 0.4123535 0.5810547
vt 0.3942871 0.7416992
vt 0.3762207 0.4709473
vt 0.3942871 0.4709473
vt 0.3762207 0.7416992
vt 0.4123535 0.7416992
vt 0.3942871 0.4709473
vt 0.4123535 0.4709473
vt 0.3942871 0.7416992
vt 0.4389648 0.420166
vt 0.4208984 0.4382324
vt 0.4208984 0.420166
vt 0.4389648 0.4382324
vt 0.3942871 0.5810547
vt 0.3762207 0.3103027
vt 0.3942871 0.3103027
vt 0.3762207 0.5810547
vt 0.4208984 0.4382324
vt 0.4389648 0.420166
vt 0.4389648 0.4382324
vt 0.4208984 0.420166
vt 0.4492188 0.7416992
vt 0.4213867 0.4628906
vt 0.4213867 0.7416992
vt 0.4492188 0.4628906
vt 0.4213867 0.7416992
vt 0.4492188 0.4628906
vt 0.4213867 0.4628906
vt 0.4492188 0.7416992
vt 0.4492188 0.7416992
vt 0.4770508 0.4628906
vt 0.4492188 0.4628906
vt 0.4770508 0.7416992
vt 0.4187012 0.4428711
vt 0.4396973 0.4152832
vt 0.4396973 0.4428711
vt 0.4187012 0.4152832
vt 0.4770508 0.4628906
vt 0.4492188 0.7416992
vt 0.4770508 0.7416992
vt 0.4492188 0.4628906
vt 0.4396973 0.4152832
vt 0.4187012 0.4428711
vt 0.4187012 0.4152832
vt 0.4396973 0.4428711
vt 0.3942871 0.7416992
vt 0.3762207 0.4709473
vt 0.3762207 0.7416992
vt 0.3942871 0.4709473
vt 0.4123535 0.6411133
vt 0.3942871 0.3706055
vt 0.4123535 0.3706055
vt 0.3942871 0.6411133
vt 0.3942871 0.7416992
vt 0.4123535 0.4709473
vt 0.3942871 0.4709473
vt 0.4123535 0.7416992
vt 0.4208984 0.4382324
vt 0.4389648 0.420166
vt 0.4208984 0.420166
vt 0.4389648 0.4382324
vt 0.3762207 0.3706055
vt 0.3942871 0.6411133
vt 0.3762207 0.6411133
vt 0.3942871 0.3706055
vt 0.4208984 0.4382324
vt 0.4389648 0.420166
vt 0.4208984 0.420166
vt 0.4389648 0.4382324
vt 0.4123535 0.7416992
vt 0.3942871 0.4709473
vt 0.3942871 0.7416992
vt 0.4123535 0.4709473
vt 0.3942871 0.7416992
vt 0.4123535 0.4709473
vt 0.3942871 0.4709473
vt 0.4123535 0.7416992
vt 0.3762207 0.7416992
vt 0.3942871 0.4709473
vt 0.3762207 0.4709473
vt 0.3942871 0.7416992
vt 0.4208984 0.420166
vt 0.4389648 0.4382324
vt 0.4389648 0.420166
vt 0.4208984 0.4382324
vt 0.3942871 0.4709473
vt 0.3762207 0.7416992
vt 0.3942871 0.7416992
vt 0.3762207 0.4709473
vt 0.4389648 0.4382324
vt 0.4208984 0.420166
vt 0.4208984 0.4382324
vt 0.4389648 0.420166
vt 0.3513184 0.7304688
vt 0.3166504 0.3217773
vt 0.3166504 0.7304688
vt 0.3513184 0.3220215
vt 0.3166504 0.3217773
vt 0.3513184 0.7304688
vt 0.3513184 0.3220215
vt 0.3166504 0.7304688

g roof01_9x3m_B_9282_787
usemtl roof01_9x3m_B_9282_787
usemap roof01_9x3m_B_9282_787
f 1/1/1 3/3/3 2/2/2
f 2/2/2 4/4/4 1/1/1
f 5/5/5 7/7/7 6/6/6
f 6/6/6 8/8/8 5/5/5
f 9/9/9 11/11/11 10/10/10
f 10/10/10 12/12/12 9/9/9
f 13/13/13 15/15/15 14/14/14
f 14/14/14 16/16/16 13/13/13
f 17/17/17 19/19/19 18/18/18
f 18/18/18 20/20/20 17/17/17
f 21/21/21 23/23/23 22/22/22
f 22/22/22 24/24/24 21/21/21
f 25/25/25 27/27/27 26/26/26
f 26/26/26 28/28/28 25/25/25
f 29/29/29 31/31/31 30/30/30
f 30/30/30 32/32/32 29/29/29
f 33/33/33 35/35/35 34/34/34
f 34/34/34 36/36/36 33/33/33
f 37/37/37 39/39/39 38/38/38
f 38/38/38 40/40/40 37/37/37
f 41/41/41 43/43/43 42/42/42
f 42/42/42 44/44/44 41/41/41
f 45/45/45 47/47/47 46/46/46
f 46/46/46 48/48/48 45/45/45
f 49/49/49 51/51/51 50/50/50
f 50/50/50 52/52/52 49/49/49
f 53/53/53 55/55/55 54/54/54
f 54/54/54 56/56/56 53/53/53
f 57/57/57 59/59/59 58/58/58
f 58/58/58 60/60/60 57/57/57
f 61/61/61 63/63/63 62/62/62
f 62/62/62 64/64/64 61/61/61
f 65/65/65 67/67/67 66/66/66
f 66/66/66 68/68/68 65/65/65
f 69/69/69 71/71/71 70/70/70
f 70/70/70 72/72/72 69/69/69
f 73/73/73 75/75/75 74/74/74
f 74/74/74 76/76/76 73/73/73
f 77/77/77 79/79/79 78/78/78
f 78/78/78 80/80/80 77/77/77
f 81/81/81 83/83/83 82/82/82
f 82/82/82 84/84/84 81/81/81
f 85/85/85 87/87/87 86/86/86
f 86/86/86 88/88/88 85/85/85
f 89/89/89 91/91/91 90/90/90
f 90/90/90 92/92/92 89/89/89
f 93/93/93 95/95/95 94/94/94
f 94/94/94 96/96/96 93/93/93
f 97/97/97 99/99/99 98/98/98
f 98/98/98 100/100/100 97/97/97
f 101/101/101 103/103/103 102/102/102
f 102/102/102 104/104/104 101/101/101
f 105/105/105 107/107/107 106/106/106
f 106/106/106 108/108/108 105/105/105
f 109/109/109 111/111/111 110/110/110
f 110/110/110 112/112/112 109/109/109
f 113/113/113 115/115/115 114/114/114
f 114/114/114 116/116/116 113/113/113
f 117/117/117 119/119/119 118/118/118
f 118/118/118 120/120/120 117/117/117
f 121/121/121 123/123/123 122/122/122
f 122/122/122 124/124/124 121/121/121
f 125/125/125 127/127/127 126/126/126
f 126/126/126 128/128/128 125/125/125
f 129/129/129 131/131/131 130/130/130
f 130/130/130 132/132/132 129/129/129
f 133/133/133 135/135/135 134/134/134
f 134/134/134 136/136/136 133/133/133
f 137/137/137 139/139/139 138/138/138
f 138/138/138 140/140/140 137/137/137
f 141/141/141 143/143/143 142/142/142
f 142/142/142 144/144/144 141/141/141
f 145/145/145 147/147/147 146/146/146
f 146/146/146 148/148/148 145/145/145
f 149/149/149 151/151/151 150/150/150
f 150/150/150 152/152/152 149/149/149
f 153/153/153 155/155/155 154/154/154
f 154/154/154 156/156/156 153/153/153
f 157/157/157 159/159/159 158/158/158
f 158/158/158 160/160/160 157/157/157
f 161/161/161 163/163/163 162/162/162
f 162/162/162 164/164/164 161/161/161
f 165/165/165 167/167/167 166/166/166
f 166/166/166 168/168/168 165/165/165
f 169/169/169 171/171/171 170/170/170
f 170/170/170 172/172/172 169/169/169
f 173/173/173 175/175/175 174/174/174
f 174/174/174 176/176/176 173/173/173
