#roof02_corner_4_10181_71.obj

v 2.844537E-06 3 -3.000004
v -3.000001 3 -4.792218E-06
v 3.666456E-07 3 -3.787913E-06
v -2.999999 3 -3.000005
v -3.000001 3.099999 -4.792218E-06
v 2.844537E-06 3.1 -3.000004
v 3.666456E-07 3.099999 -3.787913E-06
v -2.999999 3.1 -3.000005
v 2.844537E-06 3.1 -3.000004
v 3.666456E-07 3 -3.787913E-06
v 3.666456E-07 3.099999 -3.787913E-06
v 2.844537E-06 3 -3.000004
v 3.666456E-07 3.099999 -3.787913E-06
v -3.000001 3 -4.792218E-06
v -3.000001 3.099999 -4.792218E-06
v 3.666456E-07 3 -3.787913E-06

vn 3.778064E-10 -0.9999991 -4.370976E-08
vn 3.778064E-10 -0.9999991 -4.370976E-08
vn 3.778064E-10 -0.9999991 -4.370976E-08
vn 3.778064E-10 -0.9999991 -4.370976E-08
vn -3.778064E-10 0.9999991 4.370976E-08
vn -3.778064E-10 0.9999991 4.370976E-08
vn -3.778064E-10 0.9999991 4.370976E-08
vn -3.778064E-10 0.9999991 4.370976E-08
vn 0.9999627 2.922412E-14 0.008642706
vn 0.9999627 2.922412E-14 0.008642706
vn 0.9999627 2.922412E-14 0.008642706
vn 0.9999627 2.922412E-14 0.008642706
vn -0.008642502 -4.371136E-08 0.9999626
vn -0.008642502 -4.371136E-08 0.9999626
vn -0.008642502 -4.371136E-08 0.9999626
vn -0.008642502 -4.371136E-08 0.9999626

vt 1 4.768372E-07
vt 0 1
vt 1 1
vt 5.960464E-08 2.384186E-07
vt 0 1
vt 1 4.768372E-07
vt 1 1
vt 5.960464E-08 2.384186E-07
vt 1 4.768372E-07
vt 1 1
vt 1 1
vt 1 4.768372E-07
vt 1 1
vt 0 1
vt 0 1
vt 1 1

g roof02_corner_4_10181_71
usemtl roof02_corner_4_10181_71
usemap roof02_corner_4_10181_71
f 1/1/1 3/3/3 2/2/2
f 2/2/2 4/4/4 1/1/1
f 5/5/5 7/7/7 6/6/6
f 6/6/6 8/8/8 5/5/5
f 9/9/9 11/11/11 10/10/10
f 10/10/10 12/12/12 9/9/9
f 13/13/13 15/15/15 14/14/14
f 14/14/14 16/16/16 13/13/13
