#rug01_20509_357.obj

v -0.75 -7.128082E-08 9.111283E-07
v -0.7500004 0.009999692 -1.249999
v -0.75 0.009999746 9.106913E-07
v -0.7500004 -1.259201E-07 -1.249999
v -0.7500004 -1.259201E-07 -1.249999
v 1.679063E-07 0.009999692 -1.25
v -0.7500004 0.009999692 -1.249999
v 1.679063E-07 -1.259201E-07 -1.25
v -0.7500004 0.009999692 -1.249999
v -4.884818E-07 0.009999746 5.861542E-07
v -0.75 0.009999746 9.106913E-07
v 1.679063E-07 0.009999692 -1.25
v 0.7500001 -7.128084E-08 4.038803E-07
v 0.7500008 0.009999692 -1.25
v 0.7500008 -1.259201E-07 -1.25
v 0.7500001 0.009999746 4.034432E-07
v 0.7500008 -1.259201E-07 -1.25
v 1.679063E-07 0.009999692 -1.25
v 1.679063E-07 -1.259201E-07 -1.25
v 0.7500008 0.009999692 -1.25
v 0.7500008 0.009999692 -1.25
v -4.884818E-07 0.009999746 5.861542E-07
v 1.679063E-07 0.009999692 -1.25
v 0.7500001 0.009999746 4.034432E-07
v -0.75 -7.128082E-08 9.111283E-07
v -0.7499996 0.01000033 1.250001
v -0.7499996 -1.664158E-08 1.250001
v -0.75 0.009999746 9.106913E-07
v -0.7499996 -1.664158E-08 1.250001
v -8.941277E-08 0.01000033 1.250001
v -8.941277E-08 -1.664159E-08 1.250001
v -0.7499996 0.01000033 1.250001
v -0.7499996 0.01000033 1.250001
v -4.884818E-07 0.009999746 5.861542E-07
v -8.941277E-08 0.01000033 1.250001
v -0.75 0.009999746 9.106913E-07
v 0.7500001 -7.128084E-08 4.038803E-07
v 0.7500005 0.01000033 1.250001
v 0.7500001 0.009999746 4.034432E-07
v 0.7500005 -1.664159E-08 1.250001
v 0.7500005 -1.664159E-08 1.250001
v -8.941277E-08 0.01000033 1.250001
v 0.7500005 0.01000033 1.250001
v -8.941277E-08 -1.664159E-08 1.250001
v 0.7500005 0.01000033 1.250001
v -4.884818E-07 0.009999746 5.861542E-07
v 0.7500001 0.009999746 4.034432E-07
v -8.941277E-08 0.01000033 1.250001

vn -0.9910923 3.108625E-15 0.1331772
vn -0.9910923 3.108625E-15 0.1331772
vn -0.9910923 3.108625E-15 0.1331772
vn -0.9910923 3.108625E-15 0.1331772
vn -0.1331772 4.371138E-08 -0.9910923
vn -0.1331772 4.371138E-08 -0.9910923
vn -0.1331772 4.371138E-08 -0.9910923
vn -0.1331772 4.371138E-08 -0.9910923
vn -1.00546E-08 1 -7.482542E-08
vn -1.00546E-08 1 -7.482541E-08
vn -1.00546E-08 1 -7.482541E-08
vn -1.00546E-08 1 -7.482541E-08
vn 0.9910923 -3.108625E-15 -0.1331772
vn 0.9910923 -3.108625E-15 -0.1331772
vn 0.9910923 -3.108625E-15 -0.1331772
vn 0.9910923 -3.108625E-15 -0.1331772
vn -0.1331772 4.371138E-08 -0.9910923
vn -0.1331772 4.371138E-08 -0.9910923
vn -0.1331772 4.371138E-08 -0.9910923
vn -0.1331772 4.371138E-08 -0.9910923
vn -1.00546E-08 1 -7.482542E-08
vn -1.00546E-08 1 -7.482541E-08
vn -1.00546E-08 1 -7.482541E-08
vn -1.00546E-08 1 -7.482541E-08
vn -0.9910923 3.108625E-15 0.1331772
vn -0.9910923 3.108625E-15 0.1331772
vn -0.9910923 3.108625E-15 0.1331772
vn -0.9910923 3.108625E-15 0.1331772
vn 0.1331772 -4.371138E-08 0.9910923
vn 0.1331772 -4.371138E-08 0.9910923
vn 0.1331772 -4.371138E-08 0.9910923
vn 0.1331772 -4.371138E-08 0.9910923
vn -1.00546E-08 1 -7.482542E-08
vn -1.00546E-08 1 -7.482541E-08
vn -1.00546E-08 1 -7.482541E-08
vn -1.00546E-08 1 -7.482541E-08
vn 0.9910923 -3.108625E-15 -0.1331772
vn 0.9910923 -3.108625E-15 -0.1331772
vn 0.9910923 -3.108625E-15 -0.1331772
vn 0.9910923 -3.108625E-15 -0.1331772
vn 0.1331772 -4.371138E-08 0.9910923
vn 0.1331772 -4.371138E-08 0.9910923
vn 0.1331772 -4.371138E-08 0.9910923
vn 0.1331772 -4.371138E-08 0.9910923
vn -1.00546E-08 1 -7.482542E-08
vn -1.00546E-08 1 -7.482541E-08
vn -1.00546E-08 1 -7.482541E-08
vn -1.00546E-08 1 -7.482541E-08

vt 0.6152344 0.1800537
vt 0.5083008 0.1809082
vt 0.6152344 0.1809082
vt 0.5083008 0.1800537
vt 0.5073242 0.1809082
vt 0.5083008 0.2449951
vt 0.5083008 0.1809082
vt 0.5073242 0.2449951
vt 0.5083008 0.1809082
vt 0.6152344 0.2449951
vt 0.6152344 0.1809082
vt 0.5083008 0.2449951
vt 0.6152344 0.1800537
vt 0.5083008 0.1809082
vt 0.5083008 0.1800537
vt 0.6152344 0.1809082
vt 0.5073242 0.1809082
vt 0.5083008 0.2449951
vt 0.5073242 0.2449951
vt 0.5083008 0.1809082
vt 0.5083008 0.1809082
vt 0.6152344 0.2449951
vt 0.5083008 0.2449951
vt 0.6152344 0.1809082
vt 0.6152344 0.1800537
vt 0.5083008 0.1809082
vt 0.5083008 0.1800537
vt 0.6152344 0.1809082
vt 0.5073242 0.1809082
vt 0.5083008 0.2449951
vt 0.5073242 0.2449951
vt 0.5083008 0.1809082
vt 0.5083008 0.1809082
vt 0.6152344 0.2449951
vt 0.5083008 0.2449951
vt 0.6152344 0.1809082
vt 0.6152344 0.1800537
vt 0.5083008 0.1809082
vt 0.6152344 0.1809082
vt 0.5083008 0.1800537
vt 0.5073242 0.1809082
vt 0.5083008 0.2449951
vt 0.5083008 0.1809082
vt 0.5073242 0.2449951
vt 0.5083008 0.1809082
vt 0.6152344 0.2449951
vt 0.6152344 0.1809082
vt 0.5083008 0.2449951

g rug01_20509_357
usemtl rug01_20509_357
usemap rug01_20509_357
f 1/1/1 3/3/3 2/2/2
f 2/2/2 4/4/4 1/1/1
f 5/5/5 7/7/7 6/6/6
f 6/6/6 8/8/8 5/5/5
f 9/9/9 11/11/11 10/10/10
f 10/10/10 12/12/12 9/9/9
f 13/13/13 15/15/15 14/14/14
f 14/14/14 16/16/16 13/13/13
f 17/17/17 19/19/19 18/18/18
f 18/18/18 20/20/20 17/17/17
f 21/21/21 23/23/23 22/22/22
f 22/22/22 24/24/24 21/21/21
f 25/25/25 27/27/27 26/26/26
f 26/26/26 28/28/28 25/25/25
f 29/29/29 31/31/31 30/30/30
f 30/30/30 32/32/32 29/29/29
f 33/33/33 35/35/35 34/34/34
f 34/34/34 36/36/36 33/33/33
f 37/37/37 39/39/39 38/38/38
f 38/38/38 40/40/40 37/37/37
f 41/41/41 43/43/43 42/42/42
f 42/42/42 44/44/44 41/41/41
f 45/45/45 47/47/47 46/46/46
f 46/46/46 48/48/48 45/45/45
