#rug06_19278_355.obj

v -1 -4.713642E-09 -1.264876E-06
v -1 0.009999734 -2.5
v -1 0.009999996 -1.2653E-06
v -1 -2.662605E-07 -2.5
v -1 -2.662605E-07 -2.5
v 2.907999E-07 0.009999734 -2.5
v -1 0.009999734 -2.5
v 2.907999E-07 -2.662605E-07 -2.5
v -1 0.009999734 -2.5
v -7.256205E-07 0.009999996 -5.270201E-07
v -1 0.009999996 -1.2653E-06
v 2.907999E-07 0.009999734 -2.5
v 0.999999 -4.713594E-09 2.116844E-07
v 1 0.009999734 -2.500001
v 1 -2.662605E-07 -2.500001
v 0.999999 0.009999996 2.112601E-07
v 1 -2.662605E-07 -2.500001
v 2.907999E-07 0.009999734 -2.5
v 2.907999E-07 -2.662605E-07 -2.5
v 1 0.009999734 -2.500001
v 1 0.009999734 -2.500001
v -7.256205E-07 0.009999996 -5.270201E-07
v 2.907999E-07 0.009999734 -2.5
v 0.999999 0.009999996 2.112601E-07
v -1 -4.713642E-09 -1.264876E-06
v -1.000001 0.01000036 2.499999
v -1.000001 3.604935E-07 2.499999
v -1 0.009999996 -1.2653E-06
v -1.000001 3.604935E-07 2.499999
v -1.742041E-06 0.01000036 2.5
v -1.742041E-06 3.604935E-07 2.5
v -1.000001 0.01000036 2.499999
v -1.000001 0.01000036 2.499999
v -7.256205E-07 0.009999996 -5.270201E-07
v -1.742041E-06 0.01000036 2.5
v -1 0.009999996 -1.2653E-06
v 0.999999 -4.713594E-09 2.116844E-07
v 0.9999996 0.01000036 2.499999
v 0.999999 0.009999996 2.112601E-07
v 0.9999996 3.604934E-07 2.499999
v 0.9999996 3.604934E-07 2.499999
v -1.742041E-06 0.01000036 2.5
v 0.9999996 0.01000036 2.499999
v -1.742041E-06 3.604935E-07 2.5
v 0.9999996 0.01000036 2.499999
v -7.256205E-07 0.009999996 -5.270201E-07
v 0.999999 0.009999996 2.112601E-07
v -1.742041E-06 0.01000036 2.5

vn -2.205372E-06 -7.105427E-15 -1
vn -2.205372E-06 -7.105427E-15 -1
vn -2.205372E-06 -7.105427E-15 -1
vn -2.205372E-06 -7.105427E-15 -1
vn 1 4.371139E-08 -2.205372E-06
vn 1 4.371139E-08 -2.205372E-06
vn 1 4.371139E-08 -2.205372E-06
vn 1 4.371139E-08 -2.205372E-06
vn -4.371139E-08 1 9.237056E-14
vn 7.561713E-08 1 -1.707932E-13
vn 7.561712E-08 1 -1.707932E-13
vn -4.371139E-08 1 9.237056E-14
vn 2.205372E-06 7.105427E-15 1
vn 2.205372E-06 7.105427E-15 1
vn 2.205372E-06 7.105427E-15 1
vn 2.205372E-06 7.105427E-15 1
vn 1 4.371139E-08 -2.205372E-06
vn 1 4.371139E-08 -2.205372E-06
vn 1 4.371139E-08 -2.205372E-06
vn 1 4.371139E-08 -2.205372E-06
vn -4.371139E-08 1 9.237056E-14
vn 7.561713E-08 1 -1.707932E-13
vn -4.371139E-08 1 9.237056E-14
vn 7.561712E-08 1 -1.707932E-13
vn -2.205372E-06 -7.105427E-15 -1
vn -2.205372E-06 -7.105427E-15 -1
vn -2.205372E-06 -7.105427E-15 -1
vn -2.205372E-06 -7.105427E-15 -1
vn -1 -4.371139E-08 2.205372E-06
vn -1 -4.371139E-08 2.205372E-06
vn -1 -4.371139E-08 2.205372E-06
vn -1 -4.371139E-08 2.205372E-06
vn 9.743243E-08 1 -2.189041E-13
vn 7.561713E-08 1 -1.707932E-13
vn 9.743241E-08 1 -2.18904E-13
vn 7.561712E-08 1 -1.707932E-13
vn 2.205372E-06 7.105427E-15 1
vn 2.205372E-06 7.105427E-15 1
vn 2.205372E-06 7.105427E-15 1
vn 2.205372E-06 7.105427E-15 1
vn -1 -4.371139E-08 2.205372E-06
vn -1 -4.371139E-08 2.205372E-06
vn -1 -4.371139E-08 2.205372E-06
vn -1 -4.371139E-08 2.205372E-06
vn 9.743243E-08 1 -2.189041E-13
vn 7.561713E-08 1 -1.707932E-13
vn 7.561712E-08 1 -1.707932E-13
vn 9.743241E-08 1 -2.18904E-13

vt 0.8935547 0.005001068
vt 0.894043 0.2318115
vt 0.894043 0.005001068
vt 0.8935547 0.2318115
vt 0.894043 0.2327881
vt 0.9848633 0.2318115
vt 0.894043 0.2318115
vt 0.9848633 0.2327881
vt 0.894043 0.2318115
vt 0.9848633 0.005001068
vt 0.894043 0.005001068
vt 0.9848633 0.2318115
vt 0.8935547 0.005001068
vt 0.894043 0.2318115
vt 0.8935547 0.2318115
vt 0.894043 0.005001068
vt 0.894043 0.2327881
vt 0.9848633 0.2318115
vt 0.9848633 0.2327881
vt 0.894043 0.2318115
vt 0.894043 0.2318115
vt 0.9848633 0.005001068
vt 0.9848633 0.2318115
vt 0.894043 0.005001068
vt 0.8935547 0.005001068
vt 0.894043 0.2318115
vt 0.8935547 0.2318115
vt 0.894043 0.005001068
vt 0.894043 0.2327881
vt 0.9848633 0.2318115
vt 0.9848633 0.2327881
vt 0.894043 0.2318115
vt 0.894043 0.2318115
vt 0.9848633 0.005001068
vt 0.9848633 0.2318115
vt 0.894043 0.005001068
vt 0.8935547 0.005001068
vt 0.894043 0.2318115
vt 0.894043 0.005001068
vt 0.8935547 0.2318115
vt 0.894043 0.2327881
vt 0.9848633 0.2318115
vt 0.894043 0.2318115
vt 0.9848633 0.2327881
vt 0.894043 0.2318115
vt 0.9848633 0.005001068
vt 0.894043 0.005001068
vt 0.9848633 0.2318115

g rug06_19278_355
usemtl rug06_19278_355
usemap rug06_19278_355
f 1/1/1 3/3/3 2/2/2
f 2/2/2 4/4/4 1/1/1
f 5/5/5 7/7/7 6/6/6
f 6/6/6 8/8/8 5/5/5
f 9/9/9 11/11/11 10/10/10
f 10/10/10 12/12/12 9/9/9
f 13/13/13 15/15/15 14/14/14
f 14/14/14 16/16/16 13/13/13
f 17/17/17 19/19/19 18/18/18
f 18/18/18 20/20/20 17/17/17
f 21/21/21 23/23/23 22/22/22
f 22/22/22 24/24/24 21/21/21
f 25/25/25 27/27/27 26/26/26
f 26/26/26 28/28/28 25/25/25
f 29/29/29 31/31/31 30/30/30
f 30/30/30 32/32/32 29/29/29
f 33/33/33 35/35/35 34/34/34
f 34/34/34 36/36/36 33/33/33
f 37/37/37 39/39/39 38/38/38
f 38/38/38 40/40/40 37/37/37
f 41/41/41 43/43/43 42/42/42
f 42/42/42 44/44/44 41/41/41
f 45/45/45 47/47/47 46/46/46
f 46/46/46 48/48/48 45/45/45
