#seats_9965_68.obj

v 0.759813 0.3493531 -0.4547758
v 0.7598131 0.5042998 -0.8131324
v 0.7598128 0.3493531 -0.8744707
v 0.7598127 0.541468 -0.4089002
v 0.7598128 0.3493531 -0.8744707
v 0.759812 1.049782 -0.9517542
v 0.7598126 0.6253613 -0.9099729
v 0.7598131 0.5042998 -0.8131324
v 0.759812 0.8162712 -1.163703
v 0.7598127 1.084927 -1.203843
v 6.328532E-06 1.084928 -1.203843
v 0.759812 1.049782 -0.9517542
v 7.456896E-06 1.049782 -0.9517546
v 0.7598127 1.084927 -1.203843
v -0.7597988 1.049782 -0.9517552
v -0.7597982 1.084927 -1.203844
v 6.377065E-06 0.541468 -0.4089007
v 0.759813 0.3493531 -0.4547758
v 6.653138E-06 0.3493531 -0.4547764
v 0.7598127 0.541468 -0.4089002
v -0.7597979 0.3493531 -0.4547768
v -0.7597982 0.541468 -0.4089012
v 0.7598127 1.084927 -1.203843
v 7.451914E-06 0.8162712 -1.163703
v 0.759812 0.8162712 -1.163703
v 6.328532E-06 1.084928 -1.203843
v -0.7597982 1.084927 -1.203844
v -0.7597988 0.8162712 -1.163704
v 0.7598131 0.5042998 -0.8131324
v 7.456896E-06 1.049782 -0.9517546
v 0.759812 1.049782 -0.9517542
v 6.764149E-06 0.5043001 -0.8131329
v -0.7597978 0.5042998 -0.8131334
v -0.7597988 1.049782 -0.9517552
v 0.7598127 0.541468 -0.4089002
v 6.764149E-06 0.5043001 -0.8131329
v 0.7598131 0.5042998 -0.8131324
v 6.377065E-06 0.541468 -0.4089007
v -0.7597982 0.541468 -0.4089012
v -0.7597978 0.5042998 -0.8131334
v -0.7597979 0.3493531 -0.4547768
v -0.7597978 0.5042998 -0.8131334
v -0.7597982 0.541468 -0.4089012
v -0.759798 0.3493531 -0.8744716
v -0.759798 0.3493531 -0.8744716
v -0.7597988 1.049782 -0.9517552
v -0.7597978 0.5042998 -0.8131334
v -0.7597983 0.6253613 -0.9099738
v -0.7597988 0.8162712 -1.163704
v -0.7597982 1.084927 -1.203844
v 0.7617999 0.3493531 0.5853121
v 0.6994448 0.5043001 0.1355989
v 0.761799 0.3493531 -0.04544103
v 0.6994457 0.541468 0.631187
v 0.7306986 0.9951847 -0.1343859
v 0.6994448 0.5043001 0.1355989
v 0.6790701 0.9941176 -0.01590393
v 0.761799 0.3493531 -0.04544103
v 0.3101438 1.113237 -0.1318604
v 0.5625596 1.111683 -0.02630124
v 0.3375231 1.111683 -0.02630148
v 0.5890408 1.113237 -0.1318612
v 0.2005648 0.541468 0.6311879
v 0.7617999 0.3493531 0.5853121
v 0.1404847 0.3493531 0.5853118
v 0.6994457 0.541468 0.631187
v 0.7306986 0.9951847 -0.1343859
v 0.1404855 0.3493531 -0.04544129
v 0.761799 0.3493531 -0.04544103
v 0.1684863 0.9951847 -0.1343864
v 0.3101438 1.113237 -0.1318604
v 0.5890408 1.113237 -0.1318612
v 0.6994448 0.5043001 0.1355989
v 0.2210122 0.9941176 -0.0159031
v 0.6790701 0.9941176 -0.01590393
v 0.2005638 0.5043001 0.1355998
v 0.5625596 1.111683 -0.02630124
v 0.3375231 1.111683 -0.02630148
v 0.6994457 0.541468 0.631187
v 0.2005638 0.5043001 0.1355998
v 0.6994448 0.5043001 0.1355989
v 0.2005648 0.541468 0.6311879
v 0.2005648 0.541468 0.6311879
v 0.1404855 0.3493531 -0.04544129
v 0.2005638 0.5043001 0.1355998
v 0.1404855 0.3493531 -0.04544129
v 0.2005648 0.541468 0.6311879
v 0.1404847 0.3493531 0.5853118
v 0.2005638 0.5043001 0.1355998
v 0.1684863 0.9951847 -0.1343864
v 0.2210122 0.9941176 -0.0159031
v 0.1684863 0.9951847 -0.1343864
v 0.2005638 0.5043001 0.1355998
v 0.1404855 0.3493531 -0.04544129
v 0.7306986 0.9951847 -0.1343859
v 0.5625596 1.111683 -0.02630124
v 0.5890408 1.113237 -0.1318612
v 0.5625596 1.111683 -0.02630124
v 0.7306986 0.9951847 -0.1343859
v 0.6790701 0.9941176 -0.01590393
v 0.2210122 0.9941176 -0.0159031
v 0.3101438 1.113237 -0.1318604
v 0.3375231 1.111683 -0.02630148
v 0.3101438 1.113237 -0.1318604
v 0.2210122 0.9941176 -0.0159031
v 0.1684863 0.9951847 -0.1343864
v -0.7617851 0.3493531 0.5853121
v -0.6994305 0.5043001 0.1355988
v -0.6994313 0.541468 0.6311868
v -0.7617843 0.3493531 -0.04544102
v -0.730684 0.9951847 -0.1343869
v -0.6994305 0.5043001 0.1355988
v -0.7617843 0.3493531 -0.04544102
v -0.6790552 0.9941176 -0.01590479
v -0.3101295 1.113237 -0.1318616
v -0.5625445 1.111683 -0.02630143
v -0.5890265 1.113237 -0.1318608
v -0.3375079 1.111683 -0.02630292
v -0.2005505 0.541468 0.6311876
v -0.7617851 0.3493531 0.5853121
v -0.6994313 0.541468 0.6311868
v -0.1404699 0.3493531 0.5853124
v -0.730684 0.9951847 -0.1343869
v -0.1404707 0.3493531 -0.0454425
v -0.1684717 0.9951847 -0.1343864
v -0.7617843 0.3493531 -0.04544102
v -0.3101295 1.113237 -0.1318616
v -0.5890265 1.113237 -0.1318608
v -0.6994305 0.5043001 0.1355988
v -0.2209975 0.9941176 -0.01590388
v -0.2005497 0.5043001 0.1355997
v -0.6790552 0.9941176 -0.01590479
v -0.5625445 1.111683 -0.02630143
v -0.3375079 1.111683 -0.02630292
v -0.6994313 0.541468 0.6311868
v -0.2005497 0.5043001 0.1355997
v -0.2005505 0.541468 0.6311876
v -0.6994305 0.5043001 0.1355988
v -0.2005505 0.541468 0.6311876
v -0.1404707 0.3493531 -0.0454425
v -0.1404699 0.3493531 0.5853124
v -0.1404707 0.3493531 -0.0454425
v -0.2005505 0.541468 0.6311876
v -0.2005497 0.5043001 0.1355997
v -0.2005497 0.5043001 0.1355997
v -0.1684717 0.9951847 -0.1343864
v -0.1404707 0.3493531 -0.0454425
v -0.1684717 0.9951847 -0.1343864
v -0.2005497 0.5043001 0.1355997
v -0.2209975 0.9941176 -0.01590388
v -0.730684 0.9951847 -0.1343869
v -0.5625445 1.111683 -0.02630143
v -0.6790552 0.9941176 -0.01590479
v -0.5625445 1.111683 -0.02630143
v -0.730684 0.9951847 -0.1343869
v -0.5890265 1.113237 -0.1318608
v -0.2209975 0.9941176 -0.01590388
v -0.3101295 1.113237 -0.1318616
v -0.1684717 0.9951847 -0.1343864
v -0.3101295 1.113237 -0.1318616
v -0.2209975 0.9941176 -0.01590388
v -0.3375079 1.111683 -0.02630292

vn 0.05756116 -1.900936E-07 0.9983419
vn 0.05756188 -5.909318E-07 0.9983419
vn 0.05756182 -7.649407E-07 0.9983419
vn 0.05756116 0 0.9983419
vn 0.05756182 -7.649407E-07 0.9983419
vn 0.05756165 -3.284306E-07 0.9983419
vn 0.05756805 -1.218819E-06 0.9983415
vn 0.05756188 -5.909318E-07 0.9983419
vn 0.05756146 -3.789029E-07 0.9983419
vn 0.05756178 0 0.9983419
vn -0.1378523 0.9904202 0.007948086
vn -0.1378518 0.9904203 0.007948196
vn -0.1378525 0.9904202 0.007948097
vn -0.1378516 0.9904203 0.007948246
vn -0.1378519 0.9904203 0.007947922
vn -0.1378517 0.9904203 0.007947849
vn -0.9710406 -0.232261 0.05598683
vn -0.9710406 -0.2322608 0.05598683
vn -0.9710406 -0.2322611 0.05598683
vn -0.9710406 -0.2322607 0.05598683
vn -0.9710406 -0.2322608 0.05598683
vn -0.9710406 -0.2322607 0.05598683
vn 0.9873816 -0.1477711 -0.05692899
vn 0.9873816 -0.1477711 -0.05692899
vn 0.9873816 -0.1477711 -0.05692899
vn 0.9873816 -0.1477711 -0.05692899
vn 0.9873816 -0.1477711 -0.05692899
vn 0.9873816 -0.1477711 -0.05692899
vn -0.9675871 0.2462978 0.0557877
vn -0.9675871 0.2462978 0.0557877
vn -0.9675871 0.2462978 0.0557877
vn -0.9675871 0.2462979 0.0557877
vn -0.9675871 0.2462978 0.0557877
vn -0.9675871 0.2462978 0.0557877
vn 0.09140931 0.9957988 -0.005270343
vn 0.0914093 0.9957988 -0.005270342
vn 0.09140935 0.9957988 -0.005270345
vn 0.09140925 0.9957988 -0.00527034
vn 0.09140939 0.9957988 -0.005270347
vn 0.09140942 0.9957988 -0.005270349
vn -0.05756116 -1.900936E-07 -0.9983419
vn -0.05756044 -5.909318E-07 -0.998342
vn -0.05756116 0 -0.9983419
vn -0.0575605 -7.649407E-07 -0.998342
vn -0.0575605 -7.649407E-07 -0.998342
vn -0.05756068 -3.284306E-07 -0.9983419
vn -0.05756044 -5.909318E-07 -0.998342
vn -0.05755427 -1.218819E-06 -0.9983423
vn -0.05756086 -3.789029E-07 -0.9983419
vn -0.05756054 0 -0.998342
vn 0.07325457 0.3256363 0.9426529
vn -0.06756932 0.2468907 0.9666846
vn -0.09700621 0.2100244 0.9728717
vn 0.07812689 0.313706 0.9463003
vn -0.3077991 0.1401131 0.9410779
vn -0.06756932 0.2468907 0.9666846
vn -0.3428209 0.1599627 0.9256811
vn -0.09700621 0.2100244 0.9728717
vn -0.01470193 0.9998909 0.0008476619
vn -0.01470225 0.9998909 0.0008474665
vn -0.01470173 0.9998909 0.0008476506
vn -0.0147024 0.9998909 0.0008474152
vn -0.9710408 -0.2322601 0.05598684
vn -0.9710408 -0.2322602 0.05598684
vn -0.9710408 -0.2322601 0.05598684
vn -0.9710408 -0.2322602 0.05598684
vn 0.9943565 -0.08926261 -0.05733101
vn 0.9890066 -0.1364333 -0.05702248
vn 0.9890066 -0.1364334 -0.05702231
vn 0.9943652 -0.08916512 -0.05733164
vn 0.9981135 0.0213867 -0.05754775
vn 0.9981135 0.02138669 -0.05754775
vn -0.9537606 0.295493 0.05499042
vn -0.9719839 0.228268 0.05604121
vn -0.9719848 0.228264 0.05604127
vn -0.9537607 0.2954931 0.05499038
vn -0.9944596 0.08810272 0.05733708
vn -0.9944596 0.08810268 0.05733708
vn 0.07466356 0.9971989 -0.004304841
vn 0.07466356 0.9971989 -0.004304841
vn 0.07466356 0.9971989 -0.004304842
vn 0.07466355 0.9971989 -0.004304841
vn -0.02368025 0.3909602 -0.9201027
vn -0.02368025 0.3909602 -0.9201027
vn -0.02368026 0.3909602 -0.9201027
vn -0.05493742 0.2984728 -0.9528356
vn -0.05493742 0.2984728 -0.9528356
vn -0.05493742 0.2984728 -0.9528356
vn -0.4523944 0.1617201 -0.8770325
vn -0.4523944 0.1617201 -0.8770325
vn -0.4523944 0.1617201 -0.8770325
vn -0.3092757 0.07681053 -0.9478653
vn -0.3092757 0.07681053 -0.9478653
vn -0.3092757 0.07681054 -0.9478653
vn -0.1331521 0.7555538 0.6414111
vn -0.1331521 0.7555539 0.6414111
vn -0.1331521 0.7555539 0.6414111
vn -0.2572614 0.6854435 0.6811631
vn -0.2572614 0.6854435 0.6811631
vn -0.2572614 0.6854435 0.6811631
vn -0.228379 0.6996076 -0.6770462
vn -0.228379 0.6996076 -0.6770462
vn -0.2283789 0.6996076 -0.6770462
vn -0.3154334 0.7349357 -0.6003088
vn -0.3154334 0.7349357 -0.6003087
vn -0.3154334 0.7349357 -0.6003087
vn -0.03557133 0.3256363 -0.9448256
vn -0.178224 0.2468907 -0.952513
vn -0.0311505 0.313706 -0.9490089
vn -0.208177 0.2100244 -0.955276
vn -0.4139189 0.1401131 -0.8994661
vn -0.178224 0.2468907 -0.952513
vn -0.208177 0.2100244 -0.955276
vn -0.4469391 0.1599627 -0.8801462
vn -0.01470193 0.9998909 0.0008476619
vn -0.01470223 0.9998909 0.0008478935
vn -0.01470237 0.9998909 0.0008479613
vn -0.01470173 0.9998909 0.0008476506
vn -0.9710408 -0.2322601 0.05598684
vn -0.9710408 -0.2322602 0.05598684
vn -0.9710408 -0.2322602 0.05598684
vn -0.9710408 -0.2322601 0.05598684
vn 0.9943565 -0.08926261 -0.05733126
vn 0.9890066 -0.1364333 -0.05702288
vn 0.9943652 -0.08916512 -0.05733164
vn 0.9890066 -0.1364334 -0.05702304
vn 0.9981135 0.0213867 -0.05754775
vn 0.9981135 0.02138669 -0.05754775
vn -0.9537606 0.295493 0.05499062
vn -0.9719839 0.228268 0.05604121
vn -0.9537607 0.2954931 0.05499067
vn -0.9719848 0.228264 0.05604127
vn -0.9944596 0.08810272 0.05733708
vn -0.9944596 0.08810268 0.05733708
vn 0.07466356 0.9971989 -0.004304841
vn 0.07466356 0.9971989 -0.004304841
vn 0.07466355 0.9971989 -0.004304841
vn 0.07466356 0.9971989 -0.004304842
vn 0.05493742 0.2984728 0.9528356
vn 0.05493742 0.2984728 0.9528356
vn 0.05493742 0.2984728 0.9528356
vn 0.08222541 0.3909602 0.9167272
vn 0.08222541 0.3909602 0.9167272
vn 0.08222541 0.3909602 0.9167272
vn -0.1982867 0.07681053 0.9771296
vn -0.1982867 0.07681053 0.9771296
vn -0.1982867 0.07681054 0.9771296
vn -0.3485979 0.1617201 0.9232149
vn -0.3485979 0.1617201 0.9232149
vn -0.348598 0.1617201 0.9232149
vn -0.3338437 0.6854435 -0.647082
vn -0.3338437 0.6854435 -0.647082
vn -0.3338437 0.6854435 -0.647082
vn -0.205988 0.7555539 -0.6218574
vn -0.205988 0.7555538 -0.6218574
vn -0.205988 0.7555539 -0.6218574
vn -0.2443488 0.7349357 0.6325838
vn -0.2443488 0.7349357 0.6325839
vn -0.2443488 0.7349357 0.6325838
vn -0.1490517 0.6996076 0.6988075
vn -0.1490517 0.6996076 0.6988075
vn -0.1490517 0.6996076 0.6988075

vt 0.6826172 0.875
vt 0.7104492 0.8798828
vt 0.7119141 0.8681641
vt 0.6826172 0.8891602
vt 0.6899414 0.9086914
vt 0.6826172 0.9584961
vt 0.6875 0.9282227
vt 0.6826172 0.9179688
vt 0.7016602 0.9458008
vt 0.699707 0.965332
vt 0.628418 0.9765625
vt 0.6826172 0.9584961
vt 0.628418 0.9584961
vt 0.6826172 0.9765625
vt 0.5742188 0.9584961
vt 0.5742188 0.9765625
vt 0.628418 0.8891602
vt 0.6826172 0.875
vt 0.628418 0.875
vt 0.6826172 0.8891602
vt 0.5742188 0.875
vt 0.5742188 0.8891602
vt 0.6826172 0.9765625
vt 0.628418 0.9960938
vt 0.6826172 0.9960938
vt 0.628418 0.9765625
vt 0.5742188 0.9765625
vt 0.5742188 0.9960938
vt 0.6826172 0.9179688
vt 0.628418 0.9584961
vt 0.6826172 0.9584961
vt 0.628418 0.9179688
vt 0.5742188 0.9179688
vt 0.5742188 0.9584961
vt 0.6826172 0.8891602
vt 0.628418 0.9179688
vt 0.6826172 0.9179688
vt 0.628418 0.8891602
vt 0.5742188 0.8891602
vt 0.5742188 0.9179688
vt 0.5742188 0.875
vt 0.5463867 0.8798828
vt 0.5742188 0.8891602
vt 0.5449219 0.8681641
vt 0.5668945 0.9086914
vt 0.5742188 0.9584961
vt 0.5742188 0.9179688
vt 0.5693359 0.9282227
vt 0.5551758 0.9458008
vt 0.5571289 0.965332
vt 0.5195313 0.8862305
vt 0.5078125 0.9169922
vt 0.5166016 0.9301758
vt 0.5078125 0.8823242
vt 0.5141602 0.9790039
vt 0.5078125 0.9399414
vt 0.5058594 0.9755859
vt 0.5234375 0.9360352
vt 0.4802246 0.9916992
vt 0.498291 0.9838867
vt 0.4821777 0.9838867
vt 0.5 0.9916992
vt 0.4726563 0.8823242
vt 0.512207 0.8706055
vt 0.4685059 0.8706055
vt 0.5078125 0.8823242
vt 0.7250977 0.9848633
vt 0.7666016 0.9414063
vt 0.7231445 0.9414063
vt 0.7646484 0.9848633
vt 0.7543945 0.9931641
vt 0.7348633 0.9931641
vt 0.5078125 0.9399414
vt 0.4743652 0.9755859
vt 0.5058594 0.9755859
vt 0.4729004 0.9399414
vt 0.498291 0.9838867
vt 0.4821777 0.9838867
vt 0.5078125 0.8823242
vt 0.4726563 0.9169922
vt 0.5078125 0.9169922
vt 0.4726563 0.8823242
vt 0.4726563 0.8823242
vt 0.4638672 0.9301758
vt 0.4726563 0.9169922
vt 0.4638672 0.9301758
vt 0.4726563 0.8823242
vt 0.4609375 0.8862305
vt 0.4729004 0.9399414
vt 0.4660645 0.9790039
vt 0.4743652 0.9755859
vt 0.4660645 0.9790039
vt 0.4729004 0.9399414
vt 0.4572754 0.9360352
vt 0.5141602 0.9790039
vt 0.498291 0.9838867
vt 0.5048828 0.9882813
vt 0.498291 0.9838867
vt 0.5141602 0.9790039
vt 0.5058594 0.9755859
vt 0.4743652 0.9755859
vt 0.4753418 0.9882813
vt 0.4821777 0.9838867
vt 0.4753418 0.9882813
vt 0.4743652 0.9755859
vt 0.4660645 0.9790039
vt 0.5195313 0.8862305
vt 0.5078125 0.9169922
vt 0.5078125 0.8823242
vt 0.5166016 0.9301758
vt 0.5141602 0.9790039
vt 0.5078125 0.9399414
vt 0.5234375 0.9360352
vt 0.5058594 0.9755859
vt 0.4802246 0.9916992
vt 0.498291 0.9838867
vt 0.5 0.9916992
vt 0.4821777 0.9838867
vt 0.4726563 0.8823242
vt 0.512207 0.8706055
vt 0.5078125 0.8823242
vt 0.4685059 0.8706055
vt 0.7250977 0.9848633
vt 0.7666016 0.9414063
vt 0.7646484 0.9848633
vt 0.7231445 0.9414063
vt 0.7543945 0.9931641
vt 0.7348633 0.9931641
vt 0.5078125 0.9399414
vt 0.4743652 0.9755859
vt 0.4729004 0.9399414
vt 0.5058594 0.9755859
vt 0.498291 0.9838867
vt 0.4821777 0.9838867
vt 0.5078125 0.8823242
vt 0.4726563 0.9169922
vt 0.4726563 0.8823242
vt 0.5078125 0.9169922
vt 0.4726563 0.8823242
vt 0.4638672 0.9301758
vt 0.4609375 0.8862305
vt 0.4638672 0.9301758
vt 0.4726563 0.8823242
vt 0.4726563 0.9169922
vt 0.4729004 0.9399414
vt 0.4660645 0.9790039
vt 0.4572754 0.9360352
vt 0.4660645 0.9790039
vt 0.4729004 0.9399414
vt 0.4743652 0.9755859
vt 0.5141602 0.9790039
vt 0.498291 0.9838867
vt 0.5058594 0.9755859
vt 0.498291 0.9838867
vt 0.5141602 0.9790039
vt 0.5048828 0.9882813
vt 0.4743652 0.9755859
vt 0.4753418 0.9882813
vt 0.4660645 0.9790039
vt 0.4753418 0.9882813
vt 0.4743652 0.9755859
vt 0.4821777 0.9838867

g seats_9965_68
usemtl seats_9965_68
usemap seats_9965_68
f 1/1/1 3/3/3 2/2/2
f 2/2/2 4/4/4 1/1/1
f 5/5/5 7/7/7 6/6/6
f 6/6/6 8/8/8 5/5/5
f 7/7/7 9/9/9 6/6/6
f 9/9/9 10/10/10 6/6/6
f 11/11/11 13/13/13 12/12/12
f 12/12/12 14/14/14 11/11/11
f 15/15/15 13/13/13 11/11/11
f 11/11/11 16/16/16 15/15/15
f 17/17/17 19/19/19 18/18/18
f 18/18/18 20/20/20 17/17/17
f 21/21/21 19/19/19 17/17/17
f 17/17/17 22/22/22 21/21/21
f 23/23/23 25/25/25 24/24/24
f 24/24/24 26/26/26 23/23/23
f 27/27/27 26/26/26 24/24/24
f 24/24/24 28/28/28 27/27/27
f 29/29/29 31/31/31 30/30/30
f 30/30/30 32/32/32 29/29/29
f 33/33/33 32/32/32 30/30/30
f 30/30/30 34/34/34 33/33/33
f 35/35/35 37/37/37 36/36/36
f 36/36/36 38/38/38 35/35/35
f 39/39/39 38/38/38 36/36/36
f 36/36/36 40/40/40 39/39/39
f 41/41/41 43/43/43 42/42/42
f 42/42/42 44/44/44 41/41/41
f 45/45/45 47/47/47 46/46/46
f 46/46/46 48/48/48 45/45/45
f 48/48/48 46/46/46 49/49/49
f 49/49/49 46/46/46 50/50/50
f 51/51/51 53/53/53 52/52/52
f 52/52/52 54/54/54 51/51/51
f 55/55/55 57/57/57 56/56/56
f 56/56/56 58/58/58 55/55/55
f 59/59/59 61/61/61 60/60/60
f 60/60/60 62/62/62 59/59/59
f 63/63/63 65/65/65 64/64/64
f 64/64/64 66/66/66 63/63/63
f 67/67/67 69/69/69 68/68/68
f 68/68/68 70/70/70 67/67/67
f 67/67/67 70/70/70 71/71/71
f 71/71/71 72/72/72 67/67/67
f 73/73/73 75/75/75 74/74/74
f 74/74/74 76/76/76 73/73/73
f 74/74/74 75/75/75 77/77/77
f 77/77/77 78/78/78 74/74/74
f 79/79/79 81/81/81 80/80/80
f 80/80/80 82/82/82 79/79/79
f 83/83/83 85/85/85 84/84/84
f 86/86/86 88/88/88 87/87/87
f 89/89/89 91/91/91 90/90/90
f 92/92/92 94/94/94 93/93/93
f 95/95/95 97/97/97 96/96/96
f 98/98/98 100/100/100 99/99/99
f 101/101/101 103/103/103 102/102/102
f 104/104/104 106/106/106 105/105/105
f 107/107/107 109/109/109 108/108/108
f 108/108/108 110/110/110 107/107/107
f 111/111/111 113/113/113 112/112/112
f 112/112/112 114/114/114 111/111/111
f 115/115/115 117/117/117 116/116/116
f 116/116/116 118/118/118 115/115/115
f 119/119/119 121/121/121 120/120/120
f 120/120/120 122/122/122 119/119/119
f 123/123/123 125/125/125 124/124/124
f 124/124/124 126/126/126 123/123/123
f 127/127/127 125/125/125 123/123/123
f 123/123/123 128/128/128 127/127/127
f 129/129/129 131/131/131 130/130/130
f 130/130/130 132/132/132 129/129/129
f 133/133/133 132/132/132 130/130/130
f 130/130/130 134/134/134 133/133/133
f 135/135/135 137/137/137 136/136/136
f 136/136/136 138/138/138 135/135/135
f 139/139/139 141/141/141 140/140/140
f 142/142/142 144/144/144 143/143/143
f 145/145/145 147/147/147 146/146/146
f 148/148/148 150/150/150 149/149/149
f 151/151/151 153/153/153 152/152/152
f 154/154/154 156/156/156 155/155/155
f 157/157/157 159/159/159 158/158/158
f 160/160/160 162/162/162 161/161/161
