#seats_8953_694.obj

v 0.8175889 0.5200161 1.555206
v 0.7552371 0.783447 1.209309
v 0.8175902 0.5200161 1.02827
v 0.7552366 0.8206149 1.601081
v 0.7864895 1.274332 0.9393244
v 0.7552371 0.783447 1.209309
v 0.73486 1.273265 1.057806
v 0.8175902 0.5200161 1.02827
v 0.3659346 1.392384 0.9418489
v 0.6183499 1.390829 1.047409
v 0.3933145 1.390829 1.047408
v 0.644833 1.392384 0.9418489
v 0.2563542 0.8206149 1.601081
v 0.8175889 0.5200161 1.555206
v 0.1962746 0.5200161 1.555207
v 0.7552366 0.8206149 1.601081
v 0.7864895 1.274332 0.9393244
v 0.1962753 0.5200161 1.028268
v 0.8175902 0.5200161 1.02827
v 0.2242777 1.274332 0.939324
v 0.3659346 1.392384 0.9418489
v 0.644833 1.392384 0.9418489
v 0.7552371 0.783447 1.209309
v 0.2768022 1.273264 1.057807
v 0.73486 1.273265 1.057806
v 0.2563547 0.783447 1.209309
v 0.6183499 1.390829 1.047409
v 0.3933145 1.390829 1.047408
v 0.7552366 0.8206149 1.601081
v 0.2563547 0.783447 1.209309
v 0.7552371 0.783447 1.209309
v 0.2563542 0.8206149 1.601081
v 0.2563542 0.8206149 1.601081
v 0.1962753 0.5200161 1.028268
v 0.2563547 0.783447 1.209309
v 0.2563542 0.8206149 1.601081
v 0.1962746 0.5200161 1.555207
v 0.2563547 0.783447 1.209309
v 0.2242777 1.274332 0.939324
v 0.2768022 1.273264 1.057807
v 0.2242777 1.274332 0.939324
v 0.2563547 0.783447 1.209309
v 0.1962753 0.5200161 1.028268
v 0.7864895 1.274332 0.9393244
v 0.6183499 1.390829 1.047409
v 0.644833 1.392384 0.9418489
v 0.6183499 1.390829 1.047409
v 0.7864895 1.274332 0.9393244
v 0.73486 1.273265 1.057806
v 0.2768022 1.273264 1.057807
v 0.3659346 1.392384 0.9418489
v 0.3933145 1.390829 1.047408
v 0.3659346 1.392384 0.9418489
v 0.2768022 1.273264 1.057807
v 0.2242777 1.274332 0.939324
v -0.8175787 0.5200161 1.555206
v -0.7552257 0.783447 1.20931
v -0.755223 0.8206149 1.601081
v -0.8175775 0.5200161 1.028269
v -0.786478 1.274332 0.9393244
v -0.7552257 0.783447 1.20931
v -0.8175775 0.5200161 1.028269
v -0.7348504 1.273265 1.057807
v -0.3659227 1.392384 0.9418493
v -0.6183381 1.390829 1.047408
v -0.6448212 1.392384 0.9418493
v -0.3933027 1.390829 1.047408
v -0.2563443 0.8206149 1.60108
v -0.8175787 0.5200161 1.555206
v -0.755223 0.8206149 1.601081
v -0.1962644 0.5200161 1.555205
v -0.786478 1.274332 0.9393244
v -0.1962631 0.5200161 1.028269
v -0.2242662 1.274332 0.9393247
v -0.8175775 0.5200161 1.028269
v -0.3659227 1.392384 0.9418493
v -0.6448212 1.392384 0.9418493
v -0.7552257 0.783447 1.20931
v -0.2767921 1.273264 1.057807
v -0.2563432 0.783447 1.20931
v -0.7348504 1.273265 1.057807
v -0.6183381 1.390829 1.047408
v -0.3933027 1.390829 1.047408
v -0.755223 0.8206149 1.601081
v -0.2563432 0.783447 1.20931
v -0.2563443 0.8206149 1.60108
v -0.7552257 0.783447 1.20931
v -0.2563443 0.8206149 1.60108
v -0.1962631 0.5200161 1.028269
v -0.1962644 0.5200161 1.555205
v -0.2563443 0.8206149 1.60108
v -0.2563432 0.783447 1.20931
v -0.2563432 0.783447 1.20931
v -0.2242662 1.274332 0.9393247
v -0.1962631 0.5200161 1.028269
v -0.2242662 1.274332 0.9393247
v -0.2563432 0.783447 1.20931
v -0.2767921 1.273264 1.057807
v -0.786478 1.274332 0.9393244
v -0.6183381 1.390829 1.047408
v -0.7348504 1.273265 1.057807
v -0.6183381 1.390829 1.047408
v -0.786478 1.274332 0.9393244
v -0.6448212 1.392384 0.9418493
v -0.2767921 1.273264 1.057807
v -0.3659227 1.392384 0.9418493
v -0.2242662 1.274332 0.9393247
v -0.3659227 1.392384 0.9418493
v -0.2767921 1.273264 1.057807
v -0.3933027 1.390829 1.047408

vn 0.2809796 0.2153802 -0.9352335
vn 0.4115331 0.1515851 -0.8987003
vn 0.3906599 0.1626318 -0.9060551
vn 0.2743555 0.2059281 -0.9393203
vn 0.6147277 0.1356871 -0.7769805
vn 0.4115331 0.1515851 -0.8987003
vn 0.6482296 0.159962 -0.7444532
vn 0.3906599 0.1626318 -0.9060551
vn 0.01404992 0.9998906 0.004410137
vn 0.01405044 0.9998905 0.004410577
vn 0.01404959 0.9998906 0.004409863
vn 0.01405068 0.9998905 0.004410776
vn 0.9431845 -0.1508659 0.2960452
vn 0.9431846 -0.1508657 0.296045
vn 0.9431845 -0.150866 0.2960452
vn 0.9431847 -0.1508655 0.2960449
vn -0.9513793 -0.07553572 -0.2986172
vn -0.9475407 -0.1171026 -0.2974123
vn -0.9475407 -0.1171026 -0.2974122
vn -0.9513846 -0.07546216 -0.2986189
vn -0.9538869 0.02138442 -0.2994043
vn -0.9538868 0.02138481 -0.2994044
vn 0.9114995 0.2954924 0.2860998
vn 0.9289153 0.2282666 0.2915663
vn 0.9289163 0.2282624 0.2915667
vn 0.9114995 0.2954924 0.2860998
vn 0.9503951 0.08809999 0.2983083
vn 0.950395 0.08810034 0.2983084
vn -0.09011208 0.9955289 -0.02828423
vn -0.09011207 0.9955289 -0.02828422
vn -0.09011208 0.9955289 -0.02828423
vn -0.09011207 0.9955289 -0.02828422
vn -0.3123128 0.2369595 0.9199515
vn -0.3123128 0.2369595 0.9199515
vn -0.3123128 0.2369595 0.9199515
vn -0.2936644 0.1959922 0.9356006
vn -0.2936644 0.1959922 0.9356006
vn 0.1127465 0.1617228 0.9803745
vn 0.1127464 0.1617228 0.9803744
vn 0.1127464 0.1617228 0.9803744
vn -0.07108702 0.06320273 0.9954658
vn -0.07108699 0.06320273 0.9954658
vn -0.07108702 0.06320273 0.9954658
vn 0.3515221 0.7555548 -0.5527821
vn 0.3515221 0.7555547 -0.5527821
vn 0.3515221 0.7555548 -0.5527821
vn 0.481675 0.6854406 -0.5460396
vn 0.481675 0.6854406 -0.5460398
vn 0.481675 0.6854406 -0.5460398
vn -0.02600986 0.6996056 0.7140551
vn -0.02600986 0.6996055 0.7140552
vn -0.02600986 0.6996056 0.7140551
vn 0.08257869 0.7349372 0.6730878
vn 0.08257867 0.7349373 0.6730877
vn 0.08257869 0.7349373 0.6730876
vn -0.3038641 0.2153801 0.9280506
vn -0.1758507 0.151585 0.9726759
vn -0.3116354 0.2059281 0.9276189
vn -0.1971829 0.1626317 0.9667833
vn 0.06045482 0.1356871 0.9889056
vn -0.1758507 0.151585 0.9726759
vn -0.1971829 0.1626317 0.9667833
vn 0.1065354 0.159962 0.9813576
vn 0.01405002 0.9998906 0.004409824
vn 0.0140507 0.9998905 0.004409761
vn 0.014051 0.9998905 0.004409732
vn 0.01404959 0.9998906 0.004409863
vn 0.9431845 -0.1508657 0.2960452
vn 0.9431846 -0.1508659 0.296045
vn 0.9431846 -0.1508661 0.2960449
vn 0.9431846 -0.1508655 0.2960452
vn -0.9513793 -0.07553579 -0.2986172
vn -0.9475407 -0.1171026 -0.2974123
vn -0.9513846 -0.07546201 -0.2986189
vn -0.9475407 -0.1171027 -0.2974122
vn -0.9538869 0.02138463 -0.2994043
vn -0.9538868 0.02138416 -0.2994044
vn 0.9114995 0.2954924 0.2860997
vn 0.9289153 0.2282665 0.2915662
vn 0.9114995 0.2954924 0.2860998
vn 0.9289163 0.2282625 0.2915664
vn 0.9503951 0.08810017 0.2983083
vn 0.9503952 0.0880997 0.2983084
vn -0.09011207 0.9955289 -0.02828422
vn -0.09011207 0.9955289 -0.02828422
vn -0.09011208 0.9955289 -0.02828423
vn -0.09011207 0.9955289 -0.02828422
vn 0.2936644 0.1959921 -0.9356006
vn 0.2936644 0.1959921 -0.9356006
vn 0.2936644 0.1959921 -0.9356006
vn 0.2694181 0.2369594 -0.9334152
vn 0.2694181 0.2369594 -0.9334152
vn 0.5105289 0.06320271 -0.8575347
vn 0.5105289 0.06320271 -0.8575347
vn 0.5105288 0.06320271 -0.8575347
vn 0.6527646 0.1617229 -0.7400972
vn 0.6527646 0.1617228 -0.7400972
vn 0.6527645 0.1617229 -0.7400972
vn 0.08324003 0.6854407 0.7233541
vn 0.08324003 0.6854407 0.7233541
vn 0.08324 0.6854407 0.7233541
vn -0.02742054 0.7555549 0.6545104
vn -0.02742052 0.7555549 0.6545104
vn -0.02742049 0.755555 0.6545104
vn 0.4524071 0.7349371 -0.5051675
vn 0.4524071 0.7349371 -0.5051675
vn 0.4524071 0.7349371 -0.5051675
vn 0.3867069 0.6996056 -0.6008402
vn 0.386707 0.6996055 -0.6008402
vn 0.3867069 0.6996055 -0.6008402

vt 0.5244141 0.8862305
vt 0.512207 0.9169922
vt 0.5209961 0.9301758
vt 0.512207 0.8823242
vt 0.519043 0.9790039
vt 0.512207 0.9399414
vt 0.5107422 0.9755859
vt 0.527832 0.9360352
vt 0.4848633 0.9916992
vt 0.5029297 0.9838867
vt 0.4868164 0.9838867
vt 0.5048828 0.9916992
vt 0.4775391 0.8823242
vt 0.5166016 0.8706055
vt 0.4731445 0.8706055
vt 0.512207 0.8823242
vt 0.434082 0.8120117
vt 0.4777832 0.8535156
vt 0.4777832 0.8100586
vt 0.434082 0.8515625
vt 0.4257813 0.8417969
vt 0.4257813 0.8222656
vt 0.512207 0.9399414
vt 0.479248 0.9755859
vt 0.5107422 0.9755859
vt 0.4775391 0.9399414
vt 0.5029297 0.9838867
vt 0.4868164 0.9838867
vt 0.512207 0.8823242
vt 0.4775391 0.9169922
vt 0.512207 0.9169922
vt 0.4775391 0.8823242
vt 0.4775391 0.8823242
vt 0.4685059 0.9301758
vt 0.4775391 0.9169922
vt 0.4775391 0.8823242
vt 0.4655762 0.8862305
vt 0.4775391 0.9399414
vt 0.4707031 0.9790039
vt 0.479248 0.9755859
vt 0.4707031 0.9790039
vt 0.4775391 0.9399414
vt 0.4621582 0.9360352
vt 0.519043 0.9790039
vt 0.5029297 0.9838867
vt 0.5097656 0.9882813
vt 0.5029297 0.9838867
vt 0.519043 0.9790039
vt 0.5107422 0.9755859
vt 0.479248 0.9755859
vt 0.4799805 0.9882813
vt 0.4868164 0.9838867
vt 0.4799805 0.9882813
vt 0.479248 0.9755859
vt 0.4707031 0.9790039
vt 0.5244141 0.8862305
vt 0.512207 0.9169922
vt 0.512207 0.8823242
vt 0.5209961 0.9301758
vt 0.519043 0.9790039
vt 0.512207 0.9399414
vt 0.527832 0.9360352
vt 0.5107422 0.9755859
vt 0.4848633 0.9916992
vt 0.5029297 0.9838867
vt 0.5048828 0.9916992
vt 0.4868164 0.9838867
vt 0.4775391 0.8823242
vt 0.5166016 0.8706055
vt 0.512207 0.8823242
vt 0.4731445 0.8706055
vt 0.434082 0.8120117
vt 0.4777832 0.8535156
vt 0.434082 0.8515625
vt 0.4777832 0.8100586
vt 0.4257813 0.8417969
vt 0.4257813 0.8222656
vt 0.512207 0.9399414
vt 0.479248 0.9755859
vt 0.4775391 0.9399414
vt 0.5107422 0.9755859
vt 0.5029297 0.9838867
vt 0.4868164 0.9838867
vt 0.512207 0.8823242
vt 0.4775391 0.9169922
vt 0.4775391 0.8823242
vt 0.512207 0.9169922
vt 0.4775391 0.8823242
vt 0.4685059 0.9301758
vt 0.4655762 0.8862305
vt 0.4775391 0.8823242
vt 0.4775391 0.9169922
vt 0.4775391 0.9399414
vt 0.4707031 0.9790039
vt 0.4621582 0.9360352
vt 0.4707031 0.9790039
vt 0.4775391 0.9399414
vt 0.479248 0.9755859
vt 0.519043 0.9790039
vt 0.5029297 0.9838867
vt 0.5107422 0.9755859
vt 0.5029297 0.9838867
vt 0.519043 0.9790039
vt 0.5097656 0.9882813
vt 0.479248 0.9755859
vt 0.4799805 0.9882813
vt 0.4707031 0.9790039
vt 0.4799805 0.9882813
vt 0.479248 0.9755859
vt 0.4868164 0.9838867

g seats_8953_694
usemtl seats_8953_694
usemap seats_8953_694
f 1/1/1 3/3/3 2/2/2
f 2/2/2 4/4/4 1/1/1
f 5/5/5 7/7/7 6/6/6
f 6/6/6 8/8/8 5/5/5
f 9/9/9 11/11/11 10/10/10
f 10/10/10 12/12/12 9/9/9
f 13/13/13 15/15/15 14/14/14
f 14/14/14 16/16/16 13/13/13
f 17/17/17 19/19/19 18/18/18
f 18/18/18 20/20/20 17/17/17
f 17/17/17 20/20/20 21/21/21
f 21/21/21 22/22/22 17/17/17
f 23/23/23 25/25/25 24/24/24
f 24/24/24 26/26/26 23/23/23
f 24/24/24 25/25/25 27/27/27
f 27/27/27 28/28/28 24/24/24
f 29/29/29 31/31/31 30/30/30
f 30/30/30 32/32/32 29/29/29
f 33/33/33 35/35/35 34/34/34
f 34/34/34 37/37/37 36/36/36
f 38/38/38 40/40/40 39/39/39
f 41/41/41 43/43/43 42/42/42
f 44/44/44 46/46/46 45/45/45
f 47/47/47 49/49/49 48/48/48
f 50/50/50 52/52/52 51/51/51
f 53/53/53 55/55/55 54/54/54
f 56/56/56 58/58/58 57/57/57
f 57/57/57 59/59/59 56/56/56
f 60/60/60 62/62/62 61/61/61
f 61/61/61 63/63/63 60/60/60
f 64/64/64 66/66/66 65/65/65
f 65/65/65 67/67/67 64/64/64
f 68/68/68 70/70/70 69/69/69
f 69/69/69 71/71/71 68/68/68
f 72/72/72 74/74/74 73/73/73
f 73/73/73 75/75/75 72/72/72
f 76/76/76 74/74/74 72/72/72
f 72/72/72 77/77/77 76/76/76
f 78/78/78 80/80/80 79/79/79
f 79/79/79 81/81/81 78/78/78
f 82/82/82 81/81/81 79/79/79
f 79/79/79 83/83/83 82/82/82
f 84/84/84 86/86/86 85/85/85
f 85/85/85 87/87/87 84/84/84
f 88/88/88 90/90/90 89/89/89
f 89/89/89 92/92/92 91/91/91
f 93/93/93 95/95/95 94/94/94
f 96/96/96 98/98/98 97/97/97
f 99/99/99 101/101/101 100/100/100
f 102/102/102 104/104/104 103/103/103
f 105/105/105 107/107/107 106/106/106
f 108/108/108 110/110/110 109/109/109
