#seats_9296_597.obj

v 0.6899862 0.316874 0.7943506
v 0.6899881 0.5414214 0.4135246
v 0.6899885 0.3168741 0.1803571
v 0.6899881 0.5785896 0.8402237
v 0.6899859 1.092514 0.07483935
v 0.6899881 0.5414214 0.4135246
v 0.6899867 1.057369 0.274907
v 0.6899885 0.3168741 0.1803571
v 1.087357E-05 1.092514 0.07484196
v 0.6899867 1.057369 0.274907
v 8.526118E-06 1.057369 0.2749033
v 0.6899859 1.092514 0.07483935
v -0.6899666 1.057369 0.2749059
v -0.6899674 1.092514 0.07484455
v 9.878032E-06 0.5785896 0.8402263
v 0.6899862 0.316874 0.7943506
v 1.10779E-05 0.316874 0.7943532
v 0.6899881 0.5785896 0.8402237
v -0.6899671 0.316874 0.7943495
v -0.6899683 0.5785896 0.8402289
v 0.6899859 1.092514 0.07483935
v 1.026545E-05 0.3168741 0.1803597
v 0.6899885 0.3168741 0.1803571
v 1.087357E-05 1.092514 0.07484196
v 0.6899881 0.5414214 0.4135246
v 8.526118E-06 1.057369 0.2749033
v 0.6899867 1.057369 0.274907
v 9.888545E-06 0.5414214 0.4135272
v -0.6899683 0.5414214 0.4135297
v -0.6899666 1.057369 0.2749059
v 0.6899881 0.5785896 0.8402237
v 9.888545E-06 0.5414214 0.4135272
v 0.6899881 0.5414214 0.4135246
v 9.878032E-06 0.5785896 0.8402263
v -0.6899683 0.5785896 0.8402289
v -0.6899683 0.5414214 0.4135297
v -0.6899671 0.316874 0.7943495
v -0.6899683 0.5414214 0.4135297
v -0.6899683 0.5785896 0.8402289
v -0.689968 0.3168741 0.1803623
v -0.6899674 1.092514 0.07484455
v -0.6899683 0.5414214 0.4135297
v -0.689968 0.3168741 0.1803623
v -0.6899666 1.057369 0.2749059
v -0.6899674 1.092514 0.07484455
v 1.026545E-05 0.3168741 0.1803597
v 1.087357E-05 1.092514 0.07484196
v -0.689968 0.3168741 0.1803623

vn 0.9999702 8.881777E-15 -0.0077179
vn 0.9999702 8.881777E-15 -0.0077179
vn 0.9999702 8.881777E-15 -0.0077179
vn 0.9999702 8.881777E-15 -0.0077179
vn 0.9999702 8.881777E-15 -0.0077179
vn 0.9999702 8.881777E-15 -0.0077179
vn 0.9999702 8.881777E-15 -0.0077179
vn 0.9999702 8.881777E-15 -0.0077179
vn 0.001335403 0.9849173 0.173016
vn 0.001335403 0.9849173 0.173016
vn 0.001335403 0.9849173 0.173016
vn 0.001335403 0.9849173 0.173016
vn 0.001335403 0.9849173 0.173016
vn 0.001335403 0.9849173 0.173016
vn 0.007602241 -0.1726546 0.9849531
vn 0.007602241 -0.1726546 0.9849531
vn 0.007602241 -0.1726546 0.9849531
vn 0.007602241 -0.1726546 0.9849531
vn 0.007602241 -0.1726546 0.9849531
vn 0.007602241 -0.1726546 0.9849531
vn -0.007647605 -0.1347972 -0.9908436
vn -0.007647706 -0.1347973 -0.9908436
vn -0.007647487 -0.1347973 -0.9908436
vn -0.007647706 -0.1347972 -0.9908436
vn 0.007453808 0.2594715 0.965722
vn 0.007453808 0.2594715 0.965722
vn 0.007453808 0.2594715 0.965722
vn 0.007453808 0.2594715 0.965722
vn 0.007453808 0.2594715 0.965722
vn 0.007453808 0.2594715 0.965722
vn -0.0006697623 0.9962268 -0.086775
vn -0.0006697623 0.9962268 -0.086775
vn -0.0006697623 0.9962268 -0.086775
vn -0.0006697623 0.9962268 -0.086775
vn -0.0006697623 0.9962268 -0.086775
vn -0.0006697623 0.9962268 -0.086775
vn -0.9999702 -8.881777E-15 0.0077179
vn -0.9999702 -8.881777E-15 0.0077179
vn -0.9999702 -8.881777E-15 0.0077179
vn -0.9999702 -8.881777E-15 0.0077179
vn -0.9999702 -8.881777E-15 0.0077179
vn -0.9999702 -8.881777E-15 0.0077179
vn -0.9999702 -8.881777E-15 0.0077179
vn -0.9999702 -8.881777E-15 0.0077179
vn -0.007647807 -0.1347972 -0.9908436
vn -0.007647706 -0.1347973 -0.9908436
vn -0.007647706 -0.1347972 -0.9908436
vn -0.007647925 -0.1347973 -0.9908436

vt 0.6767578 0.887207
vt 0.6635742 0.9106445
vt 0.6738281 0.9262695
vt 0.6635742 0.8833008
vt 0.671875 0.9804688
vt 0.6601563 0.9404297
vt 0.6601563 0.9746094
vt 0.6777344 0.9335938
vt 0.6157227 0.987793
vt 0.6601563 0.9746094
vt 0.6157227 0.9746094
vt 0.6601563 0.987793
vt 0.5712891 0.9746094
vt 0.5712891 0.987793
vt 0.6191406 0.8833008
vt 0.6635742 0.8691406
vt 0.6191406 0.8691406
vt 0.6635742 0.8833008
vt 0.574707 0.8691406
vt 0.574707 0.8833008
vt 0.6166992 0.9873047
vt 0.6552734 0.9750977
vt 0.6166992 0.9750977
vt 0.6552734 0.9873047
vt 0.6601563 0.9404297
vt 0.6157227 0.9746094
vt 0.6601563 0.9746094
vt 0.6157227 0.9404297
vt 0.5712891 0.9404297
vt 0.5712891 0.9746094
vt 0.6635742 0.8833008
vt 0.6191406 0.9106445
vt 0.6635742 0.9106445
vt 0.6191406 0.8833008
vt 0.574707 0.8833008
vt 0.574707 0.9106445
vt 0.5615234 0.887207
vt 0.574707 0.9106445
vt 0.574707 0.8833008
vt 0.5644531 0.9262695
vt 0.5595703 0.9804688
vt 0.5712891 0.9404297
vt 0.5541992 0.9335938
vt 0.5712891 0.9746094
vt 0.6166992 0.9873047
vt 0.6552734 0.9750977
vt 0.6552734 0.9873047
vt 0.6166992 0.9750977

g seats_9296_597
usemtl seats_9296_597
usemap seats_9296_597
f 1/1/1 3/3/3 2/2/2
f 2/2/2 4/4/4 1/1/1
f 5/5/5 7/7/7 6/6/6
f 6/6/6 8/8/8 5/5/5
f 9/9/9 11/11/11 10/10/10
f 10/10/10 12/12/12 9/9/9
f 13/13/13 11/11/11 9/9/9
f 9/9/9 14/14/14 13/13/13
f 15/15/15 17/17/17 16/16/16
f 16/16/16 18/18/18 15/15/15
f 19/19/19 17/17/17 15/15/15
f 15/15/15 20/20/20 19/19/19
f 21/21/21 23/23/23 22/22/22
f 22/22/22 24/24/24 21/21/21
f 25/25/25 27/27/27 26/26/26
f 26/26/26 28/28/28 25/25/25
f 29/29/29 28/28/28 26/26/26
f 26/26/26 30/30/30 29/29/29
f 31/31/31 33/33/33 32/32/32
f 32/32/32 34/34/34 31/31/31
f 35/35/35 34/34/34 32/32/32
f 32/32/32 36/36/36 35/35/35
f 37/37/37 39/39/39 38/38/38
f 38/38/38 40/40/40 37/37/37
f 41/41/41 43/43/43 42/42/42
f 42/42/42 44/44/44 41/41/41
f 45/45/45 47/47/47 46/46/46
f 46/46/46 48/48/48 45/45/45
