#seats_10125_612.obj

v 0.6900035 0.3168741 0.7943343
v 0.6900042 0.5414212 0.4135117
v 0.6900034 0.316874 0.1803454
v 0.6900049 0.5785896 0.8402131
v 0.6900056 1.092514 0.07482678
v 0.6900042 0.5414212 0.4135117
v 0.690006 1.057369 0.2748922
v 0.6900034 0.316874 0.1803454
v 2.719671E-05 1.092514 0.07482708
v 0.690006 1.057369 0.2748922
v 2.872185E-05 1.057369 0.2748892
v 0.6900056 1.092514 0.07482678
v -0.6899497 1.057369 0.2748894
v -0.6899478 1.092514 0.07482855
v 2.774822E-05 0.5785896 0.84021
v 0.6900035 0.3168741 0.7943343
v 2.849886E-05 0.3168741 0.7943358
v 0.6900049 0.5785896 0.8402131
v -0.6899499 0.3168741 0.7943361
v -0.6899506 0.5785896 0.8402103
v 0.6900056 1.092514 0.07482678
v 2.956904E-05 0.316874 0.1803435
v 0.6900034 0.316874 0.1803454
v 2.719671E-05 1.092514 0.07482708
v 0.6900042 0.5414212 0.4135117
v 2.872185E-05 1.057369 0.2748892
v 0.690006 1.057369 0.2748922
v 2.917126E-05 0.5414212 0.4135132
v -0.6899492 0.5414212 0.4135135
v -0.6899497 1.057369 0.2748894
v 0.6900049 0.5785896 0.8402131
v 2.917126E-05 0.5414212 0.4135132
v 0.6900042 0.5414212 0.4135117
v 2.774822E-05 0.5785896 0.84021
v -0.6899506 0.5785896 0.8402103
v -0.6899492 0.5414212 0.4135135
v -0.6899499 0.3168741 0.7943361
v -0.6899492 0.5414212 0.4135135
v -0.6899506 0.5785896 0.8402103
v -0.6899488 0.316874 0.1803438
v -0.6899478 1.092514 0.07482855
v -0.6899492 0.5414212 0.4135135
v -0.6899488 0.316874 0.1803438
v -0.6899497 1.057369 0.2748894
v -0.6899478 1.092514 0.07482855
v 2.956904E-05 0.316874 0.1803435
v 2.719671E-05 1.092514 0.07482708
v -0.6899488 0.316874 0.1803438

vn 0.3285966 -1.421084E-14 0.9444704
vn 0.3285966 -1.421084E-14 0.9444704
vn 0.3285966 -1.421084E-14 0.9444704
vn 0.3285966 -1.421084E-14 0.9444704
vn 0.3285966 -1.421084E-14 0.9444704
vn 0.3285966 -1.421084E-14 0.9444704
vn 0.3285966 -1.421084E-14 0.9444704
vn 0.3285966 -1.421084E-14 0.9444704
vn -0.1634133 0.984917 0.05685409
vn -0.1634133 0.984917 0.05685409
vn -0.1634133 0.984917 0.0568541
vn -0.1634133 0.984917 0.0568541
vn -0.1634133 0.984917 0.05685409
vn -0.1634133 0.984917 0.0568541
vn -0.9302866 -0.1726545 0.3236616
vn -0.9302866 -0.1726545 0.3236616
vn -0.9302866 -0.1726545 0.3236616
vn -0.9302866 -0.1726545 0.3236616
vn -0.9302866 -0.1726545 0.3236616
vn -0.9302866 -0.1726545 0.3236616
vn 0.9358503 -0.1347972 -0.3255971
vn 0.9358502 -0.1347972 -0.3255972
vn 0.9358503 -0.1347973 -0.325597
vn 0.9358502 -0.1347971 -0.3255972
vn -0.9121229 0.2594714 0.3173421
vn -0.9121229 0.2594714 0.3173421
vn -0.9121229 0.2594714 0.3173421
vn -0.9121229 0.2594714 0.3173421
vn -0.9121229 0.2594714 0.3173421
vn -0.9121229 0.2594714 0.3173421
vn 0.08195885 0.9962265 -0.02851479
vn 0.08195885 0.9962265 -0.02851479
vn 0.08195885 0.9962265 -0.02851479
vn 0.08195885 0.9962265 -0.02851479
vn 0.08195885 0.9962265 -0.02851479
vn 0.08195885 0.9962265 -0.02851479
vn -0.3285966 1.421084E-14 -0.9444704
vn -0.3285966 1.421084E-14 -0.9444704
vn -0.3285966 1.421084E-14 -0.9444704
vn -0.3285966 1.421084E-14 -0.9444704
vn -0.3285966 1.421084E-14 -0.9444704
vn -0.3285966 1.421084E-14 -0.9444704
vn -0.3285966 1.421084E-14 -0.9444704
vn -0.3285966 1.421084E-14 -0.9444704
vn 0.9358502 -0.1347972 -0.3255973
vn 0.9358502 -0.1347972 -0.3255972
vn 0.9358502 -0.1347971 -0.3255972
vn 0.9358501 -0.1347973 -0.3255974

vt 0.6767578 0.887207
vt 0.6635742 0.9106445
vt 0.6738281 0.9262695
vt 0.6635742 0.8833008
vt 0.671875 0.9804688
vt 0.6601563 0.9404297
vt 0.6601563 0.9746094
vt 0.6777344 0.9335938
vt 0.6157227 0.987793
vt 0.6601563 0.9746094
vt 0.6157227 0.9746094
vt 0.6601563 0.987793
vt 0.5712891 0.9746094
vt 0.5712891 0.987793
vt 0.6191406 0.8833008
vt 0.6635742 0.8691406
vt 0.6191406 0.8691406
vt 0.6635742 0.8833008
vt 0.574707 0.8691406
vt 0.574707 0.8833008
vt 0.6166992 0.9873047
vt 0.6552734 0.9750977
vt 0.6166992 0.9750977
vt 0.6552734 0.9873047
vt 0.6601563 0.9404297
vt 0.6157227 0.9746094
vt 0.6601563 0.9746094
vt 0.6157227 0.9404297
vt 0.5712891 0.9404297
vt 0.5712891 0.9746094
vt 0.6635742 0.8833008
vt 0.6191406 0.9106445
vt 0.6635742 0.9106445
vt 0.6191406 0.8833008
vt 0.574707 0.8833008
vt 0.574707 0.9106445
vt 0.5615234 0.887207
vt 0.574707 0.9106445
vt 0.574707 0.8833008
vt 0.5644531 0.9262695
vt 0.5595703 0.9804688
vt 0.5712891 0.9404297
vt 0.5541992 0.9335938
vt 0.5712891 0.9746094
vt 0.6166992 0.9873047
vt 0.6552734 0.9750977
vt 0.6552734 0.9873047
vt 0.6166992 0.9750977

g seats_10125_612
usemtl seats_10125_612
usemap seats_10125_612
f 1/1/1 3/3/3 2/2/2
f 2/2/2 4/4/4 1/1/1
f 5/5/5 7/7/7 6/6/6
f 6/6/6 8/8/8 5/5/5
f 9/9/9 11/11/11 10/10/10
f 10/10/10 12/12/12 9/9/9
f 13/13/13 11/11/11 9/9/9
f 9/9/9 14/14/14 13/13/13
f 15/15/15 17/17/17 16/16/16
f 16/16/16 18/18/18 15/15/15
f 19/19/19 17/17/17 15/15/15
f 15/15/15 20/20/20 19/19/19
f 21/21/21 23/23/23 22/22/22
f 22/22/22 24/24/24 21/21/21
f 25/25/25 27/27/27 26/26/26
f 26/26/26 28/28/28 25/25/25
f 29/29/29 28/28/28 26/26/26
f 26/26/26 30/30/30 29/29/29
f 31/31/31 33/33/33 32/32/32
f 32/32/32 34/34/34 31/31/31
f 35/35/35 34/34/34 32/32/32
f 32/32/32 36/36/36 35/35/35
f 37/37/37 39/39/39 38/38/38
f 38/38/38 40/40/40 37/37/37
f 41/41/41 43/43/43 42/42/42
f 42/42/42 44/44/44 41/41/41
f 45/45/45 47/47/47 46/46/46
f 46/46/46 48/48/48 45/45/45
