#seats_9220_393.obj

v 0.7598188 0.5414686 -0.4088432
v 0.7598151 0.5043004 -0.8130754
v 0.7598196 0.349354 -0.8744143
v 0.7598186 0.3493541 -0.4547194
v 0.7598196 0.349354 -0.8744143
v 0.7598151 0.5043004 -0.8130754
v 0.7598143 1.049783 -0.9516987
v 0.7598161 0.6253621 -0.9099157
v 0.7598126 0.8162718 -1.163646
v 0.7598153 1.084928 -1.203786
v 0.7598153 1.084928 -1.203786
v 0.7598143 1.049783 -0.9516987
v 1.032179E-05 1.049783 -0.9516985
v 1.139661E-05 1.084928 -1.203786
v -0.7597925 1.084928 -1.203786
v -0.7597936 1.049783 -0.9516982
v 0.7598188 0.5414686 -0.4088432
v 0.7598186 0.3493541 -0.4547194
v 7.880545E-06 0.3493538 -0.4547214
v 8.032086E-06 0.5414686 -0.4088451
v -0.7597959 0.5414686 -0.4088449
v -0.759796 0.3493538 -0.4547212
v 1.139661E-05 1.084928 -1.203786
v 8.656595E-06 0.816272 -1.163646
v 0.7598126 0.8162718 -1.163646
v 0.7598153 1.084928 -1.203786
v -0.7597953 0.8162723 -1.163646
v -0.7597925 1.084928 -1.203786
v 1.116157E-05 0.5043007 -0.8130752
v 1.032179E-05 1.049783 -0.9516985
v 0.7598143 1.049783 -0.9516987
v 0.7598151 0.5043004 -0.8130754
v -0.7597936 1.049783 -0.9516982
v -0.7597927 0.5043007 -0.8130749
v 8.032086E-06 0.5414686 -0.4088451
v 1.116157E-05 0.5043007 -0.8130752
v 0.7598151 0.5043004 -0.8130754
v 0.7598188 0.5414686 -0.4088432
v -0.7597927 0.5043007 -0.8130749
v -0.7597959 0.5414686 -0.4088449
v -0.7597959 0.5414686 -0.4088449
v -0.759796 0.3493538 -0.4547212
v -0.7597951 0.3493538 -0.8744161
v -0.7597927 0.5043007 -0.8130749
v -0.7597951 0.3493538 -0.8744161
v -0.7597917 0.6253621 -0.9099153
v -0.7597936 1.049783 -0.9516982
v -0.7597927 0.5043007 -0.8130749
v -0.7597953 0.8162723 -1.163646
v -0.7597925 1.084928 -1.203786
v 0.6994507 0.5414687 0.6312441
v 0.6994458 0.5043008 0.1356571
v 0.7618068 0.349354 -0.04538484
v 0.7618073 0.349354 0.5853696
v 0.7618068 0.349354 -0.04538484
v 0.6994458 0.5043008 0.1356571
v 0.679073 0.9941182 -0.01584823
v 0.7307032 0.9951856 -0.1343289
v 0.5890459 1.113238 -0.1318053
v 0.5625654 1.111683 -0.02624378
v 0.3375283 1.111683 -0.02624447
v 0.3101499 1.113238 -0.1318015
v 0.6994507 0.5414687 0.6312441
v 0.7618073 0.349354 0.5853696
v 0.1404863 0.3493537 0.5853676
v 0.2005691 0.5414687 0.6312442
v 0.1684913 0.9951854 -0.134328
v 0.1404858 0.3493537 -0.04538695
v 0.7618068 0.349354 -0.04538484
v 0.7307032 0.9951856 -0.1343289
v 0.5890459 1.113238 -0.1318053
v 0.3101499 1.113238 -0.1318015
v 0.2005721 0.504301 0.1356559
v 0.2210144 0.994118 -0.01584677
v 0.679073 0.9941182 -0.01584823
v 0.6994458 0.5043008 0.1356571
v 0.3375283 1.111683 -0.02624447
v 0.5625654 1.111683 -0.02624378
v 0.2005691 0.5414687 0.6312442
v 0.2005721 0.504301 0.1356559
v 0.6994458 0.5043008 0.1356571
v 0.6994507 0.5414687 0.6312441
v 0.2005691 0.5414687 0.6312442
v 0.1404863 0.3493537 0.5853676
v 0.1404858 0.3493537 -0.04538695
v 0.2005721 0.504301 0.1356559
v 0.2005721 0.504301 0.1356559
v 0.1404858 0.3493537 -0.04538695
v 0.1684913 0.9951854 -0.134328
v 0.2210144 0.994118 -0.01584677
v 0.7307032 0.9951856 -0.1343289
v 0.679073 0.9941182 -0.01584823
v 0.5625654 1.111683 -0.02624378
v 0.5890459 1.113238 -0.1318053
v 0.2210144 0.994118 -0.01584677
v 0.1684913 0.9951854 -0.134328
v 0.3101499 1.113238 -0.1318015
v 0.3375283 1.111683 -0.02624447
v -0.6994302 0.5414687 0.6312437
v -0.7617815 0.3493539 0.5853713
v -0.7617821 0.3493539 -0.04538316
v -0.6994272 0.5043007 0.1356554
v -0.7617821 0.3493539 -0.04538316
v -0.7306778 0.9951857 -0.1343277
v -0.6790527 0.9941183 -0.01584627
v -0.6994272 0.5043007 0.1356554
v -0.5890259 1.113238 -0.1318034
v -0.3101242 1.113238 -0.1318016
v -0.3375016 1.111683 -0.02624328
v -0.5625386 1.111683 -0.02624397
v -0.6994302 0.5414687 0.6312437
v -0.2005487 0.5414687 0.6312436
v -0.1404673 0.3493538 0.5853713
v -0.7617815 0.3493539 0.5853713
v -0.1684659 0.9951854 -0.1343286
v -0.7306778 0.9951857 -0.1343277
v -0.7617821 0.3493539 -0.04538316
v -0.1404678 0.3493537 -0.0453832
v -0.5890259 1.113238 -0.1318034
v -0.3101242 1.113238 -0.1318016
v -0.2005457 0.5043008 0.1356553
v -0.6994272 0.5043007 0.1356554
v -0.6790527 0.9941183 -0.01584627
v -0.220994 0.9941185 -0.01584773
v -0.3375016 1.111683 -0.02624328
v -0.5625386 1.111683 -0.02624397
v -0.2005487 0.5414687 0.6312436
v -0.6994302 0.5414687 0.6312437
v -0.6994272 0.5043007 0.1356554
v -0.2005457 0.5043008 0.1356553
v -0.2005487 0.5414687 0.6312436
v -0.2005457 0.5043008 0.1356553
v -0.1404678 0.3493537 -0.0453832
v -0.1404673 0.3493538 0.5853713
v -0.2005457 0.5043008 0.1356553
v -0.220994 0.9941185 -0.01584773
v -0.1684659 0.9951854 -0.1343286
v -0.1404678 0.3493537 -0.0453832
v -0.7306778 0.9951857 -0.1343277
v -0.5890259 1.113238 -0.1318034
v -0.5625386 1.111683 -0.02624397
v -0.6790527 0.9941183 -0.01584627
v -0.220994 0.9941185 -0.01584773
v -0.3375016 1.111683 -0.02624328
v -0.3101242 1.113238 -0.1318016
v -0.1684659 0.9951854 -0.1343286

vn 0.9529534 -0.03125997 -0.3015005
vn 0.9529532 -0.03126008 -0.3015012
vn 0.9529533 -0.03126002 -0.3015009
vn 0.9529534 -0.03125997 -0.3015005
vn 0.9529533 -0.03126002 -0.3015009
vn 0.9529532 -0.03126008 -0.3015012
vn 0.9529533 -0.03125991 -0.3015008
vn 0.9529531 -0.03126017 -0.3015015
vn 0.9529533 -0.03125996 -0.3015006
vn 0.9529533 -0.03125957 -0.3015009
vn 0.07407343 0.988526 0.1316334
vn 0.07407343 0.988526 0.1316334
vn 0.07407343 0.988526 0.1316334
vn 0.07407343 0.988526 0.1316334
vn 0.07407343 0.988526 0.1316334
vn 0.07407343 0.988526 0.1316334
vn 0.2854856 -0.2417277 0.9273971
vn 0.2854856 -0.2417277 0.9273971
vn 0.2854856 -0.2417277 0.9273971
vn 0.2854856 -0.2417277 0.9273971
vn 0.2854856 -0.2417276 0.9273971
vn 0.2854856 -0.2417276 0.9273971
vn -0.3028747 -0.1379386 -0.9429951
vn -0.3028747 -0.1379386 -0.9429951
vn -0.3028747 -0.1379386 -0.9429951
vn -0.3028747 -0.1379386 -0.9429951
vn -0.3028747 -0.1379386 -0.9429951
vn -0.3028747 -0.1379386 -0.9429951
vn 0.3001295 0.2366078 0.9240881
vn 0.3001295 0.2366078 0.9240881
vn 0.3001295 0.2366078 0.9240881
vn 0.3001295 0.2366078 0.9240881
vn 0.3001295 0.2366078 0.9240881
vn 0.3001295 0.2366078 0.9240881
vn 0.005049519 0.9961662 -0.08732267
vn 0.005049519 0.9961662 -0.08732267
vn 0.005049527 0.9961662 -0.08732265
vn 0.005049527 0.9961662 -0.08732265
vn 0.005049514 0.9961662 -0.0873227
vn 0.005049514 0.9961662 -0.0873227
vn -0.9529535 0.03125919 0.3015002
vn -0.9529535 0.03125919 0.3015002
vn -0.9529536 0.03125914 0.3014998
vn -0.9529538 0.03125908 0.3014994
vn -0.9529536 0.03125914 0.3014998
vn -0.9529538 0.031259 0.3014991
vn -0.9529536 0.03125926 0.3014999
vn -0.9529538 0.03125908 0.3014994
vn -0.9529536 0.03125921 0.3015
vn -0.9529536 0.03125959 0.3014997
vn 0.9023504 0.3152995 -0.2938534
vn 0.9633183 0.2124685 -0.163936
vn 0.9756829 0.1805639 -0.1242558
vn 0.9023502 0.3152995 -0.2938534
vn 0.9756829 0.1805639 -0.1242558
vn 0.9633183 0.2124685 -0.163936
vn 0.9971835 0.07480541 0.005407512
vn 0.9971835 0.07480541 0.005407482
vn 0.03721215 0.9992079 0.01401892
vn 0.03721215 0.9992079 0.01401892
vn 0.03721215 0.9992079 0.01401892
vn 0.03721215 0.9992079 0.01401893
vn 0.2854857 -0.2417269 0.9273974
vn 0.2854857 -0.2417269 0.9273974
vn 0.2854857 -0.2417269 0.9273974
vn 0.2854857 -0.2417269 0.9273974
vn -0.3030615 -0.07929525 -0.9496661
vn -0.3029934 -0.1265908 -0.9445474
vn -0.3029934 -0.1265908 -0.9445474
vn -0.3030621 -0.07939266 -0.9496578
vn -0.3005694 0.03123427 -0.9532484
vn -0.3005694 0.03123427 -0.9532484
vn 0.2975686 0.2859132 0.9108821
vn 0.3008657 0.2185443 0.9282877
vn 0.3008658 0.2185403 0.9282886
vn 0.2975686 0.2859132 0.9108821
vn 0.3030553 0.07823234 0.9497563
vn 0.3030553 0.07823234 0.9497563
vn 0.01014994 0.9974 -0.07132969
vn 0.01014994 0.9974 -0.07132969
vn 0.01014994 0.9974 -0.0713297
vn 0.01014994 0.9974 -0.07132969
vn -0.8906972 0.3629608 0.2737107
vn -0.8906972 0.3629607 0.2737107
vn -0.8906972 0.3629607 0.2737107
vn -0.8906972 0.3629607 0.2737107
vn -0.8082523 0.1310437 0.5740692
vn -0.8082523 0.1310437 0.5740692
vn -0.8082523 0.1310437 0.5740692
vn -0.8082523 0.1310437 0.5740692
vn 0.7151971 0.6983542 0.02816823
vn 0.7151971 0.6983542 0.02816823
vn 0.7151971 0.6983542 0.02816823
vn 0.715197 0.6983542 0.02816826
vn -0.5236862 0.7381819 0.4252515
vn -0.5236862 0.7381819 0.4252515
vn -0.5236862 0.7381819 0.4252515
vn -0.5236862 0.7381819 0.4252515
vn -0.8866077 0.3739824 0.2721463
vn -0.8866076 0.3739824 0.2721463
vn -0.8570358 0.2406822 0.4555891
vn -0.8678439 0.2725358 0.4154165
vn -0.8570358 0.2406822 0.4555891
vn -0.8063776 0.1339673 0.5760274
vn -0.8063776 0.1339674 0.5760274
vn -0.8678439 0.2725358 0.4154165
vn 0.03721244 0.9992079 0.01401883
vn 0.03721244 0.9992079 0.01401883
vn 0.03721244 0.9992079 0.01401883
vn 0.03721244 0.9992079 0.01401883
vn 0.2854857 -0.2417269 0.9273974
vn 0.2854857 -0.2417269 0.9273974
vn 0.2854857 -0.2417269 0.9273974
vn 0.2854857 -0.2417269 0.9273974
vn -0.3030618 -0.07929523 -0.9496661
vn -0.3030623 -0.07939264 -0.9496577
vn -0.3029938 -0.1265908 -0.9445472
vn -0.3029938 -0.1265908 -0.9445472
vn -0.3005694 0.03123427 -0.9532484
vn -0.3005694 0.03123427 -0.9532484
vn 0.2975686 0.2859132 0.9108821
vn 0.2975686 0.2859132 0.9108821
vn 0.3008658 0.2185403 0.9282886
vn 0.3008657 0.2185443 0.9282877
vn 0.3030553 0.07823234 0.9497563
vn 0.3030553 0.07823234 0.9497563
vn 0.01014994 0.9974 -0.07132969
vn 0.01014994 0.9974 -0.07132969
vn 0.01014994 0.9974 -0.0713297
vn 0.01014994 0.9974 -0.07132969
vn 0.9059306 0.3040262 -0.2947156
vn 0.9059306 0.3040262 -0.2947156
vn 0.9059306 0.3040262 -0.2947156
vn 0.9059306 0.3040262 -0.2947156
vn 0.9974142 0.07181271 0.00278312
vn 0.9974142 0.07181271 0.00278312
vn 0.9974142 0.07181271 0.00278312
vn 0.9974142 0.07181271 0.00278312
vn -0.5259801 0.7390684 0.4208583
vn -0.5259799 0.7390684 0.4208582
vn -0.5259801 0.7390684 0.4208583
vn -0.5259801 0.7390684 0.4208583
vn 0.7157965 0.6975233 0.03309755
vn 0.7157965 0.6975234 0.03309755
vn 0.7157965 0.6975234 0.03309758
vn 0.7157965 0.6975234 0.03309755

vt 0.6826172 0.8891602
vt 0.7104492 0.8798828
vt 0.7119141 0.8681641
vt 0.6826172 0.875
vt 0.6899414 0.9086914
vt 0.6826172 0.9179688
vt 0.6826172 0.9584961
vt 0.6875 0.9282227
vt 0.7016602 0.9458008
vt 0.699707 0.965332
vt 0.6826172 0.9765625
vt 0.6826172 0.9584961
vt 0.628418 0.9584961
vt 0.628418 0.9765625
vt 0.5742188 0.9765625
vt 0.5742188 0.9584961
vt 0.6826172 0.8891602
vt 0.6826172 0.875
vt 0.628418 0.875
vt 0.628418 0.8891602
vt 0.5742188 0.8891602
vt 0.5742188 0.875
vt 0.628418 0.9765625
vt 0.628418 0.9960938
vt 0.6826172 0.9960938
vt 0.6826172 0.9765625
vt 0.5742188 0.9960938
vt 0.5742188 0.9765625
vt 0.628418 0.9179688
vt 0.628418 0.9584961
vt 0.6826172 0.9584961
vt 0.6826172 0.9179688
vt 0.5742188 0.9584961
vt 0.5742188 0.9179688
vt 0.628418 0.8891602
vt 0.628418 0.9179688
vt 0.6826172 0.9179688
vt 0.6826172 0.8891602
vt 0.5742188 0.9179688
vt 0.5742188 0.8891602
vt 0.5742188 0.8891602
vt 0.5742188 0.875
vt 0.5449219 0.8681641
vt 0.5463867 0.8798828
vt 0.5668945 0.9086914
vt 0.5693359 0.9282227
vt 0.5742188 0.9584961
vt 0.5742188 0.9179688
vt 0.5551758 0.9458008
vt 0.5571289 0.965332
vt 0.5078125 0.8823242
vt 0.5078125 0.9169922
vt 0.5166016 0.9301758
vt 0.5195313 0.8862305
vt 0.5234375 0.9360352
vt 0.5078125 0.9399414
vt 0.5058594 0.9755859
vt 0.5141602 0.9790039
vt 0.5 0.9916992
vt 0.498291 0.9838867
vt 0.4821777 0.9838867
vt 0.4802246 0.9916992
vt 0.5078125 0.8823242
vt 0.512207 0.8706055
vt 0.4685059 0.8706055
vt 0.4726563 0.8823242
vt 0.7646484 0.9848633
vt 0.7666016 0.9414063
vt 0.7231445 0.9414063
vt 0.7250977 0.9848633
vt 0.7348633 0.9931641
vt 0.7543945 0.9931641
vt 0.4729004 0.9399414
vt 0.4743652 0.9755859
vt 0.5058594 0.9755859
vt 0.5078125 0.9399414
vt 0.4821777 0.9838867
vt 0.498291 0.9838867
vt 0.4726563 0.8823242
vt 0.4726563 0.9169922
vt 0.5078125 0.9169922
vt 0.5078125 0.8823242
vt 0.4726563 0.8823242
vt 0.4609375 0.8862305
vt 0.4638672 0.9301758
vt 0.4726563 0.9169922
vt 0.4729004 0.9399414
vt 0.4572754 0.9360352
vt 0.4660645 0.9790039
vt 0.4743652 0.9755859
vt 0.5141602 0.9790039
vt 0.5058594 0.9755859
vt 0.498291 0.9838867
vt 0.5048828 0.9882813
vt 0.4743652 0.9755859
vt 0.4660645 0.9790039
vt 0.4753418 0.9882813
vt 0.4821777 0.9838867
vt 0.5078125 0.8823242
vt 0.5195313 0.8862305
vt 0.5166016 0.9301758
vt 0.5078125 0.9169922
vt 0.5234375 0.9360352
vt 0.5141602 0.9790039
vt 0.5058594 0.9755859
vt 0.5078125 0.9399414
vt 0.5 0.9916992
vt 0.4802246 0.9916992
vt 0.4821777 0.9838867
vt 0.498291 0.9838867
vt 0.5078125 0.8823242
vt 0.4726563 0.8823242
vt 0.4685059 0.8706055
vt 0.512207 0.8706055
vt 0.7646484 0.9848633
vt 0.7250977 0.9848633
vt 0.7231445 0.9414063
vt 0.7666016 0.9414063
vt 0.7348633 0.9931641
vt 0.7543945 0.9931641
vt 0.4729004 0.9399414
vt 0.5078125 0.9399414
vt 0.5058594 0.9755859
vt 0.4743652 0.9755859
vt 0.4821777 0.9838867
vt 0.498291 0.9838867
vt 0.4726563 0.8823242
vt 0.5078125 0.8823242
vt 0.5078125 0.9169922
vt 0.4726563 0.9169922
vt 0.4726563 0.8823242
vt 0.4726563 0.9169922
vt 0.4638672 0.9301758
vt 0.4609375 0.8862305
vt 0.4729004 0.9399414
vt 0.4743652 0.9755859
vt 0.4660645 0.9790039
vt 0.4572754 0.9360352
vt 0.5141602 0.9790039
vt 0.5048828 0.9882813
vt 0.498291 0.9838867
vt 0.5058594 0.9755859
vt 0.4743652 0.9755859
vt 0.4821777 0.9838867
vt 0.4753418 0.9882813
vt 0.4660645 0.9790039

g seats_9220_393
usemtl seats_9220_393
usemap seats_9220_393
f 1/1/1 3/3/3 2/2/2
f 1/1/1 4/4/4 3/3/3
f 5/5/5 7/7/7 6/6/6
f 5/5/5 8/8/8 7/7/7
f 8/8/8 9/9/9 7/7/7
f 9/9/9 10/10/10 7/7/7
f 11/11/11 13/13/13 12/12/12
f 11/11/11 14/14/14 13/13/13
f 15/15/15 13/13/13 14/14/14
f 15/15/15 16/16/16 13/13/13
f 17/17/17 19/19/19 18/18/18
f 17/17/17 20/20/20 19/19/19
f 21/21/21 19/19/19 20/20/20
f 21/21/21 22/22/22 19/19/19
f 23/23/23 25/25/25 24/24/24
f 23/23/23 26/26/26 25/25/25
f 23/23/23 24/24/24 27/27/27
f 23/23/23 27/27/27 28/28/28
f 29/29/29 31/31/31 30/30/30
f 29/29/29 32/32/32 31/31/31
f 29/29/29 30/30/30 33/33/33
f 29/29/29 33/33/33 34/34/34
f 35/35/35 37/37/37 36/36/36
f 35/35/35 38/38/38 37/37/37
f 35/35/35 36/36/36 39/39/39
f 35/35/35 39/39/39 40/40/40
f 41/41/41 43/43/43 42/42/42
f 41/41/41 44/44/44 43/43/43
f 45/45/45 47/47/47 46/46/46
f 45/45/45 48/48/48 47/47/47
f 46/46/46 47/47/47 49/49/49
f 49/49/49 47/47/47 50/50/50
f 51/51/51 53/53/53 52/52/52
f 51/51/51 54/54/54 53/53/53
f 55/55/55 57/57/57 56/56/56
f 55/55/55 58/58/58 57/57/57
f 59/59/59 61/61/61 60/60/60
f 59/59/59 62/62/62 61/61/61
f 63/63/63 65/65/65 64/64/64
f 63/63/63 66/66/66 65/65/65
f 67/67/67 69/69/69 68/68/68
f 67/67/67 70/70/70 69/69/69
f 67/67/67 71/71/71 70/70/70
f 67/67/67 72/72/72 71/71/71
f 73/73/73 75/75/75 74/74/74
f 73/73/73 76/76/76 75/75/75
f 75/75/75 77/77/77 74/74/74
f 75/75/75 78/78/78 77/77/77
f 79/79/79 81/81/81 80/80/80
f 79/79/79 82/82/82 81/81/81
f 83/83/83 85/85/85 84/84/84
f 83/83/83 86/86/86 85/85/85
f 87/87/87 89/89/89 88/88/88
f 87/87/87 90/90/90 89/89/89
f 91/91/91 93/93/93 92/92/92
f 91/91/91 94/94/94 93/93/93
f 95/95/95 97/97/97 96/96/96
f 95/95/95 98/98/98 97/97/97
f 99/99/99 101/101/101 100/100/100
f 99/99/99 102/102/102 101/101/101
f 103/103/103 105/105/105 104/104/104
f 103/103/103 106/106/106 105/105/105
f 107/107/107 109/109/109 108/108/108
f 107/107/107 110/110/110 109/109/109
f 111/111/111 113/113/113 112/112/112
f 111/111/111 114/114/114 113/113/113
f 115/115/115 117/117/117 116/116/116
f 115/115/115 118/118/118 117/117/117
f 115/115/115 116/116/116 119/119/119
f 115/115/115 119/119/119 120/120/120
f 121/121/121 123/123/123 122/122/122
f 121/121/121 124/124/124 123/123/123
f 123/123/123 124/124/124 125/125/125
f 123/123/123 125/125/125 126/126/126
f 127/127/127 129/129/129 128/128/128
f 127/127/127 130/130/130 129/129/129
f 131/131/131 133/133/133 132/132/132
f 131/131/131 134/134/134 133/133/133
f 135/135/135 137/137/137 136/136/136
f 135/135/135 138/138/138 137/137/137
f 139/139/139 141/141/141 140/140/140
f 139/139/139 142/142/142 141/141/141
f 143/143/143 145/145/145 144/144/144
f 143/143/143 146/146/146 145/145/145
