#seats_10834_1870.obj

v 0.7598398 0.3493529 -0.4547533
v 0.7598386 0.5042996 -0.813107
v 0.7598391 0.3493529 -0.8744432
v 0.759842 0.5414677 -0.4088782
v 0.7598391 0.3493529 -0.8744432
v 0.7598394 1.049782 -0.9517288
v 0.7598404 0.625361 -0.9099506
v 0.7598386 0.5042996 -0.813107
v 0.7598391 0.8162711 -1.163676
v 0.7598383 1.084927 -1.203818
v 3.308555E-05 1.084927 -1.203819
v 0.7598394 1.049782 -0.9517288
v 3.423625E-05 1.049782 -0.9517295
v 0.7598383 1.084927 -1.203818
v -0.759771 1.049782 -0.9517301
v -0.7597721 1.084927 -1.20382
v 3.242241E-05 0.541468 -0.4088722
v 0.7598398 0.3493529 -0.4547533
v 3.457069E-05 0.3493529 -0.454754
v 0.759842 0.5414677 -0.4088782
v -0.7597714 0.3493529 -0.4547476
v -0.7597728 0.541468 -0.4088728
v 0.7598383 1.084927 -1.203818
v 3.391526E-05 0.8162711 -1.163677
v 0.7598391 0.8162711 -1.163676
v 3.308555E-05 1.084927 -1.203819
v -0.7597721 1.084927 -1.20382
v -0.7597713 0.8162711 -1.163677
v 0.7598386 0.5042996 -0.813107
v 3.423625E-05 1.049782 -0.9517295
v 0.7598394 1.049782 -0.9517288
v 3.345011E-05 0.5042998 -0.8131077
v -0.7597718 0.5042996 -0.8131083
v -0.759771 1.049782 -0.9517301
v 0.759842 0.5414677 -0.4088782
v 3.345011E-05 0.5042998 -0.8131077
v 0.7598386 0.5042996 -0.813107
v 3.242241E-05 0.541468 -0.4088722
v -0.7597728 0.541468 -0.4088728
v -0.7597718 0.5042996 -0.8131083
v -0.7597714 0.3493529 -0.4547476
v -0.7597718 0.5042996 -0.8131083
v -0.7597728 0.541468 -0.4088728
v -0.7597713 0.3493529 -0.8744445
v -0.7597713 0.3493529 -0.8744445
v -0.759771 1.049782 -0.9517301
v -0.7597718 0.5042996 -0.8131083
v -0.7597708 0.625361 -0.9099448
v -0.7597713 0.8162711 -1.163677
v -0.7597721 1.084927 -1.20382
v 0.7618256 0.3493529 0.5853374
v 0.6994714 0.5043001 0.1356257
v 0.7618263 0.3493529 -0.04541692
v 0.6994722 0.541468 0.6312165
v 0.730725 0.9951848 -0.134358
v 0.6994714 0.5043001 0.1356257
v 0.6790974 0.9941175 -0.01587767
v 0.7618263 0.3493529 -0.04541692
v 0.3101717 1.113237 -0.1318314
v 0.5625876 1.111682 -0.02627462
v 0.3375503 1.111682 -0.02627378
v 0.5890692 1.113237 -0.1318316
v 0.200592 0.541468 0.6312158
v 0.7618256 0.3493529 0.5853374
v 0.1405126 0.3493529 0.585341
v 0.6994722 0.541468 0.6312165
v 0.730725 0.9951848 -0.134358
v 0.1405134 0.3493529 -0.04541337
v 0.7618263 0.3493529 -0.04541692
v 0.1685145 0.9951848 -0.1343633
v 0.3101717 1.113237 -0.1318314
v 0.5890692 1.113237 -0.1318316
v 0.6994714 0.5043001 0.1356257
v 0.2210411 0.9941175 -0.01587847
v 0.6790974 0.9941175 -0.01587767
v 0.2005911 0.5043001 0.1356249
v 0.5625876 1.111682 -0.02627462
v 0.3375503 1.111682 -0.02627378
v 0.6994722 0.541468 0.6312165
v 0.2005911 0.5043001 0.1356249
v 0.6994714 0.5043001 0.1356257
v 0.200592 0.541468 0.6312158
v 0.200592 0.541468 0.6312158
v 0.1405134 0.3493529 -0.04541337
v 0.2005911 0.5043001 0.1356249
v 0.1405134 0.3493529 -0.04541337
v 0.200592 0.541468 0.6312158
v 0.1405126 0.3493529 0.585341
v 0.2005911 0.5043001 0.1356249
v 0.1685145 0.9951848 -0.1343633
v 0.2210411 0.9941175 -0.01587847
v 0.1685145 0.9951848 -0.1343633
v 0.2005911 0.5043001 0.1356249
v 0.1405134 0.3493529 -0.04541337
v 0.730725 0.9951848 -0.134358
v 0.5625876 1.111682 -0.02627462
v 0.5890692 1.113237 -0.1318316
v 0.5625876 1.111682 -0.02627462
v 0.730725 0.9951848 -0.134358
v 0.6790974 0.9941175 -0.01587767
v 0.2210411 0.9941175 -0.01587847
v 0.3101717 1.113237 -0.1318314
v 0.3375503 1.111682 -0.02627378
v 0.3101717 1.113237 -0.1318314
v 0.2210411 0.9941175 -0.01587847
v 0.1685145 0.9951848 -0.1343633
v -0.7617561 0.3493529 0.585337
v -0.6994036 0.5043001 0.135624
v -0.6994027 0.541468 0.6312149
v -0.7617589 0.3493529 -0.04541771
v -0.7306558 0.9951848 -0.1343582
v -0.6994036 0.5043001 0.135624
v -0.7617589 0.3493529 -0.04541771
v -0.6790289 0.9941175 -0.01588057
v -0.3101038 1.113237 -0.1318339
v -0.5625197 1.111682 -0.02627588
v -0.5890014 1.113237 -0.1318337
v -0.3374823 1.111682 -0.02627672
v -0.2005226 0.541468 0.6312156
v -0.7617561 0.3493529 0.585337
v -0.6994027 0.541468 0.6312149
v -0.140444 0.3493529 0.5853406
v -0.7306558 0.9951848 -0.1343582
v -0.1404432 0.3493529 -0.04541377
v -0.1684445 0.9951848 -0.1343599
v -0.7617589 0.3493529 -0.04541771
v -0.3101038 1.113237 -0.1318339
v -0.5890014 1.113237 -0.1318337
v -0.6994036 0.5043001 0.135624
v -0.220969 0.9941175 -0.01587937
v -0.2005234 0.5043001 0.1356248
v -0.6790289 0.9941175 -0.01588057
v -0.5625197 1.111682 -0.02627588
v -0.3374823 1.111682 -0.02627672
v -0.6994027 0.541468 0.6312149
v -0.2005234 0.5043001 0.1356248
v -0.2005226 0.541468 0.6312156
v -0.6994036 0.5043001 0.135624
v -0.2005226 0.541468 0.6312156
v -0.1404432 0.3493529 -0.04541377
v -0.140444 0.3493529 0.5853406
v -0.1404432 0.3493529 -0.04541377
v -0.2005226 0.541468 0.6312156
v -0.2005234 0.5043001 0.1356248
v -0.2005234 0.5043001 0.1356248
v -0.1684445 0.9951848 -0.1343599
v -0.1404432 0.3493529 -0.04541377
v -0.1684445 0.9951848 -0.1343599
v -0.2005234 0.5043001 0.1356248
v -0.220969 0.9941175 -0.01587937
v -0.7306558 0.9951848 -0.1343582
v -0.5625197 1.111682 -0.02627588
v -0.6790289 0.9941175 -0.01588057
v -0.5625197 1.111682 -0.02627588
v -0.7306558 0.9951848 -0.1343582
v -0.5890014 1.113237 -0.1318337
v -0.220969 0.9941175 -0.01587937
v -0.3101038 1.113237 -0.1318339
v -0.1684445 0.9951848 -0.1343599
v -0.3101038 1.113237 -0.1318339
v -0.220969 0.9941175 -0.01587937
v -0.3374823 1.111682 -0.02627672

vn 0.9938111 -1.900935E-07 -0.1110833
vn 0.9938111 -5.909316E-07 -0.111084
vn 0.9938111 -7.649404E-07 -0.1110839
vn 0.9938111 0 -0.1110833
vn 0.9938111 -7.649404E-07 -0.1110839
vn 0.9938111 -3.284305E-07 -0.1110838
vn 0.9938104 -1.218819E-06 -0.1110901
vn 0.9938111 -5.909316E-07 -0.111084
vn 0.9938111 -3.789027E-07 -0.1110836
vn 0.9938111 2.196185E-21 -0.1110839
vn 0.01533856 0.9904198 0.1372267
vn 0.01533864 0.9904199 0.1372262
vn 0.01533858 0.9904198 0.1372269
vn 0.01533868 0.9904199 0.137226
vn 0.01533837 0.9904199 0.1372263
vn 0.01533828 0.9904199 0.1372261
vn 0.1080458 -0.2322609 0.9666338
vn 0.1080458 -0.2322607 0.9666338
vn 0.1080458 -0.232261 0.9666338
vn 0.1080458 -0.2322606 0.9666338
vn 0.1080458 -0.2322607 0.9666338
vn 0.1080458 -0.2322606 0.9666338
vn -0.109864 -0.1477711 -0.9829007
vn -0.109864 -0.147771 -0.9829007
vn -0.109864 -0.1477711 -0.9829007
vn -0.109864 -0.147771 -0.9829007
vn -0.109864 -0.1477711 -0.9829007
vn -0.109864 -0.1477711 -0.9829007
vn 0.1076615 0.2462977 0.963196
vn 0.1076615 0.2462977 0.963196
vn 0.1076615 0.2462977 0.963196
vn 0.1076615 0.2462978 0.963196
vn 0.1076615 0.2462977 0.963196
vn 0.1076615 0.2462977 0.963196
vn -0.01017093 0.9957985 -0.09099448
vn -0.01017093 0.9957985 -0.09099446
vn -0.01017094 0.9957985 -0.09099451
vn -0.01017093 0.9957985 -0.09099442
vn -0.01017094 0.9957985 -0.09099455
vn -0.01017095 0.9957985 -0.09099459
vn -0.9938111 -1.900936E-07 0.1110833
vn -0.9938112 -5.909316E-07 0.1110826
vn -0.9938111 0 0.1110833
vn -0.9938112 -7.649404E-07 0.1110826
vn -0.9938112 -7.649404E-07 0.1110826
vn -0.9938112 -3.284305E-07 0.1110828
vn -0.9938112 -5.909316E-07 0.1110826
vn -0.9938119 -1.218819E-06 0.1110764
vn -0.9938112 -3.789027E-07 0.111083
vn -0.9938112 2.196185E-21 0.1110827
vn 0.9373598 0.3256361 -0.1237639
vn 0.9689183 0.2468906 0.01556654
vn 0.9766771 0.2100243 0.04462875
vn 0.9407404 0.3137059 -0.128825
vn 0.9562476 0.1401131 0.2568247
vn 0.9689183 0.2468906 0.01556654
vn 0.9427534 0.1599626 0.2926228
vn 0.9766771 0.2100243 0.04462875
vn 0.001635854 0.9998905 0.01463521
vn 0.001635677 0.9998905 0.01463554
vn 0.001635832 0.9998905 0.01463501
vn 0.001635633 0.9998905 0.01463569
vn 0.1080458 -0.23226 0.966634
vn 0.1080458 -0.2322601 0.966634
vn 0.1080458 -0.23226 0.966634
vn 0.1080458 -0.2322601 0.966634
vn -0.11064 -0.08926258 -0.9898438
vn -0.1100446 -0.1364332 -0.9845183
vn -0.1100444 -0.1364334 -0.9845183
vn -0.1106411 -0.08916509 -0.9898526
vn -0.1110581 0.0213867 -0.9935839
vn -0.1110581 0.02138668 -0.9935839
vn 0.106123 0.2954929 0.9494323
vn 0.1081507 0.2282679 0.9675729
vn 0.1081508 0.2282639 0.9675738
vn 0.1061229 0.295493 0.9494324
vn 0.1106516 0.08810269 0.9899465
vn 0.1106516 0.08810265 0.9899465
vn -0.008307667 0.9971985 -0.07432472
vn -0.008307667 0.9971985 -0.07432472
vn -0.008307667 0.9971985 -0.07432473
vn -0.008307667 0.9971985 -0.07432471
vn -0.917504 0.3909601 0.07305025
vn -0.917504 0.3909601 0.07305025
vn -0.917504 0.3909601 0.07305025
vn -0.9485114 0.2984727 0.1060199
vn -0.9485114 0.2984727 0.1060199
vn -0.9485114 0.2984727 0.1060199
vn -0.8514762 0.16172 0.4988334
vn -0.8514762 0.16172 0.4988334
vn -0.8514762 0.16172 0.4988334
vn -0.9298916 0.07681051 0.3597244
vn -0.9298916 0.07681051 0.3597244
vn -0.9298916 0.07681052 0.3597245
vn 0.6476354 0.7555535 0.09851999
vn 0.6476354 0.7555536 0.09852
vn 0.6476354 0.7555536 0.09852
vn 0.693994 0.6854433 0.2203158
vn 0.693994 0.6854432 0.2203158
vn 0.693994 0.6854432 0.2203158
vn -0.6638069 0.6996073 0.264403
vn -0.6638069 0.6996073 0.264403
vn -0.6638069 0.6996073 0.264403
vn -0.5825058 0.7349355 0.3472115
vn -0.5825057 0.7349355 0.3472115
vn -0.5825057 0.7349355 0.3472115
vn -0.9415528 0.3256361 0.08625165
vn -0.9415693 0.2468906 0.2291113
vn -0.9459674 0.3137059 0.08206181
vn -0.94272 0.2100243 0.2591695
vn -0.8759435 0.1401131 0.4616179
vn -0.9415693 0.2468906 0.2291113
vn -0.94272 0.2100243 0.2591695
vn -0.8548784 0.1599626 0.4935532
vn 0.001635854 0.9998905 0.01463521
vn 0.001636102 0.9998905 0.01463549
vn 0.001636177 0.9998905 0.01463563
vn 0.001635832 0.9998905 0.01463501
vn 0.1080458 -0.23226 0.966634
vn 0.1080458 -0.2322601 0.966634
vn 0.1080458 -0.2322601 0.966634
vn 0.1080458 -0.23226 0.966634
vn -0.1106402 -0.08926258 -0.9898438
vn -0.110045 -0.1364332 -0.9845183
vn -0.1106411 -0.08916509 -0.9898526
vn -0.1100452 -0.1364334 -0.9845182
vn -0.1110581 0.0213867 -0.9935839
vn -0.1110581 0.02138668 -0.9935839
vn 0.1061232 0.2954929 0.9494323
vn 0.1081507 0.2282679 0.9675729
vn 0.1061232 0.295493 0.9494324
vn 0.1081508 0.2282639 0.9675738
vn 0.1106516 0.08810269 0.9899465
vn 0.1106516 0.08810265 0.9899465
vn -0.008307667 0.9971985 -0.07432472
vn -0.008307667 0.9971985 -0.07432472
vn -0.008307667 0.9971985 -0.07432471
vn -0.008307667 0.9971985 -0.07432473
vn 0.9485114 0.2984727 -0.1060199
vn 0.9485114 0.2984727 -0.1060199
vn 0.9485114 0.2984727 -0.1060199
vn 0.9109898 0.3909601 -0.1313297
vn 0.9109898 0.3909601 -0.1313297
vn 0.9109898 0.3909601 -0.1313297
vn 0.9863671 0.07681051 0.1455345
vn 0.9863671 0.07681051 0.1455345
vn 0.9863671 0.07681052 0.1455346
vn 0.940601 0.16172 0.2985239
vn 0.940601 0.16172 0.2985239
vn 0.940601 0.16172 0.2985239
vn -0.6282229 0.6854432 0.3681067
vn -0.6282229 0.6854433 0.3681067
vn -0.6282229 0.6854432 0.3681067
vn -0.6098999 0.7555536 0.2390811
vn -0.6098999 0.7555535 0.2390811
vn -0.6098999 0.7555536 0.2390811
vn 0.6447916 0.7349355 0.2100303
vn 0.6447917 0.7349355 0.2100303
vn 0.6447916 0.7349355 0.2100303
vn 0.7058029 0.6996073 0.1113148
vn 0.7058029 0.6996073 0.1113148
vn 0.7058029 0.6996073 0.1113148

vt 0.6826172 0.875
vt 0.7104492 0.8798828
vt 0.7119141 0.8681641
vt 0.6826172 0.8891602
vt 0.6899414 0.9086914
vt 0.6826172 0.9584961
vt 0.6875 0.9282227
vt 0.6826172 0.9179688
vt 0.7016602 0.9458008
vt 0.699707 0.965332
vt 0.628418 0.9765625
vt 0.6826172 0.9584961
vt 0.628418 0.9584961
vt 0.6826172 0.9765625
vt 0.5742188 0.9584961
vt 0.5742188 0.9765625
vt 0.628418 0.8891602
vt 0.6826172 0.875
vt 0.628418 0.875
vt 0.6826172 0.8891602
vt 0.5742188 0.875
vt 0.5742188 0.8891602
vt 0.6826172 0.9765625
vt 0.628418 0.9960938
vt 0.6826172 0.9960938
vt 0.628418 0.9765625
vt 0.5742188 0.9765625
vt 0.5742188 0.9960938
vt 0.6826172 0.9179688
vt 0.628418 0.9584961
vt 0.6826172 0.9584961
vt 0.628418 0.9179688
vt 0.5742188 0.9179688
vt 0.5742188 0.9584961
vt 0.6826172 0.8891602
vt 0.628418 0.9179688
vt 0.6826172 0.9179688
vt 0.628418 0.8891602
vt 0.5742188 0.8891602
vt 0.5742188 0.9179688
vt 0.5742188 0.875
vt 0.5463867 0.8798828
vt 0.5742188 0.8891602
vt 0.5449219 0.8681641
vt 0.5668945 0.9086914
vt 0.5742188 0.9584961
vt 0.5742188 0.9179688
vt 0.5693359 0.9282227
vt 0.5551758 0.9458008
vt 0.5571289 0.965332
vt 0.5195313 0.8862305
vt 0.5078125 0.9169922
vt 0.5166016 0.9301758
vt 0.5078125 0.8823242
vt 0.5141602 0.9790039
vt 0.5078125 0.9399414
vt 0.5058594 0.9755859
vt 0.5234375 0.9360352
vt 0.4802246 0.9916992
vt 0.498291 0.9838867
vt 0.4821777 0.9838867
vt 0.5 0.9916992
vt 0.4726563 0.8823242
vt 0.512207 0.8706055
vt 0.4685059 0.8706055
vt 0.5078125 0.8823242
vt 0.7250977 0.9848633
vt 0.7666016 0.9414063
vt 0.7231445 0.9414063
vt 0.7646484 0.9848633
vt 0.7543945 0.9931641
vt 0.7348633 0.9931641
vt 0.5078125 0.9399414
vt 0.4743652 0.9755859
vt 0.5058594 0.9755859
vt 0.4729004 0.9399414
vt 0.498291 0.9838867
vt 0.4821777 0.9838867
vt 0.5078125 0.8823242
vt 0.4726563 0.9169922
vt 0.5078125 0.9169922
vt 0.4726563 0.8823242
vt 0.4726563 0.8823242
vt 0.4638672 0.9301758
vt 0.4726563 0.9169922
vt 0.4638672 0.9301758
vt 0.4726563 0.8823242
vt 0.4609375 0.8862305
vt 0.4729004 0.9399414
vt 0.4660645 0.9790039
vt 0.4743652 0.9755859
vt 0.4660645 0.9790039
vt 0.4729004 0.9399414
vt 0.4572754 0.9360352
vt 0.5141602 0.9790039
vt 0.498291 0.9838867
vt 0.5048828 0.9882813
vt 0.498291 0.9838867
vt 0.5141602 0.9790039
vt 0.5058594 0.9755859
vt 0.4743652 0.9755859
vt 0.4753418 0.9882813
vt 0.4821777 0.9838867
vt 0.4753418 0.9882813
vt 0.4743652 0.9755859
vt 0.4660645 0.9790039
vt 0.5195313 0.8862305
vt 0.5078125 0.9169922
vt 0.5078125 0.8823242
vt 0.5166016 0.9301758
vt 0.5141602 0.9790039
vt 0.5078125 0.9399414
vt 0.5234375 0.9360352
vt 0.5058594 0.9755859
vt 0.4802246 0.9916992
vt 0.498291 0.9838867
vt 0.5 0.9916992
vt 0.4821777 0.9838867
vt 0.4726563 0.8823242
vt 0.512207 0.8706055
vt 0.5078125 0.8823242
vt 0.4685059 0.8706055
vt 0.7250977 0.9848633
vt 0.7666016 0.9414063
vt 0.7646484 0.9848633
vt 0.7231445 0.9414063
vt 0.7543945 0.9931641
vt 0.7348633 0.9931641
vt 0.5078125 0.9399414
vt 0.4743652 0.9755859
vt 0.4729004 0.9399414
vt 0.5058594 0.9755859
vt 0.498291 0.9838867
vt 0.4821777 0.9838867
vt 0.5078125 0.8823242
vt 0.4726563 0.9169922
vt 0.4726563 0.8823242
vt 0.5078125 0.9169922
vt 0.4726563 0.8823242
vt 0.4638672 0.9301758
vt 0.4609375 0.8862305
vt 0.4638672 0.9301758
vt 0.4726563 0.8823242
vt 0.4726563 0.9169922
vt 0.4729004 0.9399414
vt 0.4660645 0.9790039
vt 0.4572754 0.9360352
vt 0.4660645 0.9790039
vt 0.4729004 0.9399414
vt 0.4743652 0.9755859
vt 0.5141602 0.9790039
vt 0.498291 0.9838867
vt 0.5058594 0.9755859
vt 0.498291 0.9838867
vt 0.5141602 0.9790039
vt 0.5048828 0.9882813
vt 0.4743652 0.9755859
vt 0.4753418 0.9882813
vt 0.4660645 0.9790039
vt 0.4753418 0.9882813
vt 0.4743652 0.9755859
vt 0.4821777 0.9838867

g seats_10834_1870
usemtl seats_10834_1870
usemap seats_10834_1870
f 1/1/1 3/3/3 2/2/2
f 2/2/2 4/4/4 1/1/1
f 5/5/5 7/7/7 6/6/6
f 6/6/6 8/8/8 5/5/5
f 7/7/7 9/9/9 6/6/6
f 9/9/9 10/10/10 6/6/6
f 11/11/11 13/13/13 12/12/12
f 12/12/12 14/14/14 11/11/11
f 15/15/15 13/13/13 11/11/11
f 11/11/11 16/16/16 15/15/15
f 17/17/17 19/19/19 18/18/18
f 18/18/18 20/20/20 17/17/17
f 21/21/21 19/19/19 17/17/17
f 17/17/17 22/22/22 21/21/21
f 23/23/23 25/25/25 24/24/24
f 24/24/24 26/26/26 23/23/23
f 27/27/27 26/26/26 24/24/24
f 24/24/24 28/28/28 27/27/27
f 29/29/29 31/31/31 30/30/30
f 30/30/30 32/32/32 29/29/29
f 33/33/33 32/32/32 30/30/30
f 30/30/30 34/34/34 33/33/33
f 35/35/35 37/37/37 36/36/36
f 36/36/36 38/38/38 35/35/35
f 39/39/39 38/38/38 36/36/36
f 36/36/36 40/40/40 39/39/39
f 41/41/41 43/43/43 42/42/42
f 42/42/42 44/44/44 41/41/41
f 45/45/45 47/47/47 46/46/46
f 46/46/46 48/48/48 45/45/45
f 48/48/48 46/46/46 49/49/49
f 49/49/49 46/46/46 50/50/50
f 51/51/51 53/53/53 52/52/52
f 52/52/52 54/54/54 51/51/51
f 55/55/55 57/57/57 56/56/56
f 56/56/56 58/58/58 55/55/55
f 59/59/59 61/61/61 60/60/60
f 60/60/60 62/62/62 59/59/59
f 63/63/63 65/65/65 64/64/64
f 64/64/64 66/66/66 63/63/63
f 67/67/67 69/69/69 68/68/68
f 68/68/68 70/70/70 67/67/67
f 67/67/67 70/70/70 71/71/71
f 71/71/71 72/72/72 67/67/67
f 73/73/73 75/75/75 74/74/74
f 74/74/74 76/76/76 73/73/73
f 74/74/74 75/75/75 77/77/77
f 77/77/77 78/78/78 74/74/74
f 79/79/79 81/81/81 80/80/80
f 80/80/80 82/82/82 79/79/79
f 83/83/83 85/85/85 84/84/84
f 86/86/86 88/88/88 87/87/87
f 89/89/89 91/91/91 90/90/90
f 92/92/92 94/94/94 93/93/93
f 95/95/95 97/97/97 96/96/96
f 98/98/98 100/100/100 99/99/99
f 101/101/101 103/103/103 102/102/102
f 104/104/104 106/106/106 105/105/105
f 107/107/107 109/109/109 108/108/108
f 108/108/108 110/110/110 107/107/107
f 111/111/111 113/113/113 112/112/112
f 112/112/112 114/114/114 111/111/111
f 115/115/115 117/117/117 116/116/116
f 116/116/116 118/118/118 115/115/115
f 119/119/119 121/121/121 120/120/120
f 120/120/120 122/122/122 119/119/119
f 123/123/123 125/125/125 124/124/124
f 124/124/124 126/126/126 123/123/123
f 127/127/127 125/125/125 123/123/123
f 123/123/123 128/128/128 127/127/127
f 129/129/129 131/131/131 130/130/130
f 130/130/130 132/132/132 129/129/129
f 133/133/133 132/132/132 130/130/130
f 130/130/130 134/134/134 133/133/133
f 135/135/135 137/137/137 136/136/136
f 136/136/136 138/138/138 135/135/135
f 139/139/139 141/141/141 140/140/140
f 142/142/142 144/144/144 143/143/143
f 145/145/145 147/147/147 146/146/146
f 148/148/148 150/150/150 149/149/149
f 151/151/151 153/153/153 152/152/152
f 154/154/154 156/156/156 155/155/155
f 157/157/157 159/159/159 158/158/158
f 160/160/160 162/162/162 161/161/161
