#sidewalk03_C_10747_1814.obj

v 3.319167E-06 0.15 0.9999968
v 2.947622E-06 1.355752E-07 1.999995
v 3.319167E-06 1.355752E-07 0.9999968
v 2.947622E-06 0.15 1.999995
v 3.662486E-06 0.1499998 -4.909439E-06
v 3.662486E-06 -6.850059E-08 -4.909439E-06
v 2.604304E-06 3.396511E-07 2.999997
v 2.604304E-06 0.1500002 2.999997
v 0.2000038 0.15 0.9999952
v 2.947622E-06 0.15 1.999995
v 3.319167E-06 0.15 0.9999968
v 0.2000034 0.15 1.999997
v 0.2000042 0.1499998 -3.268531E-06
v 3.662486E-06 0.1499998 -4.909439E-06
v 2.604304E-06 0.1500002 2.999997
v 0.2000031 0.15 2.999995
v 1.500005 0.1499998 -5.638509E-06
v 0.2000038 0.15 0.9999952
v 0.2000042 0.1499998 -3.268531E-06
v 1.500004 0.15 0.9999961
v 1.500005 -6.850058E-08 -5.638509E-06
v 1.500004 0.15 0.9999961
v 1.500005 0.1499998 -5.638509E-06
v 1.500004 1.355752E-07 0.9999961
v 1.500003 0.1499998 2.322688
v 1.500004 1.355752E-07 1.999995
v 1.500003 1.355752E-07 2.322691
v 1.500004 0.15 1.999995
v 1.500003 0.15 2.999996
v 1.500003 3.396511E-07 2.999996
v 1.500004 0.2471849 0.9999961
v 1.500004 1.355752E-07 1.999995
v 1.500004 0.2471849 0.9999961
v 1.500004 0.15 0.9999961
v 1.500004 1.355752E-07 0.9999961
v 0.75753 0.04446908 1.847424
v 0.2217913 0.2354347 2.009947
v 0.2091644 0.2794297 1.549488
v 0.8734108 -0.01013631 1.968614
v 1.500003 0.1499998 2.322688
v 1.122523 0.1499998 1.999996
v 1.500004 0.15 1.999995
v 0.5639665 0.1499998 2.263315
v 0.9094542 0.1243068 1.995774
v 0.8192229 0.1499998 1.728509
v 1.500004 0.2471849 0.9999961
v 0.2000038 0.2471849 0.9999952
v 0.7949636 0.1499998 2.999995
v 0.2000031 0.15 2.999995
v 0.2000034 0.15 1.999997
v 1.500003 0.15 2.999996
v 0.7599518 -0.04529368 1.715892
v 0.2065091 0.2150263 1.522324
v 0.2078091 0.2468125 0.9986967
v 0.75014 -0.04268743 1.851446
v 0.5613109 0.2220938 2.243207
v 0.2173166 0.1576808 2.002812
v 0.8957626 0.1576808 2.002812
v 0.2173166 0.1576808 2.002812
v 0.8957626 0.04743879 2.012457
v 0.8957626 0.1576808 2.002812
v 0.2173166 0.04743879 2.012458
v 0.8957626 0.1576808 2.002812
v 0.5613109 0.1118521 2.252849
v 0.5613109 0.2220938 2.243207
v 0.8957626 0.04743879 2.012457
v 0.5613109 0.2220938 2.243207
v 0.2173166 0.04743879 2.012458
v 0.2173166 0.1576808 2.002812
v 0.5613109 0.1118521 2.252849
v 0.8734108 -0.01013631 1.968614
v 0.1809562 0.1251951 2.021141
v 0.2217913 0.2354347 2.009947
v 0.8325756 -0.1203758 1.979811
v 0.2217913 0.2354347 2.009947
v 0.1683294 0.1691904 1.560682
v 0.2091644 0.2794297 1.549488
v 0.1809562 0.1251951 2.021141
v 0.75753 0.04446908 1.847424
v 0.8325756 -0.1203758 1.979811
v 0.8734108 -0.01013631 1.968614
v 0.7166949 -0.06577024 1.858618
v 0.2091644 0.2794297 1.549488
v 0.7166949 -0.06577024 1.858618
v 0.75753 0.04446908 1.847424
v 0.1683294 0.1691904 1.560682
v 0.2065091 0.2150263 1.522324
v 0.1718183 0.1696302 0.9986976
v 0.2078091 0.2468125 0.9986967
v 0.1793149 0.1567081 1.522324
v 0.75014 -0.04268743 1.851446
v 0.1793149 0.1567081 1.522324
v 0.2065091 0.2150263 1.522324
v 0.7141492 -0.1198697 1.851447
v 0.7599518 -0.04529368 1.715892
v 0.7141492 -0.1198697 1.851447
v 0.75014 -0.04268743 1.851446
v 0.723961 -0.1224762 1.715893
v 0.2078091 0.2468125 0.9986967
v 0.723961 -0.1224762 1.715893
v 0.7599518 -0.04529368 1.715892
v 0.1718183 0.1696302 0.9986976
v 0.8192229 0.1499998 1.728509
v 0.2000038 0.15 0.9999952
v 0.2000038 0.2471849 0.9999952
v 0.8192229 0.01785391 1.728509
v 0.9094542 0.1243068 1.995774
v 0.8192229 0.01785391 1.728509
v 0.8192229 0.1499998 1.728509
v 0.8192229 0.01785391 1.728509
v 0.9094542 0.1243068 1.995774
v 0.9178332 0.01785391 1.999995
v 0.2000038 0.2471849 0.9999952
v 1.500004 0.15 0.9999961
v 1.500004 0.2471849 0.9999961
v 0.2000038 0.15 0.9999952
v 0.2000038 0.15 0.9999952
v 0.2000034 1.355752E-07 1.999997
v 0.2000034 0.15 1.999997
v 0.2000038 1.355752E-07 0.9999952
v 0.2000034 0.15 1.999997
v 0.5639665 0.06954101 2.263315
v 0.5639665 0.1499998 2.263315
v 0.2000034 1.355752E-07 1.999997
v 0.5639665 0.1499998 2.263315
v 0.9178332 0.01785391 1.999995
v 0.9094542 0.1243068 1.995774
v 0.9178332 0.01785391 1.999995
v 0.5639665 0.1499998 2.263315
v 0.5639665 0.06954101 2.263315

vn -0.008644951 -5.231949E-15 0.9999626
vn -0.008644951 -5.23195E-15 0.9999626
vn -0.008644951 -5.231949E-15 0.9999626
vn -0.008644951 -5.23195E-15 0.9999626
vn -0.008644951 -5.231948E-15 0.9999626
vn -0.008644951 -5.231949E-15 0.9999626
vn -0.008644951 -5.231948E-15 0.9999626
vn -0.008644951 -5.231947E-15 0.9999626
vn -1.136152E-07 0.9999992 -9.822214E-10
vn -6.374508E-08 0.9999992 -5.368211E-07
vn -1.184088E-07 0.9999992 -1.023663E-09
vn 4.836612E-08 0.9999992 -5.382384E-07
vn -1.184088E-07 0.9999992 -1.023664E-09
vn -1.184088E-07 0.9999992 -1.023663E-09
vn -5.257333E-08 0.9999992 -8.645297E-07
vn -5.841652E-08 0.9999992 -6.078195E-07
vn -1.184088E-07 0.9999992 -1.023664E-09
vn -1.136152E-07 0.9999992 -9.822214E-10
vn -1.184088E-07 0.9999992 -1.023664E-09
vn -1.184088E-07 0.9999992 -1.023663E-09
vn 0.0086449 7.455221E-15 -0.9999626
vn 0.0086449 7.455221E-15 -0.9999626
vn 0.0086449 7.455221E-15 -0.9999626
vn 0.0086449 7.455221E-15 -0.9999626
vn 0.008644984 3.790366E-15 -0.9999626
vn 0.008645221 -6.544168E-15 -0.9999626
vn 0.008644984 3.790599E-15 -0.9999626
vn 0.008645221 -6.544212E-15 -0.9999626
vn 0.008644748 1.412504E-14 -0.9999626
vn 0.008644748 1.412504E-14 -0.9999626
vn 0.008645053 7.853994E-16 -0.9999626
vn 0.008645053 7.854003E-16 -0.9999626
vn 0.008645053 7.854028E-16 -0.9999626
vn 0.008645053 7.85402E-16 -0.9999626
vn 0.008645053 7.853994E-16 -0.9999626
vn 0.08228042 0.931146 -0.3552403
vn 0.08228061 0.931146 -0.3552404
vn 0.08228067 0.931146 -0.3552404
vn 0.08228035 0.931146 -0.3552403
vn 4.200646E-08 0.9999992 1.974017E-07
vn -0.002596228 0.9997471 0.02229908
vn 0.0366087 0.9992168 0.0149673
vn -0.01214468 0.9999098 0.005597389
vn -0.07620188 0.990173 0.1172567
vn 0.1073158 0.9937055 0.03211359
vn 0.1151789 0.9931555 0.01934568
vn 0.1322254 0.9912181 0.001143125
vn 4.370974E-08 0.9999992 3.778961E-10
vn -5.841652E-08 0.9999992 -6.078195E-07
vn 4.836612E-08 0.9999992 -5.382384E-07
vn -1.132735E-07 0.9999992 2.425074E-07
vn 0.02681028 0.907752 -0.418648
vn 0.05585359 0.9105794 -0.4095412
vn 0.05984199 0.9109017 -0.4082594
vn 0.01674895 0.9065754 -0.4217097
vn -0.2588094 0.965925 -0.002237479
vn -0.2588094 0.965925 -0.002237479
vn -0.2588094 0.965925 -0.002237479
vn -0.9961576 -0.08715578 -0.008612055
vn -0.9961576 -0.08715577 -0.008612055
vn -0.9961576 -0.08715577 -0.008612055
vn -0.9961576 -0.08715577 -0.008612055
vn 0.8086134 0.07030009 -0.5841252
vn 0.8086134 0.07030009 -0.5841251
vn 0.8086134 0.07030009 -0.5841251
vn 0.8086135 0.07030011 -0.5841251
vn 0.8062791 0.07098182 0.5872614
vn 0.8062791 0.07098182 0.5872614
vn 0.8062791 0.07098182 0.5872615
vn 0.8062791 0.07098182 0.5872616
vn 0.9944617 0.06805918 -0.08008759
vn 0.9944617 0.06805918 -0.08008759
vn 0.9944617 0.06805919 -0.08008759
vn 0.9944618 0.06805785 -0.08008735
vn 0.05117342 0.3520308 0.9345883
vn 0.05117342 0.3520308 0.9345883
vn 0.05117342 0.3520308 0.9345883
vn 0.05117341 0.3520309 0.9345883
vn -0.7210216 -0.3023825 -0.6234523
vn -0.7210216 -0.3023826 -0.6234524
vn -0.7210216 -0.3023826 -0.6234524
vn -0.7210225 -0.3023841 -0.6234505
vn -0.8895124 -0.2333316 -0.3928414
vn -0.8895124 -0.2333315 -0.3928414
vn -0.8895124 -0.2333315 -0.3928414
vn -0.8895124 -0.2333303 -0.3928422
vn 0.01556494 0.422502 0.9062282
vn 0.01556494 0.422502 0.9062282
vn 0.01556494 0.422502 0.9062282
vn 0.01556492 0.4225022 0.9062282
vn 0.8735061 0.2028329 0.4425452
vn 0.8735061 0.2028329 0.4425452
vn 0.8735061 0.202833 0.4425452
vn 0.8735061 0.202833 0.4425451
vn 0.08133835 -0.4214741 -0.9031851
vn 0.08133835 -0.421474 -0.9031851
vn 0.08133835 -0.4214741 -0.9031851
vn 0.08133857 -0.4214737 -0.9031852
vn -0.65037 -0.318863 -0.6894529
vn -0.65037 -0.3188629 -0.6894529
vn -0.65037 -0.318863 -0.6894529
vn -0.65037 -0.3188629 -0.6894529
vn 0.6410259 -1.778486E-07 0.7675194
vn 0.641026 -1.778486E-07 0.7675194
vn 0.641026 -1.778486E-07 0.7675194
vn 0.6410259 -2.830909E-08 0.7675194
vn 0.3116703 -1.398208E-08 0.9501904
vn 0.3116703 -1.398208E-08 0.9501904
vn 0.3116703 -1.398208E-08 0.9501904
vn 0.3326573 -0.06033733 0.9411156
vn 0.3326573 -0.06033733 0.9411156
vn 0.3326573 -0.06033733 0.9411156
vn -0.9999627 4.371134E-08 -0.008644952
vn -0.9999627 4.371134E-08 -0.008644952
vn -0.9999627 4.371134E-08 -0.008644952
vn -0.9999627 4.371134E-08 -0.008644952
vn 0.008644938 5.787767E-15 -0.9999626
vn 0.008644938 5.787768E-15 -0.9999626
vn 0.008644938 5.787767E-15 -0.9999626
vn 0.008644938 5.787767E-15 -0.9999626
vn -0.8050974 3.541471E-08 -0.5931428
vn -0.8050975 3.541471E-08 -0.5931429
vn -0.8050974 3.541471E-08 -0.5931428
vn -0.8050975 3.541471E-08 -0.5931429
vn -0.7905592 -0.07946241 0.6072081
vn -0.7905592 -0.07946241 0.6072081
vn -0.7905592 -0.0794624 0.6072081
vn -0.8073881 3.506773E-08 0.5900208
vn -0.8073881 3.506773E-08 0.5900208
vn -0.8073881 3.506773E-08 0.5900208

vt 0.333252 -2.384186E-07
vt 0.6665039 0.04998779
vt 0.333252 0.04998779
vt 0.6665039 -2.384186E-07
vt 0 -1.788139E-07
vt 0 0.04998779
vt 1 0.04998779
vt 1 -2.980232E-07
vt 0.333252 0.06665039
vt 0.6665039 -2.384186E-07
vt 0.333252 -2.384186E-07
vt 0.6665039 0.06665039
vt -5.960464E-08 0.06665039
vt 0 -1.788139E-07
vt 1 -2.980232E-07
vt 1 0.06665039
vt 1.192093E-07 1
vt 0.333252 0.5688477
vt 1.192093E-07 0.5688477
vt 0.333252 1
vt 0 0.9501953
vt 0.333252 1
vt 1.192093E-07 1
vt 0.333252 0.9501953
vt 0.7744141 1
vt 0.6665039 0.9501953
vt 0.7744141 0.9501953
vt 0.6665039 1
vt 1 1
vt 1 0.9501953
vt 0.333252 0.9975586
vt 0.6689453 0.9555664
vt 0.333252 0.9975586
vt 0.333252 0.9833984
vt 0.333252 0.9389648
vt 0.6225586 0.765625
vt 0.6665039 0.5688477
vt 0.5078125 0.5688477
vt 0.6665039 0.8066406
vt 0.7744141 1
vt 0.6665039 0.875
vt 0.6665039 1
vt 0.7543945 0.6894531
vt 0.6665039 0.8066406
vt 0.5771484 0.7700195
vt 0.333252 0.9975586
vt 0.333252 0.5708008
vt 1 0.7661133
vt 1 0.5688477
vt 0.6665039 0.5688477
vt 1 1
vt 0.5771484 0.7700195
vt 0.5078125 0.5688477
vt 0.333252 0.5688477
vt 0.6225586 0.765625
vt 0.7543945 0.6894531
vt 0.6665039 0.5688477
vt 0.6665039 0.8066406
vt 0.6665039 0.8066406
vt 0.6411133 0.5688477
vt 0.6665039 0.5688477
vt 0.6411133 0.8066406
vt 0.6411133 0.8066406
vt 0.6665039 0.6933594
vt 0.6411133 0.6933594
vt 0.6665039 0.8066406
vt 0.6411133 0.6933594
vt 0.6665039 0.5688477
vt 0.6411133 0.5688477
vt 0.6665039 0.6933594
vt 0.668457 0.7993164
vt 0.7070313 0.5712891
vt 0.668457 0.5712891
vt 0.7070313 0.7993164
vt 0.6665039 0.5688477
vt 0.5078125 0.6010742
vt 0.5078125 0.5688477
vt 0.6665039 0.6010742
vt 0.4453125 0.5
vt 0.5 0.5366211
vt 0.5 0.5
vt 0.4453125 0.5366211
vt 0.237915 0.5
vt 0.4453125 0.5366211
vt 0.4453125 0.5
vt 0.237915 0.5366211
vt 0.5078125 0.5717773
vt 0.333252 0.6035156
vt 0.333252 0.5717773
vt 0.5078125 0.6035156
vt 0.6225586 0.765625
vt 0.5078125 0.5688477
vt 0.5078125 0.5688477
vt 0.6225586 0.765625
vt 0.5771484 0.7700195
vt 0.6225586 0.765625
vt 0.6225586 0.765625
vt 0.5771484 0.7700195
vt 0.333252 0.5688477
vt 0.5771484 0.7700195
vt 0.5771484 0.7700195
vt 0.333252 0.5688477
vt 0.2641602 0.4941406
vt 0.5673828 0.5322266
vt 0.5673828 0.4941406
vt 0.2641602 0.5322266
vt 0.1726074 0.4941406
vt 0.2641602 0.5322266
vt 0.2641602 0.4941406
vt 0.2641602 0.5322266
vt 0.1726074 0.4941406
vt 0.1726074 0.5322266
vt 0.333252 0.5708008
vt 0.3515625 0.9956055
vt 0.333252 0.9975586
vt 0.3515625 0.5732422
vt 0.333252 0.06665039
vt 0.6665039 -2.384186E-07
vt 0.6665039 0.06665039
vt 0.333252 -2.980232E-07
vt 0.7612305 0.5742188
vt 0.800293 0.6884766
vt 0.7792969 0.6914063
vt 0.800293 0.5683594
vt 0.6660156 0.6923828
vt 0.640625 0.8134766
vt 0.6660156 0.8134766
vt 0.640625 0.8134766
vt 0.6660156 0.6923828
vt 0.640625 0.6923828

g sidewalk03_C_10747_1814
usemtl sidewalk03_C_10747_1814
usemap sidewalk03_C_10747_1814
f 1/1/1 3/3/3 2/2/2
f 2/2/2 4/4/4 1/1/1
f 3/3/3 1/1/1 5/5/5
f 5/5/5 6/6/6 3/3/3
f 4/4/4 2/2/2 7/7/7
f 7/7/7 8/8/8 4/4/4
f 9/9/9 11/11/11 10/10/10
f 10/10/10 12/12/12 9/9/9
f 11/11/11 9/9/9 13/13/13
f 13/13/13 14/14/14 11/11/11
f 12/12/12 10/10/10 15/15/15
f 15/15/15 16/16/16 12/12/12
f 17/17/17 19/19/19 18/18/18
f 18/18/18 20/20/20 17/17/17
f 21/21/21 23/23/23 22/22/22
f 22/22/22 24/24/24 21/21/21
f 25/25/25 27/27/27 26/26/26
f 26/26/26 28/28/28 25/25/25
f 27/27/27 25/25/25 29/29/29
f 29/29/29 30/30/30 27/27/27
f 31/31/31 28/28/28 32/32/32
f 32/32/32 34/34/34 33/33/33
f 34/34/34 32/32/32 35/35/35
f 36/36/36 38/38/38 37/37/37
f 37/37/37 39/39/39 36/36/36
f 40/40/40 42/42/42 41/41/41
f 41/41/41 43/43/43 40/40/40
f 41/41/41 44/44/44 43/43/43
f 44/44/44 41/41/41 45/45/45
f 41/41/41 42/42/42 45/45/45
f 42/42/42 46/46/46 45/45/45
f 45/45/45 46/46/46 47/47/47
f 40/40/40 43/43/43 48/48/48
f 49/49/49 48/48/48 43/43/43
f 43/43/43 50/50/50 49/49/49
f 48/48/48 51/51/51 40/40/40
f 52/52/52 54/54/54 53/53/53
f 53/53/53 55/55/55 52/52/52
f 56/56/56 58/58/58 57/57/57
f 59/59/59 61/61/61 60/60/60
f 60/60/60 62/62/62 59/59/59
f 63/63/63 65/65/65 64/64/64
f 64/64/64 66/66/66 63/63/63
f 67/67/67 69/69/69 68/68/68
f 68/68/68 70/70/70 67/67/67
f 71/71/71 73/73/73 72/72/72
f 72/72/72 74/74/74 71/71/71
f 75/75/75 77/77/77 76/76/76
f 76/76/76 78/78/78 75/75/75
f 79/79/79 81/81/81 80/80/80
f 80/80/80 82/82/82 79/79/79
f 83/83/83 85/85/85 84/84/84
f 84/84/84 86/86/86 83/83/83
f 87/87/87 89/89/89 88/88/88
f 88/88/88 90/90/90 87/87/87
f 91/91/91 93/93/93 92/92/92
f 92/92/92 94/94/94 91/91/91
f 95/95/95 97/97/97 96/96/96
f 96/96/96 98/98/98 95/95/95
f 99/99/99 101/101/101 100/100/100
f 100/100/100 102/102/102 99/99/99
f 103/103/103 105/105/105 104/104/104
f 104/104/104 106/106/106 103/103/103
f 107/107/107 109/109/109 108/108/108
f 110/110/110 112/112/112 111/111/111
f 113/113/113 115/115/115 114/114/114
f 114/114/114 116/116/116 113/113/113
f 117/117/117 119/119/119 118/118/118
f 118/118/118 120/120/120 117/117/117
f 121/121/121 123/123/123 122/122/122
f 122/122/122 124/124/124 121/121/121
f 125/125/125 127/127/127 126/126/126
f 128/128/128 130/130/130 129/129/129
