#sidewalk13_10041_1839.obj

v 1.500037 0.1499997 -2.966056E-05
v 0.2000344 0.1500003 2.999973
v 0.2000348 0.1499999 -2.915834E-05
v 1.500037 0.1500003 2.999972
v 3.418748E-05 0.1499999 -3.017823E-05
v 3.37909E-05 5.103276E-07 2.999972
v 3.418748E-05 6.468536E-08 -3.017823E-05
v 3.37909E-05 0.1500003 2.999972
v 1.500037 6.468536E-08 -2.966056E-05
v 1.500037 0.1500003 2.999972
v 1.500037 0.1499997 -2.966056E-05
v 1.500037 5.103276E-07 2.999972
v 0.2000344 0.1500003 2.999973
v 3.418748E-05 0.1499999 -3.017823E-05
v 0.2000348 0.1499999 -2.915834E-05
v 3.37909E-05 0.1500003 2.999972

vn 1.621544E-07 0.9999989 4.360078E-08
vn 1.621544E-07 0.9999989 4.360078E-08
vn 1.621544E-07 0.9999989 4.360078E-08
vn 1.621544E-07 0.9999989 4.360078E-08
vn -0.0006823248 4.371136E-08 -0.9999998
vn -0.0006823248 4.371136E-08 -0.9999998
vn -0.0006823248 4.371136E-08 -0.9999998
vn -0.0006823248 4.371136E-08 -0.9999998
vn 0.0006823248 -4.371136E-08 0.9999998
vn 0.0006823248 -4.371136E-08 0.9999998
vn 0.0006823248 -4.371136E-08 0.9999998
vn 0.0006823248 -4.371136E-08 0.9999998
vn 1.621544E-07 0.9999989 4.360078E-08
vn 1.621544E-07 0.9999989 4.360078E-08
vn 1.621544E-07 0.9999989 4.360078E-08
vn 1.621544E-07 0.9999989 4.360078E-08

vt 1.192093E-07 1
vt 1 0.5688477
vt 1.192093E-07 0.5688477
vt 1 1
vt 0 -1.788139E-07
vt 1 0.04998779
vt 0 0.04998779
vt 1 -2.980232E-07
vt 0 0.9501953
vt 1 1
vt 1.192093E-07 1
vt 1 0.9501953
vt 1 0.06665039
vt 0 -1.788139E-07
vt -5.960464E-08 0.06665039
vt 1 -2.980232E-07

g sidewalk13_10041_1839
usemtl sidewalk13_10041_1839
usemap sidewalk13_10041_1839
f 1/1/1 3/3/3 2/2/2
f 2/2/2 4/4/4 1/1/1
f 5/5/5 7/7/7 6/6/6
f 6/6/6 8/8/8 5/5/5
f 9/9/9 11/11/11 10/10/10
f 10/10/10 12/12/12 9/9/9
f 13/13/13 15/15/15 14/14/14
f 14/14/14 16/16/16 13/13/13
