#sidewalk03_rampL_11094_1812.obj

v 1.500035 0.05000001 -4.430488E-05
v 0.2000352 0.1499997 0.9999629
v 0.2000328 0.04999979 -3.828185E-05
v 1.500037 0.1499997 0.9999623
v 0.2000364 0.1499994 2.999964
v 1.500039 0.1499998 2.999963
v 1.500039 0.1499998 2.999963
v 1.500037 -3.372472E-07 0.9999623
v 1.500039 -2.498245E-07 2.999963
v 1.500037 0.1499997 0.9999623
v 1.500035 6.468342E-08 -4.43027E-05
v 1.500035 0.05000001 -4.430488E-05
v 3.457162E-05 0.1499999 0.9999637
v 3.21943E-05 6.468372E-08 -3.749035E-05
v 3.21943E-05 0.1500001 -3.749691E-05
v 3.457162E-05 1.083951E-07 0.9999637
v 3.576234E-05 0.1499994 2.999964
v 3.576234E-05 -4.726456E-07 2.999964
v 0.2000352 0.1499997 0.9999629
v 3.21943E-05 0.1500001 -3.749691E-05
v 0.2000328 0.1500001 -3.650365E-05
v 3.457162E-05 0.1499999 0.9999637
v 0.2000364 0.1499994 2.999964
v 3.576234E-05 0.1499994 2.999964
v 0.2000352 0.1499997 0.9999629
v 0.2000328 0.1500001 -3.650365E-05
v 0.2000328 0.04999979 -3.828185E-05
v 0.2000328 0.04999979 -3.828185E-05
v 3.21943E-05 0.1500001 -3.749691E-05
v 3.21943E-05 6.468372E-08 -3.749035E-05
v 0.2000328 0.1500001 -3.650365E-05
v 0.2000328 6.468368E-08 -3.827966E-05
v 1.500035 0.05000001 -4.430488E-05
v 0.2000328 6.468368E-08 -3.827966E-05
v 1.500035 6.468342E-08 -4.43027E-05
v 0.2000328 0.04999979 -3.828185E-05

vn 0.09950315 0.9950361 -6.821343E-05
vn 0.02489879 0.9996887 -1.701216E-05
vn 0.09950349 0.9950359 -6.849698E-05
vn 0.0498132 0.9987574 -3.403499E-05
vn -2.190659E-07 0.9999988 -2.175479E-07
vn -4.386682E-08 0.9999988 -2.273848E-07
vn 0.0006835031 3.552725E-15 0.9999998
vn 0.0006835031 3.552725E-15 0.9999998
vn 0.0006835031 3.552725E-15 0.9999998
vn 0.0006835031 3.552725E-15 0.9999998
vn 0.0006838082 1.68923E-14 0.9999998
vn 0.0006838082 1.68923E-14 0.9999998
vn -0.0006837319 -1.355746E-14 -0.9999998
vn -0.0006838082 -1.689237E-14 -0.9999998
vn -0.0006838082 -1.689237E-14 -0.9999998
vn -0.0006837319 -1.355746E-14 -0.9999998
vn -0.0006836556 -1.022255E-14 -0.9999998
vn -0.0006836556 -1.022255E-14 -0.9999998
vn 0.02489879 0.9996887 -1.701216E-05
vn -4.358655E-07 0.9999988 2.97793E-10
vn -4.442547E-07 0.9999988 3.035249E-10
vn -3.078759E-07 0.9999988 3.128163E-07
vn -2.190659E-07 0.9999988 -2.175479E-07
vn -3.014316E-07 0.9999988 -3.335781E-07
vn 0.000684266 7.629369E-06 0.9999998
vn 0.000684266 7.629369E-06 0.9999998
vn 0.000684266 7.629369E-06 0.9999998
vn 0.9999998 7.323854E-06 -0.0006856343
vn 0.9999998 3.48388E-06 -0.0006875543
vn 0.9999998 -1.192096E-07 -0.0006893558
vn 0.9999998 1.208776E-05 -0.0006832524
vn 0.9999998 -1.192066E-07 -0.0006893558
vn 0.9999998 -1.192087E-07 -0.0006867736
vn 0.9999998 -1.192087E-07 -0.0006867736
vn 0.9999998 -1.192087E-07 -0.0006867736
vn 0.9999998 -1.192064E-07 -0.0006867736

vt -0.0002212524 0.5688477
vt 0.3344727 1
vt 6.914139E-06 1
vt 0.3344727 0.5688477
vt 1 1
vt 1 0.5688477
vt 1 0.5688477
vt 0.3344727 0.6196289
vt 1 0.6196289
vt 0.3344727 0.5688477
vt -0.0002225637 0.5854492
vt -0.0002212524 0.5688477
vt 0.6665039 -1.788139E-07
vt 1 0.04998779
vt 1 -2.980232E-07
vt 0.6665039 0.04998779
vt 0 -1.788139E-07
vt 0 0.04998779
vt 0.6665039 0.06646729
vt 1 -2.980232E-07
vt 1 0.06646729
vt 0.6665039 -1.788139E-07
vt -5.960464E-08 0.06646729
vt 0 -1.788139E-07
vt 0.6665039 0.06646729
vt 1 0.06646729
vt 1 0.1062012
vt 0.9833984 -2.980232E-07
vt 0.9545898 0.04998779
vt 1 0.04998779
vt 0.9545898 5.960464E-08
vt 1 -2.980232E-07
vt -0.0002212524 0.5688477
vt -0.01667786 1
vt -0.01690674 0.5688477
vt 6.914139E-06 1

g sidewalk03_rampL_11094_1812
usemtl sidewalk03_rampL_11094_1812
usemap sidewalk03_rampL_11094_1812
f 1/1/1 3/3/3 2/2/2
f 2/2/2 4/4/4 1/1/1
f 4/4/4 2/2/2 5/5/5
f 5/5/5 6/6/6 4/4/4
f 7/7/7 9/9/9 8/8/8
f 8/8/8 10/10/10 7/7/7
f 10/10/10 8/8/8 11/11/11
f 11/11/11 12/12/12 10/10/10
f 13/13/13 15/15/15 14/14/14
f 14/14/14 16/16/16 13/13/13
f 17/17/17 13/13/13 16/16/16
f 16/16/16 18/18/18 17/17/17
f 19/19/19 21/21/21 20/20/20
f 20/20/20 22/22/22 19/19/19
f 23/23/23 19/19/19 22/22/22
f 22/22/22 24/24/24 23/23/23
f 25/25/25 27/27/27 26/26/26
f 28/28/28 30/30/30 29/29/29
f 29/29/29 31/31/31 28/28/28
f 32/32/32 30/30/30 28/28/28
f 33/33/33 35/35/35 34/34/34
f 34/34/34 36/36/36 33/33/33
