#sign_gas_9046_1005.obj

v -0.1036501 -6.850058E-08 -3.56949E-06
v -0.1036522 6.659999 -6.072474E-06
v 1.023135E-06 6.659999 0.1426533
v 7.479396E-07 -6.850058E-08 0.1426536
v 0.1677076 6.659999 0.08816352
v 0.167707 -6.850058E-08 0.08816413
v 0.1677056 6.659999 -0.08817332
v 0.1677054 -6.850058E-08 -0.08817302
v 1.914571E-06 6.659999 -0.142663
v 1.639376E-06 -6.850058E-08 -0.1426627
v 1.639376E-06 -6.850058E-08 -0.1426627
v 1.914571E-06 6.659999 -0.142663
v -0.1036522 6.659999 -6.072474E-06
v 1.914571E-06 6.659999 -0.142663
v 0.1677056 6.659999 -0.08817332
v 0.1677076 6.659999 0.08816352
v 1.023135E-06 6.659999 0.1426533
v -0.1036518 5.956179 -0.5000057
v -0.3036524 5.956179 -0.5000062
v -0.303651 5.956179 0.4999954
v -0.1036504 5.956179 0.499996
v -0.1036518 6.956179 -0.5000057
v -0.1036502 6.956179 0.4999957
v -0.3036507 6.956179 0.4999951
v -0.3036524 6.956179 -0.5000062
v -0.1036518 5.956179 -0.5000057
v -0.1036518 6.956179 -0.5000057
v -0.3036524 6.956179 -0.5000062
v -0.3036524 5.956179 -0.5000062
v -0.3036524 5.956179 -0.5000062
v -0.3036524 6.956179 -0.5000062
v -0.3036507 6.956179 0.4999951
v -0.303651 5.956179 0.4999954
v -0.303651 5.956179 0.4999954
v -0.3036507 6.956179 0.4999951
v -0.1036502 6.956179 0.4999957
v -0.1036504 5.956179 0.499996
v -0.1036504 5.956179 0.499996
v -0.1036502 6.956179 0.4999957
v -0.1036518 6.956179 -0.5000057
v -0.1036518 5.956179 -0.5000057
v -0.1036518 4.726299 -0.5000057
v -0.30365 4.726299 -0.500004
v -0.303651 4.726299 0.4999954
v -0.1036504 4.726299 0.499996
v -0.1036518 5.726299 -0.5000057
v -0.1036504 5.726299 0.499996
v -0.303651 5.726299 0.4999954
v -0.3036524 5.726299 -0.5000062
v -0.1036518 4.726299 -0.5000057
v -0.1036518 5.726299 -0.5000057
v -0.3036524 5.726299 -0.5000062
v -0.30365 4.726299 -0.500004
v -0.30365 4.726299 -0.500004
v -0.3036524 5.726299 -0.5000062
v -0.303651 5.726299 0.4999954
v -0.303651 4.726299 0.4999954
v -0.303651 4.726299 0.4999954
v -0.303651 5.726299 0.4999954
v -0.1036504 5.726299 0.499996
v -0.1036504 4.726299 0.499996
v -0.1036504 4.726299 0.499996
v -0.1036504 5.726299 0.499996
v -0.1036518 5.726299 -0.5000057
v -0.1036518 4.726299 -0.5000057
v -0.1036518 3.496421 -0.5000057
v -0.30365 3.496421 -0.500004
v -0.303651 3.496421 0.4999954
v -0.1036504 3.496421 0.499996
v -0.1036518 4.496421 -0.5000057
v -0.1036504 4.496421 0.499996
v -0.303651 4.496421 0.4999954
v -0.30365 4.496421 -0.500004
v -0.1036518 3.496421 -0.5000057
v -0.1036518 4.496421 -0.5000057
v -0.30365 4.496421 -0.500004
v -0.30365 3.496421 -0.500004
v -0.30365 3.496421 -0.500004
v -0.30365 4.496421 -0.500004
v -0.303651 4.496421 0.4999954
v -0.303651 3.496421 0.4999954
v -0.303651 3.496421 0.4999954
v -0.303651 4.496421 0.4999954
v -0.1036504 4.496421 0.499996
v -0.1036504 3.496421 0.499996
v -0.1036504 3.496421 0.499996
v -0.1036504 4.496421 0.499996
v -0.1036518 4.496421 -0.5000057
v -0.1036518 3.496421 -0.5000057
v -0.3263559 3.360925 0.9616413
v -0.3263559 3.587332 0.9616413
v -0.3263558 3.130464 1.804466
v -0.3263559 3.130464 0.9616413
v -0.3263559 3.130464 -0.8593577
v -0.3263559 3.360925 -0.8593577
v -0.3263558 3.130464 -1.288808
v -0.3263559 3.550054 -1.006631
v -0.3263552 3.550054 -1.436081
v -0.3263559 2.900003 0.9616413
v -0.3263559 2.673596 0.9616413
v -0.3263559 2.900003 -0.8593577
v -0.3263559 2.710874 -1.006631
v -0.3263555 2.710874 -1.436081
v -0.1349013 3.130464 1.804466
v -0.1349009 3.587332 0.9616408
v -0.1349009 3.360925 0.9616408
v -0.1349009 3.130464 0.9616408
v -0.1349012 3.130464 -0.8593579
v -0.1349012 3.360925 -0.8593579
v -0.1349008 3.130464 -1.288808
v -0.1349009 3.550054 -1.006631
v -0.1349005 3.550054 -1.436081
v -0.1349012 2.900003 0.9616411
v -0.1349012 2.673596 0.9616411
v -0.1349012 2.900003 -0.8593579
v -0.1349009 2.710874 -1.006631
v -0.1349008 2.710874 -1.436081
v -0.3263559 3.587332 0.9616413
v -0.1349009 3.587332 0.9616408
v -0.1349013 3.130464 1.804466
v -0.3263558 3.130464 1.804466
v -0.3263559 3.360925 0.9616413
v -0.1349009 3.360925 0.9616408
v -0.1349009 3.587332 0.9616408
v -0.3263559 3.587332 0.9616413
v -0.3263559 3.550054 -1.006631
v -0.1349009 3.550054 -1.006631
v -0.1349012 3.360925 -0.8593579
v -0.3263559 3.360925 -0.8593577
v -0.3263552 3.550054 -1.436081
v -0.1349005 3.550054 -1.436081
v -0.1349009 3.550054 -1.006631
v -0.3263559 3.550054 -1.006631
v -0.3263558 3.130464 -1.288808
v -0.1349008 3.130464 -1.288808
v -0.1349005 3.550054 -1.436081
v -0.3263552 3.550054 -1.436081
v -0.3263555 2.710874 -1.436081
v -0.1349008 2.710874 -1.436081
v -0.3263559 3.360925 -0.8593577
v -0.1349012 3.360925 -0.8593579
v -0.1349009 3.360925 0.9616408
v -0.3263559 3.360925 0.9616413
v -0.3263559 2.673596 0.9616413
v -0.1349012 2.673596 0.9616411
v -0.1349012 2.900003 0.9616411
v -0.3263559 2.900003 0.9616413
v -0.3263558 3.130464 1.804466
v -0.1349013 3.130464 1.804466
v -0.1349012 2.673596 0.9616411
v -0.3263559 2.673596 0.9616413
v -0.3263559 2.710874 -1.006631
v -0.1349009 2.710874 -1.006631
v -0.1349008 2.710874 -1.436081
v -0.3263555 2.710874 -1.436081
v -0.3263559 2.900003 -0.8593577
v -0.1349012 2.900003 -0.8593579
v -0.1349009 2.710874 -1.006631
v -0.3263559 2.710874 -1.006631
v -0.3263559 2.900003 0.9616413
v -0.1349012 2.900003 0.9616411
v -0.1349012 2.900003 -0.8593579
v -0.3263559 2.900003 -0.8593577

vn -0.6742478 0 -0.7385053
vn -0.6742478 0 -0.7385053
vn -0.9107093 0 0.4130474
vn -0.9107093 0 0.4130474
vn 0.1113963 0 0.993776
vn 0.1113963 0 0.993776
vn 0.9795602 0 0.2011513
vn 0.9795602 0 0.2011513
vn 0.4940162 0 -0.8694524
vn 0.4940163 0 -0.8694524
vn 0.4940163 0 -0.8694524
vn 0.4940162 0 -0.8694524
vn 0 0.999999 0
vn 0 0.999999 0
vn 0 0.999999 0
vn 0 0.999999 0
vn 0 0.999999 0
vn 0 -0.999999 0
vn 0 -0.999999 0
vn 0 -0.999999 0
vn 0 -0.999999 0
vn 0 0.999999 0
vn 0 0.999999 0
vn 0 0.999999 0
vn 0 0.999999 0
vn 0.7385051 0 -0.6742475
vn 0.7385051 0 -0.6742475
vn 0.7385051 0 -0.6742475
vn 0.7385051 0 -0.6742475
vn -0.6742478 0 -0.7385053
vn -0.6742478 0 -0.7385053
vn -0.6742478 0 -0.7385053
vn -0.6742478 0 -0.7385053
vn -0.7385051 1.525877E-07 0.6742475
vn -0.7385051 1.525877E-07 0.6742475
vn -0.7385051 1.525877E-07 0.6742475
vn -0.7385051 1.525877E-07 0.6742475
vn 0.6742478 0 0.7385053
vn 0.6742478 0 0.7385053
vn 0.6742478 0 0.7385053
vn 0.6742478 0 0.7385053
vn 0 -0.999999 0
vn 0 -0.999999 0
vn 0 -0.999999 0
vn 0 -0.999999 0
vn 0 0.999999 0
vn 0 0.999999 0
vn 0 0.999999 0
vn 0 0.999999 0
vn 0.7385051 -3.051755E-07 -0.6742475
vn 0.7385051 -3.051755E-07 -0.6742475
vn 0.7385051 -3.051755E-07 -0.6742475
vn 0.7385051 -3.051755E-07 -0.6742475
vn -0.6742478 0 -0.7385053
vn -0.6742478 0 -0.7385053
vn -0.6742478 0 -0.7385053
vn -0.6742478 0 -0.7385053
vn -0.7385051 0 0.6742475
vn -0.7385051 0 0.6742475
vn -0.7385051 0 0.6742475
vn -0.7385051 0 0.6742475
vn 0.6742478 0 0.7385053
vn 0.6742478 0 0.7385053
vn 0.6742478 0 0.7385053
vn 0.6742478 0 0.7385053
vn 0 -0.999999 0
vn 0 -0.999999 0
vn 0 -0.999999 0
vn 0 -0.999999 0
vn 0 0.999999 0
vn 0 0.999999 0
vn 0 0.999999 0
vn 0 0.999999 0
vn 0.7385051 0 -0.6742475
vn 0.7385051 0 -0.6742475
vn 0.7385051 0 -0.6742475
vn 0.7385051 0 -0.6742475
vn -0.6742478 0 -0.7385053
vn -0.6742478 0 -0.7385053
vn -0.6742478 0 -0.7385053
vn -0.6742478 0 -0.7385053
vn -0.7385051 1.525877E-07 0.6742475
vn -0.7385051 1.525877E-07 0.6742475
vn -0.7385051 1.525877E-07 0.6742475
vn -0.7385051 1.525877E-07 0.6742475
vn 0.6742478 0 0.7385053
vn 0.6742478 0 0.7385053
vn 0.6742478 0 0.7385053
vn 0.6742478 0 0.7385053
vn -0.6742478 0 -0.7385053
vn -0.6742478 0 -0.7385053
vn -0.6742478 0 -0.7385053
vn -0.6742478 0 -0.7385053
vn -0.6742478 0 -0.7385053
vn -0.6742478 0 -0.7385053
vn -0.6742478 0 -0.7385053
vn -0.6742478 0 -0.7385053
vn -0.6742478 0 -0.7385053
vn -0.6742478 0 -0.7385053
vn -0.6742478 0 -0.7385053
vn -0.6742478 0 -0.7385053
vn -0.6742478 0 -0.7385053
vn -0.6742478 0 -0.7385053
vn 0.6742478 0 0.7385053
vn 0.6742478 0 0.7385053
vn 0.6742478 0 0.7385053
vn 0.6742478 0 0.7385053
vn 0.6742478 0 0.7385053
vn 0.6742478 0 0.7385053
vn 0.6742478 0 0.7385053
vn 0.6742478 0 0.7385053
vn 0.6742478 0 0.7385053
vn 0.6742478 0 0.7385053
vn 0.6742478 0 0.7385053
vn 0.6742478 0 0.7385053
vn 0.6742478 0 0.7385053
vn 0.6742478 0 0.7385053
vn -0.3519386 0.8791435 0.3213163
vn -0.3519386 0.8791435 0.3213163
vn -0.3519386 0.8791435 0.3213163
vn -0.3519386 0.8791435 0.3213163
vn 0.7385051 0 -0.6742475
vn 0.7385051 0 -0.6742475
vn 0.7385051 0 -0.6742475
vn 0.7385051 0 -0.6742475
vn -0.5826818 0.6143904 0.5319824
vn -0.5826818 0.6143904 0.5319824
vn -0.5826818 0.6143904 0.5319824
vn -0.5826818 0.6143904 0.5319824
vn 0 0.999999 0
vn 0 0.999999 0
vn 0 0.999999 0
vn 0 0.999999 0
vn 0.7385041 -6.434397E-07 -0.6742487
vn 0.7385041 -6.434393E-07 -0.6742487
vn 0.6968269 -0.3311858 -0.6361977
vn 0.6968269 -0.3311858 -0.6361977
vn 0.6968272 0.3311846 -0.636198
vn 0.6968272 0.3311846 -0.636198
vn 0 0.999999 0
vn 0 0.999999 0
vn 0 0.999999 0
vn 0 0.999999 0
vn 0.7385048 0 -0.6742478
vn 0.7385048 0 -0.6742478
vn 0.7385048 0 -0.6742478
vn 0.7385048 0 -0.6742478
vn -0.3519386 -0.8791434 0.3213163
vn -0.3519386 -0.8791434 0.3213163
vn -0.3519386 -0.8791435 0.3213163
vn -0.3519386 -0.8791435 0.3213163
vn 0 -0.999999 0
vn 0 -0.999999 0
vn 0 -0.999999 0
vn 0 -0.999999 0
vn -0.5826818 -0.6143905 0.5319824
vn -0.5826818 -0.6143905 0.5319824
vn -0.5826818 -0.6143905 0.5319824
vn -0.5826818 -0.6143905 0.5319824
vn 0 -0.999999 0
vn 0 -0.999999 0
vn 0 -0.999999 0
vn 0 -0.999999 0

vt 0.8925781 0.1300049
vt 0.8925781 0.5361328
vt 0.9013672 0.5361328
vt 0.9013672 0.1300049
vt 0.9116211 0.5361328
vt 0.9116211 0.1300049
vt 0.9223633 0.5361328
vt 0.9223633 0.1300049
vt 0.9326172 0.5361328
vt 0.9326172 0.1300049
vt 0.8842773 0.1300049
vt 0.8842773 0.5361328
vt 0.9033203 0.5429688
vt 0.909668 0.5512695
vt 0.9194336 0.5483398
vt 0.9194336 0.5380859
vt 0.909668 0.5351563
vt 0.3330078 0.2265625
vt 0.3320313 0.2265625
vt 0.3320313 0.2313232
vt 0.3330078 0.2313232
vt 0.3376465 0.2265625
vt 0.3376465 0.2313232
vt 0.338623 0.2313232
vt 0.338623 0.2265625
vt 0.3330078 0.2265625
vt 0.3376465 0.2265625
vt 0.3376465 0.225708
vt 0.3330078 0.225708
vt 0.2912598 0.1842041
vt 0.2912598 0.2392578
vt 0.3464355 0.2392578
vt 0.3464355 0.1842041
vt 0.3330078 0.2321777
vt 0.3376465 0.2321777
vt 0.3376465 0.2313232
vt 0.3330078 0.2313232
vt 0.3330078 0.2313232
vt 0.3376465 0.2313232
vt 0.3376465 0.2265625
vt 0.3330078 0.2265625
vt 0.3999023 0.2253418
vt 0.3989258 0.2253418
vt 0.3989258 0.2301025
vt 0.3999023 0.2301025
vt 0.404541 0.2253418
vt 0.404541 0.2301025
vt 0.4055176 0.2301025
vt 0.4055176 0.2253418
vt 0.3999023 0.2253418
vt 0.404541 0.2253418
vt 0.404541 0.2243652
vt 0.3999023 0.2243652
vt 0.3581543 0.1842041
vt 0.3581543 0.2392578
vt 0.4130859 0.2392578
vt 0.4130859 0.1842041
vt 0.3999023 0.230957
vt 0.404541 0.230957
vt 0.404541 0.2301025
vt 0.3999023 0.2301025
vt 0.3999023 0.2301025
vt 0.404541 0.2301025
vt 0.404541 0.2253418
vt 0.3999023 0.2253418
vt 0.4672852 0.2271729
vt 0.4663086 0.2271729
vt 0.4663086 0.2319336
vt 0.4672852 0.2319336
vt 0.4719238 0.2271729
vt 0.4719238 0.2319336
vt 0.4729004 0.2319336
vt 0.4729004 0.2271729
vt 0.4672852 0.2271729
vt 0.4719238 0.2271729
vt 0.4719238 0.2263184
vt 0.4672852 0.2263184
vt 0.4250488 0.1842041
vt 0.4250488 0.2392578
vt 0.4799805 0.2392578
vt 0.4799805 0.1842041
vt 0.4672852 0.2329102
vt 0.4719238 0.2329102
vt 0.4719238 0.2319336
vt 0.4672852 0.2319336
vt 0.4672852 0.2319336
vt 0.4719238 0.2319336
vt 0.4719238 0.2271729
vt 0.4672852 0.2271729
vt 0.6416016 0.2391357
vt 0.6416016 0.2276611
vt 0.6889648 0.2509766
vt 0.6416016 0.2509766
vt 0.5390625 0.2509766
vt 0.5390625 0.2391357
vt 0.5151367 0.2509766
vt 0.5307617 0.2294922
vt 0.5068359 0.2294922
vt 0.6416016 0.2626953
vt 0.6416016 0.2741699
vt 0.5390625 0.2626953
vt 0.5307617 0.2722168
vt 0.5068359 0.2722168
vt 0.6889648 0.2509766
vt 0.6416016 0.2276611
vt 0.6416016 0.2391357
vt 0.6416016 0.2509766
vt 0.5390625 0.2509766
vt 0.5390625 0.2391357
vt 0.5151367 0.2509766
vt 0.5307617 0.2294922
vt 0.5068359 0.2294922
vt 0.6416016 0.2626953
vt 0.6416016 0.2741699
vt 0.5390625 0.2626953
vt 0.5307617 0.2722168
vt 0.5068359 0.2722168
vt 0.5922852 0.2076416
vt 0.5922852 0.2182617
vt 0.5507813 0.2182617
vt 0.5507813 0.2076416
vt 0.6025391 0.2076416
vt 0.6025391 0.2182617
vt 0.5922852 0.2182617
vt 0.5922852 0.2076416
vt 0.5117188 0.2076416
vt 0.5117188 0.2182617
vt 0.503418 0.2182617
vt 0.503418 0.2076416
vt 0.5332031 0.2076416
vt 0.5332031 0.2182617
vt 0.5117188 0.2182617
vt 0.5117188 0.2076416
vt 0.5517578 0.2076416
vt 0.5517578 0.2182617
vt 0.5332031 0.2182617
vt 0.5332031 0.2076416
vt 0.5703125 0.2076416
vt 0.5703125 0.2182617
vt 0.6923828 0.2076416
vt 0.6923828 0.2182617
vt 0.6025391 0.2182617
vt 0.6025391 0.2076416
vt 0.5092773 0.2076416
vt 0.5092773 0.2182617
vt 0.4990234 0.2182617
vt 0.4990234 0.2076416
vt 0.5507813 0.2076416
vt 0.5507813 0.2182617
vt 0.5092773 0.2182617
vt 0.5092773 0.2076416
vt 0.5917969 0.2076416
vt 0.5917969 0.2182617
vt 0.5703125 0.2182617
vt 0.5703125 0.2076416
vt 0.6000977 0.2076416
vt 0.6000977 0.2182617
vt 0.5917969 0.2182617
vt 0.5917969 0.2076416
vt 0.6899414 0.2076416
vt 0.6899414 0.2182617
vt 0.6000977 0.2182617
vt 0.6000977 0.2076416

g sign_gas_9046_1005
usemtl sign_gas_9046_1005
usemap sign_gas_9046_1005
f 1/1/1 3/3/3 2/2/2
f 1/1/1 4/4/4 3/3/3
f 4/4/4 5/5/5 3/3/3
f 4/4/4 6/6/6 5/5/5
f 6/6/6 7/7/7 5/5/5
f 6/6/6 8/8/8 7/7/7
f 8/8/8 9/9/9 7/7/7
f 8/8/8 10/10/10 9/9/9
f 11/11/11 1/1/1 2/2/2
f 11/11/11 2/2/2 12/12/12
f 13/13/13 15/15/15 14/14/14
f 15/15/15 13/13/13 16/16/16
f 16/16/16 13/13/13 17/17/17
f 18/18/18 20/20/20 19/19/19
f 18/18/18 21/21/21 20/20/20
f 22/22/22 24/24/24 23/23/23
f 22/22/22 25/25/25 24/24/24
f 26/26/26 28/28/28 27/27/27
f 26/26/26 29/29/29 28/28/28
f 30/30/30 32/32/32 31/31/31
f 30/30/30 33/33/33 32/32/32
f 34/34/34 36/36/36 35/35/35
f 34/34/34 37/37/37 36/36/36
f 38/38/38 40/40/40 39/39/39
f 38/38/38 41/41/41 40/40/40
f 42/42/42 44/44/44 43/43/43
f 42/42/42 45/45/45 44/44/44
f 46/46/46 48/48/48 47/47/47
f 46/46/46 49/49/49 48/48/48
f 50/50/50 52/52/52 51/51/51
f 50/50/50 53/53/53 52/52/52
f 54/54/54 56/56/56 55/55/55
f 54/54/54 57/57/57 56/56/56
f 58/58/58 60/60/60 59/59/59
f 58/58/58 61/61/61 60/60/60
f 62/62/62 64/64/64 63/63/63
f 62/62/62 65/65/65 64/64/64
f 66/66/66 68/68/68 67/67/67
f 66/66/66 69/69/69 68/68/68
f 70/70/70 72/72/72 71/71/71
f 70/70/70 73/73/73 72/72/72
f 74/74/74 76/76/76 75/75/75
f 74/74/74 77/77/77 76/76/76
f 78/78/78 80/80/80 79/79/79
f 78/78/78 81/81/81 80/80/80
f 82/82/82 84/84/84 83/83/83
f 82/82/82 85/85/85 84/84/84
f 86/86/86 88/88/88 87/87/87
f 86/86/86 89/89/89 88/88/88
f 90/90/90 92/92/92 91/91/91
f 90/90/90 93/93/93 92/92/92
f 90/90/90 94/94/94 93/93/93
f 90/90/90 95/95/95 94/94/94
f 94/94/94 95/95/95 96/96/96
f 96/96/96 95/95/95 97/97/97
f 96/96/96 97/97/97 98/98/98
f 99/99/99 92/92/92 93/93/93
f 99/99/99 93/93/93 94/94/94
f 99/99/99 100/100/100 92/92/92
f 94/94/94 96/96/96 101/101/101
f 99/99/99 94/94/94 101/101/101
f 96/96/96 102/102/102 101/101/101
f 96/96/96 103/103/103 102/102/102
f 104/104/104 106/106/106 105/105/105
f 104/104/104 107/107/107 106/106/106
f 108/108/108 106/106/106 107/107/107
f 108/108/108 109/109/109 106/106/106
f 110/110/110 109/109/109 108/108/108
f 111/111/111 109/109/109 110/110/110
f 111/111/111 110/110/110 112/112/112
f 104/104/104 113/113/113 107/107/107
f 108/108/108 107/107/107 113/113/113
f 104/104/104 114/114/114 113/113/113
f 115/115/115 110/110/110 108/108/108
f 108/108/108 113/113/113 115/115/115
f 116/116/116 110/110/110 115/115/115
f 116/116/116 117/117/117 110/110/110
f 118/118/118 120/120/120 119/119/119
f 118/118/118 121/121/121 120/120/120
f 122/122/122 124/124/124 123/123/123
f 122/122/122 125/125/125 124/124/124
f 126/126/126 128/128/128 127/127/127
f 126/126/126 129/129/129 128/128/128
f 130/130/130 132/132/132 131/131/131
f 130/130/130 133/133/133 132/132/132
f 134/134/134 136/136/136 135/135/135
f 134/134/134 137/137/137 136/136/136
f 138/138/138 134/134/134 135/135/135
f 138/138/138 135/135/135 139/139/139
f 140/140/140 142/142/142 141/141/141
f 140/140/140 143/143/143 142/142/142
f 144/144/144 146/146/146 145/145/145
f 144/144/144 147/147/147 146/146/146
f 148/148/148 150/150/150 149/149/149
f 148/148/148 151/151/151 150/150/150
f 152/152/152 154/154/154 153/153/153
f 152/152/152 155/155/155 154/154/154
f 156/156/156 158/158/158 157/157/157
f 156/156/156 159/159/159 158/158/158
f 160/160/160 162/162/162 161/161/161
f 160/160/160 163/163/163 162/162/162
