#socket_A_11358_1059.obj

v 0.048186 -0.07216287 0.01980443
v -0.04817693 0.07216305 0.01980297
v 0.048186 0.07216305 0.01980443
v -0.04817693 -0.07216287 0.01980297
v 0.0578376 -0.08661826 -7.50013E-06
v -0.04817693 -0.07216287 0.01980297
v 0.048186 -0.07216287 0.01980443
v -0.05782875 -0.08661826 -6.931527E-06
v 0.0578376 0.08661843 -7.50013E-06
v 0.048186 -0.07216287 0.01980443
v 0.048186 0.07216305 0.01980443
v 0.0578376 -0.08661826 -7.50013E-06
v -0.05782875 0.08661843 -6.931527E-06
v 0.048186 0.07216305 0.01980443
v -0.04817693 0.07216305 0.01980297
v 0.0578376 0.08661843 -7.50013E-06
v -0.05782875 -0.08661826 -6.931527E-06
v -0.04817693 0.07216305 0.01980297
v -0.04817693 -0.07216287 0.01980297
v -0.05782875 0.08661843 -6.931527E-06

vn -0.9998744 -3.552713E-15 0.01584953
vn -0.9998744 -3.552713E-15 0.01584953
vn -0.9998744 -3.552713E-15 0.01584953
vn -0.9998744 -3.552713E-15 0.01584953
vn -0.589339 -0.8078318 0.009341953
vn -0.5893389 -0.8078318 0.009341952
vn -0.589339 -0.8078318 0.009341953
vn -0.5893389 -0.8078318 0.009341952
vn -0.4236445 3.929654E-08 0.9058285
vn -0.4236446 3.929654E-08 0.9058284
vn -0.4236444 3.929654E-08 0.9058285
vn -0.4236446 3.929654E-08 0.9058284
vn -0.589339 0.8078318 0.009341883
vn -0.5893389 0.8078318 0.009341882
vn -0.589339 0.8078318 0.009341883
vn -0.5893389 0.8078318 0.009341882
vn -0.4521424 -3.929654E-08 -0.8919459
vn -0.4521423 -3.929654E-08 -0.891946
vn -0.4521425 -3.929654E-08 -0.8919459
vn -0.4521423 -3.929654E-08 -0.891946

vt 0.9907227 0.4291992
vt 0.9667969 0.4648438
vt 0.9907227 0.4648438
vt 0.9667969 0.4291992
vt 0.9907227 0.4243164
vt 0.9667969 0.4291992
vt 0.9907227 0.4291992
vt 0.9667969 0.4243164
vt 0.9956055 0.4648438
vt 0.9907227 0.4291992
vt 0.9907227 0.4648438
vt 0.9956055 0.4291992
vt 0.9667969 0.4697266
vt 0.9907227 0.4648438
vt 0.9667969 0.4648438
vt 0.9907227 0.4697266
vt 0.9619141 0.4291992
vt 0.9667969 0.4648438
vt 0.9667969 0.4291992
vt 0.9619141 0.4648438

g socket_A_11358_1059
usemtl socket_A_11358_1059
usemap socket_A_11358_1059
f 1/1/1 3/3/3 2/2/2
f 2/2/2 4/4/4 1/1/1
f 5/5/5 7/7/7 6/6/6
f 6/6/6 8/8/8 5/5/5
f 9/9/9 11/11/11 10/10/10
f 10/10/10 12/12/12 9/9/9
f 13/13/13 15/15/15 14/14/14
f 14/14/14 16/16/16 13/13/13
f 17/17/17 19/19/19 18/18/18
f 18/18/18 20/20/20 17/17/17
