#stairs_C_9392_781.obj

v 2.575002E-06 3.05 -1.000004
v 1.838997E-06 0.04999892 0.9999952
v 1.581561E-06 3.049999 0.9999958
v 2.022748E-06 0.04999939 -1.000007

vn 0.004556029 0.001225705 -0.9999889
vn 0.004556029 0.001225705 -0.9999889
vn 0.004556029 0.001225705 -0.9999889
vn 0.004556029 0.001225705 -0.9999889

vt -0.6665039 1.016602
vt -1.192093E-07 0.01660156
vt -1.788139E-07 1.016602
vt -0.6665039 0.01660156

g stairs_C_9392_781
usemtl stairs_C_9392_781
usemap stairs_C_9392_781
f 1/1/1 3/3/3 2/2/2
f 2/2/2 4/4/4 1/1/1
