#stairs_C_10510_846.obj

v 7.290715E-06 3.05 -0.9999989
v 7.320682E-06 0.04999901 1.000001
v 7.320682E-06 3.049999 1.000001
v 7.296841E-06 0.04999961 -0.9999998

vn 0.9999703 -5.329067E-15 -0.007708465
vn 0.9999703 -5.329067E-15 -0.007708465
vn 0.9999703 -5.329067E-15 -0.007708465
vn 0.9999703 -5.329067E-15 -0.007708465

vt -0.6665039 1.016602
vt -1.192093E-07 0.01660156
vt -1.788139E-07 1.016602
vt -0.6665039 0.01660156

g stairs_C_10510_846
usemtl stairs_C_10510_846
usemap stairs_C_10510_846
f 1/1/1 3/3/3 2/2/2
f 2/2/2 4/4/4 1/1/1
