#store_shelf01_B_1_11266_669.obj

v 3.064847E-05 -4.474214E-08 3.934633E-05
v -0.04997039 1.65 3.734203E-05
v -0.04997039 0.09999985 4.090716E-05
v 3.064847E-05 1.65 3.934633E-05
v -0.3011521 -2.675633E-07 4.077893E-05
v -0.3011521 0.09999985 4.077893E-05
v -0.0499679 0.1000001 1.00004
v -0.04997039 1.65 3.734203E-05
v -0.0499679 1.65 1.00004
v -0.04997039 0.09999985 4.090716E-05
v -0.04997039 1.025 4.090716E-05
v -0.3999706 0.9750001 3.757732E-05
v -0.04997039 0.9750001 4.090716E-05
v -0.3999706 1.025 3.757732E-05
v -0.0499679 0.9461538 1.00004
v -0.3999706 0.9750001 3.757732E-05
v -0.3999681 0.9461538 1.000041
v -0.04997039 0.9750001 4.090716E-05
v 3.064847E-05 1.65 3.934633E-05
v -0.0499679 1.65 1.00004
v -0.04997039 1.65 3.734203E-05
v 2.95814E-05 1.65 1.000039
v 3.064847E-05 -4.474214E-08 3.934633E-05
v 2.95814E-05 1.65 1.000039
v 3.064847E-05 1.65 3.934633E-05
v 2.95814E-05 -4.474214E-08 1.000039
v -0.3011521 0.09999985 4.077893E-05
v -0.3011496 -4.474214E-08 1.00004
v -0.3011521 -2.675633E-07 4.077893E-05
v -0.3011496 0.09999985 1.00004
v -0.3999706 1.025 3.757732E-05
v -0.3999681 0.9461538 1.000041
v -0.3999706 0.9750001 3.757732E-05
v -0.3999681 0.9961535 1.000041
v -0.04997039 1.025 4.090716E-05
v -0.3999681 0.9961535 1.000041
v -0.3999706 1.025 3.757732E-05
v -0.0499679 0.9961535 1.00004
v 3.207946E-05 -2.675633E-07 2.000038
v -0.04996896 1.649999 2.00004
v 3.207703E-05 1.649999 2.000042
v -0.04996896 0.09999963 2.00004
v -0.3011506 -2.675633E-07 2.00004
v -0.3011506 0.09999963 2.00004
v -0.0499679 0.1000001 1.00004
v -0.04996896 1.649999 2.00004
v -0.04996896 0.09999963 2.00004
v -0.0499679 1.65 1.00004
v -0.04996896 1.025 2.00004
v -0.3999691 0.9750001 2.00004
v -0.3999691 1.025 2.00004
v -0.04996896 0.9750001 2.00004
v -0.0499679 0.9461538 1.00004
v -0.3999691 0.9750001 2.00004
v -0.04996896 0.9750001 2.00004
v -0.3999681 0.9461538 1.000041
v 3.207703E-05 1.649999 2.000042
v -0.0499679 1.65 1.00004
v 2.95814E-05 1.65 1.000039
v -0.04996896 1.649999 2.00004
v 3.207946E-05 -2.675633E-07 2.000038
v 2.95814E-05 1.65 1.000039
v 2.95814E-05 -4.474214E-08 1.000039
v 3.207703E-05 1.649999 2.000042
v -0.3011506 0.09999963 2.00004
v -0.3011496 -4.474214E-08 1.00004
v -0.3011496 0.09999985 1.00004
v -0.3011506 -2.675633E-07 2.00004
v -0.3999691 1.025 2.00004
v -0.3999681 0.9461538 1.000041
v -0.3999681 0.9961535 1.000041
v -0.3999691 0.9750001 2.00004
v -0.04996896 1.025 2.00004
v -0.3999681 0.9961535 1.000041
v -0.0499679 0.9961535 1.00004
v -0.3999691 1.025 2.00004
v -0.04997034 1.074352 0.02609849
v -0.3999698 1.025237 0.03546791
v -0.0499696 1.025237 0.03546767
v -0.3999705 1.074352 0.02609873
v -0.04996928 1.212619 1.017756
v -0.3999698 1.025237 0.03546791
v -0.3999694 1.212619 1.017756
v -0.0499696 1.025237 0.03546767
v -0.3999705 1.074352 0.02609873
v -0.3999694 1.212619 1.017756
v -0.3999698 1.025237 0.03546791
v -0.3999702 1.261733 1.008387
v -0.04997034 1.074352 0.02609849
v -0.3999702 1.261733 1.008387
v -0.3999705 1.074352 0.02609873
v -0.04997002 1.261733 1.008386
v -0.04996971 1.449115 1.990674
v -0.3999691 1.4 2.000044
v -0.3999699 1.449115 1.990675
v -0.04996897 1.4 2.000044
v -0.04996928 1.212619 1.017756
v -0.3999691 1.4 2.000044
v -0.04996897 1.4 2.000044
v -0.3999694 1.212619 1.017756
v -0.3999699 1.449115 1.990675
v -0.3999694 1.212619 1.017756
v -0.3999702 1.261733 1.008387
v -0.3999691 1.4 2.000044
v -0.04996971 1.449115 1.990674
v -0.3999702 1.261733 1.008387
v -0.04997002 1.261733 1.008386
v -0.3999699 1.449115 1.990675
v -0.05084029 0.5999851 4.031407E-05
v -0.3988832 0.5378004 3.831868E-05
v -0.04909693 0.5500152 3.793755E-05
v -0.4006301 0.58777 4.069277E-05
v -0.049098 0.5500152 1.000041
v -0.3988832 0.5378004 3.831868E-05
v -0.3988843 0.5378001 1.000041
v -0.04909693 0.5500152 3.793755E-05
v -0.4006301 0.58777 4.069277E-05
v -0.3988843 0.5378001 1.000041
v -0.3988832 0.5378004 3.831868E-05
v -0.4006276 0.58777 1.00004
v -0.05084029 0.5999851 4.031407E-05
v -0.4006276 0.58777 1.00004
v -0.4006301 0.58777 4.069277E-05
v -0.05084135 0.5999846 1.00004
v -0.05084242 0.5999846 2.000039
v -0.3988853 0.5378001 2.000041
v -0.4006287 0.5877696 2.00004
v -0.0490955 0.550015 2.000041
v -0.049098 0.5500152 1.000041
v -0.3988853 0.5378001 2.000041
v -0.0490955 0.550015 2.000041
v -0.3988843 0.5378001 1.000041
v -0.4006287 0.5877696 2.00004
v -0.3988843 0.5378001 1.000041
v -0.4006276 0.58777 1.00004
v -0.3988853 0.5378001 2.000041
v -0.05084242 0.5999846 2.000039
v -0.4006276 0.58777 1.00004
v -0.05084135 0.5999846 1.00004
v -0.4006287 0.5877696 2.00004
v -0.04997039 0.15 3.734203E-05
v -0.3999706 0.1000001 3.757732E-05
v -0.04997039 0.1000001 3.734203E-05
v -0.3999706 0.15 3.757732E-05
v -0.0499679 0.09999985 1.00004
v -0.3999706 0.1000001 3.757732E-05
v -0.3999681 0.09999985 1.000041
v -0.04997039 0.1000001 3.734203E-05
v -0.3999706 0.15 3.757732E-05
v -0.3999681 0.09999985 1.000041
v -0.3999706 0.1000001 3.757732E-05
v -0.3999681 0.15 1.000041
v -0.04997039 0.15 3.734203E-05
v -0.3999681 0.15 1.000041
v -0.3999706 0.15 3.757732E-05
v -0.0499679 0.15 1.00004
v -0.04996896 0.1499998 2.00004
v -0.3999691 0.09999963 2.00004
v -0.3999691 0.1499998 2.00004
v -0.04996896 0.09999985 2.00004
v -0.0499679 0.09999985 1.00004
v -0.3999691 0.09999963 2.00004
v -0.04996896 0.09999985 2.00004
v -0.3999681 0.09999985 1.000041
v -0.3999691 0.1499998 2.00004
v -0.3999681 0.09999985 1.000041
v -0.3999681 0.15 1.000041
v -0.3999691 0.09999963 2.00004
v -0.04996896 0.1499998 2.00004
v -0.3999681 0.15 1.000041
v -0.0499679 0.15 1.00004
v -0.3999691 0.1499998 2.00004

vn -0.000681999 -1.345721E-07 -0.9999998
vn -0.0006834973 -2.108523E-07 -0.9999998
vn -0.000681999 -1.471809E-07 -0.9999998
vn -0.0006835249 -2.116866E-07 -0.9999998
vn -0.000681999 -1.192092E-07 -0.9999998
vn -0.000681999 -1.192092E-07 -0.9999998
vn -0.9999998 1.694064E-21 0.0006817484
vn -0.9999998 1.694064E-21 0.0006817484
vn -0.9999998 1.694064E-21 0.0006817484
vn -0.9999998 1.694064E-21 0.0006817484
vn -0.000681999 -1.192092E-07 -0.9999998
vn -0.000681999 -1.192092E-07 -0.9999998
vn -0.000681999 -1.192092E-07 -0.9999998
vn -0.000681999 -1.192092E-07 -0.9999998
vn -2.981122E-11 -0.9999989 -4.371138E-08
vn -1.966514E-05 -0.9995831 -0.02883456
vn -2.981122E-11 -0.9999989 -4.371138E-08
vn -1.966514E-05 -0.9995831 -0.02883456
vn -7.756331E-11 0.9999989 -1.137295E-07
vn -2.954666E-06 0.9999989 4.572574E-08
vn -7.425355E-11 0.9999989 -1.088764E-07
vn -3.051727E-06 0.9999989 4.579191E-08
vn 0.9999998 -1.694064E-21 -0.0006817484
vn 0.9999998 -1.694064E-21 -0.0006817484
vn 0.9999998 -1.694064E-21 -0.0006817484
vn 0.9999998 -1.694064E-21 -0.0006817484
vn -0.9999998 1.694064E-21 0.0006817484
vn -0.9999998 1.694064E-21 0.0006817484
vn -0.9999998 1.694064E-21 0.0006817484
vn -0.9999998 1.694064E-21 0.0006817484
vn -0.9999998 1.694064E-21 0.0006817484
vn -0.9999998 1.694064E-21 0.0006817484
vn -0.9999998 1.694064E-21 0.0006817484
vn -0.9999998 1.694064E-21 0.0006817484
vn 1.966514E-05 0.9995831 0.02883456
vn 2.981122E-11 0.9999989 4.371138E-08
vn 1.966514E-05 0.9995831 0.02883456
vn 2.981122E-11 0.9999989 4.371138E-08
vn 0.0006818316 -4.371134E-08 0.9999998
vn 0.0006789985 -3.195902E-07 0.9999998
vn 0.0006789473 -3.211436E-07 0.9999998
vn 0.0006817753 -1.55598E-07 0.9999998
vn 0.000681999 -4.371134E-08 0.9999998
vn 0.000681999 -4.371134E-08 0.9999998
vn -0.9999998 1.694064E-21 0.0006817484
vn -0.9999998 1.694064E-21 0.0006817484
vn -0.9999998 1.694064E-21 0.0006817484
vn -0.9999998 1.694064E-21 0.0006817484
vn 0.000681999 -4.371134E-08 0.9999998
vn 0.000681999 -4.371134E-08 0.9999998
vn 0.000681999 -4.371134E-08 0.9999998
vn 0.000681999 -4.371134E-08 0.9999998
vn -2.981122E-11 -0.9999989 -4.371138E-08
vn 1.966509E-05 -0.9995831 0.02883447
vn 1.966509E-05 -0.9995831 0.02883447
vn -2.981122E-11 -0.9999989 -4.371138E-08
vn 1.371858E-10 0.9999989 2.011523E-07
vn -2.954666E-06 0.9999989 4.572574E-08
vn -3.051727E-06 0.9999989 4.579191E-08
vn 1.33876E-10 0.9999989 1.962993E-07
vn 0.9999998 -1.694064E-21 -0.0006817484
vn 0.9999998 -1.694064E-21 -0.0006817484
vn 0.9999998 -1.694064E-21 -0.0006817484
vn 0.9999998 -1.694064E-21 -0.0006817484
vn -0.9999998 1.694064E-21 0.0006817484
vn -0.9999998 1.694064E-21 0.0006817484
vn -0.9999998 1.694064E-21 0.0006817484
vn -0.9999998 1.694064E-21 0.0006817484
vn -0.9999998 1.694064E-21 0.0006817484
vn -0.9999998 1.694064E-21 0.0006817484
vn -0.9999998 1.694064E-21 0.0006817484
vn -0.9999998 1.694064E-21 0.0006817484
vn -1.966509E-05 0.9995831 -0.02883447
vn 2.981122E-11 0.9999989 4.371138E-08
vn 2.981122E-11 0.9999989 4.371138E-08
vn -1.966509E-05 0.9995831 -0.02883447
vn -0.000669919 -0.187381 -0.982287
vn -0.000669919 -0.187381 -0.982287
vn -0.000669919 -0.1873811 -0.982287
vn -0.000669919 -0.1873811 -0.982287
vn 0.0001277938 -0.9822861 0.1873811
vn 0.0001277938 -0.9822861 0.1873812
vn 0.0001277938 -0.9822861 0.1873811
vn 0.0001277938 -0.9822861 0.1873812
vn -0.9999998 1.694064E-21 0.0006817484
vn -0.9999998 1.694064E-21 0.0006817484
vn -0.9999998 1.694064E-21 0.0006817484
vn -0.9999998 1.694064E-21 0.0006817484
vn -0.0001277938 0.9822861 -0.1873812
vn -0.0001277938 0.9822862 -0.1873811
vn -0.0001277938 0.9822861 -0.1873812
vn -0.0001277938 0.9822861 -0.1873811
vn 0.000669919 0.1873807 0.9822871
vn 0.000669919 0.1873807 0.9822871
vn 0.000669919 0.1873807 0.9822871
vn 0.000669919 0.1873807 0.9822871
vn 0.0001277938 -0.9822861 0.1873811
vn 0.0001277937 -0.9822862 0.1873811
vn 0.0001277937 -0.9822862 0.1873811
vn 0.0001277938 -0.9822861 0.1873811
vn -0.9999998 1.694064E-21 0.0006817484
vn -0.9999998 1.694064E-21 0.0006817484
vn -0.9999998 1.694064E-21 0.0006817484
vn -0.9999998 1.694064E-21 0.0006817484
vn -0.0001277937 0.9822862 -0.1873811
vn -0.0001277938 0.9822862 -0.1873811
vn -0.0001277938 0.9822861 -0.1873811
vn -0.0001277937 0.9822862 -0.1873811
vn -0.000681999 4.371134E-08 -0.9999998
vn -0.000681999 4.371134E-08 -0.9999998
vn -0.000681999 4.371134E-08 -0.9999998
vn -0.000681999 4.371134E-08 -0.9999998
vn 0.03489959 -0.9993897 -2.395084E-05
vn 0.03489966 -0.9993897 -2.383647E-05
vn 0.03489957 -0.9993897 -2.395078E-05
vn 0.03489969 -0.9993897 -2.383649E-05
vn -0.9993906 -0.0348998 0.0006813316
vn -0.9993906 -0.03489837 0.0006813316
vn -0.9993906 -0.03489985 0.0006813316
vn -0.9993906 -0.03489832 0.0006813316
vn -0.03489966 0.9993897 2.383647E-05
vn -0.03489959 0.9993897 2.395093E-05
vn -0.03489969 0.9993897 2.383649E-05
vn -0.03489957 0.9993897 2.395096E-05
vn 0.000681999 -4.371134E-08 0.9999998
vn 0.000681999 -4.371134E-08 0.9999998
vn 0.000681999 -4.371134E-08 0.9999998
vn 0.000681999 -4.371134E-08 0.9999998
vn 0.03489959 -0.9993897 -2.395084E-05
vn 0.03489966 -0.9993897 -2.399784E-05
vn 0.03489968 -0.9993897 -2.398915E-05
vn 0.03489957 -0.9993897 -2.395078E-05
vn -0.9993906 -0.0348998 0.0006813316
vn -0.9993906 -0.03489837 0.0006813316
vn -0.9993906 -0.03489832 0.0006813316
vn -0.9993906 -0.03489985 0.0006813316
vn -0.03489966 0.9993897 2.401896E-05
vn -0.03489959 0.9993897 2.395093E-05
vn -0.03489957 0.9993897 2.395096E-05
vn -0.03489968 0.9993897 2.402711E-05
vn -0.000681999 4.371134E-08 -0.9999998
vn -0.000681999 4.371134E-08 -0.9999998
vn -0.000681999 4.371134E-08 -0.9999998
vn -0.000681999 4.371134E-08 -0.9999998
vn -1.111118E-10 -0.9999989 -1.629206E-07
vn -1.292278E-10 -0.9999989 -1.894836E-07
vn -1.091025E-07 -0.9999989 -1.628463E-07
vn 1.08851E-07 -0.9999989 -2.059103E-07
vn -0.9999998 1.694064E-21 0.0006817484
vn -0.9999998 1.694064E-21 0.0006817484
vn -0.9999998 1.694064E-21 0.0006817484
vn -0.9999998 1.694064E-21 0.0006817484
vn -1.089615E-07 0.9999989 4.378568E-08
vn -1.088802E-07 0.9999989 1.629949E-07
vn -1.089615E-07 0.9999989 4.378568E-08
vn -1.088802E-07 0.9999989 1.62995E-07
vn 0.000681999 -4.371134E-08 0.9999998
vn 0.000681999 -4.371134E-08 0.9999998
vn 0.000681999 -4.371134E-08 0.9999998
vn 0.000681999 -4.371134E-08 0.9999998
vn -1.111118E-10 -0.9999989 -1.629206E-07
vn -2.981122E-11 -0.9999989 -4.371138E-08
vn 1.089615E-07 -0.9999989 -4.378568E-08
vn -1.091025E-07 -0.9999989 -1.628463E-07
vn -0.9999998 1.694064E-21 0.0006817484
vn -0.9999998 1.694064E-21 0.0006817484
vn -0.9999998 1.694064E-21 0.0006817484
vn -0.9999998 1.694064E-21 0.0006817484
vn -1.088575E-07 0.9999989 1.963735E-07
vn -1.088802E-07 0.9999989 1.629949E-07
vn -1.088802E-07 0.9999989 1.62995E-07
vn -1.088574E-07 0.9999989 1.963735E-07

vt 0.149292 0.6083984
vt 0.1558838 0.8256836
vt 0.1558838 0.621582
vt 0.149292 0.8256836
vt 0.1889648 0.6083984
vt 0.1889648 0.621582
vt 0.1368408 0.6083984
vt 0.005252838 0.8125
vt 0.1368408 0.8125
vt 0.005252838 0.6083984
vt 0.1671143 0.6918945
vt 0.2131348 0.6855469
vt 0.1671143 0.6855469
vt 0.2131348 0.6918945
vt 3.148438 0.7436523
vt 3.017578 0.7895508
vt 3.148438 0.7895508
vt 3.017578 0.7436523
vt 0.2407227 0.8647461
vt 0.2473145 0.9960938
vt 0.2473145 0.8647461
vt 0.2407227 0.9960938
vt 0.005252838 0.6083984
vt 0.1368408 0.8256836
vt 0.005252838 0.8256836
vt 0.1368408 0.6083984
vt 0.2209473 0.8652344
vt 0.2341309 0.996582
vt 0.2341309 0.8652344
vt 0.2209473 0.996582
vt 0.2131348 0.8237305
vt 0.2197266 0.6918945
vt 0.2197266 0.8237305
vt 0.2131348 0.6918945
vt 0.1671143 0.6918945
vt 0.2131348 0.8237305
vt 0.2131348 0.6918945
vt 0.1671143 0.8237305
vt 0.149292 0.6083984
vt 0.1558838 0.8256836
vt 0.149292 0.8256836
vt 0.1558838 0.621582
vt 0.1889648 0.6083984
vt 0.1889648 0.621582
vt 0.1368408 0.6083984
vt 0.005252838 0.8125
vt 0.005252838 0.6083984
vt 0.1368408 0.8125
vt 0.1671143 0.6918945
vt 0.2131348 0.6855469
vt 0.2131348 0.6918945
vt 0.1671143 0.6855469
vt 3.148438 0.7436523
vt 3.017578 0.7895508
vt 3.017578 0.7436523
vt 3.148438 0.7895508
vt 0.2407227 0.8647461
vt 0.2473145 0.9960938
vt 0.2407227 0.9960938
vt 0.2473145 0.8647461
vt 0.005252838 0.6083984
vt 0.1368408 0.8256836
vt 0.1368408 0.6083984
vt 0.005252838 0.8256836
vt 0.2209473 0.8652344
vt 0.2341309 0.996582
vt 0.2209473 0.996582
vt 0.2341309 0.8652344
vt 0.2131348 0.8237305
vt 0.2197266 0.6918945
vt 0.2131348 0.6918945
vt 0.2197266 0.8237305
vt 0.1671143 0.6918945
vt 0.2131348 0.8237305
vt 0.1671143 0.8237305
vt 0.2131348 0.6918945
vt 0.1671143 0.6918945
vt 0.2131348 0.6855469
vt 0.1671143 0.6855469
vt 0.2131348 0.6918945
vt 0.2131348 0.8237305
vt 0.1671143 0.6918945
vt 0.1671143 0.8237305
vt 0.2131348 0.6918945
vt 0.2131348 0.8237305
vt 0.2197266 0.6918945
vt 0.2197266 0.8237305
vt 0.2131348 0.6918945
vt 0.1671143 0.6918945
vt 0.2131348 0.8237305
vt 0.2131348 0.6918945
vt 0.1671143 0.8237305
vt 0.1671143 0.6918945
vt 0.2131348 0.6855469
vt 0.2131348 0.6918945
vt 0.1671143 0.6855469
vt 0.2131348 0.8237305
vt 0.1671143 0.6918945
vt 0.2131348 0.6918945
vt 0.1671143 0.8237305
vt 0.2131348 0.8237305
vt 0.2197266 0.6918945
vt 0.2131348 0.6918945
vt 0.2197266 0.8237305
vt 0.1671143 0.6918945
vt 0.2131348 0.8237305
vt 0.1671143 0.8237305
vt 0.2131348 0.6918945
vt 0.1671143 0.6918945
vt 0.2131348 0.6855469
vt 0.1671143 0.6855469
vt 0.2131348 0.6918945
vt 0.2131348 0.8237305
vt 0.1671143 0.6918945
vt 0.1671143 0.8237305
vt 0.2131348 0.6918945
vt 0.2131348 0.8237305
vt 0.2197266 0.6918945
vt 0.2197266 0.8237305
vt 0.2131348 0.6918945
vt 0.1671143 0.6918945
vt 0.2131348 0.8237305
vt 0.2131348 0.6918945
vt 0.1671143 0.8237305
vt 0.1671143 0.6918945
vt 0.2131348 0.6855469
vt 0.2131348 0.6918945
vt 0.1671143 0.6855469
vt 0.2131348 0.8237305
vt 0.1671143 0.6918945
vt 0.2131348 0.6918945
vt 0.1671143 0.8237305
vt 0.2131348 0.8237305
vt 0.2197266 0.6918945
vt 0.2131348 0.6918945
vt 0.2197266 0.8237305
vt 0.1671143 0.6918945
vt 0.2131348 0.8237305
vt 0.1671143 0.8237305
vt 0.2131348 0.6918945
vt 0.1671143 0.6918945
vt 0.2131348 0.6855469
vt 0.1671143 0.6855469
vt 0.2131348 0.6918945
vt 0.2131348 0.8237305
vt 0.1671143 0.6918945
vt 0.1671143 0.8237305
vt 0.2131348 0.6918945
vt 0.2131348 0.8237305
vt 0.2197266 0.6918945
vt 0.2197266 0.8237305
vt 0.2131348 0.6918945
vt 0.1671143 0.6918945
vt 0.2131348 0.8237305
vt 0.2131348 0.6918945
vt 0.1671143 0.8237305
vt 0.1671143 0.6918945
vt 0.2131348 0.6855469
vt 0.2131348 0.6918945
vt 0.1671143 0.6855469
vt 0.2131348 0.8237305
vt 0.1671143 0.6918945
vt 0.2131348 0.6918945
vt 0.1671143 0.8237305
vt 0.2131348 0.8237305
vt 0.2197266 0.6918945
vt 0.2131348 0.6918945
vt 0.2197266 0.8237305
vt 0.1671143 0.6918945
vt 0.2131348 0.8237305
vt 0.1671143 0.8237305
vt 0.2131348 0.6918945

g store_shelf01_B_1_11266_669
usemtl store_shelf01_B_1_11266_669
usemap store_shelf01_B_1_11266_669
f 1/1/1 3/3/3 2/2/2
f 2/2/2 4/4/4 1/1/1
f 3/3/3 1/1/1 5/5/5
f 5/5/5 6/6/6 3/3/3
f 7/7/7 9/9/9 8/8/8
f 8/8/8 10/10/10 7/7/7
f 11/11/11 13/13/13 12/12/12
f 12/12/12 14/14/14 11/11/11
f 15/15/15 17/17/17 16/16/16
f 16/16/16 18/18/18 15/15/15
f 19/19/19 21/21/21 20/20/20
f 20/20/20 22/22/22 19/19/19
f 23/23/23 25/25/25 24/24/24
f 24/24/24 26/26/26 23/23/23
f 27/27/27 29/29/29 28/28/28
f 28/28/28 30/30/30 27/27/27
f 31/31/31 33/33/33 32/32/32
f 32/32/32 34/34/34 31/31/31
f 35/35/35 37/37/37 36/36/36
f 36/36/36 38/38/38 35/35/35
f 39/39/39 41/41/41 40/40/40
f 40/40/40 42/42/42 39/39/39
f 43/43/43 39/39/39 42/42/42
f 42/42/42 44/44/44 43/43/43
f 45/45/45 47/47/47 46/46/46
f 46/46/46 48/48/48 45/45/45
f 49/49/49 51/51/51 50/50/50
f 50/50/50 52/52/52 49/49/49
f 53/53/53 55/55/55 54/54/54
f 54/54/54 56/56/56 53/53/53
f 57/57/57 59/59/59 58/58/58
f 58/58/58 60/60/60 57/57/57
f 61/61/61 63/63/63 62/62/62
f 62/62/62 64/64/64 61/61/61
f 65/65/65 67/67/67 66/66/66
f 66/66/66 68/68/68 65/65/65
f 69/69/69 71/71/71 70/70/70
f 70/70/70 72/72/72 69/69/69
f 73/73/73 75/75/75 74/74/74
f 74/74/74 76/76/76 73/73/73
f 77/77/77 79/79/79 78/78/78
f 78/78/78 80/80/80 77/77/77
f 81/81/81 83/83/83 82/82/82
f 82/82/82 84/84/84 81/81/81
f 85/85/85 87/87/87 86/86/86
f 86/86/86 88/88/88 85/85/85
f 89/89/89 91/91/91 90/90/90
f 90/90/90 92/92/92 89/89/89
f 93/93/93 95/95/95 94/94/94
f 94/94/94 96/96/96 93/93/93
f 97/97/97 99/99/99 98/98/98
f 98/98/98 100/100/100 97/97/97
f 101/101/101 103/103/103 102/102/102
f 102/102/102 104/104/104 101/101/101
f 105/105/105 107/107/107 106/106/106
f 106/106/106 108/108/108 105/105/105
f 109/109/109 111/111/111 110/110/110
f 110/110/110 112/112/112 109/109/109
f 113/113/113 115/115/115 114/114/114
f 114/114/114 116/116/116 113/113/113
f 117/117/117 119/119/119 118/118/118
f 118/118/118 120/120/120 117/117/117
f 121/121/121 123/123/123 122/122/122
f 122/122/122 124/124/124 121/121/121
f 125/125/125 127/127/127 126/126/126
f 126/126/126 128/128/128 125/125/125
f 129/129/129 131/131/131 130/130/130
f 130/130/130 132/132/132 129/129/129
f 133/133/133 135/135/135 134/134/134
f 134/134/134 136/136/136 133/133/133
f 137/137/137 139/139/139 138/138/138
f 138/138/138 140/140/140 137/137/137
f 141/141/141 143/143/143 142/142/142
f 142/142/142 144/144/144 141/141/141
f 145/145/145 147/147/147 146/146/146
f 146/146/146 148/148/148 145/145/145
f 149/149/149 151/151/151 150/150/150
f 150/150/150 152/152/152 149/149/149
f 153/153/153 155/155/155 154/154/154
f 154/154/154 156/156/156 153/153/153
f 157/157/157 159/159/159 158/158/158
f 158/158/158 160/160/160 157/157/157
f 161/161/161 163/163/163 162/162/162
f 162/162/162 164/164/164 161/161/161
f 165/165/165 167/167/167 166/166/166
f 166/166/166 168/168/168 165/165/165
f 169/169/169 171/171/171 170/170/170
f 170/170/170 172/172/172 169/169/169
