#street_19162_599.obj

v -6.578838E-06 0.05000339 12
v 12 0.04999857 2.926563E-06
v 11.99999 0.05000196 12.00001
v -2.073142E-07 0.05 -2.615682E-06
v -6.578838E-06 0.05000339 12
v -2.073142E-07 -1.474328E-09 -2.613483E-06
v -2.073142E-07 0.05 -2.615682E-06
v -6.578838E-06 3.377918E-06 12
v 12 0.04999857 2.926563E-06
v 11.99999 1.966358E-06 12.00001
v 11.99999 0.05000196 12.00001
v 12 -1.413035E-06 2.928763E-06

vn 2.384175E-07 0.9999999 1.192089E-07
vn 2.384175E-07 0.9999999 1.192089E-07
vn 2.384175E-07 0.9999999 1.192088E-07
vn 2.384175E-07 0.9999999 1.192089E-07
vn -1.842986E-06 3.005124E-14 -1
vn -1.842986E-06 3.005124E-14 -1
vn -1.842986E-06 3.005124E-14 -1
vn -1.842986E-06 3.005124E-14 -1
vn 1.900196E-06 -2.755052E-14 1
vn 1.900196E-06 -2.755052E-14 1
vn 1.900196E-06 -2.755052E-14 1
vn 1.900196E-06 -2.755052E-14 1

vt 1 0
vt 0 1
vt 1 1
vt 0 -2.980232E-07
vt 1 0
vt 0 0.004165649
vt 0 -2.980232E-07
vt 1 0.004165649
vt 0 1
vt 1 0.9956055
vt 1 1
vt 0 0.9956055

g street_19162_599
usemtl street_19162_599
usemap street_19162_599
f 1/1/1 3/3/3 2/2/2
f 2/2/2 4/4/4 1/1/1
f 5/5/5 7/7/7 6/6/6
f 6/6/6 8/8/8 5/5/5
f 9/9/9 11/11/11 10/10/10
f 10/10/10 12/12/12 9/9/9
