#street_25_9246_691.obj

v 1.092544E-05 0.05000315 11.99998
v 12.00002 0.04999833 -2.091284E-05
v 12.00002 0.05000189 11.99998
v 1.885578E-05 0.04999981 -2.425815E-05
v 1.092544E-05 0.05000315 11.99998
v 1.885796E-05 -1.395802E-07 -2.425815E-05
v 1.885578E-05 0.04999981 -2.425815E-05
v 1.092763E-05 3.202737E-06 11.99998
v 12.00002 0.04999833 -2.091284E-05
v 12.00002 1.721883E-06 11.99998
v 12.00002 0.05000189 11.99998
v 12.00002 -1.620434E-06 -2.091284E-05

vn 2.822398E-07 0.999999 1.627283E-07
vn 2.822398E-07 0.999999 1.627283E-07
vn 2.822398E-07 0.999999 1.627283E-07
vn 2.822397E-07 0.999999 1.627283E-07
vn -0.0006819988 4.371135E-08 -0.9999998
vn -0.0006819988 4.371135E-08 -0.9999998
vn -0.0006819988 4.371135E-08 -0.9999998
vn -0.0006819988 4.371135E-08 -0.9999998
vn 0.000682056 -4.371135E-08 0.9999998
vn 0.000682056 -4.371135E-08 0.9999998
vn 0.000682056 -4.371135E-08 0.9999998
vn 0.000682056 -4.371135E-08 0.9999998

vt 1 0
vt 0 1
vt 1 1
vt 0 -2.980232E-07
vt 1 0
vt 0 0.004165649
vt 0 -2.980232E-07
vt 1 0.004165649
vt 0 1
vt 1 0.9956055
vt 1 1
vt 0 0.9956055

g street_25_9246_691
usemtl street_25_9246_691
usemap street_25_9246_691
f 1/1/1 3/3/3 2/2/2
f 2/2/2 4/4/4 1/1/1
f 5/5/5 7/7/7 6/6/6
f 6/6/6 8/8/8 5/5/5
f 9/9/9 11/11/11 10/10/10
f 10/10/10 12/12/12 9/9/9
