#tailgate_20015_235.obj

v 0.6951916 0.5811545 -0.05246683
v 2.19781E-07 0.5805053 -1.271211E-06
v -7.24252E-08 0.5811545 -0.05246741
v 0.6951919 0.5805053 -6.925321E-07
v -0.6951917 0.5811545 -0.05246796
v -0.6951916 0.5805053 -1.888986E-06
v 2.19781E-07 0.5805053 -1.271211E-06
v 0.6951921 -1.096793E-08 -6.58169E-07
v 2.19781E-07 -1.096789E-08 -1.315038E-06
v 0.6951919 0.5805053 -6.925321E-07
v -0.6951916 -1.096785E-08 -1.95236E-06
v -0.6951916 0.5805053 -1.888986E-06
v 0.6951921 -1.096793E-08 -6.58169E-07
v 0.6951916 0.5811545 -0.05246683
v 0.6951916 -7.006844E-09 -0.05246687
v 0.6951919 0.5805053 -6.925321E-07
v 0.6951916 -0.08683182 -0.05246688
v 0.6951924 -0.08876665 -0.02346148
v 4.980478E-07 -0.08876665 -0.02346214
v 0.6951916 -0.08683182 -0.05246688
v 4.019114E-08 -0.08683182 -0.05246742
v 0.6951924 -0.08876665 -0.02346148
v -0.6951917 -0.08683182 -0.05246802
v -0.6951913 -0.08876665 -0.02346276
v 0.6951916 0.5811545 -0.05246683
v 4.019113E-08 -7.006812E-09 -0.05246741
v 0.6951916 -7.006844E-09 -0.05246687
v -7.24252E-08 0.5811545 -0.05246741
v -0.6951917 0.5811545 -0.05246796
v -0.6951917 -7.006776E-09 -0.05246801
v 0.6951916 -0.08683182 -0.05246688
v 4.019114E-08 -0.08683182 -0.05246742
v -0.6951917 -0.08683182 -0.05246802
v -0.6951917 0.5811545 -0.05246796
v -0.6951916 -1.096785E-08 -1.95236E-06
v -0.6951917 -7.006776E-09 -0.05246801
v -0.6951916 0.5805053 -1.888986E-06
v -0.6951917 -0.08683182 -0.05246802
v -0.6951913 -0.08876665 -0.02346276
v 4.980478E-07 -0.08876665 -0.02346214
v 0.6951921 -1.096793E-08 -6.58169E-07
v 0.6951924 -0.08876665 -0.02346148
v 2.19781E-07 -1.096789E-08 -1.315038E-06
v -0.6951913 -0.08876665 -0.02346276
v -0.6951916 -1.096785E-08 -1.95236E-06

vn -0.01168937 0.9999234 0.004057986
vn -0.01168937 0.9999234 0.004057986
vn -0.01168937 0.9999234 0.004057986
vn -0.01168937 0.9999234 0.004057986
vn -0.01168937 0.9999234 0.004057986
vn -0.01168937 0.9999234 0.004057986
vn -0.9446943 2.23353E-07 0.3279524
vn -0.9446943 2.23353E-07 0.3279524
vn -0.9446943 2.23353E-07 0.3279524
vn -0.9446943 2.23353E-07 0.3279524
vn -0.9446943 2.23353E-07 0.3279524
vn -0.9446943 2.23353E-07 0.3279524
vn 0.3279553 1.392171E-07 0.9446933
vn 0.3279539 1.238334E-07 0.9446938
vn 0.3279552 -2.320034E-13 0.9446933
vn 0.3279538 1.314264E-07 0.9446938
vn 0.3279566 9.126759E-07 0.9446929
vn 0.3279573 1.36617E-06 0.9446926
vn 0.0628731 -0.9977828 -0.02182652
vn 0.0628731 -0.9977828 -0.02182652
vn 0.0628731 -0.9977828 -0.02182652
vn 0.0628731 -0.9977828 -0.02182652
vn 0.0628731 -0.9977828 -0.02182652
vn 0.0628731 -0.9977828 -0.02182652
vn 0.9446943 -2.272903E-07 -0.3279524
vn 0.9446943 -2.272903E-07 -0.3279524
vn 0.9446943 -2.272903E-07 -0.3279524
vn 0.9446943 -2.272903E-07 -0.3279524
vn 0.9446943 -2.272903E-07 -0.3279524
vn 0.9446943 -2.272903E-07 -0.3279524
vn 0.9446943 -7.549787E-08 -0.3279524
vn 0.9446943 -7.549787E-08 -0.3279524
vn 0.9446943 -7.549787E-08 -0.3279524
vn -0.327951 1.238334E-07 -0.9446948
vn -0.3279495 1.392171E-07 -0.9446953
vn -0.3279497 -2.071344E-13 -0.9446952
vn -0.327951 1.314265E-07 -0.9446948
vn -0.3279482 9.126759E-07 -0.9446957
vn -0.3279475 1.36617E-06 -0.9446959
vn -0.9133355 -0.2555136 0.3170662
vn -0.9133355 -0.2555137 0.3170662
vn -0.9133355 -0.2555137 0.3170662
vn -0.9133355 -0.2555137 0.3170662
vn -0.9133355 -0.2555136 0.3170662
vn -0.9133355 -0.2555137 0.3170662

vt 0.8046875 0.2183838
vt 0.7983398 0.3071289
vt 0.8046875 0.3071289
vt 0.7983398 0.2183838
vt 0.8046875 0.3959961
vt 0.7983398 0.3959961
vt 0.9116211 0.3051758
vt 0.9858398 0.394043
vt 0.9858398 0.3051758
vt 0.9116211 0.394043
vt 0.9858398 0.2163086
vt 0.9116211 0.2163086
vt 0.8793945 0.2116699
vt 0.8046875 0.2183838
vt 0.8793945 0.2183838
vt 0.8051758 0.2116699
vt 0.8901367 0.2183838
vt 0.890625 0.2147217
vt 0.894043 0.3071289
vt 0.8901367 0.2183838
vt 0.8901367 0.3071289
vt 0.894043 0.2183838
vt 0.8901367 0.3959961
vt 0.894043 0.3959961
vt 0.8046875 0.2183838
vt 0.8793945 0.3071289
vt 0.8793945 0.2183838
vt 0.8046875 0.3071289
vt 0.8046875 0.3959961
vt 0.8793945 0.3959961
vt 0.8901367 0.2183838
vt 0.8901367 0.3071289
vt 0.8901367 0.3959961
vt 0.8046875 0.3959961
vt 0.8793945 0.4025879
vt 0.8793945 0.3959961
vt 0.8051758 0.4025879
vt 0.8901367 0.3959961
vt 0.890625 0.3996582
vt 0.9975586 0.3051758
vt 0.9858398 0.394043
vt 0.9975586 0.394043
vt 0.9858398 0.3051758
vt 0.9975586 0.2163086
vt 0.9858398 0.2163086

g tailgate_20015_235
usemtl tailgate_20015_235
usemap tailgate_20015_235
f 1/1/1 3/3/3 2/2/2
f 2/2/2 4/4/4 1/1/1
f 2/2/2 3/3/3 5/5/5
f 5/5/5 6/6/6 2/2/2
f 7/7/7 9/9/9 8/8/8
f 8/8/8 10/10/10 7/7/7
f 11/11/11 9/9/9 7/7/7
f 7/7/7 12/12/12 11/11/11
f 13/13/13 15/15/15 14/14/14
f 14/14/14 16/16/16 13/13/13
f 17/17/17 15/15/15 13/13/13
f 13/13/13 18/18/18 17/17/17
f 19/19/19 21/21/21 20/20/20
f 20/20/20 22/22/22 19/19/19
f 23/23/23 21/21/21 19/19/19
f 19/19/19 24/24/24 23/23/23
f 25/25/25 27/27/27 26/26/26
f 26/26/26 28/28/28 25/25/25
f 29/29/29 28/28/28 26/26/26
f 26/26/26 30/30/30 29/29/29
f 26/26/26 27/27/27 31/31/31
f 31/31/31 32/32/32 26/26/26
f 30/30/30 26/26/26 32/32/32
f 32/32/32 33/33/33 30/30/30
f 34/34/34 36/36/36 35/35/35
f 35/35/35 37/37/37 34/34/34
f 35/35/35 36/36/36 38/38/38
f 38/38/38 39/39/39 35/35/35
f 40/40/40 42/42/42 41/41/41
f 41/41/41 43/43/43 40/40/40
f 44/44/44 40/40/40 43/43/43
f 43/43/43 45/45/45 44/44/44
