#trunk_8559_1893.obj

v 0.3951295 -0.1782794 -0.6593853
v 1.17588E-05 -0.05387707 -0.8112274
v 1.30319E-05 -0.2464917 -0.8115058
v 0.3951286 -0.3695738 -0.6593818
v 0.3767186 -0.06764428 -0.6294934
v 1.098571E-05 0.04830781 -0.7760757
v 0.6953057 -0.06695309 -0.6169451
v 0.7091524 -0.1760976 -0.6552389
v -0.395108 -0.1068256 -0.8150606
v -0.395108 -0.2519985 -0.8150606
v -0.3766939 -0.031365 -0.778554
v -0.6952754 -0.02370753 -0.7342139
v -0.7091236 -0.1021883 -0.7743154
v 1.098571E-05 0.04830781 -0.7760757
v 0.3767186 -0.06764428 -0.6294934
v 0.2767775 -0.006184344 -0.03751586
v 1.000551E-05 0.01557057 -0.09741309
v 0.6953057 -0.06695309 -0.6169451
v 0.7294737 0.004179963 0.002286524
v -0.2767476 -0.06138695 -0.07354698
v -0.3766939 -0.031365 -0.778554
v -0.6952754 -0.02370753 -0.7342139
v -0.7294496 -0.07670856 4.214182E-05
v 1.481804E-05 -0.2534272 -0.781646
v 8.032499E-06 -0.0656193 -0.7817394
v 0.392039 -0.1857417 -0.6342744
v 0.3931829 -0.3701015 -0.6335138
v 0.3744839 -0.09161671 -0.6137816
v 1.212117E-05 0.02070785 -0.7575348
v 0.6923364 -0.09104317 -0.6015025
v 0.7043455 -0.1856258 -0.6295819
v 0.276603 -0.03552677 -0.03594419
v 0.3744839 -0.09161671 -0.6137816
v 1.212117E-05 0.02070785 -0.7575348
v 1.310915E-05 -0.01384984 -0.09569582
v 0.6923364 -0.09104317 -0.6015025
v 0.7291697 -0.02571327 0.003757174
v 1.481804E-05 -0.2534272 -0.781646
v -0.3931634 -0.2569906 -0.7851054
v -0.3920176 -0.1165419 -0.7858701
v 8.032499E-06 -0.0656193 -0.7817394
v -0.3744625 -0.05224602 -0.760105
v 1.212117E-05 0.02070785 -0.7575348
v -0.6923145 -0.04434388 -0.7174481
v -0.7043206 -0.1124817 -0.7467173
v -0.2765805 -0.08581438 -0.07174971
v 1.310915E-05 -0.01384984 -0.09569582
v 1.212117E-05 0.02070785 -0.7575348
v -0.3744625 -0.05224602 -0.760105
v -0.6923145 -0.04434388 -0.7174481
v -0.7291505 -0.1003321 0.001900629
v 0.3951286 -0.3695738 -0.6593818
v 0.3931829 -0.3701015 -0.6335138
v 0.392039 -0.1857417 -0.6342744
v 0.3951295 -0.1782794 -0.6593853
v 1.30319E-05 -0.2464917 -0.8115058
v 1.481804E-05 -0.2534272 -0.781646
v 0.3931829 -0.3701015 -0.6335138
v 0.3951286 -0.3695738 -0.6593818
v 0.2767775 -0.006184344 -0.03751586
v 0.276603 -0.03552677 -0.03594419
v 1.310915E-05 -0.01384984 -0.09569582
v 1.000551E-05 0.01557057 -0.09741309
v 0.7294737 0.004179963 0.002286524
v 0.7291697 -0.02571327 0.003757174
v 0.6953057 -0.06695309 -0.6169451
v 0.6923364 -0.09104317 -0.6015025
v 0.7291697 -0.02571327 0.003757174
v 0.7294737 0.004179963 0.002286524
v 0.7091524 -0.1760976 -0.6552389
v 0.7043455 -0.1856258 -0.6295819
v 0.6923364 -0.09104317 -0.6015025
v 0.3951295 -0.1782794 -0.6593853
v 0.392039 -0.1857417 -0.6342744
v 0.7043455 -0.1856258 -0.6295819
v 0.7091524 -0.1760976 -0.6552389
v -0.395108 -0.2519985 -0.8150606
v -0.3931634 -0.2569906 -0.7851054
v 1.481804E-05 -0.2534272 -0.781646
v 1.30319E-05 -0.2464917 -0.8115058
v -0.395108 -0.1068256 -0.8150606
v -0.3920176 -0.1165419 -0.7858701
v -0.3931634 -0.2569906 -0.7851054
v -0.395108 -0.2519985 -0.8150606
v 1.000551E-05 0.01557057 -0.09741309
v 1.310915E-05 -0.01384984 -0.09569582
v -0.2765805 -0.08581438 -0.07174971
v -0.2767476 -0.06138695 -0.07354698
v -0.7291505 -0.1003321 0.001900629
v -0.7294496 -0.07670856 4.214182E-05
v -0.7294496 -0.07670856 4.214182E-05
v -0.7291505 -0.1003321 0.001900629
v -0.6923145 -0.04434388 -0.7174481
v -0.6923145 -0.04434388 -0.7174481
v -0.6952754 -0.02370753 -0.7342139
v -0.7043206 -0.1124817 -0.7467173
v -0.7043206 -0.1124817 -0.7467173
v -0.7091236 -0.1021883 -0.7743154
v -0.7091236 -0.1021883 -0.7743154
v -0.7043206 -0.1124817 -0.7467173
v -0.3920176 -0.1165419 -0.7858701
v -0.395108 -0.1068256 -0.8150606

vn 0.03359835 0.1890812 -0.9813867
vn -0.04364891 0.1964245 -0.9795471
vn -0.0346439 0.0007543021 -0.9993995
vn 0.1299075 0.0006755167 -0.991526
vn 0.03467041 0.3050568 -0.9517028
vn -0.02747926 0.3483203 -0.9369727
vn -0.2009258 0.2994221 -0.9327247
vn -0.2009258 0.2994221 -0.9327247
vn -0.277363 0.2774581 -0.9198298
vn -0.225875 0.0008204315 -0.9741562
vn -0.2902952 0.4139284 -0.8627815
vn -0.3132588 0.4611447 -0.8301893
vn -0.3132589 0.4611448 -0.8301893
vn -0.03262288 0.9986047 0.04150341
vn 0.08618635 0.9930795 -0.07976801
vn 0.08636069 0.9930674 -0.07973052
vn 0.002576647 0.9996271 0.02714926
vn -0.03229464 0.9939968 -0.1045244
vn -0.03229463 0.9939968 -0.1045244
vn -0.1001562 0.9912897 0.08550767
vn -0.09429746 0.9919923 0.08400757
vn 0.01246445 0.9983359 0.05628612
vn 0.01246445 0.9983359 0.05628612
vn 0.03878669 0.001821093 0.999246
vn 0.04664445 -0.1648602 0.9852135
vn -0.02281876 -0.1595094 0.9869327
vn -0.1223154 0.001060763 0.9924908
vn -0.02732284 -0.2601022 0.9651945
vn 0.0349426 -0.2957074 0.9546393
vn 0.2021433 -0.252954 0.946125
vn 0.2021433 -0.252954 0.946125
vn -0.08490658 -0.9936796 0.07341471
vn -0.08457085 -0.9937028 0.07348823
vn 0.02488559 -0.9987183 -0.04405022
vn -0.008132071 -0.9995055 -0.03034511
vn 0.03037893 -0.9947187 0.09802916
vn 0.03037893 -0.9947187 0.09802914
vn 0.03878669 0.001821093 0.999246
vn 0.2253302 0.002647657 0.974279
vn 0.2765735 -0.2371469 0.9312726
vn 0.04664445 -0.1648602 0.9852135
vn 0.2880785 -0.3538597 0.8898283
vn 0.0349426 -0.2957074 0.9546393
vn 0.3207618 -0.4022748 0.8574887
vn 0.3207618 -0.4022749 0.8574887
vn 0.09000759 -0.9920369 -0.08808818
vn -0.008132071 -0.9995055 -0.03034511
vn 0.02488559 -0.9987183 -0.04405022
vn 0.08430505 -0.9926624 -0.08667284
vn -0.01588429 -0.9979838 -0.06143455
vn -0.01588429 -0.9979838 -0.06143454
vn 0.990459 0.003230965 -0.1377706
vn 0.990459 0.003230965 -0.1377706
vn 0.990459 0.003230965 -0.1377706
vn 0.990459 0.003230965 -0.1377706
vn -0.1329141 -0.9804233 -0.1452652
vn -0.1642646 -0.9778741 -0.1295282
vn -0.2655667 -0.9610249 -0.07683595
vn -0.2655667 -0.9610249 -0.07683595
vn 0.08709714 0.05367165 0.9947532
vn 0.08933018 0.05360567 0.9945586
vn 0.1726578 0.06109888 0.9830853
vn 0.1567889 0.06051812 0.9857764
vn 0.1476356 0.05178216 0.9876856
vn 0.1476356 0.05178216 0.9876856
vn 0.9868678 -0.01884142 -0.1604278
vn 0.9900961 -0.009423194 -0.1400753
vn 0.9564587 -0.07565886 -0.2818909
vn 0.9564587 -0.07565885 -0.2818909
vn 0.9986919 0.05017046 -0.009869367
vn 0.9986919 0.05017046 -0.009869367
vn 0.9900961 -0.009423194 -0.1400753
vn -0.06656745 -0.9486477 -0.3092483
vn -0.06656745 -0.9486477 -0.3092483
vn -0.06656744 -0.9486477 -0.3092482
vn -0.06656745 -0.9486477 -0.3092483
vn -0.03336987 -0.9805269 -0.1935244
vn -0.03336987 -0.9805269 -0.1935244
vn -0.1642646 -0.9778741 -0.1295282
vn -0.1329141 -0.9804233 -0.1452652
vn -0.9482582 0.004223331 0.3174722
vn -0.9482582 0.004223331 0.3174722
vn -0.9482582 0.004223331 0.3174722
vn -0.9482582 0.004223331 0.3174722
vn 0.1567889 0.06051812 0.9857764
vn 0.1726578 0.06109888 0.9830853
vn 0.3469422 0.07148275 0.9351587
vn 0.338964 0.07041706 0.9381606
vn 0.3844784 0.07647126 0.9199615
vn 0.3844784 0.07647126 0.9199615
vn -0.9790437 -0.0967311 0.1792106
vn -0.9790437 -0.0967311 0.1792106
vn -0.9521032 -0.01997034 0.3051242
vn -0.9521032 -0.01997034 0.3051242
vn -0.9414894 0.0002540898 0.3370423
vn -0.8950045 0.06841314 0.4407795
vn -0.8950045 0.06841314 0.4407795
vn -0.8950045 0.06841315 0.4407796
vn -0.1294089 -0.9441176 -0.3031395
vn -0.1294089 -0.9441176 -0.3031395
vn -0.1294089 -0.9441176 -0.3031395
vn -0.1294089 -0.9441176 -0.3031395

vt 0.2910156 0.05914307
vt 0.3505859 0.05670166
vt 0.3505859 0.02911377
vt 0.2905273 0.03096008
vt 0.2946777 0.07617188
vt 0.3505859 0.07312012
vt 0.2470703 0.08422852
vt 0.2434082 0.0670166
vt 0.4101563 0.05914307
vt 0.4106445 0.03096008
vt 0.4064941 0.07617188
vt 0.4541016 0.08422852
vt 0.4577637 0.0670166
vt 0.3505859 0.07312012
vt 0.2946777 0.07617188
vt 0.3085938 0.1846924
vt 0.3505859 0.1815186
vt 0.2470703 0.08422852
vt 0.2404785 0.1947021
vt 0.392334 0.1846924
vt 0.4064941 0.07617188
vt 0.4541016 0.08422852
vt 0.4604492 0.1947021
vt 0.09820557 0.5732422
vt 0.09991455 0.5498047
vt 0.04937744 0.5463867
vt 0.04748535 0.5693359
vt 0.05276489 0.534668
vt 0.1005249 0.5380859
vt 0.01222229 0.5273438
vt 0.009727478 0.5395508
vt 0.06518555 0.4445801
vt 0.05276489 0.534668
vt 0.1005249 0.5380859
vt 0.1005249 0.4477539
vt 0.01222229 0.5273438
vt 0.007385254 0.4355469
vt 0.09820557 0.5732422
vt 0.04748535 0.5693359
vt 0.04937744 0.5463867
vt 0.09991455 0.5498047
vt 0.05276489 0.534668
vt 0.1005249 0.5380859
vt 0.01222992 0.5273438
vt 0.009719849 0.5395508
vt 0.06518555 0.4445801
vt 0.1005249 0.4477539
vt 0.1005249 0.5380859
vt 0.05276489 0.534668
vt 0.01222992 0.5273438
vt 0.007389069 0.4355469
vt 0.04360962 0.5693359
vt 0.04748535 0.5693359
vt 0.04937744 0.5463867
vt 0.04568481 0.5454102
vt 0.09814453 0.5771484
vt 0.09820557 0.5732422
vt 0.04748535 0.5693359
vt 0.04721069 0.5732422
vt 0.06567383 0.440918
vt 0.06518555 0.4445801
vt 0.1005249 0.4477539
vt 0.1008911 0.4438477
vt 0.007980347 0.4316406
vt 0.007385254 0.4355469
vt 0.009346008 0.5273438
vt 0.01222229 0.5273438
vt 0.007385254 0.4355469
vt 0.003643036 0.435791
vt 0.006744385 0.5385742
vt 0.009727478 0.5395508
vt 0.01222229 0.5273438
vt 0.04898071 0.550293
vt 0.04937744 0.5463867
vt 0.009727478 0.5395508
vt 0.009094238 0.543457
vt 0.04721069 0.5732422
vt 0.04748535 0.5693359
vt 0.09820557 0.5732422
vt 0.09814453 0.5771484
vt 0.04568481 0.5454102
vt 0.04937744 0.5463867
vt 0.04748535 0.5693359
vt 0.04360962 0.5693359
vt 0.1008911 0.4438477
vt 0.1005249 0.4477539
vt 0.06518555 0.4445801
vt 0.06567383 0.440918
vt 0.007389069 0.4355469
vt 0.007980347 0.4316406
vt 0.003629684 0.435791
vt 0.007389069 0.4355469
vt 0.01222992 0.5273438
vt 0.01222992 0.5273438
vt 0.009338379 0.527832
vt 0.009719849 0.5395508
vt 0.009719849 0.5395508
vt 0.006774902 0.5390625
vt 0.009086609 0.543457
vt 0.009719849 0.5395508
vt 0.04937744 0.5463867
vt 0.04901123 0.550293

g trunk_8559_1893
usemtl trunk_8559_1893
usemap trunk_8559_1893
f 1/1/1 3/3/3 2/2/2
f 1/1/1 4/4/4 3/3/3
f 2/2/2 5/5/5 1/1/1
f 2/2/2 6/6/6 5/5/5
f 1/1/1 5/5/5 7/7/7
f 1/1/1 7/7/7 8/8/8
f 9/9/9 2/2/2 3/3/3
f 9/9/9 3/3/3 10/10/10
f 2/2/2 11/11/11 6/6/6
f 2/2/2 9/9/9 11/11/11
f 9/9/9 12/12/12 11/11/11
f 9/9/9 13/13/13 12/12/12
f 14/14/14 16/16/16 15/15/15
f 14/14/14 17/17/17 16/16/16
f 18/18/18 15/15/15 16/16/16
f 18/18/18 16/16/16 19/19/19
f 14/14/14 20/20/20 17/17/17
f 14/14/14 21/21/21 20/20/20
f 22/22/22 20/20/20 21/21/21
f 22/22/22 23/23/23 20/20/20
f 24/24/24 26/26/26 25/25/25
f 24/24/24 27/27/27 26/26/26
f 28/28/28 25/25/25 26/26/26
f 28/28/28 29/29/29 25/25/25
f 30/30/30 28/28/28 26/26/26
f 30/30/30 26/26/26 31/31/31
f 32/32/32 34/34/34 33/33/33
f 32/32/32 35/35/35 34/34/34
f 32/32/32 33/33/33 36/36/36
f 32/32/32 36/36/36 37/37/37
f 38/38/38 40/40/40 39/39/39
f 38/38/38 41/41/41 40/40/40
f 42/42/42 40/40/40 41/41/41
f 42/42/42 41/41/41 43/43/43
f 44/44/44 40/40/40 42/42/42
f 44/44/44 45/45/45 40/40/40
f 46/46/46 48/48/48 47/47/47
f 46/46/46 49/49/49 48/48/48
f 46/46/46 50/50/50 49/49/49
f 46/46/46 51/51/51 50/50/50
f 52/52/52 54/54/54 53/53/53
f 52/52/52 55/55/55 54/54/54
f 56/56/56 58/58/58 57/57/57
f 56/56/56 59/59/59 58/58/58
f 60/60/60 62/62/62 61/61/61
f 60/60/60 63/63/63 62/62/62
f 64/64/64 60/60/60 61/61/61
f 64/64/64 61/61/61 65/65/65
f 66/66/66 68/68/68 67/67/67
f 66/66/66 69/69/69 68/68/68
f 70/70/70 66/66/66 67/67/67
f 70/70/70 72/72/72 71/71/71
f 73/73/73 75/75/75 74/74/74
f 73/73/73 76/76/76 75/75/75
f 77/77/77 79/79/79 78/78/78
f 77/77/77 80/80/80 79/79/79
f 81/81/81 83/83/83 82/82/82
f 81/81/81 84/84/84 83/83/83
f 85/85/85 87/87/87 86/86/86
f 85/85/85 88/88/88 87/87/87
f 88/88/88 89/89/89 87/87/87
f 88/88/88 90/90/90 89/89/89
f 91/91/91 93/93/93 92/92/92
f 91/91/91 95/95/95 94/94/94
f 95/95/95 96/96/96 94/94/94
f 95/95/95 98/98/98 97/97/97
f 99/99/99 101/101/101 100/100/100
f 99/99/99 102/102/102 101/101/101
