#trunk_8669_3.obj

v 0.3951454 -0.1234672 -0.7899801
v 3.052824E-05 -0.08382642 -0.7002096
v 3.445919E-05 -0.2392869 -0.6983868
v 0.3951469 -0.3028044 -0.7894924
v 0.3767385 -0.01954565 -0.7511399
v 3.461142E-05 0.01003208 -0.6688473
v 0.6953226 -0.0002787553 -0.7406697
v 0.7091686 -0.1084736 -0.7807285
v -0.3950835 -0.1436093 -0.6599078
v -0.3950865 -0.3279154 -0.659408
v -0.3766752 -0.042707 -0.6265362
v -0.6958025 -0.02176405 -0.6198732
v -0.7097191 -0.1247974 -0.6612235
v 3.461142E-05 0.01003208 -0.6688473
v 0.3767385 -0.01954565 -0.7511399
v 0.2785976 0.03365609 -0.04116954
v 0.0009316112 0.0374191 -0.02344263
v 0.6953226 -0.0002787553 -0.7406697
v 0.7349198 0.04510153 -0.007334591
v -0.2765908 -0.001257742 0.01170512
v -0.3766752 -0.042707 -0.6265362
v -0.6958025 -0.02176405 -0.6198732
v -0.7296607 0.002768641 0.05056293
v 2.864465E-05 -0.2387223 -0.6706182
v 3.225894E-05 -0.08595793 -0.6731327
v 0.392058 -0.1296652 -0.7612147
v 0.3932002 -0.3025958 -0.760172
v 0.3745056 -0.04209337 -0.7330811
v 3.016635E-05 -0.008858696 -0.6517023
v 0.6923603 -0.02583767 -0.7242789
v 0.6923603 -0.02583767 -0.7242789
v 0.7043657 -0.120198 -0.753431
v 0.2785733 0.00596344 -0.03940226
v 0.3745056 -0.04209337 -0.7330811
v 3.016635E-05 -0.008858696 -0.6517023
v 0.001018199 0.01303534 -0.02185282
v 0.6923603 -0.02583767 -0.7242789
v 0.7347392 0.0146762 -0.005455824
v 2.864465E-05 -0.2387223 -0.6706182
v -0.393137 -0.3276667 -0.6316867
v -0.3919941 -0.1497552 -0.6329597
v 3.225894E-05 -0.08595793 -0.6731327
v -0.3744416 -0.06394409 -0.6095734
v 3.016635E-05 -0.008858696 -0.6517023
v -0.6928142 -0.0455092 -0.6034576
v -0.7048804 -0.1366805 -0.6339936
v -0.2764066 -0.02607868 0.01330416
v 0.001018199 0.01303534 -0.02185282
v 3.016635E-05 -0.008858696 -0.6517023
v -0.3744416 -0.06394409 -0.6095734
v -0.6928142 -0.0455092 -0.6034576
v -0.7293622 -0.02261514 0.05229925
v 0.3951469 -0.3028044 -0.7894924
v 0.3932002 -0.3025958 -0.760172
v 0.392058 -0.1296652 -0.7612147
v 0.3951454 -0.1234672 -0.7899801
v 3.445919E-05 -0.2392869 -0.6983868
v 2.864465E-05 -0.2387223 -0.6706182
v 0.3932002 -0.3025958 -0.760172
v 0.3951469 -0.3028044 -0.7894924
v 0.2785976 0.03365609 -0.04116954
v 0.2785733 0.00596344 -0.03940226
v 0.001018199 0.01303534 -0.02185282
v 0.0009316112 0.0374191 -0.02344263
v 0.7349198 0.04510153 -0.007334591
v 0.7347392 0.0146762 -0.005455824
v 0.6953226 -0.0002787553 -0.7406697
v 0.6923603 -0.02583767 -0.7242789
v 0.7347392 0.0146762 -0.005455824
v 0.7349198 0.04510153 -0.007334591
v 0.7091686 -0.1084736 -0.7807285
v 0.7043657 -0.120198 -0.753431
v 0.6923603 -0.02583767 -0.7242789
v 0.3951454 -0.1234672 -0.7899801
v 0.392058 -0.1296652 -0.7612147
v 0.7043657 -0.120198 -0.753431
v 0.7091686 -0.1084736 -0.7807285
v -0.3950865 -0.3279154 -0.659408
v -0.393137 -0.3276667 -0.6316867
v 2.864465E-05 -0.2387223 -0.6706182
v 3.445919E-05 -0.2392869 -0.6983868
v -0.3950835 -0.1436093 -0.6599078
v -0.3919941 -0.1497552 -0.6329597
v -0.393137 -0.3276667 -0.6316867
v -0.393137 -0.3276667 -0.6316867
v -0.3950865 -0.3279154 -0.659408
v 0.0009316112 0.0374191 -0.02344263
v 0.001018199 0.01303534 -0.02185282
v -0.2764066 -0.02607868 0.01330416
v -0.2765908 -0.001257742 0.01170512
v -0.7293622 -0.02261514 0.05229925
v -0.7296607 0.002768641 0.05056293
v -0.7296607 0.002768641 0.05056293
v -0.7293622 -0.02261514 0.05229925
v -0.6928142 -0.0455092 -0.6034576
v -0.6928142 -0.0455092 -0.6034576
v -0.6958025 -0.02176405 -0.6198732
v -0.7048804 -0.1366805 -0.6339936
v -0.7097191 -0.1247974 -0.6612235
v -0.7097191 -0.1247974 -0.6612235
v -0.7048804 -0.1366805 -0.6339936
v -0.3919941 -0.1497552 -0.6329597
v -0.3950835 -0.1436093 -0.6599078

vn 0.1041994 0.2148252 -0.9710779
vn 0.06908469 0.1721427 -0.9826463
vn 0.0779267 -0.006784996 -0.9969359
vn 0.01319307 -0.00673337 -0.9998902
vn 0.1283807 0.3314496 -0.9346974
vn 0.06242549 0.319457 -0.9455421
vn 0.2317665 0.3499849 -0.907631
vn 0.2317665 0.3499849 -0.907631
vn 0.1599003 0.2129704 -0.9638854
vn 0.1398936 -0.006807772 -0.9901429
vn 0.1485812 0.3333981 -0.9310042
vn 0.235635 0.3421179 -0.9096324
vn 0.235635 0.3421179 -0.9096324
vn -0.02851466 0.9978868 -0.05836399
vn 0.01243175 0.9979444 -0.06284848
vn 0.02106053 0.9980274 -0.0591207
vn -0.04276308 0.9972397 -0.06067822
vn -0.01805975 0.9969451 -0.07597302
vn -0.01805975 0.9969451 -0.07597303
vn -0.04735168 0.9970914 -0.0597001
vn -0.03959624 0.9975134 -0.05828149
vn 0.04066118 0.9982281 -0.04341449
vn 0.04066119 0.9982281 -0.04341448
vn -0.07908948 0.01124891 0.996804
vn -0.07112774 -0.1440313 0.9870135
vn -0.1082879 -0.1812145 0.9774635
vn -0.01506068 0.0114151 0.9998214
vn -0.1297493 -0.2826485 0.9504076
vn -0.06562686 -0.271305 0.9602533
vn -0.2381025 -0.3021927 0.923031
vn -0.2381025 -0.3021927 0.923031
vn -0.2381025 -0.3021927 0.923031
vn -0.02885969 -0.9983169 0.05027947
vn -0.01961389 -0.9983274 0.05436241
vn 0.02548629 -0.9983968 0.05051591
vn 0.04092057 -0.997743 0.05321686
vn 0.01277972 -0.99756 0.06861663
vn 0.01277972 -0.99756 0.06861663
vn -0.07908948 0.01124891 0.996804
vn -0.1403279 0.01104559 0.9900433
vn -0.1614344 -0.1778859 0.9707189
vn -0.07112774 -0.1440313 0.9870135
vn -0.1492317 -0.2835834 0.9472644
vn -0.06562686 -0.271305 0.9602533
vn -0.233189 -0.2903995 0.9280574
vn -0.233189 -0.2903996 0.9280574
vn 0.05222842 -0.997063 0.05599261
vn 0.04092057 -0.997743 0.05321686
vn 0.02548629 -0.9983968 0.05051591
vn 0.04433645 -0.9975171 0.05469396
vn -0.03630144 -0.9984879 0.04125075
vn -0.03630144 -0.9984879 0.04125075
vn 0.9473662 0.003612253 0.3201322
vn 0.9473662 0.003612254 0.3201322
vn 0.9473662 0.003612253 0.3201322
vn 0.9473662 0.003612253 0.3201322
vn 0.01102544 -0.999884 0.01039608
vn 0.04888636 -0.9986134 0.01947351
vn -0.1551505 -0.9874465 -0.02958544
vn -0.1551505 -0.9874465 -0.02958544
vn -0.2418342 0.06367408 0.968226
vn -0.241689 0.06367576 0.9682621
vn -0.1464604 0.06465382 0.9871013
vn -0.1484991 0.0646295 0.9867983
vn -0.3088283 0.06272941 0.9490468
vn -0.3088283 0.06272941 0.9490468
vn 0.9509898 -0.01514576 0.3088513
vn 0.9467278 -0.008848115 0.3219133
vn 0.9799534 -0.07289502 0.1854125
vn 0.9799534 -0.07289502 0.1854125
vn 0.8960073 0.05048689 0.4411598
vn 0.8960073 0.05048689 0.4411598
vn 0.9467278 -0.008848115 0.3219133
vn 0.1147125 -0.9533732 -0.2791384
vn 0.1147125 -0.9533732 -0.2791384
vn 0.1147125 -0.9533732 -0.2791384
vn 0.1147125 -0.9533732 -0.2791384
vn 0.2125456 -0.9753928 0.05857461
vn 0.2125456 -0.9753928 0.05857461
vn 0.04888636 -0.9986134 0.01947351
vn 0.01102544 -0.999884 0.01039608
vn -0.9892264 0.003597475 -0.1463499
vn -0.9892264 0.003597475 -0.1463499
vn -0.9892264 0.003597475 -0.1463499
vn -0.9892264 0.003597475 -0.1463499
vn -0.9892264 0.003597475 -0.1463499
vn -0.1484991 0.0646295 0.9867983
vn -0.1464604 0.06465382 0.9871013
vn -0.1373773 0.06597244 0.9883192
vn -0.1361338 0.06589099 0.9884967
vn -0.1518627 0.06691472 0.9861338
vn -0.1518627 0.06691472 0.9861338
vn -0.9550474 -0.08494484 -0.2840231
vn -0.9550474 -0.08494484 -0.2840231
vn -0.9881729 -0.01649159 -0.1524543
vn -0.9881729 -0.01649159 -0.1524543
vn -0.9878501 -0.01750447 -0.1544213
vn -0.9985028 0.0504998 -0.02101755
vn -0.9985028 0.0504998 -0.02101754
vn 0.02744782 -0.9498336 -0.311545
vn 0.02744783 -0.9498336 -0.311545
vn 0.02744782 -0.9498336 -0.311545
vn 0.02744782 -0.9498336 -0.311545

vt 0.2910156 0.05914307
vt 0.3505859 0.05670166
vt 0.3505859 0.02911377
vt 0.2905273 0.03096008
vt 0.2946777 0.07617188
vt 0.3505859 0.07312012
vt 0.2470703 0.08422852
vt 0.2434082 0.0670166
vt 0.4101563 0.05914307
vt 0.4106445 0.03096008
vt 0.4064941 0.07617188
vt 0.4541016 0.08422852
vt 0.4577637 0.0670166
vt 0.3505859 0.07312012
vt 0.2946777 0.07617188
vt 0.3085938 0.1846924
vt 0.3505859 0.1815186
vt 0.2470703 0.08422852
vt 0.2404785 0.1947021
vt 0.392334 0.1846924
vt 0.4064941 0.07617188
vt 0.4541016 0.08422852
vt 0.4604492 0.1947021
vt 0.09820557 0.5732422
vt 0.09991455 0.5498047
vt 0.04937744 0.5463867
vt 0.04748535 0.5693359
vt 0.05276489 0.534668
vt 0.1005249 0.5380859
vt 0.01222229 0.5273438
vt 0.01222229 0.5273438
vt 0.009727478 0.5395508
vt 0.06518555 0.4445801
vt 0.05276489 0.534668
vt 0.1005249 0.5380859
vt 0.1005249 0.4477539
vt 0.01222229 0.5273438
vt 0.007385254 0.4355469
vt 0.09820557 0.5732422
vt 0.04748535 0.5693359
vt 0.04937744 0.5463867
vt 0.09991455 0.5498047
vt 0.05276489 0.534668
vt 0.1005249 0.5380859
vt 0.01222992 0.5273438
vt 0.009719849 0.5395508
vt 0.06518555 0.4445801
vt 0.1005249 0.4477539
vt 0.1005249 0.5380859
vt 0.05276489 0.534668
vt 0.01222992 0.5273438
vt 0.007389069 0.4355469
vt 0.04360962 0.5693359
vt 0.04748535 0.5693359
vt 0.04937744 0.5463867
vt 0.04568481 0.5454102
vt 0.09814453 0.5771484
vt 0.09820557 0.5732422
vt 0.04748535 0.5693359
vt 0.04721069 0.5732422
vt 0.06567383 0.440918
vt 0.06518555 0.4445801
vt 0.1005249 0.4477539
vt 0.1008911 0.4438477
vt 0.007980347 0.4316406
vt 0.007385254 0.4355469
vt 0.009346008 0.5273438
vt 0.01222229 0.5273438
vt 0.007385254 0.4355469
vt 0.003643036 0.435791
vt 0.006744385 0.5385742
vt 0.009727478 0.5395508
vt 0.01222229 0.5273438
vt 0.04898071 0.550293
vt 0.04937744 0.5463867
vt 0.009727478 0.5395508
vt 0.009094238 0.543457
vt 0.04721069 0.5732422
vt 0.04748535 0.5693359
vt 0.09820557 0.5732422
vt 0.09814453 0.5771484
vt 0.04568481 0.5454102
vt 0.04937744 0.5463867
vt 0.04748535 0.5693359
vt 0.04748535 0.5693359
vt 0.04360962 0.5693359
vt 0.1008911 0.4438477
vt 0.1005249 0.4477539
vt 0.06518555 0.4445801
vt 0.06567383 0.440918
vt 0.007389069 0.4355469
vt 0.007980347 0.4316406
vt 0.003629684 0.435791
vt 0.007389069 0.4355469
vt 0.01222992 0.5273438
vt 0.01222992 0.5273438
vt 0.009338379 0.527832
vt 0.009719849 0.5395508
vt 0.006774902 0.5390625
vt 0.009086609 0.543457
vt 0.009719849 0.5395508
vt 0.04937744 0.5463867
vt 0.04901123 0.550293

g trunk_8669_3
usemtl trunk_8669_3
usemap trunk_8669_3
f 1/1/1 3/3/3 2/2/2
f 1/1/1 4/4/4 3/3/3
f 2/2/2 5/5/5 1/1/1
f 2/2/2 6/6/6 5/5/5
f 1/1/1 5/5/5 7/7/7
f 1/1/1 7/7/7 8/8/8
f 9/9/9 2/2/2 3/3/3
f 9/9/9 3/3/3 10/10/10
f 2/2/2 11/11/11 6/6/6
f 2/2/2 9/9/9 11/11/11
f 9/9/9 12/12/12 11/11/11
f 9/9/9 13/13/13 12/12/12
f 14/14/14 16/16/16 15/15/15
f 14/14/14 17/17/17 16/16/16
f 18/18/18 15/15/15 16/16/16
f 18/18/18 16/16/16 19/19/19
f 14/14/14 20/20/20 17/17/17
f 14/14/14 21/21/21 20/20/20
f 22/22/22 20/20/20 21/21/21
f 22/22/22 23/23/23 20/20/20
f 24/24/24 26/26/26 25/25/25
f 24/24/24 27/27/27 26/26/26
f 28/28/28 25/25/25 26/26/26
f 28/28/28 29/29/29 25/25/25
f 30/30/30 28/28/28 26/26/26
f 31/31/31 26/26/26 32/32/32
f 33/33/33 35/35/35 34/34/34
f 33/33/33 36/36/36 35/35/35
f 33/33/33 34/34/34 37/37/37
f 33/33/33 37/37/37 38/38/38
f 39/39/39 41/41/41 40/40/40
f 39/39/39 42/42/42 41/41/41
f 43/43/43 41/41/41 42/42/42
f 43/43/43 42/42/42 44/44/44
f 45/45/45 41/41/41 43/43/43
f 45/45/45 46/46/46 41/41/41
f 47/47/47 49/49/49 48/48/48
f 47/47/47 50/50/50 49/49/49
f 47/47/47 51/51/51 50/50/50
f 47/47/47 52/52/52 51/51/51
f 53/53/53 55/55/55 54/54/54
f 53/53/53 56/56/56 55/55/55
f 57/57/57 59/59/59 58/58/58
f 57/57/57 60/60/60 59/59/59
f 61/61/61 63/63/63 62/62/62
f 61/61/61 64/64/64 63/63/63
f 65/65/65 61/61/61 62/62/62
f 65/65/65 62/62/62 66/66/66
f 67/67/67 69/69/69 68/68/68
f 67/67/67 70/70/70 69/69/69
f 71/71/71 67/67/67 68/68/68
f 71/71/71 73/73/73 72/72/72
f 74/74/74 76/76/76 75/75/75
f 74/74/74 77/77/77 76/76/76
f 78/78/78 80/80/80 79/79/79
f 78/78/78 81/81/81 80/80/80
f 82/82/82 84/84/84 83/83/83
f 82/82/82 86/86/86 85/85/85
f 87/87/87 89/89/89 88/88/88
f 87/87/87 90/90/90 89/89/89
f 90/90/90 91/91/91 89/89/89
f 90/90/90 92/92/92 91/91/91
f 93/93/93 95/95/95 94/94/94
f 93/93/93 97/97/97 96/96/96
f 97/97/97 98/98/98 96/96/96
f 97/97/97 99/99/99 98/98/98
f 100/100/100 102/102/102 101/101/101
f 100/100/100 103/103/103 102/102/102
