#trunk_8923_436.obj

v -2.302336E-06 -0.3379728 -0.8551137
v 0.3951121 -0.1519324 -0.829179
v -3.827828E-06 -0.1519324 -0.8548358
v 0.3951135 -0.3379731 -0.8291792
v 0.3767045 -0.04380733 -0.793843
v -3.685903E-06 -0.04380724 -0.8194867
v 0.6952879 -0.04380726 -0.7344349
v 0.7091346 -0.1519326 -0.7744263
v -0.3951201 -0.1519321 -0.8291793
v -0.3951188 -0.3379731 -0.8291792
v -0.3767102 -0.04380776 -0.7938436
v -0.6952938 -0.04380696 -0.7344345
v -0.7091413 -0.1519328 -0.7744265
v 0.2767597 0.001412552 -0.07305846
v -3.685903E-06 -0.04380724 -0.8194867
v 0.3767045 -0.04380733 -0.793843
v -3.118914E-06 0.001412818 -0.09712998
v 0.6952879 -0.04380726 -0.7344349
v 0.7294573 0.001412599 -1.117001E-06
v -0.2767666 0.001412317 -0.07305874
v -0.3767102 -0.04380776 -0.7938436
v -0.6952938 -0.04380696 -0.7344345
v -0.7294652 0.001412698 -1.602891E-06
v 0.3920236 -0.1585945 -0.8000914
v -3.049755E-06 -0.3379728 -0.8251137
v -2.028788E-06 -0.1566494 -0.8252091
v 0.3931685 -0.3379735 -0.7992431
v 0.3744713 -0.06737894 -0.7754201
v -3.278144E-06 -0.06718904 -0.8006907
v 0.6923237 -0.06852898 -0.7176998
v 0.704328 -0.1627445 -0.7468582
v -3.278144E-06 -0.06718904 -0.8006907
v 0.2765867 -0.02853054 -0.07121962
v 0.3744713 -0.06737894 -0.7754201
v -3.079984E-06 -0.02853259 -0.09531619
v 0.6923237 -0.06852898 -0.7176998
v 0.7291583 -0.02852805 0.001856454
v -0.3920299 -0.1585954 -0.8000925
v -3.049755E-06 -0.3379728 -0.8251137
v -0.3931752 -0.3379728 -0.7992423
v -2.028788E-06 -0.1566494 -0.8252091
v -0.3744778 -0.06737976 -0.7754211
v -3.278144E-06 -0.06718904 -0.8006907
v -0.6923307 -0.06852971 -0.7177007
v -0.7043344 -0.1627448 -0.7468585
v -3.278144E-06 -0.06718904 -0.8006907
v -0.2765929 -0.0285309 -0.07122005
v -3.079984E-06 -0.02853259 -0.09531619
v -0.3744778 -0.06737976 -0.7754211
v -0.6923307 -0.06852971 -0.7177007
v -0.729165 -0.02852864 0.001855097
v 0.3920236 -0.1585945 -0.8000914
v 0.3951135 -0.3379731 -0.8291792
v 0.3931685 -0.3379735 -0.7992431
v 0.3920236 -0.1585945 -0.8000914
v 0.3951121 -0.1519324 -0.829179
v 0.3931685 -0.3379735 -0.7992431
v -2.302336E-06 -0.3379728 -0.8551137
v -3.049755E-06 -0.3379728 -0.8251137
v 0.3951135 -0.3379731 -0.8291792
v -3.079984E-06 -0.02853259 -0.09531619
v 0.2767597 0.001412552 -0.07305846
v 0.2765867 -0.02853054 -0.07121962
v -3.118914E-06 0.001412818 -0.09712998
v 0.7294573 0.001412599 -1.117001E-06
v 0.7291583 -0.02852805 0.001856454
v 0.7291583 -0.02852805 0.001856454
v 0.6952879 -0.04380726 -0.7344349
v 0.6923237 -0.06852898 -0.7176998
v 0.7091346 -0.1519326 -0.7744263
v 0.7291583 -0.02852805 0.001856454
v 0.7294573 0.001412599 -1.117001E-06
v 0.6923237 -0.06852898 -0.7176998
v 0.704328 -0.1627445 -0.7468582
v 0.704328 -0.1627445 -0.7468582
v 0.3951121 -0.1519324 -0.829179
v 0.3920236 -0.1585945 -0.8000914
v 0.7091346 -0.1519326 -0.7744263
v -3.049755E-06 -0.3379728 -0.8251137
v -0.3951188 -0.3379731 -0.8291792
v -0.3931752 -0.3379728 -0.7992423
v -2.302336E-06 -0.3379728 -0.8551137
v -0.3931752 -0.3379728 -0.7992423
v -0.3951201 -0.1519321 -0.8291793
v -0.3920299 -0.1585954 -0.8000925
v -0.3931752 -0.3379728 -0.7992423
v -0.3951188 -0.3379731 -0.8291792
v -0.2765929 -0.0285309 -0.07122005
v -3.118914E-06 0.001412818 -0.09712998
v -3.079984E-06 -0.02853259 -0.09531619
v -0.2767666 0.001412317 -0.07305874
v -0.729165 -0.02852864 0.001855097
v -0.7294652 0.001412698 -1.602891E-06
v -0.6923307 -0.06852971 -0.7177007
v -0.7294652 0.001412698 -1.602891E-06
v -0.729165 -0.02852864 0.001855097
v -0.6923307 -0.06852971 -0.7177007
v -0.6952938 -0.04380696 -0.7344345
v -0.7043344 -0.1627448 -0.7468585
v -0.7043344 -0.1627448 -0.7468585
v -0.7091413 -0.1519328 -0.7744265
v -0.3920299 -0.1585954 -0.8000925
v -0.7091413 -0.1519328 -0.7744265
v -0.7043344 -0.1627448 -0.7468585
v -0.3951201 -0.1519321 -0.8291793

vn 0.6167948 0.6263472 -0.4767098
vn 0.5516077 0.7798258 -0.2959718
vn 0.5313958 0.7409032 -0.4107064
vn 0.6560557 0.6241646 -0.4242741
vn 0.4880118 0.8409287 -0.2338419
vn 0.4329731 0.8369892 -0.3346372
vn 0.4927089 0.8524517 -0.1748213
vn 0.4868996 0.8559886 -0.1738124
vn 0.4254612 0.7798258 -0.4591874
vn 0.5759493 0.6241646 -0.5279206
vn 0.3493066 0.8409287 -0.4133066
vn 0.293376 0.8524517 -0.4327297
vn 0.2909353 0.8559886 -0.4273624
vn -0.4509639 0.8174829 0.3582622
vn -0.4556026 0.8175764 0.3521272
vn -0.4511918 0.8172029 0.3586139
vn -0.4553812 0.8177735 0.3519561
vn -0.4494198 0.8170671 0.3611393
vn -0.4496111 0.8174096 0.3601248
vn -0.4603702 0.8174829 0.3460918
vn -0.460768 0.817203 0.3462237
vn -0.4627651 0.8170671 0.3438723
vn -0.4618317 0.8174097 0.3443131
vn -0.5731503 -0.7580261 0.3112777
vn -0.6180987 -0.6242907 0.4777175
vn -0.5457678 -0.7240229 0.4218143
vn -0.6582742 -0.6207917 0.4257837
vn -0.5195543 -0.8141602 0.2592397
vn -0.4645554 -0.809489 0.3590466
vn -0.5280447 -0.8255097 0.1992511
vn -0.5244027 -0.8280392 0.1983717
vn 0.4605013 -0.8131807 -0.3559132
vn 0.4557433 -0.813381 -0.3615356
vn 0.4555605 -0.8127478 -0.3631861
vn 0.460395 -0.8132768 -0.3558311
vn 0.4534855 -0.8129066 -0.3654208
vn 0.4540505 -0.8139686 -0.3623422
vn -0.4457032 -0.7580261 0.4761761
vn -0.6180987 -0.6242907 0.4777175
vn -0.5779693 -0.6207917 0.5296869
vn -0.5457678 -0.7240229 0.4218143
vn -0.3818355 -0.8141602 0.4374283
vn -0.4645554 -0.809489 0.3590466
vn -0.3259242 -0.8255097 0.4607663
vn -0.3241552 -0.8280392 0.4574637
vn 0.4605013 -0.8131807 -0.3559132
vn 0.4647427 -0.813381 -0.3498917
vn 0.460395 -0.8132768 -0.3558311
vn 0.4662938 -0.8127478 -0.3492987
vn 0.4679333 -0.8129066 -0.3467274
vn 0.4650965 -0.8139686 -0.3480502
vn 0.545161 -0.0632325 0.8359432
vn 0.5644944 -0.03848752 0.8245391
vn 0.5669204 -0.03532137 0.823015
vn 0.545161 -0.0632325 0.8359432
vn 0.5429083 -0.06606152 0.8371896
vn 0.4949166 -0.7802182 -0.3825123
vn 0.4949174 -0.7802175 -0.3825129
vn 0.4949174 -0.7802175 -0.3825129
vn 0.4949166 -0.7802182 -0.3825123
vn -0.6461065 -0.5771443 0.4994496
vn -0.7170476 -0.5715838 0.3989159
vn -0.7171284 -0.5715178 0.3988651
vn -0.6461069 -0.5771441 0.4994493
vn -0.7365362 -0.5674042 0.368193
vn -0.7365618 -0.5673606 0.3682091
vn 0.6468176 0.01616749 0.7624733
vn 0.5798789 -0.09956472 0.8085958
vn 0.5730603 -0.09971446 0.8134241
vn 0.4438879 -0.07882394 0.8926087
vn 0.6468176 0.01616749 0.7624733
vn 0.6453891 0.01856148 0.7636284
vn 0.5730603 -0.09971446 0.8134241
vn 0.4458416 -0.07243987 0.8921758
vn 0.7140629 -0.5129811 -0.4764072
vn 0.639574 -0.6157696 -0.4601868
vn 0.6338962 -0.6226734 -0.458751
vn 0.718694 -0.5057018 -0.4772252
vn 0.4949174 -0.7802175 -0.3825129
vn 0.4949166 -0.7802182 -0.3825123
vn 0.4949166 -0.7802182 -0.3825123
vn 0.4949174 -0.7802175 -0.3825129
vn -0.6530071 -0.04263821 -0.7561505
vn -0.6743602 -0.05917783 -0.7360274
vn -0.6775343 -0.06168243 -0.7329
vn -0.6530071 -0.04263821 -0.7561505
vn -0.6502402 -0.04053258 -0.7586467
vn -0.5667414 -0.5715789 0.5933807
vn -0.6461069 -0.5771441 0.4994493
vn -0.6461065 -0.5771443 0.4994496
vn -0.566837 -0.5715267 0.5933398
vn -0.5420203 -0.5674118 0.6198846
vn -0.5420472 -0.5673689 0.6199004
vn -0.652136 -0.1023362 -0.7511631
vn -0.5717741 0.01876245 -0.8201966
vn -0.5730916 0.02127999 -0.8192149
vn -0.652136 -0.1023362 -0.7511631
vn -0.6399946 -0.09787516 -0.7621203
vn -0.7477294 -0.08258959 -0.6588473
vn -0.7477294 -0.08258959 -0.6588473
vn -0.744771 -0.07776192 -0.6627739
vn 0.5981683 -0.6169729 -0.511408
vn 0.649447 -0.5116494 -0.5625234
vn 0.652544 -0.5041957 -0.5656608
vn 0.5944765 -0.6235061 -0.5077762

vt 0.3505859 0.02911377
vt 0.2910156 0.05914307
vt 0.3505859 0.05670166
vt 0.2905273 0.03096008
vt 0.2946777 0.07617188
vt 0.3505859 0.07312012
vt 0.2470703 0.08422852
vt 0.2434082 0.0670166
vt 0.4101563 0.05914307
vt 0.4106445 0.03096008
vt 0.4064941 0.07617188
vt 0.4541016 0.08422852
vt 0.4577637 0.0670166
vt 0.3085938 0.1846924
vt 0.3505859 0.07312012
vt 0.2946777 0.07617188
vt 0.3505859 0.1815186
vt 0.2470703 0.08422852
vt 0.2404785 0.1947021
vt 0.392334 0.1846924
vt 0.4064941 0.07617188
vt 0.4541016 0.08422852
vt 0.4604492 0.1947021
vt 0.04937744 0.5463867
vt 0.09820557 0.5732422
vt 0.09991455 0.5498047
vt 0.04748535 0.5693359
vt 0.05276489 0.534668
vt 0.1005249 0.5380859
vt 0.01222229 0.5273438
vt 0.009727478 0.5395508
vt 0.1005249 0.5380859
vt 0.06518555 0.4445801
vt 0.05276489 0.534668
vt 0.1005249 0.4477539
vt 0.01222229 0.5273438
vt 0.007385254 0.4355469
vt 0.04937744 0.5463867
vt 0.09820557 0.5732422
vt 0.04748535 0.5693359
vt 0.09991455 0.5498047
vt 0.05276489 0.534668
vt 0.1005249 0.5380859
vt 0.01222992 0.5273438
vt 0.009719849 0.5395508
vt 0.1005249 0.5380859
vt 0.06518555 0.4445801
vt 0.1005249 0.4477539
vt 0.05276489 0.534668
vt 0.01222992 0.5273438
vt 0.007389069 0.4355469
vt 0.04937744 0.5463867
vt 0.04360962 0.5693359
vt 0.04748535 0.5693359
vt 0.04937744 0.5463867
vt 0.04568481 0.5454102
vt 0.04748535 0.5693359
vt 0.09814453 0.5771484
vt 0.09820557 0.5732422
vt 0.04721069 0.5732422
vt 0.1005249 0.4477539
vt 0.06567383 0.440918
vt 0.06518555 0.4445801
vt 0.1008911 0.4438477
vt 0.007980347 0.4316406
vt 0.007385254 0.4355469
vt 0.007385254 0.4355469
vt 0.009346008 0.5273438
vt 0.01222229 0.5273438
vt 0.006744385 0.5385742
vt 0.007385254 0.4355469
vt 0.003643036 0.435791
vt 0.01222229 0.5273438
vt 0.009727478 0.5395508
vt 0.009727478 0.5395508
vt 0.04898071 0.550293
vt 0.04937744 0.5463867
vt 0.009094238 0.543457
vt 0.09820557 0.5732422
vt 0.04721069 0.5732422
vt 0.04748535 0.5693359
vt 0.09814453 0.5771484
vt 0.04748535 0.5693359
vt 0.04568481 0.5454102
vt 0.04937744 0.5463867
vt 0.04748535 0.5693359
vt 0.04360962 0.5693359
vt 0.06518555 0.4445801
vt 0.1008911 0.4438477
vt 0.1005249 0.4477539
vt 0.06567383 0.440918
vt 0.007389069 0.4355469
vt 0.007980347 0.4316406
vt 0.01222992 0.5273438
vt 0.003629684 0.435791
vt 0.007389069 0.4355469
vt 0.01222992 0.5273438
vt 0.009338379 0.527832
vt 0.009719849 0.5395508
vt 0.009719849 0.5395508
vt 0.006774902 0.5390625
vt 0.04937744 0.5463867
vt 0.009086609 0.543457
vt 0.009719849 0.5395508
vt 0.04901123 0.550293

g trunk_8923_436
usemtl trunk_8923_436
usemap trunk_8923_436
f 1/1/1 3/3/3 2/2/2
f 2/2/2 4/4/4 1/1/1
f 5/5/5 2/2/2 3/3/3
f 3/3/3 6/6/6 5/5/5
f 2/2/2 5/5/5 7/7/7
f 7/7/7 8/8/8 2/2/2
f 9/9/9 3/3/3 1/1/1
f 1/1/1 10/10/10 9/9/9
f 11/11/11 6/6/6 3/3/3
f 3/3/3 9/9/9 11/11/11
f 12/12/12 11/11/11 9/9/9
f 9/9/9 13/13/13 12/12/12
f 14/14/14 16/16/16 15/15/15
f 15/15/15 17/17/17 14/14/14
f 18/18/18 16/16/16 14/14/14
f 14/14/14 19/19/19 18/18/18
f 20/20/20 17/17/17 15/15/15
f 15/15/15 21/21/21 20/20/20
f 20/20/20 21/21/21 22/22/22
f 22/22/22 23/23/23 20/20/20
f 24/24/24 26/26/26 25/25/25
f 25/25/25 27/27/27 24/24/24
f 26/26/26 24/24/24 28/28/28
f 28/28/28 29/29/29 26/26/26
f 30/30/30 28/28/28 24/24/24
f 24/24/24 31/31/31 30/30/30
f 32/32/32 34/34/34 33/33/33
f 33/33/33 35/35/35 32/32/32
f 33/33/33 34/34/34 36/36/36
f 36/36/36 37/37/37 33/33/33
f 38/38/38 40/40/40 39/39/39
f 39/39/39 41/41/41 38/38/38
f 42/42/42 38/38/38 41/41/41
f 41/41/41 43/43/43 42/42/42
f 38/38/38 42/42/42 44/44/44
f 44/44/44 45/45/45 38/38/38
f 46/46/46 48/48/48 47/47/47
f 47/47/47 49/49/49 46/46/46
f 50/50/50 49/49/49 47/47/47
f 47/47/47 51/51/51 50/50/50
f 52/52/52 54/54/54 53/53/53
f 53/53/53 56/56/56 55/55/55
f 57/57/57 59/59/59 58/58/58
f 58/58/58 60/60/60 57/57/57
f 61/61/61 63/63/63 62/62/62
f 62/62/62 64/64/64 61/61/61
f 65/65/65 62/62/62 63/63/63
f 63/63/63 66/66/66 65/65/65
f 67/67/67 69/69/69 68/68/68
f 70/70/70 68/68/68 69/69/69
f 68/68/68 72/72/72 71/71/71
f 73/73/73 74/74/74 70/70/70
f 75/75/75 77/77/77 76/76/76
f 76/76/76 78/78/78 75/75/75
f 79/79/79 81/81/81 80/80/80
f 80/80/80 82/82/82 79/79/79
f 83/83/83 85/85/85 84/84/84
f 84/84/84 87/87/87 86/86/86
f 88/88/88 90/90/90 89/89/89
f 89/89/89 91/91/91 88/88/88
f 92/92/92 88/88/88 91/91/91
f 91/91/91 93/93/93 92/92/92
f 94/94/94 96/96/96 95/95/95
f 95/95/95 98/98/98 97/97/97
f 99/99/99 97/97/97 98/98/98
f 98/98/98 101/101/101 100/100/100
f 102/102/102 104/104/104 103/103/103
f 103/103/103 105/105/105 102/102/102
