#trunk_9165_1859.obj

v 2.729175E-05 -0.3379717 -0.8551005
v 0.3951437 -0.1519312 -0.8291672
v 2.828921E-05 -0.1519312 -0.8548205
v 0.3951437 -0.3379717 -0.8291671
v 0.3767334 -0.04380591 -0.7938306
v 2.675154E-05 -0.04380592 -0.8194711
v 0.6953174 -0.0438059 -0.7344224
v 0.7091643 -0.1519312 -0.7744089
v -0.3950893 -0.1519312 -0.8291681
v -0.3950893 -0.3379717 -0.8291681
v -0.3766797 -0.04380591 -0.7938271
v -0.6952637 -0.0438059 -0.7344226
v -0.7091108 -0.1519312 -0.7744123
v 0.2767917 0.00141394 -0.07304116
v 2.675154E-05 -0.04380592 -0.8194711
v 0.3767334 -0.04380591 -0.7938306
v 2.922529E-05 0.001413492 -0.09711733
v 0.6953174 -0.0438059 -0.7344224
v 0.7294874 0.001413949 1.567776E-05
v -0.2767341 0.00141394 -0.07304434
v -0.3766797 -0.04380591 -0.7938271
v -0.6952637 -0.0438059 -0.7344226
v -0.729432 0.001413949 1.084492E-05
v 0.3920533 -0.1585936 -0.8000749
v 2.847791E-05 -0.3379717 -0.825103
v 2.814542E-05 -0.1566479 -0.8251963
v 0.3932 -0.3379717 -0.7992292
v 0.3745016 -0.06737816 -0.7754043
v 2.780499E-05 -0.06718832 -0.8006734
v 0.6923561 -0.06852791 -0.7176849
v 0.7043611 -0.1627429 -0.7468426
v 2.780499E-05 -0.06718832 -0.8006734
v 0.2766185 -0.02852921 -0.07120229
v 0.3745016 -0.06737816 -0.7754043
v 2.724715E-05 -0.02853144 -0.09530235
v 0.6923561 -0.06852791 -0.7176849
v 0.7291905 -0.02852697 0.001869436
v -0.3919981 -0.1585936 -0.8000808
v 2.847791E-05 -0.3379717 -0.825103
v -0.3931447 -0.3379717 -0.799226
v 2.814542E-05 -0.1566479 -0.8251963
v -0.3744484 -0.06737816 -0.7754042
v 2.780499E-05 -0.06718832 -0.8006734
v -0.6922991 -0.06852791 -0.7176827
v -0.704304 -0.1627429 -0.7468408
v 2.780499E-05 -0.06718832 -0.8006734
v -0.2765633 -0.02852921 -0.07120287
v 2.724715E-05 -0.02853144 -0.09530235
v -0.3744484 -0.06737816 -0.7754042
v -0.6922991 -0.06852791 -0.7176827
v -0.7291344 -0.02852697 0.001873655
v 0.3920533 -0.1585936 -0.8000749
v 0.3951437 -0.3379717 -0.8291671
v 0.3932 -0.3379717 -0.7992292
v 0.3920533 -0.1585936 -0.8000749
v 0.3951437 -0.1519312 -0.8291672
v 0.3932 -0.3379717 -0.7992292
v 2.729175E-05 -0.3379717 -0.8551005
v 2.847791E-05 -0.3379717 -0.825103
v 0.3951437 -0.3379717 -0.8291671
v 2.724715E-05 -0.02853144 -0.09530235
v 0.2767917 0.00141394 -0.07304116
v 0.2766185 -0.02852921 -0.07120229
v 2.922529E-05 0.001413492 -0.09711733
v 0.7294874 0.001413949 1.567776E-05
v 0.7291905 -0.02852697 0.001869436
v 0.7291905 -0.02852697 0.001869436
v 0.6953174 -0.0438059 -0.7344224
v 0.6923561 -0.06852791 -0.7176849
v 0.7091643 -0.1519312 -0.7744089
v 0.7291905 -0.02852697 0.001869436
v 0.7294874 0.001413949 1.567776E-05
v 0.6923561 -0.06852791 -0.7176849
v 0.7043611 -0.1627429 -0.7468426
v 0.7043611 -0.1627429 -0.7468426
v 0.3951437 -0.1519312 -0.8291672
v 0.3920533 -0.1585936 -0.8000749
v 0.7091643 -0.1519312 -0.7744089
v 2.847791E-05 -0.3379717 -0.825103
v -0.3950893 -0.3379717 -0.8291681
v -0.3931447 -0.3379717 -0.799226
v 2.729175E-05 -0.3379717 -0.8551005
v -0.3931447 -0.3379717 -0.799226
v -0.3950893 -0.1519312 -0.8291681
v -0.3919981 -0.1585936 -0.8000808
v -0.3931447 -0.3379717 -0.799226
v -0.3950893 -0.3379717 -0.8291681
v -0.2765633 -0.02852921 -0.07120287
v 2.922529E-05 0.001413492 -0.09711733
v 2.724715E-05 -0.02853144 -0.09530235
v -0.2767341 0.00141394 -0.07304434
v -0.7291344 -0.02852697 0.001873655
v -0.729432 0.001413949 1.084492E-05
v -0.6922991 -0.06852791 -0.7176827
v -0.729432 0.001413949 1.084492E-05
v -0.7291344 -0.02852697 0.001873655
v -0.6922991 -0.06852791 -0.7176827
v -0.6952637 -0.0438059 -0.7344226
v -0.704304 -0.1627429 -0.7468408
v -0.704304 -0.1627429 -0.7468408
v -0.7091108 -0.1519312 -0.7744123
v -0.3919981 -0.1585936 -0.8000808
v -0.7091108 -0.1519312 -0.7744123
v -0.704304 -0.1627429 -0.7468408
v -0.3950893 -0.1519312 -0.8291681

vn -0.1110835 0.00107783 -0.9938105
vn -0.005195573 0.2222214 -0.9749823
vn -0.1096888 0.1579691 -0.981333
vn -0.04575291 1.266009E-06 -0.9989529
vn 0.008417532 0.3251351 -0.94563
vn -0.1055841 0.3107455 -0.9446105
vn 0.05968712 0.3543771 -0.9331957
vn 0.05715598 0.3603976 -0.9310459
vn -0.210201 0.2222214 -0.9520679
vn -0.175937 1.266009E-06 -0.9844016
vn -0.2169974 0.3251351 -0.9204342
vn -0.2642563 0.3543771 -0.8969868
vn -0.261313 0.3603976 -0.895449
vn 0.0007545459 0.9980447 -0.06248446
vn -0.006902287 0.9980667 -0.06175146
vn 0.0009463052 0.9980735 -0.06201936
vn -0.00694024 0.9980454 -0.062091
vn 0.004030767 0.9980565 -0.06216693
vn 0.003052352 0.9980304 -0.06264137
vn -0.01453198 0.9980447 -0.06077581
vn -0.01461634 0.9980735 -0.06027986
vn -0.01765724 0.9980565 -0.05974276
vn -0.0168077 0.9980304 -0.06042154
vn 0.00491257 -0.1886965 0.9820231
vn 0.1110834 0.001557499 0.9938099
vn 0.1100901 -0.1334369 0.9849239
vn 0.04558951 0.004305619 0.9989511
vn -0.005966917 -0.278924 0.9602947
vn 0.1071328 -0.2643219 0.9584657
vn -0.06010625 -0.3065234 0.9499633
vn -0.05870503 -0.3106358 0.9487143
vn 0.006060272 -0.9985096 0.05421835
vn -0.001210156 -0.9984618 0.05541336
vn -0.002738009 -0.9985086 0.05450674
vn 0.00607859 -0.9985006 0.05438223
vn -0.005721372 -0.9984604 0.05515623
vn -0.002759029 -0.9983909 0.05662056
vn 0.2120316 -0.1886965 0.9588724
vn 0.1110834 0.001557499 0.9938099
vn 0.176096 0.00430562 0.9843637
vn 0.1100901 -0.1334369 0.9849239
vn 0.2178451 -0.278924 0.9352781
vn 0.1071328 -0.2643219 0.9584657
vn 0.2683673 -0.3065234 0.9132482
vn 0.2667249 -0.3106358 0.9123394
vn 0.006060272 -0.9985096 0.05421835
vn 0.0134151 -0.9984618 0.05377863
vn 0.00607859 -0.9985006 0.05438223
vn 0.01470509 -0.9985086 0.05255704
vn 0.01775822 -0.9984604 0.05253181
vn 0.01519228 -0.9983909 0.05461409
vn 0.9999568 0.0006142523 -0.009279683
vn 0.9990895 0.005990052 -0.04224183
vn 0.9988983 0.006676737 -0.04645184
vn 0.9999568 0.0006142523 -0.009279683
vn 0.9999849 -1.365918E-06 -0.005504571
vn 1.209311E-07 -0.999999 1.081913E-06
vn -1.324219E-08 -0.999999 -1.184715E-07
vn -1.324219E-08 -0.999999 -1.184715E-07
vn 1.277051E-07 -0.999999 1.142517E-06
vn 0.110947 0.06051629 0.9919821
vn -0.01206913 0.06150926 0.9980336
vn -0.01215989 0.06158134 0.998028
vn 0.1109465 0.06051654 0.9919822
vn -0.04865374 0.06266367 0.9968481
vn -0.04865704 0.06271644 0.9968446
vn 0.9875839 -0.0158512 -0.1562902
vn 0.9982465 -0.05537597 -0.02091602
vn 0.9986331 -0.05027133 -0.01431148
vn 0.9939983 0.06024654 0.09131248
vn 0.9875839 -0.0158512 -0.1562902
vn 0.987617 -0.01283451 -0.1563587
vn 0.9986331 -0.05027133 -0.01431148
vn 0.9942447 0.06409504 0.08584541
vn 0.02077864 -0.9358709 -0.3517275
vn 0.001373293 -0.972998 -0.2308052
vn -3.160909E-06 -0.9750252 -0.2220899
vn 0.02208314 -0.9327963 -0.3597244
vn -1.324219E-08 -0.999999 -1.184715E-07
vn 1.215656E-07 -0.999999 1.087589E-06
vn 1.284005E-07 -0.999999 1.148738E-06
vn -1.324219E-08 -0.999999 -1.184715E-07
vn -0.983775 0.0006800929 0.1794055
vn -0.9772486 0.00604089 0.212011
vn -0.9761611 0.006853983 0.216939
vn -0.983775 0.0006800929 0.1794055
vn -0.9845246 -1.315136E-06 0.1752468
vn 0.2321904 0.06150928 0.9707236
vn 0.1109465 0.06051654 0.9919822
vn 0.110947 0.06051629 0.9919821
vn 0.2321008 0.06158161 0.9707405
vn 0.267475 0.06266366 0.9615251
vn 0.2674708 0.06271645 0.9615229
vn -0.9749712 -0.0444208 0.2178488
vn -0.9979991 -0.01611599 0.06114173
vn -0.9980605 -0.01312424 0.0608537
vn -0.9749712 -0.0444208 0.2178488
vn -0.9779316 -0.0511405 0.2025695
vn -0.9504004 0.05360862 0.3063741
vn -0.9504004 0.05360862 0.3063741
vn -0.9524365 0.05440913 0.2998404
vn -0.06385907 -0.9730372 -0.2216273
vn -0.08643235 -0.9357929 -0.3417883
vn -0.08791377 -0.9327102 -0.3497442
vn -0.06234735 -0.9749182 -0.2136475

vt 0.3505859 0.02911377
vt 0.2910156 0.05914307
vt 0.3505859 0.05670166
vt 0.2905273 0.03096008
vt 0.2946777 0.07617188
vt 0.3505859 0.07312012
vt 0.2470703 0.08422852
vt 0.2434082 0.0670166
vt 0.4101563 0.05914307
vt 0.4106445 0.03096008
vt 0.4064941 0.07617188
vt 0.4541016 0.08422852
vt 0.4577637 0.0670166
vt 0.3085938 0.1846924
vt 0.3505859 0.07312012
vt 0.2946777 0.07617188
vt 0.3505859 0.1815186
vt 0.2470703 0.08422852
vt 0.2404785 0.1947021
vt 0.392334 0.1846924
vt 0.4064941 0.07617188
vt 0.4541016 0.08422852
vt 0.4604492 0.1947021
vt 0.04937744 0.5463867
vt 0.09820557 0.5732422
vt 0.09991455 0.5498047
vt 0.04748535 0.5693359
vt 0.05276489 0.534668
vt 0.1005249 0.5380859
vt 0.01222229 0.5273438
vt 0.009727478 0.5395508
vt 0.1005249 0.5380859
vt 0.06518555 0.4445801
vt 0.05276489 0.534668
vt 0.1005249 0.4477539
vt 0.01222229 0.5273438
vt 0.007385254 0.4355469
vt 0.04937744 0.5463867
vt 0.09820557 0.5732422
vt 0.04748535 0.5693359
vt 0.09991455 0.5498047
vt 0.05276489 0.534668
vt 0.1005249 0.5380859
vt 0.01222992 0.5273438
vt 0.009719849 0.5395508
vt 0.1005249 0.5380859
vt 0.06518555 0.4445801
vt 0.1005249 0.4477539
vt 0.05276489 0.534668
vt 0.01222992 0.5273438
vt 0.007389069 0.4355469
vt 0.04937744 0.5463867
vt 0.04360962 0.5693359
vt 0.04748535 0.5693359
vt 0.04937744 0.5463867
vt 0.04568481 0.5454102
vt 0.04748535 0.5693359
vt 0.09814453 0.5771484
vt 0.09820557 0.5732422
vt 0.04721069 0.5732422
vt 0.1005249 0.4477539
vt 0.06567383 0.440918
vt 0.06518555 0.4445801
vt 0.1008911 0.4438477
vt 0.007980347 0.4316406
vt 0.007385254 0.4355469
vt 0.007385254 0.4355469
vt 0.009346008 0.5273438
vt 0.01222229 0.5273438
vt 0.006744385 0.5385742
vt 0.007385254 0.4355469
vt 0.003643036 0.435791
vt 0.01222229 0.5273438
vt 0.009727478 0.5395508
vt 0.009727478 0.5395508
vt 0.04898071 0.550293
vt 0.04937744 0.5463867
vt 0.009094238 0.543457
vt 0.09820557 0.5732422
vt 0.04721069 0.5732422
vt 0.04748535 0.5693359
vt 0.09814453 0.5771484
vt 0.04748535 0.5693359
vt 0.04568481 0.5454102
vt 0.04937744 0.5463867
vt 0.04748535 0.5693359
vt 0.04360962 0.5693359
vt 0.06518555 0.4445801
vt 0.1008911 0.4438477
vt 0.1005249 0.4477539
vt 0.06567383 0.440918
vt 0.007389069 0.4355469
vt 0.007980347 0.4316406
vt 0.01222992 0.5273438
vt 0.003629684 0.435791
vt 0.007389069 0.4355469
vt 0.01222992 0.5273438
vt 0.009338379 0.527832
vt 0.009719849 0.5395508
vt 0.009719849 0.5395508
vt 0.006774902 0.5390625
vt 0.04937744 0.5463867
vt 0.009086609 0.543457
vt 0.009719849 0.5395508
vt 0.04901123 0.550293

g trunk_9165_1859
usemtl trunk_9165_1859
usemap trunk_9165_1859
f 1/1/1 3/3/3 2/2/2
f 2/2/2 4/4/4 1/1/1
f 5/5/5 2/2/2 3/3/3
f 3/3/3 6/6/6 5/5/5
f 2/2/2 5/5/5 7/7/7
f 7/7/7 8/8/8 2/2/2
f 9/9/9 3/3/3 1/1/1
f 1/1/1 10/10/10 9/9/9
f 11/11/11 6/6/6 3/3/3
f 3/3/3 9/9/9 11/11/11
f 12/12/12 11/11/11 9/9/9
f 9/9/9 13/13/13 12/12/12
f 14/14/14 16/16/16 15/15/15
f 15/15/15 17/17/17 14/14/14
f 18/18/18 16/16/16 14/14/14
f 14/14/14 19/19/19 18/18/18
f 20/20/20 17/17/17 15/15/15
f 15/15/15 21/21/21 20/20/20
f 20/20/20 21/21/21 22/22/22
f 22/22/22 23/23/23 20/20/20
f 24/24/24 26/26/26 25/25/25
f 25/25/25 27/27/27 24/24/24
f 26/26/26 24/24/24 28/28/28
f 28/28/28 29/29/29 26/26/26
f 30/30/30 28/28/28 24/24/24
f 24/24/24 31/31/31 30/30/30
f 32/32/32 34/34/34 33/33/33
f 33/33/33 35/35/35 32/32/32
f 33/33/33 34/34/34 36/36/36
f 36/36/36 37/37/37 33/33/33
f 38/38/38 40/40/40 39/39/39
f 39/39/39 41/41/41 38/38/38
f 42/42/42 38/38/38 41/41/41
f 41/41/41 43/43/43 42/42/42
f 38/38/38 42/42/42 44/44/44
f 44/44/44 45/45/45 38/38/38
f 46/46/46 48/48/48 47/47/47
f 47/47/47 49/49/49 46/46/46
f 50/50/50 49/49/49 47/47/47
f 47/47/47 51/51/51 50/50/50
f 52/52/52 54/54/54 53/53/53
f 53/53/53 56/56/56 55/55/55
f 57/57/57 59/59/59 58/58/58
f 58/58/58 60/60/60 57/57/57
f 61/61/61 63/63/63 62/62/62
f 62/62/62 64/64/64 61/61/61
f 65/65/65 62/62/62 63/63/63
f 63/63/63 66/66/66 65/65/65
f 67/67/67 69/69/69 68/68/68
f 70/70/70 68/68/68 69/69/69
f 68/68/68 72/72/72 71/71/71
f 73/73/73 74/74/74 70/70/70
f 75/75/75 77/77/77 76/76/76
f 76/76/76 78/78/78 75/75/75
f 79/79/79 81/81/81 80/80/80
f 80/80/80 82/82/82 79/79/79
f 83/83/83 85/85/85 84/84/84
f 84/84/84 87/87/87 86/86/86
f 88/88/88 90/90/90 89/89/89
f 89/89/89 91/91/91 88/88/88
f 92/92/92 88/88/88 91/91/91
f 91/91/91 93/93/93 92/92/92
f 94/94/94 96/96/96 95/95/95
f 95/95/95 98/98/98 97/97/97
f 99/99/99 97/97/97 98/98/98
f 98/98/98 101/101/101 100/100/100
f 102/102/102 104/104/104 103/103/103
f 103/103/103 105/105/105 102/102/102
