#wall11_9695_347.obj

v -0.199968 2.999998 3.000041
v 3.159494E-05 2.999999 4.025506E-05
v 3.258227E-05 2.999998 3.000042
v -0.199969 2.999999 3.941227E-05
v -0.199969 2.999999 3.941227E-05
v 3.159494E-05 -1.879381E-07 4.025506E-05
v 3.159494E-05 2.999999 4.025506E-05
v -0.199969 -1.879381E-07 3.941227E-05
v 3.258227E-05 2.999998 3.000042
v -0.199968 -6.335804E-07 3.000041
v -0.199968 2.999998 3.000041
v 3.258227E-05 -6.335804E-07 3.000042

vn 9.915464E-11 0.9999989 1.454366E-07
vn 9.915464E-11 0.9999989 1.454366E-07
vn 9.915464E-11 0.9999989 1.454366E-07
vn 9.915464E-11 0.9999989 1.454366E-07
vn -0.0006818041 4.371135E-08 -0.9999996
vn -0.0006818041 4.371135E-08 -0.9999996
vn -0.0006818041 4.371135E-08 -0.9999996
vn -0.0006818041 4.371135E-08 -0.9999996
vn 0.0006818041 -4.371135E-08 0.9999996
vn 0.0006818041 -4.371135E-08 0.9999996
vn 0.0006818041 -4.371135E-08 0.9999996
vn 0.0006818041 -4.371135E-08 0.9999996

vt 1 0.9145508
vt 3.576279E-07 0.9814453
vt 1 0.9814453
vt 3.576279E-07 0.9145508
vt 4.768372E-07 1
vt 0.06665039 0
vt 0.06665039 1
vt 2.980232E-07 0
vt 0.9331055 1
vt 1 0
vt 1 1
vt 0.9331055 0

g wall11_9695_347
usemtl wall11_9695_347
usemap wall11_9695_347
f 1/1/1 3/3/3 2/2/2
f 2/2/2 4/4/4 1/1/1
f 5/5/5 7/7/7 6/6/6
f 6/6/6 8/8/8 5/5/5
f 9/9/9 11/11/11 10/10/10
f 10/10/10 12/12/12 9/9/9
