#wall05_9534_1470.obj

v -0.1999969 2.999998 2.999995
v 3.160578E-06 2.999999 -7.221251E-06
v 3.158021E-06 2.999998 2.999993
v -0.199997 2.999999 -8.082856E-06
v -0.199997 2.999999 -8.082856E-06
v 3.160578E-06 -7.595153E-08 -7.221251E-06
v 3.160578E-06 2.999999 -7.221251E-06
v -0.199997 -7.595153E-08 -8.082856E-06
v 3.158021E-06 2.999998 2.999993
v -0.1999969 -5.01699E-07 2.999995
v -0.1999969 2.999998 2.999995
v 3.158021E-06 -5.01699E-07 2.999993

vn -3.679824E-09 0.9999995 1.453901E-07
vn -3.679824E-09 0.9999995 1.453901E-07
vn -3.679824E-09 0.9999995 1.453901E-07
vn -3.679824E-09 0.9999995 1.453901E-07
vn 0.02530189 4.371137E-08 -0.9996797
vn 0.02530189 4.371137E-08 -0.9996797
vn 0.02530189 4.371137E-08 -0.9996797
vn 0.02530189 4.371137E-08 -0.9996797
vn -0.02530189 -4.371137E-08 0.9996797
vn -0.02530189 -4.371137E-08 0.9996797
vn -0.02530189 -4.371137E-08 0.9996797
vn -0.02530189 -4.371137E-08 0.9996797

vt 1 0.9145508
vt 3.576279E-07 0.9814453
vt 1 0.9814453
vt 3.576279E-07 0.9145508
vt 4.768372E-07 1
vt 0.06665039 0
vt 0.06665039 1
vt 2.980232E-07 0
vt 0.9331055 1
vt 1 0
vt 1 1
vt 0.9331055 0

g wall05_9534_1470
usemtl wall05_9534_1470
usemap wall05_9534_1470
f 1/1/1 3/3/3 2/2/2
f 2/2/2 4/4/4 1/1/1
f 5/5/5 7/7/7 6/6/6
f 6/6/6 8/8/8 5/5/5
f 9/9/9 11/11/11 10/10/10
f 10/10/10 12/12/12 9/9/9
