#wall01_window1m_B_9940_996.obj

v -4.772517E-06 2.999999 -7.734748E-06
v -0.2000034 2.999999 2.999994
v -0.2000032 2.999999 -7.941669E-06
v -5.042559E-06 2.999999 2.999993
v -4.772517E-06 -5.478357E-07 -7.60748E-06
v -0.2000032 2.999999 -7.941669E-06
v -0.2000032 -5.478357E-07 -7.8144E-06
v -4.772517E-06 2.999999 -7.734748E-06
v -0.2000034 -1.032795E-06 2.999993
v -5.042559E-06 2.999999 2.999993
v -5.042558E-06 -1.032795E-06 2.999993
v -0.2000034 2.999999 2.999994
v -4.067772E-06 2.093651 1.049651
v -0.2000035 2.093651 1.949651
v -5.128311E-06 2.093651 1.949651
v -0.2000057 2.093651 1.049651
v -4.067772E-06 1.09365 1.049651
v -0.2000057 2.093651 1.049651
v -4.067772E-06 2.093651 1.049651
v -0.2000057 1.09365 1.049651
v -5.128311E-06 1.09365 1.949651
v -0.2000057 1.09365 1.049651
v -4.067772E-06 1.09365 1.049651
v -0.2000035 1.09365 1.949651
v -5.128311E-06 2.093651 1.949651
v -0.2000035 1.09365 1.949651
v -5.128311E-06 1.09365 1.949651
v -0.2000035 2.093651 1.949651

vn -1.258253E-09 0.9999991 1.454312E-07
vn -1.258253E-09 0.9999991 1.454312E-07
vn -1.258253E-09 0.9999991 1.454312E-07
vn -1.258253E-09 0.9999991 1.454312E-07
vn 0.008651583 4.371135E-08 -0.9999626
vn 0.008651583 4.371135E-08 -0.9999626
vn 0.008651583 4.371135E-08 -0.9999626
vn 0.008651583 4.371135E-08 -0.9999626
vn -0.008651583 -4.371135E-08 0.9999626
vn -0.008651583 -4.371135E-08 0.9999626
vn -0.008651583 -4.371135E-08 0.9999626
vn -0.008651583 -4.371135E-08 0.9999626
vn -5.461328E-07 -0.9999991 -5.098784E-07
vn 5.527564E-07 -0.9999991 -2.556843E-07
vn 7.647559E-07 -0.9999991 -2.066447E-07
vn -7.581323E-07 -0.9999991 -5.589178E-07
vn -0.008651583 -4.371135E-08 0.9999626
vn -0.008651583 -4.371135E-08 0.9999626
vn -0.008651583 -4.371135E-08 0.9999626
vn -0.008651583 -4.371135E-08 0.9999626
vn -5.519396E-07 0.9999991 1.612808E-07
vn 5.511832E-07 0.9999991 -7.386125E-08
vn 7.639995E-07 0.9999991 -1.192252E-07
vn -7.647559E-07 0.9999991 2.066447E-07
vn 0.008651583 4.371135E-08 -0.9999626
vn 0.008651583 4.371135E-08 -0.9999626
vn 0.008651583 4.371135E-08 -0.9999626
vn 0.008651583 4.371135E-08 -0.9999626

vt 4.053116E-06 0.9814453
vt 1 0.9145508
vt 4.053116E-06 0.9145508
vt 1 0.9814453
vt 0.06665039 0
vt 0 1
vt -1.192093E-07 0
vt 0.06665039 1
vt 1 5.960464E-08
vt 0.9331055 1
vt 0.9331055 5.960464E-08
vt 1 1
vt 0.5654297 0.9814453
vt 0.265625 0.9145508
vt 0.265625 0.9814453
vt 0.5654297 0.9145508
vt 4.172325E-07 0.5537109
vt 0.06665039 0.2202148
vt 2.980232E-07 0.2202148
vt 0.06665039 0.5537109
vt 0.5654297 0.9814453
vt 0.265625 0.9145508
vt 0.265625 0.9814453
vt 0.5654297 0.9145508
vt 0.06665039 0.3037109
vt 4.172325E-07 0.6367188
vt 0.06665039 0.6367188
vt 2.980232E-07 0.3037109

g wall01_window1m_B_9940_996
usemtl wall01_window1m_B_9940_996
usemap wall01_window1m_B_9940_996
f 1/1/1 3/3/3 2/2/2
f 2/2/2 4/4/4 1/1/1
f 5/5/5 7/7/7 6/6/6
f 6/6/6 8/8/8 5/5/5
f 9/9/9 11/11/11 10/10/10
f 10/10/10 12/12/12 9/9/9
f 13/13/13 15/15/15 14/14/14
f 14/14/14 16/16/16 13/13/13
f 17/17/17 19/19/19 18/18/18
f 18/18/18 20/20/20 17/17/17
f 21/21/21 23/23/23 22/22/22
f 22/22/22 24/24/24 21/21/21
f 25/25/25 27/27/27 26/26/26
f 26/26/26 28/28/28 25/25/25
