#wall01_6m_door_A_11240_1377.obj

v 4.938927E-06 3 -0.5000184
v 4.490825E-06 2.2 4.549979
v 4.5344E-06 2.999999 5.499983
v 4.927408E-06 2.2 0.4499856
v 4.817221E-06 0.05249991 0.4499856
v 4.773646E-06 -1.55183E-08 -0.5000184
v 4.380637E-06 0.05249947 4.549979
v 4.424212E-06 -4.563718E-07 5.499983

vn 0.9997656 -4.371136E-08 0.02165278
vn 0.9997656 -4.371136E-08 0.02165278
vn 0.9997656 -4.371136E-08 0.02165278
vn 0.9997656 -4.371136E-08 0.02165278
vn 0.9997656 -4.371136E-08 0.02165278
vn 0.9997656 -4.371136E-08 0.02165278
vn 0.9997656 -4.371136E-08 0.02165278
vn 0.9997656 -4.371136E-08 0.02165278

vt 0 1
vt 1.683594 0.7333984
vt 2 1
vt 0.3166504 0.7333984
vt 0.3166504 0.01750183
vt 0 0
vt 1.683594 0.01750183
vt 2 -9.536743E-07

g wall01_6m_door_A_11240_1377
usemtl wall01_6m_door_A_11240_1377
usemap wall01_6m_door_A_11240_1377
f 1/1/1 3/3/3 2/2/2
f 2/2/2 4/4/4 1/1/1
f 1/1/1 4/4/4 5/5/5
f 5/5/5 6/6/6 1/1/1
f 6/6/6 5/5/5 7/7/7
f 7/7/7 2/2/2 3/3/3
f 7/7/7 8/8/8 6/6/6
f 3/3/3 8/8/8 7/7/7
