#wall01_window1m_A_3_11338_280.obj

v -9.09247E-07 3 -3.482472E-06
v -0.2000011 2.999999 2.999997
v -0.2000007 3 -3.289418E-06
v -8.926532E-07 2.999999 2.999997
v -9.09247E-07 -1.464917E-13 -3.351338E-06
v -0.2000007 3 -3.289418E-06
v -0.2000007 -1.389293E-13 -3.158283E-06
v -9.09247E-07 3 -3.482472E-06
v -0.2000011 -2.797041E-07 2.999997
v -8.926532E-07 2.999999 2.999997
v -8.926532E-07 -2.797041E-07 2.999997
v -0.2000011 2.999999 2.999997
v -9.379465E-07 2.293652 1.049657
v -0.2000011 2.293651 1.949653
v -8.858285E-07 2.293652 1.949652
v -0.2000007 2.293652 1.049658
v -9.379465E-07 0.8936518 1.049657
v -0.2000007 2.293652 1.049658
v -9.379465E-07 2.293652 1.049657
v -0.2000007 0.8936518 1.049658
v -8.858285E-07 0.8936518 1.949652
v -0.2000007 0.8936518 1.049658
v -9.379465E-07 0.8936518 1.049657
v -0.2000011 0.8936518 1.949653
v -8.858285E-07 2.293652 1.949652
v -0.2000011 0.8936518 1.949653
v -8.858285E-07 0.8936518 1.949652
v -0.2000011 2.293651 1.949653

vn 1.701543E-10 0.9999999 1.454366E-07
vn 1.701543E-10 0.9999999 1.454366E-07
vn 1.701543E-10 0.9999999 1.454366E-07
vn 1.701543E-10 0.9999999 1.454366E-07
vn -0.001169924 4.371138E-08 -0.9999993
vn -0.001169924 4.371138E-08 -0.9999993
vn -0.001169924 4.371138E-08 -0.9999993
vn -0.001169924 4.371138E-08 -0.9999993
vn 0.001169924 -4.371138E-08 0.9999993
vn 0.001169924 -4.371138E-08 0.9999993
vn 0.001169924 -4.371138E-08 0.9999993
vn 0.001169924 -4.371138E-08 0.9999993
vn -5.513108E-07 -0.9999999 -6.740348E-07
vn 5.500185E-07 -0.9999999 -4.306454E-07
vn 7.624911E-07 -0.9999999 -3.836898E-07
vn -7.637836E-07 -0.9999999 -7.209904E-07
vn 0.001169924 -4.371138E-08 0.9999993
vn 0.001169924 -4.371138E-08 0.9999993
vn 0.001169924 -4.371138E-08 0.9999993
vn 0.001169924 -4.371138E-08 0.9999993
vn -5.504704E-07 0.9999999 4.435543E-08
vn 5.502312E-07 0.9999999 -2.488144E-07
vn 7.625935E-07 0.9999999 -2.96267E-07
vn -7.628879E-07 0.9999999 4.460394E-08
vn -0.001169924 4.371138E-08 -0.9999993
vn -0.001169924 4.371138E-08 -0.9999993
vn -0.001169924 4.371138E-08 -0.9999993
vn -0.001169924 4.371138E-08 -0.9999993

vt 1.907349E-06 0.9814453
vt 1 0.9145508
vt 1.907349E-06 0.9145508
vt 1 0.9814453
vt 0.06665039 0
vt 0 1
vt 0 0
vt 0.06665039 1
vt 1 5.960464E-08
vt 0.9331055 1
vt 0.9331055 5.960464E-08
vt 1 1
vt 0.5161133 0.9814453
vt 0.8164063 0.9145508
vt 0.8164063 0.9814453
vt 0.5161133 0.9145508
vt -2.980232E-07 0.6196289
vt 0.06665039 0.1529541
vt -2.980232E-07 0.1529541
vt 0.06665039 0.6196289
vt 0.8164063 0.9814453
vt 0.5161133 0.9145508
vt 0.5161133 0.9814453
vt 0.8164063 0.9145508
vt 0.06665039 0.1529541
vt -3.576279E-07 0.6196289
vt 0.06665039 0.6196289
vt -4.172325E-07 0.1529541

g wall01_window1m_A_3_11338_280
usemtl wall01_window1m_A_3_11338_280
usemap wall01_window1m_A_3_11338_280
f 1/1/1 3/3/3 2/2/2
f 2/2/2 4/4/4 1/1/1
f 5/5/5 7/7/7 6/6/6
f 6/6/6 8/8/8 5/5/5
f 9/9/9 11/11/11 10/10/10
f 10/10/10 12/12/12 9/9/9
f 13/13/13 15/15/15 14/14/14
f 14/14/14 16/16/16 13/13/13
f 17/17/17 19/19/19 18/18/18
f 18/18/18 20/20/20 17/17/17
f 21/21/21 23/23/23 22/22/22
f 22/22/22 24/24/24 21/21/21
f 25/25/25 27/27/27 26/26/26
f 26/26/26 28/28/28 25/25/25
