#wall01_window1m_A_5_8995_1358.obj

v 1.053232E-06 3 -6.411463E-06
v -0.1999992 3 2.999994
v -0.1999983 3 -6.831331E-06
v 1.65803E-06 3 2.999995
v 1.053232E-06 3.412097E-08 -6.411463E-06
v -0.1999983 3 -6.831331E-06
v -0.1999983 3.412097E-08 -6.831331E-06
v 1.053232E-06 3 -6.411463E-06
v -0.1999992 -3.632433E-07 2.999994
v 1.65803E-06 3 2.999995
v 1.65803E-06 -3.632433E-07 2.999995
v -0.1999992 3 2.999994
v 8.518744E-07 2.293652 1.049656
v -0.1999986 2.293652 1.94965
v 7.595534E-07 2.293652 1.94965
v -0.1999985 2.293652 1.049655
v 8.518744E-07 0.8936517 1.049656
v -0.1999985 2.293652 1.049655
v 8.518744E-07 2.293652 1.049656
v -0.1999985 0.8936517 1.049655
v 7.595534E-07 0.8936517 1.94965
v -0.1999985 0.8936517 1.049655
v 8.518744E-07 0.8936517 1.049656
v -0.1999986 0.8936517 1.94965
v 7.595534E-07 2.293652 1.94965
v -0.1999986 0.8936517 1.94965
v 7.595534E-07 0.8936517 1.94965
v -0.1999986 2.293652 1.94965

vn -1.454323E-07 0.9999995 1.121437E-09
vn -1.454323E-07 0.9999995 1.121437E-09
vn -1.454323E-07 0.9999995 1.121437E-09
vn -1.454323E-07 0.9999995 1.121437E-09
vn 0.9999703 4.371135E-08 -0.007710751
vn 0.9999703 4.371135E-08 -0.007710751
vn 0.9999703 4.371135E-08 -0.007710751
vn 0.9999703 4.371135E-08 -0.007710751
vn -0.9999703 -4.371135E-08 0.007710751
vn -0.9999703 -4.371135E-08 0.007710751
vn -0.9999703 -4.371135E-08 0.007710751
vn -0.9999703 -4.371135E-08 0.007710751
vn 6.704143E-07 -0.9999995 -5.557079E-07
vn 4.342339E-07 -0.9999995 5.471899E-07
vn 3.886691E-07 -0.9999995 7.599651E-07
vn 7.159791E-07 -0.9999995 -7.684831E-07
vn -0.9999703 -4.371135E-08 0.007710751
vn -0.9999703 -4.371135E-08 0.007710751
vn -0.9999703 -4.371135E-08 0.007710751
vn -0.9999703 -4.371135E-08 0.007710751
vn -4.795511E-08 0.9999995 -5.501685E-07
vn 2.524082E-07 0.9999995 5.48592E-07
vn 3.012489E-07 0.9999995 7.606393E-07
vn -4.959305E-08 0.9999995 -7.625798E-07
vn 0.9999703 4.371135E-08 -0.007710751
vn 0.9999703 4.371135E-08 -0.007710751
vn 0.9999703 4.371135E-08 -0.007710751
vn 0.9999703 4.371135E-08 -0.007710751

vt 1.907349E-06 0.9814453
vt 1 0.9145508
vt 1.907349E-06 0.9145508
vt 1 0.9814453
vt 0.06665039 0
vt 0 1
vt 0 0
vt 0.06665039 1
vt 1 5.960464E-08
vt 0.9331055 1
vt 0.9331055 5.960464E-08
vt 1 1
vt 0.5161133 0.9814453
vt 0.8164063 0.9145508
vt 0.8164063 0.9814453
vt 0.5161133 0.9145508
vt -2.980232E-07 0.6196289
vt 0.06665039 0.1529541
vt -2.980232E-07 0.1529541
vt 0.06665039 0.6196289
vt 0.8164063 0.9814453
vt 0.5161133 0.9145508
vt 0.5161133 0.9814453
vt 0.8164063 0.9145508
vt 0.06665039 0.1529541
vt -3.576279E-07 0.6196289
vt 0.06665039 0.6196289
vt -4.172325E-07 0.1529541

g wall01_window1m_A_5_8995_1358
usemtl wall01_window1m_A_5_8995_1358
usemap wall01_window1m_A_5_8995_1358
f 1/1/1 3/3/3 2/2/2
f 2/2/2 4/4/4 1/1/1
f 5/5/5 7/7/7 6/6/6
f 6/6/6 8/8/8 5/5/5
f 9/9/9 11/11/11 10/10/10
f 10/10/10 12/12/12 9/9/9
f 13/13/13 15/15/15 14/14/14
f 14/14/14 16/16/16 13/13/13
f 17/17/17 19/19/19 18/18/18
f 18/18/18 20/20/20 17/17/17
f 21/21/21 23/23/23 22/22/22
f 22/22/22 24/24/24 21/21/21
f 25/25/25 27/27/27 26/26/26
f 26/26/26 28/28/28 25/25/25
