#wall01_window1m_A_5_10170_1206.obj

v 5.388355E-06 3 -2.753011E-06
v -0.1999951 3 2.999996
v -0.1999939 3 -4.265214E-06
v 5.841971E-06 3 2.999996
v 5.400608E-06 3.412097E-08 -4.342421E-06
v -0.1999939 3 -4.265214E-06
v -0.1999939 3.412097E-08 -4.265214E-06
v 5.388355E-06 3 -2.753011E-06
v -0.1999951 -3.632433E-07 2.999996
v 5.841971E-06 3 2.999996
v 5.841971E-06 -3.632433E-07 2.999996
v -0.1999951 3 2.999996
v 5.777114E-06 2.293652 1.049658
v -0.199995 2.293652 1.949652
v 5.953632E-06 2.293652 1.949652
v -0.1999951 2.293652 1.049656
v 5.789366E-06 0.8936517 1.049656
v -0.1999951 2.293652 1.049656
v 5.777114E-06 2.293652 1.049658
v -0.1999951 0.8936517 1.049656
v 5.953632E-06 0.8936517 1.949652
v -0.1999951 0.8936517 1.049656
v 5.789366E-06 0.8936517 1.049656
v -0.199995 0.8936517 1.949652
v 5.953632E-06 2.293652 1.949652
v -0.199995 0.8936517 1.949652
v 5.953632E-06 0.8936517 1.949652
v -0.199995 2.293652 1.949652

vn 1.121146E-09 0.9999996 1.454323E-07
vn 1.121146E-09 0.9999996 1.454323E-07
vn 1.121146E-09 0.9999996 1.454323E-07
vn 1.121146E-09 0.9999996 1.454323E-07
vn -0.007708715 4.371135E-08 -0.9999703
vn -0.007708715 4.371135E-08 -0.9999703
vn -0.007708715 4.371135E-08 -0.9999703
vn -0.007708715 4.371135E-08 -0.9999703
vn 0.007708715 -4.371135E-08 0.9999703
vn 0.007708715 -4.371135E-08 0.9999703
vn 0.007708715 -4.371135E-08 0.9999703
vn 0.007708715 -4.371135E-08 0.9999703
vn -5.557064E-07 -0.9999996 -6.704156E-07
vn 5.471907E-07 -0.9999996 -4.342325E-07
vn 7.599659E-07 -0.9999996 -3.886672E-07
vn -7.684816E-07 -0.9999996 -7.159809E-07
vn 0.007708715 -4.371135E-08 0.9999703
vn 0.007708715 -4.371135E-08 0.9999703
vn 0.007708715 -4.371135E-08 0.9999703
vn 0.007708715 -4.371135E-08 0.9999703
vn -5.501685E-07 0.9999996 4.795375E-08
vn 5.485924E-07 0.9999996 -2.524068E-07
vn 7.606398E-07 0.9999996 -3.01247E-07
vn -7.625798E-07 0.9999996 4.959117E-08
vn -0.007708715 4.371135E-08 -0.9999703
vn -0.007708715 4.371135E-08 -0.9999703
vn -0.007708715 4.371135E-08 -0.9999703
vn -0.007708715 4.371135E-08 -0.9999703

vt 1.907349E-06 0.9814453
vt 1 0.9145508
vt 1.907349E-06 0.9145508
vt 1 0.9814453
vt 0.06665039 0
vt 0 1
vt 0 0
vt 0.06665039 1
vt 1 5.960464E-08
vt 0.9331055 1
vt 0.9331055 5.960464E-08
vt 1 1
vt 0.5161133 0.9814453
vt 0.8164063 0.9145508
vt 0.8164063 0.9814453
vt 0.5161133 0.9145508
vt -2.980232E-07 0.6196289
vt 0.06665039 0.1529541
vt -2.980232E-07 0.1529541
vt 0.06665039 0.6196289
vt 0.8164063 0.9814453
vt 0.5161133 0.9145508
vt 0.5161133 0.9814453
vt 0.8164063 0.9145508
vt 0.06665039 0.1529541
vt -3.576279E-07 0.6196289
vt 0.06665039 0.6196289
vt -4.172325E-07 0.1529541

g wall01_window1m_A_5_10170_1206
usemtl wall01_window1m_A_5_10170_1206
usemap wall01_window1m_A_5_10170_1206
f 1/1/1 3/3/3 2/2/2
f 2/2/2 4/4/4 1/1/1
f 5/5/5 7/7/7 6/6/6
f 6/6/6 8/8/8 5/5/5
f 9/9/9 11/11/11 10/10/10
f 10/10/10 12/12/12 9/9/9
f 13/13/13 15/15/15 14/14/14
f 14/14/14 16/16/16 13/13/13
f 17/17/17 19/19/19 18/18/18
f 18/18/18 20/20/20 17/17/17
f 21/21/21 23/23/23 22/22/22
f 22/22/22 24/24/24 21/21/21
f 25/25/25 27/27/27 26/26/26
f 26/26/26 28/28/28 25/25/25
