#wall01_window1m_A_4_19233_434.obj

v -9.246495E-07 0.8936518 1.049658
v -9.246495E-07 3 -2.100679E-06
v -9.246495E-07 -4.713682E-09 -1.969545E-06
v -9.246495E-07 2.293652 1.049658
v -9.246495E-07 2.293652 1.949653
v -9.246495E-07 2.999999 2.999997
v -9.246495E-07 -2.882206E-07 2.999997
v -9.246495E-07 0.8936518 1.949653

vn 1 1.157561E-15 -9.553424E-16
vn 1 1.157561E-15 -9.553424E-16
vn 1 1.157561E-15 -9.553424E-16
vn 1 1.157561E-15 -9.553424E-16
vn 1 1.157561E-15 -9.553424E-16
vn 1 1.157561E-15 -9.553424E-16
vn 1 1.157561E-15 -9.553424E-16
vn 1 1.157561E-15 -9.553424E-16

vt 0.6499023 0.2978516
vt 1 1
vt 1 0
vt 0.6499023 0.7646484
vt 0.3500977 0.7646484
vt -5.960464E-08 1
vt -5.960464E-08 5.960464E-08
vt 0.3500977 0.2978516

g wall01_window1m_A_4_19233_434
usemtl wall01_window1m_A_4_19233_434
usemap wall01_window1m_A_4_19233_434
f 1/1/1 3/3/3 2/2/2
f 2/2/2 4/4/4 1/1/1
f 5/5/5 4/4/4 2/2/2
f 2/2/2 6/6/6 5/5/5
f 5/5/5 6/6/6 7/7/7
f 7/7/7 3/3/3 1/1/1
f 7/7/7 8/8/8 5/5/5
f 1/1/1 8/8/8 7/7/7
