#wall01_window1m_B_1_11334_1396.obj

v -0.1999941 1.093651 1.94966
v -0.1999938 3 3.000002
v -0.1999938 -6.464983E-07 3.000002
v -0.1999941 2.093651 1.94966
v -0.199994 2.093651 1.04966
v -0.1999929 3 1.100362E-06
v -0.199993 -4.277657E-07 1.209714E-06
v -0.199994 1.093651 1.04966

vn -0.9998744 -7.934469E-15 0.01584958
vn -0.9998744 -7.934469E-15 0.01584958
vn -0.9998744 -7.934469E-15 0.01584958
vn -0.9998744 -7.934469E-15 0.01584958
vn -0.9998744 -7.934469E-15 0.01584958
vn -0.9998744 -7.934469E-15 0.01584958
vn -0.9998744 -7.934469E-15 0.01584958
vn -0.9998744 -7.934469E-15 0.01584958

vt 0.6499023 0.364502
vt 1 1
vt 1 -5.960464E-07
vt 0.6499023 0.6977539
vt 0.3498535 0.6977539
vt 5.364418E-07 1
vt 4.768372E-07 -4.768372E-07
vt 0.3498535 0.364502

g wall01_window1m_B_1_11334_1396
usemtl wall01_window1m_B_1_11334_1396
usemap wall01_window1m_B_1_11334_1396
f 1/1/1 3/3/3 2/2/2
f 2/2/2 4/4/4 1/1/1
f 5/5/5 4/4/4 2/2/2
f 2/2/2 6/6/6 5/5/5
f 5/5/5 6/6/6 7/7/7
f 7/7/7 3/3/3 1/1/1
f 7/7/7 8/8/8 5/5/5
f 1/1/1 8/8/8 7/7/7
