#wall01_6m_door_A_9147_1235.obj

v -0.1999926 2.999999 5.499997
v -0.1999934 2.2 0.4499963
v -0.1999917 3 -0.5000032
v -0.1999908 2.199999 4.549994
v -0.1999917 -1.539903E-08 -0.5000032
v -0.1999934 0.05249997 0.4499963
v -0.1999926 -6.715969E-07 5.499997
v -0.1999908 0.05249932 4.549994

vn -1 1.776357E-14 -9.405501E-06
vn -1 1.776357E-14 -9.405501E-06
vn -1 1.776357E-14 -9.405501E-06
vn -1 1.776357E-14 -9.405501E-06
vn -1 1.776357E-14 -9.405501E-06
vn -1 1.776357E-14 -9.405501E-06
vn -1 1.776357E-14 -9.405501E-06
vn -1 1.776357E-14 -9.405501E-06

vt 2 1
vt 0.3166504 0.7333984
vt 0 1
vt 1.683594 0.7333984
vt 0 0
vt 0.3166504 0.01750183
vt 2 -2.384186E-07
vt 1.683594 0.01750183

g wall01_6m_door_A_9147_1235
usemtl wall01_6m_door_A_9147_1235
usemap wall01_6m_door_A_9147_1235
f 1/1/1 3/3/3 2/2/2
f 2/2/2 4/4/4 1/1/1
f 2/2/2 3/3/3 5/5/5
f 5/5/5 6/6/6 2/2/2
f 6/6/6 5/5/5 7/7/7
f 7/7/7 1/1/1 4/4/4
f 7/7/7 8/8/8 6/6/6
f 4/4/4 8/8/8 7/7/7
