#wall01_window1m_A_7_10829_1498.obj

v -0.1999936 0.8936519 1.94966
v -0.1999915 2.999999 3.000004
v -0.1999915 -4.226414E-07 3.000005
v -0.1999936 2.293651 1.94966
v -0.1999919 2.293652 1.049665
v -0.1999932 3 4.26078E-06
v -0.1999932 -1.129221E-07 3.951164E-06
v -0.1999919 0.8936518 1.049665

vn -0.02165272 0 0.9997656
vn -0.02165272 0 0.9997656
vn -0.02165272 0 0.9997656
vn -0.02165272 0 0.9997656
vn -0.02165272 0 0.9997656
vn -0.02165272 0 0.9997656
vn -0.02165272 0 0.9997656
vn -0.02165272 0 0.9997656

vt 0.6499023 0.2978516
vt 1 1
vt 1 5.960464E-08
vt 0.6499023 0.7646484
vt 0.3498535 0.7646484
vt 0 1
vt 0 0
vt 0.3498535 0.2978516

g wall01_window1m_A_7_10829_1498
usemtl wall01_window1m_A_7_10829_1498
usemap wall01_window1m_A_7_10829_1498
f 1/1/1 3/3/3 2/2/2
f 2/2/2 4/4/4 1/1/1
f 5/5/5 4/4/4 2/2/2
f 2/2/2 6/6/6 5/5/5
f 5/5/5 6/6/6 7/7/7
f 7/7/7 3/3/3 1/1/1
f 7/7/7 8/8/8 5/5/5
f 1/1/1 8/8/8 7/7/7
