#wall19_10350_1125.obj

v -0.1999962 2.999998 2.999993
v 4.149604E-06 2.999999 -5.59608E-06
v 3.743325E-06 2.999998 2.999996
v -0.1999959 2.999999 -5.381292E-06
v -0.1999959 2.999999 -5.381292E-06
v 4.149604E-06 -1.396837E-07 -5.59608E-06
v 4.149604E-06 2.999999 -5.59608E-06
v -0.1999959 -1.396837E-07 -5.381292E-06
v 3.743325E-06 2.999998 2.999996
v -0.1999962 -5.478354E-07 2.999993
v -0.1999962 2.999998 2.999993
v 3.715068E-06 -5.478354E-07 2.999993

vn 1.454312E-07 0.9999992 1.258644E-09
vn 1.454312E-07 0.9999992 1.258644E-09
vn 1.454312E-07 0.9999992 1.258644E-09
vn 1.454312E-07 0.9999992 1.258644E-09
vn -0.9999626 4.371135E-08 -0.008654237
vn -0.9999626 4.371135E-08 -0.008654237
vn -0.9999626 4.371135E-08 -0.008654237
vn -0.9999626 4.371135E-08 -0.008654237
vn 0.9999626 -4.371135E-08 0.008654237
vn 0.9999626 -4.371135E-08 0.008654237
vn 0.9999626 -4.371135E-08 0.008654237
vn 0.9999626 -4.371135E-08 0.008654237

vt 1 0.9145508
vt 3.576279E-07 0.9814453
vt 1 0.9814453
vt 3.576279E-07 0.9145508
vt 4.768372E-07 1
vt 0.06665039 0
vt 0.06665039 1
vt 2.980232E-07 0
vt 0.9331055 1
vt 1 0
vt 1 1
vt 0.9331055 0

g wall19_10350_1125
usemtl wall19_10350_1125
usemap wall19_10350_1125
f 1/1/1 3/3/3 2/2/2
f 2/2/2 4/4/4 1/1/1
f 5/5/5 7/7/7 6/6/6
f 6/6/6 8/8/8 5/5/5
f 9/9/9 11/11/11 10/10/10
f 10/10/10 12/12/12 9/9/9
