#wall01_window1m_A_6_9682_1569.obj

v 3.477617E-06 3 5.23694E-07
v -0.1999951 2.999999 3.000001
v -0.1999968 3 5.740735E-07
v 1.712193E-06 2.999999 3.000001
v 3.475231E-06 -1.129223E-07 5.446407E-07
v -0.1999968 3 5.740735E-07
v -0.1999968 -1.129223E-07 4.848326E-07
v 3.477617E-06 3 5.23694E-07
v -0.1999951 -4.226416E-07 3.000001
v 1.712193E-06 2.999999 3.000001
v 1.70742E-06 -4.226416E-07 3.000001
v -0.1999951 2.999999 3.000001
v 4.858026E-06 2.293652 1.049661
v -0.1999971 2.293651 1.949657
v 3.163448E-06 2.293652 1.949656
v -0.1999954 2.293652 1.049661
v 4.85564E-06 0.8936518 1.049661
v -0.1999954 2.293652 1.049661
v 4.858026E-06 2.293652 1.049661
v -0.1999954 0.8936518 1.049661
v 3.163448E-06 0.8936519 1.949657
v -0.1999954 0.8936518 1.049661
v 4.85564E-06 0.8936518 1.049661
v -0.1999971 0.8936519 1.949657
v 3.163448E-06 2.293652 1.949656
v -0.1999971 0.8936519 1.949657
v 3.163448E-06 0.8936519 1.949657
v -0.1999971 2.293651 1.949657

vn 1.454026E-07 0.9999993 3.14914E-09
vn 1.454026E-07 0.9999993 3.14914E-09
vn 1.454026E-07 0.9999993 3.14914E-09
vn 1.454026E-07 0.9999993 3.14914E-09
vn -0.9997655 4.371136E-08 -0.021653
vn -0.9997655 4.371136E-08 -0.021653
vn -0.9997655 4.371136E-08 -0.021653
vn -0.9997655 4.371136E-08 -0.021653
vn 0.9997655 -4.371136E-08 0.021653
vn 0.9997655 -4.371136E-08 0.021653
vn 0.9997655 -4.371136E-08 0.021653
vn 0.9997655 -4.371136E-08 0.021653
vn -6.864415E-07 -0.9999993 5.35784E-07
vn -4.179805E-07 -0.9999993 -5.597037E-07
vn -3.66188E-07 -0.9999993 -7.710494E-07
vn -7.38234E-07 -0.9999993 7.471297E-07
vn 0.9997655 -4.371136E-08 0.021653
vn 0.9997655 -4.371136E-08 0.021653
vn 0.9997655 -4.371136E-08 0.021653
vn 0.9997655 -4.371136E-08 0.021653
vn 3.178084E-08 0.9999993 5.513393E-07
vn -2.36192E-07 0.9999993 -5.557665E-07
vn -2.787857E-07 0.9999993 -7.691564E-07
vn 2.718142E-08 0.9999993 7.637071E-07
vn -0.9997655 4.371136E-08 -0.021653
vn -0.9997655 4.371136E-08 -0.021653
vn -0.9997655 4.371136E-08 -0.021653
vn -0.9997655 4.371136E-08 -0.021653

vt 1.907349E-06 0.9814453
vt 1 0.9145508
vt 1.907349E-06 0.9145508
vt 1 0.9814453
vt 0.06665039 0
vt 0 1
vt 0 0
vt 0.06665039 1
vt 1 5.960464E-08
vt 0.9331055 1
vt 0.9331055 5.960464E-08
vt 1 1
vt 0.5161133 0.9814453
vt 0.8164063 0.9145508
vt 0.8164063 0.9814453
vt 0.5161133 0.9145508
vt -2.980232E-07 0.6196289
vt 0.06665039 0.1529541
vt -2.980232E-07 0.1529541
vt 0.06665039 0.6196289
vt 0.8164063 0.9814453
vt 0.5161133 0.9145508
vt 0.5161133 0.9814453
vt 0.8164063 0.9145508
vt 0.06665039 0.1529541
vt -3.576279E-07 0.6196289
vt 0.06665039 0.6196289
vt -4.172325E-07 0.1529541

g wall01_window1m_A_6_9682_1569
usemtl wall01_window1m_A_6_9682_1569
usemap wall01_window1m_A_6_9682_1569
f 1/1/1 3/3/3 2/2/2
f 2/2/2 4/4/4 1/1/1
f 5/5/5 7/7/7 6/6/6
f 6/6/6 8/8/8 5/5/5
f 9/9/9 11/11/11 10/10/10
f 10/10/10 12/12/12 9/9/9
f 13/13/13 15/15/15 14/14/14
f 14/14/14 16/16/16 13/13/13
f 17/17/17 19/19/19 18/18/18
f 18/18/18 20/20/20 17/17/17
f 21/21/21 23/23/23 22/22/22
f 22/22/22 24/24/24 21/21/21
f 25/25/25 27/27/27 26/26/26
f 26/26/26 28/28/28 25/25/25
