#wall01_1m_10_9931_1417.obj

v -0.1999975 -9.946293E-07 0.9999908
v -0.1999973 2.999999 -1.074421E-05
v -0.1999973 2.999999 0.9999907
v -0.1999974 -9.946293E-07 -1.074183E-05

vn -0.9997656 4.371136E-08 -0.02165278
vn -0.9997656 4.371136E-08 -0.02165278
vn -0.9997656 4.371136E-08 -0.02165278
vn -0.9997656 4.371136E-08 -0.02165278

vt 0.333252 1.192093E-07
vt -5.960464E-08 1
vt 0.333252 1
vt 5.960464E-08 1.192093E-07

g wall01_1m_10_9931_1417
usemtl wall01_1m_10_9931_1417
usemap wall01_1m_10_9931_1417
f 1/1/1 3/3/3 2/2/2
f 2/2/2 4/4/4 1/1/1
