#wall01_interior_10710_262.obj

v -0.1999998 2.999998 2.799991
v -0.1999997 -1.498657E-08 -1.036034E-05
v -0.1999997 2.999999 -1.036034E-05
v -0.1999998 -4.40734E-07 2.799991

vn -0.025302 4.371137E-08 0.9996798
vn -0.025302 4.371137E-08 0.9996798
vn -0.025302 4.371137E-08 0.9996798
vn -0.025302 4.371137E-08 0.9996798

vt 1 1
vt 0.06665039 0
vt 0.06665039 1
vt 1 0

g wall01_interior_10710_262
usemtl wall01_interior_10710_262
usemap wall01_interior_10710_262
f 1/1/1 3/3/3 2/2/2
f 2/2/2 4/4/4 1/1/1
