#wall01_8968_1023.obj

v -0.1999895 2.999998 3.000007
v 8.686248E-06 2.999999 6.118848E-06
v 7.332229E-06 2.999998 3.000007
v -0.1999916 2.999999 5.755109E-06
v -0.1999916 2.999999 5.755109E-06
v 8.686248E-06 -1.55183E-08 6.118848E-06
v 8.686248E-06 2.999999 6.118848E-06
v -0.1999916 -1.55183E-08 5.755109E-06
v 7.332229E-06 2.999998 3.000007
v -0.1999895 -2.359451E-07 3.000007
v -0.1999895 2.999998 3.000007
v 7.332229E-06 -2.359451E-07 3.000007

vn 1.017014E-07 0.9999993 2.202655E-09
vn 1.017014E-07 0.9999993 2.202655E-09
vn 1.017014E-07 0.9999993 2.202655E-09
vn 1.017014E-07 0.9999993 2.202655E-09
vn -0.9997656 0 -0.02165297
vn -0.9997656 0 -0.02165297
vn -0.9997656 0 -0.02165297
vn -0.9997656 0 -0.02165297
vn 0.9997656 0 0.02165297
vn 0.9997656 0 0.02165297
vn 0.9997656 0 0.02165297
vn 0.9997656 0 0.02165297

vt 1 0.9145508
vt 3.576279E-07 0.9814453
vt 1 0.9814453
vt 3.576279E-07 0.9145508
vt 4.768372E-07 1
vt 0.06665039 0
vt 0.06665039 1
vt 2.980232E-07 0
vt 0.9331055 1
vt 1 0
vt 1 1
vt 0.9331055 0

g wall01_8968_1023
usemtl wall01_8968_1023
usemap wall01_8968_1023
f 1/1/1 3/3/3 2/2/2
f 2/2/2 4/4/4 1/1/1
f 5/5/5 7/7/7 6/6/6
f 6/6/6 8/8/8 5/5/5
f 9/9/9 11/11/11 10/10/10
f 10/10/10 12/12/12 9/9/9
