#wall01_door1m_4_9223_914.obj

v -0.1999985 2.999998 3.000009
v -0.1999967 2.1 0.9500085
v -0.1999956 2.999999 8.947371E-06
v -0.1999974 2.1 2.050009
v -0.1999974 0.05250006 2.050009
v -0.1999985 -3.217297E-07 3.000009
v -0.1999967 0.05250001 0.9500086
v -0.1999956 -2.341313E-07 9.078505E-06

vn -2.324034E-06 5.68446E-15 1
vn -2.324034E-06 5.68446E-15 1
vn -2.324034E-06 5.68446E-15 1
vn -2.324034E-06 5.68446E-15 1
vn -2.324034E-06 5.68446E-15 1
vn -2.324034E-06 5.68446E-15 1
vn -2.324034E-06 5.68446E-15 1
vn -2.324034E-06 5.68446E-15 1

vt 1 1
vt 0.3166504 0.7001953
vt -5.960464E-08 1
vt 0.6831055 0.7001953
vt 0.6831055 0.01750183
vt 1 -1.788139E-07
vt 0.3166504 0.01750183
vt -2.384186E-07 1.192093E-07

g wall01_door1m_4_9223_914
usemtl wall01_door1m_4_9223_914
usemap wall01_door1m_4_9223_914
f 1/1/1 3/3/3 2/2/2
f 2/2/2 4/4/4 1/1/1
f 1/1/1 4/4/4 5/5/5
f 5/5/5 6/6/6 1/1/1
f 6/6/6 5/5/5 7/7/7
f 7/7/7 2/2/2 3/3/3
f 7/7/7 8/8/8 6/6/6
f 3/3/3 8/8/8 7/7/7
