#wall03_10997_440.obj

v -0.2000011 2.999998 3
v -9.828958E-07 2.999999 -5.032934E-07
v -9.130922E-07 2.999998 3
v -0.2000008 2.999999 -3.340803E-07
v -0.2000008 2.999999 -3.340803E-07
v -9.828958E-07 -1.027095E-07 -3.721593E-07
v -9.828958E-07 2.999999 -5.032934E-07
v -0.2000008 -1.027095E-07 -2.029462E-07
v -9.130922E-07 2.999998 3
v -0.2000011 -3.824135E-07 3
v -0.2000011 2.999998 3
v -9.130922E-07 -3.824135E-07 3

vn 1.701672E-10 0.9999999 1.454366E-07
vn 1.701672E-10 0.9999999 1.454366E-07
vn 1.701672E-10 0.9999999 1.454366E-07
vn 1.701672E-10 0.9999999 1.454366E-07
vn -0.001170043 4.371138E-08 -0.9999993
vn -0.001170043 4.371138E-08 -0.9999993
vn -0.001170043 4.371138E-08 -0.9999993
vn -0.001170043 4.371138E-08 -0.9999993
vn 0.001170043 -4.371138E-08 0.9999993
vn 0.001170043 -4.371138E-08 0.9999993
vn 0.001170043 -4.371138E-08 0.9999993
vn 0.001170043 -4.371138E-08 0.9999993

vt 1 0.9145508
vt 3.576279E-07 0.9814453
vt 1 0.9814453
vt 3.576279E-07 0.9145508
vt 4.768372E-07 1
vt 0.06665039 0
vt 0.06665039 1
vt 2.980232E-07 0
vt 0.9331055 1
vt 1 0
vt 1 1
vt 0.9331055 0

g wall03_10997_440
usemtl wall03_10997_440
usemap wall03_10997_440
f 1/1/1 3/3/3 2/2/2
f 2/2/2 4/4/4 1/1/1
f 5/5/5 7/7/7 6/6/6
f 6/6/6 8/8/8 5/5/5
f 9/9/9 11/11/11 10/10/10
f 10/10/10 12/12/12 9/9/9
