#wall01_1m_1_10659_1162.obj

v -0.1999952 -9.426297E-07 0.9999925
v -0.199995 3 -8.983166E-06
v -0.199995 3 0.9999925
v -0.1999951 -7.22203E-07 -8.98078E-06

vn -0.9997656 4.371136E-08 -0.02165278
vn -0.9997656 4.371136E-08 -0.02165278
vn -0.9997656 4.371136E-08 -0.02165278
vn -0.9997656 4.371136E-08 -0.02165278

vt 0.333252 1.192093E-07
vt -5.960464E-08 1
vt 0.333252 1
vt 5.960464E-08 1.192093E-07

g wall01_1m_1_10659_1162
usemtl wall01_1m_1_10659_1162
usemap wall01_1m_1_10659_1162
f 1/1/1 3/3/3 2/2/2
f 2/2/2 4/4/4 1/1/1
