#wall01_window1m_B_2_9860_1085.obj

v 4.839285E-06 1.093651 1.049645
v 4.286252E-06 2.999999 -1.225767E-05
v 4.286252E-06 -5.394342E-07 -1.225767E-05
v 4.839285E-06 2.093651 1.049645
v 5.074383E-06 2.093651 1.949648
v 5.151593E-06 2.999999 2.999985
v 5.151593E-06 -9.367984E-07 2.999985
v 5.074383E-06 1.093651 1.949648

vn 0.9999703 -2.131627E-14 -0.007708317
vn 0.9999703 -2.131627E-14 -0.007708317
vn 0.9999703 -2.131627E-14 -0.007708317
vn 0.9999703 -2.131627E-14 -0.007708317
vn 0.9999703 -2.131627E-14 -0.007708317
vn 0.9999703 -2.131627E-14 -0.007708317
vn 0.9999703 -2.131627E-14 -0.007708317
vn 0.9999703 -2.131627E-14 -0.007708317

vt 0.6499023 0.364502
vt 1 1
vt 1 -5.960464E-07
vt 0.6499023 0.6977539
vt 0.3500977 0.6977539
vt 4.172325E-07 1
vt 3.576279E-07 -4.768372E-07
vt 0.3500977 0.364502

g wall01_window1m_B_2_9860_1085
usemtl wall01_window1m_B_2_9860_1085
usemap wall01_window1m_B_2_9860_1085
f 1/1/1 3/3/3 2/2/2
f 2/2/2 4/4/4 1/1/1
f 5/5/5 4/4/4 2/2/2
f 2/2/2 6/6/6 5/5/5
f 5/5/5 6/6/6 7/7/7
f 7/7/7 3/3/3 1/1/1
f 7/7/7 8/8/8 5/5/5
f 1/1/1 8/8/8 7/7/7
