#wall21_20539_457.obj

v -0.2000001 2.999998 3
v -1.036543E-07 2.999999 -6.583179E-07
v -4.882108E-07 2.999998 3
v -0.1999997 2.999999 -1.236805E-06
v -0.1999997 2.999999 -1.236805E-06
v -1.036544E-07 -4.713619E-09 -5.265952E-07
v -1.036543E-07 2.999999 -6.583179E-07
v -0.1999997 -4.713637E-09 -1.105082E-06
v -4.882108E-07 2.999998 3
v -0.2000001 -2.876319E-07 3
v -0.2000001 2.999998 3
v -4.88211E-07 -2.876319E-07 3

vn -1.454366E-07 1 1.588584E-12
vn -1.454366E-07 1 1.588584E-12
vn -1.454366E-07 1 1.588584E-12
vn -1.454366E-07 1 1.588584E-12
vn 1 4.371138E-08 -1.114607E-05
vn 1 4.371138E-08 -1.114607E-05
vn 1 4.371138E-08 -1.114607E-05
vn 1 4.371138E-08 -1.114607E-05
vn -1 -4.371138E-08 1.114607E-05
vn -1 -4.371138E-08 1.114607E-05
vn -1 -4.371138E-08 1.114607E-05
vn -1 -4.371138E-08 1.114607E-05

vt 1 0.9145508
vt 3.576279E-07 0.9814453
vt 1 0.9814453
vt 3.576279E-07 0.9145508
vt 4.768372E-07 1
vt 0.06665039 0
vt 0.06665039 1
vt 2.980232E-07 0
vt 0.9331055 1
vt 1 0
vt 1 1
vt 0.9331055 0

g wall21_20539_457
usemtl wall21_20539_457
usemap wall21_20539_457
f 1/1/1 3/3/3 2/2/2
f 2/2/2 4/4/4 1/1/1
f 5/5/5 7/7/7 6/6/6
f 6/6/6 8/8/8 5/5/5
f 9/9/9 11/11/11 10/10/10
f 10/10/10 12/12/12 9/9/9
