#wall01_interior_door1m_9958_1232.obj

v 1.359879E-06 2.1 0.9499927
v 1.672E-06 5.661228E-08 -6.173556E-06
v 1.359879E-06 0.05249983 0.9499927
v 1.672E-06 2.999999 -6.173556E-06
v 1.267393E-06 2.999998 2.799994
v 1.713896E-06 2.1 2.049996
v 1.713896E-06 0.05250002 2.049996
v 1.267393E-06 -5.394342E-07 2.799994
v 1.713896E-06 -3.40752E-07 2.049996
v 1.359879E-06 -1.420699E-07 0.9499927

vn 0.007720237 1.412506E-14 0.9999701
vn 0.007720237 1.412506E-14 0.9999701
vn 0.007720237 1.412506E-14 0.9999701
vn 0.007720237 1.412506E-14 0.9999701
vn 0.007720237 1.412506E-14 0.9999701
vn 0.007720237 1.412506E-14 0.9999701
vn 0.007720237 1.412506E-14 0.9999701
vn 0.007720237 1.412506E-14 0.9999701
vn 0.007720237 1.412506E-14 0.9999701
vn 0.007720237 1.412506E-14 0.9999701

vt 0.6166992 0.7001953
vt 0.9331055 1.192093E-07
vt 0.6166992 0.01750183
vt 0.9331055 1
vt 0 1
vt 0.25 0.7001953
vt 0.25 0.01750183
vt 0 0
vt 0.25 5.960464E-08
vt 0.6166992 5.960464E-08

g wall01_interior_door1m_9958_1232
usemtl wall01_interior_door1m_9958_1232
usemap wall01_interior_door1m_9958_1232
f 1/1/1 3/3/3 2/2/2
f 2/2/2 4/4/4 1/1/1
f 1/1/1 4/4/4 5/5/5
f 5/5/5 6/6/6 1/1/1
f 7/7/7 6/6/6 5/5/5
f 5/5/5 8/8/8 7/7/7
f 3/3/3 7/7/7 9/9/9
f 8/8/8 9/9/9 7/7/7
f 9/9/9 10/10/10 3/3/3
f 3/3/3 10/10/10 2/2/2
