#wall32_9363_903.obj

v -0.1999871 2.999999 2.999997
v 1.213941E-05 2.999999 -2.993999E-06
v 1.151275E-05 2.999999 2.999997
v -0.1999865 2.999999 -2.526696E-06
v -0.1999865 2.999999 -2.526696E-06
v 1.213941E-05 -1.539903E-08 -2.993999E-06
v 1.213941E-05 2.999999 -2.993999E-06
v -0.1999865 -1.539903E-08 -2.526696E-06
v 1.151275E-05 2.999999 2.999997
v -0.1999871 -2.341317E-07 2.999997
v -0.1999871 2.999999 2.999997
v 1.151275E-05 -2.341317E-07 2.999997

vn -2.308503E-13 0.9999997 1.017253E-07
vn -2.308503E-13 0.9999997 1.017253E-07
vn -2.308503E-13 0.9999997 1.017253E-07
vn -2.308503E-13 0.9999997 1.017253E-07
vn 2.26935E-06 0 -1
vn 2.26935E-06 0 -1
vn 2.26935E-06 0 -1
vn 2.26935E-06 0 -1
vn -2.26935E-06 0 1
vn -2.26935E-06 0 1
vn -2.26935E-06 0 1
vn -2.26935E-06 0 1

vt 1 0.9145508
vt 3.576279E-07 0.9814453
vt 1 0.9814453
vt 3.576279E-07 0.9145508
vt 4.768372E-07 1
vt 0.06665039 0
vt 0.06665039 1
vt 2.980232E-07 0
vt 0.9331055 1
vt 1 0
vt 1 1
vt 0.9331055 0

g wall32_9363_903
usemtl wall32_9363_903
usemap wall32_9363_903
f 1/1/1 3/3/3 2/2/2
f 2/2/2 4/4/4 1/1/1
f 5/5/5 7/7/7 6/6/6
f 6/6/6 8/8/8 5/5/5
f 9/9/9 11/11/11 10/10/10
f 10/10/10 12/12/12 9/9/9
