#wall17_10953_1086.obj

v -0.1999957 2.999999 2.999993
v 4.470955E-06 2.999999 -6.42999E-06
v 4.426419E-06 2.999999 2.999992
v -0.1999955 2.999999 -5.637272E-06
v -0.1999955 2.999999 -5.637272E-06
v 4.470955E-06 9.69955E-09 -6.42999E-06
v 4.470955E-06 2.999999 -6.42999E-06
v -0.1999955 9.69955E-09 -5.637272E-06
v 4.426419E-06 2.999999 2.999992
v -0.1999957 -2.090331E-07 2.999993
v -0.1999957 2.999999 2.999993
v 4.426419E-06 -2.090331E-07 2.999992

vn -1.017125E-07 0.9999999 1.612298E-09
vn -1.017125E-07 0.9999999 1.612298E-09
vn -1.017125E-07 0.9999999 1.612298E-09
vn -1.017125E-07 0.9999999 1.612298E-09
vn 0.9998744 0 -0.01584953
vn 0.9998744 0 -0.01584953
vn 0.9998744 0 -0.01584953
vn 0.9998744 0 -0.01584953
vn -0.9998744 0 0.01584953
vn -0.9998744 0 0.01584953
vn -0.9998744 0 0.01584953
vn -0.9998744 0 0.01584953

vt 1 0.9145508
vt 3.576279E-07 0.9814453
vt 1 0.9814453
vt 3.576279E-07 0.9145508
vt 4.768372E-07 1
vt 0.06665039 0
vt 0.06665039 1
vt 2.980232E-07 0
vt 0.9331055 1
vt 1 0
vt 1 1
vt 0.9331055 0

g wall17_10953_1086
usemtl wall17_10953_1086
usemap wall17_10953_1086
f 1/1/1 3/3/3 2/2/2
f 2/2/2 4/4/4 1/1/1
f 5/5/5 7/7/7 6/6/6
f 6/6/6 8/8/8 5/5/5
f 9/9/9 11/11/11 10/10/10
f 10/10/10 12/12/12 9/9/9
