#wall01_door1m_10774_1154.obj

v -0.1999969 2.999998 3.000004
v -0.1999967 2.1 0.9500038
v -0.1999943 2.999999 3.900806E-06
v -0.1999945 2.099999 2.050004
v -0.1999945 0.0525 2.050004
v -0.1999969 -5.834384E-07 3.000005
v -0.1999967 0.05250016 0.9500039
v -0.1999943 -2.888251E-07 3.819135E-06

vn -0.025302 -1.776356E-15 0.9996798
vn -0.025302 -1.776356E-15 0.9996798
vn -0.025302 -1.776356E-15 0.9996798
vn -0.025302 -1.776356E-15 0.9996798
vn -0.025302 -1.776356E-15 0.9996798
vn -0.025302 -1.776356E-15 0.9996798
vn -0.025302 -1.776356E-15 0.9996798
vn -0.025302 -1.776356E-15 0.9996798

vt 1 1
vt 0.3166504 0.7001953
vt -5.960464E-08 1
vt 0.6831055 0.7001953
vt 0.6831055 0.01750183
vt 1 -1.788139E-07
vt 0.3166504 0.01750183
vt -2.384186E-07 1.192093E-07

g wall01_door1m_10774_1154
usemtl wall01_door1m_10774_1154
usemap wall01_door1m_10774_1154
f 1/1/1 3/3/3 2/2/2
f 2/2/2 4/4/4 1/1/1
f 1/1/1 4/4/4 5/5/5
f 5/5/5 6/6/6 1/1/1
f 6/6/6 5/5/5 7/7/7
f 7/7/7 2/2/2 3/3/3
f 7/7/7 8/8/8 6/6/6
f 3/3/3 8/8/8 7/7/7
