#wall01_door1m_10971_1095.obj

v -1.255277E-05 2.999999 -4.300775E-06
v -0.2000125 2.999998 2.999996
v -0.2000106 2.999999 -4.757957E-06
v -8.127353E-06 2.999998 2.999996
v -0.20001 -6.651743E-07 2.999996
v -8.127353E-06 2.999998 2.999996
v -1.192683E-05 -7.97782E-07 2.999996
v -0.2000125 2.999998 2.999996
v -0.200008 -2.693873E-07 -4.236124E-06
v -1.255277E-05 2.999999 -4.300775E-06
v -0.2000106 2.999999 -4.757957E-06
v -9.98946E-06 -4.025192E-07 -4.573907E-06
v -7.862734E-06 2.1 0.9499957
v -0.2000106 0.05249985 0.9499953
v -0.2000123 2.1 0.9499956
v -1.258539E-05 0.05249991 0.9499958
v -1.350445E-05 0.05249957 2.049996
v -0.2000132 2.099999 2.049996
v -0.2000115 0.0524997 2.049996
v -8.771824E-06 2.099999 2.049996
v -8.771824E-06 2.099999 2.049996
v -0.2000123 2.1 0.9499956
v -0.2000132 2.099999 2.049996
v -7.862734E-06 2.1 0.9499957
v -1.258539E-05 0.05249991 0.9499958
v -0.2000115 0.0524997 2.049996
v -0.2000106 0.05249985 0.9499953
v -1.350445E-05 0.05249957 2.049996

vn 0.02056631 0.9997873 0.001319311
vn 0.02056631 0.9997873 0.001319311
vn 0.02056631 0.9997873 0.001319311
vn 0.02056631 0.9997873 0.001319311
vn -0.004553842 -0.001225795 0.9999887
vn -0.004553842 -0.001225795 0.9999887
vn -0.004553842 -0.001225795 0.9999887
vn -0.004553842 -0.001225795 0.9999887
vn 0.004553842 0.001225795 -0.9999887
vn 0.004553842 0.001225795 -0.9999887
vn 0.004553842 0.001225795 -0.9999887
vn 0.004553842 0.001225795 -0.9999887
vn -0.004553842 -0.001225795 0.9999887
vn -0.004553842 -0.001225795 0.9999887
vn -0.004553842 -0.001225795 0.9999887
vn -0.004553842 -0.001225795 0.9999887
vn 0.004553842 0.001225795 -0.9999887
vn 0.004553842 0.001225795 -0.9999887
vn 0.004553842 0.001225795 -0.9999887
vn 0.004553842 0.001225795 -0.9999887
vn -0.02056631 -0.9997873 -0.001319626
vn -0.02056631 -0.9997873 -0.001319626
vn -0.02056631 -0.9997873 -0.001319626
vn -0.02056631 -0.9997873 -0.001319626
vn 0.02056631 0.9997873 0.001319339
vn 0.02056631 0.9997873 0.001319339
vn 0.02056631 0.9997873 0.001319339
vn 0.02056631 0.9997873 0.001319339

vt 3.576279E-07 0.9145508
vt 1 0.9814453
vt 3.576279E-07 0.9814453
vt 1 0.9145508
vt 1 1.192093E-07
vt 0.9331055 1
vt 0.9331055 1.192093E-07
vt 1 1
vt 5.960464E-08 3.576279E-07
vt 0.06665039 1
vt 5.960464E-08 1
vt 0.06665039 3.576279E-07
vt 0.06665039 0.05102539
vt 2.980232E-07 0.7333984
vt 2.980232E-07 0.05102539
vt 0.06665039 0.7333984
vt 2.980232E-07 0.7333984
vt 0.06665039 0.05102539
vt 0.06665039 0.7333984
vt 2.980232E-07 0.05102539
vt 0.4335938 0.9814453
vt 0.0670166 0.9145508
vt 0.4335938 0.9145508
vt 0.0670166 0.9814453
vt 0.06671143 0.9814453
vt 0.4333496 0.9145508
vt 0.06671143 0.9145508
vt 0.4333496 0.9814453

g wall01_door1m_10971_1095
usemtl wall01_door1m_10971_1095
usemap wall01_door1m_10971_1095
f 1/1/1 3/3/3 2/2/2
f 2/2/2 4/4/4 1/1/1
f 5/5/5 7/7/7 6/6/6
f 6/6/6 8/8/8 5/5/5
f 9/9/9 11/11/11 10/10/10
f 10/10/10 12/12/12 9/9/9
f 13/13/13 15/15/15 14/14/14
f 14/14/14 16/16/16 13/13/13
f 17/17/17 19/19/19 18/18/18
f 18/18/18 20/20/20 17/17/17
f 21/21/21 23/23/23 22/22/22
f 22/22/22 24/24/24 21/21/21
f 25/25/25 27/27/27 26/26/26
f 26/26/26 28/28/28 25/25/25
