#wall01_window2m_A_2_10289_1270.obj

v 2.485898E-06 3 -2.990878E-06
v -0.199998 2.999999 2.999997
v -0.1999975 3 -1.388548E-06
v 2.0778E-06 2.999999 2.999999
v 2.485898E-06 -1.396837E-07 -2.990878E-06
v -0.1999975 3 -1.388548E-06
v -0.1999975 -1.396837E-07 -1.388548E-06
v 2.485898E-06 3 -2.990878E-06
v -0.199998 -5.478354E-07 2.999997
v 2.0778E-06 2.999999 2.999999
v 2.0778E-06 -5.478354E-07 2.999999
v -0.199998 2.999999 2.999997
v 2.424247E-06 2.1 0.3599967
v -0.1999979 2.099998 2.639997
v 2.111224E-06 2.099999 2.639996
v -0.1999976 2.1 0.3599983
v 2.424247E-06 0.4699998 0.3599967
v -0.1999976 2.1 0.3599983
v 2.424247E-06 2.1 0.3599967
v -0.1999976 0.47 0.3599983
v 2.111224E-06 0.47 2.639996
v -0.1999976 0.47 0.3599983
v 2.424247E-06 0.4699998 0.3599967
v -0.1999979 0.47 2.639997
v 2.111224E-06 2.099999 2.639996
v -0.1999979 0.47 2.639997
v 2.111224E-06 0.47 2.639996
v -0.1999979 2.099998 2.639997

vn 1.454312E-07 0.9999992 1.257299E-09
vn 1.454312E-07 0.9999992 1.257299E-09
vn 1.454312E-07 0.9999992 1.257299E-09
vn 1.454312E-07 0.9999992 1.257299E-09
vn -0.9999627 4.371136E-08 -0.00864485
vn -0.9999627 4.371136E-08 -0.00864485
vn -0.9999627 4.371136E-08 -0.00864485
vn -0.9999627 4.371136E-08 -0.00864485
vn 0.9999627 -4.371136E-08 0.00864485
vn 0.9999627 -4.371136E-08 0.00864485
vn 0.9999627 -4.371136E-08 0.00864485
vn 0.9999627 -4.371136E-08 0.00864485
vn -5.774912E-07 -0.9999992 6.729786E-07
vn -4.468366E-07 -0.9999992 -6.818341E-07
vn -4.386466E-07 -0.9999992 -7.667601E-07
vn -5.856813E-07 -0.9999992 7.579046E-07
vn 0.9999627 -4.371136E-08 0.00864485
vn 0.9999627 -4.371136E-08 0.00864485
vn 0.9999627 -4.371136E-08 0.00864485
vn 0.9999627 -4.371136E-08 0.00864485
vn 3.784916E-08 0.9999992 6.782983E-07
vn -9.354889E-08 0.9999992 -6.787798E-07
vn -1.002694E-07 0.9999992 -7.638348E-07
vn 3.711442E-08 0.9999992 7.632888E-07
vn -0.9999627 4.371136E-08 -0.00864485
vn -0.9999627 4.371136E-08 -0.00864485
vn -0.9999627 4.371136E-08 -0.00864485
vn -0.9999627 4.371136E-08 -0.00864485

vt 2.026558E-06 0.9814453
vt 1 0.9145508
vt 2.026558E-06 0.9145508
vt 1 0.9814453
vt 0.06665039 0
vt 0 1
vt -5.960464E-08 0
vt 0.06665039 1
vt 1 5.960464E-08
vt 0.9331055 1
vt 0.9331055 5.960464E-08
vt 1 1
vt 0.7954102 0.9814453
vt 0.03527832 0.9145508
vt 0.03527832 0.9814453
vt 0.7954102 0.9145508
vt 0.06665039 0.5942383
vt 2.980232E-07 0.05102539
vt 0.06665039 0.05102539
vt 2.980232E-07 0.5942383
vt 0.8798828 0.9814453
vt 0.119812 0.9145508
vt 0.119812 0.9814453
vt 0.8798828 0.9145508
vt 0.06665039 0.05102539
vt 2.980232E-07 0.5942383
vt 0.06665039 0.5942383
vt 2.980232E-07 0.05102539

g wall01_window2m_A_2_10289_1270
usemtl wall01_window2m_A_2_10289_1270
usemap wall01_window2m_A_2_10289_1270
f 1/1/1 3/3/3 2/2/2
f 2/2/2 4/4/4 1/1/1
f 5/5/5 7/7/7 6/6/6
f 6/6/6 8/8/8 5/5/5
f 9/9/9 11/11/11 10/10/10
f 10/10/10 12/12/12 9/9/9
f 13/13/13 15/15/15 14/14/14
f 14/14/14 16/16/16 13/13/13
f 17/17/17 19/19/19 18/18/18
f 18/18/18 20/20/20 17/17/17
f 21/21/21 23/23/23 22/22/22
f 22/22/22 24/24/24 21/21/21
f 25/25/25 27/27/27 26/26/26
f 26/26/26 28/28/28 25/25/25
