#wall01_corner_A_door_19549_365.obj

v 0.1999997 -5.654372E-08 0.1999997
v 0.1999991 0.05250018 2.05
v 0.1999998 0.05250003 0.9500006
v 0.1999997 9.894669E-08 3.000001
v 0.1999997 3 0.1999997
v 0.1999998 2.1 0.9499998
v 0.1999997 3 3
v 0.1999991 2.1 2.05

vn 2.205372E-06 1.545574E-15 -1
vn 2.205372E-06 1.545574E-15 -1
vn 2.205372E-06 1.545574E-15 -1
vn 2.205372E-06 1.545574E-15 -1
vn 2.205372E-06 1.545574E-15 -1
vn 2.205372E-06 1.545574E-15 -1
vn 2.205372E-06 1.545574E-15 -1
vn 2.205372E-06 1.545574E-15 -1

vt 0.9145508 -3.576279E-07
vt 0.3103027 0.01750183
vt 0.6694336 0.01750183
vt 0 -5.960464E-07
vt 0.9145508 1
vt 0.6694336 0.7001953
vt -1.192093E-07 1
vt 0.3103027 0.7001953

g wall01_corner_A_door_19549_365
usemtl wall01_corner_A_door_19549_365
usemap wall01_corner_A_door_19549_365
f 1/1/1 3/3/3 2/2/2
f 2/2/2 4/4/4 1/1/1
f 3/3/3 1/1/1 5/5/5
f 5/5/5 6/6/6 3/3/3
f 6/6/6 5/5/5 7/7/7
f 7/7/7 4/4/4 2/2/2
f 7/7/7 8/8/8 6/6/6
f 2/2/2 8/8/8 7/7/7
