#wall01_window1m_A_4_9485_514.obj

v 3.010777E-06 0.8936518 1.04966
v 3.156022E-06 3 -7.465397E-07
v 3.156022E-06 -1.53068E-08 -7.465397E-07
v 3.010777E-06 2.293652 1.04966
v 2.932068E-06 2.293652 1.949656
v 2.834588E-06 2.999999 3
v 2.834588E-06 -2.327292E-07 3
v 2.932068E-06 0.8936518 1.949656

vn 0.999781 -4.371137E-08 -0.02093084
vn 0.999781 -4.371137E-08 -0.02093084
vn 0.999781 -4.371137E-08 -0.02093084
vn 0.999781 -4.371137E-08 -0.02093084
vn 0.999781 -4.371137E-08 -0.02093084
vn 0.999781 -4.371137E-08 -0.02093084
vn 0.999781 -4.371137E-08 -0.02093084
vn 0.999781 -4.371137E-08 -0.02093084

vt 0.6499023 0.2978516
vt 1 1
vt 1 0
vt 0.6499023 0.7646484
vt 0.3500977 0.7646484
vt -5.960464E-08 1
vt -5.960464E-08 5.960464E-08
vt 0.3500977 0.2978516

g wall01_window1m_A_4_9485_514
usemtl wall01_window1m_A_4_9485_514
usemap wall01_window1m_A_4_9485_514
f 1/1/1 3/3/3 2/2/2
f 2/2/2 4/4/4 1/1/1
f 5/5/5 4/4/4 2/2/2
f 2/2/2 6/6/6 5/5/5
f 5/5/5 6/6/6 7/7/7
f 7/7/7 3/3/3 1/1/1
f 7/7/7 8/8/8 5/5/5
f 1/1/1 8/8/8 7/7/7
