#wall01_6m_door_A_8649_103.obj

v 2.228598E-06 3 -0.5000107
v -0.1999983 2.999999 5.499991
v -0.1999979 3 -0.5000111
v 1.848785E-06 2.999999 5.499991
v -0.1999979 3 -0.5000111
v 2.228598E-06 5.661228E-08 -0.5000107
v 2.228598E-06 3 -0.5000107
v -0.1999979 5.661228E-08 -0.5000111
v 1.983611E-06 2.2 0.4499912
v -0.1999981 0.05250002 0.4499908
v -0.1999981 2.2 0.4499908
v 1.983611E-06 0.05250002 0.4499912
v 1.983611E-06 2.2 0.4499912
v -0.199998 2.199999 4.549989
v 2.093773E-06 2.199999 4.549989
v -0.1999981 2.2 0.4499908
v -0.1999981 0.05250002 0.4499908
v 2.093773E-06 0.05249943 4.549989
v -0.199998 0.05249943 4.549989
v 1.983611E-06 0.05250002 0.4499912
v -0.1999983 2.999999 5.499991
v 1.848785E-06 -7.381163E-07 5.499991
v -0.1999983 -7.381163E-07 5.499991
v 1.848785E-06 2.999999 5.499991
v 2.093773E-06 2.199999 4.549989
v -0.199998 0.05249943 4.549989
v 2.093773E-06 0.05249943 4.549989
v -0.199998 2.199999 4.549989

vn -1.962934E-07 0.9999995 1.513629E-09
vn -1.962934E-07 0.9999995 1.513629E-09
vn -1.962934E-07 0.9999995 1.513629E-09
vn -1.962934E-07 0.9999995 1.513629E-09
vn 0.9999703 4.371136E-08 -0.007710751
vn 0.9999703 4.371136E-08 -0.007710751
vn 0.9999703 4.371136E-08 -0.007710751
vn 0.9999703 4.371136E-08 -0.007710751
vn -0.9999703 -4.371136E-08 0.007710751
vn -0.9999703 -4.371136E-08 0.007710751
vn -0.9999703 -4.371136E-08 0.007710751
vn -0.9999703 -4.371136E-08 0.007710751
vn 1.553565E-07 -0.9999995 -1.197966E-09
vn 1.553565E-07 -0.9999995 -1.197965E-09
vn 1.553565E-07 -0.9999995 -1.197965E-09
vn 1.553565E-07 -0.9999995 -1.197965E-09
vn -4.371008E-08 0.9999995 3.37062E-10
vn -4.371008E-08 0.9999995 3.37062E-10
vn -4.371008E-08 0.9999995 3.37062E-10
vn -4.371008E-08 0.9999995 3.37062E-10
vn -0.9999703 -4.371136E-08 0.007710751
vn -0.9999703 -4.371136E-08 0.007710751
vn -0.9999703 -4.371136E-08 0.007710751
vn -0.9999703 -4.371136E-08 0.007710751
vn 0.9999703 4.371136E-08 -0.007710751
vn 0.9999703 4.371136E-08 -0.007710751
vn 0.9999703 4.371136E-08 -0.007710751
vn 0.9999703 4.371136E-08 -0.007710751

vt 3.576279E-07 0.9814453
vt 2 0.9145508
vt 3.576279E-07 0.9145508
vt 2 0.9814453
vt -1.192093E-07 1
vt 0.06665039 0
vt 0.06665039 1
vt 0 0
vt 0.06665039 5.960464E-07
vt -1.192093E-07 0.7158203
vt 0 5.960464E-07
vt 0.06665039 0.7158203
vt 1.907349E-06 0.9145508
vt 1.033203 0.9814453
vt 1.033203 0.9145508
vt 1.907349E-06 0.9814453
vt 1.907349E-06 0.9145508
vt 1.033203 0.9814453
vt 1.033203 0.9145508
vt 1.907349E-06 0.9814453
vt 1 1
vt 0.9331055 5.960464E-08
vt 1 5.960464E-08
vt 0.9331055 1
vt -1.192093E-07 0.7158203
vt 0.06665039 0
vt 0 0
vt 0.06665039 0.7158203

g wall01_6m_door_A_8649_103
usemtl wall01_6m_door_A_8649_103
usemap wall01_6m_door_A_8649_103
f 1/1/1 3/3/3 2/2/2
f 2/2/2 4/4/4 1/1/1
f 5/5/5 7/7/7 6/6/6
f 6/6/6 8/8/8 5/5/5
f 9/9/9 11/11/11 10/10/10
f 10/10/10 12/12/12 9/9/9
f 13/13/13 15/15/15 14/14/14
f 14/14/14 16/16/16 13/13/13
f 17/17/17 19/19/19 18/18/18
f 18/18/18 20/20/20 17/17/17
f 21/21/21 23/23/23 22/22/22
f 22/22/22 24/24/24 21/21/21
f 25/25/25 27/27/27 26/26/26
f 26/26/26 28/28/28 25/25/25
