#wall01_door1m_2_10930_1445.obj

v -0.200009 2.999998 2.999995
v -0.2000086 2.1 0.9499942
v -0.2000093 2.999999 -6.251486E-06
v -0.200012 2.099999 2.049994
v -0.2000104 0.05249977 2.049994
v -0.2000064 -7.200912E-07 2.999995
v -0.2000069 0.05249999 0.9499939
v -0.2000068 -1.996046E-07 -6.524884E-06

vn -0.999778 0.02057208 -0.004537104
vn -0.999778 0.02057208 -0.004537104
vn -0.999778 0.02057208 -0.004537104
vn -0.999778 0.02057208 -0.004537104
vn -0.999778 0.02057208 -0.004537104
vn -0.999778 0.02057208 -0.004537104
vn -0.999778 0.02057208 -0.004537104
vn -0.999778 0.02057208 -0.004537104

vt 1 1
vt 0.3166504 0.7001953
vt -5.960464E-08 1
vt 0.6831055 0.7001953
vt 0.6831055 0.01750183
vt 1 -1.788139E-07
vt 0.3166504 0.01750183
vt -2.384186E-07 1.192093E-07

g wall01_door1m_2_10930_1445
usemtl wall01_door1m_2_10930_1445
usemap wall01_door1m_2_10930_1445
f 1/1/1 3/3/3 2/2/2
f 2/2/2 4/4/4 1/1/1
f 1/1/1 4/4/4 5/5/5
f 5/5/5 6/6/6 1/1/1
f 6/6/6 5/5/5 7/7/7
f 7/7/7 2/2/2 3/3/3
f 7/7/7 8/8/8 6/6/6
f 3/3/3 8/8/8 7/7/7
