#wall11_9002_380.obj

v -0.199998 2.999998 3.000002
v 2.372809E-06 2.999999 5.377224E-07
v 2.488526E-06 2.999998 3.000002
v -0.1999973 2.999999 6.385293E-07
v -0.1999973 2.999999 6.385293E-07
v 2.372809E-06 -1.530677E-08 6.688565E-07
v 2.372809E-06 2.999999 5.377224E-07
v -0.1999973 -1.530676E-08 7.696634E-07
v 2.488526E-06 2.999998 3.000002
v -0.199998 -3.190174E-07 3.000002
v -0.199998 2.999998 3.000002
v 2.480851E-06 -3.190174E-07 3.000002

vn -2.567063E-09 0.9999989 1.45414E-07
vn -2.567063E-09 0.9999989 1.45414E-07
vn -2.567063E-09 0.9999989 1.45414E-07
vn -2.567063E-09 0.9999989 1.45414E-07
vn 0.01765066 4.371134E-08 -0.9998443
vn 0.01765066 4.371134E-08 -0.9998443
vn 0.01765066 4.371134E-08 -0.9998443
vn 0.01765066 4.371134E-08 -0.9998443
vn -0.01765066 -4.371134E-08 0.9998443
vn -0.01765066 -4.371134E-08 0.9998443
vn -0.01765066 -4.371134E-08 0.9998443
vn -0.01765066 -4.371134E-08 0.9998443

vt 1 0.9145508
vt 3.576279E-07 0.9814453
vt 1 0.9814453
vt 3.576279E-07 0.9145508
vt 4.768372E-07 1
vt 0.06665039 0
vt 0.06665039 1
vt 2.980232E-07 0
vt 0.9331055 1
vt 1 0
vt 1 1
vt 0.9331055 0

g wall11_9002_380
usemtl wall11_9002_380
usemap wall11_9002_380
f 1/1/1 3/3/3 2/2/2
f 2/2/2 4/4/4 1/1/1
f 5/5/5 7/7/7 6/6/6
f 6/6/6 8/8/8 5/5/5
f 9/9/9 11/11/11 10/10/10
f 10/10/10 12/12/12 9/9/9
