#wall01_window1m_A_4_9250_747.obj

v -0.2000096 0.8936519 1.94965
v -0.200014 2.999999 2.999995
v -0.200014 -2.888253E-07 2.999995
v -0.2000096 2.293651 1.94965
v -0.2000158 2.293652 1.049656
v -0.2000145 3 -5.306639E-06
v -0.2000145 -7.595154E-08 -5.306639E-06
v -0.2000158 0.8936519 1.049656

vn -0.9996799 4.371137E-08 -0.02530235
vn -0.9996799 4.371137E-08 -0.02530235
vn -0.9996799 4.371137E-08 -0.02530235
vn -0.9996799 4.371137E-08 -0.02530235
vn -0.9996799 4.371137E-08 -0.02530235
vn -0.9996799 4.371137E-08 -0.02530235
vn -0.9996799 4.371137E-08 -0.02530235
vn -0.9996799 4.371137E-08 -0.02530235

vt 0.6499023 0.2978516
vt 1 1
vt 1 5.960464E-08
vt 0.6499023 0.7646484
vt 0.3498535 0.7646484
vt 0 1
vt 0 0
vt 0.3498535 0.2978516

g wall01_window1m_A_4_9250_747
usemtl wall01_window1m_A_4_9250_747
usemap wall01_window1m_A_4_9250_747
f 1/1/1 3/3/3 2/2/2
f 2/2/2 4/4/4 1/1/1
f 5/5/5 4/4/4 2/2/2
f 2/2/2 6/6/6 5/5/5
f 5/5/5 6/6/6 7/7/7
f 7/7/7 3/3/3 1/1/1
f 7/7/7 8/8/8 5/5/5
f 1/1/1 8/8/8 7/7/7
