#wall01_window1m_A_1_11281_832.obj

v -8.114255E-06 0.8936515 1.049654
v -9.413665E-06 3 -6.539193E-06
v -6.825828E-06 -1.190048E-08 -6.810859E-06
v -6.356402E-06 2.293652 1.049654
v -1.004311E-05 2.293651 1.949649
v -8.922151E-06 3 2.999994
v -6.34159E-06 -2.766684E-07 2.999994
v -5.459991E-06 0.8936521 1.949649

vn 0.9997782 -0.02057207 0.004526524
vn 0.9997782 -0.02057207 0.004526524
vn 0.9997782 -0.02057207 0.004526524
vn 0.9997782 -0.02057207 0.004526524
vn 0.9997782 -0.02057207 0.004526524
vn 0.9997782 -0.02057207 0.004526524
vn 0.9997782 -0.02057207 0.004526524
vn 0.9997782 -0.02057207 0.004526524

vt 0.6499023 0.2978516
vt 1 1
vt 1 0
vt 0.6499023 0.7646484
vt 0.3500977 0.7646484
vt -5.960464E-08 1
vt -5.960464E-08 5.960464E-08
vt 0.3500977 0.2978516

g wall01_window1m_A_1_11281_832
usemtl wall01_window1m_A_1_11281_832
usemap wall01_window1m_A_1_11281_832
f 1/1/1 3/3/3 2/2/2
f 2/2/2 4/4/4 1/1/1
f 5/5/5 4/4/4 2/2/2
f 2/2/2 6/6/6 5/5/5
f 5/5/5 6/6/6 7/7/7
f 7/7/7 3/3/3 1/1/1
f 7/7/7 8/8/8 5/5/5
f 1/1/1 8/8/8 7/7/7
