#wall01_window1m_A_9767_1005.obj

v -9.414256E-06 3 -6.863063E-06
v -0.200007 3 2.999993
v -0.2000075 3 -6.787782E-06
v -8.922742E-06 2.999999 2.999993
v -6.830507E-06 -7.27514E-08 -7.134973E-06
v -0.2000075 3 -6.787782E-06
v -0.2000049 6.038047E-08 -7.059449E-06
v -9.414256E-06 3 -6.863063E-06
v -0.2000044 -4.032894E-07 2.999993
v -8.922742E-06 2.999999 2.999993
v -6.347168E-06 -3.377814E-07 2.999993
v -0.200007 3 2.999993
v -6.355194E-06 2.293651 1.049654
v -0.2000081 2.293651 1.949649
v -1.005187E-05 2.293652 1.949649
v -0.2000044 2.293652 1.049653
v -8.121222E-06 0.8936517 1.049654
v -0.2000044 2.293652 1.049653
v -6.355194E-06 2.293651 1.049654
v -0.2000062 0.8936516 1.049653
v -5.461482E-06 0.8936518 1.949649
v -0.2000062 0.8936516 1.049653
v -8.121222E-06 0.8936517 1.049654
v -0.2000099 0.8936516 1.949649
v -1.005187E-05 2.293652 1.949649
v -0.2000099 0.8936516 1.949649
v -5.461482E-06 0.8936518 1.949649
v -0.2000081 2.293651 1.949649

vn 0.02056631 0.9997873 0.001319311
vn 0.02056631 0.9997873 0.001319311
vn 0.02056631 0.9997873 0.001319311
vn 0.02056631 0.9997873 0.001319311
vn 0.004552452 0.001225822 -0.9999887
vn 0.004552452 0.001225822 -0.9999887
vn 0.004552452 0.001225822 -0.9999887
vn 0.004552452 0.001225822 -0.9999887
vn -0.004552452 -0.001225822 0.9999887
vn -0.004552452 -0.001225822 0.9999887
vn -0.004552452 -0.001225822 0.9999887
vn -0.004552452 -0.001225822 0.9999887
vn -0.02056686 -0.9997873 -0.001319843
vn -0.02056576 -0.9997873 -0.001319593
vn -0.02056555 -0.9997873 -0.001319545
vn -0.02056707 -0.9997873 -0.001319891
vn -0.004552452 -0.001225822 0.9999887
vn -0.004552452 -0.001225822 0.9999887
vn -0.004552452 -0.001225822 0.9999887
vn -0.004552452 -0.001225822 0.9999887
vn 0.02056576 0.9997873 0.001319207
vn 0.02056686 0.9997873 0.00131892
vn 0.02056708 0.9997873 0.001318874
vn 0.02056555 0.9997873 0.001319206
vn 0.004552452 0.001225822 -0.9999887
vn 0.004552452 0.001225822 -0.9999887
vn 0.004552452 0.001225822 -0.9999887
vn 0.004552452 0.001225822 -0.9999887

vt 1.907349E-06 0.9814453
vt 1 0.9145508
vt 1.907349E-06 0.9145508
vt 1 0.9814453
vt 0.06665039 0
vt 0 1
vt 0 0
vt 0.06665039 1
vt 1 5.960464E-08
vt 0.9331055 1
vt 0.9331055 5.960464E-08
vt 1 1
vt 0.5161133 0.9814453
vt 0.8164063 0.9145508
vt 0.8164063 0.9814453
vt 0.5161133 0.9145508
vt -2.980232E-07 0.6196289
vt 0.06665039 0.1529541
vt -2.980232E-07 0.1529541
vt 0.06665039 0.6196289
vt 0.8164063 0.9814453
vt 0.5161133 0.9145508
vt 0.5161133 0.9814453
vt 0.8164063 0.9145508
vt 0.06665039 0.1529541
vt -3.576279E-07 0.6196289
vt 0.06665039 0.6196289
vt -4.172325E-07 0.1529541

g wall01_window1m_A_9767_1005
usemtl wall01_window1m_A_9767_1005
usemap wall01_window1m_A_9767_1005
f 1/1/1 3/3/3 2/2/2
f 2/2/2 4/4/4 1/1/1
f 5/5/5 7/7/7 6/6/6
f 6/6/6 8/8/8 5/5/5
f 9/9/9 11/11/11 10/10/10
f 10/10/10 12/12/12 9/9/9
f 13/13/13 15/15/15 14/14/14
f 14/14/14 16/16/16 13/13/13
f 17/17/17 19/19/19 18/18/18
f 18/18/18 20/20/20 17/17/17
f 21/21/21 23/23/23 22/22/22
f 22/22/22 24/24/24 21/21/21
f 25/25/25 27/27/27 26/26/26
f 26/26/26 28/28/28 25/25/25
