#wall29_9967_408.obj

v -0.2000008 2.999998 3
v -6.499319E-07 2.999999 -2.471972E-07
v -5.806089E-07 2.999998 3
v -0.2000009 2.999999 -7.846492E-08
v -0.2000009 2.999999 -7.846492E-08
v -6.499319E-07 -1.027095E-07 -2.471972E-07
v -6.499319E-07 2.999999 -2.471972E-07
v -0.2000009 -1.027095E-07 -7.846492E-08
v -5.806089E-07 2.999998 3
v -0.2000008 -5.135477E-07 3
v -0.2000008 2.999998 3
v -1.402285E-06 -5.135477E-07 3

vn -1.016741E-07 0.9999999 4.383038E-08
vn -1.016741E-07 0.9999999 4.383038E-08
vn -1.016741E-07 0.9999999 4.383038E-08
vn -1.016741E-07 0.9999999 4.383038E-08
vn 0.9999995 0 -0.001169924
vn 0.9999995 0 -0.001169924
vn 0.9999995 0 -0.001169924
vn 0.9999995 0 -0.001169924
vn -0.9999995 0 0.001169924
vn -0.9999995 0 0.001169924
vn -0.9999995 0 0.001169924
vn -0.9999995 0 0.001169924

vt 1 0.9145508
vt 3.576279E-07 0.9814453
vt 1 0.9814453
vt 3.576279E-07 0.9145508
vt 4.768372E-07 1
vt 0.06665039 0
vt 0.06665039 1
vt 2.980232E-07 0
vt 0.9331055 1
vt 1 0
vt 1 1
vt 0.9331055 0

g wall29_9967_408
usemtl wall29_9967_408
usemap wall29_9967_408
f 1/1/1 3/3/3 2/2/2
f 2/2/2 4/4/4 1/1/1
f 5/5/5 7/7/7 6/6/6
f 6/6/6 8/8/8 5/5/5
f 9/9/9 11/11/11 10/10/10
f 10/10/10 12/12/12 9/9/9
