#wall02_10110_1288.obj

v -0.1999987 2.999998 2.999992
v 1.914484E-06 2.999999 -8.203309E-06
v 1.341219E-06 2.999998 2.999994
v -0.1999981 2.999999 -6.571177E-06
v -0.1999981 2.999999 -6.571177E-06
v 1.914484E-06 -1.396837E-07 -8.203309E-06
v 1.914484E-06 2.999999 -8.203309E-06
v -0.1999981 -1.396837E-07 -9.836265E-06
v 1.341219E-06 2.999998 2.999994
v -0.1999987 -5.478354E-07 2.999992
v -0.1999987 2.999998 2.999992
v 1.312992E-06 -5.478354E-07 2.99999

vn 1.454312E-07 0.9999992 1.257318E-09
vn 1.454312E-07 0.9999992 1.257318E-09
vn 1.454312E-07 0.9999992 1.257318E-09
vn 1.454312E-07 0.9999992 1.257318E-09
vn -0.9999626 4.371134E-08 -0.008645054
vn -0.9999626 4.371134E-08 -0.008645054
vn -0.9999626 4.371134E-08 -0.008645054
vn -0.9999626 4.371134E-08 -0.008645054
vn 0.9999626 -4.371134E-08 0.008645054
vn 0.9999626 -4.371134E-08 0.008645054
vn 0.9999626 -4.371134E-08 0.008645054
vn 0.9999626 -4.371134E-08 0.008645054

vt 1 0.9145508
vt 3.576279E-07 0.9814453
vt 1 0.9814453
vt 3.576279E-07 0.9145508
vt 4.768372E-07 1
vt 0.06665039 0
vt 0.06665039 1
vt 2.980232E-07 0
vt 0.9331055 1
vt 1 0
vt 1 1
vt 0.9331055 0

g wall02_10110_1288
usemtl wall02_10110_1288
usemap wall02_10110_1288
f 1/1/1 3/3/3 2/2/2
f 2/2/2 4/4/4 1/1/1
f 5/5/5 7/7/7 6/6/6
f 6/6/6 8/8/8 5/5/5
f 9/9/9 11/11/11 10/10/10
f 10/10/10 12/12/12 9/9/9
