#wall01_door1m_3_8919_922.obj

v 1.079418E-05 -1.420699E-07 -8.751619E-06
v 1.028923E-05 0.05250002 2.049993
v 1.012658E-05 0.05250022 0.9499931
v 1.126005E-05 -5.394342E-07 2.999989
v 1.079418E-05 2.999999 -8.751619E-06
v 1.012658E-05 2.1 0.9499931
v 1.126005E-05 2.999998 2.999989
v 1.028923E-05 2.099999 2.049993

vn 0.9999703 -1.953992E-14 -0.007708467
vn 0.9999703 -1.953992E-14 -0.007708467
vn 0.9999703 -1.953992E-14 -0.007708467
vn 0.9999703 -1.953992E-14 -0.007708467
vn 0.9999703 -1.953992E-14 -0.007708467
vn 0.9999703 -1.953992E-14 -0.007708467
vn 0.9999703 -1.953992E-14 -0.007708467
vn 0.9999703 -1.953992E-14 -0.007708467

vt 1 5.960464E-08
vt 0.3166504 0.01750183
vt 0.6831055 0.01750183
vt 2.384186E-07 1.788139E-07
vt 1 1
vt 0.6831055 0.7001953
vt 1.192093E-07 1
vt 0.3166504 0.7001953

g wall01_door1m_3_8919_922
usemtl wall01_door1m_3_8919_922
usemap wall01_door1m_3_8919_922
f 1/1/1 3/3/3 2/2/2
f 2/2/2 4/4/4 1/1/1
f 3/3/3 1/1/1 5/5/5
f 5/5/5 6/6/6 3/3/3
f 6/6/6 5/5/5 7/7/7
f 7/7/7 4/4/4 2/2/2
f 7/7/7 8/8/8 6/6/6
f 2/2/2 8/8/8 7/7/7
