#wall14_8632_1080.obj

v -0.1999964 2.999998 2.999985
v 3.813589E-06 2.999999 -1.582907E-05
v 3.583778E-06 2.999998 2.999985
v -0.1999962 2.999999 -1.623637E-05
v -0.1999962 2.999999 -1.623637E-05
v 3.813589E-06 -1.12923E-07 -1.569794E-05
v 3.813589E-06 2.999999 -1.582907E-05
v -0.1999962 -1.12923E-07 -1.610524E-05
v 3.583778E-06 2.999998 2.999985
v -0.1999964 -4.226423E-07 2.999985
v -0.1999964 2.999998 2.999985
v 3.583778E-06 -4.226423E-07 2.999985

vn -3.149076E-09 0.9999995 1.454026E-07
vn -3.149076E-09 0.9999995 1.454026E-07
vn -3.149076E-09 0.9999995 1.454026E-07
vn -3.149076E-09 0.9999995 1.454026E-07
vn 0.02165253 4.371136E-08 -0.9997657
vn 0.02165253 4.371136E-08 -0.9997657
vn 0.02165253 4.371136E-08 -0.9997657
vn 0.02165253 4.371136E-08 -0.9997657
vn -0.02165253 -4.371136E-08 0.9997657
vn -0.02165253 -4.371136E-08 0.9997657
vn -0.02165253 -4.371136E-08 0.9997657
vn -0.02165253 -4.371136E-08 0.9997657

vt 1 0.9145508
vt 3.576279E-07 0.9814453
vt 1 0.9814453
vt 3.576279E-07 0.9145508
vt 4.768372E-07 1
vt 0.06665039 0
vt 0.06665039 1
vt 2.980232E-07 0
vt 0.9331055 1
vt 1 0
vt 1 1
vt 0.9331055 0

g wall14_8632_1080
usemtl wall14_8632_1080
usemap wall14_8632_1080
f 1/1/1 3/3/3 2/2/2
f 2/2/2 4/4/4 1/1/1
f 5/5/5 7/7/7 6/6/6
f 6/6/6 8/8/8 5/5/5
f 9/9/9 11/11/11 10/10/10
f 10/10/10 12/12/12 9/9/9
