#wall01_door1m_3_10629_826.obj

v -0.1999944 2.999998 2.999994
v -0.1999936 2.1 0.9499939
v -0.1999937 2.999999 -8.30774E-06
v -0.1999944 2.099999 2.049989
v -0.1999941 0.05249966 2.049991
v -0.1999942 -8.248447E-07 2.99999
v -0.1999941 0.05249983 0.9499892
v -0.1999935 -3.608682E-07 -5.744429E-06

vn -0.00455603 -0.001225705 0.9999889
vn -0.00455603 -0.001225705 0.9999889
vn -0.00455603 -0.001225705 0.9999889
vn -0.00455603 -0.001225705 0.9999889
vn -0.00455603 -0.001225705 0.9999889
vn -0.00455603 -0.001225705 0.9999889
vn -0.00455603 -0.001225705 0.9999889
vn -0.00455603 -0.001225705 0.9999889

vt 1 1
vt 0.3166504 0.7001953
vt -5.960464E-08 1
vt 0.6831055 0.7001953
vt 0.6831055 0.01750183
vt 1 -1.788139E-07
vt 0.3166504 0.01750183
vt -2.384186E-07 1.192093E-07

g wall01_door1m_3_10629_826
usemtl wall01_door1m_3_10629_826
usemap wall01_door1m_3_10629_826
f 1/1/1 3/3/3 2/2/2
f 2/2/2 4/4/4 1/1/1
f 1/1/1 4/4/4 5/5/5
f 5/5/5 6/6/6 1/1/1
f 6/6/6 5/5/5 7/7/7
f 7/7/7 2/2/2 3/3/3
f 7/7/7 8/8/8 6/6/6
f 3/3/3 8/8/8 7/7/7
