#wall01_window1m_A_6_10596_1224.obj

v 6.044284E-06 3 -2.961088E-08
v -0.1999944 3 3
v -0.1999933 3 4.759583E-08
v 6.491773E-06 3 3
v 6.044284E-06 3.412097E-08 -2.961088E-08
v -0.1999933 3 4.759583E-08
v -0.1999933 3.412097E-08 4.759583E-08
v 6.044284E-06 3 -2.961088E-08
v -0.1999944 -3.632433E-07 3
v 6.491773E-06 3 3
v 6.491773E-06 -3.632433E-07 3
v -0.1999944 3 3
v 6.433042E-06 2.293652 1.049661
v -0.1999943 2.293652 1.949656
v 6.603434E-06 2.293652 1.949656
v -0.1999945 2.293652 1.049661
v 6.433042E-06 0.8936517 1.049661
v -0.1999945 2.293652 1.049661
v 6.433042E-06 2.293652 1.049661
v -0.1999945 0.8936517 1.049661
v 6.603434E-06 0.8936517 1.949656
v -0.1999945 0.8936517 1.049661
v 6.433042E-06 0.8936517 1.049661
v -0.1999943 0.8936517 1.949656
v 6.603434E-06 2.293652 1.949656
v -0.1999943 0.8936517 1.949656
v 6.603434E-06 0.8936517 1.949656
v -0.1999943 2.293652 1.949656

vn 1.121146E-09 0.9999996 1.454323E-07
vn 1.121146E-09 0.9999996 1.454323E-07
vn 1.121146E-09 0.9999996 1.454323E-07
vn 1.121146E-09 0.9999996 1.454323E-07
vn -0.007708715 4.371135E-08 -0.9999703
vn -0.007708715 4.371135E-08 -0.9999703
vn -0.007708715 4.371135E-08 -0.9999703
vn -0.007708715 4.371135E-08 -0.9999703
vn 0.007708715 -4.371135E-08 0.9999703
vn 0.007708715 -4.371135E-08 0.9999703
vn 0.007708715 -4.371135E-08 0.9999703
vn 0.007708715 -4.371135E-08 0.9999703
vn -5.557064E-07 -0.9999996 -6.704156E-07
vn 5.471907E-07 -0.9999996 -4.342325E-07
vn 7.599659E-07 -0.9999996 -3.886672E-07
vn -7.684816E-07 -0.9999996 -7.159809E-07
vn 0.007708715 -4.371135E-08 0.9999703
vn 0.007708715 -4.371135E-08 0.9999703
vn 0.007708715 -4.371135E-08 0.9999703
vn 0.007708715 -4.371135E-08 0.9999703
vn -5.501685E-07 0.9999996 4.795375E-08
vn 5.485924E-07 0.9999996 -2.524068E-07
vn 7.606398E-07 0.9999996 -3.01247E-07
vn -7.625798E-07 0.9999996 4.959117E-08
vn -0.007708715 4.371135E-08 -0.9999703
vn -0.007708715 4.371135E-08 -0.9999703
vn -0.007708715 4.371135E-08 -0.9999703
vn -0.007708715 4.371135E-08 -0.9999703

vt 1.907349E-06 0.9814453
vt 1 0.9145508
vt 1.907349E-06 0.9145508
vt 1 0.9814453
vt 0.06665039 0
vt 0 1
vt 0 0
vt 0.06665039 1
vt 1 5.960464E-08
vt 0.9331055 1
vt 0.9331055 5.960464E-08
vt 1 1
vt 0.5161133 0.9814453
vt 0.8164063 0.9145508
vt 0.8164063 0.9814453
vt 0.5161133 0.9145508
vt -2.980232E-07 0.6196289
vt 0.06665039 0.1529541
vt -2.980232E-07 0.1529541
vt 0.06665039 0.6196289
vt 0.8164063 0.9814453
vt 0.5161133 0.9145508
vt 0.5161133 0.9814453
vt 0.8164063 0.9145508
vt 0.06665039 0.1529541
vt -3.576279E-07 0.6196289
vt 0.06665039 0.6196289
vt -4.172325E-07 0.1529541

g wall01_window1m_A_6_10596_1224
usemtl wall01_window1m_A_6_10596_1224
usemap wall01_window1m_A_6_10596_1224
f 1/1/1 3/3/3 2/2/2
f 2/2/2 4/4/4 1/1/1
f 5/5/5 7/7/7 6/6/6
f 6/6/6 8/8/8 5/5/5
f 9/9/9 11/11/11 10/10/10
f 10/10/10 12/12/12 9/9/9
f 13/13/13 15/15/15 14/14/14
f 14/14/14 16/16/16 13/13/13
f 17/17/17 19/19/19 18/18/18
f 18/18/18 20/20/20 17/17/17
f 21/21/21 23/23/23 22/22/22
f 22/22/22 24/24/24 21/21/21
f 25/25/25 27/27/27 26/26/26
f 26/26/26 28/28/28 25/25/25
