#wall01_door1m_9000_1122.obj

v 1.022562E-05 2.999999 -6.308037E-06
v -0.1999888 2.999998 2.999994
v -0.1999901 2.999999 -7.117297E-06
v 1.146192E-05 2.999998 2.999995
v -0.1999888 -4.563718E-07 2.999994
v 1.146192E-05 2.999998 2.999995
v 1.146192E-05 -4.563718E-07 2.999995
v -0.1999888 2.999998 2.999994
v -0.1999901 -2.359451E-07 -7.117297E-06
v 1.022562E-05 2.999999 -6.308037E-06
v -0.1999901 2.999999 -7.117297E-06
v 1.022562E-05 -2.359451E-07 -6.308037E-06
v 9.681938E-06 2.1 0.9499942
v -0.1999889 0.05250013 0.9499933
v -0.1999889 2.1 0.9499933
v 9.681938E-06 0.05250013 0.9499942
v 1.02426E-05 0.05249991 2.049994
v -0.1999892 2.099999 2.049993
v -0.1999892 0.05249991 2.049993
v 1.02426E-05 2.099999 2.049994
v 1.02426E-05 2.099999 2.049994
v -0.1999889 2.1 0.9499933
v -0.1999892 2.099999 2.049993
v 9.681938E-06 2.1 0.9499942
v 9.681938E-06 0.05250013 0.9499942
v -0.1999892 0.05249991 2.049993
v -0.1999889 0.05250013 0.9499933
v 1.02426E-05 0.05249991 2.049994

vn -3.148756E-09 0.9999995 1.454026E-07
vn -3.148756E-09 0.9999995 1.454026E-07
vn -3.148756E-09 0.9999995 1.454026E-07
vn -3.148756E-09 0.9999995 1.454026E-07
vn -0.02165025 -4.371136E-08 0.9997658
vn -0.02165025 -4.371136E-08 0.9997658
vn -0.02165025 -4.371136E-08 0.9997658
vn -0.02165025 -4.371136E-08 0.9997658
vn 0.02165025 4.371136E-08 -0.9997658
vn 0.02165025 4.371136E-08 -0.9997658
vn 0.02165025 4.371136E-08 -0.9997658
vn 0.02165025 4.371136E-08 -0.9997658
vn -0.02165025 -4.371136E-08 0.9997658
vn -0.02165025 -4.371136E-08 0.9997658
vn -0.02165025 -4.371136E-08 0.9997658
vn -0.02165025 -4.371136E-08 0.9997658
vn 0.02165025 4.371136E-08 -0.9997658
vn 0.02165025 4.371136E-08 -0.9997658
vn 0.02165025 4.371136E-08 -0.9997658
vn 0.02165025 4.371136E-08 -0.9997658
vn 9.956103E-09 -0.9999995 -4.597525E-07
vn 9.956104E-09 -0.9999995 -4.597525E-07
vn 9.956103E-09 -0.9999995 -4.597525E-07
vn 9.956103E-09 -0.9999995 -4.597525E-07
vn -3.761918E-09 0.9999995 1.737172E-07
vn -3.761918E-09 0.9999995 1.737172E-07
vn -3.761918E-09 0.9999995 1.737172E-07
vn -3.761918E-09 0.9999995 1.737172E-07

vt 3.576279E-07 0.9145508
vt 1 0.9814453
vt 3.576279E-07 0.9814453
vt 1 0.9145508
vt 1 1.192093E-07
vt 0.9331055 1
vt 0.9331055 1.192093E-07
vt 1 1
vt 5.960464E-08 3.576279E-07
vt 0.06665039 1
vt 5.960464E-08 1
vt 0.06665039 3.576279E-07
vt 0.06665039 0.05102539
vt 2.980232E-07 0.7333984
vt 2.980232E-07 0.05102539
vt 0.06665039 0.7333984
vt 2.980232E-07 0.7333984
vt 0.06665039 0.05102539
vt 0.06665039 0.7333984
vt 2.980232E-07 0.05102539
vt 0.4335938 0.9814453
vt 0.0670166 0.9145508
vt 0.4335938 0.9145508
vt 0.0670166 0.9814453
vt 0.06671143 0.9814453
vt 0.4333496 0.9145508
vt 0.06671143 0.9145508
vt 0.4333496 0.9814453

g wall01_door1m_9000_1122
usemtl wall01_door1m_9000_1122
usemap wall01_door1m_9000_1122
f 1/1/1 3/3/3 2/2/2
f 2/2/2 4/4/4 1/1/1
f 5/5/5 7/7/7 6/6/6
f 6/6/6 8/8/8 5/5/5
f 9/9/9 11/11/11 10/10/10
f 10/10/10 12/12/12 9/9/9
f 13/13/13 15/15/15 14/14/14
f 14/14/14 16/16/16 13/13/13
f 17/17/17 19/19/19 18/18/18
f 18/18/18 20/20/20 17/17/17
f 21/21/21 23/23/23 22/22/22
f 22/22/22 24/24/24 21/21/21
f 25/25/25 27/27/27 26/26/26
f 26/26/26 28/28/28 25/25/25
