#wall01_window1m_A_2_9557_1190.obj

v 5.005312E-06 0.8936517 1.049651
v 5.026153E-06 3 -9.043149E-06
v 5.026153E-06 1.595037E-07 -8.912015E-06
v 5.005312E-06 2.293652 1.049651
v 4.987975E-06 2.293652 1.949647
v 4.90653E-06 3 2.999992
v 4.90653E-06 -1.502156E-07 2.999992
v 4.987975E-06 0.8936522 1.949647

vn 0.9997656 1.776356E-15 0.02165278
vn 0.9997656 1.776356E-15 0.02165278
vn 0.9997656 1.776356E-15 0.02165278
vn 0.9997656 1.776356E-15 0.02165278
vn 0.9997656 1.776356E-15 0.02165278
vn 0.9997656 1.776356E-15 0.02165278
vn 0.9997656 1.776356E-15 0.02165278
vn 0.9997656 1.776356E-15 0.02165278

vt 0.6499023 0.2978516
vt 1 1
vt 1 0
vt 0.6499023 0.7646484
vt 0.3500977 0.7646484
vt -5.960464E-08 1
vt -5.960464E-08 5.960464E-08
vt 0.3500977 0.2978516

g wall01_window1m_A_2_9557_1190
usemtl wall01_window1m_A_2_9557_1190
usemap wall01_window1m_A_2_9557_1190
f 1/1/1 3/3/3 2/2/2
f 2/2/2 4/4/4 1/1/1
f 5/5/5 4/4/4 2/2/2
f 2/2/2 6/6/6 5/5/5
f 5/5/5 6/6/6 7/7/7
f 7/7/7 3/3/3 1/1/1
f 7/7/7 8/8/8 5/5/5
f 1/1/1 8/8/8 7/7/7
