#wall01_window2m_A_10173_659.obj

v -0.1999951 0.4700003 2.640002
v -0.1999952 2.999999 3.000001
v -0.1999952 -2.134842E-07 3.000002
v -0.1999951 2.099999 2.640002
v -0.1999932 2.1 0.3600017
v -0.1999931 3 1.244901E-06
v -0.1999931 5.661234E-08 1.372169E-06
v -0.1999932 0.4700001 0.3600017

vn -0.9999703 -8.881781E-15 0.007717606
vn -0.9999703 -8.881781E-15 0.007717606
vn -0.9999703 -8.881781E-15 0.007717606
vn -0.9999703 -8.881781E-15 0.007717606
vn -0.9999703 -8.881781E-15 0.007717606
vn -0.9999703 -8.881781E-15 0.007717606
vn -0.9999703 -8.881781E-15 0.007717606
vn -0.9999703 -8.881781E-15 0.007717606

vt 0.8798828 0.1566162
vt 1 1
vt 1 5.960464E-08
vt 0.8798828 0.7001953
vt 0.1199951 0.7001953
vt 0 1
vt 0 0
vt 0.1199951 0.1566162

g wall01_window2m_A_10173_659
usemtl wall01_window2m_A_10173_659
usemap wall01_window2m_A_10173_659
f 1/1/1 3/3/3 2/2/2
f 2/2/2 4/4/4 1/1/1
f 5/5/5 4/4/4 2/2/2
f 2/2/2 6/6/6 5/5/5
f 5/5/5 6/6/6 7/7/7
f 7/7/7 3/3/3 1/1/1
f 7/7/7 8/8/8 5/5/5
f 1/1/1 8/8/8 7/7/7
