#wall01_door1m_2_9910_1514.obj

v -0.2000115 2.999998 2.99999
v -0.2000162 2.1 0.9499894
v -0.2000113 2.999999 -9.192217E-06
v -0.2000129 2.099999 2.04999
v -0.2000129 0.05250002 2.04999
v -0.2000115 -5.394342E-07 2.99999
v -0.2000162 0.05250022 0.9499894
v -0.2000113 -1.420699E-07 -9.192217E-06

vn -0.00770171 5.617166E-14 -0.9999703
vn -0.00770171 5.617166E-14 -0.9999703
vn -0.00770171 5.617166E-14 -0.9999703
vn -0.00770171 5.617166E-14 -0.9999703
vn -0.00770171 5.617166E-14 -0.9999703
vn -0.00770171 5.617166E-14 -0.9999703
vn -0.00770171 5.617166E-14 -0.9999703
vn -0.00770171 5.617166E-14 -0.9999703

vt 1 1
vt 0.3166504 0.7001953
vt -5.960464E-08 1
vt 0.6831055 0.7001953
vt 0.6831055 0.01750183
vt 1 -1.788139E-07
vt 0.3166504 0.01750183
vt -2.384186E-07 1.192093E-07

g wall01_door1m_2_9910_1514
usemtl wall01_door1m_2_9910_1514
usemap wall01_door1m_2_9910_1514
f 1/1/1 3/3/3 2/2/2
f 2/2/2 4/4/4 1/1/1
f 1/1/1 4/4/4 5/5/5
f 5/5/5 6/6/6 1/1/1
f 6/6/6 5/5/5 7/7/7
f 7/7/7 2/2/2 3/3/3
f 7/7/7 8/8/8 6/6/6
f 3/3/3 8/8/8 7/7/7
