#wall09_10483_377.obj

v -0.2000025 2.999998 3.000006
v -3.093604E-06 2.999999 5.198672E-06
v -2.438734E-06 2.999998 3.000006
v -0.2000032 2.999999 5.779234E-06
v -0.2000032 2.999999 5.779234E-06
v -3.093604E-06 -1.530656E-08 5.329806E-06
v -3.093604E-06 2.999999 5.198672E-06
v -0.2000032 -1.530658E-08 5.040815E-06
v -2.438734E-06 2.999998 3.000006
v -0.2000025 -3.190172E-07 3.000006
v -0.2000025 2.999998 3.000006
v -2.438734E-06 -3.190172E-07 3.000006

vn 1.45414E-07 0.999999 2.567422E-09
vn 1.45414E-07 0.999999 2.567422E-09
vn 1.45414E-07 0.999999 2.567422E-09
vn 1.45414E-07 0.999999 2.567422E-09
vn -0.9998442 4.371135E-08 -0.01765319
vn -0.9998442 4.371135E-08 -0.01765319
vn -0.9998442 4.371135E-08 -0.01765319
vn -0.9998442 4.371135E-08 -0.01765319
vn 0.9998442 -4.371135E-08 0.01765319
vn 0.9998442 -4.371135E-08 0.01765319
vn 0.9998442 -4.371135E-08 0.01765319
vn 0.9998442 -4.371135E-08 0.01765319

vt 1 0.9145508
vt 3.576279E-07 0.9814453
vt 1 0.9814453
vt 3.576279E-07 0.9145508
vt 4.768372E-07 1
vt 0.06665039 0
vt 0.06665039 1
vt 2.980232E-07 0
vt 0.9331055 1
vt 1 0
vt 1 1
vt 0.9331055 0

g wall09_10483_377
usemtl wall09_10483_377
usemap wall09_10483_377
f 1/1/1 3/3/3 2/2/2
f 2/2/2 4/4/4 1/1/1
f 5/5/5 7/7/7 6/6/6
f 6/6/6 8/8/8 5/5/5
f 9/9/9 11/11/11 10/10/10
f 10/10/10 12/12/12 9/9/9
