#wall19_9750_887.obj

v -0.1999892 2.999998 2.999997
v 3.679841E-06 2.999999 -3.626217E-06
v 1.094897E-05 2.999998 2.999997
v -0.1999965 2.999999 -2.896789E-06
v -0.1999965 2.999999 -2.896789E-06
v 3.679841E-06 -1.530695E-08 -3.495083E-06
v 3.679841E-06 2.999999 -3.626217E-06
v -0.1999965 -1.530692E-08 -2.765655E-06
v 1.094897E-05 2.999998 2.999997
v -0.1999892 -3.190176E-07 2.999998
v -0.1999892 2.999998 2.999997
v 1.094897E-05 -3.190176E-07 2.999997

vn -1.454048E-07 0.9999995 3.044266E-09
vn -1.454048E-07 0.9999995 3.044266E-09
vn -1.454048E-07 0.9999995 3.044266E-09
vn -1.454048E-07 0.9999995 3.044266E-09
vn 0.9997808 4.371136E-08 -0.02093201
vn 0.9997808 4.371136E-08 -0.02093201
vn 0.9997808 4.371136E-08 -0.02093201
vn 0.9997808 4.371136E-08 -0.02093201
vn -0.9997808 -4.371136E-08 0.02093201
vn -0.9997808 -4.371136E-08 0.02093201
vn -0.9997808 -4.371136E-08 0.02093201
vn -0.9997808 -4.371136E-08 0.02093201

vt 1 0.9145508
vt 3.576279E-07 0.9814453
vt 1 0.9814453
vt 3.576279E-07 0.9145508
vt 4.768372E-07 1
vt 0.06665039 0
vt 0.06665039 1
vt 2.980232E-07 0
vt 0.9331055 1
vt 1 0
vt 1 1
vt 0.9331055 0

g wall19_9750_887
usemtl wall19_9750_887
usemap wall19_9750_887
f 1/1/1 3/3/3 2/2/2
f 2/2/2 4/4/4 1/1/1
f 5/5/5 7/7/7 6/6/6
f 6/6/6 8/8/8 5/5/5
f 9/9/9 11/11/11 10/10/10
f 10/10/10 12/12/12 9/9/9
