#wall01_door1m_9517_1643.obj

v 5.854761E-06 -6.092301E-08 -7.490709E-06
v 5.65774E-06 0.05250017 2.049993
v 5.821972E-06 0.05250034 0.949993
v 5.624951E-06 -1.502156E-07 2.999993
v 5.854761E-06 2.999999 -7.621843E-06
v 5.821972E-06 2.1 0.949993
v 5.624951E-06 2.999999 2.999993
v 5.65774E-06 2.1 2.049993

vn 0.9997656 1.776356E-15 0.02165278
vn 0.9997656 1.776356E-15 0.02165278
vn 0.9997656 1.776356E-15 0.02165278
vn 0.9997656 1.776356E-15 0.02165278
vn 0.9997656 1.776356E-15 0.02165278
vn 0.9997656 1.776356E-15 0.02165278
vn 0.9997656 1.776356E-15 0.02165278
vn 0.9997656 1.776356E-15 0.02165278

vt 1 5.960464E-08
vt 0.3166504 0.01750183
vt 0.6831055 0.01750183
vt 2.384186E-07 1.788139E-07
vt 1 1
vt 0.6831055 0.7001953
vt 1.192093E-07 1
vt 0.3166504 0.7001953

g wall01_door1m_9517_1643
usemtl wall01_door1m_9517_1643
usemap wall01_door1m_9517_1643
f 1/1/1 3/3/3 2/2/2
f 2/2/2 4/4/4 1/1/1
f 3/3/3 1/1/1 5/5/5
f 5/5/5 6/6/6 3/3/3
f 6/6/6 5/5/5 7/7/7
f 7/7/7 4/4/4 2/2/2
f 7/7/7 8/8/8 6/6/6
f 2/2/2 8/8/8 7/7/7
