#wall31_10253_1020.obj

v -0.1999989 2.999999 3.00001
v 2.837171E-06 2.999999 9.893013E-06
v 3.20496E-06 2.999999 3.00001
v -0.1999958 2.999999 1.03417E-05
v -0.1999958 2.999999 1.03417E-05
v 2.837171E-06 -1.539903E-08 9.893013E-06
v 2.837171E-06 2.999999 9.893013E-06
v -0.1999958 -1.539903E-08 1.03417E-05
v 3.20496E-06 2.999999 3.00001
v -0.1999989 -2.341317E-07 3.00001
v -0.1999989 2.999999 3.00001
v 3.20496E-06 -2.341317E-07 3.00001

vn 1.017252E-07 0.9999997 2.531009E-13
vn 1.017252E-07 0.9999997 2.531009E-13
vn 1.017252E-07 0.9999997 2.531009E-13
vn 1.017252E-07 0.9999997 2.531009E-13
vn -0.9999999 0 -2.488083E-06
vn -0.9999999 0 -2.488083E-06
vn -0.9999999 0 -2.488083E-06
vn -0.9999999 0 -2.488083E-06
vn 0.9999999 0 2.488083E-06
vn 0.9999999 0 2.488083E-06
vn 0.9999999 0 2.488083E-06
vn 0.9999999 0 2.488083E-06

vt 1 0.9145508
vt 3.576279E-07 0.9814453
vt 1 0.9814453
vt 3.576279E-07 0.9145508
vt 4.768372E-07 1
vt 0.06665039 0
vt 0.06665039 1
vt 2.980232E-07 0
vt 0.9331055 1
vt 1 0
vt 1 1
vt 0.9331055 0

g wall31_10253_1020
usemtl wall31_10253_1020
usemap wall31_10253_1020
f 1/1/1 3/3/3 2/2/2
f 2/2/2 4/4/4 1/1/1
f 5/5/5 7/7/7 6/6/6
f 6/6/6 8/8/8 5/5/5
f 9/9/9 11/11/11 10/10/10
f 10/10/10 12/12/12 9/9/9
