#wall24_10983_341.obj

v -0.2000007 2.999998 3
v -5.108053E-07 2.999999 1.624304E-07
v -4.414823E-07 2.999998 3
v -0.2000007 2.999999 1.257438E-07
v -0.2000007 2.999999 1.257438E-07
v -5.108053E-07 0 1.624304E-07
v -5.108053E-07 2.999999 1.624304E-07
v -0.2000007 0 1.257438E-07
v -4.414823E-07 2.999998 3
v -0.2000007 -2.054191E-07 3
v -0.2000007 2.999998 3
v -1.263158E-06 -2.054191E-07 3

vn -1.016741E-07 0.9999999 4.383038E-08
vn -1.016741E-07 0.9999999 4.383038E-08
vn -1.016741E-07 0.9999999 4.383038E-08
vn -1.016741E-07 0.9999999 4.383038E-08
vn 0.9999995 0 -0.001169924
vn 0.9999995 0 -0.001169924
vn 0.9999995 0 -0.001169924
vn 0.9999995 0 -0.001169924
vn -0.9999995 0 0.001169924
vn -0.9999995 0 0.001169924
vn -0.9999995 0 0.001169924
vn -0.9999995 0 0.001169924

vt 1 0.9145508
vt 3.576279E-07 0.9814453
vt 1 0.9814453
vt 3.576279E-07 0.9145508
vt 4.768372E-07 1
vt 0.06665039 0
vt 0.06665039 1
vt 2.980232E-07 0
vt 0.9331055 1
vt 1 0
vt 1 1
vt 0.9331055 0

g wall24_10983_341
usemtl wall24_10983_341
usemap wall24_10983_341
f 1/1/1 3/3/3 2/2/2
f 2/2/2 4/4/4 1/1/1
f 5/5/5 7/7/7 6/6/6
f 6/6/6 8/8/8 5/5/5
f 9/9/9 11/11/11 10/10/10
f 10/10/10 12/12/12 9/9/9
