#wall06_10934_300.obj

v -0.1999969 2.999998 3
v 3.145934E-06 2.999999 -2.157106E-06
v 2.761809E-06 2.999998 2.999999
v -0.1999965 2.999999 -1.566869E-06
v -0.1999965 2.999999 -1.566869E-06
v 3.145934E-06 -1.530688E-08 -2.025972E-06
v 3.145934E-06 2.999999 -2.157106E-06
v -0.1999965 -1.530686E-08 -1.435735E-06
v 2.761809E-06 2.999998 2.999999
v -0.1999969 -3.190175E-07 2.999999
v -0.1999969 2.999998 3
v 2.761809E-06 -3.190175E-07 2.999999

vn -2.568031E-09 0.9999989 1.45414E-07
vn -2.568031E-09 0.9999989 1.45414E-07
vn -2.568031E-09 0.9999989 1.45414E-07
vn -2.568031E-09 0.9999989 1.45414E-07
vn 0.01765746 4.371135E-08 -0.9998441
vn 0.01765746 4.371135E-08 -0.9998441
vn 0.01765746 4.371135E-08 -0.9998441
vn 0.01765746 4.371135E-08 -0.9998441
vn -0.01765746 -4.371135E-08 0.9998441
vn -0.01765746 -4.371135E-08 0.9998441
vn -0.01765746 -4.371135E-08 0.9998441
vn -0.01765746 -4.371135E-08 0.9998441

vt 1 0.9145508
vt 3.576279E-07 0.9814453
vt 1 0.9814453
vt 3.576279E-07 0.9145508
vt 4.768372E-07 1
vt 0.06665039 0
vt 0.06665039 1
vt 2.980232E-07 0
vt 0.9331055 1
vt 1 0
vt 1 1
vt 0.9331055 0

g wall06_10934_300
usemtl wall06_10934_300
usemap wall06_10934_300
f 1/1/1 3/3/3 2/2/2
f 2/2/2 4/4/4 1/1/1
f 5/5/5 7/7/7 6/6/6
f 6/6/6 8/8/8 5/5/5
f 9/9/9 11/11/11 10/10/10
f 10/10/10 12/12/12 9/9/9
