#wall01_window1m_B_1_9869_1072.obj

v -0.1999959 1.09365 1.949647
v -0.199996 2.999999 2.999992
v -0.199996 -1.194472E-06 2.999988
v -0.1999959 2.09365 1.949648
v -0.1999958 2.093651 1.049651
v -0.1999957 2.999999 -1.051464E-05
v -0.1999956 -5.319871E-07 -7.93385E-06
v -0.1999958 1.09365 1.049649

vn -0.004556228 -0.001225702 0.9999889
vn -0.004556228 -0.001225702 0.9999889
vn -0.004556228 -0.001225702 0.9999889
vn -0.004556228 -0.001225702 0.9999889
vn -0.004556228 -0.001225702 0.9999889
vn -0.004556228 -0.001225702 0.9999889
vn -0.004556228 -0.001225702 0.9999889
vn -0.004556228 -0.001225702 0.9999889

vt 0.6499023 0.364502
vt 1 1
vt 1 -5.960464E-07
vt 0.6499023 0.6977539
vt 0.3498535 0.6977539
vt 5.364418E-07 1
vt 4.768372E-07 -4.768372E-07
vt 0.3498535 0.364502

g wall01_window1m_B_1_9869_1072
usemtl wall01_window1m_B_1_9869_1072
usemap wall01_window1m_B_1_9869_1072
f 1/1/1 3/3/3 2/2/2
f 2/2/2 4/4/4 1/1/1
f 5/5/5 4/4/4 2/2/2
f 2/2/2 6/6/6 5/5/5
f 5/5/5 6/6/6 7/7/7
f 7/7/7 3/3/3 1/1/1
f 7/7/7 8/8/8 5/5/5
f 1/1/1 8/8/8 7/7/7
