#wall01_window1m_A_10896_1369.obj

v -1.064178E-05 0.8936518 1.049648
v -9.076257E-06 3 -1.310021E-05
v -9.076257E-06 5.661229E-08 -1.310021E-05
v -1.064178E-05 2.293652 1.049648
v -8.747706E-06 2.293652 1.949644
v -9.226546E-06 2.999999 2.999988
v -9.226546E-06 -3.40752E-07 2.999988
v -8.747706E-06 0.8936518 1.949644

vn 0.007712241 -1.166692E-14 0.9999703
vn 0.007712241 -1.166692E-14 0.9999703
vn 0.007712241 -1.166692E-14 0.9999703
vn 0.007712241 -1.166692E-14 0.9999703
vn 0.007712241 -1.166692E-14 0.9999703
vn 0.007712241 -1.166692E-14 0.9999703
vn 0.007712241 -1.166692E-14 0.9999703
vn 0.007712241 -1.166692E-14 0.9999703

vt 0.6499023 0.2978516
vt 1 1
vt 1 0
vt 0.6499023 0.7646484
vt 0.3500977 0.7646484
vt -5.960464E-08 1
vt -5.960464E-08 5.960464E-08
vt 0.3500977 0.2978516

g wall01_window1m_A_10896_1369
usemtl wall01_window1m_A_10896_1369
usemap wall01_window1m_A_10896_1369
f 1/1/1 3/3/3 2/2/2
f 2/2/2 4/4/4 1/1/1
f 5/5/5 4/4/4 2/2/2
f 2/2/2 6/6/6 5/5/5
f 5/5/5 6/6/6 7/7/7
f 7/7/7 3/3/3 1/1/1
f 7/7/7 8/8/8 5/5/5
f 1/1/1 8/8/8 7/7/7
