#wall01_door1m_1_9260_1567.obj

v 2.994003E-06 -2.341311E-07 1.213941E-05
v 1.395405E-06 0.05250006 2.050013
v 1.99711E-06 0.05250001 0.9500116
v 3.898233E-06 -3.217296E-07 3.000012
v 2.994003E-06 2.999999 1.200827E-05
v 1.99711E-06 2.1 0.9500115
v 3.898233E-06 2.999998 3.000012
v 1.395405E-06 2.1 2.050013

vn 2.460741E-06 -4.737146E-15 -1
vn 2.460741E-06 -4.737146E-15 -1
vn 2.460741E-06 -4.737146E-15 -1
vn 2.460741E-06 -4.737146E-15 -1
vn 2.460741E-06 -4.737146E-15 -1
vn 2.460741E-06 -4.737146E-15 -1
vn 2.460741E-06 -4.737146E-15 -1
vn 2.460741E-06 -4.737146E-15 -1

vt 1 5.960464E-08
vt 0.3166504 0.01750183
vt 0.6831055 0.01750183
vt 2.384186E-07 1.788139E-07
vt 1 1
vt 0.6831055 0.7001953
vt 1.192093E-07 1
vt 0.3166504 0.7001953

g wall01_door1m_1_9260_1567
usemtl wall01_door1m_1_9260_1567
usemap wall01_door1m_1_9260_1567
f 1/1/1 3/3/3 2/2/2
f 2/2/2 4/4/4 1/1/1
f 3/3/3 1/1/1 5/5/5
f 5/5/5 6/6/6 3/3/3
f 6/6/6 5/5/5 7/7/7
f 7/7/7 4/4/4 2/2/2
f 7/7/7 8/8/8 6/6/6
f 2/2/2 8/8/8 7/7/7
