#wall01_window2m_A_2_9906_232.obj

v 3.885154E-05 0.4699999 0.3599617
v 3.847141E-05 3 -3.861538E-05
v 3.847141E-05 -2.472161E-08 -3.861538E-05
v 3.885154E-05 2.1 0.3599617
v 3.769591E-05 2.099999 2.639961
v 3.807604E-05 3 2.999961
v 3.807604E-05 -2.475427E-07 2.999961
v 3.769591E-05 0.4700001 2.639961

vn 0.0006825282 -4.371135E-08 0.9999998
vn 0.0006825282 -4.371135E-08 0.9999998
vn 0.0006825282 -4.371135E-08 0.9999998
vn 0.0006825282 -4.371135E-08 0.9999998
vn 0.0006825282 -4.371135E-08 0.9999998
vn 0.0006825282 -4.371135E-08 0.9999998
vn 0.0006825282 -4.371135E-08 0.9999998
vn 0.0006825282 -4.371135E-08 0.9999998

vt 0.8798828 0.1566162
vt 1 1
vt 1 0
vt 0.8798828 0.7001953
vt 0.1199951 0.7001953
vt -5.960464E-08 1
vt -5.960464E-08 5.960464E-08
vt 0.1199951 0.1566162

g wall01_window2m_A_2_9906_232
usemtl wall01_window2m_A_2_9906_232
usemap wall01_window2m_A_2_9906_232
f 1/1/1 3/3/3 2/2/2
f 2/2/2 4/4/4 1/1/1
f 5/5/5 4/4/4 2/2/2
f 2/2/2 6/6/6 5/5/5
f 5/5/5 6/6/6 7/7/7
f 7/7/7 3/3/3 1/1/1
f 7/7/7 8/8/8 5/5/5
f 1/1/1 8/8/8 7/7/7
