#wall01_window1m_A_4_11309_1442.obj

v 2.36383E-06 0.8936515 1.049649
v 2.554652E-06 3 -1.134604E-05
v 2.341847E-06 -7.595153E-08 -1.134065E-05
v 2.36383E-06 2.293652 1.049649
v 2.429728E-06 2.293652 1.949647
v 2.450121E-06 2.999999 2.999989
v 2.237315E-06 -2.888252E-07 2.999989
v 2.429728E-06 0.8936519 1.949647

vn 0.9996799 -4.371137E-08 0.02530235
vn 0.9996799 -4.371137E-08 0.02530235
vn 0.9996799 -4.371137E-08 0.02530235
vn 0.9996799 -4.371137E-08 0.02530235
vn 0.9996799 -4.371137E-08 0.02530235
vn 0.9996799 -4.371137E-08 0.02530235
vn 0.9996799 -4.371137E-08 0.02530235
vn 0.9996799 -4.371137E-08 0.02530235

vt 0.6499023 0.2978516
vt 1 1
vt 1 0
vt 0.6499023 0.7646484
vt 0.3500977 0.7646484
vt -5.960464E-08 1
vt -5.960464E-08 5.960464E-08
vt 0.3500977 0.2978516

g wall01_window1m_A_4_11309_1442
usemtl wall01_window1m_A_4_11309_1442
usemap wall01_window1m_A_4_11309_1442
f 1/1/1 3/3/3 2/2/2
f 2/2/2 4/4/4 1/1/1
f 5/5/5 4/4/4 2/2/2
f 2/2/2 6/6/6 5/5/5
f 5/5/5 6/6/6 7/7/7
f 7/7/7 3/3/3 1/1/1
f 7/7/7 8/8/8 5/5/5
f 1/1/1 8/8/8 7/7/7
