#wall01_door1m_1_19895_394.obj

v -5.183038E-07 -4.713578E-09 4.06345E-07
v 1.934035E-07 0.05249986 2.05
v -1.361617E-06 0.05250023 0.9500002
v -6.499048E-07 -2.871446E-07 3
v -5.183036E-07 2.999999 2.741351E-07
v -1.361617E-06 2.1 0.9500001
v -6.499149E-07 2.999998 3.000001
v 1.934037E-07 2.099999 2.05

vn 6.079674E-06 6.57252E-14 1
vn 6.079674E-06 6.57252E-14 1
vn 6.079674E-06 6.57252E-14 1
vn 6.079674E-06 6.57252E-14 1
vn 6.079674E-06 6.57252E-14 1
vn 6.079674E-06 6.57252E-14 1
vn 6.079674E-06 6.57252E-14 1
vn 6.079674E-06 6.57252E-14 1

vt 1 5.960464E-08
vt 0.3166504 0.01750183
vt 0.6831055 0.01750183
vt 2.384186E-07 1.788139E-07
vt 1 1
vt 0.6831055 0.7001953
vt 1.192093E-07 1
vt 0.3166504 0.7001953

g wall01_door1m_1_19895_394
usemtl wall01_door1m_1_19895_394
usemap wall01_door1m_1_19895_394
f 1/1/1 3/3/3 2/2/2
f 2/2/2 4/4/4 1/1/1
f 3/3/3 1/1/1 5/5/5
f 5/5/5 6/6/6 3/3/3
f 6/6/6 5/5/5 7/7/7
f 7/7/7 4/4/4 2/2/2
f 7/7/7 8/8/8 6/6/6
f 2/2/2 8/8/8 7/7/7
