#wall01_door1m_5_9106_1046.obj

v -0.1999873 2.999999 2.999997
v -0.1999876 2.1 0.9499969
v -0.1999859 2.999999 -2.521866E-06
v -0.1999891 2.099999 2.049998
v -0.1999891 0.05249997 2.049998
v -0.1999908 -4.528643E-07 2.999997
v -0.1999876 0.05250019 0.9499969
v -0.1999859 -2.341317E-07 -2.521866E-06

vn -1 4.371138E-08 -2.706816E-06
vn -1 4.371138E-08 -2.706816E-06
vn -1 4.371138E-08 -2.706816E-06
vn -1 4.371138E-08 -2.706816E-06
vn -1 4.371138E-08 -2.706816E-06
vn -1 4.371138E-08 -2.706816E-06
vn -1 4.371138E-08 -2.706816E-06
vn -1 4.371138E-08 -2.706816E-06

vt 1 1
vt 0.3166504 0.7001953
vt -5.960464E-08 1
vt 0.6831055 0.7001953
vt 0.6831055 0.01750183
vt 1 -1.788139E-07
vt 0.3166504 0.01750183
vt -2.384186E-07 1.192093E-07

g wall01_door1m_5_9106_1046
usemtl wall01_door1m_5_9106_1046
usemap wall01_door1m_5_9106_1046
f 1/1/1 3/3/3 2/2/2
f 2/2/2 4/4/4 1/1/1
f 1/1/1 4/4/4 5/5/5
f 5/5/5 6/6/6 1/1/1
f 6/6/6 5/5/5 7/7/7
f 7/7/7 2/2/2 3/3/3
f 7/7/7 8/8/8 6/6/6
f 3/3/3 8/8/8 7/7/7
