#wall02_9077_563.obj

v -0.1999605 2.999998 2.999964
v 4.049612E-05 2.999999 -3.739136E-05
v 4.009954E-05 2.999998 2.999964
v -0.1999601 2.999999 -3.841125E-05
v -0.1999601 2.999999 -3.841125E-05
v 4.049612E-05 3.488303E-08 -3.739136E-05
v 4.049612E-05 2.999999 -3.739136E-05
v -0.1999601 3.488303E-08 -3.841125E-05
v 4.009954E-05 2.999998 2.999964
v -0.1999605 -1.879381E-07 2.999964
v -0.1999605 2.999998 2.999964
v 4.009954E-05 -1.879381E-07 2.999964

vn -1.016954E-07 0.9999989 4.378079E-08
vn -1.016954E-07 0.9999989 4.378079E-08
vn -1.016954E-07 0.9999989 4.378079E-08
vn -1.016954E-07 0.9999989 4.378079E-08
vn 0.9999998 1.494237E-14 -0.0006822775
vn 0.9999998 1.494237E-14 -0.0006822775
vn 0.9999998 1.494237E-14 -0.0006822775
vn 0.9999998 1.494237E-14 -0.0006822775
vn -0.9999998 -1.494237E-14 0.0006822775
vn -0.9999998 -1.494237E-14 0.0006822775
vn -0.9999998 -1.494237E-14 0.0006822775
vn -0.9999998 -1.494237E-14 0.0006822775

vt 1 0.9145508
vt 3.576279E-07 0.9814453
vt 1 0.9814453
vt 3.576279E-07 0.9145508
vt 4.768372E-07 1
vt 0.06665039 0
vt 0.06665039 1
vt 2.980232E-07 0
vt 0.9331055 1
vt 1 0
vt 1 1
vt 0.9331055 0

g wall02_9077_563
usemtl wall02_9077_563
usemap wall02_9077_563
f 1/1/1 3/3/3 2/2/2
f 2/2/2 4/4/4 1/1/1
f 5/5/5 7/7/7 6/6/6
f 6/6/6 8/8/8 5/5/5
f 9/9/9 11/11/11 10/10/10
f 10/10/10 12/12/12 9/9/9
