#wall01_window1m_A_2_9394_1747.obj

v 1.878822E-06 0.8936515 1.049646
v 1.442663E-06 3 -1.073173E-05
v 1.442663E-06 -7.5952E-08 -1.060059E-05
v 1.878822E-06 2.293652 1.049646
v 1.370389E-06 2.293652 1.949644
v 4.877252E-07 2.999999 2.999989
v 4.015467E-07 -3.705655E-07 2.999986
v 1.370389E-06 0.893652 1.949644

vn 0.025302 1.776356E-15 -0.9996798
vn 0.025302 1.776356E-15 -0.9996798
vn 0.025302 1.776356E-15 -0.9996798
vn 0.025302 1.776356E-15 -0.9996798
vn 0.025302 1.776356E-15 -0.9996798
vn 0.025302 1.776356E-15 -0.9996798
vn 0.025302 1.776356E-15 -0.9996798
vn 0.025302 1.776356E-15 -0.9996798

vt 0.6499023 0.2978516
vt 1 1
vt 1 0
vt 0.6499023 0.7646484
vt 0.3500977 0.7646484
vt -5.960464E-08 1
vt -5.960464E-08 5.960464E-08
vt 0.3500977 0.2978516

g wall01_window1m_A_2_9394_1747
usemtl wall01_window1m_A_2_9394_1747
usemap wall01_window1m_A_2_9394_1747
f 1/1/1 3/3/3 2/2/2
f 2/2/2 4/4/4 1/1/1
f 5/5/5 4/4/4 2/2/2
f 2/2/2 6/6/6 5/5/5
f 5/5/5 6/6/6 7/7/7
f 7/7/7 3/3/3 1/1/1
f 7/7/7 8/8/8 5/5/5
f 1/1/1 8/8/8 7/7/7
