#wall01_interior_door1m_11169_1451.obj

v 4.515362E-06 2.099999 0.949994
v 4.607271E-06 -1.396837E-07 -5.681701E-06
v 4.515362E-06 0.05249959 0.949994
v 4.607271E-06 2.999999 -5.681701E-06
v 3.874204E-06 2.999998 2.799994
v 4.219391E-06 2.099999 2.049997
v 4.219391E-06 0.0525 2.049997
v 3.874204E-06 -7.519112E-07 2.799994
v 4.219391E-06 -5.478354E-07 2.049997
v 4.515362E-06 -3.437596E-07 0.949994

vn 0.008645768 9.979565E-15 -0.9999626
vn 0.008645768 9.979565E-15 -0.9999626
vn 0.008645768 9.979565E-15 -0.9999626
vn 0.008645768 9.979565E-15 -0.9999626
vn 0.008645768 9.979565E-15 -0.9999626
vn 0.008645768 9.979565E-15 -0.9999626
vn 0.008645768 9.979565E-15 -0.9999626
vn 0.008645768 9.979565E-15 -0.9999626
vn 0.008645768 9.979565E-15 -0.9999626
vn 0.008645768 9.979565E-15 -0.9999626

vt 0.6166992 0.7001953
vt 0.9331055 1.192093E-07
vt 0.6166992 0.01750183
vt 0.9331055 1
vt 0 1
vt 0.25 0.7001953
vt 0.25 0.01750183
vt 0 0
vt 0.25 5.960464E-08
vt 0.6166992 5.960464E-08

g wall01_interior_door1m_11169_1451
usemtl wall01_interior_door1m_11169_1451
usemap wall01_interior_door1m_11169_1451
f 1/1/1 3/3/3 2/2/2
f 2/2/2 4/4/4 1/1/1
f 1/1/1 4/4/4 5/5/5
f 5/5/5 6/6/6 1/1/1
f 7/7/7 6/6/6 5/5/5
f 5/5/5 8/8/8 7/7/7
f 3/3/3 7/7/7 9/9/9
f 8/8/8 9/9/9 7/7/7
f 9/9/9 10/10/10 3/3/3
f 3/3/3 10/10/10 2/2/2
