#wall01_door1m_8764_1519.obj

v -1.037929E-07 -2.888257E-07 -1.034371E-05
v -3.90343E-07 0.0525 2.049989
v -7.7218E-07 0.05250016 0.9499897
v -1.05873E-06 -5.83439E-07 2.99999
v -1.037929E-07 2.999999 -1.047484E-05
v -7.7218E-07 2.1 0.9499896
v -1.05873E-06 2.999998 2.999989
v -3.90343E-07 2.099999 2.049989

vn 0.025302 1.776356E-15 -0.9996798
vn 0.025302 1.776356E-15 -0.9996798
vn 0.025302 1.776356E-15 -0.9996798
vn 0.025302 1.776356E-15 -0.9996798
vn 0.025302 1.776356E-15 -0.9996798
vn 0.025302 1.776356E-15 -0.9996798
vn 0.025302 1.776356E-15 -0.9996798
vn 0.025302 1.776356E-15 -0.9996798

vt 1 5.960464E-08
vt 0.3166504 0.01750183
vt 0.6831055 0.01750183
vt 2.384186E-07 1.788139E-07
vt 1 1
vt 0.6831055 0.7001953
vt 1.192093E-07 1
vt 0.3166504 0.7001953

g wall01_door1m_8764_1519
usemtl wall01_door1m_8764_1519
usemap wall01_door1m_8764_1519
f 1/1/1 3/3/3 2/2/2
f 2/2/2 4/4/4 1/1/1
f 3/3/3 1/1/1 5/5/5
f 5/5/5 6/6/6 3/3/3
f 6/6/6 5/5/5 7/7/7
f 7/7/7 4/4/4 2/2/2
f 7/7/7 8/8/8 6/6/6
f 2/2/2 8/8/8 7/7/7
