#wall01_window1m_A_10755_1525.obj

v -0.1999971 0.8936517 1.949657
v -0.1999951 3 3.000001
v -0.1999951 -1.502152E-07 3.000001
v -0.1999971 2.293652 1.949657
v -0.1999954 2.293653 1.049661
v -0.1999968 3 5.740735E-07
v -0.1999968 1.595041E-07 4.848326E-07
v -0.1999954 0.8936521 1.049661

vn -0.02165272 0 0.9997656
vn -0.02165272 0 0.9997656
vn -0.02165272 0 0.9997656
vn -0.02165272 0 0.9997656
vn -0.02165272 0 0.9997656
vn -0.02165272 0 0.9997656
vn -0.02165272 0 0.9997656
vn -0.02165272 0 0.9997656

vt 0.6499023 0.2978516
vt 1 1
vt 1 5.960464E-08
vt 0.6499023 0.7646484
vt 0.3498535 0.7646484
vt 0 1
vt 0 0
vt 0.3498535 0.2978516

g wall01_window1m_A_10755_1525
usemtl wall01_window1m_A_10755_1525
usemap wall01_window1m_A_10755_1525
f 1/1/1 3/3/3 2/2/2
f 2/2/2 4/4/4 1/1/1
f 5/5/5 4/4/4 2/2/2
f 2/2/2 6/6/6 5/5/5
f 5/5/5 6/6/6 7/7/7
f 7/7/7 3/3/3 1/1/1
f 7/7/7 8/8/8 5/5/5
f 1/1/1 8/8/8 7/7/7
