#wall01_interior_2_8766_1399.obj

v -0.199992 2.999999 2.800004
v -0.1999906 9.699549E-09 3.542171E-06
v -0.1999906 2.999999 3.432819E-06
v -0.199992 -2.090331E-07 2.800004

vn -0.9998744 1.740817E-14 0.0158495
vn -0.9998744 1.740817E-14 0.0158495
vn -0.9998744 1.740817E-14 0.0158495
vn -0.9998744 1.740817E-14 0.0158495

vt 1 1
vt 0.06665039 0
vt 0.06665039 1
vt 1 0

g wall01_interior_2_8766_1399
usemtl wall01_interior_2_8766_1399
usemap wall01_interior_2_8766_1399
f 1/1/1 3/3/3 2/2/2
f 2/2/2 4/4/4 1/1/1
