#wall01_window1m_A_2_8742_1191.obj

v 1.098778E-05 3 -5.296032E-06
v -0.199989 3 2.999995
v -0.1999876 3 -4.881991E-06
v 9.562171E-06 3 2.999995
v 1.098778E-05 -1.539903E-08 -5.296032E-06
v -0.1999876 3 -4.881991E-06
v -0.1999876 -1.539903E-08 -4.881991E-06
v 1.098778E-05 3 -5.296032E-06
v -0.199989 -2.341316E-07 2.999995
v 9.562171E-06 3 2.999995
v 9.562171E-06 -2.341316E-07 2.999995
v -0.199989 3 2.999995
v 9.438272E-06 2.293652 1.049656
v -0.1999875 2.293651 1.949652
v 1.111041E-05 2.293651 1.949651
v -0.1999892 2.293652 1.049656
v 9.438272E-06 0.8936514 1.049656
v -0.1999892 2.293652 1.049656
v 9.438272E-06 2.293652 1.049656
v -0.1999892 0.8936518 1.049656
v 1.111041E-05 0.8936518 1.949651
v -0.1999892 0.8936518 1.049656
v 9.438272E-06 0.8936514 1.049656
v -0.1999875 0.8936518 1.949652
v 1.111041E-05 2.293651 1.949651
v -0.1999875 0.8936518 1.949652
v 1.111041E-05 0.8936518 1.949651
v -0.1999875 2.293651 1.949652

vn 4.371119E-08 0.9999998 1.017254E-07
vn 4.371119E-08 0.9999998 1.017254E-07
vn 4.371119E-08 0.9999998 1.017254E-07
vn 4.371119E-08 0.9999998 1.017254E-07
vn 1.941252E-06 3.552713E-15 -1
vn 1.941252E-06 3.552713E-15 -1
vn 1.941252E-06 3.552713E-15 -1
vn 1.941252E-06 3.552713E-15 -1
vn -1.941252E-06 -3.552713E-15 1
vn -1.941252E-06 -3.552713E-15 1
vn -1.941252E-06 -3.552713E-15 1
vn -1.941252E-06 -3.552713E-15 1
vn -5.94232E-07 -0.9999998 -6.309693E-07
vn 5.068112E-07 -0.9999998 -3.862891E-07
vn 7.192288E-07 -0.9999998 -3.390845E-07
vn -8.066496E-07 -0.9999998 -6.781739E-07
vn -1.941252E-06 -3.552713E-15 1
vn -1.941252E-06 -3.552713E-15 1
vn -1.941252E-06 -3.552713E-15 1
vn -1.941252E-06 -3.552713E-15 1
vn -5.068105E-07 0.9999998 -1.10476E-12
vn 5.942338E-07 0.9999998 -2.918806E-07
vn 8.066515E-07 0.9999998 -3.390843E-07
vn -7.192281E-07 0.9999998 -1.569387E-12
vn 1.941252E-06 3.552713E-15 -1
vn 1.941252E-06 3.552713E-15 -1
vn 1.941252E-06 3.552713E-15 -1
vn 1.941252E-06 3.552713E-15 -1

vt 1.907349E-06 0.9814453
vt 1 0.9145508
vt 1.907349E-06 0.9145508
vt 1 0.9814453
vt 0.06665039 0
vt 0 1
vt 0 0
vt 0.06665039 1
vt 1 5.960464E-08
vt 0.9331055 1
vt 0.9331055 5.960464E-08
vt 1 1
vt 0.5161133 0.9814453
vt 0.8164063 0.9145508
vt 0.8164063 0.9814453
vt 0.5161133 0.9145508
vt -2.980232E-07 0.6196289
vt 0.06665039 0.1529541
vt -2.980232E-07 0.1529541
vt 0.06665039 0.6196289
vt 0.8164063 0.9814453
vt 0.5161133 0.9145508
vt 0.5161133 0.9814453
vt 0.8164063 0.9145508
vt 0.06665039 0.1529541
vt -3.576279E-07 0.6196289
vt 0.06665039 0.6196289
vt -4.172325E-07 0.1529541

g wall01_window1m_A_2_8742_1191
usemtl wall01_window1m_A_2_8742_1191
usemap wall01_window1m_A_2_8742_1191
f 1/1/1 3/3/3 2/2/2
f 2/2/2 4/4/4 1/1/1
f 5/5/5 7/7/7 6/6/6
f 6/6/6 8/8/8 5/5/5
f 9/9/9 11/11/11 10/10/10
f 10/10/10 12/12/12 9/9/9
f 13/13/13 15/15/15 14/14/14
f 14/14/14 16/16/16 13/13/13
f 17/17/17 19/19/19 18/18/18
f 18/18/18 20/20/20 17/17/17
f 21/21/21 23/23/23 22/22/22
f 22/22/22 24/24/24 21/21/21
f 25/25/25 27/27/27 26/26/26
f 26/26/26 28/28/28 25/25/25
