#wall01_door1m_4_9559_1621.obj

v 1.219095E-05 2.999999 5.648705E-06
v -0.1999908 2.999998 3.000006
v -0.1999846 2.999999 5.563115E-06
v 1.306939E-05 2.999998 3.000006
v -0.1999908 -4.226414E-07 3.000006
v 1.306939E-05 2.999998 3.000006
v 1.306939E-05 -4.226414E-07 3.000007
v -0.1999908 2.999998 3.000006
v -0.1999846 -1.12922E-07 5.694249E-06
v 1.219095E-05 2.999999 5.648705E-06
v -0.1999846 2.999999 5.563115E-06
v 1.219095E-05 -1.12922E-07 5.779839E-06
v 1.375754E-05 2.1 0.9500058
v -0.1999901 0.05249985 0.9500059
v -0.1999901 2.1 0.9500058
v 1.375754E-05 0.05249985 0.9500058
v 1.149326E-05 0.0524999 2.050006
v -0.1999853 2.1 2.050006
v -0.1999853 0.0524999 2.050006
v 1.149326E-05 2.1 2.050006
v 1.149326E-05 2.1 2.050006
v -0.1999901 2.1 0.9500058
v -0.1999853 2.1 2.050006
v 1.375754E-05 2.1 0.9500058
v 1.375754E-05 0.05249985 0.9500058
v -0.1999853 0.0524999 2.050006
v -0.1999901 0.05249985 0.9500059
v 1.149326E-05 0.0524999 2.050006

vn 1.454025E-07 0.9999993 3.149033E-09
vn 1.454025E-07 0.9999993 3.149033E-09
vn 1.454025E-07 0.9999993 3.149033E-09
vn 1.454025E-07 0.9999993 3.149033E-09
vn 0.9997655 -4.371133E-08 0.02165267
vn 0.9997655 -4.371133E-08 0.02165267
vn 0.9997655 -4.371133E-08 0.02165267
vn 0.9997655 -4.371133E-08 0.02165267
vn -0.9997655 4.371133E-08 -0.02165267
vn -0.9997655 4.371133E-08 -0.02165267
vn -0.9997655 4.371133E-08 -0.02165267
vn -0.9997655 4.371133E-08 -0.02165267
vn 0.9997655 -4.371133E-08 0.02165267
vn 0.9997655 -4.371133E-08 0.02165267
vn 0.9997655 -4.371133E-08 0.02165267
vn 0.9997655 -4.371133E-08 0.02165267
vn -0.9997655 4.371133E-08 -0.02165267
vn -0.9997655 4.371133E-08 -0.02165267
vn -0.9997655 4.371133E-08 -0.02165267
vn -0.9997655 4.371133E-08 -0.02165267
vn -4.597523E-07 -0.9999993 -9.957142E-09
vn -4.597523E-07 -0.9999993 -9.957142E-09
vn -4.597523E-07 -0.9999993 -9.957142E-09
vn -4.597523E-07 -0.9999993 -9.957142E-09
vn 1.737171E-07 0.9999993 3.762264E-09
vn 1.737171E-07 0.9999993 3.762264E-09
vn 1.737171E-07 0.9999993 3.762264E-09
vn 1.737171E-07 0.9999993 3.762264E-09

vt 3.576279E-07 0.9145508
vt 1 0.9814453
vt 3.576279E-07 0.9814453
vt 1 0.9145508
vt 1 1.192093E-07
vt 0.9331055 1
vt 0.9331055 1.192093E-07
vt 1 1
vt 5.960464E-08 3.576279E-07
vt 0.06665039 1
vt 5.960464E-08 1
vt 0.06665039 3.576279E-07
vt 0.06665039 0.05102539
vt 2.980232E-07 0.7333984
vt 2.980232E-07 0.05102539
vt 0.06665039 0.7333984
vt 2.980232E-07 0.7333984
vt 0.06665039 0.05102539
vt 0.06665039 0.7333984
vt 2.980232E-07 0.05102539
vt 0.4335938 0.9814453
vt 0.0670166 0.9145508
vt 0.4335938 0.9145508
vt 0.0670166 0.9814453
vt 0.06671143 0.9814453
vt 0.4333496 0.9145508
vt 0.06671143 0.9145508
vt 0.4333496 0.9814453

g wall01_door1m_4_9559_1621
usemtl wall01_door1m_4_9559_1621
usemap wall01_door1m_4_9559_1621
f 1/1/1 3/3/3 2/2/2
f 2/2/2 4/4/4 1/1/1
f 5/5/5 7/7/7 6/6/6
f 6/6/6 8/8/8 5/5/5
f 9/9/9 11/11/11 10/10/10
f 10/10/10 12/12/12 9/9/9
f 13/13/13 15/15/15 14/14/14
f 14/14/14 16/16/16 13/13/13
f 17/17/17 19/19/19 18/18/18
f 18/18/18 20/20/20 17/17/17
f 21/21/21 23/23/23 22/22/22
f 22/22/22 24/24/24 21/21/21
f 25/25/25 27/27/27 26/26/26
f 26/26/26 28/28/28 25/25/25
