#wall01_door2m_11325_205.obj

v 3.339755E-05 -2.475427E-07 -3.570215E-05
v 3.341588E-05 0.05249953 2.549968
v 3.298022E-05 0.05249975 0.4499665
v 3.300098E-05 -4.703639E-07 2.999966
v 3.339755E-05 2.999999 -3.570215E-05
v 3.298022E-05 2.1 0.4499665
v 3.300098E-05 2.999998 2.999966
v 3.341588E-05 2.099999 2.549968

vn 0.0006825282 -4.371135E-08 0.9999998
vn 0.0006825282 -3.02744E-07 0.9999998
vn 0.0006825282 1.895372E-07 0.9999998
vn 0.0006825282 -4.371135E-08 0.9999998
vn 0.0006825282 -4.371135E-08 0.9999998
vn 0.0006825282 -4.371135E-08 0.9999998
vn 0.0006825282 -4.371135E-08 0.9999998
vn 0.0006825282 -4.371135E-08 0.9999998

vt 1 5.960464E-08
vt 0.1500244 0.01750183
vt 0.8500977 0.01750183
vt 2.384186E-07 1.788139E-07
vt 1 1
vt 0.8500977 0.7001953
vt 1.192093E-07 1
vt 0.1500244 0.7001953

g wall01_door2m_11325_205
usemtl wall01_door2m_11325_205
usemap wall01_door2m_11325_205
f 1/1/1 3/3/3 2/2/2
f 2/2/2 4/4/4 1/1/1
f 3/3/3 1/1/1 5/5/5
f 5/5/5 6/6/6 3/3/3
f 6/6/6 5/5/5 7/7/7
f 7/7/7 4/4/4 2/2/2
f 7/7/7 8/8/8 6/6/6
f 2/2/2 8/8/8 7/7/7
