#wall01_window1m_A_6_10952_790.obj

v 4.699516E-06 0.8936517 1.049645
v 4.286253E-06 3 -1.225767E-05
v 4.286253E-06 3.412098E-08 -1.225767E-05
v 4.699516E-06 2.293652 1.049645
v 4.863782E-06 2.293652 1.949641
v 4.752121E-06 3 2.999985
v 4.752121E-06 -3.632433E-07 2.999985
v 4.863782E-06 0.8936517 1.949641

vn 0.9999703 -1.776356E-14 -0.007708467
vn 0.9999703 -1.776356E-14 -0.007708467
vn 0.9999703 -1.776356E-14 -0.007708467
vn 0.9999703 -1.776356E-14 -0.007708467
vn 0.9999703 -1.776356E-14 -0.007708467
vn 0.9999703 -1.776356E-14 -0.007708467
vn 0.9999703 -1.776356E-14 -0.007708467
vn 0.9999703 -1.776356E-14 -0.007708467

vt 0.6499023 0.2978516
vt 1 1
vt 1 0
vt 0.6499023 0.7646484
vt 0.3500977 0.7646484
vt -5.960464E-08 1
vt -5.960464E-08 5.960464E-08
vt 0.3500977 0.2978516

g wall01_window1m_A_6_10952_790
usemtl wall01_window1m_A_6_10952_790
usemap wall01_window1m_A_6_10952_790
f 1/1/1 3/3/3 2/2/2
f 2/2/2 4/4/4 1/1/1
f 5/5/5 4/4/4 2/2/2
f 2/2/2 6/6/6 5/5/5
f 5/5/5 6/6/6 7/7/7
f 7/7/7 3/3/3 1/1/1
f 7/7/7 8/8/8 5/5/5
f 1/1/1 8/8/8 7/7/7
