#wall01_6m_door_A_9147_1233.obj

v 6.937397E-06 3 -0.5000015
v -0.1999926 2.999999 5.499997
v -0.1999917 3 -0.5000032
v 9.531392E-06 2.999999 5.499998
v -0.1999917 3 -0.5000032
v 6.937365E-06 -1.539903E-08 -0.5000051
v 6.937397E-06 3 -0.5000015
v -0.1999917 -1.539903E-08 -0.5000032
v 8.660504E-06 2.2 0.4499979
v -0.1999934 0.05249997 0.4499963
v -0.1999934 2.2 0.4499963
v 8.660504E-06 0.05249997 0.4499979
v 8.660504E-06 2.2 0.4499979
v -0.1999908 2.199999 4.549994
v 7.808253E-06 2.199999 4.549995
v -0.1999934 2.2 0.4499963
v -0.1999934 0.05249997 0.4499963
v 7.808253E-06 0.05249932 4.549995
v -0.1999908 0.05249932 4.549994
v 8.660504E-06 0.05249997 0.4499979
v -0.1999926 2.999999 5.499997
v 9.531392E-06 -6.715969E-07 5.499998
v -0.1999926 -6.715969E-07 5.499997
v 9.531392E-06 2.999999 5.499998
v 7.808253E-06 2.199999 4.549995
v -0.1999908 0.05249932 4.549994
v 7.808253E-06 0.05249932 4.549995
v -0.1999908 2.199999 4.549994

vn -1.780593E-12 0.9999998 1.962993E-07
vn -1.780593E-12 0.9999998 1.962993E-07
vn -1.780593E-12 0.9999998 1.962993E-07
vn -1.780593E-12 0.9999998 1.962993E-07
vn 9.159427E-06 4.371136E-08 -1
vn 9.159427E-06 4.371136E-08 -1
vn 9.159427E-06 4.371136E-08 -1
vn 9.159427E-06 4.371136E-08 -1
vn -9.159427E-06 -4.371136E-08 1
vn -9.159427E-06 -4.371136E-08 1
vn -9.159427E-06 -4.371136E-08 1
vn -9.159427E-06 -4.371136E-08 1
vn 1.405624E-12 -0.9999998 -1.553611E-07
vn 1.405623E-12 -0.9999998 -1.553611E-07
vn 1.405623E-12 -0.9999998 -1.553611E-07
vn 1.405623E-12 -0.9999998 -1.553611E-07
vn -3.829759E-13 0.9999998 4.371137E-08
vn -3.829759E-13 0.9999998 4.371137E-08
vn -3.829759E-13 0.9999998 4.371137E-08
vn -3.829759E-13 0.9999998 4.371137E-08
vn -9.159427E-06 -4.371136E-08 1
vn -9.159427E-06 -4.371136E-08 1
vn -9.159427E-06 -4.371136E-08 1
vn -9.159427E-06 -4.371136E-08 1
vn 9.159427E-06 4.371136E-08 -1
vn 9.159427E-06 4.371136E-08 -1
vn 9.159427E-06 4.371136E-08 -1
vn 9.159427E-06 4.371136E-08 -1

vt 3.576279E-07 0.9814453
vt 2 0.9145508
vt 3.576279E-07 0.9145508
vt 2 0.9814453
vt -1.192093E-07 1
vt 0.06665039 0
vt 0.06665039 1
vt 0 0
vt 0.06665039 5.960464E-07
vt -1.192093E-07 0.7158203
vt 0 5.960464E-07
vt 0.06665039 0.7158203
vt 1.907349E-06 0.9145508
vt 1.033203 0.9814453
vt 1.033203 0.9145508
vt 1.907349E-06 0.9814453
vt 1.907349E-06 0.9145508
vt 1.033203 0.9814453
vt 1.033203 0.9145508
vt 1.907349E-06 0.9814453
vt 1 1
vt 0.9331055 5.960464E-08
vt 1 5.960464E-08
vt 0.9331055 1
vt -1.192093E-07 0.7158203
vt 0.06665039 0
vt 0 0
vt 0.06665039 0.7158203

g wall01_6m_door_A_9147_1233
usemtl wall01_6m_door_A_9147_1233
usemap wall01_6m_door_A_9147_1233
f 1/1/1 3/3/3 2/2/2
f 2/2/2 4/4/4 1/1/1
f 5/5/5 7/7/7 6/6/6
f 6/6/6 8/8/8 5/5/5
f 9/9/9 11/11/11 10/10/10
f 10/10/10 12/12/12 9/9/9
f 13/13/13 15/15/15 14/14/14
f 14/14/14 16/16/16 13/13/13
f 17/17/17 19/19/19 18/18/18
f 18/18/18 20/20/20 17/17/17
f 21/21/21 23/23/23 22/22/22
f 22/22/22 24/24/24 21/21/21
f 25/25/25 27/27/27 26/26/26
f 26/26/26 28/28/28 25/25/25
