#wall11_10083_1452.obj

v -0.1999966 2.999998 2.999987
v 4.109706E-06 2.999999 -1.302765E-05
v 3.535027E-06 2.999998 2.999989
v -0.199996 2.999999 -8.359855E-06
v -0.199996 2.999999 -8.359855E-06
v 4.08502E-06 -3.087583E-07 -1.033577E-05
v 4.109706E-06 2.999999 -1.302765E-05
v -0.1999959 -3.002407E-07 -1.201667E-05
v 3.535027E-06 2.999998 2.999989
v -0.1999965 -5.755406E-07 2.99999
v -0.1999966 2.999998 2.999987
v 3.510828E-06 -5.840582E-07 2.999992

vn 0.02056646 0.9997874 0.001319167
vn 0.02056646 0.9997874 0.001319167
vn 0.02056646 0.9997874 0.001319167
vn 0.02056646 0.9997874 0.001319167
vn -0.9997785 0.02057211 -0.004511673
vn -0.9997785 0.02057211 -0.004511673
vn -0.9997785 0.02057211 -0.004511673
vn -0.9997785 0.02057211 -0.004511673
vn 0.9997785 -0.02057211 0.004511673
vn 0.9997785 -0.02057211 0.004511673
vn 0.9997785 -0.02057211 0.004511673
vn 0.9997785 -0.02057211 0.004511673

vt 1 0.9145508
vt 3.576279E-07 0.9814453
vt 1 0.9814453
vt 3.576279E-07 0.9145508
vt 4.768372E-07 1
vt 0.06665039 0
vt 0.06665039 1
vt 2.980232E-07 0
vt 0.9331055 1
vt 1 0
vt 1 1
vt 0.9331055 0

g wall11_10083_1452
usemtl wall11_10083_1452
usemap wall11_10083_1452
f 1/1/1 3/3/3 2/2/2
f 2/2/2 4/4/4 1/1/1
f 5/5/5 7/7/7 6/6/6
f 6/6/6 8/8/8 5/5/5
f 9/9/9 11/11/11 10/10/10
f 10/10/10 12/12/12 9/9/9
