#wall01_6m_door_A_8649_105.obj

v -0.1999983 2.999999 5.499991
v -0.1999981 2.2 0.4499908
v -0.1999979 3 -0.5000111
v -0.199998 2.199999 4.549989
v -0.1999979 5.661228E-08 -0.5000111
v -0.1999981 0.05250002 0.4499908
v -0.1999983 -7.381163E-07 5.499991
v -0.199998 0.05249943 4.549989

vn -0.00771095 1.412506E-14 -0.9999703
vn -0.00771095 1.412506E-14 -0.9999703
vn -0.00771095 1.412506E-14 -0.9999703
vn -0.00771095 1.412506E-14 -0.9999703
vn -0.00771095 1.412506E-14 -0.9999703
vn -0.00771095 1.412506E-14 -0.9999703
vn -0.00771095 1.412506E-14 -0.9999703
vn -0.00771095 1.412506E-14 -0.9999703

vt 2 1
vt 0.3166504 0.7333984
vt 0 1
vt 1.683594 0.7333984
vt 0 0
vt 0.3166504 0.01750183
vt 2 -2.384186E-07
vt 1.683594 0.01750183

g wall01_6m_door_A_8649_105
usemtl wall01_6m_door_A_8649_105
usemap wall01_6m_door_A_8649_105
f 1/1/1 3/3/3 2/2/2
f 2/2/2 4/4/4 1/1/1
f 2/2/2 3/3/3 5/5/5
f 5/5/5 6/6/6 2/2/2
f 6/6/6 5/5/5 7/7/7
f 7/7/7 1/1/1 4/4/4
f 7/7/7 8/8/8 6/6/6
f 4/4/4 8/8/8 7/7/7
