#wall01_window1m_A_9767_1007.obj

v -8.121222E-06 0.8936517 1.049654
v -9.414256E-06 3 -6.863063E-06
v -6.830507E-06 -7.27514E-08 -7.134973E-06
v -6.355194E-06 2.293651 1.049654
v -1.005187E-05 2.293652 1.949649
v -8.922742E-06 2.999999 2.999993
v -6.347168E-06 -3.377814E-07 2.999993
v -5.461482E-06 0.8936518 1.949649

vn 0.9997782 -0.02057207 0.004526524
vn 0.9997782 -0.02057207 0.004526524
vn 0.9997782 -0.02057207 0.004526524
vn 0.9997782 -0.02057207 0.004526524
vn 0.9997782 -0.02057207 0.004526524
vn 0.9997782 -0.02057207 0.004526524
vn 0.9997782 -0.02057207 0.004526524
vn 0.9997782 -0.02057207 0.004526524

vt 0.6499023 0.2978516
vt 1 1
vt 1 0
vt 0.6499023 0.7646484
vt 0.3500977 0.7646484
vt -5.960464E-08 1
vt -5.960464E-08 5.960464E-08
vt 0.3500977 0.2978516

g wall01_window1m_A_9767_1007
usemtl wall01_window1m_A_9767_1007
usemap wall01_window1m_A_9767_1007
f 1/1/1 3/3/3 2/2/2
f 2/2/2 4/4/4 1/1/1
f 5/5/5 4/4/4 2/2/2
f 2/2/2 6/6/6 5/5/5
f 5/5/5 6/6/6 7/7/7
f 7/7/7 3/3/3 1/1/1
f 7/7/7 8/8/8 5/5/5
f 1/1/1 8/8/8 7/7/7
