#wall01_window1m_A_19733_406.obj

v -0.2000002 0.8936517 1.949654
v -0.2000003 3 2.999997
v -0.2000003 -2.609889E-07 2.999997
v -0.2000002 2.293651 1.949654
v -0.2000006 2.293652 1.049659
v -0.1999997 3 -1.858852E-06
v -0.1999997 2.63844E-08 -1.731584E-06
v -0.2000006 0.8936517 1.049659

vn -2.205372E-06 -7.105427E-15 -1
vn -2.205372E-06 -7.105427E-15 -1
vn -2.205372E-06 -7.105427E-15 -1
vn -2.205372E-06 -7.105427E-15 -1
vn -2.205372E-06 -7.105427E-15 -1
vn -2.205372E-06 -7.105427E-15 -1
vn -2.205372E-06 -7.105427E-15 -1
vn -2.205372E-06 -7.105427E-15 -1

vt 0.6499023 0.2978516
vt 1 1
vt 1 5.960464E-08
vt 0.6499023 0.7646484
vt 0.3498535 0.7646484
vt 0 1
vt 0 0
vt 0.3498535 0.2978516

g wall01_window1m_A_19733_406
usemtl wall01_window1m_A_19733_406
usemap wall01_window1m_A_19733_406
f 1/1/1 3/3/3 2/2/2
f 2/2/2 4/4/4 1/1/1
f 5/5/5 4/4/4 2/2/2
f 2/2/2 6/6/6 5/5/5
f 5/5/5 6/6/6 7/7/7
f 7/7/7 3/3/3 1/1/1
f 7/7/7 8/8/8 5/5/5
f 1/1/1 8/8/8 7/7/7
