#wall01_door1m_1_9312_1461.obj

v -3.720264E-06 2.999999 -3.652219E-06
v -0.2000036 2.999998 2.999997
v -0.2000021 2.999999 -3.939033E-06
v -5.188729E-06 2.999998 2.999997
v -0.2000036 -6.17586E-07 2.999997
v -5.188729E-06 2.999998 2.999997
v -5.19226E-06 -6.17586E-07 2.999997
v -0.2000036 2.999998 2.999997
v -0.2000021 -3.437597E-07 -3.804708E-06
v -3.720264E-06 2.999999 -3.652219E-06
v -0.2000021 2.999999 -3.939033E-06
v -3.720264E-06 -3.437597E-07 -3.517893E-06
v -3.586679E-06 2.1 0.9499966
v -0.2000052 0.05250004 0.9499964
v -0.2000052 2.1 0.9499967
v -3.586679E-06 0.05250004 0.9499967
v -5.325846E-06 0.05249989 2.049996
v -0.2000037 2.099999 2.049997
v -0.2000037 0.05249989 2.049997
v -5.325846E-06 2.099999 2.049996
v -5.325846E-06 2.099999 2.049996
v -0.2000052 2.1 0.9499967
v -0.2000037 2.099999 2.049997
v -3.586679E-06 2.1 0.9499966
v -3.586679E-06 0.05250004 0.9499967
v -0.2000037 0.05249989 2.049997
v -0.2000052 0.05250004 0.9499964
v -5.325846E-06 0.05249989 2.049996

vn -1.258233E-09 0.9999991 1.454312E-07
vn -1.258233E-09 0.9999991 1.454312E-07
vn -1.258233E-09 0.9999991 1.454312E-07
vn -1.258233E-09 0.9999991 1.454312E-07
vn -0.008651431 -4.371134E-08 0.9999624
vn -0.008651431 -4.371134E-08 0.9999624
vn -0.008651431 -4.371134E-08 0.9999624
vn -0.008651431 -4.371134E-08 0.9999624
vn 0.008651431 4.371134E-08 -0.9999624
vn 0.008651431 4.371134E-08 -0.9999624
vn 0.008651431 4.371134E-08 -0.9999624
vn 0.008651431 4.371134E-08 -0.9999624
vn -0.008651431 -4.371134E-08 0.9999624
vn -0.008651431 -4.371134E-08 0.9999624
vn -0.008651431 -4.371134E-08 0.9999624
vn -0.008651431 -4.371134E-08 0.9999624
vn 0.008651431 4.371134E-08 -0.9999624
vn 0.008651431 4.371134E-08 -0.9999624
vn 0.008651431 4.371134E-08 -0.9999624
vn 0.008651431 4.371134E-08 -0.9999624
vn 3.978446E-09 -0.9999991 -4.598429E-07
vn 3.978446E-09 -0.9999991 -4.598429E-07
vn 3.978446E-09 -0.9999991 -4.598429E-07
vn 3.978446E-09 -0.9999991 -4.598429E-07
vn -1.503252E-09 0.9999991 1.737513E-07
vn -1.503252E-09 0.9999991 1.737513E-07
vn -1.503252E-09 0.9999991 1.737513E-07
vn -1.503252E-09 0.9999991 1.737513E-07

vt 3.576279E-07 0.9145508
vt 1 0.9814453
vt 3.576279E-07 0.9814453
vt 1 0.9145508
vt 1 1.192093E-07
vt 0.9331055 1
vt 0.9331055 1.192093E-07
vt 1 1
vt 5.960464E-08 3.576279E-07
vt 0.06665039 1
vt 5.960464E-08 1
vt 0.06665039 3.576279E-07
vt 0.06665039 0.05102539
vt 2.980232E-07 0.7333984
vt 2.980232E-07 0.05102539
vt 0.06665039 0.7333984
vt 2.980232E-07 0.7333984
vt 0.06665039 0.05102539
vt 0.06665039 0.7333984
vt 2.980232E-07 0.05102539
vt 0.4335938 0.9814453
vt 0.0670166 0.9145508
vt 0.4335938 0.9145508
vt 0.0670166 0.9814453
vt 0.06671143 0.9814453
vt 0.4333496 0.9145508
vt 0.06671143 0.9145508
vt 0.4333496 0.9814453

g wall01_door1m_1_9312_1461
usemtl wall01_door1m_1_9312_1461
usemap wall01_door1m_1_9312_1461
f 1/1/1 3/3/3 2/2/2
f 2/2/2 4/4/4 1/1/1
f 5/5/5 7/7/7 6/6/6
f 6/6/6 8/8/8 5/5/5
f 9/9/9 11/11/11 10/10/10
f 10/10/10 12/12/12 9/9/9
f 13/13/13 15/15/15 14/14/14
f 14/14/14 16/16/16 13/13/13
f 17/17/17 19/19/19 18/18/18
f 18/18/18 20/20/20 17/17/17
f 21/21/21 23/23/23 22/22/22
f 22/22/22 24/24/24 21/21/21
f 25/25/25 27/27/27 26/26/26
f 26/26/26 28/28/28 25/25/25
