#wall01_window1m_A_5_8995_1359.obj

v -0.1999986 0.8936517 1.94965
v -0.1999992 3 2.999994
v -0.1999992 -3.632433E-07 2.999994
v -0.1999986 2.293652 1.94965
v -0.1999985 2.293652 1.049655
v -0.1999983 3 -6.831331E-06
v -0.1999983 3.412097E-08 -6.831331E-06
v -0.1999985 0.8936517 1.049655

vn -0.00771095 1.146051E-14 -0.9999703
vn -0.00771095 1.146051E-14 -0.9999703
vn -0.00771095 1.146051E-14 -0.9999703
vn -0.00771095 1.146051E-14 -0.9999703
vn -0.00771095 1.146051E-14 -0.9999703
vn -0.00771095 1.146051E-14 -0.9999703
vn -0.00771095 1.146051E-14 -0.9999703
vn -0.00771095 1.146051E-14 -0.9999703

vt 0.6499023 0.2978516
vt 1 1
vt 1 5.960464E-08
vt 0.6499023 0.7646484
vt 0.3498535 0.7646484
vt 0 1
vt 0 0
vt 0.3498535 0.2978516

g wall01_window1m_A_5_8995_1359
usemtl wall01_window1m_A_5_8995_1359
usemap wall01_window1m_A_5_8995_1359
f 1/1/1 3/3/3 2/2/2
f 2/2/2 4/4/4 1/1/1
f 5/5/5 4/4/4 2/2/2
f 2/2/2 6/6/6 5/5/5
f 5/5/5 6/6/6 7/7/7
f 7/7/7 3/3/3 1/1/1
f 7/7/7 8/8/8 5/5/5
f 1/1/1 8/8/8 7/7/7
