#wall01_window1m_A_5_8954_1694.obj

v -0.1999977 0.8936514 1.949638
v -0.1999979 2.999999 2.999983
v -0.1999979 -7.983984E-07 2.999985
v -0.1999977 2.293651 1.94964
v -0.1999976 2.293652 1.049648
v -0.1999975 3 -1.312599E-05
v -0.1999975 -4.647202E-07 -1.689753E-05
v -0.1999976 0.8936515 1.049647

vn -0.00455603 -0.001225705 0.9999889
vn -0.00455603 -0.001225705 0.9999889
vn -0.00455603 -0.001225705 0.9999889
vn -0.00455603 -0.001225705 0.9999889
vn -0.00455603 -0.001225705 0.9999889
vn -0.00455603 -0.001225705 0.9999889
vn -0.00455603 -0.001225705 0.9999889
vn -0.00455603 -0.001225705 0.9999889

vt 0.6499023 0.2978516
vt 1 1
vt 1 5.960464E-08
vt 0.6499023 0.7646484
vt 0.3498535 0.7646484
vt 0 1
vt 0 0
vt 0.3498535 0.2978516

g wall01_window1m_A_5_8954_1694
usemtl wall01_window1m_A_5_8954_1694
usemap wall01_window1m_A_5_8954_1694
f 1/1/1 3/3/3 2/2/2
f 2/2/2 4/4/4 1/1/1
f 5/5/5 4/4/4 2/2/2
f 2/2/2 6/6/6 5/5/5
f 5/5/5 6/6/6 7/7/7
f 7/7/7 3/3/3 1/1/1
f 7/7/7 8/8/8 5/5/5
f 1/1/1 8/8/8 7/7/7
