#wall01_6m_door_A_8892_108.obj

v -0.2000089 2.999999 5.499992
v -0.2000111 2.2 0.4499926
v -0.2000101 3 -0.5000094
v -0.2000079 2.199999 4.549991
v -0.2000101 5.661229E-08 -0.5000094
v -0.2000111 0.05250002 0.4499926
v -0.2000089 -7.381163E-07 5.499992
v -0.2000079 0.05249943 4.549991

vn -0.00771095 1.412506E-14 -0.9999703
vn -0.00771095 1.412506E-14 -0.9999703
vn -0.00771095 1.412506E-14 -0.9999703
vn -0.00771095 1.412506E-14 -0.9999703
vn -0.00771095 1.412506E-14 -0.9999703
vn -0.00771095 1.412506E-14 -0.9999703
vn -0.00771095 1.412506E-14 -0.9999703
vn -0.00771095 1.412506E-14 -0.9999703

vt 2 1
vt 0.3166504 0.7333984
vt 0 1
vt 1.683594 0.7333984
vt 0 0
vt 0.3166504 0.01750183
vt 2 -2.384186E-07
vt 1.683594 0.01750183

g wall01_6m_door_A_8892_108
usemtl wall01_6m_door_A_8892_108
usemap wall01_6m_door_A_8892_108
f 1/1/1 3/3/3 2/2/2
f 2/2/2 4/4/4 1/1/1
f 2/2/2 3/3/3 5/5/5
f 5/5/5 6/6/6 2/2/2
f 6/6/6 5/5/5 7/7/7
f 7/7/7 1/1/1 4/4/4
f 7/7/7 8/8/8 6/6/6
f 4/4/4 8/8/8 7/7/7
