#wall01_window1m_A_10876_1366.obj

v 9.963236E-06 0.8936514 1.049658
v 1.151275E-05 3 -3.072407E-06
v 1.151275E-05 -1.539903E-08 -3.072407E-06
v 9.963236E-06 2.293652 1.049658
v 1.163538E-05 2.293651 1.949653
v 1.008714E-05 3 2.999997
v 1.008714E-05 -2.341317E-07 2.999997
v 1.163538E-05 0.8936518 1.949653

vn 1 -4.371138E-08 2.187326E-06
vn 1 -4.371138E-08 2.187326E-06
vn 1 -4.371138E-08 2.187326E-06
vn 1 -4.371138E-08 2.187326E-06
vn 1 -4.371138E-08 2.187326E-06
vn 1 -4.371138E-08 2.187326E-06
vn 1 -4.371138E-08 2.187326E-06
vn 1 -4.371138E-08 2.187326E-06

vt 0.6499023 0.2978516
vt 1 1
vt 1 0
vt 0.6499023 0.7646484
vt 0.3500977 0.7646484
vt -5.960464E-08 1
vt -5.960464E-08 5.960464E-08
vt 0.3500977 0.2978516

g wall01_window1m_A_10876_1366
usemtl wall01_window1m_A_10876_1366
usemap wall01_window1m_A_10876_1366
f 1/1/1 3/3/3 2/2/2
f 2/2/2 4/4/4 1/1/1
f 5/5/5 4/4/4 2/2/2
f 2/2/2 6/6/6 5/5/5
f 5/5/5 6/6/6 7/7/7
f 7/7/7 3/3/3 1/1/1
f 7/7/7 8/8/8 5/5/5
f 1/1/1 8/8/8 7/7/7
