#wall01_window1m_A_2_9394_1745.obj

v 1.442663E-06 3 -1.073173E-05
v -0.1999996 2.999999 2.999988
v -0.1999987 3 -1.163066E-05
v 4.877252E-07 2.999999 2.999989
v 1.442663E-06 -7.5952E-08 -1.060059E-05
v -0.1999987 3 -1.163066E-05
v -0.1999987 -7.595204E-08 -1.149952E-05
v 1.442663E-06 3 -1.073173E-05
v -0.1999996 -3.705653E-07 2.999988
v 4.877252E-07 2.999999 2.999989
v 4.015467E-07 -3.705655E-07 2.999986
v -0.1999996 2.999999 2.999988
v 1.878822E-06 2.293652 1.049646
v -0.1999988 2.293651 1.949643
v 1.370389E-06 2.293652 1.949644
v -0.1999983 2.293652 1.049645
v 1.878822E-06 0.8936515 1.049646
v -0.1999983 2.293652 1.049645
v 1.878822E-06 2.293652 1.049646
v -0.1999983 0.893652 1.049645
v 1.370389E-06 0.893652 1.949644
v -0.1999983 0.893652 1.049645
v 1.878822E-06 0.8936515 1.049646
v -0.1999988 0.8936516 1.949643
v 1.370389E-06 2.293652 1.949644
v -0.1999988 0.8936516 1.949643
v 1.370389E-06 0.893652 1.949644
v -0.1999988 2.293651 1.949643

vn 1.453901E-07 0.9999996 3.679876E-09
vn 1.453901E-07 0.9999996 3.679876E-09
vn 1.453901E-07 0.9999996 3.679876E-09
vn 1.453901E-07 0.9999996 3.679876E-09
vn -0.9996799 4.371137E-08 -0.02530224
vn -0.9996799 4.371137E-08 -0.02530224
vn -0.9996799 4.371137E-08 -0.02530224
vn -0.9996799 4.371137E-08 -0.02530224
vn 0.9996799 -4.371137E-08 0.02530224
vn 0.9996799 -4.371137E-08 0.02530224
vn 0.9996799 -4.371137E-08 0.02530224
vn 0.9996799 -4.371137E-08 0.02530224
vn -6.883927E-07 -0.9999996 5.332747E-07
vn -4.159347E-07 -0.9999996 -5.612256E-07
vn -3.63371E-07 -0.9999996 -7.723808E-07
vn -7.409564E-07 -0.9999996 7.444299E-07
vn 0.9996799 -4.371137E-08 0.02530224
vn 0.9996799 -4.371137E-08 0.02530224
vn 0.9996799 -4.371137E-08 0.02530224
vn 0.9996799 -4.371137E-08 0.02530224
vn 2.976809E-08 0.9999996 5.514516E-07
vn -2.341618E-07 0.9999996 -5.566249E-07
vn -2.759762E-07 0.9999996 -7.701688E-07
vn 2.43935E-08 0.9999996 7.638012E-07
vn -0.9996799 4.371137E-08 -0.02530224
vn -0.9996799 4.371137E-08 -0.02530224
vn -0.9996799 4.371137E-08 -0.02530224
vn -0.9996799 4.371137E-08 -0.02530224

vt 1.907349E-06 0.9814453
vt 1 0.9145508
vt 1.907349E-06 0.9145508
vt 1 0.9814453
vt 0.06665039 0
vt 0 1
vt 0 0
vt 0.06665039 1
vt 1 5.960464E-08
vt 0.9331055 1
vt 0.9331055 5.960464E-08
vt 1 1
vt 0.5161133 0.9814453
vt 0.8164063 0.9145508
vt 0.8164063 0.9814453
vt 0.5161133 0.9145508
vt -2.980232E-07 0.6196289
vt 0.06665039 0.1529541
vt -2.980232E-07 0.1529541
vt 0.06665039 0.6196289
vt 0.8164063 0.9814453
vt 0.5161133 0.9145508
vt 0.5161133 0.9814453
vt 0.8164063 0.9145508
vt 0.06665039 0.1529541
vt -3.576279E-07 0.6196289
vt 0.06665039 0.6196289
vt -4.172325E-07 0.1529541

g wall01_window1m_A_2_9394_1745
usemtl wall01_window1m_A_2_9394_1745
usemap wall01_window1m_A_2_9394_1745
f 1/1/1 3/3/3 2/2/2
f 2/2/2 4/4/4 1/1/1
f 5/5/5 7/7/7 6/6/6
f 6/6/6 8/8/8 5/5/5
f 9/9/9 11/11/11 10/10/10
f 10/10/10 12/12/12 9/9/9
f 13/13/13 15/15/15 14/14/14
f 14/14/14 16/16/16 13/13/13
f 17/17/17 19/19/19 18/18/18
f 18/18/18 20/20/20 17/17/17
f 21/21/21 23/23/23 22/22/22
f 22/22/22 24/24/24 21/21/21
f 25/25/25 27/27/27 26/26/26
f 26/26/26 28/28/28 25/25/25
