#wall01_interior_9057_372.obj

v -0.1999955 2.999998 2.800006
v 4.644804E-06 2.999999 5.643449E-06
v 2.885776E-06 2.999998 2.800007
v -0.1999938 2.999999 5.552655E-06
v -0.1999938 2.999999 5.552655E-06
v 4.644804E-06 -1.498656E-08 5.643449E-06
v 4.644804E-06 2.999999 5.643449E-06
v -0.1999938 -1.498656E-08 5.552655E-06
v 2.885776E-06 2.999998 2.800007
v -0.1999955 -4.40734E-07 2.800006
v -0.1999955 2.999998 2.800006
v 2.885776E-06 -4.40734E-07 2.800007

vn 1.100624E-07 0.9999996 -4.093967E-08
vn 1.100624E-07 0.9999996 -4.093967E-08
vn 1.100624E-07 0.9999996 -4.093967E-08
vn 1.100624E-07 0.9999996 -4.093967E-08
vn -0.9996799 3.552712E-15 -0.02530224
vn -0.9996799 3.552712E-15 -0.02530224
vn -0.9996799 3.552712E-15 -0.02530224
vn -0.9996799 3.552712E-15 -0.02530224
vn 0.9996799 -3.552712E-15 0.02530224
vn 0.9996799 -3.552712E-15 0.02530224
vn 0.9996799 -3.552712E-15 0.02530224
vn 0.9996799 -3.552712E-15 0.02530224

vt 1 0.9145508
vt 3.576279E-07 0.9814453
vt 1 0.9814453
vt 3.576279E-07 0.9145508
vt 4.768372E-07 1
vt 0.06665039 0
vt 0.06665039 1
vt 2.980232E-07 0
vt 0.9331055 1
vt 1 0
vt 1 1
vt 0.9331055 0

g wall01_interior_9057_372
usemtl wall01_interior_9057_372
usemap wall01_interior_9057_372
f 1/1/1 3/3/3 2/2/2
f 2/2/2 4/4/4 1/1/1
f 5/5/5 7/7/7 6/6/6
f 6/6/6 8/8/8 5/5/5
f 9/9/9 11/11/11 10/10/10
f 10/10/10 12/12/12 9/9/9
