#wall08_19104_399.obj

v -0.1999999 2.999998 3
v -1.036593E-07 2.999999 -6.577285E-07
v -3.211325E-07 2.999998 3
v -0.1999997 2.999999 -1.003939E-06
v -0.1999997 2.999999 -1.003939E-06
v -1.036593E-07 -2.544567E-08 -5.265942E-07
v -1.036593E-07 2.999999 -6.577285E-07
v -0.1999997 -2.544569E-08 -8.728045E-07
v -3.211325E-07 2.999998 3
v -0.1999999 -2.571222E-07 3
v -0.1999999 2.999998 3
v -3.211325E-07 -2.571222E-07 3

vn -1.454367E-07 1 2.628771E-13
vn -1.454367E-07 1 2.628771E-13
vn -1.454367E-07 1 2.628771E-13
vn -1.454367E-07 1 2.628771E-13
vn 1 4.371145E-08 -1.728535E-06
vn 1 4.371145E-08 -1.728535E-06
vn 1 4.371145E-08 -1.728535E-06
vn 1 4.371145E-08 -1.728535E-06
vn -1 -4.371145E-08 1.728535E-06
vn -1 -4.371145E-08 1.728535E-06
vn -1 -4.371145E-08 1.728535E-06
vn -1 -4.371145E-08 1.728535E-06

vt 1 0.9145508
vt 3.576279E-07 0.9814453
vt 1 0.9814453
vt 3.576279E-07 0.9145508
vt 4.768372E-07 1
vt 0.06665039 0
vt 0.06665039 1
vt 2.980232E-07 0
vt 0.9331055 1
vt 1 0
vt 1 1
vt 0.9331055 0

g wall08_19104_399
usemtl wall08_19104_399
usemap wall08_19104_399
f 1/1/1 3/3/3 2/2/2
f 2/2/2 4/4/4 1/1/1
f 5/5/5 7/7/7 6/6/6
f 6/6/6 8/8/8 5/5/5
f 9/9/9 11/11/11 10/10/10
f 10/10/10 12/12/12 9/9/9
