#wall12_10636_491.obj

v -0.1999622 2.999998 3.000039
v 3.739138E-05 2.999999 3.787349E-05
v 3.837872E-05 2.999998 3.00004
v -0.1999632 2.999999 3.703071E-05
v -0.1999632 2.999999 3.703071E-05
v 3.739138E-05 3.488303E-08 3.787349E-05
v 3.739138E-05 2.999999 3.787349E-05
v -0.1999632 3.488303E-08 3.703071E-05
v 3.837872E-05 2.999998 3.00004
v -0.1999622 -4.107592E-07 3.000039
v -0.1999622 2.999998 3.000039
v 3.837872E-05 -4.107592E-07 3.00004

vn 9.915464E-11 0.9999989 1.454366E-07
vn 9.915464E-11 0.9999989 1.454366E-07
vn 9.915464E-11 0.9999989 1.454366E-07
vn 9.915464E-11 0.9999989 1.454366E-07
vn -0.0006818041 4.371135E-08 -0.9999996
vn -0.0006818041 4.371135E-08 -0.9999996
vn -0.0006818041 4.371135E-08 -0.9999996
vn -0.0006818041 4.371135E-08 -0.9999996
vn 0.0006818041 -4.371135E-08 0.9999996
vn 0.0006818041 -4.371135E-08 0.9999996
vn 0.0006818041 -4.371135E-08 0.9999996
vn 0.0006818041 -4.371135E-08 0.9999996

vt 1 0.9145508
vt 3.576279E-07 0.9814453
vt 1 0.9814453
vt 3.576279E-07 0.9145508
vt 4.768372E-07 1
vt 0.06665039 0
vt 0.06665039 1
vt 2.980232E-07 0
vt 0.9331055 1
vt 1 0
vt 1 1
vt 0.9331055 0

g wall12_10636_491
usemtl wall12_10636_491
usemap wall12_10636_491
f 1/1/1 3/3/3 2/2/2
f 2/2/2 4/4/4 1/1/1
f 5/5/5 7/7/7 6/6/6
f 6/6/6 8/8/8 5/5/5
f 9/9/9 11/11/11 10/10/10
f 10/10/10 12/12/12 9/9/9
