#wall01_door1m_19136_420.obj

v -1.036607E-07 2.999999 6.515139E-08
v -0.2000003 2.999998 3
v -0.1999997 2.999999 -4.142167E-07
v 1.693409E-07 2.999998 3.000001
v -0.2000003 -4.409688E-07 3
v 1.693409E-07 2.999998 3.000001
v 1.693409E-07 -4.409688E-07 3.000001
v -0.2000003 2.999998 3
v -0.1999997 -1.60204E-07 -2.803406E-07
v -1.036607E-07 2.999999 6.515139E-08
v -0.1999997 2.999999 -4.142167E-07
v -1.036607E-07 -1.60204E-07 1.990275E-07
v 1.071812E-07 2.1 0.9500007
v -0.2000003 0.05250012 0.9500003
v -0.2000003 2.1 0.9500002
v 1.071812E-07 0.05250012 0.9500008
v -4.150101E-08 0.05250001 2.05
v -0.2000005 2.099999 2.05
v -0.2000005 0.05250001 2.05
v -4.150098E-08 2.099999 2.05
v -4.150098E-08 2.099999 2.05
v -0.2000003 2.1 0.9500002
v -0.2000005 2.099999 2.05
v 1.071812E-07 2.1 0.9500007
v 1.071812E-07 0.05250012 0.9500008
v -0.2000005 0.05250001 2.05
v -0.2000003 0.05250012 0.9500003
v -4.150101E-08 0.05250001 2.05

vn -1.454367E-07 1 3.331261E-13
vn -1.454367E-07 1 3.331261E-13
vn -1.454367E-07 1 3.331261E-13
vn -1.454367E-07 1 3.331261E-13
vn -1 -4.37114E-08 2.384186E-06
vn -1 -4.37114E-08 2.384186E-06
vn -1 -4.37114E-08 2.384186E-06
vn -1 -4.37114E-08 2.384186E-06
vn 1 4.37114E-08 -2.384186E-06
vn 1 4.37114E-08 -2.384186E-06
vn 1 4.37114E-08 -2.384186E-06
vn 1 4.37114E-08 -2.384186E-06
vn -1 -4.37114E-08 2.384186E-06
vn -1 -4.37114E-08 2.384186E-06
vn -1 -4.37114E-08 2.384186E-06
vn -1 -4.37114E-08 2.384186E-06
vn 1 4.37114E-08 -2.384186E-06
vn 1 4.37114E-08 -2.384186E-06
vn 1 4.37114E-08 -2.384186E-06
vn 1 4.37114E-08 -2.384186E-06
vn 4.598602E-07 -1 -1.08277E-12
vn 4.598602E-07 -1 -1.08277E-12
vn 4.598602E-07 -1 -1.08277E-12
vn 4.598602E-07 -1 -1.08277E-12
vn -1.737579E-07 1 4.006492E-13
vn -1.737579E-07 1 4.006492E-13
vn -1.737579E-07 1 4.006492E-13
vn -1.737579E-07 1 4.006492E-13

vt 3.576279E-07 0.9145508
vt 1 0.9814453
vt 3.576279E-07 0.9814453
vt 1 0.9145508
vt 1 1.192093E-07
vt 0.9331055 1
vt 0.9331055 1.192093E-07
vt 1 1
vt 5.960464E-08 3.576279E-07
vt 0.06665039 1
vt 5.960464E-08 1
vt 0.06665039 3.576279E-07
vt 0.06665039 0.05102539
vt 2.980232E-07 0.7333984
vt 2.980232E-07 0.05102539
vt 0.06665039 0.7333984
vt 2.980232E-07 0.7333984
vt 0.06665039 0.05102539
vt 0.06665039 0.7333984
vt 2.980232E-07 0.05102539
vt 0.4335938 0.9814453
vt 0.0670166 0.9145508
vt 0.4335938 0.9145508
vt 0.0670166 0.9814453
vt 0.06671143 0.9814453
vt 0.4333496 0.9145508
vt 0.06671143 0.9145508
vt 0.4333496 0.9814453

g wall01_door1m_19136_420
usemtl wall01_door1m_19136_420
usemap wall01_door1m_19136_420
f 1/1/1 3/3/3 2/2/2
f 2/2/2 4/4/4 1/1/1
f 5/5/5 7/7/7 6/6/6
f 6/6/6 8/8/8 5/5/5
f 9/9/9 11/11/11 10/10/10
f 10/10/10 12/12/12 9/9/9
f 13/13/13 15/15/15 14/14/14
f 14/14/14 16/16/16 13/13/13
f 17/17/17 19/19/19 18/18/18
f 18/18/18 20/20/20 17/17/17
f 21/21/21 23/23/23 22/22/22
f 22/22/22 24/24/24 21/21/21
f 25/25/25 27/27/27 26/26/26
f 26/26/26 28/28/28 25/25/25
