#wall07_11295_737.obj

v -0.1999972 2.999998 3.000006
v 3.890418E-06 2.999999 5.904869E-06
v 4.65947E-06 2.999998 3.000006
v -0.1999945 2.999999 5.814076E-06
v -0.1999945 2.999999 5.814076E-06
v 3.890418E-06 -7.595127E-08 6.036003E-06
v 3.890418E-06 2.999999 5.904869E-06
v -0.1999945 -7.595127E-08 5.94521E-06
v 4.65947E-06 2.999998 3.000006
v -0.1999972 -3.705645E-07 3.000007
v -0.1999972 2.999998 3.000006
v 4.65947E-06 -3.705645E-07 3.000007

vn 1.453901E-07 0.9999996 3.679876E-09
vn 1.453901E-07 0.9999996 3.679876E-09
vn 1.453901E-07 0.9999996 3.679876E-09
vn 1.453901E-07 0.9999996 3.679876E-09
vn -0.9996799 4.371137E-08 -0.02530224
vn -0.9996799 4.371137E-08 -0.02530224
vn -0.9996799 4.371137E-08 -0.02530224
vn -0.9996799 4.371137E-08 -0.02530224
vn 0.9996799 -4.371137E-08 0.02530224
vn 0.9996799 -4.371137E-08 0.02530224
vn 0.9996799 -4.371137E-08 0.02530224
vn 0.9996799 -4.371137E-08 0.02530224

vt 1 0.9145508
vt 3.576279E-07 0.9814453
vt 1 0.9814453
vt 3.576279E-07 0.9145508
vt 4.768372E-07 1
vt 0.06665039 0
vt 0.06665039 1
vt 2.980232E-07 0
vt 0.9331055 1
vt 1 0
vt 1 1
vt 0.9331055 0

g wall07_11295_737
usemtl wall07_11295_737
usemap wall07_11295_737
f 1/1/1 3/3/3 2/2/2
f 2/2/2 4/4/4 1/1/1
f 5/5/5 7/7/7 6/6/6
f 6/6/6 8/8/8 5/5/5
f 9/9/9 11/11/11 10/10/10
f 10/10/10 12/12/12 9/9/9
