#wall01_chimney_19329_404.obj

v -2.073211E-07 -1.507964E-08 -1.990271E-07
v 2.105052E-07 1.256324 0.7425439
v -2.073211E-07 1.256324 -2.549493E-07
v 2.105052E-07 -3.385725E-08 0.7425439
v -2.07321E-07 2.999999 -3.325647E-07
v 2.105052E-07 2.999998 0.7425438
v -6.658904E-07 1.256324 2.208505
v -6.658904E-07 2.999998 2.208505
v -1.111819E-07 2.999998 3
v -1.111819E-07 1.256323 3
v -1.111819E-07 -2.443529E-07 3
v -6.658904E-07 -1.240939E-07 2.208506

vn 2.741814E-06 1.24345E-14 -1
vn 2.741814E-06 1.24345E-14 -1
vn 2.741814E-06 1.24345E-14 -1
vn 2.741814E-06 1.24345E-14 -1
vn 2.741814E-06 1.24345E-14 -1
vn 2.741814E-06 1.24345E-14 -1
vn 2.741814E-06 1.24345E-14 -1
vn 2.741814E-06 1.24345E-14 -1
vn 2.741814E-06 1.24345E-14 -1
vn 2.741814E-06 1.24345E-14 -1
vn 2.741814E-06 1.24345E-14 -1
vn 2.741814E-06 1.24345E-14 -1

vt 0 1.192093E-07
vt 0.2475586 0.4187012
vt 0 0.4187012
vt 0.2475586 1.192093E-07
vt 0 1
vt 0.2475586 1
vt 0.7363281 0.4187012
vt 0.7363281 1
vt 1 1
vt 1 0.4187012
vt 1 0
vt 0.7363281 5.960464E-08

g wall01_chimney_19329_404
usemtl wall01_chimney_19329_404
usemap wall01_chimney_19329_404
f 1/1/1 3/3/3 2/2/2
f 2/2/2 4/4/4 1/1/1
f 2/2/2 3/3/3 5/5/5
f 5/5/5 6/6/6 2/2/2
f 7/7/7 2/2/2 6/6/6
f 6/6/6 8/8/8 7/7/7
f 7/7/7 8/8/8 9/9/9
f 9/9/9 10/10/10 7/7/7
f 7/7/7 10/10/10 11/11/11
f 11/11/11 12/12/12 7/7/7
