#wall01_window1m_B_2_9386_766.obj

v 6.572813E-06 1.093651 1.049661
v 6.025906E-06 2.999999 2.354502E-06
v 6.025906E-06 -5.394342E-07 2.354502E-06
v 6.572813E-06 2.093651 1.049661
v 6.826289E-06 2.093651 1.949661
v 6.866742E-06 2.999999 3.000003
v 6.869805E-06 -9.367984E-07 3.000003
v 6.826289E-06 1.093651 1.949661

vn 0.9999703 -2.131627E-14 -0.007708317
vn 0.9999703 -2.131627E-14 -0.007708317
vn 0.9999703 -2.131627E-14 -0.007708317
vn 0.9999703 -2.131627E-14 -0.007708317
vn 0.9999703 -2.131627E-14 -0.007708317
vn 0.9999703 -2.131627E-14 -0.007708317
vn 0.9999703 -2.131627E-14 -0.007708317
vn 0.9999703 -2.131627E-14 -0.007708317

vt 0.6499023 0.364502
vt 1 1
vt 1 -5.960464E-07
vt 0.6499023 0.6977539
vt 0.3500977 0.6977539
vt 4.172325E-07 1
vt 3.576279E-07 -4.768372E-07
vt 0.3500977 0.364502

g wall01_window1m_B_2_9386_766
usemtl wall01_window1m_B_2_9386_766
usemap wall01_window1m_B_2_9386_766
f 1/1/1 3/3/3 2/2/2
f 2/2/2 4/4/4 1/1/1
f 5/5/5 4/4/4 2/2/2
f 2/2/2 6/6/6 5/5/5
f 5/5/5 6/6/6 7/7/7
f 7/7/7 3/3/3 1/1/1
f 7/7/7 8/8/8 5/5/5
f 1/1/1 8/8/8 7/7/7
