#wall01_6m_door_A_19930_462.obj

v -0.2000012 2.999999 5.5
v -0.2000007 2.2 0.4499998
v -0.2000001 3 -0.5
v -0.2000006 2.2 4.549997
v -0.2000001 4.291201E-08 -0.4999999
v -0.2000007 0.05249992 0.4499999
v -0.2000012 -5.322394E-07 5.5
v -0.2000006 0.05249951 4.549998

vn -2.205372E-06 -7.105427E-15 -1
vn -2.205372E-06 -7.105427E-15 -1
vn -2.205372E-06 -7.105427E-15 -1
vn -2.205372E-06 -7.105427E-15 -1
vn -2.205372E-06 -7.105427E-15 -1
vn -2.205372E-06 -7.105427E-15 -1
vn -2.205372E-06 -7.105427E-15 -1
vn -2.205372E-06 -7.105427E-15 -1

vt 2 1
vt 0.3166504 0.7333984
vt 0 1
vt 1.683594 0.7333984
vt 0 0
vt 0.3166504 0.01750183
vt 2 -2.384186E-07
vt 1.683594 0.01750183

g wall01_6m_door_A_19930_462
usemtl wall01_6m_door_A_19930_462
usemap wall01_6m_door_A_19930_462
f 1/1/1 3/3/3 2/2/2
f 2/2/2 4/4/4 1/1/1
f 2/2/2 3/3/3 5/5/5
f 5/5/5 6/6/6 2/2/2
f 6/6/6 5/5/5 7/7/7
f 7/7/7 1/1/1 4/4/4
f 7/7/7 8/8/8 6/6/6
f 4/4/4 8/8/8 7/7/7
