#wall01_window1m_A_2_9591_1039.obj

v -0.1999979 0.8936516 1.949658
v -0.1999988 2.999999 3.000002
v -0.1999988 -3.705647E-07 3.000003
v -0.1999979 2.293651 1.949658
v -0.1999973 2.293652 1.049663
v -0.1999962 3 2.240461E-06
v -0.1999962 -7.595145E-08 1.945984E-06
v -0.1999973 0.893652 1.049663

vn -0.025302 -1.776356E-15 0.9996798
vn -0.025302 -1.776356E-15 0.9996798
vn -0.025302 -1.776356E-15 0.9996798
vn -0.025302 -1.776356E-15 0.9996798
vn -0.025302 -1.776356E-15 0.9996798
vn -0.025302 -1.776356E-15 0.9996798
vn -0.025302 -1.776356E-15 0.9996798
vn -0.025302 -1.776356E-15 0.9996798

vt 0.6499023 0.2978516
vt 1 1
vt 1 5.960464E-08
vt 0.6499023 0.7646484
vt 0.3498535 0.7646484
vt 0 1
vt 0 0
vt 0.3498535 0.2978516

g wall01_window1m_A_2_9591_1039
usemtl wall01_window1m_A_2_9591_1039
usemap wall01_window1m_A_2_9591_1039
f 1/1/1 3/3/3 2/2/2
f 2/2/2 4/4/4 1/1/1
f 5/5/5 4/4/4 2/2/2
f 2/2/2 6/6/6 5/5/5
f 5/5/5 6/6/6 7/7/7
f 7/7/7 3/3/3 1/1/1
f 7/7/7 8/8/8 5/5/5
f 1/1/1 8/8/8 7/7/7
