#wall04_10379_1609.obj

v -0.2000126 2.999998 3.000001
v -1.082918E-05 2.999999 -1.079272E-06
v -1.081019E-05 2.999998 3
v -0.2000126 2.999999 -1.046566E-06
v -0.2000126 2.999999 -1.046566E-06
v -1.082918E-05 -7.595154E-08 -1.079272E-06
v -1.082918E-05 2.999999 -1.079272E-06
v -0.2000126 -7.595154E-08 -1.046566E-06
v -1.081019E-05 2.999998 3
v -0.2000126 -5.01699E-07 3.000001
v -0.2000126 2.999998 3.000001
v -1.081019E-05 -5.01699E-07 3

vn -3.679824E-09 0.9999995 1.453901E-07
vn -3.679824E-09 0.9999995 1.453901E-07
vn -3.679824E-09 0.9999995 1.453901E-07
vn -3.679824E-09 0.9999995 1.453901E-07
vn 0.02530189 4.371137E-08 -0.9996797
vn 0.02530189 4.371137E-08 -0.9996797
vn 0.02530189 4.371137E-08 -0.9996797
vn 0.02530189 4.371137E-08 -0.9996797
vn -0.02530189 -4.371137E-08 0.9996797
vn -0.02530189 -4.371137E-08 0.9996797
vn -0.02530189 -4.371137E-08 0.9996797
vn -0.02530189 -4.371137E-08 0.9996797

vt 1 0.9145508
vt 3.576279E-07 0.9814453
vt 1 0.9814453
vt 3.576279E-07 0.9145508
vt 4.768372E-07 1
vt 0.06665039 0
vt 0.06665039 1
vt 2.980232E-07 0
vt 0.9331055 1
vt 1 0
vt 1 1
vt 0.9331055 0

g wall04_10379_1609
usemtl wall04_10379_1609
usemap wall04_10379_1609
f 1/1/1 3/3/3 2/2/2
f 2/2/2 4/4/4 1/1/1
f 5/5/5 7/7/7 6/6/6
f 6/6/6 8/8/8 5/5/5
f 9/9/9 11/11/11 10/10/10
f 10/10/10 12/12/12 9/9/9
