#wall01_door1m_5_9106_1044.obj

v 1.272249E-05 2.999999 -2.935907E-06
v -0.1999873 2.999999 2.999997
v -0.1999859 2.999999 -2.521866E-06
v 1.129687E-05 2.999999 2.999997
v -0.1999908 -4.528643E-07 2.999997
v 1.129687E-05 2.999999 2.999997
v 1.129687E-05 -4.528643E-07 2.999997
v -0.1999873 2.999999 2.999997
v -0.1999859 -2.341317E-07 -2.521866E-06
v 1.272249E-05 2.999999 -2.935907E-06
v -0.1999859 2.999999 -2.521866E-06
v 1.272249E-05 -2.341317E-07 -2.935907E-06
v 1.098781E-05 2.1 0.9499965
v -0.1999876 0.05250019 0.9499969
v -0.1999876 2.1 0.9499969
v 1.098781E-05 0.05250019 0.9499965
v 1.303155E-05 0.05249997 2.049998
v -0.1999891 2.099999 2.049998
v -0.1999891 0.05249997 2.049998
v 1.303155E-05 2.099999 2.049998
v 1.303155E-05 2.099999 2.049998
v -0.1999876 2.1 0.9499969
v -0.1999891 2.099999 2.049998
v 1.098781E-05 2.1 0.9499965
v 1.098781E-05 0.05250019 0.9499965
v -0.1999891 0.05249997 2.049998
v -0.1999876 0.05250019 0.9499969
v 1.303155E-05 0.05249997 2.049998

vn 4.371114E-08 0.9999998 1.017254E-07
vn 4.371114E-08 0.9999998 1.017254E-07
vn 4.371114E-08 0.9999998 1.017254E-07
vn 4.371114E-08 0.9999998 1.017254E-07
vn -2.488083E-06 1.065814E-14 1
vn -2.488083E-06 1.065814E-14 1
vn -2.488083E-06 1.065814E-14 1
vn -2.488083E-06 1.065814E-14 1
vn 2.488083E-06 -1.065814E-14 -1
vn 2.488083E-06 -1.065814E-14 -1
vn 2.488083E-06 -1.065814E-14 -1
vn 2.488083E-06 -1.065814E-14 -1
vn -2.488083E-06 1.065814E-14 1
vn -2.488083E-06 1.065814E-14 1
vn -2.488083E-06 1.065814E-14 1
vn -2.488083E-06 1.065814E-14 1
vn 2.488083E-06 -1.065814E-14 -1
vn 2.488083E-06 -1.065814E-14 -1
vn 2.488083E-06 -1.065814E-14 -1
vn 2.488083E-06 -1.065814E-14 -1
vn -4.371036E-08 -0.9999998 -4.161489E-07
vn -4.371036E-08 -0.9999998 -4.161489E-07
vn -4.371036E-08 -0.9999998 -4.161489E-07
vn -4.371036E-08 -0.9999998 -4.161489E-07
vn 4.371107E-08 0.9999998 1.300466E-07
vn 4.371107E-08 0.9999998 1.300466E-07
vn 4.371107E-08 0.9999998 1.300466E-07
vn 4.371107E-08 0.9999998 1.300466E-07

vt 3.576279E-07 0.9145508
vt 1 0.9814453
vt 3.576279E-07 0.9814453
vt 1 0.9145508
vt 1 1.192093E-07
vt 0.9331055 1
vt 0.9331055 1.192093E-07
vt 1 1
vt 5.960464E-08 3.576279E-07
vt 0.06665039 1
vt 5.960464E-08 1
vt 0.06665039 3.576279E-07
vt 0.06665039 0.05102539
vt 2.980232E-07 0.7333984
vt 2.980232E-07 0.05102539
vt 0.06665039 0.7333984
vt 2.980232E-07 0.7333984
vt 0.06665039 0.05102539
vt 0.06665039 0.7333984
vt 2.980232E-07 0.05102539
vt 0.4335938 0.9814453
vt 0.0670166 0.9145508
vt 0.4335938 0.9145508
vt 0.0670166 0.9814453
vt 0.06671143 0.9814453
vt 0.4333496 0.9145508
vt 0.06671143 0.9145508
vt 0.4333496 0.9814453

g wall01_door1m_5_9106_1044
usemtl wall01_door1m_5_9106_1044
usemap wall01_door1m_5_9106_1044
f 1/1/1 3/3/3 2/2/2
f 2/2/2 4/4/4 1/1/1
f 5/5/5 7/7/7 6/6/6
f 6/6/6 8/8/8 5/5/5
f 9/9/9 11/11/11 10/10/10
f 10/10/10 12/12/12 9/9/9
f 13/13/13 15/15/15 14/14/14
f 14/14/14 16/16/16 13/13/13
f 17/17/17 19/19/19 18/18/18
f 18/18/18 20/20/20 17/17/17
f 21/21/21 23/23/23 22/22/22
f 22/22/22 24/24/24 21/21/21
f 25/25/25 27/27/27 26/26/26
f 26/26/26 28/28/28 25/25/25
