#wall01_door1m_10774_1153.obj

v 4.137762E-06 -2.888251E-07 3.909929E-06
v 3.872757E-06 0.0525 2.050004
v 5.171819E-06 0.05250016 0.9500039
v 4.906814E-06 -5.834384E-07 3.000005
v 4.143148E-06 2.999999 3.9916E-06
v 5.171819E-06 2.1 0.9500038
v 4.906814E-06 2.999998 3.000004
v 3.872757E-06 2.099999 2.050004

vn 0.025302 1.776356E-15 -0.9996798
vn 0.025302 1.776356E-15 -0.9996798
vn 0.025302 1.776356E-15 -0.9996798
vn 0.025302 1.776356E-15 -0.9996798
vn 0.025302 1.776356E-15 -0.9996798
vn 0.025302 1.776356E-15 -0.9996798
vn 0.025302 1.776356E-15 -0.9996798
vn 0.025302 1.776356E-15 -0.9996798

vt 1 5.960464E-08
vt 0.3166504 0.01750183
vt 0.6831055 0.01750183
vt 2.384186E-07 1.788139E-07
vt 1 1
vt 0.6831055 0.7001953
vt 1.192093E-07 1
vt 0.3166504 0.7001953

g wall01_door1m_10774_1153
usemtl wall01_door1m_10774_1153
usemap wall01_door1m_10774_1153
f 1/1/1 3/3/3 2/2/2
f 2/2/2 4/4/4 1/1/1
f 3/3/3 1/1/1 5/5/5
f 5/5/5 6/6/6 3/3/3
f 6/6/6 5/5/5 7/7/7
f 7/7/7 4/4/4 2/2/2
f 7/7/7 8/8/8 6/6/6
f 2/2/2 8/8/8 7/7/7
