#wall01_door1m_9404_810.obj

v -1.290702E-05 -1.420699E-07 -8.898276E-06
v -1.44536E-05 0.05250002 2.049992
v -1.393445E-05 0.05250022 0.9499915
v -1.548104E-05 -5.394342E-07 2.999992
v -1.290702E-05 2.999999 -8.898276E-06
v -1.393445E-05 2.1 0.9499915
v -1.548104E-05 2.999998 2.999992
v -1.44536E-05 2.099999 2.049992

vn 0.00771095 -1.412506E-14 0.9999703
vn 0.00771095 -1.412506E-14 0.9999703
vn 0.00771095 -1.412506E-14 0.9999703
vn 0.00771095 -1.412506E-14 0.9999703
vn 0.00771095 -1.412506E-14 0.9999703
vn 0.00771095 -1.412506E-14 0.9999703
vn 0.00771095 -1.412506E-14 0.9999703
vn 0.00771095 -1.412506E-14 0.9999703

vt 1 5.960464E-08
vt 0.3166504 0.01750183
vt 0.6831055 0.01750183
vt 2.384186E-07 1.788139E-07
vt 1 1
vt 0.6831055 0.7001953
vt 1.192093E-07 1
vt 0.3166504 0.7001953

g wall01_door1m_9404_810
usemtl wall01_door1m_9404_810
usemap wall01_door1m_9404_810
f 1/1/1 3/3/3 2/2/2
f 2/2/2 4/4/4 1/1/1
f 3/3/3 1/1/1 5/5/5
f 5/5/5 6/6/6 3/3/3
f 6/6/6 5/5/5 7/7/7
f 7/7/7 4/4/4 2/2/2
f 7/7/7 8/8/8 6/6/6
f 2/2/2 8/8/8 7/7/7
