#wall01_door1m_3_8756_1495.obj

v 2.847336E-06 -2.341311E-07 1.337094E-05
v 3.648753E-06 0.05250006 2.050014
v 1.340823E-06 0.05250001 0.9500129
v 2.142241E-06 -3.217295E-07 3.000013
v 2.847336E-06 2.999999 1.323981E-05
v 1.340823E-06 2.1 0.9500127
v 2.142241E-06 2.999998 3.000013
v 3.648753E-06 2.1 2.050014

vn 1.91391E-06 5.210801E-15 -1
vn 1.91391E-06 5.210801E-15 -1
vn 1.91391E-06 5.210801E-15 -1
vn 1.91391E-06 5.210801E-15 -1
vn 1.91391E-06 5.210801E-15 -1
vn 1.91391E-06 5.210801E-15 -1
vn 1.91391E-06 5.210801E-15 -1
vn 1.91391E-06 5.210801E-15 -1

vt 1 5.960464E-08
vt 0.3166504 0.01750183
vt 0.6831055 0.01750183
vt 2.384186E-07 1.788139E-07
vt 1 1
vt 0.6831055 0.7001953
vt 1.192093E-07 1
vt 0.3166504 0.7001953

g wall01_door1m_3_8756_1495
usemtl wall01_door1m_3_8756_1495
usemap wall01_door1m_3_8756_1495
f 1/1/1 3/3/3 2/2/2
f 2/2/2 4/4/4 1/1/1
f 3/3/3 1/1/1 5/5/5
f 5/5/5 6/6/6 3/3/3
f 6/6/6 5/5/5 7/7/7
f 7/7/7 4/4/4 2/2/2
f 7/7/7 8/8/8 6/6/6
f 2/2/2 8/8/8 7/7/7
