#wall01_interior_1_9175_1423.obj

v -0.1999942 2.999999 2.799994
v -0.1999942 9.69955E-09 -6.143502E-06
v -0.1999942 2.999999 -6.143502E-06
v -0.1999942 -4.277657E-07 2.799994

vn -0.01585007 -4.37114E-08 -0.9998744
vn -0.01585007 -4.37114E-08 -0.9998744
vn -0.01585007 -4.37114E-08 -0.9998744
vn -0.01585007 -4.37114E-08 -0.9998744

vt 1 1
vt 0.06665039 0
vt 0.06665039 1
vt 1 0

g wall01_interior_1_9175_1423
usemtl wall01_interior_1_9175_1423
usemap wall01_interior_1_9175_1423
f 1/1/1 3/3/3 2/2/2
f 2/2/2 4/4/4 1/1/1
