#wall01_window1m_A_4_8721_1147.obj

v -0.1999955 0.8936518 1.949644
v -0.1999956 3 2.99999
v -0.1999955 -2.090331E-07 2.99999
v -0.1999956 2.293651 1.949644
v -0.1999955 2.293652 1.049647
v -0.1999955 3 -1.258711E-05
v -0.1999954 9.69955E-09 -1.258538E-05
v -0.1999954 0.8936518 1.049647

vn -0.01585007 -4.371138E-08 -0.9998744
vn -0.01585007 -4.371138E-08 -0.9998744
vn -0.01585007 -4.371138E-08 -0.9998744
vn -0.01585007 -4.371138E-08 -0.9998744
vn -0.01585007 -4.371138E-08 -0.9998744
vn -0.01585007 -4.371138E-08 -0.9998744
vn -0.01585007 -4.371138E-08 -0.9998744
vn -0.01585007 -4.371138E-08 -0.9998744

vt 0.6499023 0.2978516
vt 1 1
vt 1 5.960464E-08
vt 0.6499023 0.7646484
vt 0.3498535 0.7646484
vt 0 1
vt 0 0
vt 0.3498535 0.2978516

g wall01_window1m_A_4_8721_1147
usemtl wall01_window1m_A_4_8721_1147
usemap wall01_window1m_A_4_8721_1147
f 1/1/1 3/3/3 2/2/2
f 2/2/2 4/4/4 1/1/1
f 5/5/5 4/4/4 2/2/2
f 2/2/2 6/6/6 5/5/5
f 5/5/5 6/6/6 7/7/7
f 7/7/7 3/3/3 1/1/1
f 7/7/7 8/8/8 5/5/5
f 1/1/1 8/8/8 7/7/7
