#wall01_window1m_A_2_9557_1188.obj

v 5.026153E-06 3 -9.043149E-06
v -0.1999952 3 2.999991
v -0.199995 3 -9.450447E-06
v 4.90653E-06 3 2.999992
v 5.026153E-06 1.595037E-07 -8.912015E-06
v -0.199995 3 -9.450447E-06
v -0.199995 1.595037E-07 -9.319313E-06
v 5.026153E-06 3 -9.043149E-06
v -0.1999952 -1.502157E-07 2.999992
v 4.90653E-06 3 2.999992
v 4.90653E-06 -1.502156E-07 2.999992
v -0.1999952 3 2.999991
v 5.005312E-06 2.293652 1.049651
v -0.199995 2.293652 1.949647
v 4.987975E-06 2.293652 1.949647
v -0.1999949 2.293653 1.049654
v 5.005312E-06 0.8936517 1.049651
v -0.1999949 2.293653 1.049654
v 5.005312E-06 2.293652 1.049651
v -0.1999949 0.8936521 1.049654
v 4.987975E-06 0.8936522 1.949647
v -0.1999949 0.8936521 1.049654
v 5.005312E-06 0.8936517 1.049651
v -0.199995 0.8936517 1.949647
v 4.987975E-06 2.293652 1.949647
v -0.199995 0.8936517 1.949647
v 4.987975E-06 0.8936522 1.949647
v -0.199995 2.293652 1.949647

vn -3.149076E-09 0.9999995 1.454026E-07
vn -3.149076E-09 0.9999995 1.454026E-07
vn -3.149076E-09 0.9999995 1.454026E-07
vn -3.149076E-09 0.9999995 1.454026E-07
vn 0.02165253 4.371136E-08 -0.9997657
vn 0.02165253 4.371136E-08 -0.9997657
vn 0.02165253 4.371136E-08 -0.9997657
vn 0.02165253 4.371136E-08 -0.9997657
vn -0.02165253 -4.371136E-08 0.9997657
vn -0.02165253 -4.371136E-08 0.9997657
vn -0.02165253 -4.371136E-08 0.9997657
vn -0.02165253 -4.371136E-08 0.9997657
vn -5.357844E-07 -0.9999995 -6.864416E-07
vn 5.597034E-07 -0.9999995 -4.179805E-07
vn 7.710491E-07 -0.9999995 -3.66188E-07
vn -7.471301E-07 -0.9999995 -7.382342E-07
vn -0.02165253 -4.371136E-08 0.9997657
vn -0.02165253 -4.371136E-08 0.9997657
vn -0.02165253 -4.371136E-08 0.9997657
vn -0.02165253 -4.371136E-08 0.9997657
vn -5.513393E-07 0.9999995 3.178082E-08
vn 5.557663E-07 0.9999995 -2.36192E-07
vn 7.691563E-07 0.9999995 -2.787857E-07
vn -7.637071E-07 0.9999995 2.718139E-08
vn 0.02165253 4.371136E-08 -0.9997657
vn 0.02165253 4.371136E-08 -0.9997657
vn 0.02165253 4.371136E-08 -0.9997657
vn 0.02165253 4.371136E-08 -0.9997657

vt 1.907349E-06 0.9814453
vt 1 0.9145508
vt 1.907349E-06 0.9145508
vt 1 0.9814453
vt 0.06665039 0
vt 0 1
vt 0 0
vt 0.06665039 1
vt 1 5.960464E-08
vt 0.9331055 1
vt 0.9331055 5.960464E-08
vt 1 1
vt 0.5161133 0.9814453
vt 0.8164063 0.9145508
vt 0.8164063 0.9814453
vt 0.5161133 0.9145508
vt -2.980232E-07 0.6196289
vt 0.06665039 0.1529541
vt -2.980232E-07 0.1529541
vt 0.06665039 0.6196289
vt 0.8164063 0.9814453
vt 0.5161133 0.9145508
vt 0.5161133 0.9814453
vt 0.8164063 0.9145508
vt 0.06665039 0.1529541
vt -3.576279E-07 0.6196289
vt 0.06665039 0.6196289
vt -4.172325E-07 0.1529541

g wall01_window1m_A_2_9557_1188
usemtl wall01_window1m_A_2_9557_1188
usemap wall01_window1m_A_2_9557_1188
f 1/1/1 3/3/3 2/2/2
f 2/2/2 4/4/4 1/1/1
f 5/5/5 7/7/7 6/6/6
f 6/6/6 8/8/8 5/5/5
f 9/9/9 11/11/11 10/10/10
f 10/10/10 12/12/12 9/9/9
f 13/13/13 15/15/15 14/14/14
f 14/14/14 16/16/16 13/13/13
f 17/17/17 19/19/19 18/18/18
f 18/18/18 20/20/20 17/17/17
f 21/21/21 23/23/23 22/22/22
f 22/22/22 24/24/24 21/21/21
f 25/25/25 27/27/27 26/26/26
f 26/26/26 28/28/28 25/25/25
