#wall01_window1m_B_2_9909_918.obj

v 4.360543E-06 2.999999 -1.444412E-05
v -0.1999961 2.999999 2.99999
v -0.1999957 2.999999 -1.240476E-05
v 3.983539E-06 2.999999 2.999988
v 4.33493E-06 -7.983276E-07 -1.18672E-05
v -0.1999957 2.999999 -1.240476E-05
v -0.1999957 -5.912355E-07 -9.823978E-06
v 4.360543E-06 2.999999 -1.444412E-05
v -0.199996 -1.188342E-06 2.999989
v 3.983539E-06 2.999999 2.999988
v 3.942955E-06 -1.196795E-06 2.999987
v -0.1999961 2.999999 2.99999
v 4.243942E-06 2.093651 1.049647
v -0.1999959 2.09365 1.949646
v 4.101137E-06 2.093651 1.949648
v -0.1999958 2.093651 1.049649
v 4.225262E-06 1.09365 1.049646
v -0.1999958 2.093651 1.049649
v 4.243942E-06 2.093651 1.049647
v -0.1999958 1.09365 1.049648
v 4.082456E-06 1.09365 1.949646
v -0.1999958 1.09365 1.049648
v 4.225262E-06 1.09365 1.049646
v -0.199996 1.09365 1.949645
v 4.101137E-06 2.093651 1.949648
v -0.199996 1.09365 1.949645
v 4.082456E-06 1.09365 1.949646
v -0.1999959 2.09365 1.949646

vn 0.02056646 0.9997876 0.001319167
vn 0.02056646 0.9997876 0.001319167
vn 0.02056646 0.9997876 0.001319167
vn 0.02056646 0.9997876 0.001319167
vn -0.9997783 0.02057213 -0.00453025
vn -0.9997783 0.02057213 -0.00453025
vn -0.9997783 0.02057213 -0.00453025
vn -0.9997783 0.02057213 -0.00453025
vn 0.9997783 -0.02057213 0.00453025
vn 0.9997783 -0.02057213 0.00453025
vn 0.9997783 -0.02057213 0.00453025
vn 0.9997783 -0.02057213 0.00453025
vn -0.02056682 -0.9997876 -0.001318618
vn -0.02056658 -0.9997876 -0.001319718
vn -0.02056653 -0.9997876 -0.00131993
vn -0.02056687 -0.9997876 -0.001318405
vn 0.9997783 -0.02057213 0.00453025
vn 0.9997783 -0.02057213 0.00453025
vn 0.9997783 -0.02057213 0.00453025
vn 0.9997783 -0.02057213 0.00453025
vn 0.02056648 0.9997876 0.001319717
vn 0.02056624 0.9997876 0.001318615
vn 0.0205662 0.9997876 0.001318402
vn 0.02056653 0.9997876 0.00131993
vn -0.9997783 0.02057213 -0.00453025
vn -0.9997783 0.02057213 -0.00453025
vn -0.9997783 0.02057213 -0.00453025
vn -0.9997783 0.02057213 -0.00453025

vt 4.053116E-06 0.9814453
vt 1 0.9145508
vt 4.053116E-06 0.9145508
vt 1 0.9814453
vt 0.06665039 0
vt 0 1
vt -1.192093E-07 0
vt 0.06665039 1
vt 1 5.960464E-08
vt 0.9331055 1
vt 0.9331055 5.960464E-08
vt 1 1
vt 0.5654297 0.9814453
vt 0.265625 0.9145508
vt 0.265625 0.9814453
vt 0.5654297 0.9145508
vt 4.172325E-07 0.5537109
vt 0.06665039 0.2202148
vt 2.980232E-07 0.2202148
vt 0.06665039 0.5537109
vt 0.5654297 0.9814453
vt 0.265625 0.9145508
vt 0.265625 0.9814453
vt 0.5654297 0.9145508
vt 0.06665039 0.3037109
vt 4.172325E-07 0.6367188
vt 0.06665039 0.6367188
vt 2.980232E-07 0.3037109

g wall01_window1m_B_2_9909_918
usemtl wall01_window1m_B_2_9909_918
usemap wall01_window1m_B_2_9909_918
f 1/1/1 3/3/3 2/2/2
f 2/2/2 4/4/4 1/1/1
f 5/5/5 7/7/7 6/6/6
f 6/6/6 8/8/8 5/5/5
f 9/9/9 11/11/11 10/10/10
f 10/10/10 12/12/12 9/9/9
f 13/13/13 15/15/15 14/14/14
f 14/14/14 16/16/16 13/13/13
f 17/17/17 19/19/19 18/18/18
f 18/18/18 20/20/20 17/17/17
f 21/21/21 23/23/23 22/22/22
f 22/22/22 24/24/24 21/21/21
f 25/25/25 27/27/27 26/26/26
f 26/26/26 28/28/28 25/25/25
