#wall01_door1m_8937_1305.obj

v -0.1999959 2.999998 2.999995
v -0.1999957 2.1 0.9499956
v -0.1999956 2.999999 -4.070605E-06
v -0.1999958 2.099999 2.049995
v -0.1999958 0.0524998 2.049995
v -0.1999959 -7.519112E-07 2.999995
v -0.1999957 0.0525 0.9499956
v -0.1999956 -3.437596E-07 -4.070605E-06

vn -0.008654033 1.412506E-14 0.9999626
vn -0.008654033 1.412506E-14 0.9999626
vn -0.008654033 1.412506E-14 0.9999626
vn -0.008654033 1.412506E-14 0.9999626
vn -0.008654033 1.412506E-14 0.9999626
vn -0.008654033 1.412506E-14 0.9999626
vn -0.008654033 1.412506E-14 0.9999626
vn -0.008654033 1.412506E-14 0.9999626

vt 1 1
vt 0.3166504 0.7001953
vt -5.960464E-08 1
vt 0.6831055 0.7001953
vt 0.6831055 0.01750183
vt 1 -1.788139E-07
vt 0.3166504 0.01750183
vt -2.384186E-07 1.192093E-07

g wall01_door1m_8937_1305
usemtl wall01_door1m_8937_1305
usemap wall01_door1m_8937_1305
f 1/1/1 3/3/3 2/2/2
f 2/2/2 4/4/4 1/1/1
f 1/1/1 4/4/4 5/5/5
f 5/5/5 6/6/6 1/1/1
f 6/6/6 5/5/5 7/7/7
f 7/7/7 2/2/2 3/3/3
f 7/7/7 8/8/8 6/6/6
f 3/3/3 8/8/8 7/7/7
