#wall01_6m_door_A_11068_100.obj

v -2.013222E-06 3 -0.5000049
v -0.2000039 2.999999 5.499995
v -0.2000064 3 -0.5000054
v -5.883392E-06 2.999999 5.499996
v -0.2000064 3 -0.5000054
v -5.785889E-06 -1.421558E-07 -0.5000052
v -2.013222E-06 3 -0.5000049
v -0.2000038 -1.00723E-08 -0.5000057
v -6.714289E-06 2.2 0.4499939
v -0.2000064 0.05249971 0.449994
v -0.2000047 2.2 0.449995
v -2.016741E-06 0.05249971 0.4499944
v -6.714289E-06 2.2 0.4499939
v -0.2000076 2.199999 4.549993
v -3.211531E-06 2.199999 4.549994
v -0.2000047 2.2 0.449995
v -0.2000064 0.05249971 0.449994
v -4.889858E-06 0.05249916 4.549992
v -0.2000029 0.05249909 4.549993
v -2.016741E-06 0.05249971 0.4499944
v -0.2000039 2.999999 5.499995
v -3.30373E-06 -1.001613E-06 5.499995
v -0.2000077 -1.000286E-06 5.499995
v -5.883392E-06 2.999999 5.499996
v -3.211531E-06 2.199999 4.549994
v -0.2000029 0.05249909 4.549993
v -4.889858E-06 0.05249916 4.549992
v -0.2000076 2.199999 4.549993

vn 0.02056631 0.9997873 0.001319362
vn 0.02056631 0.9997873 0.001319362
vn 0.02056631 0.9997873 0.001319362
vn 0.02056631 0.9997873 0.001319362
vn 0.004553842 0.001225795 -0.9999887
vn 0.004553842 0.001225795 -0.9999887
vn 0.004553842 0.001225795 -0.9999887
vn 0.004553842 0.001225795 -0.9999887
vn -0.004553842 -0.001225795 0.9999887
vn -0.004553842 -0.001225795 0.9999887
vn -0.004553842 -0.001225795 0.9999887
vn -0.004553842 -0.001225795 0.9999887
vn -0.02056631 -0.9997873 -0.001319321
vn -0.02056631 -0.9997873 -0.001319321
vn -0.02056631 -0.9997873 -0.001319321
vn -0.02056631 -0.9997873 -0.001319321
vn 0.02056631 0.9997873 0.001319209
vn 0.02056631 0.9997873 0.001319209
vn 0.02056631 0.9997873 0.001319209
vn 0.02056631 0.9997873 0.001319209
vn -0.004553842 -0.001225795 0.9999887
vn -0.004553842 -0.001225795 0.9999887
vn -0.004553842 -0.001225795 0.9999887
vn -0.004553842 -0.001225795 0.9999887
vn 0.004553842 0.001225795 -0.9999887
vn 0.004553842 0.001225795 -0.9999887
vn 0.004553842 0.001225795 -0.9999887
vn 0.004553842 0.001225795 -0.9999887

vt 3.576279E-07 0.9814453
vt 2 0.9145508
vt 3.576279E-07 0.9145508
vt 2 0.9814453
vt -1.192093E-07 1
vt 0.06665039 0
vt 0.06665039 1
vt 0 0
vt 0.06665039 5.960464E-07
vt -1.192093E-07 0.7158203
vt 0 5.960464E-07
vt 0.06665039 0.7158203
vt 1.907349E-06 0.9145508
vt 1.033203 0.9814453
vt 1.033203 0.9145508
vt 1.907349E-06 0.9814453
vt 1.907349E-06 0.9145508
vt 1.033203 0.9814453
vt 1.033203 0.9145508
vt 1.907349E-06 0.9814453
vt 1 1
vt 0.9331055 5.960464E-08
vt 1 5.960464E-08
vt 0.9331055 1
vt -1.192093E-07 0.7158203
vt 0.06665039 0
vt 0 0
vt 0.06665039 0.7158203

g wall01_6m_door_A_11068_100
usemtl wall01_6m_door_A_11068_100
usemap wall01_6m_door_A_11068_100
f 1/1/1 3/3/3 2/2/2
f 2/2/2 4/4/4 1/1/1
f 5/5/5 7/7/7 6/6/6
f 6/6/6 8/8/8 5/5/5
f 9/9/9 11/11/11 10/10/10
f 10/10/10 12/12/12 9/9/9
f 13/13/13 15/15/15 14/14/14
f 14/14/14 16/16/16 13/13/13
f 17/17/17 19/19/19 18/18/18
f 18/18/18 20/20/20 17/17/17
f 21/21/21 23/23/23 22/22/22
f 22/22/22 24/24/24 21/21/21
f 25/25/25 27/27/27 26/26/26
f 26/26/26 28/28/28 25/25/25
