#wall21_9405_1542.obj

v -0.1999964 2.999999 3.000005
v 3.327643E-06 2.999999 3.948917E-06
v 2.8751E-06 2.999999 3.000005
v -0.1999959 2.999999 3.915012E-06
v -0.1999959 2.999999 3.915012E-06
v 3.327643E-06 9.699549E-09 3.948917E-06
v 3.327643E-06 2.999999 3.948917E-06
v -0.1999959 9.699549E-09 3.915012E-06
v 2.8751E-06 2.999999 3.000005
v -0.1999964 -2.090331E-07 3.000005
v -0.1999964 2.999999 3.000005
v 2.8751E-06 -2.090331E-07 3.000005

vn 1.612314E-09 0.9999996 1.017125E-07
vn 1.612314E-09 0.9999996 1.017125E-07
vn 1.612314E-09 0.9999996 1.017125E-07
vn 1.612314E-09 0.9999996 1.017125E-07
vn -0.01584969 0 -0.9998742
vn -0.01584969 0 -0.9998742
vn -0.01584969 0 -0.9998742
vn -0.01584969 0 -0.9998742
vn 0.01584969 0 0.9998742
vn 0.01584969 0 0.9998742
vn 0.01584969 0 0.9998742
vn 0.01584969 0 0.9998742

vt 1 0.9145508
vt 3.576279E-07 0.9814453
vt 1 0.9814453
vt 3.576279E-07 0.9145508
vt 4.768372E-07 1
vt 0.06665039 0
vt 0.06665039 1
vt 2.980232E-07 0
vt 0.9331055 1
vt 1 0
vt 1 1
vt 0.9331055 0

g wall21_9405_1542
usemtl wall21_9405_1542
usemap wall21_9405_1542
f 1/1/1 3/3/3 2/2/2
f 2/2/2 4/4/4 1/1/1
f 5/5/5 7/7/7 6/6/6
f 6/6/6 8/8/8 5/5/5
f 9/9/9 11/11/11 10/10/10
f 10/10/10 12/12/12 9/9/9
