#wall13_20088_438.obj

v -0.2000015 2.999999 3
v -9.246484E-07 2.999999 -2.348028E-07
v -2.664081E-07 2.999999 3
v -0.2000005 2.999999 -4.120579E-07
v -0.2000005 2.999999 -4.120579E-07
v -9.246485E-07 2.33705E-07 -1.036688E-07
v -9.246484E-07 2.999999 -2.348028E-07
v -0.2000005 2.33705E-07 -2.809239E-07
v -2.664081E-07 2.999999 3
v -0.2000015 -4.980189E-08 3
v -0.2000015 2.999999 3
v -2.664082E-07 -4.980189E-08 3.000001

vn 1.305441E-12 1 1.454366E-07
vn 1.305441E-12 1 1.454366E-07
vn 1.305441E-12 1 1.454366E-07
vn 1.305441E-12 1 1.454366E-07
vn -9.179114E-06 4.371137E-08 -1
vn -9.179114E-06 4.371137E-08 -1
vn -9.179114E-06 4.371137E-08 -1
vn -9.179114E-06 4.371137E-08 -1
vn 9.179114E-06 -4.371137E-08 1
vn 9.179114E-06 -4.371137E-08 1
vn 9.179114E-06 -4.371137E-08 1
vn 9.179114E-06 -4.371137E-08 1

vt 1 0.9145508
vt 3.576279E-07 0.9814453
vt 1 0.9814453
vt 3.576279E-07 0.9145508
vt 4.768372E-07 1
vt 0.06665039 0
vt 0.06665039 1
vt 2.980232E-07 0
vt 0.9331055 1
vt 1 0
vt 1 1
vt 0.9331055 0

g wall13_20088_438
usemtl wall13_20088_438
usemap wall13_20088_438
f 1/1/1 3/3/3 2/2/2
f 2/2/2 4/4/4 1/1/1
f 5/5/5 7/7/7 6/6/6
f 6/6/6 8/8/8 5/5/5
f 9/9/9 11/11/11 10/10/10
f 10/10/10 12/12/12 9/9/9
