#wall01_window1m_A_6_11317_1630.obj

v 2.52864E-06 2.999999 -1.067243E-05
v -0.1999979 2.999999 2.99999
v -0.1999975 3 -8.659702E-06
v 2.134064E-06 2.999999 2.999989
v 2.503027E-06 -2.709068E-07 -8.095501E-06
v -0.1999975 3 -8.659702E-06
v -0.1999975 -3.932117E-07 -1.243124E-05
v 2.52864E-06 2.999999 -1.067243E-05
v -0.1999978 -7.268899E-07 2.99999
v 2.134064E-06 2.999999 2.999989
v 2.193794E-06 -7.354075E-07 2.999988
v -0.1999979 2.999999 2.99999
v 2.355574E-06 2.293651 1.049651
v -0.1999977 2.293651 1.949644
v 2.262639E-06 2.293651 1.949645
v -0.1999976 2.293652 1.049653
v 2.36945E-06 0.8936512 1.049649
v -0.1999976 2.293652 1.049653
v 2.355574E-06 2.293651 1.049651
v -0.1999976 0.8936515 1.049651
v 2.291485E-06 0.8936516 1.949647
v -0.1999976 0.8936515 1.049651
v 2.36945E-06 0.8936512 1.049649
v -0.1999977 0.8936515 1.949645
v 2.262639E-06 2.293651 1.949645
v -0.1999977 0.8936515 1.949645
v 2.291485E-06 0.8936516 1.949647
v -0.1999977 2.293651 1.949644

vn 0.02056647 0.9997877 0.001319167
vn 0.02056647 0.9997877 0.001319167
vn 0.02056647 0.9997877 0.001319167
vn 0.02056647 0.9997877 0.001319167
vn -0.9997784 0.02057213 -0.004530102
vn -0.9997784 0.02057213 -0.004530102
vn -0.9997784 0.02057213 -0.004530102
vn -0.9997784 0.02057213 -0.004530102
vn 0.9997784 -0.02057213 0.004530102
vn 0.9997784 -0.02057213 0.004530102
vn 0.9997784 -0.02057213 0.004530102
vn 0.9997784 -0.02057213 0.004530102
vn -0.020567 -0.9997877 -0.001318619
vn -0.02056675 -0.9997877 -0.001319719
vn -0.0205667 -0.9997877 -0.001319931
vn -0.02056705 -0.9997877 -0.001318406
vn 0.9997784 -0.02057213 0.004530102
vn 0.9997784 -0.02057213 0.004530102
vn 0.9997784 -0.02057213 0.004530102
vn 0.9997784 -0.02057213 0.004530102
vn 0.02056636 0.9997877 0.001319717
vn 0.02056607 0.9997877 0.001318615
vn 0.02056603 0.9997877 0.001318402
vn 0.02056636 0.9997877 0.001319929
vn -0.9997784 0.02057213 -0.004530102
vn -0.9997784 0.02057213 -0.004530102
vn -0.9997784 0.02057213 -0.004530102
vn -0.9997784 0.02057213 -0.004530102

vt 1.907349E-06 0.9814453
vt 1 0.9145508
vt 1.907349E-06 0.9145508
vt 1 0.9814453
vt 0.06665039 0
vt 0 1
vt 0 0
vt 0.06665039 1
vt 1 5.960464E-08
vt 0.9331055 1
vt 0.9331055 5.960464E-08
vt 1 1
vt 0.5161133 0.9814453
vt 0.8164063 0.9145508
vt 0.8164063 0.9814453
vt 0.5161133 0.9145508
vt -2.980232E-07 0.6196289
vt 0.06665039 0.1529541
vt -2.980232E-07 0.1529541
vt 0.06665039 0.6196289
vt 0.8164063 0.9814453
vt 0.5161133 0.9145508
vt 0.5161133 0.9814453
vt 0.8164063 0.9145508
vt 0.06665039 0.1529541
vt -3.576279E-07 0.6196289
vt 0.06665039 0.6196289
vt -4.172325E-07 0.1529541

g wall01_window1m_A_6_11317_1630
usemtl wall01_window1m_A_6_11317_1630
usemap wall01_window1m_A_6_11317_1630
f 1/1/1 3/3/3 2/2/2
f 2/2/2 4/4/4 1/1/1
f 5/5/5 7/7/7 6/6/6
f 6/6/6 8/8/8 5/5/5
f 9/9/9 11/11/11 10/10/10
f 10/10/10 12/12/12 9/9/9
f 13/13/13 15/15/15 14/14/14
f 14/14/14 16/16/16 13/13/13
f 17/17/17 19/19/19 18/18/18
f 18/18/18 20/20/20 17/17/17
f 21/21/21 23/23/23 22/22/22
f 22/22/22 24/24/24 21/21/21
f 25/25/25 27/27/27 26/26/26
f 26/26/26 28/28/28 25/25/25
