#wall01_door1m_3_10629_825.obj

v 6.170961E-06 -3.688617E-07 -7.763526E-06
v 5.549794E-06 0.05249966 2.049989
v 6.3258E-06 0.05249995 0.9499936
v 5.493336E-06 -7.020812E-07 2.999995
v 5.897824E-06 2.999999 -1.032684E-05
v 6.021117E-06 2.1 0.9499919
v 6.014431E-06 2.999998 2.999992
v 6.068798E-06 2.099999 2.049994

vn 0.00455603 0.001225705 -0.9999889
vn 0.00455603 0.001225705 -0.9999889
vn 0.00455603 0.001225705 -0.9999889
vn 0.00455603 0.001225705 -0.9999889
vn 0.00455603 0.001225705 -0.9999889
vn 0.00455603 0.001225705 -0.9999889
vn 0.00455603 0.001225705 -0.9999889
vn 0.00455603 0.001225705 -0.9999889

vt 1 5.960464E-08
vt 0.3166504 0.01750183
vt 0.6831055 0.01750183
vt 2.384186E-07 1.788139E-07
vt 1 1
vt 0.6831055 0.7001953
vt 1.192093E-07 1
vt 0.3166504 0.7001953

g wall01_door1m_3_10629_825
usemtl wall01_door1m_3_10629_825
usemap wall01_door1m_3_10629_825
f 1/1/1 3/3/3 2/2/2
f 2/2/2 4/4/4 1/1/1
f 3/3/3 1/1/1 5/5/5
f 5/5/5 6/6/6 3/3/3
f 6/6/6 5/5/5 7/7/7
f 7/7/7 4/4/4 2/2/2
f 7/7/7 8/8/8 6/6/6
f 2/2/2 8/8/8 7/7/7
