#wall01_window1m_A_10896_1368.obj

v -0.2000065 0.8936518 1.949643
v -0.200007 2.999999 2.999989
v -0.2000069 -3.40752E-07 2.999987
v -0.2000065 2.293652 1.949643
v -0.2000084 2.293652 1.04965
v -0.2000068 3 -1.377008E-05
v -0.2000068 5.661229E-08 -1.377008E-05
v -0.2000084 0.8936518 1.049647

vn -0.007712241 1.166692E-14 -0.9999703
vn -0.007712241 1.166692E-14 -0.9999703
vn -0.007712241 1.166692E-14 -0.9999703
vn -0.007712241 1.166692E-14 -0.9999703
vn -0.007712241 1.166692E-14 -0.9999703
vn -0.007712241 1.166692E-14 -0.9999703
vn -0.007712241 1.166692E-14 -0.9999703
vn -0.007712241 1.166692E-14 -0.9999703

vt 0.6499023 0.2978516
vt 1 1
vt 1 5.960464E-08
vt 0.6499023 0.7646484
vt 0.3498535 0.7646484
vt 0 1
vt 0 0
vt 0.3498535 0.2978516

g wall01_window1m_A_10896_1368
usemtl wall01_window1m_A_10896_1368
usemap wall01_window1m_A_10896_1368
f 1/1/1 3/3/3 2/2/2
f 2/2/2 4/4/4 1/1/1
f 5/5/5 4/4/4 2/2/2
f 2/2/2 6/6/6 5/5/5
f 5/5/5 6/6/6 7/7/7
f 7/7/7 3/3/3 1/1/1
f 7/7/7 8/8/8 5/5/5
f 1/1/1 8/8/8 7/7/7
