#wall01_door1m_10971_1096.obj

v -9.98946E-06 -4.025192E-07 -4.573907E-06
v -1.350445E-05 0.05249957 2.049996
v -1.258539E-05 0.05249991 0.9499958
v -1.192683E-05 -7.97782E-07 2.999996
v -1.255277E-05 2.999999 -4.300775E-06
v -7.862734E-06 2.1 0.9499957
v -8.127353E-06 2.999998 2.999996
v -8.771824E-06 2.099999 2.049996

vn 0.9997782 -0.02057208 0.004527865
vn 0.9997782 -0.02057208 0.004527865
vn 0.9997782 -0.02057208 0.004527865
vn 0.9997782 -0.02057208 0.004527865
vn 0.9997782 -0.02057208 0.004527865
vn 0.9997782 -0.02057208 0.004527865
vn 0.9997782 -0.02057208 0.004527865
vn 0.9997782 -0.02057208 0.004527865

vt 1 5.960464E-08
vt 0.3166504 0.01750183
vt 0.6831055 0.01750183
vt 2.384186E-07 1.788139E-07
vt 1 1
vt 0.6831055 0.7001953
vt 1.192093E-07 1
vt 0.3166504 0.7001953

g wall01_door1m_10971_1096
usemtl wall01_door1m_10971_1096
usemap wall01_door1m_10971_1096
f 1/1/1 3/3/3 2/2/2
f 2/2/2 4/4/4 1/1/1
f 3/3/3 1/1/1 5/5/5
f 5/5/5 6/6/6 3/3/3
f 6/6/6 5/5/5 7/7/7
f 7/7/7 4/4/4 2/2/2
f 7/7/7 8/8/8 6/6/6
f 2/2/2 8/8/8 7/7/7
