#wall01_window1m_A_4_10805_1403.obj

v -9.328558E-06 0.8936517 1.049654
v -1.199801E-05 3 -6.591137E-06
v -9.414265E-06 -7.546424E-08 -6.863051E-06
v -7.570705E-06 2.293652 1.049654
v -1.007087E-05 2.293651 1.949649
v -7.572596E-06 2.999999 2.999994
v -1.135344E-05 -4.712512E-07 2.999993
v -1.184507E-05 0.8936517 1.949649

vn 0.9997782 -0.02057208 0.004527865
vn 0.9997782 -0.02057208 0.004527865
vn 0.9997782 -0.02057208 0.004527865
vn 0.9997782 -0.02057208 0.004527865
vn 0.9997782 -0.02057208 0.004527865
vn 0.9997782 -0.02057208 0.004527865
vn 0.9997782 -0.02057208 0.004527865
vn 0.9997782 -0.02057208 0.004527865

vt 0.6499023 0.2978516
vt 1 1
vt 1 0
vt 0.6499023 0.7646484
vt 0.3500977 0.7646484
vt -5.960464E-08 1
vt -5.960464E-08 5.960464E-08
vt 0.3500977 0.2978516

g wall01_window1m_A_4_10805_1403
usemtl wall01_window1m_A_4_10805_1403
usemap wall01_window1m_A_4_10805_1403
f 1/1/1 3/3/3 2/2/2
f 2/2/2 4/4/4 1/1/1
f 5/5/5 4/4/4 2/2/2
f 2/2/2 6/6/6 5/5/5
f 5/5/5 6/6/6 7/7/7
f 7/7/7 3/3/3 1/1/1
f 7/7/7 8/8/8 5/5/5
f 1/1/1 8/8/8 7/7/7
