#wall01_door1m_5_9106_1045.obj

v 1.272249E-05 -2.341317E-07 -2.935907E-06
v 1.303155E-05 0.05249997 2.049998
v 1.098781E-05 0.05250019 0.9499965
v 1.129687E-05 -4.528643E-07 2.999997
v 1.272249E-05 2.999999 -2.935907E-06
v 1.098781E-05 2.1 0.9499965
v 1.129687E-05 2.999999 2.999997
v 1.303155E-05 2.099999 2.049998

vn 1 -4.371138E-08 2.706816E-06
vn 1 -4.371138E-08 2.706816E-06
vn 1 -4.371138E-08 2.706816E-06
vn 1 -4.371138E-08 2.706816E-06
vn 1 -4.371138E-08 2.706816E-06
vn 1 -4.371138E-08 2.706816E-06
vn 1 -4.371138E-08 2.706816E-06
vn 1 -4.371138E-08 2.706816E-06

vt 1 5.960464E-08
vt 0.3166504 0.01750183
vt 0.6831055 0.01750183
vt 2.384186E-07 1.788139E-07
vt 1 1
vt 0.6831055 0.7001953
vt 1.192093E-07 1
vt 0.3166504 0.7001953

g wall01_door1m_5_9106_1045
usemtl wall01_door1m_5_9106_1045
usemap wall01_door1m_5_9106_1045
f 1/1/1 3/3/3 2/2/2
f 2/2/2 4/4/4 1/1/1
f 3/3/3 1/1/1 5/5/5
f 5/5/5 6/6/6 3/3/3
f 6/6/6 5/5/5 7/7/7
f 7/7/7 4/4/4 2/2/2
f 7/7/7 8/8/8 6/6/6
f 2/2/2 8/8/8 7/7/7
