#wall01_window1m_A_3_9475_1469.obj

v 6.443445E-07 0.8936515 1.049647
v 2.081851E-07 3 -1.004725E-05
v 2.081851E-07 -7.595197E-08 -9.916119E-06
v 6.443445E-07 2.293652 1.049647
v 1.359118E-07 2.293652 1.949645
v -7.467522E-07 2.999999 2.99999
v -7.467522E-07 -3.705653E-07 2.99999
v 1.359118E-07 0.893652 1.949645

vn 0.025302 1.776356E-15 -0.9996798
vn 0.025302 1.776356E-15 -0.9996798
vn 0.025302 1.776356E-15 -0.9996798
vn 0.025302 1.776356E-15 -0.9996798
vn 0.025302 1.776356E-15 -0.9996798
vn 0.025302 1.776356E-15 -0.9996798
vn 0.025302 1.776356E-15 -0.9996798
vn 0.025302 1.776356E-15 -0.9996798

vt 0.6499023 0.2978516
vt 1 1
vt 1 0
vt 0.6499023 0.7646484
vt 0.3500977 0.7646484
vt -5.960464E-08 1
vt -5.960464E-08 5.960464E-08
vt 0.3500977 0.2978516

g wall01_window1m_A_3_9475_1469
usemtl wall01_window1m_A_3_9475_1469
usemap wall01_window1m_A_3_9475_1469
f 1/1/1 3/3/3 2/2/2
f 2/2/2 4/4/4 1/1/1
f 5/5/5 4/4/4 2/2/2
f 2/2/2 6/6/6 5/5/5
f 5/5/5 6/6/6 7/7/7
f 7/7/7 3/3/3 1/1/1
f 7/7/7 8/8/8 5/5/5
f 1/1/1 8/8/8 7/7/7
