#wheel_backR_9213_416.obj

v 0.1067634 -0.09327778 -0.3437531
v 0.1067617 0.09212756 -0.3437413
v -0.1067569 0.09212715 -0.3437417
v -0.1055633 -0.09327778 -0.3437537
v -0.1067582 0.2516516 -0.2516261
v 0.106764 0.251652 -0.2516259
v -0.1067589 0.3437461 -0.09209044
v 0.1067633 0.3437465 -0.09209022
v -0.1067566 0.3437343 0.09212152
v 0.1067626 0.3437347 0.09212039
v -0.1067586 0.251619 0.2516441
v 0.106763 0.251619 0.2516458
v -0.1067579 0.09208246 0.3437392
v 0.1067643 0.09208266 0.3437394
v -0.105557 -0.09332717 0.3437269
v 0.106763 -0.09332696 0.3437262
v 0.1067641 -0.2223807 -0.2516581
v -0.1356364 -0.2322775 -0.2516585
v 0.1067615 -0.2437386 -0.09213398
v -0.2067524 -0.2437509 -0.09213406
v 0.1067615 -0.2437466 0.09207514
v -0.2067561 -0.2437466 0.09207521
v 0.1067637 -0.2223855 0.2516122
v -0.1356616 -0.2322936 0.2516114
v 0.106763 -0.09332696 0.3437262
v -0.105557 -0.09332717 0.3437269
v 0.1067641 -0.2223807 -0.2516581
v 0.1067615 -0.2437386 -0.09213398
v 0.1067615 -0.2437466 0.09207514
v 0.1067634 -0.09327778 -0.3437531
v 0.1067617 0.09212756 -0.3437413
v 0.1067637 -0.2223855 0.2516122
v 0.106764 0.251652 -0.2516259
v 0.106763 -0.09332696 0.3437262
v 0.1067633 0.3437465 -0.09209022
v 0.1067643 0.09208266 0.3437394
v 0.1067626 0.3437347 0.09212039
v 0.106763 0.251619 0.2516458
v -0.1067577 -0.02515503 -0.09391154
v -0.106759 0.02516722 -0.09390856
v -0.1067564 -0.06873705 -0.06875291
v -0.1053902 -0.09526814 -0.0251748
v -0.1067568 0.06874598 -0.06874412
v -0.1053903 -0.0952716 0.02514843
v -0.1067562 0.09390404 -0.02516148
v -0.1067563 -0.06874603 0.0687298
v -0.1067586 0.09390098 0.02515892
v -0.1067577 -0.02516727 0.09389439
v -0.1067567 0.0687368 0.06873859
v -0.1067584 0.02515497 0.09389588
v -0.1055633 -0.09327778 -0.3437537
v -0.1067569 0.09212715 -0.3437417
v -0.1067571 0.05525371 -0.2061625
v -0.1067574 -0.05522662 -0.2061698
v -0.106758 0.1509292 -0.1509168
v -0.1067582 0.2516516 -0.2516261
v -0.106757 0.2061631 -0.05523378
v -0.1067589 0.3437461 -0.09209044
v -0.1067572 0.2061557 0.05524581
v -0.1067566 0.3437343 0.09212152
v -0.1067564 0.1509092 0.1509216
v -0.1067586 0.251619 0.2516441
v -0.1067593 0.05522677 0.2061556
v -0.1067579 0.09208246 0.3437392
v -0.106756 -0.05525376 0.2061482
v -0.105557 -0.09332717 0.3437269
v -0.09957168 -0.1581149 0.1509015
v -0.1356616 -0.2322936 0.2516114
v -0.1067269 -0.206194 0.05521823
v -0.2067561 -0.2437466 0.09207521
v -0.1067231 -0.2061893 -0.05526151
v -0.2067524 -0.2437509 -0.09213406
v -0.09957328 -0.1580941 -0.1509369
v -0.1356364 -0.2322775 -0.2516585
v -0.1067574 -0.05522662 -0.2061698
v -0.1067571 0.05525371 -0.2061625
v -0.06710583 0.03934028 -0.1467886
v -0.06710681 -0.03932115 -0.1467944
v -0.06710685 0.1074608 -0.1074531
v -0.106758 0.1509292 -0.1509168
v -0.06710739 0.146787 -0.03932844
v -0.106757 0.2061631 -0.05523378
v -0.06710841 0.1467819 0.03933232
v -0.1067572 0.2061557 0.05524581
v -0.06710762 0.1074467 0.107454
v -0.1067564 0.1509092 0.1509216
v -0.0671076 0.0393211 0.1467792
v -0.1067593 0.05522677 0.2061556
v -0.0671056 -0.03934054 0.1467747
v -0.106756 -0.05525376 0.2061482
v -0.06422023 -0.1103083 0.1074398
v -0.09957168 -0.1581149 0.1509015
v -0.06004269 -0.1537522 0.03931433
v -0.1067269 -0.206194 0.05521823
v -0.06004466 -0.1537467 -0.03934778
v -0.1067231 -0.2061893 -0.05526151
v -0.06422245 -0.1102926 -0.1074685
v -0.09957328 -0.1580941 -0.1509369
v -0.06710583 0.03934028 -0.1467886
v -0.106759 0.02516722 -0.09390856
v -0.1067577 -0.02515503 -0.09391154
v -0.06710681 -0.03932115 -0.1467944
v -0.06710685 0.1074608 -0.1074531
v -0.1067568 0.06874598 -0.06874412
v -0.06710739 0.146787 -0.03932844
v -0.1067562 0.09390404 -0.02516148
v -0.06710841 0.1467819 0.03933232
v -0.1067586 0.09390098 0.02515892
v -0.06710762 0.1074467 0.107454
v -0.1067567 0.0687368 0.06873859
v -0.0671076 0.0393211 0.1467792
v -0.1067584 0.02515497 0.09389588
v -0.0671056 -0.03934054 0.1467747
v -0.1067577 -0.02516727 0.09389439
v -0.06422023 -0.1103083 0.1074398
v -0.1067563 -0.06874603 0.0687298
v -0.06004269 -0.1537522 0.03931433
v -0.1053903 -0.0952716 0.02514843
v -0.06004466 -0.1537467 -0.03934778
v -0.1053902 -0.09526814 -0.0251748
v -0.06422245 -0.1102926 -0.1074685
v -0.1067564 -0.06873705 -0.06875291

vn -0.3850503 -0.2969505 -0.8738173
vn -0.3954661 0.2588815 -0.8812417
vn -0.3954078 0.2594126 -0.8811116
vn -0.3827395 -0.3122684 -0.8694819
vn -0.289488 0.7071521 -0.6450825
vn -0.2894879 0.7071525 -0.6450822
vn -0.1059419 0.9659417 -0.2360743
vn -0.1059418 0.9659418 -0.236074
vn 0.1059917 0.965908 0.2361898
vn 0.1059918 0.965908 0.23619
vn 0.2895252 0.7070593 0.6451675
vn 0.2895252 0.7070594 0.6451674
vn 0.3954218 0.259289 0.8811418
vn 0.3954805 0.258755 0.8812724
vn 0.3951252 -0.3124628 0.8638535
vn 0.3968306 -0.2971285 0.8684698
vn -0.1949673 -0.8581906 -0.4748633
vn -0.1608745 -0.9021989 -0.4001938
vn -0.01206848 -0.9987442 -0.0486031
vn -0.01021169 -0.9991004 -0.04113655
vn 0.02827014 -0.9987462 0.04128933
vn 0.02392999 -0.9991017 0.03494471
vn 0.2251089 -0.8582668 0.461197
vn 0.1919823 -0.9022644 0.3860832
vn 0.3968306 -0.2971285 0.8684698
vn 0.3951252 -0.3124628 0.8638535
vn 0.9123436 -1.875662E-06 -0.4094252
vn 0.9123436 -1.875662E-06 -0.4094252
vn 0.9123436 -8.134435E-07 -0.4094251
vn 0.9123436 -9.744859E-07 -0.4094251
vn 0.9123437 -3.154219E-07 -0.4094249
vn 0.9123437 -2.229317E-07 -0.4094248
vn 0.9123438 0 -0.4094248
vn 0.9123438 0 -0.4094248
vn 0.9123438 0 -0.4094248
vn 0.9123438 0 -0.4094248
vn 0.9123438 0 -0.4094248
vn 0.9123438 0 -0.4094248
vn -0.9123432 3.789318E-07 0.409426
vn -0.9048713 -1.270578E-06 0.425685
vn -0.904864 -1.272163E-06 0.4257005
vn -0.9093503 -0.00509829 0.416
vn -0.9093158 -0.005064742 0.4160759
vn -0.9144427 -0.007226508 0.4046507
vn -0.9144771 -0.007226508 0.404573
vn -0.915898 -0.005077465 0.401379
vn -0.9158849 -0.005058497 0.4014091
vn -0.9123437 0 0.4094249
vn -0.9123437 0 0.4094249
vn -0.9123447 -3.788814E-07 0.4094228
vn -0.8947941 0.0675029 0.4413467
vn -0.9132257 -0.002019659 0.4074492
vn -0.9132257 -0.002019651 0.4074492
vn -0.8947226 0.06773101 0.4414566
vn -0.9123438 0 0.4094248
vn -0.9123438 0 0.4094248
vn -0.9123438 0 0.4094248
vn -0.9123438 0 0.4094248
vn -0.9123437 0 0.4094251
vn -0.9123437 0 0.4094251
vn -0.9123436 3.354364E-07 0.4094251
vn -0.9123436 3.354366E-07 0.4094251
vn -0.9114509 -0.002027072 0.4114035
vn -0.9114509 -0.002027076 0.4114035
vn -0.924555 0.06779955 0.3749684
vn -0.9245205 0.06757206 0.3750944
vn -0.7901994 0.5229906 0.3194764
vn -0.8436837 0.4244497 0.3286939
vn -0.4347945 0.8779387 0.2004391
vn -0.461597 0.860948 0.213764
vn -0.4388258 0.8779065 0.1916002
vn -0.4666186 0.8608988 0.2027778
vn -0.764038 0.5228354 0.3780059
vn -0.8064515 0.4243138 0.4118169
vn -0.556556 0.107745 0.8237937
vn -0.5523165 -0.1403283 0.8217384
vn -0.5523164 -0.1403281 0.8217385
vn -0.5566517 0.1082188 0.8236669
vn -0.6097637 -0.3833148 0.6937271
vn -0.6097639 -0.3833151 0.6937269
vn -0.7092562 -0.5235929 0.4720227
vn -0.7092562 -0.5235929 0.4720225
vn -0.8241357 -0.5235754 0.2160291
vn -0.8241355 -0.5235754 0.2160294
vn -0.9236207 -0.3832659 -0.005659431
vn -0.9236206 -0.3832659 -0.005659401
vn -0.9810541 -0.1402599 -0.1336415
vn -0.9810541 -0.14026 -0.1336415
vn -0.9853635 0.1082803 -0.1316601
vn -0.9853945 0.1078067 -0.1318159
vn -0.9312598 0.3643074 -0.005945921
vn -0.9283786 0.3716331 -0.001362234
vn -0.7774967 0.5957737 0.2013752
vn -0.7803441 0.5932326 0.197832
vn -0.6672621 0.595738 0.4470533
vn -0.6665078 0.5931953 0.4515372
vn -0.6145917 0.3642394 0.6997186
vn -0.6161011 0.3715671 0.694519
vn -0.9708768 0.1518501 -0.1853098
vn -0.9708768 0.1518503 -0.1853099
vn -0.9692996 -0.1588168 -0.1877111
vn -0.9690501 -0.1608572 -0.1872617
vn -0.9087143 0.4147882 -0.04678628
vn -0.908714 0.4147885 -0.04678598
vn -0.8010517 0.5665854 0.1931229
vn -0.8010518 0.5665854 0.1931227
vn -0.6767386 0.5665659 0.4701352
vn -0.6767386 0.5665659 0.4701352
vn -0.5690837 0.4147359 0.7100263
vn -0.5690836 0.4147355 0.7100266
vn -0.5069341 0.1517771 0.848517
vn -0.506934 0.1517769 0.8485171
vn -0.5042778 -0.1609361 0.8484122
vn -0.5041078 -0.1588943 0.8488978
vn -0.5643777 -0.4370611 0.7003249
vn -0.5606786 -0.4276748 0.7090368
vn -0.6702594 -0.5831463 0.4590122
vn -0.6665883 -0.5808631 0.46718
vn -0.7884945 -0.5831284 0.1955428
vn -0.7921577 -0.5808432 0.1873677
vn -0.8983845 -0.4370044 -0.04395601
vn -0.9024325 -0.4276192 -0.05250728

vt 0.894043 0.8886719
vt 0.8735352 0.8886719
vt 0.8735352 0.8657227
vt 0.894043 0.8657227
vt 0.8535156 0.8657227
vt 0.8535156 0.8886719
vt 0.8334961 0.8657227
vt 0.8334961 0.8886719
vt 0.8134766 0.8657227
vt 0.8134766 0.8886719
vt 0.793457 0.8657227
vt 0.793457 0.8886719
vt 0.7734375 0.8657227
vt 0.7734375 0.8886719
vt 0.753418 0.8657227
vt 0.753418 0.8886719
vt 0.9140625 0.8886719
vt 0.9140625 0.8657227
vt 0.934082 0.8886719
vt 0.934082 0.8657227
vt 0.9541016 0.8886719
vt 0.9541016 0.8657227
vt 0.9741211 0.8886719
vt 0.9741211 0.8657227
vt 0.9941406 0.8886719
vt 0.9941406 0.8657227
vt 0.5517578 0.7646484
vt 0.5625 0.7832031
vt 0.5625 0.8046875
vt 0.5332031 0.7539063
vt 0.5117188 0.7539063
vt 0.5522461 0.8232422
vt 0.4934082 0.7646484
vt 0.5336914 0.8339844
vt 0.482666 0.7836914
vt 0.512207 0.8339844
vt 0.482666 0.8051758
vt 0.4934082 0.8232422
vt 0.5249023 0.7875977
vt 0.527832 0.7895508
vt 0.5214844 0.7875977
vt 0.5185547 0.7890625
vt 0.5292969 0.7924805
vt 0.5166016 0.7919922
vt 0.5292969 0.7963867
vt 0.5166016 0.7954102
vt 0.5273438 0.7988281
vt 0.5180664 0.7988281
vt 0.5244141 0.8007813
vt 0.5209961 0.800293
vt 0.534668 0.753418
vt 0.5532227 0.7651367
vt 0.5410156 0.7763672
vt 0.5297852 0.7695313
vt 0.5473633 0.7880859
vt 0.5639648 0.7836914
vt 0.5473633 0.8012695
vt 0.5634766 0.8056641
vt 0.5405273 0.8125
vt 0.5527344 0.824707
vt 0.5292969 0.8188477
vt 0.5332031 0.8359375
vt 0.5161133 0.8183594
vt 0.5112305 0.8349609
vt 0.5048828 0.8115234
vt 0.4924316 0.8232422
vt 0.4985352 0.800293
vt 0.4821777 0.8041992
vt 0.4987793 0.7871094
vt 0.4824219 0.7827148
vt 0.5053711 0.7758789
vt 0.4934082 0.7636719
vt 0.5166016 0.7695313
vt 0.5126953 0.7524414
vt 0.5297852 0.7695313
vt 0.5410156 0.7763672
vt 0.534668 0.7822266
vt 0.5273438 0.777832
vt 0.5390625 0.7900391
vt 0.5473633 0.7880859
vt 0.5390625 0.7988281
vt 0.5473633 0.8012695
vt 0.534668 0.8061523
vt 0.5405273 0.8125
vt 0.5268555 0.8105469
vt 0.5292969 0.8188477
vt 0.5185547 0.8100586
vt 0.5161133 0.8183594
vt 0.5107422 0.8056641
vt 0.5048828 0.8115234
vt 0.5068359 0.7983398
vt 0.4985352 0.800293
vt 0.5068359 0.7895508
vt 0.4987793 0.7871094
vt 0.5112305 0.7822266
vt 0.5053711 0.7758789
vt 0.519043 0.777832
vt 0.5166016 0.7695313
vt 0.534668 0.7822266
vt 0.527832 0.7895508
vt 0.5249023 0.7875977
vt 0.5273438 0.777832
vt 0.5390625 0.7900391
vt 0.5292969 0.7924805
vt 0.5390625 0.7988281
vt 0.5292969 0.7963867
vt 0.534668 0.8061523
vt 0.5273438 0.7988281
vt 0.5268555 0.8105469
vt 0.5244141 0.8007813
vt 0.5185547 0.8100586
vt 0.5209961 0.800293
vt 0.5107422 0.8056641
vt 0.5180664 0.7988281
vt 0.5068359 0.7983398
vt 0.5166016 0.7954102
vt 0.5068359 0.7895508
vt 0.5166016 0.7919922
vt 0.5112305 0.7822266
vt 0.5185547 0.7890625
vt 0.519043 0.777832
vt 0.5214844 0.7875977

g wheel_backR_9213_416
usemtl wheel_backR_9213_416
usemap wheel_backR_9213_416
f 1/1/1 3/3/3 2/2/2
f 1/1/1 4/4/4 3/3/3
f 2/2/2 3/3/3 5/5/5
f 2/2/2 5/5/5 6/6/6
f 6/6/6 5/5/5 7/7/7
f 6/6/6 7/7/7 8/8/8
f 8/8/8 7/7/7 9/9/9
f 8/8/8 9/9/9 10/10/10
f 10/10/10 9/9/9 11/11/11
f 10/10/10 11/11/11 12/12/12
f 12/12/12 11/11/11 13/13/13
f 12/12/12 13/13/13 14/14/14
f 14/14/14 13/13/13 15/15/15
f 14/14/14 15/15/15 16/16/16
f 17/17/17 4/4/4 1/1/1
f 17/17/17 18/18/18 4/4/4
f 19/19/19 18/18/18 17/17/17
f 19/19/19 20/20/20 18/18/18
f 21/21/21 20/20/20 19/19/19
f 21/21/21 22/22/22 20/20/20
f 23/23/23 22/22/22 21/21/21
f 23/23/23 24/24/24 22/22/22
f 25/25/25 24/24/24 23/23/23
f 25/25/25 26/26/26 24/24/24
f 27/27/27 29/29/29 28/28/28
f 27/27/27 30/30/30 29/29/29
f 29/29/29 30/30/30 31/31/31
f 29/29/29 31/31/31 32/32/32
f 32/32/32 31/31/31 33/33/33
f 32/32/32 33/33/33 34/34/34
f 34/34/34 33/33/33 35/35/35
f 34/34/34 35/35/35 36/36/36
f 36/36/36 35/35/35 37/37/37
f 36/36/36 37/37/37 38/38/38
f 39/39/39 41/41/41 40/40/40
f 40/40/40 41/41/41 42/42/42
f 40/40/40 42/42/42 43/43/43
f 43/43/43 42/42/42 44/44/44
f 43/43/43 44/44/44 45/45/45
f 45/45/45 44/44/44 46/46/46
f 45/45/45 46/46/46 47/47/47
f 47/47/47 46/46/46 48/48/48
f 47/47/47 48/48/48 49/49/49
f 49/49/49 48/48/48 50/50/50
f 51/51/51 53/53/53 52/52/52
f 51/51/51 54/54/54 53/53/53
f 52/52/52 53/53/53 55/55/55
f 52/52/52 55/55/55 56/56/56
f 56/56/56 55/55/55 57/57/57
f 56/56/56 57/57/57 58/58/58
f 58/58/58 57/57/57 59/59/59
f 58/58/58 59/59/59 60/60/60
f 60/60/60 59/59/59 61/61/61
f 60/60/60 61/61/61 62/62/62
f 62/62/62 61/61/61 63/63/63
f 62/62/62 63/63/63 64/64/64
f 64/64/64 63/63/63 65/65/65
f 64/64/64 65/65/65 66/66/66
f 66/66/66 65/65/65 67/67/67
f 66/66/66 67/67/67 68/68/68
f 68/68/68 67/67/67 69/69/69
f 68/68/68 69/69/69 70/70/70
f 70/70/70 69/69/69 71/71/71
f 70/70/70 71/71/71 72/72/72
f 72/72/72 71/71/71 73/73/73
f 72/72/72 73/73/73 74/74/74
f 74/74/74 73/73/73 54/54/54
f 74/74/74 54/54/54 51/51/51
f 75/75/75 77/77/77 76/76/76
f 75/75/75 78/78/78 77/77/77
f 76/76/76 77/77/77 79/79/79
f 76/76/76 79/79/79 80/80/80
f 80/80/80 79/79/79 81/81/81
f 80/80/80 81/81/81 82/82/82
f 82/82/82 81/81/81 83/83/83
f 82/82/82 83/83/83 84/84/84
f 84/84/84 83/83/83 85/85/85
f 84/84/84 85/85/85 86/86/86
f 86/86/86 85/85/85 87/87/87
f 86/86/86 87/87/87 88/88/88
f 88/88/88 87/87/87 89/89/89
f 88/88/88 89/89/89 90/90/90
f 90/90/90 89/89/89 91/91/91
f 90/90/90 91/91/91 92/92/92
f 92/92/92 91/91/91 93/93/93
f 92/92/92 93/93/93 94/94/94
f 94/94/94 93/93/93 95/95/95
f 94/94/94 95/95/95 96/96/96
f 96/96/96 95/95/95 97/97/97
f 96/96/96 97/97/97 98/98/98
f 98/98/98 97/97/97 78/78/78
f 98/98/98 78/78/78 75/75/75
f 99/99/99 101/101/101 100/100/100
f 99/99/99 102/102/102 101/101/101
f 103/103/103 99/99/99 100/100/100
f 103/103/103 100/100/100 104/104/104
f 105/105/105 103/103/103 104/104/104
f 105/105/105 104/104/104 106/106/106
f 107/107/107 105/105/105 106/106/106
f 107/107/107 106/106/106 108/108/108
f 109/109/109 107/107/107 108/108/108
f 109/109/109 108/108/108 110/110/110
f 111/111/111 109/109/109 110/110/110
f 111/111/111 110/110/110 112/112/112
f 113/113/113 111/111/111 112/112/112
f 113/113/113 112/112/112 114/114/114
f 115/115/115 113/113/113 114/114/114
f 115/115/115 114/114/114 116/116/116
f 117/117/117 115/115/115 116/116/116
f 117/117/117 116/116/116 118/118/118
f 119/119/119 117/117/117 118/118/118
f 119/119/119 118/118/118 120/120/120
f 121/121/121 119/119/119 120/120/120
f 121/121/121 120/120/120 122/122/122
f 102/102/102 121/121/121 122/122/122
f 102/102/102 122/122/122 101/101/101
