#wheel_frontR_10561_429.obj

v 0.1067552 -0.0920823 -0.3437485
v -0.1067652 0.09212716 -0.3437366
v -0.1067643 -0.0920823 -0.3437484
v 0.1067566 0.09212757 -0.3437371
v -0.1067639 0.2516516 -0.2516219
v 0.1067556 0.2516518 -0.2516221
v -0.1067648 0.3437464 -0.09208558
v 0.106756 0.3437464 -0.09208471
v -0.1067647 0.3437341 0.09212562
v 0.1067559 0.3437346 0.09212421
v -0.1067648 0.251619 0.2516502
v 0.1067557 0.2516192 0.2516488
v -0.1067639 0.09208255 0.3437441
v 0.1067557 0.09208275 0.343744
v -0.1067643 -0.09212732 0.3437314
v 0.1067565 -0.09212711 0.3437323
v 0.1067561 -0.2516188 -0.2516546
v -0.1067644 -0.2516188 -0.2516532
v 0.106756 -0.3437341 -0.09213002
v -0.1067645 -0.3437341 -0.0921286
v 0.1067549 -0.3437463 0.09208019
v -0.1067646 -0.3437465 0.09208032
v 0.1067562 -0.2516518 0.2516162
v -0.1067633 -0.2516518 0.2516164
v 0.1067565 -0.09212711 0.3437323
v -0.1067643 -0.09212732 0.3437314
v 0.106756 -0.3437341 -0.09213002
v 0.1067552 -0.0920823 -0.3437485
v 0.1067561 -0.2516188 -0.2516546
v 0.1067549 -0.3437463 0.09208019
v 0.1067562 -0.2516518 0.2516162
v 0.1067566 0.09212757 -0.3437371
v 0.1067565 -0.09212711 0.3437323
v 0.1067556 0.2516518 -0.2516221
v 0.1067557 0.09208275 0.343744
v 0.106756 0.3437464 -0.09208471
v 0.1067557 0.2516192 0.2516488
v 0.1067559 0.3437346 0.09212421
v -0.1067642 -0.02515499 -0.09390706
v -0.1067649 0.02516726 -0.09390348
v -0.1067639 -0.06873701 -0.06874791
v -0.106764 0.06874602 -0.06873976
v -0.1067643 -0.09390119 -0.02516942
v -0.1067651 0.09390409 -0.0251577
v -0.1067644 -0.09390424 0.02515244
v -0.1067639 0.09390103 0.02516516
v -0.1067654 -0.06874597 0.0687345
v -0.1067643 0.06873706 0.06874365
v -0.1067645 -0.02516721 0.09389821
v -0.1067652 0.02515503 0.09390179
v -0.1067643 -0.0920823 -0.3437484
v -0.1067648 0.05525374 -0.2061579
v -0.1067647 -0.0552268 -0.206166
v -0.1067652 0.09212716 -0.3437366
v -0.1067637 0.150929 -0.1509119
v -0.1067639 0.2516516 -0.2516219
v -0.1067651 0.2061629 -0.05522955
v -0.1067648 0.3437464 -0.09208558
v -0.1067644 0.2061558 0.05525101
v -0.1067647 0.3437341 0.09212562
v -0.1067644 0.1509092 0.1509262
v -0.1067648 0.251619 0.2516502
v -0.1067648 0.05522685 0.2061608
v -0.1067639 0.09208255 0.3437441
v -0.1067647 -0.05525369 0.2061526
v -0.1067643 -0.09212732 0.3437314
v -0.1067645 -0.1509289 0.1509076
v -0.1067633 -0.2516518 0.2516164
v -0.1067644 -0.2061629 0.05522428
v -0.1067646 -0.3437465 0.09208032
v -0.1067651 -0.2061558 -0.05525627
v -0.1067645 -0.3437341 -0.0921286
v -0.106765 -0.1509092 -0.1509315
v -0.1067644 -0.2516188 -0.2516532
v -0.1067648 0.05525374 -0.2061579
v -0.06711363 -0.03932133 -0.1467898
v -0.1067647 -0.0552268 -0.206166
v -0.06711404 0.03934032 -0.1467839
v -0.1067637 0.150929 -0.1509119
v -0.06711464 0.1074608 -0.10745
v -0.1067651 0.2061629 -0.05522955
v -0.06711497 0.1467871 -0.0393234
v -0.1067644 0.2061558 0.05525101
v -0.06711475 0.146782 0.03933727
v -0.1067644 0.1509092 0.1509262
v -0.06711467 0.1074468 0.107458
v -0.1067648 0.05522685 0.2061608
v -0.06711385 0.03932117 0.1467848
v -0.1067647 -0.05525369 0.2061526
v -0.06711444 -0.03934047 0.1467802
v -0.1067645 -0.1509289 0.1509076
v -0.06711414 -0.1074608 0.107444
v -0.1067644 -0.2061629 0.05522428
v -0.0671148 -0.146787 0.03931869
v -0.1067651 -0.2061558 -0.05525627
v -0.06711403 -0.1467821 -0.03934327
v -0.106765 -0.1509092 -0.1509315
v -0.0671151 -0.1074467 -0.1074627
v -0.1067649 0.02516726 -0.09390348
v -0.06711363 -0.03932133 -0.1467898
v -0.06711404 0.03934032 -0.1467839
v -0.1067642 -0.02515499 -0.09390706
v -0.106764 0.06874602 -0.06873976
v -0.06711464 0.1074608 -0.10745
v -0.1067651 0.09390409 -0.0251577
v -0.06711497 0.1467871 -0.0393234
v -0.1067639 0.09390103 0.02516516
v -0.06711475 0.146782 0.03933727
v -0.1067643 0.06873706 0.06874365
v -0.06711467 0.1074468 0.107458
v -0.1067652 0.02515503 0.09390179
v -0.06711385 0.03932117 0.1467848
v -0.1067645 -0.02516721 0.09389821
v -0.06711444 -0.03934047 0.1467802
v -0.1067654 -0.06874597 0.0687345
v -0.06711414 -0.1074608 0.107444
v -0.1067644 -0.09390424 0.02515244
v -0.0671148 -0.146787 0.03931869
v -0.1067643 -0.09390119 -0.02516942
v -0.06711403 -0.1467821 -0.03934327
v -0.1067639 -0.06873701 -0.06874791
v -0.0671151 -0.1074467 -0.1074627

vn 0.7642787 -0.2587564 -0.5906968
vn 0.7642525 0.2588806 -0.5906762
vn 0.7642782 -0.2587572 -0.5906971
vn 0.7642525 0.2588822 -0.5906755
vn 0.5594443 0.7071523 -0.4323846
vn 0.5594442 0.7071523 -0.4323848
vn 0.204734 0.9659417 -0.1582366
vn 0.2047338 0.9659417 -0.1582366
vn -0.2048346 0.9659081 0.1583112
vn -0.2048348 0.9659081 0.1583115
vn -0.5595183 0.7070597 0.4324403
vn -0.5595183 0.7070597 0.4324404
vn -0.7642793 0.2587547 0.5906968
vn -0.7642792 0.2587549 0.5906968
vn -0.7642521 -0.2588816 0.5906763
vn -0.7642521 -0.2588821 0.5906762
vn 0.5595171 -0.7070601 -0.4324411
vn 0.5595171 -0.7070601 -0.4324411
vn 0.2048346 -0.9659078 -0.1583128
vn 0.204835 -0.9659077 -0.1583127
vn -0.2047338 -0.9659418 0.1582357
vn -0.2047328 -0.9659422 0.158235
vn -0.5594447 -0.7071518 0.4323849
vn -0.5594445 -0.707152 0.4323848
vn -0.7642521 -0.2588821 0.5906762
vn -0.7642521 -0.2588816 0.5906763
vn 0.6115249 -7.454572E-07 0.7912251
vn 0.6115247 -6.323216E-07 0.7912254
vn 0.6115243 0 0.7912256
vn 0.6115246 3.644244E-14 0.7912254
vn 0.6115244 1.196122E-14 0.7912256
vn 0.6115245 -3.313219E-07 0.7912255
vn 0.6115243 0 0.7912256
vn 0.6115243 0 0.7912256
vn 0.6115243 0 0.7912256
vn 0.6115243 0 0.7912256
vn 0.6115243 0 0.7912256
vn 0.6115243 0 0.7912256
vn -0.6115243 0 -0.7912256
vn -0.6115243 0 -0.7912256
vn -0.6115243 0 -0.7912256
vn -0.6115243 0 -0.7912256
vn -0.6115243 0 -0.7912256
vn -0.6115243 0 -0.7912256
vn -0.6115243 0 -0.7912256
vn -0.6115243 0 -0.7912256
vn -0.6115243 0 -0.7912256
vn -0.6115243 0 -0.7912256
vn -0.6115243 0 -0.7912256
vn -0.6115243 0 -0.7912256
vn -0.6115251 1.007076E-07 -0.7912251
vn -0.6115246 2.443906E-07 -0.7912254
vn -0.6115251 -1.076967E-13 -0.7912251
vn -0.6115244 4.141628E-07 -0.7912256
vn -0.6115243 0 -0.7912256
vn -0.6115243 0 -0.7912256
vn -0.6115243 0 -0.7912256
vn -0.6115243 0 -0.7912256
vn -0.6115243 0 -0.7912256
vn -0.6115246 1.015756E-07 -0.7912254
vn -0.611525 3.816959E-07 -0.7912251
vn -0.6115249 5.328297E-07 -0.7912252
vn -0.6115245 3.580472E-07 -0.7912256
vn -0.6115243 4.141756E-07 -0.7912257
vn -0.6115243 0 -0.7912256
vn -0.6115253 -3.997111E-06 -0.7912248
vn -0.611528 -9.873736E-06 -0.7912228
vn -0.6115294 -8.657754E-06 -0.7912217
vn -0.6115277 -1.576512E-06 -0.791223
vn -0.6115283 1.331387E-06 -0.7912226
vn -0.6115243 0 -0.7912256
vn -0.6115243 0 -0.7912256
vn -0.6115243 0 -0.7912256
vn -0.6115246 -4.044231E-14 -0.7912254
vn -0.9281571 -0.1403284 -0.3447208
vn -0.9281715 0.1402602 -0.3447096
vn -0.9281716 0.1402604 -0.3447093
vn -0.9281568 -0.1403286 -0.3447211
vn -0.8171396 -0.3833154 -0.430525
vn -0.8171394 -0.3833155 -0.4305255
vn -0.6248674 -0.5235929 -0.5791292
vn -0.6248677 -0.5235932 -0.5791286
vn -0.4028587 -0.5235759 -0.7507147
vn -0.4028587 -0.5235764 -0.7507143
vn -0.2105997 -0.3832659 -0.8993078
vn -0.2105996 -0.3832659 -0.899308
vn -0.09960765 -0.1402602 -0.9850914
vn -0.09960753 -0.1402603 -0.9850914
vn -0.09962183 0.1403284 -0.9850803
vn -0.09962183 0.1403282 -0.9850803
vn -0.2106399 0.3833162 -0.899277
vn -0.21064 0.3833163 -0.8992769
vn -0.4029125 0.5235944 -0.7506729
vn -0.4029119 0.5235946 -0.7506731
vn -0.6249217 0.5235763 -0.5790856
vn -0.6249218 0.5235763 -0.5790855
vn -0.8171798 0.3832669 -0.4304921
vn -0.8171799 0.3832665 -0.4304921
vn -0.0469926 0.1518518 -0.9872854
vn -0.04697701 -0.1517768 -0.9872977
vn -0.04699311 0.1518503 -0.9872856
vn -0.04697675 -0.1517766 -0.9872978
vn -0.1671268 0.4147891 -0.8944374
vn -0.1671268 0.4147879 -0.8944378
vn -0.3751863 0.5665849 -0.733632
vn -0.3751867 0.5665855 -0.7336314
vn -0.6154242 0.5665663 -0.5479553
vn -0.6154245 0.5665666 -0.5479548
vn -0.8234686 0.4147355 -0.3871609
vn -0.8234683 0.4147357 -0.3871612
vn -0.9435736 0.1517771 -0.2943339
vn -0.9435735 0.1517771 -0.294334
vn -0.943558 -0.15185 -0.294346
vn -0.9435582 -0.1518506 -0.2943458
vn -0.8234255 -0.41479 -0.3871939
vn -0.8234252 -0.4147909 -0.387194
vn -0.6153661 -0.5665867 -0.5479996
vn -0.6153652 -0.5665872 -0.5479999
vn -0.3751262 -0.5665671 -0.7336767
vn -0.3751263 -0.5665671 -0.7336766
vn -0.1670813 -0.4147358 -0.8944706
vn -0.1670818 -0.4147359 -0.8944705

vt 0.894043 0.8886719
vt 0.8735352 0.8657227
vt 0.894043 0.8657227
vt 0.8735352 0.8886719
vt 0.8535156 0.8657227
vt 0.8535156 0.8886719
vt 0.8334961 0.8657227
vt 0.8334961 0.8886719
vt 0.8134766 0.8657227
vt 0.8134766 0.8886719
vt 0.793457 0.8657227
vt 0.793457 0.8886719
vt 0.7734375 0.8657227
vt 0.7734375 0.8886719
vt 0.753418 0.8657227
vt 0.753418 0.8886719
vt 0.9140625 0.8886719
vt 0.9140625 0.8657227
vt 0.934082 0.8886719
vt 0.934082 0.8657227
vt 0.9541016 0.8886719
vt 0.9541016 0.8657227
vt 0.9741211 0.8886719
vt 0.9741211 0.8657227
vt 0.9941406 0.8886719
vt 0.9941406 0.8657227
vt 0.5625 0.7832031
vt 0.5332031 0.7539063
vt 0.5517578 0.7646484
vt 0.5625 0.8046875
vt 0.5522461 0.8232422
vt 0.5117188 0.7539063
vt 0.5336914 0.8339844
vt 0.4934082 0.7646484
vt 0.512207 0.8339844
vt 0.482666 0.7836914
vt 0.4934082 0.8232422
vt 0.482666 0.8051758
vt 0.5249023 0.7875977
vt 0.527832 0.7895508
vt 0.5214844 0.7875977
vt 0.5292969 0.7924805
vt 0.5185547 0.7890625
vt 0.5292969 0.7963867
vt 0.5166016 0.7919922
vt 0.5273438 0.7988281
vt 0.5166016 0.7954102
vt 0.5244141 0.8007813
vt 0.5180664 0.7988281
vt 0.5209961 0.800293
vt 0.534668 0.753418
vt 0.5410156 0.7763672
vt 0.5297852 0.7695313
vt 0.5532227 0.7651367
vt 0.5473633 0.7880859
vt 0.5639648 0.7836914
vt 0.5473633 0.8012695
vt 0.5634766 0.8056641
vt 0.5405273 0.8125
vt 0.5527344 0.824707
vt 0.5292969 0.8188477
vt 0.5332031 0.8359375
vt 0.5161133 0.8183594
vt 0.5112305 0.8349609
vt 0.5048828 0.8115234
vt 0.4924316 0.8232422
vt 0.4985352 0.800293
vt 0.4821777 0.8041992
vt 0.4987793 0.7871094
vt 0.4824219 0.7827148
vt 0.5053711 0.7758789
vt 0.4934082 0.7636719
vt 0.5166016 0.7695313
vt 0.5126953 0.7524414
vt 0.5410156 0.7763672
vt 0.5273438 0.777832
vt 0.5297852 0.7695313
vt 0.534668 0.7822266
vt 0.5473633 0.7880859
vt 0.5390625 0.7900391
vt 0.5473633 0.8012695
vt 0.5390625 0.7988281
vt 0.5405273 0.8125
vt 0.534668 0.8061523
vt 0.5292969 0.8188477
vt 0.5268555 0.8105469
vt 0.5161133 0.8183594
vt 0.5185547 0.8100586
vt 0.5048828 0.8115234
vt 0.5107422 0.8056641
vt 0.4985352 0.800293
vt 0.5068359 0.7983398
vt 0.4987793 0.7871094
vt 0.5068359 0.7895508
vt 0.5053711 0.7758789
vt 0.5112305 0.7822266
vt 0.5166016 0.7695313
vt 0.519043 0.777832
vt 0.527832 0.7895508
vt 0.5273438 0.777832
vt 0.534668 0.7822266
vt 0.5249023 0.7875977
vt 0.5292969 0.7924805
vt 0.5390625 0.7900391
vt 0.5292969 0.7963867
vt 0.5390625 0.7988281
vt 0.5273438 0.7988281
vt 0.534668 0.8061523
vt 0.5244141 0.8007813
vt 0.5268555 0.8105469
vt 0.5209961 0.800293
vt 0.5185547 0.8100586
vt 0.5180664 0.7988281
vt 0.5107422 0.8056641
vt 0.5166016 0.7954102
vt 0.5068359 0.7983398
vt 0.5166016 0.7919922
vt 0.5068359 0.7895508
vt 0.5185547 0.7890625
vt 0.5112305 0.7822266
vt 0.5214844 0.7875977
vt 0.519043 0.777832

g wheel_frontR_10561_429
usemtl wheel_frontR_10561_429
usemap wheel_frontR_10561_429
f 1/1/1 3/3/3 2/2/2
f 2/2/2 4/4/4 1/1/1
f 4/4/4 2/2/2 5/5/5
f 5/5/5 6/6/6 4/4/4
f 6/6/6 5/5/5 7/7/7
f 7/7/7 8/8/8 6/6/6
f 8/8/8 7/7/7 9/9/9
f 9/9/9 10/10/10 8/8/8
f 10/10/10 9/9/9 11/11/11
f 11/11/11 12/12/12 10/10/10
f 12/12/12 11/11/11 13/13/13
f 13/13/13 14/14/14 12/12/12
f 14/14/14 13/13/13 15/15/15
f 15/15/15 16/16/16 14/14/14
f 3/3/3 1/1/1 17/17/17
f 17/17/17 18/18/18 3/3/3
f 18/18/18 17/17/17 19/19/19
f 19/19/19 20/20/20 18/18/18
f 20/20/20 19/19/19 21/21/21
f 21/21/21 22/22/22 20/20/20
f 22/22/22 21/21/21 23/23/23
f 23/23/23 24/24/24 22/22/22
f 24/24/24 23/23/23 25/25/25
f 25/25/25 26/26/26 24/24/24
f 27/27/27 29/29/29 28/28/28
f 28/28/28 30/30/30 27/27/27
f 31/31/31 30/30/30 28/28/28
f 28/28/28 32/32/32 31/31/31
f 33/33/33 31/31/31 32/32/32
f 32/32/32 34/34/34 33/33/33
f 35/35/35 33/33/33 34/34/34
f 34/34/34 36/36/36 35/35/35
f 37/37/37 35/35/35 36/36/36
f 36/36/36 38/38/38 37/37/37
f 39/39/39 41/41/41 40/40/40
f 42/42/42 40/40/40 41/41/41
f 41/41/41 43/43/43 42/42/42
f 44/44/44 42/42/42 43/43/43
f 43/43/43 45/45/45 44/44/44
f 46/46/46 44/44/44 45/45/45
f 45/45/45 47/47/47 46/46/46
f 48/48/48 46/46/46 47/47/47
f 47/47/47 49/49/49 48/48/48
f 48/48/48 49/49/49 50/50/50
f 51/51/51 53/53/53 52/52/52
f 52/52/52 54/54/54 51/51/51
f 54/54/54 52/52/52 55/55/55
f 55/55/55 56/56/56 54/54/54
f 56/56/56 55/55/55 57/57/57
f 57/57/57 58/58/58 56/56/56
f 58/58/58 57/57/57 59/59/59
f 59/59/59 60/60/60 58/58/58
f 60/60/60 59/59/59 61/61/61
f 61/61/61 62/62/62 60/60/60
f 62/62/62 61/61/61 63/63/63
f 63/63/63 64/64/64 62/62/62
f 64/64/64 63/63/63 65/65/65
f 65/65/65 66/66/66 64/64/64
f 66/66/66 65/65/65 67/67/67
f 67/67/67 68/68/68 66/66/66
f 68/68/68 67/67/67 69/69/69
f 69/69/69 70/70/70 68/68/68
f 70/70/70 69/69/69 71/71/71
f 71/71/71 72/72/72 70/70/70
f 72/72/72 71/71/71 73/73/73
f 73/73/73 74/74/74 72/72/72
f 74/74/74 73/73/73 53/53/53
f 53/53/53 51/51/51 74/74/74
f 75/75/75 77/77/77 76/76/76
f 76/76/76 78/78/78 75/75/75
f 79/79/79 75/75/75 78/78/78
f 78/78/78 80/80/80 79/79/79
f 81/81/81 79/79/79 80/80/80
f 80/80/80 82/82/82 81/81/81
f 83/83/83 81/81/81 82/82/82
f 82/82/82 84/84/84 83/83/83
f 85/85/85 83/83/83 84/84/84
f 84/84/84 86/86/86 85/85/85
f 87/87/87 85/85/85 86/86/86
f 86/86/86 88/88/88 87/87/87
f 89/89/89 87/87/87 88/88/88
f 88/88/88 90/90/90 89/89/89
f 91/91/91 89/89/89 90/90/90
f 90/90/90 92/92/92 91/91/91
f 93/93/93 91/91/91 92/92/92
f 92/92/92 94/94/94 93/93/93
f 95/95/95 93/93/93 94/94/94
f 94/94/94 96/96/96 95/95/95
f 97/97/97 95/95/95 96/96/96
f 96/96/96 98/98/98 97/97/97
f 77/77/77 97/97/97 98/98/98
f 98/98/98 76/76/76 77/77/77
f 99/99/99 101/101/101 100/100/100
f 100/100/100 102/102/102 99/99/99
f 101/101/101 99/99/99 103/103/103
f 103/103/103 104/104/104 101/101/101
f 104/104/104 103/103/103 105/105/105
f 105/105/105 106/106/106 104/104/104
f 106/106/106 105/105/105 107/107/107
f 107/107/107 108/108/108 106/106/106
f 108/108/108 107/107/107 109/109/109
f 109/109/109 110/110/110 108/108/108
f 110/110/110 109/109/109 111/111/111
f 111/111/111 112/112/112 110/110/110
f 112/112/112 111/111/111 113/113/113
f 113/113/113 114/114/114 112/112/112
f 114/114/114 113/113/113 115/115/115
f 115/115/115 116/116/116 114/114/114
f 116/116/116 115/115/115 117/117/117
f 117/117/117 118/118/118 116/116/116
f 118/118/118 117/117/117 119/119/119
f 119/119/119 120/120/120 118/118/118
f 120/120/120 119/119/119 121/121/121
f 121/121/121 122/122/122 120/120/120
f 122/122/122 121/121/121 102/102/102
f 102/102/102 100/100/100 122/122/122
