#wheel_frontR_9449_19.obj

v 0.135887 0.09212738 -0.3437372
v 0.1358858 0.2516518 -0.2516225
v -0.07763521 0.2516516 -0.2516231
v -0.07763395 0.09212738 -0.3437378
v -0.07763317 0.3437464 -0.09208547
v 0.1358875 0.3437464 -0.09208652
v -0.07763282 0.3437341 0.09212358
v 0.1358882 0.3437345 0.09212414
v -0.07763316 0.251619 0.2516484
v 0.1358878 0.2516192 0.2516489
v -0.07763477 0.09208252 0.3437433
v 0.1358862 0.09208272 0.3437438
v -0.07639506 -0.09332691 0.3437313
v 0.1358872 -0.09332671 0.3437312
v -0.1072532 -0.2333327 0.2516156
v 0.1358883 -0.2223855 0.2516156
v 0.1358882 -0.09327837 -0.3437491
v -0.07639745 -0.09327837 -0.3437492
v 0.1358866 -0.2223804 -0.2516542
v -0.1072285 -0.233316 -0.2516549
v 0.1358859 -0.2437388 -0.09213102
v -0.1809118 -0.2437516 -0.09213012
v 0.1358866 -0.2437463 0.09207963
v -0.1809179 -0.2437463 0.09208012
v 0.1358883 -0.2223855 0.2516156
v -0.1072532 -0.2333327 0.2516156
v 0.1358882 -0.09327837 -0.3437491
v 0.1358866 -0.2223804 -0.2516542
v 0.1358859 -0.2437388 -0.09213102
v 0.135887 0.09212738 -0.3437372
v 0.1358858 0.2516518 -0.2516225
v 0.1358866 -0.2437463 0.09207963
v 0.1358875 0.3437464 -0.09208652
v 0.1358883 -0.2223855 0.2516156
v 0.1358882 0.3437345 0.09212414
v 0.1358872 -0.09332671 0.3437312
v 0.1358878 0.2516192 0.2516489
v 0.1358862 0.09208272 0.3437438
v -0.1358929 0.02516725 -0.09390477
v -0.135893 0.06874602 -0.0687405
v -0.1358903 -0.02515519 -0.09390857
v -0.1358913 -0.06873702 -0.06874911
v -0.1358904 0.09390429 -0.02515849
v -0.1345245 -0.0952681 -0.0251706
v -0.1358918 0.09390081 0.02516364
v -0.1345259 -0.09527157 0.02515152
v -0.1358929 0.06873704 0.06874304
v -0.1358912 -0.06874599 0.06873442
v -0.135891 0.02515502 0.09390029
v -0.1358916 -0.02516723 0.09389709
v -0.07763395 0.09212738 -0.3437378
v -0.07763521 0.2516516 -0.2516231
v -0.07763252 0.150929 -0.1509134
v -0.07763292 0.05525374 -0.2061598
v -0.07763399 0.2061629 -0.05523054
v -0.07763317 0.3437464 -0.09208547
v -0.07763527 0.2061558 0.05525101
v -0.07763282 0.3437341 0.09212358
v -0.07763472 0.1509092 0.1509269
v -0.07763316 0.251619 0.2516484
v -0.07763349 0.05522682 0.2061598
v -0.07763477 0.09208252 0.3437433
v -0.07763483 -0.05525351 0.2061526
v -0.07639506 -0.09332691 0.3437313
v -0.07021349 -0.1581147 0.1509061
v -0.1072532 -0.2333327 0.2516156
v -0.07760061 -0.2061937 0.05522302
v -0.1809179 -0.2437463 0.09208012
v -0.07759903 -0.206189 -0.05525691
v -0.1809118 -0.2437516 -0.09213012
v -0.07021419 -0.1580943 -0.150932
v -0.1072285 -0.233316 -0.2516549
v -0.07763411 -0.055227 -0.2061662
v -0.07639745 -0.09327837 -0.3437492
v -0.07763292 0.05525374 -0.2061598
v -0.07763252 0.150929 -0.1509134
v -0.03798287 0.1074606 -0.1074507
v -0.037983 0.03934032 -0.146786
v -0.03798229 0.1467871 -0.03932499
v -0.07763399 0.2061629 -0.05523054
v -0.03798351 0.146782 0.03933761
v -0.07763527 0.2061558 0.05525101
v -0.07763411 -0.055227 -0.2061662
v -0.03798389 -0.03932133 -0.1467908
v -0.07021419 -0.1580943 -0.150932
v -0.03527911 -0.1102926 -0.1074648
v -0.07759903 -0.206189 -0.05525691
v -0.03136418 -0.1537466 -0.03934316
v -0.07763472 0.1509092 0.1509269
v -0.03798412 0.1074468 0.1074569
v -0.03798351 0.146782 0.03933761
v -0.03798227 0.03932135 0.1467836
v -0.07763349 0.05522682 0.2061598
v -0.03798316 -0.03934029 0.1467787
v -0.07763483 -0.05525351 0.2061526
v -0.03527685 -0.1103081 0.1074438
v -0.07021349 -0.1581147 0.1509061
v -0.0313657 -0.1537519 0.03931783
v -0.07760061 -0.2061937 0.05522302
v -0.0313657 -0.1537519 0.03931783
v -0.03136418 -0.1537466 -0.03934316
v -0.03798287 0.1074606 -0.1074507
v -0.135893 0.06874602 -0.0687405
v -0.1358929 0.02516725 -0.09390477
v -0.037983 0.03934032 -0.146786
v -0.03798229 0.1467871 -0.03932499
v -0.1358904 0.09390429 -0.02515849
v -0.1358903 -0.02515519 -0.09390857
v -0.03798389 -0.03932133 -0.1467908
v -0.1358913 -0.06873702 -0.06874911
v -0.03527911 -0.1102926 -0.1074648
v -0.1345245 -0.0952681 -0.0251706
v -0.03136418 -0.1537466 -0.03934316
v -0.03798351 0.146782 0.03933761
v -0.1358918 0.09390081 0.02516364
v -0.03798229 0.1467871 -0.03932499
v -0.03798412 0.1074468 0.1074569
v -0.1358929 0.06873704 0.06874304
v -0.03798351 0.146782 0.03933761
v -0.03798227 0.03932135 0.1467836
v -0.135891 0.02515502 0.09390029
v -0.03798316 -0.03934029 0.1467787
v -0.1358916 -0.02516723 0.09389709
v -0.03527685 -0.1103081 0.1074438
v -0.1358912 -0.06874599 0.06873442
v -0.0313657 -0.1537519 0.03931783
v -0.1345259 -0.09527157 0.02515152
v -0.03136418 -0.1537466 -0.03934316

vn 0.1758381 0.2588802 -0.9497692
vn 0.1287168 0.7071517 -0.6952461
vn 0.1287169 0.707151 -0.6952469
vn 0.1758113 0.2594301 -0.9496241
vn 0.04710476 0.9659417 -0.2544324
vn 0.04710468 0.9659418 -0.254432
vn -0.04712874 0.9659081 0.2545552
vn -0.04712882 0.9659081 0.2545557
vn -0.1287338 0.7070602 0.695336
vn -0.1287338 0.7070602 0.695336
vn -0.1758178 0.2593075 0.9496564
vn -0.1758448 0.2587557 0.949802
vn -0.1655869 -0.3118939 0.9355761
vn -0.1668598 -0.2963305 0.9403965
vn -0.05923522 -0.9040873 0.4232205
vn -0.07540663 -0.8584646 0.5072974
vn 0.1808657 -0.2961548 -0.937859
vn 0.1803293 -0.3117009 -0.9329112
vn 0.1112213 -0.8583884 -0.5007969
vn 0.09622531 -0.9040218 -0.4165136
vn 0.01821958 -0.9988272 -0.04483653
vn 0.01531832 -0.999171 -0.03768881
vn 0.0009658542 -0.9988289 0.04834871
vn 0.0008153468 -0.9991723 0.04064414
vn -0.07540663 -0.8584646 0.5072974
vn -0.05923522 -0.9040873 0.4232205
vn 0.9832904 -8.459017E-14 0.1820439
vn 0.9832904 -8.459017E-14 0.1820439
vn 0.9832905 -2.610779E-07 0.1820435
vn 0.9832905 -2.659895E-07 0.1820435
vn 0.9832905 -2.789243E-07 0.1820433
vn 0.9832905 -2.687344E-07 0.1820433
vn 0.9832905 -1.541691E-07 0.1820434
vn 0.9832905 -1.302349E-07 0.1820434
vn 0.9832904 -7.638326E-14 0.1820437
vn 0.9832904 -7.638326E-14 0.1820437
vn 0.9832904 4.526007E-07 0.1820442
vn 0.9832904 4.526007E-07 0.1820442
vn -0.9832904 7.638326E-14 -0.1820437
vn -0.9832904 7.638326E-14 -0.1820437
vn -0.9832904 7.638326E-14 -0.1820437
vn -0.9848405 -0.005077517 -0.1733881
vn -0.9848349 -0.005058561 -0.1734205
vn -0.9842008 -0.007227158 -0.1769082
vn -0.9842158 -0.007227152 -0.1768246
vn -0.9819372 -0.005098361 -0.1891385
vn -0.9819216 -0.005064793 -0.1892204
vn -0.9798712 1.193782E-06 -0.1996309
vn -0.9798746 1.192636E-06 -0.199614
vn -0.9832904 7.638326E-14 -0.1820437
vn -0.9828791 -0.002087096 -0.18424
vn -0.9832905 6.514139E-14 -0.1820435
vn -0.9832905 6.514139E-14 -0.1820435
vn -0.9828791 -0.002087099 -0.18424
vn -0.9832905 5.919792E-07 -0.1820434
vn -0.9832905 5.919795E-07 -0.1820434
vn -0.9832905 2.512604E-07 -0.1820435
vn -0.9832905 2.512604E-07 -0.1820435
vn -0.9832905 -1.222905E-07 -0.1820434
vn -0.9832905 -1.222904E-07 -0.1820434
vn -0.9836941 -0.002093717 -0.1798375
vn -0.9836941 -0.002093722 -0.1798375
vn -0.9734726 0.06901796 -0.2181462
vn -0.9734972 0.06889019 -0.2180766
vn -0.8281705 0.5292873 -0.1843579
vn -0.876532 0.4343817 -0.2073734
vn -0.4622336 0.8832752 -0.07850676
vn -0.4898416 0.8679438 -0.08201895
vn -0.4597577 0.8832445 -0.09219789
vn -0.4868164 0.8678973 -0.09880472
vn -0.8393753 0.529132 -0.1243691
vn -0.8927413 0.434242 -0.1201934
vn -0.9870533 0.06894387 -0.1448183
vn -0.9870514 0.06881541 -0.1448926
vn -0.9216147 -0.1403283 0.3618482
vn -0.8960721 -0.383316 0.2238821
vn -0.896072 -0.383316 0.2238822
vn -0.9216146 -0.1403278 0.3618484
vn -0.8518346 -0.5235937 -0.01506235
vn -0.8518346 -0.5235937 -0.01506229
vn -0.800756 -0.5235748 -0.2909619
vn -0.800756 -0.5235747 -0.290962
vn -0.9267235 0.1070591 0.3601689
vn -0.9267324 0.107537 0.3600036
vn -0.9032938 0.3696805 0.2177064
vn -0.9050174 0.362227 0.2230124
vn -0.8073421 0.5899954 -0.01016623
vn -0.8054854 0.592447 -0.01410429
vn -0.7565213 -0.3832652 -0.5298895
vn -0.7565215 -0.3832652 -0.5298895
vn -0.800756 -0.5235748 -0.2909619
vn -0.730984 -0.14026 -0.6678244
vn -0.730984 -0.14026 -0.6678244
vn -0.7364263 0.1075987 -0.6679064
vn -0.7363588 0.1071208 -0.6680576
vn -0.7651961 0.3622951 -0.5321814
vn -0.765486 0.3697459 -0.5266107
vn -0.7571452 0.5924821 -0.275128
vn -0.7574686 0.590032 -0.2794685
vn -0.7571452 0.5924821 -0.275128
vn -0.8054854 0.592447 -0.01410429
vn -0.3675529 0.6172128 -0.695667
vn -0.3675529 0.617213 -0.6956667
vn -0.3264241 0.2259556 -0.9178187
vn -0.3264241 0.2259553 -0.9178187
vn -0.438784 0.8430876 -0.3109189
vn -0.438784 0.8430876 -0.3109186
vn -0.3263693 -0.2259815 -0.9178318
vn -0.3265088 -0.2288894 -0.9170614
vn -0.3703972 -0.6075315 -0.7026454
vn -0.3726739 -0.6181649 -0.6920878
vn -0.4516569 -0.832191 -0.3216563
vn -0.4538578 -0.8351052 -0.3108228
vn -0.5210313 0.8430582 0.1333326
vn -0.5210314 0.8430582 0.1333327
vn -0.438784 0.8430876 -0.3109189
vn -0.5922574 0.6171317 0.5180527
vn -0.5922574 0.6171317 0.5180527
vn -0.5210313 0.8430582 0.1333326
vn -0.6333759 0.2258452 0.7401544
vn -0.6333759 0.2258451 0.7401543
vn -0.6331742 -0.2290004 0.7393571
vn -0.6333199 -0.2260914 0.7401272
vn -0.5957299 -0.6182447 0.5127164
vn -0.5973842 -0.6076107 0.5233929
vn -0.5350342 -0.8351325 0.1276339
vn -0.536857 -0.8322207 0.1385337
vn -0.4538578 -0.8351052 -0.3108228

vt 0.7592773 0.3427734
vt 0.7592773 0.3227539
vt 0.7822266 0.3227539
vt 0.7822266 0.3427734
vt 0.7822266 0.3027344
vt 0.7592773 0.3027344
vt 0.7822266 0.2827148
vt 0.7592773 0.2827148
vt 0.7822266 0.2626953
vt 0.7592773 0.2626953
vt 0.7822266 0.2426758
vt 0.7592773 0.2426758
vt 0.7822266 0.2225342
vt 0.7592773 0.2225342
vt 0.7822266 0.2025146
vt 0.7592773 0.2025146
vt 0.7592773 0.362793
vt 0.7822266 0.362793
vt 0.7592773 0.3828125
vt 0.7822266 0.3828125
vt 0.7592773 0.402832
vt 0.7822266 0.402832
vt 0.7592773 0.4230957
vt 0.7822266 0.4230957
vt 0.7592773 0.4431152
vt 0.7822266 0.4431152
vt 0.7255859 0.3410645
vt 0.7363281 0.3596191
vt 0.7363281 0.3808594
vt 0.7070313 0.3305664
vt 0.6855469 0.3305664
vt 0.7255859 0.3994141
vt 0.6669922 0.3413086
vt 0.7070313 0.4101563
vt 0.65625 0.3598633
vt 0.6860352 0.4104004
vt 0.6567383 0.3811035
vt 0.6674805 0.3996582
vt 0.6982422 0.3642578
vt 0.7011719 0.3662109
vt 0.6948242 0.3640137
vt 0.6918945 0.3657227
vt 0.703125 0.3691406
vt 0.6899414 0.3686523
vt 0.7026367 0.3725586
vt 0.6899414 0.3720703
vt 0.7006836 0.3754883
vt 0.6914063 0.375
vt 0.6977539 0.3771973
vt 0.6943359 0.3769531
vt 0.7084961 0.329834
vt 0.7270508 0.3413086
vt 0.7143555 0.3530273
vt 0.7036133 0.3461914
vt 0.7207031 0.364502
vt 0.7373047 0.3603516
vt 0.7207031 0.3774414
vt 0.7368164 0.3820801
vt 0.7138672 0.388916
vt 0.7260742 0.4008789
vt 0.7026367 0.3952637
vt 0.7070313 0.4121094
vt 0.6894531 0.3950195
vt 0.6845703 0.411377
vt 0.6782227 0.3881836
vt 0.6660156 0.3999023
vt 0.671875 0.376709
vt 0.6557617 0.3808594
vt 0.6723633 0.3637695
vt 0.6557617 0.3591309
vt 0.6787109 0.3522949
vt 0.6669922 0.3400879
vt 0.6904297 0.3459473
vt 0.6860352 0.3291016
vt 0.7036133 0.3461914
vt 0.7143555 0.3530273
vt 0.7084961 0.3588867
vt 0.7011719 0.3544922
vt 0.7124023 0.3664551
vt 0.7207031 0.364502
vt 0.7124023 0.3752441
vt 0.7207031 0.3774414
vt 0.6904297 0.3459473
vt 0.6923828 0.354248
vt 0.6787109 0.3522949
vt 0.6845703 0.3586426
vt 0.6723633 0.3637695
vt 0.6801758 0.3659668
vt 0.7138672 0.388916
vt 0.7080078 0.3825684
vt 0.7124023 0.3752441
vt 0.7006836 0.3869629
vt 0.7026367 0.3952637
vt 0.6918945 0.3867188
vt 0.6894531 0.3950195
vt 0.6845703 0.3823242
vt 0.6782227 0.3881836
vt 0.6801758 0.3747559
vt 0.671875 0.376709
vt 0.6801758 0.3747559
vt 0.6801758 0.3659668
vt 0.7084961 0.3588867
vt 0.7011719 0.3662109
vt 0.6982422 0.3642578
vt 0.7011719 0.3544922
vt 0.7124023 0.3664551
vt 0.703125 0.3691406
vt 0.6948242 0.3640137
vt 0.6923828 0.354248
vt 0.6918945 0.3657227
vt 0.6845703 0.3586426
vt 0.6899414 0.3686523
vt 0.6801758 0.3659668
vt 0.7124023 0.3752441
vt 0.7026367 0.3725586
vt 0.7124023 0.3664551
vt 0.7080078 0.3825684
vt 0.7006836 0.3754883
vt 0.7124023 0.3752441
vt 0.7006836 0.3869629
vt 0.6977539 0.3771973
vt 0.6918945 0.3867188
vt 0.6943359 0.3769531
vt 0.6845703 0.3823242
vt 0.6914063 0.375
vt 0.6801758 0.3747559
vt 0.6899414 0.3720703
vt 0.6801758 0.3659668

g wheel_frontR_9449_19
usemtl wheel_frontR_9449_19
usemap wheel_frontR_9449_19
f 1/1/1 3/3/3 2/2/2
f 1/1/1 4/4/4 3/3/3
f 2/2/2 3/3/3 5/5/5
f 2/2/2 5/5/5 6/6/6
f 6/6/6 5/5/5 7/7/7
f 6/6/6 7/7/7 8/8/8
f 8/8/8 7/7/7 9/9/9
f 8/8/8 9/9/9 10/10/10
f 10/10/10 9/9/9 11/11/11
f 10/10/10 11/11/11 12/12/12
f 12/12/12 11/11/11 13/13/13
f 12/12/12 13/13/13 14/14/14
f 14/14/14 13/13/13 15/15/15
f 14/14/14 15/15/15 16/16/16
f 17/17/17 4/4/4 1/1/1
f 17/17/17 18/18/18 4/4/4
f 19/19/19 18/18/18 17/17/17
f 19/19/19 20/20/20 18/18/18
f 21/21/21 20/20/20 19/19/19
f 21/21/21 22/22/22 20/20/20
f 23/23/23 22/22/22 21/21/21
f 23/23/23 24/24/24 22/22/22
f 25/25/25 24/24/24 23/23/23
f 25/25/25 26/26/26 24/24/24
f 27/27/27 29/29/29 28/28/28
f 27/27/27 30/30/30 29/29/29
f 29/29/29 30/30/30 31/31/31
f 29/29/29 31/31/31 32/32/32
f 32/32/32 31/31/31 33/33/33
f 32/32/32 33/33/33 34/34/34
f 34/34/34 33/33/33 35/35/35
f 34/34/34 35/35/35 36/36/36
f 36/36/36 35/35/35 37/37/37
f 36/36/36 37/37/37 38/38/38
f 39/39/39 41/41/41 40/40/40
f 40/40/40 41/41/41 42/42/42
f 40/40/40 42/42/42 43/43/43
f 43/43/43 42/42/42 44/44/44
f 43/43/43 44/44/44 45/45/45
f 45/45/45 44/44/44 46/46/46
f 45/45/45 46/46/46 47/47/47
f 47/47/47 46/46/46 48/48/48
f 47/47/47 48/48/48 49/49/49
f 49/49/49 48/48/48 50/50/50
f 51/51/51 53/53/53 52/52/52
f 51/51/51 54/54/54 53/53/53
f 52/52/52 53/53/53 55/55/55
f 52/52/52 55/55/55 56/56/56
f 56/56/56 55/55/55 57/57/57
f 56/56/56 57/57/57 58/58/58
f 58/58/58 57/57/57 59/59/59
f 58/58/58 59/59/59 60/60/60
f 60/60/60 59/59/59 61/61/61
f 60/60/60 61/61/61 62/62/62
f 62/62/62 61/61/61 63/63/63
f 62/62/62 63/63/63 64/64/64
f 64/64/64 63/63/63 65/65/65
f 64/64/64 65/65/65 66/66/66
f 66/66/66 65/65/65 67/67/67
f 66/66/66 67/67/67 68/68/68
f 68/68/68 67/67/67 69/69/69
f 68/68/68 69/69/69 70/70/70
f 70/70/70 69/69/69 71/71/71
f 70/70/70 71/71/71 72/72/72
f 72/72/72 71/71/71 73/73/73
f 72/72/72 73/73/73 74/74/74
f 74/74/74 73/73/73 54/54/54
f 74/74/74 54/54/54 51/51/51
f 75/75/75 77/77/77 76/76/76
f 75/75/75 78/78/78 77/77/77
f 76/76/76 77/77/77 79/79/79
f 76/76/76 79/79/79 80/80/80
f 80/80/80 79/79/79 81/81/81
f 80/80/80 81/81/81 82/82/82
f 83/83/83 78/78/78 75/75/75
f 83/83/83 84/84/84 78/78/78
f 85/85/85 84/84/84 83/83/83
f 85/85/85 86/86/86 84/84/84
f 87/87/87 86/86/86 85/85/85
f 87/87/87 88/88/88 86/86/86
f 82/82/82 90/90/90 89/89/89
f 82/82/82 91/91/91 90/90/90
f 89/89/89 90/90/90 92/92/92
f 89/89/89 92/92/92 93/93/93
f 93/93/93 92/92/92 94/94/94
f 93/93/93 94/94/94 95/95/95
f 95/95/95 94/94/94 96/96/96
f 95/95/95 96/96/96 97/97/97
f 97/97/97 96/96/96 98/98/98
f 97/97/97 100/100/100 99/99/99
f 99/99/99 101/101/101 87/87/87
f 99/99/99 100/100/100 101/101/101
f 102/102/102 104/104/104 103/103/103
f 102/102/102 105/105/105 104/104/104
f 106/106/106 102/102/102 103/103/103
f 106/106/106 103/103/103 107/107/107
f 105/105/105 108/108/108 104/104/104
f 105/105/105 109/109/109 108/108/108
f 109/109/109 110/110/110 108/108/108
f 109/109/109 111/111/111 110/110/110
f 111/111/111 112/112/112 110/110/110
f 111/111/111 113/113/113 112/112/112
f 114/114/114 107/107/107 115/115/115
f 114/114/114 116/116/116 107/107/107
f 117/117/117 115/115/115 118/118/118
f 117/117/117 119/119/119 115/115/115
f 120/120/120 117/117/117 118/118/118
f 120/120/120 118/118/118 121/121/121
f 122/122/122 120/120/120 121/121/121
f 122/122/122 121/121/121 123/123/123
f 124/124/124 122/122/122 123/123/123
f 124/124/124 123/123/123 125/125/125
f 126/126/126 124/124/124 125/125/125
f 126/126/126 125/125/125 127/127/127
f 128/128/128 127/127/127 112/112/112
f 128/128/128 126/126/126 127/127/127
