#wheel_backL_10733_419.obj

v -0.1067627 -0.0932779 -0.3437544
v 0.105564 -0.0932779 -0.3437538
v 0.1067585 0.09212704 -0.3437439
v -0.1067608 0.09212744 -0.3437428
v 0.1067601 0.2516515 -0.251627
v -0.1067622 0.2516519 -0.2516272
v 0.1067594 0.343746 -0.09209131
v -0.1067629 0.3437465 -0.09209152
v 0.1067587 0.3437342 0.09211931
v -0.1067606 0.3437346 0.09212043
v 0.1067597 0.2516189 0.2516432
v -0.1067625 0.2516193 0.251643
v 0.1067604 0.09208243 0.3437383
v -0.1067618 0.09208263 0.3437381
v 0.1055599 -0.0933272 0.3437257
v -0.1067601 -0.093327 0.3437263
v -0.1067614 -0.2223808 -0.2516608
v -0.106761 -0.2437387 -0.09213537
v 0.1356391 -0.2322776 -0.2516604
v 0.2067529 -0.2437509 -0.0921353
v -0.1067611 -0.2437466 0.09207375
v 0.2067595 -0.2437466 0.09207501
v -0.1067624 -0.2223858 0.2516109
v 0.1356636 -0.2322937 0.2516102
v -0.1067601 -0.093327 0.3437263
v 0.1055599 -0.0933272 0.3437257
v -0.1067614 -0.2223808 -0.2516608
v -0.1067627 -0.0932779 -0.3437544
v -0.1067611 -0.2437466 0.09207375
v -0.106761 -0.2437387 -0.09213537
v -0.1067608 0.09212744 -0.3437428
v -0.1067624 -0.2223858 0.2516109
v -0.1067622 0.2516519 -0.2516272
v -0.1067601 -0.093327 0.3437263
v -0.1067629 0.3437465 -0.09209152
v -0.1067618 0.09208263 0.3437381
v -0.1067606 0.3437346 0.09212043
v -0.1067625 0.2516193 0.251643
v 0.1067606 -0.02515511 -0.09391238
v 0.1067589 -0.06873713 -0.06875508
v 0.1067593 0.02516713 -0.09390941
v 0.1053906 -0.09526821 -0.02517652
v 0.1067585 0.0687461 -0.06874631
v 0.1053905 -0.09527168 0.0251467
v 0.1067592 0.09390417 -0.02516366
v 0.1067583 -0.0687461 0.06872912
v 0.106759 0.09390091 0.02515956
v 0.1067576 -0.02516733 0.09389222
v 0.106758 0.06873693 0.06873789
v 0.1067593 0.02515491 0.09389654
v 0.105564 -0.0932779 -0.3437538
v 0.1067579 -0.05522672 -0.206172
v 0.1067582 0.05525361 -0.2061647
v 0.1067585 0.09212704 -0.3437439
v 0.1067603 0.1509291 -0.1509177
v 0.1067601 0.2516515 -0.251627
v 0.1067583 0.206163 -0.05523597
v 0.1067594 0.343746 -0.09209131
v 0.1067575 0.2061557 0.05524511
v 0.1067587 0.3437342 0.09211931
v 0.1067582 0.1509091 0.1509209
v 0.1067597 0.2516189 0.2516432
v 0.106759 0.05522672 0.2061548
v 0.1067604 0.09208243 0.3437383
v 0.1067587 -0.05525381 0.2061475
v 0.1055599 -0.0933272 0.3437257
v 0.09957328 -0.158115 0.1509015
v 0.1356636 -0.2322937 0.2516102
v 0.1067271 -0.2061938 0.0552172
v 0.2067595 -0.2437466 0.09207501
v 0.1067266 -0.2061893 -0.0552609
v 0.2067529 -0.2437509 -0.0921353
v 0.09957533 -0.1580942 -0.1509371
v 0.1356391 -0.2322776 -0.2516604
v 0.1067579 -0.05522672 -0.206172
v 0.06710985 -0.03932145 -0.1467957
v 0.06710785 0.03934019 -0.1467912
v 0.1067582 0.05525361 -0.2061647
v 0.06710981 0.1074607 -0.1074544
v 0.1067603 0.1509291 -0.1509177
v 0.06710926 0.1467869 -0.03932978
v 0.1067583 0.206163 -0.05523597
v 0.06710825 0.1467819 0.03933099
v 0.1067575 0.2061557 0.05524511
v 0.06710904 0.1074467 0.1074526
v 0.1067582 0.1509091 0.1509209
v 0.06710839 0.03932125 0.1467794
v 0.106759 0.05522672 0.2061548
v 0.06710742 -0.0393404 0.1467736
v 0.1067587 -0.05525381 0.2061475
v 0.06422044 -0.1103084 0.1074376
v 0.09957328 -0.158115 0.1509015
v 0.06004465 -0.1537521 0.0393124
v 0.1067271 -0.2061938 0.0552172
v 0.06004566 -0.1537468 -0.03934837
v 0.1067266 -0.2061893 -0.0552609
v 0.06422418 -0.1102927 -0.1074681
v 0.09957533 -0.1580942 -0.1509371
v 0.06710785 0.03934019 -0.1467912
v 0.06710985 -0.03932145 -0.1467957
v 0.1067606 -0.02515511 -0.09391238
v 0.1067593 0.02516713 -0.09390941
v 0.06710981 0.1074607 -0.1074544
v 0.1067585 0.0687461 -0.06874631
v 0.06710926 0.1467869 -0.03932978
v 0.1067592 0.09390417 -0.02516366
v 0.06710825 0.1467819 0.03933099
v 0.106759 0.09390091 0.02515956
v 0.06710904 0.1074467 0.1074526
v 0.106758 0.06873693 0.06873789
v 0.06710839 0.03932125 0.1467794
v 0.1067593 0.02515491 0.09389654
v 0.06710742 -0.0393404 0.1467736
v 0.1067576 -0.02516733 0.09389222
v 0.06422044 -0.1103084 0.1074376
v 0.1067583 -0.0687461 0.06872912
v 0.06004465 -0.1537521 0.0393124
v 0.1053905 -0.09527168 0.0251467
v 0.06004566 -0.1537468 -0.03934837
v 0.1053906 -0.09526821 -0.02517652
v 0.06422418 -0.1102927 -0.1074681
v 0.1067589 -0.06873713 -0.06875508

vn -0.3968457 -0.296951 -0.8685237
vn -0.395143 -0.3122689 -0.8639155
vn -0.3954097 0.2594126 -0.8811108
vn -0.3954681 0.2588813 -0.8812408
vn -0.2894881 0.707152 -0.6450827
vn -0.289488 0.7071524 -0.6450823
vn -0.1059403 0.9659417 -0.2360751
vn -0.1059402 0.9659418 -0.2360748
vn 0.1059938 0.9659081 0.2361886
vn 0.1059938 0.9659081 0.2361886
vn 0.2895271 0.7070597 0.6451664
vn 0.2895271 0.7070597 0.6451664
vn 0.3954231 0.2592889 0.8811412
vn 0.3954817 0.258755 0.8812717
vn 0.382705 -0.3124622 0.8694275
vn 0.38502 -0.297128 0.8737701
vn -0.2251544 -0.8581907 -0.4613162
vn -0.02828781 -0.9987442 -0.04132481
vn -0.1920337 -0.902199 -0.3862103
vn -0.02394407 -0.9991004 -0.03497436
vn 0.01205359 -0.9987462 0.04856639
vn 0.01019876 -0.9991017 0.04110638
vn 0.1949085 -0.8582664 0.4747503
vn 0.1608137 -0.9022641 0.4000711
vn 0.38502 -0.297128 0.8737701
vn 0.382705 -0.3124622 0.8694275
vn -0.9123439 -1.306081E-06 0.4094246
vn -0.9123439 -9.540126E-07 0.4094245
vn -0.912344 -8.910973E-07 0.4094244
vn -0.9123439 -1.306081E-06 0.4094246
vn -0.9123439 -4.775956E-07 0.4094245
vn -0.9123439 -3.861481E-07 0.4094245
vn -0.9123439 -2.026115E-07 0.4094246
vn -0.9123439 -2.01948E-07 0.4094246
vn -0.9123439 1.403169E-14 0.4094246
vn -0.9123439 1.403168E-14 0.4094246
vn -0.9123437 4.141605E-07 0.4094248
vn -0.9123437 4.141605E-07 0.4094248
vn 0.9123452 1.894912E-06 -0.4094218
vn 0.9195307 -9.97047E-07 -0.3930179
vn 0.919524 -9.94272E-07 -0.3930337
vn 0.9152659 -0.005098392 -0.4028178
vn 0.9152997 -0.005064842 -0.4027416
vn 0.9101726 -0.007226365 -0.4141659
vn 0.9101374 -0.007226361 -0.4142432
vn 0.9086961 -0.005076953 -0.4174274
vn 0.9087099 -0.005057981 -0.4173975
vn 0.9123442 6.242342E-07 -0.4094238
vn 0.9123442 6.242344E-07 -0.4094238
vn 0.9123435 9.036686E-14 -0.4094254
vn 0.9245258 0.06750284 -0.3750939
vn 0.9245604 0.06773089 -0.3749674
vn 0.911454 -0.002019846 -0.411397
vn 0.911454 -0.002019856 -0.411397
vn 0.9123438 4.825677E-07 -0.4094248
vn 0.9123438 4.825675E-07 -0.4094248
vn 0.9123438 3.118339E-07 -0.4094248
vn 0.9123438 3.118341E-07 -0.4094248
vn 0.9123439 1.453111E-07 -0.4094245
vn 0.9123439 1.453111E-07 -0.4094245
vn 0.912344 4.73487E-07 -0.4094243
vn 0.912344 4.734871E-07 -0.4094243
vn 0.9132286 -0.002026965 -0.4074422
vn 0.9132286 -0.002026968 -0.4074422
vn 0.8947198 0.06779917 -0.4414518
vn 0.894791 0.06757166 -0.4413423
vn 0.7639521 0.5229893 -0.3779666
vn 0.8063912 0.4244489 -0.4117958
vn 0.4387702 0.8779381 -0.1915826
vn 0.4665413 0.8609476 -0.2027483
vn 0.4348453 0.8779066 -0.2004694
vn 0.461671 0.8608989 -0.2138025
vn 0.7902858 0.5228364 -0.3195145
vn 0.8437397 0.4243145 -0.328725
vn 0.9854003 0.1077446 0.1318229
vn 0.9853693 0.1082187 0.131667
vn 0.9810466 -0.1403289 0.1336246
vn 0.9810466 -0.1403291 0.1336246
vn 0.9236003 -0.3833155 0.005613089
vn 0.9236003 -0.3833156 0.005613089
vn 0.8241081 -0.5235929 -0.2160919
vn 0.8241081 -0.5235929 -0.216092
vn 0.7092279 -0.5235751 -0.4720849
vn 0.709228 -0.5235751 -0.472085
vn 0.609742 -0.3832658 -0.6937733
vn 0.609742 -0.3832658 -0.6937734
vn 0.5523079 -0.1402598 -0.8217559
vn 0.5523079 -0.14026 -0.8217559
vn 0.5566531 0.10828 -0.8236579
vn 0.5565575 0.1078067 -0.8237846
vn 0.6146061 0.3643065 -0.699671
vn 0.6161153 0.3716325 -0.6944715
vn 0.6672773 0.5957729 -0.4469839
vn 0.6665232 0.5932319 -0.4514665
vn 0.7775389 0.5957377 -0.2013181
vn 0.7803873 0.5931951 -0.1977742
vn 0.931286 0.3642393 0.005987734
vn 0.9284048 0.3715673 0.001403511
vn 0.5069442 0.1518502 -0.8484979
vn 0.5042717 -0.1608573 -0.8484306
vn 0.5041019 -0.1588171 -0.8489158
vn 0.5069443 0.1518505 -0.8484977
vn 0.5691079 0.4147888 -0.709976
vn 0.5691079 0.414789 -0.7099757
vn 0.67677 0.5665855 -0.4700664
vn 0.67677 0.5665854 -0.4700665
vn 0.8010823 0.5665656 -0.193054
vn 0.8010824 0.5665655 -0.1930538
vn 0.9087357 0.4147353 0.04683658
vn 0.9087358 0.4147353 0.04683667
vn 0.970885 0.1517767 0.185327
vn 0.9708851 0.1517766 0.185327
vn 0.9690409 -0.1609352 0.1872423
vn 0.9692907 -0.1588938 0.1876922
vn 0.89836 -0.4370599 0.04390445
vn 0.9024094 -0.4276739 0.05245882
vn 0.7884657 -0.5831456 -0.1956075
vn 0.7921276 -0.5808625 -0.1874353
vn 0.6702309 -0.5831276 -0.4590772
vn 0.6665587 -0.5808426 -0.467248
vn 0.5643563 -0.4370042 -0.7003776
vn 0.5606587 -0.427619 -0.7090862

vt 0.894043 0.8886719
vt 0.894043 0.8657227
vt 0.8735352 0.8657227
vt 0.8735352 0.8886719
vt 0.8535156 0.8657227
vt 0.8535156 0.8886719
vt 0.8334961 0.8657227
vt 0.8334961 0.8886719
vt 0.8134766 0.8657227
vt 0.8134766 0.8886719
vt 0.793457 0.8657227
vt 0.793457 0.8886719
vt 0.7734375 0.8657227
vt 0.7734375 0.8886719
vt 0.753418 0.8657227
vt 0.753418 0.8886719
vt 0.9140625 0.8886719
vt 0.934082 0.8886719
vt 0.9140625 0.8657227
vt 0.934082 0.8657227
vt 0.9541016 0.8886719
vt 0.9541016 0.8657227
vt 0.9741211 0.8886719
vt 0.9741211 0.8657227
vt 0.9941406 0.8886719
vt 0.9941406 0.8657227
vt 0.5517578 0.7646484
vt 0.5332031 0.7539063
vt 0.5625 0.8046875
vt 0.5625 0.7832031
vt 0.5117188 0.7539063
vt 0.5522461 0.8232422
vt 0.4934082 0.7646484
vt 0.5336914 0.8339844
vt 0.482666 0.7836914
vt 0.512207 0.8339844
vt 0.482666 0.8051758
vt 0.4934082 0.8232422
vt 0.5249023 0.7875977
vt 0.5214844 0.7875977
vt 0.527832 0.7895508
vt 0.5185547 0.7890625
vt 0.5292969 0.7924805
vt 0.5166016 0.7919922
vt 0.5292969 0.7963867
vt 0.5166016 0.7954102
vt 0.5273438 0.7988281
vt 0.5180664 0.7988281
vt 0.5244141 0.8007813
vt 0.5209961 0.800293
vt 0.534668 0.753418
vt 0.5297852 0.7695313
vt 0.5410156 0.7763672
vt 0.5532227 0.7651367
vt 0.5473633 0.7880859
vt 0.5639648 0.7836914
vt 0.5473633 0.8012695
vt 0.5634766 0.8056641
vt 0.5405273 0.8125
vt 0.5527344 0.824707
vt 0.5292969 0.8188477
vt 0.5332031 0.8359375
vt 0.5161133 0.8183594
vt 0.5112305 0.8349609
vt 0.5048828 0.8115234
vt 0.4924316 0.8232422
vt 0.4985352 0.800293
vt 0.4821777 0.8041992
vt 0.4987793 0.7871094
vt 0.4824219 0.7827148
vt 0.5053711 0.7758789
vt 0.4934082 0.7636719
vt 0.5166016 0.7695313
vt 0.5126953 0.7524414
vt 0.5297852 0.7695313
vt 0.5273438 0.777832
vt 0.534668 0.7822266
vt 0.5410156 0.7763672
vt 0.5390625 0.7900391
vt 0.5473633 0.7880859
vt 0.5390625 0.7988281
vt 0.5473633 0.8012695
vt 0.534668 0.8061523
vt 0.5405273 0.8125
vt 0.5268555 0.8105469
vt 0.5292969 0.8188477
vt 0.5185547 0.8100586
vt 0.5161133 0.8183594
vt 0.5107422 0.8056641
vt 0.5048828 0.8115234
vt 0.5068359 0.7983398
vt 0.4985352 0.800293
vt 0.5068359 0.7895508
vt 0.4987793 0.7871094
vt 0.5112305 0.7822266
vt 0.5053711 0.7758789
vt 0.519043 0.777832
vt 0.5166016 0.7695313
vt 0.534668 0.7822266
vt 0.5273438 0.777832
vt 0.5249023 0.7875977
vt 0.527832 0.7895508
vt 0.5390625 0.7900391
vt 0.5292969 0.7924805
vt 0.5390625 0.7988281
vt 0.5292969 0.7963867
vt 0.534668 0.8061523
vt 0.5273438 0.7988281
vt 0.5268555 0.8105469
vt 0.5244141 0.8007813
vt 0.5185547 0.8100586
vt 0.5209961 0.800293
vt 0.5107422 0.8056641
vt 0.5180664 0.7988281
vt 0.5068359 0.7983398
vt 0.5166016 0.7954102
vt 0.5068359 0.7895508
vt 0.5166016 0.7919922
vt 0.5112305 0.7822266
vt 0.5185547 0.7890625
vt 0.519043 0.777832
vt 0.5214844 0.7875977

g wheel_backL_10733_419
usemtl wheel_backL_10733_419
usemap wheel_backL_10733_419
f 1/1/1 3/3/3 2/2/2
f 1/1/1 4/4/4 3/3/3
f 4/4/4 5/5/5 3/3/3
f 4/4/4 6/6/6 5/5/5
f 6/6/6 7/7/7 5/5/5
f 6/6/6 8/8/8 7/7/7
f 8/8/8 9/9/9 7/7/7
f 8/8/8 10/10/10 9/9/9
f 10/10/10 11/11/11 9/9/9
f 10/10/10 12/12/12 11/11/11
f 12/12/12 13/13/13 11/11/11
f 12/12/12 14/14/14 13/13/13
f 14/14/14 15/15/15 13/13/13
f 14/14/14 16/16/16 15/15/15
f 17/17/17 1/1/1 2/2/2
f 18/18/18 17/17/17 19/19/19
f 18/18/18 19/19/19 20/20/20
f 21/21/21 18/18/18 20/20/20
f 21/21/21 20/20/20 22/22/22
f 23/23/23 21/21/21 22/22/22
f 23/23/23 22/22/22 24/24/24
f 25/25/25 23/23/23 24/24/24
f 25/25/25 24/24/24 26/26/26
f 17/17/17 2/2/2 19/19/19
f 27/27/27 29/29/29 28/28/28
f 27/27/27 30/30/30 29/29/29
f 29/29/29 31/31/31 28/28/28
f 29/29/29 32/32/32 31/31/31
f 32/32/32 33/33/33 31/31/31
f 32/32/32 34/34/34 33/33/33
f 34/34/34 35/35/35 33/33/33
f 34/34/34 36/36/36 35/35/35
f 36/36/36 37/37/37 35/35/35
f 36/36/36 38/38/38 37/37/37
f 39/39/39 41/41/41 40/40/40
f 41/41/41 42/42/42 40/40/40
f 41/41/41 43/43/43 42/42/42
f 43/43/43 44/44/44 42/42/42
f 43/43/43 45/45/45 44/44/44
f 45/45/45 46/46/46 44/44/44
f 45/45/45 47/47/47 46/46/46
f 47/47/47 48/48/48 46/46/46
f 47/47/47 49/49/49 48/48/48
f 49/49/49 50/50/50 48/48/48
f 51/51/51 53/53/53 52/52/52
f 51/51/51 54/54/54 53/53/53
f 54/54/54 55/55/55 53/53/53
f 54/54/54 56/56/56 55/55/55
f 56/56/56 57/57/57 55/55/55
f 56/56/56 58/58/58 57/57/57
f 58/58/58 59/59/59 57/57/57
f 58/58/58 60/60/60 59/59/59
f 60/60/60 61/61/61 59/59/59
f 60/60/60 62/62/62 61/61/61
f 62/62/62 63/63/63 61/61/61
f 62/62/62 64/64/64 63/63/63
f 64/64/64 65/65/65 63/63/63
f 64/64/64 66/66/66 65/65/65
f 66/66/66 67/67/67 65/65/65
f 66/66/66 68/68/68 67/67/67
f 68/68/68 69/69/69 67/67/67
f 68/68/68 70/70/70 69/69/69
f 70/70/70 71/71/71 69/69/69
f 70/70/70 72/72/72 71/71/71
f 72/72/72 73/73/73 71/71/71
f 72/72/72 74/74/74 73/73/73
f 74/74/74 52/52/52 73/73/73
f 74/74/74 51/51/51 52/52/52
f 75/75/75 77/77/77 76/76/76
f 75/75/75 78/78/78 77/77/77
f 78/78/78 79/79/79 77/77/77
f 78/78/78 80/80/80 79/79/79
f 80/80/80 81/81/81 79/79/79
f 80/80/80 82/82/82 81/81/81
f 82/82/82 83/83/83 81/81/81
f 82/82/82 84/84/84 83/83/83
f 84/84/84 85/85/85 83/83/83
f 84/84/84 86/86/86 85/85/85
f 86/86/86 87/87/87 85/85/85
f 86/86/86 88/88/88 87/87/87
f 88/88/88 89/89/89 87/87/87
f 88/88/88 90/90/90 89/89/89
f 90/90/90 91/91/91 89/89/89
f 90/90/90 92/92/92 91/91/91
f 92/92/92 93/93/93 91/91/91
f 92/92/92 94/94/94 93/93/93
f 94/94/94 95/95/95 93/93/93
f 94/94/94 96/96/96 95/95/95
f 96/96/96 97/97/97 95/95/95
f 96/96/96 98/98/98 97/97/97
f 98/98/98 76/76/76 97/97/97
f 98/98/98 75/75/75 76/76/76
f 99/99/99 101/101/101 100/100/100
f 99/99/99 102/102/102 101/101/101
f 103/103/103 102/102/102 99/99/99
f 103/103/103 104/104/104 102/102/102
f 105/105/105 104/104/104 103/103/103
f 105/105/105 106/106/106 104/104/104
f 107/107/107 106/106/106 105/105/105
f 107/107/107 108/108/108 106/106/106
f 109/109/109 108/108/108 107/107/107
f 109/109/109 110/110/110 108/108/108
f 111/111/111 110/110/110 109/109/109
f 111/111/111 112/112/112 110/110/110
f 113/113/113 112/112/112 111/111/111
f 113/113/113 114/114/114 112/112/112
f 115/115/115 114/114/114 113/113/113
f 115/115/115 116/116/116 114/114/114
f 117/117/117 116/116/116 115/115/115
f 117/117/117 118/118/118 116/116/116
f 119/119/119 118/118/118 117/117/117
f 119/119/119 120/120/120 118/118/118
f 121/121/121 120/120/120 119/119/119
f 121/121/121 122/122/122 120/120/120
f 100/100/100 122/122/122 121/121/121
f 100/100/100 101/101/101 122/122/122
