#wheel_frontR_9986_406.obj

v 0.1067915 -0.09327776 -0.3437176
v 0.106794 0.0921277 -0.3437073
v -0.1067276 0.09212725 -0.3437097
v -0.1055334 -0.09327754 -0.3437182
v -0.1067331 0.2516518 -0.2515928
v 0.1067885 0.251652 -0.2515904
v -0.1067305 0.3437465 -0.09205447
v 0.1067902 0.3437467 -0.0920555
v -0.1067327 0.3437342 0.09215511
v 0.106788 0.3437347 0.09215409
v -0.1067266 0.251619 0.2516779
v 0.1067872 0.2516193 0.2516786
v -0.1067303 0.09208246 0.3437723
v 0.1067913 0.09208269 0.3437747
v -0.1055292 -0.09332722 0.3437621
v 0.1067879 -0.093327 0.3437609
v 0.1067878 -0.2223805 -0.2516232
v -0.1420508 -0.2319106 -0.2529878
v 0.106794 -0.2437386 -0.09210044
v -0.2067279 -0.24375 -0.09209875
v 0.1067917 -0.2437464 0.09210914
v -0.2067301 -0.2437464 0.09211084
v 0.1067934 -0.2223857 0.251644
v -0.1420769 -0.2319262 0.2530099
v 0.1067879 -0.093327 0.3437609
v -0.1055292 -0.09332722 0.3437621
v 0.1067878 -0.2223805 -0.2516232
v 0.106794 -0.2437386 -0.09210044
v 0.1067917 -0.2437464 0.09210914
v 0.1067915 -0.09327776 -0.3437176
v 0.106794 0.0921277 -0.3437073
v 0.1067934 -0.2223857 0.251644
v 0.1067885 0.251652 -0.2515904
v 0.1067879 -0.093327 0.3437609
v 0.1067902 0.3437467 -0.0920555
v 0.1067913 0.09208269 0.3437747
v 0.106788 0.3437347 0.09215409
v 0.1067872 0.2516193 0.2516786
v -0.1054132 -0.02515488 -0.09387637
v -0.1061171 0.02516727 -0.09387361
v -0.1067309 -0.0687369 -0.06872001
v -0.1082188 -0.09526822 -0.02514163
v -0.1067284 0.06874619 -0.06870963
v -0.1082169 -0.09527156 0.02518147
v -0.1067325 0.09390425 -0.02512593
v -0.1067312 -0.06874605 0.06876532
v -0.1067315 0.09390113 0.02519371
v -0.1054125 -0.02516713 0.0939286
v -0.1067295 0.06873704 0.06877225
v -0.1061163 0.02515502 0.09393136
v -0.1055334 -0.09327754 -0.3437182
v -0.1067276 0.09212725 -0.3437097
v -0.106674 0.05525392 -0.2061237
v -0.1062393 -0.05522659 -0.2060866
v -0.106728 0.1509291 -0.1508809
v -0.1067331 0.2516518 -0.2515928
v -0.1067304 0.2061631 -0.05519803
v -0.1067305 0.3437465 -0.09205447
v -0.1067302 0.2061557 0.05527965
v -0.1067327 0.3437342 0.09215511
v -0.1067273 0.1509092 0.1509539
v -0.1067266 0.251619 0.2516779
v -0.106674 0.05522674 0.2061853
v -0.1067303 0.09208246 0.3437723
v -0.1062388 -0.05525378 0.2061342
v -0.1055292 -0.09332722 0.3437621
v -0.1103047 -0.1581149 0.1511213
v -0.1420769 -0.2319262 0.2530099
v -0.1254583 -0.2061937 0.05525376
v -0.2067301 -0.2437464 0.09211084
v -0.1254515 -0.2061892 -0.05522562
v -0.2067279 -0.24375 -0.09209875
v -0.1103005 -0.158094 -0.1510853
v -0.1420508 -0.2319106 -0.2529878
v -0.1062393 -0.05522659 -0.2060866
v -0.106674 0.05525392 -0.2061237
v -0.06695772 0.03934048 -0.1467548
v -0.06663518 -0.03932117 -0.1467564
v -0.06708028 0.1074609 -0.1074209
v -0.106728 0.1509291 -0.1508809
v -0.06707636 0.1467871 -0.03929389
v -0.1067304 0.2061631 -0.05519803
v -0.06708106 0.1467822 0.03936671
v -0.1067302 0.2061557 0.05527965
v -0.06707883 0.1074466 0.1074868
v -0.1067273 0.1509092 0.1509539
v -0.06696097 0.03932131 0.1468135
v -0.106674 0.05522674 0.2061853
v -0.06663235 -0.03934056 0.1468068
v -0.1062388 -0.05525378 0.2061342
v -0.06617171 -0.1103082 0.1074749
v -0.1103047 -0.1581149 0.1511213
v -0.06534638 -0.1537521 0.03934756
v -0.1254583 -0.2061937 0.05525376
v -0.06534169 -0.1537467 -0.03931304
v -0.1254515 -0.2061892 -0.05522562
v -0.06617315 -0.1102926 -0.1074329
v -0.1103005 -0.158094 -0.1510853
v -0.06695772 0.03934048 -0.1467548
v -0.1061171 0.02516727 -0.09387361
v -0.1054132 -0.02515488 -0.09387637
v -0.06663518 -0.03932117 -0.1467564
v -0.06708028 0.1074609 -0.1074209
v -0.1067284 0.06874619 -0.06870963
v -0.06707636 0.1467871 -0.03929389
v -0.1067325 0.09390425 -0.02512593
v -0.06708106 0.1467822 0.03936671
v -0.1067315 0.09390113 0.02519371
v -0.06707883 0.1074466 0.1074868
v -0.1067295 0.06873704 0.06877225
v -0.06696097 0.03932131 0.1468135
v -0.1061163 0.02515502 0.09393136
v -0.06663235 -0.03934056 0.1468068
v -0.1054125 -0.02516713 0.0939286
v -0.06617171 -0.1103082 0.1074749
v -0.1067312 -0.06874605 0.06876532
v -0.06534638 -0.1537521 0.03934756
v -0.1082169 -0.09527156 0.02518147
v -0.06534169 -0.1537467 -0.03931304
v -0.1082188 -0.09526822 -0.02514163
v -0.06617315 -0.1102926 -0.1074329
v -0.1067309 -0.0687369 -0.06872001

vn 0.2333764 -0.2958097 -0.9262999
vn 0.2287282 0.2588814 -0.9384367
vn 0.2286944 0.2594126 -0.9382982
vn 0.2324237 -0.3142593 -0.9204454
vn 0.1674319 0.7071522 -0.6869504
vn 0.1674318 0.7071526 -0.6869501
vn 0.06127248 0.9659416 -0.2513968
vn 0.06127242 0.9659417 -0.2513965
vn -0.06130454 0.9659079 0.2515185
vn -0.0613046 0.9659078 0.2515188
vn -0.1674551 0.7070594 0.6870403
vn -0.1674551 0.7070594 0.6870403
vn -0.2287021 0.2592887 0.9383305
vn -0.228736 0.258755 0.9384697
vn -0.2171436 -0.3144551 0.9241028
vn -0.2189947 -0.2959893 0.9297478
vn 0.1382475 -0.8580927 -0.4945328
vn 0.1192239 -0.9018018 -0.4153759
vn 0.0201486 -0.9987172 -0.04643004
vn 0.01736779 -0.9990469 -0.04001642
vn -0.003466825 -0.9987191 0.05045523
vn -0.00298528 -0.9990483 0.04348716
vn -0.1047701 -0.8581685 0.5025616
vn -0.08523723 -0.9018673 0.4235186
vn -0.2189947 -0.2959893 0.9297478
vn -0.2171436 -0.3144551 0.9241028
vn 0.9715585 -1.875661E-06 0.2367997
vn 0.9715585 -1.875661E-06 0.2367997
vn 0.9715585 -8.134434E-07 0.2367998
vn 0.9715585 -9.744862E-07 0.2367998
vn 0.9715585 -3.154219E-07 0.2368
vn 0.9715584 -2.229316E-07 0.2368001
vn 0.9715584 8.881774E-16 0.2368002
vn 0.9715584 8.881774E-16 0.2368002
vn 0.9715584 8.881774E-16 0.2368002
vn 0.9715584 8.881774E-16 0.2368002
vn 0.9715584 8.881774E-16 0.2368002
vn 0.9715584 8.881774E-16 0.2368002
vn -0.9505332 -0.01398331 -0.3103079
vn -0.962629 -0.001405902 -0.2708203
vn -0.9626402 -0.00139327 -0.2707804
vn -0.9690046 0.005556325 -0.2469806
vn -0.9689717 0.00551928 -0.2471103
vn -0.972859 0.007877374 -0.2312649
vn -0.9728804 0.007877369 -0.2311747
vn -0.9750498 0.005532897 -0.2219172
vn -0.9750531 0.005512952 -0.2219036
vn -0.9754961 -0.001405198 -0.2200123
vn -0.9754962 -0.00140478 -0.2200117
vn -0.9714662 -0.01402298 -0.2367629
vn -0.971709 0.09067957 -0.2180797
vn -0.9712847 -0.002883226 -0.2379026
vn -0.9712847 -0.002883492 -0.2379028
vn -0.9717098 0.09066283 -0.2180836
vn -0.9715675 -0.0001263692 -0.2367629
vn -0.9715675 -0.0001263681 -0.2367629
vn -0.9715584 1.154649E-07 -0.2368002
vn -0.9715584 1.15465E-07 -0.2368002
vn -0.9715585 2.769994E-07 -0.2367998
vn -0.9715585 2.769995E-07 -0.2367998
vn -0.9715493 -0.000126384 -0.2368374
vn -0.9715493 -0.0001263827 -0.2368374
vn -0.9718246 -0.002889323 -0.2356877
vn -0.9718246 -0.002889052 -0.2356878
vn -0.9630787 0.09072953 -0.2534712
vn -0.9630761 0.09074721 -0.2534744
vn -0.8372998 0.5084295 -0.2010669
vn -0.8791452 0.420642 -0.2239721
vn -0.5271615 0.8425068 -0.1108218
vn -0.5627704 0.8187128 -0.1140068
vn -0.5190793 0.8424743 -0.1441946
vn -0.5521855 0.8186586 -0.1577583
vn -0.8359965 0.5082886 -0.2067661
vn -0.8836632 0.4205184 -0.2056777
vn -0.9375501 0.1444501 0.3164392
vn -0.9400814 -0.1424888 0.3097479
vn -0.9400988 -0.1422174 0.3098195
vn -0.9377764 0.1417312 0.3169976
vn -0.9070415 -0.3836875 0.1733752
vn -0.907033 -0.3837237 0.1733398
vn -0.8496559 -0.5235934 -0.06272271
vn -0.8496559 -0.5235934 -0.06272274
vn -0.7832123 -0.5235755 -0.3353306
vn -0.7832124 -0.5235757 -0.3353304
vn -0.72553 -0.3836384 -0.5713384
vn -0.7255387 -0.3836747 -0.571303
vn -0.6921051 -0.142147 -0.7076616
vn -0.6921225 -0.1424183 -0.70759
vn -0.6867409 0.1418058 -0.7129364
vn -0.6867968 0.1445264 -0.7123359
vn -0.6838587 0.4507631 -0.5737157
vn -0.6826686 0.4656826 -0.5631188
vn -0.6564422 0.6910176 -0.3026175
vn -0.6564266 0.6911373 -0.3023778
vn -0.722102 0.6909835 -0.03330444
vn -0.7219771 0.6911041 -0.0335117
vn -0.8711786 0.4506861 0.1947544
vn -0.8652466 0.4656079 0.1858947
vn -0.6567347 0.1457963 -0.7398939
vn -0.6567752 0.1466492 -0.7396894
vn -0.6564265 -0.1487426 -0.7395809
vn -0.6564685 -0.1494997 -0.739391
vn -0.6897057 0.4122749 -0.5952607
vn -0.6897666 0.4125469 -0.5950015
vn -0.7509282 0.5665858 -0.3392446
vn -0.7509281 0.5665857 -0.3392448
vn -0.8228267 0.5665662 -0.04425254
vn -0.8228267 0.5665662 -0.04425254
vn -0.8862659 0.4122204 0.2112026
vn -0.8862008 0.4124921 0.210945
vn -0.9235348 0.1457238 0.3547506
vn -0.9234766 0.1465768 0.3545505
vn -0.9230579 -0.149571 0.3543903
vn -0.923108 -0.1488132 0.3545783
vn -0.8890736 -0.4035777 0.2160385
vn -0.890398 -0.3976811 0.2214515
vn -0.8304573 -0.5555775 -0.04090986
vn -0.8319924 -0.553717 -0.0344283
vn -0.7561278 -0.5555572 -0.3458705
vn -0.7545079 -0.5536952 -0.3523333
vn -0.6899467 -0.4035227 -0.6009515
vn -0.6886325 -0.3976276 -0.6063639

vt 0.894043 0.8886719
vt 0.8735352 0.8886719
vt 0.8735352 0.8657227
vt 0.894043 0.8657227
vt 0.8535156 0.8657227
vt 0.8535156 0.8886719
vt 0.8334961 0.8657227
vt 0.8334961 0.8886719
vt 0.8134766 0.8657227
vt 0.8134766 0.8886719
vt 0.793457 0.8657227
vt 0.793457 0.8886719
vt 0.7734375 0.8657227
vt 0.7734375 0.8886719
vt 0.753418 0.8657227
vt 0.753418 0.8886719
vt 0.9140625 0.8886719
vt 0.9140625 0.8657227
vt 0.934082 0.8886719
vt 0.934082 0.8657227
vt 0.9541016 0.8886719
vt 0.9541016 0.8657227
vt 0.9741211 0.8886719
vt 0.9741211 0.8657227
vt 0.9941406 0.8886719
vt 0.9941406 0.8657227
vt 0.5517578 0.7646484
vt 0.5625 0.7832031
vt 0.5625 0.8046875
vt 0.5332031 0.7539063
vt 0.5117188 0.7539063
vt 0.5522461 0.8232422
vt 0.4934082 0.7646484
vt 0.5336914 0.8339844
vt 0.482666 0.7836914
vt 0.512207 0.8339844
vt 0.482666 0.8051758
vt 0.4934082 0.8232422
vt 0.5249023 0.7875977
vt 0.527832 0.7895508
vt 0.5214844 0.7875977
vt 0.5185547 0.7890625
vt 0.5292969 0.7924805
vt 0.5166016 0.7919922
vt 0.5292969 0.7963867
vt 0.5166016 0.7954102
vt 0.5273438 0.7988281
vt 0.5180664 0.7988281
vt 0.5244141 0.8007813
vt 0.5209961 0.800293
vt 0.534668 0.753418
vt 0.5532227 0.7651367
vt 0.5410156 0.7763672
vt 0.5297852 0.7695313
vt 0.5473633 0.7880859
vt 0.5639648 0.7836914
vt 0.5473633 0.8012695
vt 0.5634766 0.8056641
vt 0.5405273 0.8125
vt 0.5527344 0.824707
vt 0.5292969 0.8188477
vt 0.5332031 0.8359375
vt 0.5161133 0.8183594
vt 0.5112305 0.8349609
vt 0.5048828 0.8115234
vt 0.4924316 0.8232422
vt 0.4985352 0.800293
vt 0.4821777 0.8041992
vt 0.4987793 0.7871094
vt 0.4824219 0.7827148
vt 0.5053711 0.7758789
vt 0.4934082 0.7636719
vt 0.5166016 0.7695313
vt 0.5126953 0.7524414
vt 0.5297852 0.7695313
vt 0.5410156 0.7763672
vt 0.534668 0.7822266
vt 0.5273438 0.777832
vt 0.5390625 0.7900391
vt 0.5473633 0.7880859
vt 0.5390625 0.7988281
vt 0.5473633 0.8012695
vt 0.534668 0.8061523
vt 0.5405273 0.8125
vt 0.5268555 0.8105469
vt 0.5292969 0.8188477
vt 0.5185547 0.8100586
vt 0.5161133 0.8183594
vt 0.5107422 0.8056641
vt 0.5048828 0.8115234
vt 0.5068359 0.7983398
vt 0.4985352 0.800293
vt 0.5068359 0.7895508
vt 0.4987793 0.7871094
vt 0.5112305 0.7822266
vt 0.5053711 0.7758789
vt 0.519043 0.777832
vt 0.5166016 0.7695313
vt 0.534668 0.7822266
vt 0.527832 0.7895508
vt 0.5249023 0.7875977
vt 0.5273438 0.777832
vt 0.5390625 0.7900391
vt 0.5292969 0.7924805
vt 0.5390625 0.7988281
vt 0.5292969 0.7963867
vt 0.534668 0.8061523
vt 0.5273438 0.7988281
vt 0.5268555 0.8105469
vt 0.5244141 0.8007813
vt 0.5185547 0.8100586
vt 0.5209961 0.800293
vt 0.5107422 0.8056641
vt 0.5180664 0.7988281
vt 0.5068359 0.7983398
vt 0.5166016 0.7954102
vt 0.5068359 0.7895508
vt 0.5166016 0.7919922
vt 0.5112305 0.7822266
vt 0.5185547 0.7890625
vt 0.519043 0.777832
vt 0.5214844 0.7875977

g wheel_frontR_9986_406
usemtl wheel_frontR_9986_406
usemap wheel_frontR_9986_406
f 1/1/1 3/3/3 2/2/2
f 1/1/1 4/4/4 3/3/3
f 2/2/2 3/3/3 5/5/5
f 2/2/2 5/5/5 6/6/6
f 6/6/6 5/5/5 7/7/7
f 6/6/6 7/7/7 8/8/8
f 8/8/8 7/7/7 9/9/9
f 8/8/8 9/9/9 10/10/10
f 10/10/10 9/9/9 11/11/11
f 10/10/10 11/11/11 12/12/12
f 12/12/12 11/11/11 13/13/13
f 12/12/12 13/13/13 14/14/14
f 14/14/14 13/13/13 15/15/15
f 14/14/14 15/15/15 16/16/16
f 17/17/17 4/4/4 1/1/1
f 17/17/17 18/18/18 4/4/4
f 19/19/19 18/18/18 17/17/17
f 19/19/19 20/20/20 18/18/18
f 21/21/21 20/20/20 19/19/19
f 21/21/21 22/22/22 20/20/20
f 23/23/23 22/22/22 21/21/21
f 23/23/23 24/24/24 22/22/22
f 25/25/25 24/24/24 23/23/23
f 25/25/25 26/26/26 24/24/24
f 27/27/27 29/29/29 28/28/28
f 27/27/27 30/30/30 29/29/29
f 29/29/29 30/30/30 31/31/31
f 29/29/29 31/31/31 32/32/32
f 32/32/32 31/31/31 33/33/33
f 32/32/32 33/33/33 34/34/34
f 34/34/34 33/33/33 35/35/35
f 34/34/34 35/35/35 36/36/36
f 36/36/36 35/35/35 37/37/37
f 36/36/36 37/37/37 38/38/38
f 39/39/39 41/41/41 40/40/40
f 40/40/40 41/41/41 42/42/42
f 40/40/40 42/42/42 43/43/43
f 43/43/43 42/42/42 44/44/44
f 43/43/43 44/44/44 45/45/45
f 45/45/45 44/44/44 46/46/46
f 45/45/45 46/46/46 47/47/47
f 47/47/47 46/46/46 48/48/48
f 47/47/47 48/48/48 49/49/49
f 49/49/49 48/48/48 50/50/50
f 51/51/51 53/53/53 52/52/52
f 51/51/51 54/54/54 53/53/53
f 52/52/52 53/53/53 55/55/55
f 52/52/52 55/55/55 56/56/56
f 56/56/56 55/55/55 57/57/57
f 56/56/56 57/57/57 58/58/58
f 58/58/58 57/57/57 59/59/59
f 58/58/58 59/59/59 60/60/60
f 60/60/60 59/59/59 61/61/61
f 60/60/60 61/61/61 62/62/62
f 62/62/62 61/61/61 63/63/63
f 62/62/62 63/63/63 64/64/64
f 64/64/64 63/63/63 65/65/65
f 64/64/64 65/65/65 66/66/66
f 66/66/66 65/65/65 67/67/67
f 66/66/66 67/67/67 68/68/68
f 68/68/68 67/67/67 69/69/69
f 68/68/68 69/69/69 70/70/70
f 70/70/70 69/69/69 71/71/71
f 70/70/70 71/71/71 72/72/72
f 72/72/72 71/71/71 73/73/73
f 72/72/72 73/73/73 74/74/74
f 74/74/74 73/73/73 54/54/54
f 74/74/74 54/54/54 51/51/51
f 75/75/75 77/77/77 76/76/76
f 75/75/75 78/78/78 77/77/77
f 76/76/76 77/77/77 79/79/79
f 76/76/76 79/79/79 80/80/80
f 80/80/80 79/79/79 81/81/81
f 80/80/80 81/81/81 82/82/82
f 82/82/82 81/81/81 83/83/83
f 82/82/82 83/83/83 84/84/84
f 84/84/84 83/83/83 85/85/85
f 84/84/84 85/85/85 86/86/86
f 86/86/86 85/85/85 87/87/87
f 86/86/86 87/87/87 88/88/88
f 88/88/88 87/87/87 89/89/89
f 88/88/88 89/89/89 90/90/90
f 90/90/90 89/89/89 91/91/91
f 90/90/90 91/91/91 92/92/92
f 92/92/92 91/91/91 93/93/93
f 92/92/92 93/93/93 94/94/94
f 94/94/94 93/93/93 95/95/95
f 94/94/94 95/95/95 96/96/96
f 96/96/96 95/95/95 97/97/97
f 96/96/96 97/97/97 98/98/98
f 98/98/98 97/97/97 78/78/78
f 98/98/98 78/78/78 75/75/75
f 99/99/99 101/101/101 100/100/100
f 99/99/99 102/102/102 101/101/101
f 103/103/103 99/99/99 100/100/100
f 103/103/103 100/100/100 104/104/104
f 105/105/105 103/103/103 104/104/104
f 105/105/105 104/104/104 106/106/106
f 107/107/107 105/105/105 106/106/106
f 107/107/107 106/106/106 108/108/108
f 109/109/109 107/107/107 108/108/108
f 109/109/109 108/108/108 110/110/110
f 111/111/111 109/109/109 110/110/110
f 111/111/111 110/110/110 112/112/112
f 113/113/113 111/111/111 112/112/112
f 113/113/113 112/112/112 114/114/114
f 115/115/115 113/113/113 114/114/114
f 115/115/115 114/114/114 116/116/116
f 117/117/117 115/115/115 116/116/116
f 117/117/117 116/116/116 118/118/118
f 119/119/119 117/117/117 118/118/118
f 119/119/119 118/118/118 120/120/120
f 121/121/121 119/119/119 120/120/120
f 121/121/121 120/120/120 122/122/122
f 102/102/102 121/121/121 122/122/122
f 102/102/102 122/122/122 101/101/101
