#wheel_frontL_10133_1371.obj

v -0.1406165 -0.3557718 0.09538358
v 0.08037908 -0.2604315 0.2604928
v 0.08037914 -0.3557718 0.09538131
v -0.1406166 -0.2604308 0.2604951
v 0.08038104 -0.09530788 0.3558137
v -0.1406189 -0.09530766 0.3558132
v 0.08038151 0.09535303 0.355799
v -0.1406176 0.09535348 0.355802
v 0.08037926 0.2604642 0.2604599
v -0.1406172 0.2604644 0.2604587
v 0.08038053 0.3557839 0.0953372
v -0.1406159 0.3557839 0.09533598
v 0.08037981 0.3557714 -0.0953235
v -0.1406166 0.3557714 -0.09532472
v 0.08037987 0.26043 -0.260435
v -0.1406165 0.2604303 -0.2604362
v -0.1406172 -0.3557842 -0.09527713
v 0.0803819 -0.3557842 -0.09528015
v -0.1406167 -0.2604645 -0.2604033
v 0.08037969 -0.2604645 -0.2604021
v -0.1406155 -0.09535404 -0.3557432
v 0.08038093 -0.09535426 -0.3557419
v -0.1406185 0.09530687 -0.3557571
v 0.08037791 0.09530665 -0.3557559
v -0.1406165 0.2604303 -0.2604362
v 0.08037987 0.26043 -0.260435
v -0.1406167 -0.2604645 -0.2604033
v -0.1406165 -0.3557718 0.09538358
v -0.1406172 -0.3557842 -0.09527713
v -0.1406155 -0.09535404 -0.3557432
v -0.1406185 0.09530687 -0.3557571
v -0.1406166 -0.2604308 0.2604951
v -0.1406165 0.2604303 -0.2604362
v -0.1406189 -0.09530766 0.3558132
v -0.1406166 0.3557714 -0.09532472
v -0.1406176 0.09535348 0.355802
v -0.1406159 0.3557839 0.09533598
v -0.1406172 0.2604644 0.2604587
v 0.1406792 -0.09718984 0.02607678
v 0.1406776 -0.07114451 0.07118247
v 0.1406794 -0.09719319 -0.02600692
v 0.1406785 -0.02603637 0.09722046
v 0.1406803 -0.07115409 -0.0711161
v 0.1406777 0.02604807 0.09721697
v 0.1406779 -0.02604908 -0.09716106
v 0.1406788 0.07115308 0.07117126
v 0.1406772 0.02603536 -0.09716455
v 0.1406804 0.09719218 0.02606556
v 0.1406788 0.07114372 -0.07112309
v 0.1406799 0.09718884 -0.02602162
v 0.08037914 -0.3557718 0.09538131
v 0.08038034 -0.1561944 0.156245
v 0.08038156 -0.2133757 0.05721724
v 0.08037908 -0.2604315 0.2604928
v 0.08037926 -0.05716113 0.2134103
v 0.08038104 -0.09530788 0.3558137
v 0.08038124 0.05718822 0.2134026
v 0.08038151 0.09535303 0.355799
v 0.0803793 0.1562139 0.1562233
v 0.08037926 0.2604642 0.2604599
v 0.08037901 0.2133823 0.05718859
v 0.08038053 0.3557839 0.0953372
v 0.08038087 0.2133747 -0.05716018
v 0.08037981 0.3557714 -0.0953235
v 0.08037936 0.1561934 -0.1561837
v 0.08037987 0.26043 -0.260435
v 0.08037968 0.05716013 -0.2133525
v 0.08037791 0.09530665 -0.3557559
v 0.08038119 -0.05718923 -0.2133455
v 0.08038093 -0.09535426 -0.3557419
v 0.08037965 -0.156215 -0.1561655
v 0.08037969 -0.2604645 -0.2604021
v 0.08037994 -0.2133828 -0.05713078
v 0.0803819 -0.3557842 -0.09528015
v 0.08038034 -0.1561944 0.156245
v 0.03934336 -0.1519227 0.04074736
v 0.08038156 -0.2133757 0.05721724
v 0.03934294 -0.11121 0.1112526
v 0.08037926 -0.05716113 0.2134103
v 0.0393432 -0.04069867 0.151955
v 0.03934059 -0.1519279 -0.04066784
v 0.08037994 -0.2133828 -0.05713078
v 0.03934298 -0.1112247 -0.1111808
v 0.08037965 -0.156215 -0.1561655
v 0.03934046 -0.04071851 -0.1518936
v 0.08038124 0.05718822 0.2134026
v 0.0393432 -0.04069867 0.151955
v 0.03934244 0.0407175 0.1519515
v 0.0803793 0.1562139 0.1562233
v 0.03934244 0.0407175 0.1519515
v 0.03934341 0.1112235 0.1112379
v 0.08037901 0.2133823 0.05718859
v 0.03934232 0.1519271 0.04072569
v 0.08038087 0.2133747 -0.05716018
v 0.03934303 0.1519217 -0.04069027
v 0.08037936 0.1561934 -0.1561837
v 0.03934345 0.111209 -0.1111955
v 0.08037968 0.05716013 -0.2133525
v 0.03934319 0.04069766 -0.1518979
v 0.08038119 -0.05718923 -0.2133455
v 0.03934319 0.04069766 -0.1518979
v 0.03934046 -0.04071851 -0.1518936
v 0.1406776 -0.07114451 0.07118247
v 0.03934336 -0.1519227 0.04074736
v 0.03934294 -0.11121 0.1112526
v 0.1406792 -0.09718984 0.02607678
v 0.1406785 -0.02603637 0.09722046
v 0.0393432 -0.04069867 0.151955
v 0.03934059 -0.1519279 -0.04066784
v 0.1406794 -0.09719319 -0.02600692
v 0.03934298 -0.1112247 -0.1111808
v 0.1406803 -0.07115409 -0.0711161
v 0.03934046 -0.04071851 -0.1518936
v 0.1406779 -0.02604908 -0.09716106
v 0.0393432 -0.04069867 0.151955
v 0.1406777 0.02604807 0.09721697
v 0.03934244 0.0407175 0.1519515
v 0.03934244 0.0407175 0.1519515
v 0.1406788 0.07115308 0.07117126
v 0.03934341 0.1112235 0.1112379
v 0.1406804 0.09719218 0.02606556
v 0.03934232 0.1519271 0.04072569
v 0.1406799 0.09718884 -0.02602162
v 0.03934303 0.1519217 -0.04069027
v 0.1406788 0.07114372 -0.07112309
v 0.03934345 0.111209 -0.1111955
v 0.1406772 0.02603536 -0.09716455
v 0.03934319 0.04069766 -0.1518979
v 0.03934319 0.04069766 -0.1518979
v 0.03934046 -0.04071851 -0.1518936

vn -0.05480884 -0.9659082 0.2530124
vn -0.1497134 -0.707061 0.6911218
vn -0.05480807 -0.9659084 0.2530119
vn -0.1497141 -0.7070599 0.6911229
vn -0.2045016 -0.2587562 0.9440466
vn -0.2045014 -0.258756 0.9440466
vn -0.2044935 0.2588807 0.9440143
vn -0.2044936 0.2588814 0.944014
vn -0.1496922 0.707152 0.6910332
vn -0.1496924 0.7071523 0.6910329
vn -0.05478088 0.9659418 0.2528904
vn -0.05478088 0.9659417 0.2528906
vn 0.05480916 0.9659078 -0.253014
vn 0.05480913 0.9659079 -0.2530138
vn 0.149713 0.7070602 -0.6911227
vn 0.1497131 0.70706 -0.6911229
vn 0.05478207 -0.9659414 -0.2528911
vn 0.05478188 -0.9659415 -0.252891
vn 0.149693 -0.7071525 -0.6910325
vn 0.1496929 -0.7071525 -0.6910326
vn 0.2044945 -0.2588817 -0.9440137
vn 0.2044943 -0.2588831 -0.9440134
vn 0.2045017 0.2587564 -0.9440464
vn 0.2045015 0.2587559 -0.9440467
vn 0.1497131 0.70706 -0.6911229
vn 0.149713 0.7070602 -0.6911227
vn -0.977332 -9.744726E-07 -0.2117127
vn -0.9773319 -7.728158E-07 -0.2117127
vn -0.977332 -1.464793E-07 -0.2117124
vn -0.9773321 -5.334211E-07 -0.2117124
vn -0.9773321 -2.513485E-07 -0.2117124
vn -0.977332 -5.398508E-07 -0.2117127
vn -0.977332 -2.197146E-07 -0.2117125
vn -0.977332 -2.563339E-07 -0.2117125
vn -0.977332 -1.870222E-07 -0.2117125
vn -0.9773321 8.881775E-15 -0.2117123
vn -0.9773321 3.192245E-07 -0.2117121
vn -0.9773321 8.881775E-15 -0.2117123
vn 0.9773321 3.662003E-07 0.2117123
vn 0.9773321 2.014145E-07 0.2117123
vn 0.977332 -1.549907E-14 0.2117124
vn 0.977332 -1.531123E-14 0.2117124
vn 0.977332 -1.777005E-14 0.2117124
vn 0.977332 -1.759763E-14 0.2117124
vn 0.977332 -1.759762E-14 0.2117124
vn 0.977332 -1.777005E-14 0.2117124
vn 0.977332 -1.531123E-14 0.2117124
vn 0.977332 -1.549906E-14 0.2117124
vn 0.9773321 2.01414E-07 0.2117123
vn 0.9773321 3.662017E-07 0.2117123
vn 0.9773322 5.235177E-07 0.2117116
vn 0.9773321 1.146848E-15 0.211712
vn 0.9773323 5.208504E-07 0.2117113
vn 0.9773319 -3.044115E-14 0.2117127
vn 0.9773318 7.439988E-07 0.2117135
vn 0.9773318 4.164669E-07 0.2117133
vn 0.9773319 2.820317E-07 0.2117127
vn 0.977332 -1.747497E-14 0.2117124
vn 0.977332 -1.587928E-14 0.2117124
vn 0.9773321 3.45314E-07 0.2117123
vn 0.9773321 9.044699E-07 0.2117123
vn 0.977332 8.776009E-07 0.2117125
vn 0.977332 2.656989E-07 0.2117126
vn 0.9773319 -3.359278E-14 0.2117128
vn 0.977332 -1.560681E-14 0.2117124
vn 0.9773329 -9.71756E-07 0.2117084
vn 0.9773343 -9.777069E-07 0.2117018
vn 0.9773343 1.216027E-06 0.2117019
vn 0.9773328 2.960057E-06 0.211709
vn 0.9773323 5.003697E-06 0.2117111
vn 0.977332 -1.587928E-14 0.2117124
vn 0.977332 -1.588457E-14 0.2117124
vn 0.977332 -1.539621E-14 0.2117124
vn 0.9773321 2.624235E-07 0.2117123
vn 0.902447 0.3832646 -0.196716
vn 0.8510035 0.5235748 0.0407638
vn 0.8510035 0.5235749 0.04076342
vn 0.9024465 0.3832657 -0.1967159
vn 0.9321448 0.1402609 -0.3338155
vn 0.9321449 0.1402608 -0.3338151
vn 0.7915983 0.5235947 0.3149921
vn 0.7915983 0.5235949 0.3149921
vn 0.7401521 0.3833158 0.5524884
vn 0.7401524 0.3833155 0.5524884
vn 0.7104468 0.1403278 0.6896183
vn 0.9321418 -0.140328 -0.3337956
vn 0.9321449 0.1402608 -0.3338151
vn 0.932142 -0.1403289 -0.3337948
vn 0.9024366 -0.3833148 -0.1966661
vn 0.932142 -0.1403289 -0.3337948
vn 0.9024362 -0.3833149 -0.1966673
vn 0.8509883 -0.5235946 0.04083027
vn 0.8509882 -0.5235948 0.04082866
vn 0.7915841 -0.5235765 0.3150584
vn 0.7915841 -0.5235765 0.3150584
vn 0.7401404 -0.3832663 0.5525385
vn 0.7401408 -0.3832659 0.5525384
vn 0.7104428 -0.1402594 0.6896363
vn 0.7104431 -0.1402591 0.6896362
vn 0.7104469 0.140328 0.6896182
vn 0.7104431 -0.1402591 0.6896362
vn 0.7104468 0.1403278 0.6896183
vn 0.3463175 -0.617131 0.7065497
vn 0.4291526 -0.8430582 0.3241594
vn 0.3463187 -0.6171322 0.7065482
vn 0.429151 -0.8430581 0.3241616
vn 0.2984986 -0.2258461 0.9273036
vn 0.2984986 -0.2258453 0.9273038
vn 0.5248027 -0.8430884 -0.1173994
vn 0.524802 -0.8430889 -0.1173982
vn 0.6076434 -0.6172136 -0.4998157
vn 0.6076438 -0.617213 -0.4998159
vn 0.6554753 -0.2259554 -0.7206219
vn 0.6554757 -0.225954 -0.7206219
vn 0.2984986 -0.2258453 0.9273038
vn 0.2985038 0.2259544 0.9272755
vn 0.2985028 0.2259565 0.9272753
vn 0.2985028 0.2259565 0.9272753
vn 0.3463351 0.6172124 0.7064701
vn 0.3463352 0.6172123 0.7064702
vn 0.4291752 0.843088 0.3240519
vn 0.4291753 0.8430874 0.3240531
vn 0.5248269 0.8430583 -0.1175069
vn 0.5248268 0.8430582 -0.1175071
vn 0.6076607 0.6171321 -0.4998952
vn 0.6076607 0.6171322 -0.4998952
vn 0.6554816 0.2258471 -0.7206501
vn 0.6554815 0.2258464 -0.7206504
vn 0.6554815 0.2258464 -0.7206504
vn 0.6554753 -0.2259554 -0.7206219

vt 0.9628906 0.5917969
vt 0.9848633 0.5727539
vt 0.9848633 0.5917969
vt 0.9628906 0.5727539
vt 0.9848633 0.5532227
vt 0.9628906 0.5532227
vt 0.9848633 0.5341797
vt 0.9628906 0.5341797
vt 0.9848633 0.5151367
vt 0.9628906 0.5151367
vt 0.9848633 0.4958496
vt 0.9628906 0.4958496
vt 0.9848633 0.4768066
vt 0.9628906 0.4768066
vt 0.9848633 0.4575195
vt 0.9628906 0.4575195
vt 0.9628906 0.6108398
vt 0.9848633 0.6108398
vt 0.9628906 0.6303711
vt 0.9848633 0.6303711
vt 0.9628906 0.6494141
vt 0.9848633 0.6494141
vt 0.9628906 0.668457
vt 0.9848633 0.668457
vt 0.9628906 0.6875
vt 0.9848633 0.6875
vt 0.940918 0.6079102
vt 0.9130859 0.5800781
vt 0.9306641 0.590332
vt 0.940918 0.628418
vt 0.9306641 0.6459961
vt 0.8925781 0.5800781
vt 0.9130859 0.65625
vt 0.8745117 0.590332
vt 0.8925781 0.65625
vt 0.8647461 0.6079102
vt 0.875 0.6459961
vt 0.8647461 0.628418
vt 0.9047852 0.6123047
vt 0.9072266 0.6142578
vt 0.9013672 0.6123047
vt 0.9091797 0.6171875
vt 0.8984375 0.6137695
vt 0.9086914 0.6201172
vt 0.8969727 0.6162109
vt 0.9072266 0.6230469
vt 0.8964844 0.6196289
vt 0.9042969 0.6245117
vt 0.8979492 0.6225586
vt 0.9008789 0.6245117
vt 0.9140625 0.5791016
vt 0.9199219 0.6015625
vt 0.909668 0.5952148
vt 0.9321289 0.590332
vt 0.9262695 0.6123047
vt 0.9418945 0.6083984
vt 0.9262695 0.625
vt 0.9414063 0.6293945
vt 0.9194336 0.6357422
vt 0.9311523 0.6474609
vt 0.9086914 0.6420898
vt 0.9125977 0.6582031
vt 0.8959961 0.6416016
vt 0.8916016 0.6572266
vt 0.8852539 0.6352539
vt 0.8735352 0.6464844
vt 0.8793945 0.6240234
vt 0.8637695 0.6279297
vt 0.8793945 0.6118164
vt 0.8637695 0.6074219
vt 0.8857422 0.6010742
vt 0.8745117 0.5893555
vt 0.8969727 0.5947266
vt 0.8930664 0.5786133
vt 0.9199219 0.6015625
vt 0.9072266 0.6030273
vt 0.909668 0.5952148
vt 0.9140625 0.6074219
vt 0.9262695 0.6123047
vt 0.918457 0.6142578
vt 0.8989258 0.6025391
vt 0.8969727 0.5947266
vt 0.8916016 0.6069336
vt 0.8857422 0.6010742
vt 0.887207 0.6137695
vt 0.9262695 0.625
vt 0.918457 0.6142578
vt 0.9179688 0.6225586
vt 0.9194336 0.6357422
vt 0.9179688 0.6225586
vt 0.9140625 0.6298828
vt 0.9086914 0.6420898
vt 0.9067383 0.6337891
vt 0.8959961 0.6416016
vt 0.8984375 0.6337891
vt 0.8852539 0.6352539
vt 0.8911133 0.6293945
vt 0.8793945 0.6240234
vt 0.887207 0.6220703
vt 0.8793945 0.6118164
vt 0.887207 0.6220703
vt 0.887207 0.6137695
vt 0.9072266 0.6142578
vt 0.9072266 0.6030273
vt 0.9140625 0.6074219
vt 0.9047852 0.6123047
vt 0.9091797 0.6171875
vt 0.918457 0.6142578
vt 0.8989258 0.6025391
vt 0.9013672 0.6123047
vt 0.8916016 0.6069336
vt 0.8984375 0.6137695
vt 0.887207 0.6137695
vt 0.8969727 0.6162109
vt 0.918457 0.6142578
vt 0.9086914 0.6201172
vt 0.9179688 0.6225586
vt 0.9179688 0.6225586
vt 0.9072266 0.6230469
vt 0.9140625 0.6298828
vt 0.9042969 0.6245117
vt 0.9067383 0.6337891
vt 0.9008789 0.6245117
vt 0.8984375 0.6337891
vt 0.8979492 0.6225586
vt 0.8911133 0.6293945
vt 0.8964844 0.6196289
vt 0.887207 0.6220703
vt 0.887207 0.6220703
vt 0.887207 0.6137695

g wheel_frontL_10133_1371
usemtl wheel_frontL_10133_1371
usemap wheel_frontL_10133_1371
f 1/1/1 3/3/3 2/2/2
f 2/2/2 4/4/4 1/1/1
f 4/4/4 2/2/2 5/5/5
f 5/5/5 6/6/6 4/4/4
f 6/6/6 5/5/5 7/7/7
f 7/7/7 8/8/8 6/6/6
f 8/8/8 7/7/7 9/9/9
f 9/9/9 10/10/10 8/8/8
f 10/10/10 9/9/9 11/11/11
f 11/11/11 12/12/12 10/10/10
f 12/12/12 11/11/11 13/13/13
f 13/13/13 14/14/14 12/12/12
f 14/14/14 13/13/13 15/15/15
f 15/15/15 16/16/16 14/14/14
f 3/3/3 1/1/1 17/17/17
f 17/17/17 18/18/18 3/3/3
f 18/18/18 17/17/17 19/19/19
f 19/19/19 20/20/20 18/18/18
f 20/20/20 19/19/19 21/21/21
f 21/21/21 22/22/22 20/20/20
f 22/22/22 21/21/21 23/23/23
f 23/23/23 24/24/24 22/22/22
f 24/24/24 23/23/23 25/25/25
f 25/25/25 26/26/26 24/24/24
f 27/27/27 29/29/29 28/28/28
f 28/28/28 30/30/30 27/27/27
f 31/31/31 30/30/30 28/28/28
f 28/28/28 32/32/32 31/31/31
f 33/33/33 31/31/31 32/32/32
f 32/32/32 34/34/34 33/33/33
f 35/35/35 33/33/33 34/34/34
f 34/34/34 36/36/36 35/35/35
f 37/37/37 35/35/35 36/36/36
f 36/36/36 38/38/38 37/37/37
f 39/39/39 41/41/41 40/40/40
f 42/42/42 40/40/40 41/41/41
f 41/41/41 43/43/43 42/42/42
f 44/44/44 42/42/42 43/43/43
f 43/43/43 45/45/45 44/44/44
f 46/46/46 44/44/44 45/45/45
f 45/45/45 47/47/47 46/46/46
f 48/48/48 46/46/46 47/47/47
f 47/47/47 49/49/49 48/48/48
f 48/48/48 49/49/49 50/50/50
f 51/51/51 53/53/53 52/52/52
f 52/52/52 54/54/54 51/51/51
f 54/54/54 52/52/52 55/55/55
f 55/55/55 56/56/56 54/54/54
f 56/56/56 55/55/55 57/57/57
f 57/57/57 58/58/58 56/56/56
f 58/58/58 57/57/57 59/59/59
f 59/59/59 60/60/60 58/58/58
f 60/60/60 59/59/59 61/61/61
f 61/61/61 62/62/62 60/60/60
f 62/62/62 61/61/61 63/63/63
f 63/63/63 64/64/64 62/62/62
f 64/64/64 63/63/63 65/65/65
f 65/65/65 66/66/66 64/64/64
f 66/66/66 65/65/65 67/67/67
f 67/67/67 68/68/68 66/66/66
f 68/68/68 67/67/67 69/69/69
f 69/69/69 70/70/70 68/68/68
f 70/70/70 69/69/69 71/71/71
f 71/71/71 72/72/72 70/70/70
f 72/72/72 71/71/71 73/73/73
f 73/73/73 74/74/74 72/72/72
f 74/74/74 73/73/73 53/53/53
f 53/53/53 51/51/51 74/74/74
f 75/75/75 77/77/77 76/76/76
f 76/76/76 78/78/78 75/75/75
f 79/79/79 75/75/75 78/78/78
f 78/78/78 80/80/80 79/79/79
f 81/81/81 76/76/76 77/77/77
f 77/77/77 82/82/82 81/81/81
f 83/83/83 81/81/81 82/82/82
f 82/82/82 84/84/84 83/83/83
f 85/85/85 83/83/83 84/84/84
f 86/86/86 79/79/79 87/87/87
f 87/87/87 88/88/88 86/86/86
f 89/89/89 86/86/86 88/88/88
f 90/90/90 91/91/91 89/89/89
f 92/92/92 89/89/89 91/91/91
f 91/91/91 93/93/93 92/92/92
f 94/94/94 92/92/92 93/93/93
f 93/93/93 95/95/95 94/94/94
f 96/96/96 94/94/94 95/95/95
f 95/95/95 97/97/97 96/96/96
f 98/98/98 96/96/96 97/97/97
f 97/97/97 99/99/99 98/98/98
f 100/100/100 98/98/98 101/101/101
f 101/101/101 102/102/102 100/100/100
f 84/84/84 100/100/100 102/102/102
f 103/103/103 105/105/105 104/104/104
f 104/104/104 106/106/106 103/103/103
f 105/105/105 103/103/103 107/107/107
f 107/107/107 108/108/108 105/105/105
f 106/106/106 104/104/104 109/109/109
f 109/109/109 110/110/110 106/106/106
f 110/110/110 109/109/109 111/111/111
f 111/111/111 112/112/112 110/110/110
f 112/112/112 111/111/111 113/113/113
f 113/113/113 114/114/114 112/112/112
f 115/115/115 107/107/107 116/116/116
f 116/116/116 117/117/117 115/115/115
f 118/118/118 116/116/116 119/119/119
f 119/119/119 120/120/120 118/118/118
f 120/120/120 119/119/119 121/121/121
f 121/121/121 122/122/122 120/120/120
f 122/122/122 121/121/121 123/123/123
f 123/123/123 124/124/124 122/122/122
f 124/124/124 123/123/123 125/125/125
f 125/125/125 126/126/126 124/124/124
f 126/126/126 125/125/125 127/127/127
f 127/127/127 128/128/128 126/126/126
f 129/129/129 127/127/127 114/114/114
f 114/114/114 130/130/130 129/129/129
