#wheel_frontL_10873_606.obj

v -0.1358486 0.09212726 -0.3437523
v 0.07766937 0.2516516 -0.2516378
v -0.1358493 0.2516516 -0.2516374
v 0.07767002 0.09212726 -0.3437527
v 0.07767165 0.3437462 -0.09210113
v -0.1358504 0.3437462 -0.09210191
v 0.07766948 0.3437342 0.09210949
v -0.1358492 0.3437342 0.09210989
v 0.07767191 0.2516187 0.2516349
v -0.1358501 0.2516191 0.2516341
v 0.07767155 0.0920825 0.3437272
v -0.1358516 0.0920825 0.3437298
v 0.0776717 -0.09212752 0.343716
v -0.1358503 -0.09212729 0.3437152
v 0.07767235 -0.2516519 0.2516011
v -0.1358497 -0.2516516 0.2516003
v -0.1358485 -0.09208298 -0.3437636
v 0.07767017 -0.09208298 -0.3437639
v -0.13585 -0.2516193 -0.2516678
v 0.07766864 -0.2516193 -0.2516682
v -0.1358498 -0.3437345 -0.09214697
v 0.07767225 -0.3437345 -0.0921462
v -0.1358486 -0.3437465 0.09206482
v 0.07767007 -0.3437465 0.09206443
v -0.1358497 -0.2516516 0.2516003
v 0.07767235 -0.2516519 0.2516011
v -0.13585 -0.2516193 -0.2516678
v -0.1358486 0.09212726 -0.3437523
v -0.1358498 -0.3437345 -0.09214697
v -0.1358485 -0.09208298 -0.3437636
v -0.1358486 -0.3437465 0.09206482
v -0.1358493 0.2516516 -0.2516374
v -0.1358497 -0.2516516 0.2516003
v -0.1358504 0.3437462 -0.09210191
v -0.1358503 -0.09212729 0.3437152
v -0.1358492 0.3437342 0.09210989
v -0.1358516 0.0920825 0.3437298
v -0.1358501 0.2516191 0.2516341
v 0.1359292 0.02516707 -0.09391842
v 0.135927 -0.0251553 -0.09392295
v 0.1359285 0.06874575 -0.06875621
v 0.1359284 0.09390405 -0.02517303
v 0.1359275 -0.06873734 -0.06876411
v 0.1359281 0.09390071 0.02514803
v 0.1359285 -0.09390119 -0.0251843
v 0.1359292 0.06873685 0.06872784
v 0.1359283 -0.09390431 0.02513676
v 0.1359297 0.02515482 0.09388668
v 0.1359282 -0.06874602 0.06871993
v 0.1359275 -0.02516733 0.09388214
v 0.07767002 0.09212726 -0.3437527
v 0.07767139 0.1509286 -0.1509269
v 0.07766937 0.2516516 -0.2516378
v 0.07767173 0.05525349 -0.2061739
v 0.07767148 0.2061629 -0.05524457
v 0.07767165 0.3437462 -0.09210113
v 0.07767214 0.2061555 0.05523493
v 0.07766948 0.3437342 0.09210949
v 0.07767003 0.1509093 0.1509127
v 0.07767191 0.2516187 0.2516349
v 0.07767102 0.05522677 0.2061451
v 0.07767155 0.0920825 0.3437272
v 0.07766999 -0.05525374 0.2061372
v 0.0776717 -0.09212752 0.343716
v 0.07767033 -0.1509291 0.1508902
v 0.07767235 -0.2516519 0.2516011
v 0.07767024 -0.2061632 0.05520786
v 0.07767007 -0.3437465 0.09206443
v 0.07766958 -0.2061558 -0.05527164
v 0.07767225 -0.3437345 -0.0921462
v 0.07767052 -0.1509095 -0.150946
v 0.07766864 -0.2516193 -0.2516682
v 0.0776707 -0.05522703 -0.2061818
v 0.07767017 -0.09208298 -0.3437639
v 0.07767139 0.1509286 -0.1509269
v 0.03801998 0.03934027 -0.1467997
v 0.03802121 0.1074605 -0.1074627
v 0.07767173 0.05525349 -0.2061739
v 0.07767148 0.2061629 -0.05524457
v 0.03802175 0.1467869 -0.03933965
v 0.03802115 -0.03932161 -0.1468031
v 0.0776707 -0.05522703 -0.2061818
v 0.03801917 -0.1074469 -0.1074785
v 0.07767052 -0.1509095 -0.150946
v 0.03802088 -0.1467822 -0.03935882
v 0.03802175 0.1467869 -0.03933965
v 0.07767214 0.2061555 0.05523493
v 0.03802101 0.1467817 0.03932202
v 0.07767003 0.1509093 0.1509127
v 0.03802101 0.1467817 0.03932202
v 0.03801818 0.1074467 0.1074439
v 0.07767102 0.05522677 0.2061451
v 0.03801957 0.03932112 0.1467697
v 0.07766999 -0.05525374 0.2061372
v 0.03802191 -0.03934053 0.1467629
v 0.07767033 -0.1509291 0.1508902
v 0.0380195 -0.107461 0.1074293
v 0.07767024 -0.2061632 0.05520786
v 0.03802013 -0.1467871 0.03930286
v 0.03802013 -0.1467871 0.03930286
v 0.07766958 -0.2061558 -0.05527164
v 0.03802088 -0.1467822 -0.03935882
v 0.1359285 0.06874575 -0.06875621
v 0.03801998 0.03934027 -0.1467997
v 0.1359292 0.02516707 -0.09391842
v 0.03802121 0.1074605 -0.1074627
v 0.1359284 0.09390405 -0.02517303
v 0.03802175 0.1467869 -0.03933965
v 0.03802115 -0.03932161 -0.1468031
v 0.135927 -0.0251553 -0.09392295
v 0.03801917 -0.1074469 -0.1074785
v 0.1359275 -0.06873734 -0.06876411
v 0.03802088 -0.1467822 -0.03935882
v 0.1359285 -0.09390119 -0.0251843
v 0.1359281 0.09390071 0.02514803
v 0.03802175 0.1467869 -0.03933965
v 0.03802101 0.1467817 0.03932202
v 0.1359292 0.06873685 0.06872784
v 0.03802101 0.1467817 0.03932202
v 0.03801818 0.1074467 0.1074439
v 0.1359297 0.02515482 0.09388668
v 0.03801957 0.03932112 0.1467697
v 0.1359275 -0.02516733 0.09388214
v 0.03802191 -0.03934053 0.1467629
v 0.1359282 -0.06874602 0.06871993
v 0.0380195 -0.107461 0.1074293
v 0.1359283 -0.09390431 0.02513676
v 0.03802013 -0.1467871 0.03930286
v 0.03802013 -0.1467871 0.03930286
v 0.03802088 -0.1467822 -0.03935882

vn 0.9122723 0.2588806 -0.3173948
vn 0.6677985 0.7071509 -0.2323388
vn 0.6677972 0.7071521 -0.2323389
vn 0.9122728 0.2588799 -0.3173943
vn 0.2443876 0.9659415 -0.08502635
vn 0.2443876 0.9659415 -0.08502617
vn -0.2445054 0.965908 0.08506834
vn -0.2445059 0.9659079 0.08506852
vn -0.6678842 0.70706 0.2323689
vn -0.6678843 0.70706 0.2323689
vn -0.9123039 0.2587557 0.3174063
vn -0.9123039 0.2587556 0.3174062
vn -0.9122719 -0.2588823 0.3173947
vn -0.9122719 -0.2588821 0.3173947
vn -0.667798 -0.7071517 0.232338
vn -0.6677977 -0.7071519 0.232338
vn 0.912304 -0.2587563 -0.3174051
vn 0.912304 -0.2587563 -0.3174051
vn 0.6678849 -0.7070597 -0.232368
vn 0.667885 -0.7070595 -0.2323682
vn 0.2445065 -0.9659078 -0.08506805
vn 0.2445076 -0.9659075 -0.08506852
vn -0.244388 -0.9659414 0.08502648
vn -0.2443877 -0.9659415 0.08502638
vn -0.6677977 -0.7071519 0.232338
vn -0.667798 -0.7071517 0.232338
vn -0.3285961 3.588269E-14 -0.9444706
vn -0.3285961 -1.906796E-07 -0.9444706
vn -0.3285964 1.100456E-07 -0.9444705
vn -0.3285964 2.326277E-14 -0.9444705
vn -0.3285963 2.772401E-14 -0.9444705
vn -0.3285963 -1.092686E-07 -0.9444705
vn -0.3285963 -1.092685E-07 -0.9444705
vn -0.3285964 1.940788E-14 -0.9444705
vn -0.3285964 2.321505E-14 -0.9444705
vn -0.3285966 1.817742E-07 -0.9444704
vn -0.3285966 2.202132E-07 -0.9444704
vn -0.3285958 -5.934535E-07 -0.9444707
vn 0.3285951 -8.048164E-14 0.9444709
vn 0.3285972 -1.249718E-07 0.9444702
vn 0.3285993 1.181881E-06 0.9444695
vn 0.3285972 1.779926E-14 0.9444702
vn 0.3285968 -3.540947E-07 0.9444703
vn 0.3285956 -7.034668E-07 0.9444708
vn 0.3285965 -1.782144E-07 0.9444705
vn 0.3285953 -5.052763E-07 0.9444708
vn 0.3285964 1.246906E-07 0.9444705
vn 0.3285963 1.003883E-07 0.9444705
vn 0.3285957 -2.497806E-07 0.9444707
vn 0.3285966 -1.421084E-14 0.9444704
vn 0.3285961 -5.029329E-07 0.9444706
vn 0.3285964 -1.820388E-07 0.9444705
vn 0.3285966 1.606073E-07 0.9444704
vn 0.3285961 -7.365708E-07 0.9444706
vn 0.3285964 2.721044E-07 0.9444705
vn 0.3285965 2.265943E-07 0.9444705
vn 0.3285966 -1.421084E-14 0.9444704
vn 0.3285966 -1.421084E-14 0.9444704
vn 0.3285961 -1.573565E-07 0.9444706
vn 0.3285959 -1.719324E-07 0.9444706
vn 0.3285955 -2.171507E-07 0.9444708
vn 0.3285957 -5.438039E-14 0.9444707
vn 0.3285962 4.170281E-07 0.9444705
vn 0.3285964 5.312263E-07 0.9444705
vn 0.3285966 1.154877E-07 0.9444704
vn 0.3285974 -4.080076E-06 0.9444701
vn 0.3285975 -1.106694E-05 0.9444701
vn 0.3285954 -1.091762E-05 0.9444708
vn 0.3285937 -3.586784E-06 0.9444714
vn 0.3285918 -1.359788E-06 0.9444721
vn 0.3285966 -1.421084E-14 0.9444704
vn 0.3285966 -1.421084E-14 0.9444704
vn 0.3285966 -1.421084E-14 0.9444704
vn 0.3285964 -1.782583E-07 0.9444705
vn -0.08584997 -0.3833161 0.9196184
vn -0.2183685 -0.1403281 0.9657241
vn -0.08584976 -0.3833161 0.9196185
vn -0.2183685 -0.1403281 0.9657241
vn 0.1436623 -0.5235938 0.8397679
vn 0.1436627 -0.5235936 0.8397679
vn -0.2183869 0.1402602 0.9657297
vn -0.2183869 0.1402604 0.9657297
vn -0.08589742 0.3832652 0.9196352
vn -0.08589724 0.3832652 0.9196352
vn 0.1435982 0.5235757 0.8397901
vn 0.1436627 -0.5235936 0.8397679
vn 0.4086696 -0.5235752 0.7475678
vn 0.4086694 -0.5235755 0.7475677
vn 0.6381642 -0.3832659 0.6677227
vn 0.4086694 -0.5235755 0.7475677
vn 0.638164 -0.3832662 0.6677226
vn 0.7706532 -0.1402601 0.6216277
vn 0.7706532 -0.14026 0.6216275
vn 0.7706361 0.1403284 0.6216334
vn 0.7706361 0.1403284 0.6216334
vn 0.6381172 0.3833161 0.6677388
vn 0.638117 0.3833161 0.6677389
vn 0.4086051 0.5235938 0.74759
vn 0.4086052 0.5235938 0.74759
vn 0.4086052 0.5235938 0.74759
vn 0.1435979 0.5235755 0.8397903
vn 0.1435982 0.5235757 0.8397901
vn 0.7432353 0.6172127 0.2581643
vn 0.9566167 0.2259549 0.1839258
vn 0.9566165 0.2259565 0.183925
vn 0.7432359 0.617212 0.2581645
vn 0.3736773 0.8430872 0.3867397
vn 0.3736774 0.8430872 0.3867396
vn 0.9566448 -0.2258452 0.1839146
vn 0.9566451 -0.225844 0.1839141
vn 0.7433125 -0.6171314 0.2581369
vn 0.7433121 -0.6171315 0.2581373
vn 0.3737804 -0.8430583 0.386703
vn 0.3737792 -0.8430585 0.3867039
vn -0.05303565 0.843058 0.5351998
vn 0.3736774 0.8430872 0.3867396
vn -0.05303611 0.8430578 0.5351998
vn -0.4225668 0.6171315 0.6637656
vn -0.05303611 0.8430578 0.5351998
vn -0.422567 0.6171314 0.6637657
vn -0.6358997 0.2258452 0.7379872
vn -0.6358997 0.2258451 0.7379872
vn -0.6358718 -0.2259555 0.7379775
vn -0.6358718 -0.2259554 0.7379773
vn -0.422491 -0.6172124 0.6637388
vn -0.422491 -0.6172122 0.6637388
vn -0.05293328 -0.8430871 0.5351639
vn -0.05293275 -0.8430874 0.5351634
vn -0.05293275 -0.8430874 0.5351634
vn 0.3737804 -0.8430583 0.386703

vt 0.7592773 0.3427734
vt 0.7822266 0.3227539
vt 0.7592773 0.3227539
vt 0.7822266 0.3427734
vt 0.7822266 0.3027344
vt 0.7592773 0.3027344
vt 0.7822266 0.2827148
vt 0.7592773 0.2827148
vt 0.7822266 0.2626953
vt 0.7592773 0.2626953
vt 0.7822266 0.2426758
vt 0.7592773 0.2426758
vt 0.7822266 0.2225342
vt 0.7592773 0.2225342
vt 0.7822266 0.2025146
vt 0.7592773 0.2025146
vt 0.7592773 0.362793
vt 0.7822266 0.362793
vt 0.7592773 0.3828125
vt 0.7822266 0.3828125
vt 0.7592773 0.402832
vt 0.7822266 0.402832
vt 0.7592773 0.4230957
vt 0.7822266 0.4230957
vt 0.7592773 0.4431152
vt 0.7822266 0.4431152
vt 0.7363281 0.3596191
vt 0.7070313 0.3305664
vt 0.7363281 0.3808594
vt 0.7255859 0.3410645
vt 0.7255859 0.3994141
vt 0.6855469 0.3305664
vt 0.7070313 0.4101563
vt 0.6669922 0.3413086
vt 0.6860352 0.4104004
vt 0.65625 0.3598633
vt 0.6674805 0.3996582
vt 0.6567383 0.3811035
vt 0.6982422 0.3642578
vt 0.6948242 0.3640137
vt 0.7011719 0.3662109
vt 0.703125 0.3691406
vt 0.6918945 0.3657227
vt 0.7026367 0.3725586
vt 0.6899414 0.3686523
vt 0.7006836 0.3754883
vt 0.6899414 0.3720703
vt 0.6977539 0.3771973
vt 0.6914063 0.375
vt 0.6943359 0.3769531
vt 0.7084961 0.329834
vt 0.7143555 0.3530273
vt 0.7270508 0.3413086
vt 0.7036133 0.3461914
vt 0.7207031 0.364502
vt 0.7373047 0.3603516
vt 0.7207031 0.3774414
vt 0.7368164 0.3820801
vt 0.7138672 0.388916
vt 0.7260742 0.4008789
vt 0.7026367 0.3952637
vt 0.7070313 0.4121094
vt 0.6894531 0.3950195
vt 0.6845703 0.411377
vt 0.6782227 0.3881836
vt 0.6660156 0.3999023
vt 0.671875 0.376709
vt 0.6557617 0.3808594
vt 0.6723633 0.3637695
vt 0.6557617 0.3591309
vt 0.6787109 0.3522949
vt 0.6669922 0.3400879
vt 0.6904297 0.3459473
vt 0.6860352 0.3291016
vt 0.7143555 0.3530273
vt 0.7011719 0.3544922
vt 0.7084961 0.3588867
vt 0.7036133 0.3461914
vt 0.7207031 0.364502
vt 0.7124023 0.3664551
vt 0.6923828 0.354248
vt 0.6904297 0.3459473
vt 0.6845703 0.3586426
vt 0.6787109 0.3522949
vt 0.6801758 0.3659668
vt 0.7124023 0.3664551
vt 0.7207031 0.3774414
vt 0.7124023 0.3752441
vt 0.7138672 0.388916
vt 0.7124023 0.3752441
vt 0.7080078 0.3825684
vt 0.7026367 0.3952637
vt 0.7006836 0.3869629
vt 0.6894531 0.3950195
vt 0.6918945 0.3867188
vt 0.6782227 0.3881836
vt 0.6845703 0.3823242
vt 0.671875 0.376709
vt 0.6801758 0.3747559
vt 0.6801758 0.3747559
vt 0.6723633 0.3637695
vt 0.6801758 0.3659668
vt 0.7011719 0.3662109
vt 0.7011719 0.3544922
vt 0.6982422 0.3642578
vt 0.7084961 0.3588867
vt 0.703125 0.3691406
vt 0.7124023 0.3664551
vt 0.6923828 0.354248
vt 0.6948242 0.3640137
vt 0.6845703 0.3586426
vt 0.6918945 0.3657227
vt 0.6801758 0.3659668
vt 0.6899414 0.3686523
vt 0.7026367 0.3725586
vt 0.7124023 0.3664551
vt 0.7124023 0.3752441
vt 0.7006836 0.3754883
vt 0.7124023 0.3752441
vt 0.7080078 0.3825684
vt 0.6977539 0.3771973
vt 0.7006836 0.3869629
vt 0.6943359 0.3769531
vt 0.6918945 0.3867188
vt 0.6914063 0.375
vt 0.6845703 0.3823242
vt 0.6899414 0.3720703
vt 0.6801758 0.3747559
vt 0.6801758 0.3747559
vt 0.6801758 0.3659668

g wheel_frontL_10873_606
usemtl wheel_frontL_10873_606
usemap wheel_frontL_10873_606
f 1/1/1 3/3/3 2/2/2
f 2/2/2 4/4/4 1/1/1
f 5/5/5 2/2/2 3/3/3
f 3/3/3 6/6/6 5/5/5
f 7/7/7 5/5/5 6/6/6
f 6/6/6 8/8/8 7/7/7
f 9/9/9 7/7/7 8/8/8
f 8/8/8 10/10/10 9/9/9
f 11/11/11 9/9/9 10/10/10
f 10/10/10 12/12/12 11/11/11
f 13/13/13 11/11/11 12/12/12
f 12/12/12 14/14/14 13/13/13
f 15/15/15 13/13/13 14/14/14
f 14/14/14 16/16/16 15/15/15
f 17/17/17 1/1/1 4/4/4
f 4/4/4 18/18/18 17/17/17
f 19/19/19 17/17/17 18/18/18
f 18/18/18 20/20/20 19/19/19
f 21/21/21 19/19/19 20/20/20
f 20/20/20 22/22/22 21/21/21
f 23/23/23 21/21/21 22/22/22
f 22/22/22 24/24/24 23/23/23
f 25/25/25 23/23/23 24/24/24
f 24/24/24 26/26/26 25/25/25
f 27/27/27 29/29/29 28/28/28
f 28/28/28 30/30/30 27/27/27
f 28/28/28 29/29/29 31/31/31
f 31/31/31 32/32/32 28/28/28
f 32/32/32 31/31/31 33/33/33
f 33/33/33 34/34/34 32/32/32
f 34/34/34 33/33/33 35/35/35
f 35/35/35 36/36/36 34/34/34
f 36/36/36 35/35/35 37/37/37
f 37/37/37 38/38/38 36/36/36
f 39/39/39 41/41/41 40/40/40
f 40/40/40 41/41/41 42/42/42
f 42/42/42 43/43/43 40/40/40
f 43/43/43 42/42/42 44/44/44
f 44/44/44 45/45/45 43/43/43
f 45/45/45 44/44/44 46/46/46
f 46/46/46 47/47/47 45/45/45
f 47/47/47 46/46/46 48/48/48
f 48/48/48 49/49/49 47/47/47
f 48/48/48 50/50/50 49/49/49
f 51/51/51 53/53/53 52/52/52
f 52/52/52 54/54/54 51/51/51
f 55/55/55 52/52/52 53/53/53
f 53/53/53 56/56/56 55/55/55
f 57/57/57 55/55/55 56/56/56
f 56/56/56 58/58/58 57/57/57
f 59/59/59 57/57/57 58/58/58
f 58/58/58 60/60/60 59/59/59
f 61/61/61 59/59/59 60/60/60
f 60/60/60 62/62/62 61/61/61
f 63/63/63 61/61/61 62/62/62
f 62/62/62 64/64/64 63/63/63
f 65/65/65 63/63/63 64/64/64
f 64/64/64 66/66/66 65/65/65
f 67/67/67 65/65/65 66/66/66
f 66/66/66 68/68/68 67/67/67
f 69/69/69 67/67/67 68/68/68
f 68/68/68 70/70/70 69/69/69
f 71/71/71 69/69/69 70/70/70
f 70/70/70 72/72/72 71/71/71
f 73/73/73 71/71/71 72/72/72
f 72/72/72 74/74/74 73/73/73
f 54/54/54 73/73/73 74/74/74
f 74/74/74 51/51/51 54/54/54
f 75/75/75 77/77/77 76/76/76
f 76/76/76 78/78/78 75/75/75
f 77/77/77 75/75/75 79/79/79
f 79/79/79 80/80/80 77/77/77
f 78/78/78 76/76/76 81/81/81
f 81/81/81 82/82/82 78/78/78
f 82/82/82 81/81/81 83/83/83
f 83/83/83 84/84/84 82/82/82
f 84/84/84 83/83/83 85/85/85
f 86/86/86 79/79/79 87/87/87
f 87/87/87 88/88/88 86/86/86
f 88/88/88 87/87/87 89/89/89
f 89/89/89 91/91/91 90/90/90
f 91/91/91 89/89/89 92/92/92
f 92/92/92 93/93/93 91/91/91
f 93/93/93 92/92/92 94/94/94
f 94/94/94 95/95/95 93/93/93
f 95/95/95 94/94/94 96/96/96
f 96/96/96 97/97/97 95/95/95
f 97/97/97 96/96/96 98/98/98
f 98/98/98 99/99/99 97/97/97
f 100/100/100 98/98/98 101/101/101
f 101/101/101 102/102/102 100/100/100
f 102/102/102 101/101/101 84/84/84
f 103/103/103 105/105/105 104/104/104
f 104/104/104 106/106/106 103/103/103
f 107/107/107 103/103/103 106/106/106
f 106/106/106 108/108/108 107/107/107
f 109/109/109 104/104/104 105/105/105
f 105/105/105 110/110/110 109/109/109
f 111/111/111 109/109/109 110/110/110
f 110/110/110 112/112/112 111/111/111
f 113/113/113 111/111/111 112/112/112
f 112/112/112 114/114/114 113/113/113
f 115/115/115 107/107/107 116/116/116
f 116/116/116 117/117/117 115/115/115
f 118/118/118 115/115/115 119/119/119
f 119/119/119 120/120/120 118/118/118
f 121/121/121 118/118/118 120/120/120
f 120/120/120 122/122/122 121/121/121
f 123/123/123 121/121/121 122/122/122
f 122/122/122 124/124/124 123/123/123
f 125/125/125 123/123/123 124/124/124
f 124/124/124 126/126/126 125/125/125
f 127/127/127 125/125/125 126/126/126
f 126/126/126 128/128/128 127/127/127
f 114/114/114 127/127/127 129/129/129
f 129/129/129 130/130/130 114/114/114
