#wheel_backR_9251_452.obj

v -2.744561E-06 0.1358023 -0.5066901
v -0.3147467 0.3709532 -0.3709069
v -0.3147478 0.1358023 -0.5066903
v -1.5852E-06 0.3709532 -0.3709063
v -0.3147478 0.5067077 -0.1357377
v -2.700574E-06 0.5067077 -0.1357374
v -0.3147478 0.5066903 0.1358017
v -2.755587E-06 0.5066903 0.1358021
v -0.3147469 0.3709055 0.3709528
v -1.816996E-06 0.3709055 0.3709531
v -0.3147468 0.1357367 0.5067071
v -1.686903E-06 0.1357369 0.5067075
v -0.3147464 -0.1358023 0.5066895
v -1.309146E-06 -0.1358023 0.5066898
v -0.3147478 -0.3709534 0.3709049
v -1.085011E-06 -0.3709534 0.3709048
v -2.314766E-06 -0.1357371 -0.5067077
v -0.3147473 -0.1357373 -0.5067078
v -2.152149E-06 -0.3709057 -0.3709531
v -0.3147472 -0.3709057 -0.3709533
v -1.509523E-06 -0.5066904 -0.1358032
v -0.3147466 -0.5066904 -0.1358035
v 7.914768E-08 -0.5067077 0.1357361
v -0.3147449 -0.5067077 0.1357362
v -1.085011E-06 -0.3709534 0.3709048
v -0.3147478 -0.3709534 0.3709049
v -0.207229 0.04638756 -0.1730765
v -0.2072286 0.1267108 -0.1266948
v -0.2072289 -0.04636551 -0.1730826
v -0.207228 0.1730817 -0.04636579
v -0.207228 -0.1266946 -0.1267119
v -0.2072284 0.1730756 0.04638673
v -0.2072288 -0.173076 -0.04638808
v -0.2072276 0.1266943 0.12671
v -0.2072276 -0.1730819 0.04636424
v -0.2072284 0.04636516 0.1730812
v -0.2072286 -0.1267107 0.1266937
v -0.2072283 -0.04638751 0.1730752
v -0.3147478 0.1358023 -0.5066903
v -0.2980094 0.2008091 -0.2007838
v -0.2980086 0.07351413 -0.2742888
v -0.3147467 0.3709532 -0.3709069
v -0.2980089 0.2742972 -0.07347949
v -0.3147478 0.5067077 -0.1357377
v -0.2980098 0.2742878 0.07351371
v -0.3147478 0.5066903 0.1358017
v -0.2980085 0.200783 0.2008083
v -0.3147469 0.3709055 0.3709528
v -0.2980087 0.07347868 0.2742965
v -0.3147468 0.1357367 0.5067071
v -0.2980095 -0.07351407 0.2742872
v -0.3147464 -0.1358023 0.5066895
v -0.2980087 -0.200809 0.2007822
v -0.3147478 -0.3709534 0.3709049
v -0.2980092 -0.2742974 0.07347786
v -0.3147449 -0.5067077 0.1357362
v -0.2980098 -0.2742878 -0.07351492
v -0.3147466 -0.5066904 -0.1358035
v -0.2980095 -0.2007832 -0.2008099
v -0.3147472 -0.3709057 -0.3709533
v -0.2980093 -0.07347904 -0.2742977
v -0.3147473 -0.1357373 -0.5067078
v -0.2980086 0.07351413 -0.2742888
v -0.2072286 0.1267108 -0.1266948
v -0.207229 0.04638756 -0.1730765
v -0.2980094 0.2008091 -0.2007838
v -0.207228 0.1730817 -0.04636579
v -0.2980089 0.2742972 -0.07347949
v -0.2072284 0.1730756 0.04638673
v -0.2980098 0.2742878 0.07351371
v -0.2072276 0.1266943 0.12671
v -0.2980085 0.200783 0.2008083
v -0.2072284 0.04636516 0.1730812
v -0.2980087 0.07347868 0.2742965
v -0.2072283 -0.04638751 0.1730752
v -0.2980095 -0.07351407 0.2742872
v -0.2072286 -0.1267107 0.1266937
v -0.2980087 -0.200809 0.2007822
v -0.2072276 -0.1730819 0.04636424
v -0.2980092 -0.2742974 0.07347786
v -0.2072288 -0.173076 -0.04638808
v -0.2980098 -0.2742878 -0.07351492
v -0.207228 -0.1266946 -0.1267119
v -0.2980095 -0.2007832 -0.2008099
v -0.2072289 -0.04636551 -0.1730826
v -0.2980093 -0.07347904 -0.2742977
v 0.3147438 0.1358023 -0.5066904
v -1.5852E-06 0.3709532 -0.3709063
v -2.744561E-06 0.1358023 -0.5066901
v 0.3147435 0.3709536 -0.3709057
v -2.700574E-06 0.5067077 -0.1357374
v 0.3147439 0.5067077 -0.1357375
v -2.755587E-06 0.5066903 0.1358021
v 0.3147423 0.5066903 0.1358025
v -1.816996E-06 0.3709055 0.3709531
v 0.3147432 0.3709055 0.3709534
v -1.686903E-06 0.1357369 0.5067075
v 0.3147434 0.1357369 0.5067078
v -1.309146E-06 -0.1358023 0.5066898
v 0.3147438 -0.1358023 0.5066901
v -1.085011E-06 -0.3709534 0.3709048
v 0.314744 -0.3709534 0.3709051
v 0.3147427 -0.1357371 -0.5067075
v -2.314766E-06 -0.1357371 -0.5067077
v 0.3147429 -0.3709057 -0.370953
v -2.152149E-06 -0.3709057 -0.3709531
v 0.3147436 -0.5066904 -0.1358028
v -1.509523E-06 -0.5066904 -0.1358032
v 0.3147435 -0.5067077 0.1357365
v 7.914768E-08 -0.5067077 0.1357361
v 0.314744 -0.3709534 0.3709051
v -1.085011E-06 -0.3709534 0.3709048
v 0.3147429 -0.3709057 -0.370953
v 0.3147438 0.1358023 -0.5066904
v 0.3147427 -0.1357371 -0.5067075
v 0.3147436 -0.5066904 -0.1358028
v 0.3147435 -0.5067077 0.1357365
v 0.3147435 0.3709536 -0.3709057
v 0.314744 -0.3709534 0.3709051
v 0.3147439 0.5067077 -0.1357375
v 0.3147438 -0.1358023 0.5066901
v 0.3147423 0.5066903 0.1358025
v 0.3147434 0.1357369 0.5067078
v 0.3147432 0.3709055 0.3709534

vn 0.2462996 0.2588799 -0.9339793
vn 0.1802959 0.7071507 -0.6836885
vn 0.2462995 0.2588794 -0.9339795
vn 0.1802958 0.7071512 -0.6836881
vn 0.06598109 0.9659416 -0.2502027
vn 0.065981 0.9659416 -0.2502028
vn -0.06601286 0.9659082 0.2503231
vn -0.06601303 0.9659082 0.2503232
vn -0.1803188 0.7070606 0.6837757
vn -0.1803188 0.7070605 0.6837758
vn -0.2463084 0.2587562 0.9340113
vn -0.2463084 0.2587561 0.9340113
vn -0.2462997 -0.2588818 0.9339787
vn -0.2462997 -0.2588817 0.9339788
vn -0.1802956 -0.7071514 0.6836879
vn -0.1802954 -0.7071519 0.6836874
vn 0.2463079 -0.2587567 -0.9340112
vn 0.2463078 -0.2587567 -0.9340112
vn 0.1803186 -0.7070599 -0.6837764
vn 0.1803185 -0.7070599 -0.6837765
vn 0.06601298 -0.9659081 -0.2503242
vn 0.06601308 -0.9659077 -0.2503251
vn -0.06598108 -0.9659416 0.250203
vn -0.06598108 -0.9659416 0.2502028
vn -0.1802954 -0.7071519 0.6836874
vn -0.1802956 -0.7071514 0.6836879
vn -0.9669431 0 -0.2549922
vn -0.9669431 0 -0.2549922
vn -0.9669431 0 -0.2549922
vn -0.9669431 -5.089962E-07 -0.2549922
vn -0.9669431 -5.089962E-07 -0.2549922
vn -0.9669434 -8.226424E-07 -0.2549908
vn -0.9669434 -8.226424E-07 -0.2549908
vn -0.9669431 0 -0.2549922
vn -0.9669431 0 -0.2549922
vn -0.9669431 0 -0.2549922
vn -0.9669431 0 -0.2549922
vn -0.9669431 0 -0.2549922
vn -0.9817046 -0.01796622 -0.1895605
vn -0.977124 -0.04907523 -0.2069304
vn -0.9817045 -0.01796611 -0.1895606
vn -0.977124 -0.04907516 -0.2069304
vn -0.9691907 -0.06703494 -0.2370137
vn -0.9691907 -0.06703494 -0.2370137
vn -0.9600306 -0.06703266 -0.2717495
vn -0.9600306 -0.06703265 -0.2717494
vn -0.952098 -0.04906896 -0.3018304
vn -0.9520981 -0.0490691 -0.30183
vn -0.9475188 -0.0179574 -0.3191954
vn -0.9475188 -0.01795734 -0.3191952
vn -0.9475193 0.01796596 -0.3191934
vn -0.9475192 0.0179661 -0.3191935
vn -0.9520997 0.04907487 -0.3018239
vn -0.9520996 0.04907075 -0.3018252
vn -0.9600332 0.06702498 -0.2717422
vn -0.9600338 0.06702491 -0.27174
vn -0.9691938 0.06702856 -0.2370029
vn -0.9691942 0.06703062 -0.2370005
vn -0.9771255 0.04906844 -0.2069245
vn -0.9771255 0.04906855 -0.2069246
vn -0.981705 0.01795724 -0.1895588
vn -0.9817051 0.01795705 -0.1895587
vn -0.8920953 -0.1695145 0.4188443
vn -0.8488754 -0.463043 0.2549529
vn -0.8920947 -0.1695155 0.4188449
vn -0.8488759 -0.4630418 0.2549533
vn -0.7740234 -0.6324968 -0.02889216
vn -0.7740238 -0.6324962 -0.02889192
vn -0.6875949 -0.6324747 -0.3566346
vn -0.6875944 -0.6324748 -0.3566354
vn -0.6127471 -0.4629817 -0.6404595
vn -0.6127467 -0.4629821 -0.6404597
vn -0.5695369 -0.169433 -0.8043134
vn -0.5695369 -0.169433 -0.8043134
vn -0.5695424 0.1695151 -0.8042922
vn -0.5695423 0.1695151 -0.8042923
vn -0.6127616 0.4630425 -0.6404017
vn -0.6127617 0.4630423 -0.6404019
vn -0.6876144 0.6324973 -0.356557
vn -0.6876144 0.6324974 -0.3565564
vn -0.7740433 0.632476 -0.02881363
vn -0.7740433 0.632476 -0.02881216
vn -0.8488906 0.4629823 0.2550128
vn -0.8488904 0.4629824 0.2550131
vn -0.8920997 0.1694322 0.418868
vn -0.8920999 0.1694333 0.4188673
vn 0.2462996 0.2588805 -0.9339792
vn 0.1802958 0.7071512 -0.6836881
vn 0.2462996 0.2588799 -0.9339793
vn 0.1802957 0.7071517 -0.6836876
vn 0.065981 0.9659416 -0.2502028
vn 0.06598087 0.9659416 -0.250203
vn -0.06601303 0.9659082 0.2503232
vn -0.06601316 0.9659081 0.2503233
vn -0.1803188 0.7070605 0.6837758
vn -0.1803188 0.7070603 0.683776
vn -0.2463084 0.2587561 0.9340113
vn -0.2463084 0.2587562 0.9340113
vn -0.2462997 -0.2588817 0.9339788
vn -0.2462998 -0.2588814 0.9339788
vn -0.1802954 -0.7071519 0.6836874
vn -0.1802954 -0.7071518 0.6836875
vn 0.2463079 -0.2587568 -0.9340112
vn 0.2463079 -0.2587567 -0.9340112
vn 0.1803187 -0.7070601 -0.6837763
vn 0.1803186 -0.7070599 -0.6837764
vn 0.06601308 -0.9659081 -0.250324
vn 0.06601298 -0.9659081 -0.2503242
vn -0.06598092 -0.9659416 0.2502032
vn -0.06598108 -0.9659416 0.250203
vn -0.1802954 -0.7071518 0.6836875
vn -0.1802954 -0.7071519 0.6836874
vn 0.9669439 -5.617291E-07 0.254989
vn 0.9669439 -5.617291E-07 0.254989
vn 0.9669439 -5.617291E-07 0.254989
vn 0.9669432 1.506057E-07 0.2549916
vn 0.966943 7.994012E-07 0.2549927
vn 0.9669432 -3.243978E-07 0.2549916
vn 0.9669431 0 0.2549922
vn 0.9669431 0 0.2549922
vn 0.9669431 0 0.2549922
vn 0.966943 5.618995E-07 0.2549927
vn 0.9669434 -5.618468E-07 0.2549908
vn 0.9669432 4.113921E-07 0.2549918

vt 0.8925781 0.8422852
vt 0.875 0.8168945
vt 0.8925781 0.8168945
vt 0.875 0.8422852
vt 0.8544922 0.8168945
vt 0.8544922 0.8422852
vt 0.8325195 0.8168945
vt 0.8325195 0.8422852
vt 0.8149414 0.8168945
vt 0.8149414 0.8422852
vt 0.7944336 0.8168945
vt 0.7944336 0.8422852
vt 0.7724609 0.8168945
vt 0.7724609 0.8422852
vt 0.7543945 0.8168945
vt 0.7543945 0.8422852
vt 0.9145508 0.8422852
vt 0.9145508 0.8168945
vt 0.9350586 0.8422852
vt 0.9350586 0.8168945
vt 0.9526367 0.8422852
vt 0.9526367 0.8168945
vt 0.9746094 0.8422852
vt 0.9746094 0.8168945
vt 0.9951172 0.8422852
vt 0.9951172 0.8168945
vt 0.7729492 0.7583008
vt 0.7797852 0.7583008
vt 0.7670898 0.7548828
vt 0.7851563 0.7548828
vt 0.7641602 0.7495117
vt 0.7885742 0.7490234
vt 0.7636719 0.7426758
vt 0.7885742 0.7426758
vt 0.7670898 0.7368164
vt 0.7851563 0.7368164
vt 0.7729492 0.7333984
vt 0.7792969 0.7333984
vt 0.7646484 0.7880859
vt 0.7822266 0.7685547
vt 0.7700195 0.7685547
vt 0.7871094 0.7880859
vt 0.7929688 0.7626953
vt 0.8071289 0.7768555
vt 0.7988281 0.7519531
vt 0.8183594 0.7573242
vt 0.7988281 0.7397461
vt 0.8183594 0.7348633
vt 0.7929688 0.7294922
vt 0.8071289 0.715332
vt 0.7822266 0.7231445
vt 0.7875977 0.7036133
vt 0.7700195 0.7231445
vt 0.7651367 0.7036133
vt 0.7597656 0.7290039
vt 0.7456055 0.7148438
vt 0.753418 0.7397461
vt 0.7338867 0.734375
vt 0.753418 0.7519531
vt 0.7338867 0.7568359
vt 0.7592773 0.7626953
vt 0.7451172 0.7768555
vt 0.7700195 0.7685547
vt 0.7797852 0.7583008
vt 0.7729492 0.7583008
vt 0.7822266 0.7685547
vt 0.7851563 0.7548828
vt 0.7929688 0.7626953
vt 0.7885742 0.7490234
vt 0.7988281 0.7519531
vt 0.7885742 0.7426758
vt 0.7988281 0.7397461
vt 0.7851563 0.7368164
vt 0.7929688 0.7294922
vt 0.7792969 0.7333984
vt 0.7822266 0.7231445
vt 0.7729492 0.7333984
vt 0.7700195 0.7231445
vt 0.7670898 0.7368164
vt 0.7597656 0.7290039
vt 0.7636719 0.7426758
vt 0.753418 0.7397461
vt 0.7641602 0.7495117
vt 0.753418 0.7519531
vt 0.7670898 0.7548828
vt 0.7592773 0.7626953
vt 0.8925781 0.8422852
vt 0.875 0.8168945
vt 0.8925781 0.8168945
vt 0.875 0.8422852
vt 0.8544922 0.8168945
vt 0.8544922 0.8422852
vt 0.8325195 0.8168945
vt 0.8325195 0.8422852
vt 0.8149414 0.8168945
vt 0.8149414 0.8422852
vt 0.7944336 0.8168945
vt 0.7944336 0.8422852
vt 0.7724609 0.8168945
vt 0.7724609 0.8422852
vt 0.7543945 0.8168945
vt 0.7543945 0.8422852
vt 0.9145508 0.8422852
vt 0.9145508 0.8168945
vt 0.9350586 0.8422852
vt 0.9350586 0.8168945
vt 0.9526367 0.8422852
vt 0.9526367 0.8168945
vt 0.9746094 0.8422852
vt 0.9746094 0.8168945
vt 0.9951172 0.8422852
vt 0.9951172 0.8168945
vt 0.7861328 0.7094727
vt 0.7495117 0.7192383
vt 0.7666016 0.7094727
vt 0.8032227 0.7192383
vt 0.8129883 0.7363281
vt 0.7397461 0.7363281
vt 0.8129883 0.7558594
vt 0.7397461 0.7558594
vt 0.8032227 0.7724609
vt 0.7495117 0.7724609
vt 0.7861328 0.7827148
vt 0.7666016 0.7827148

g wheel_backR_9251_452
usemtl wheel_backR_9251_452
usemap wheel_backR_9251_452
f 1/1/1 3/3/3 2/2/2
f 2/2/2 4/4/4 1/1/1
f 4/4/4 2/2/2 5/5/5
f 5/5/5 6/6/6 4/4/4
f 6/6/6 5/5/5 7/7/7
f 7/7/7 8/8/8 6/6/6
f 8/8/8 7/7/7 9/9/9
f 9/9/9 10/10/10 8/8/8
f 10/10/10 9/9/9 11/11/11
f 11/11/11 12/12/12 10/10/10
f 12/12/12 11/11/11 13/13/13
f 13/13/13 14/14/14 12/12/12
f 14/14/14 13/13/13 15/15/15
f 15/15/15 16/16/16 14/14/14
f 3/3/3 1/1/1 17/17/17
f 17/17/17 18/18/18 3/3/3
f 18/18/18 17/17/17 19/19/19
f 19/19/19 20/20/20 18/18/18
f 20/20/20 19/19/19 21/21/21
f 21/21/21 22/22/22 20/20/20
f 22/22/22 21/21/21 23/23/23
f 23/23/23 24/24/24 22/22/22
f 24/24/24 23/23/23 25/25/25
f 25/25/25 26/26/26 24/24/24
f 27/27/27 29/29/29 28/28/28
f 30/30/30 28/28/28 29/29/29
f 29/29/29 31/31/31 30/30/30
f 32/32/32 30/30/30 31/31/31
f 31/31/31 33/33/33 32/32/32
f 34/34/34 32/32/32 33/33/33
f 33/33/33 35/35/35 34/34/34
f 36/36/36 34/34/34 35/35/35
f 35/35/35 37/37/37 36/36/36
f 36/36/36 37/37/37 38/38/38
f 39/39/39 41/41/41 40/40/40
f 40/40/40 42/42/42 39/39/39
f 42/42/42 40/40/40 43/43/43
f 43/43/43 44/44/44 42/42/42
f 44/44/44 43/43/43 45/45/45
f 45/45/45 46/46/46 44/44/44
f 46/46/46 45/45/45 47/47/47
f 47/47/47 48/48/48 46/46/46
f 48/48/48 47/47/47 49/49/49
f 49/49/49 50/50/50 48/48/48
f 50/50/50 49/49/49 51/51/51
f 51/51/51 52/52/52 50/50/50
f 52/52/52 51/51/51 53/53/53
f 53/53/53 54/54/54 52/52/52
f 54/54/54 53/53/53 55/55/55
f 55/55/55 56/56/56 54/54/54
f 56/56/56 55/55/55 57/57/57
f 57/57/57 58/58/58 56/56/56
f 58/58/58 57/57/57 59/59/59
f 59/59/59 60/60/60 58/58/58
f 60/60/60 59/59/59 61/61/61
f 61/61/61 62/62/62 60/60/60
f 62/62/62 61/61/61 41/41/41
f 41/41/41 39/39/39 62/62/62
f 63/63/63 65/65/65 64/64/64
f 64/64/64 66/66/66 63/63/63
f 66/66/66 64/64/64 67/67/67
f 67/67/67 68/68/68 66/66/66
f 68/68/68 67/67/67 69/69/69
f 69/69/69 70/70/70 68/68/68
f 70/70/70 69/69/69 71/71/71
f 71/71/71 72/72/72 70/70/70
f 72/72/72 71/71/71 73/73/73
f 73/73/73 74/74/74 72/72/72
f 74/74/74 73/73/73 75/75/75
f 75/75/75 76/76/76 74/74/74
f 76/76/76 75/75/75 77/77/77
f 77/77/77 78/78/78 76/76/76
f 78/78/78 77/77/77 79/79/79
f 79/79/79 80/80/80 78/78/78
f 80/80/80 79/79/79 81/81/81
f 81/81/81 82/82/82 80/80/80
f 82/82/82 81/81/81 83/83/83
f 83/83/83 84/84/84 82/82/82
f 84/84/84 83/83/83 85/85/85
f 85/85/85 86/86/86 84/84/84
f 86/86/86 85/85/85 65/65/65
f 65/65/65 63/63/63 86/86/86
f 87/87/87 89/89/89 88/88/88
f 88/88/88 90/90/90 87/87/87
f 90/90/90 88/88/88 91/91/91
f 91/91/91 92/92/92 90/90/90
f 92/92/92 91/91/91 93/93/93
f 93/93/93 94/94/94 92/92/92
f 94/94/94 93/93/93 95/95/95
f 95/95/95 96/96/96 94/94/94
f 96/96/96 95/95/95 97/97/97
f 97/97/97 98/98/98 96/96/96
f 98/98/98 97/97/97 99/99/99
f 99/99/99 100/100/100 98/98/98
f 100/100/100 99/99/99 101/101/101
f 101/101/101 102/102/102 100/100/100
f 89/89/89 87/87/87 103/103/103
f 103/103/103 104/104/104 89/89/89
f 104/104/104 103/103/103 105/105/105
f 105/105/105 106/106/106 104/104/104
f 106/106/106 105/105/105 107/107/107
f 107/107/107 108/108/108 106/106/106
f 108/108/108 107/107/107 109/109/109
f 109/109/109 110/110/110 108/108/108
f 110/110/110 109/109/109 111/111/111
f 111/111/111 112/112/112 110/110/110
f 113/113/113 115/115/115 114/114/114
f 114/114/114 116/116/116 113/113/113
f 117/117/117 116/116/116 114/114/114
f 114/114/114 118/118/118 117/117/117
f 119/119/119 117/117/117 118/118/118
f 118/118/118 120/120/120 119/119/119
f 121/121/121 119/119/119 120/120/120
f 120/120/120 122/122/122 121/121/121
f 123/123/123 121/121/121 122/122/122
f 122/122/122 124/124/124 123/123/123
