#wheel_backL_8567_615.obj

v -0.1358802 0.09212738 -0.3437372
v 0.07763893 0.2516516 -0.2516226
v -0.1358823 0.2516521 -0.2516207
v 0.07763781 0.09212738 -0.343736
v 0.07763783 0.3437464 -0.09208571
v -0.1358802 0.3437464 -0.09208538
v 0.0776402 0.3437345 0.09212509
v -0.135881 0.3437345 0.09212539
v 0.07763919 0.2516191 0.2516493
v -0.135882 0.2516191 0.2516496
v 0.07764047 0.09208248 0.3437436
v -0.1358808 0.09208287 0.3437439
v 0.07764055 -0.09212726 0.3437324
v -0.1358807 -0.09212726 0.3437327
v 0.07763945 -0.2516515 0.2516159
v -0.1358818 -0.2516515 0.2516162
v -0.1358802 -0.09208275 -0.3437484
v 0.07763791 -0.09208275 -0.3437487
v -0.1358821 -0.2516192 -0.2516541
v 0.07763918 -0.2516192 -0.2516544
v -0.1358799 -0.3437344 -0.09212989
v 0.07763817 -0.3437344 -0.09213021
v -0.1358807 -0.3437463 0.0920793
v 0.07763737 -0.3437463 0.09208056
v -0.1358818 -0.2516515 0.2516162
v 0.07763945 -0.2516515 0.2516159
v -0.1358821 -0.2516192 -0.2516541
v -0.1358802 0.09212738 -0.3437372
v -0.1358799 -0.3437344 -0.09212989
v -0.1358802 -0.09208275 -0.3437484
v -0.1358807 -0.3437463 0.0920793
v -0.1358823 0.2516521 -0.2516207
v -0.1358818 -0.2516515 0.2516162
v -0.1358802 0.3437464 -0.09208538
v -0.1358807 -0.09212726 0.3437327
v -0.135881 0.3437345 0.09212539
v -0.1358808 0.09208287 0.3437439
v -0.135882 0.2516191 0.2516496
v 0.1358977 0.02516732 -0.09390427
v 0.1358977 -0.02515509 -0.09390745
v 0.1358973 0.06874607 -0.06873925
v 0.1358979 0.09390439 -0.02515822
v 0.1358974 -0.06873701 -0.06874879
v 0.1358974 0.09390081 0.02516387
v 0.135898 -0.0939011 -0.02516935
v 0.135898 0.06873693 0.0687433
v 0.1358974 -0.09390427 0.02515275
v 0.1358977 0.025155 0.09390197
v 0.135898 -0.06874595 0.06873377
v 0.1358977 -0.02516721 0.0938988
v 0.07763781 0.09212738 -0.343736
v 0.07764046 0.1509289 -0.1509116
v 0.07763893 0.2516516 -0.2516226
v 0.07763771 0.05525356 -0.206158
v 0.07763947 0.206163 -0.05522987
v 0.07763783 0.3437464 -0.09208571
v 0.07763869 0.2061558 0.05525177
v 0.0776402 0.3437345 0.09212509
v 0.07763775 0.1509095 0.1509272
v 0.07763919 0.2516191 0.2516493
v 0.07764061 0.05522694 0.2061609
v 0.07764047 0.09208248 0.3437436
v 0.07764067 -0.05525345 0.2061529
v 0.07764055 -0.09212726 0.3437324
v 0.07763792 -0.1509288 0.1509065
v 0.07763945 -0.2516515 0.2516159
v 0.0776389 -0.2061629 0.05522475
v 0.07763737 -0.3437463 0.09208056
v 0.07763968 -0.2061557 -0.05525689
v 0.07763817 -0.3437344 -0.09213021
v 0.07764062 -0.1509092 -0.1509323
v 0.07763918 -0.2516192 -0.2516544
v 0.07763777 -0.05522682 -0.206166
v 0.07763791 -0.09208275 -0.3437487
v 0.07764046 0.1509289 -0.1509116
v 0.03798863 0.03934031 -0.1467846
v 0.0379902 0.1074609 -0.1074491
v 0.07763771 0.05525356 -0.206158
v 0.07763947 0.206163 -0.05522987
v 0.03798892 0.1467872 -0.03932456
v 0.03798866 -0.03932132 -0.1467893
v 0.07763777 -0.05522682 -0.206166
v 0.03799031 -0.1074468 -0.1074634
v 0.07764062 -0.1509092 -0.1509323
v 0.03798907 -0.1467819 -0.03934363
v 0.03798892 0.1467872 -0.03932456
v 0.07763869 0.2061558 0.05525177
v 0.03798895 0.1467821 0.0393384
v 0.07763775 0.1509095 0.1509272
v 0.03798895 0.1467821 0.0393384
v 0.03798771 0.107447 0.1074582
v 0.07764061 0.05522694 0.2061609
v 0.03798936 0.03932124 0.1467841
v 0.07764067 -0.05525345 0.2061529
v 0.0379894 -0.0393402 0.1467793
v 0.07763792 -0.1509288 0.1509065
v 0.03798782 -0.1074608 0.1074439
v 0.0776389 -0.2061629 0.05522475
v 0.03798911 -0.1467871 0.03931774
v 0.03798911 -0.1467871 0.03931774
v 0.07763968 -0.2061557 -0.05525689
v 0.03798907 -0.1467819 -0.03934363
v 0.1358973 0.06874607 -0.06873925
v 0.03798863 0.03934031 -0.1467846
v 0.1358977 0.02516732 -0.09390427
v 0.0379902 0.1074609 -0.1074491
v 0.1358979 0.09390439 -0.02515822
v 0.03798892 0.1467872 -0.03932456
v 0.03798866 -0.03932132 -0.1467893
v 0.1358977 -0.02515509 -0.09390745
v 0.03799031 -0.1074468 -0.1074634
v 0.1358974 -0.06873701 -0.06874879
v 0.03798907 -0.1467819 -0.03934363
v 0.135898 -0.0939011 -0.02516935
v 0.1358974 0.09390081 0.02516387
v 0.03798892 0.1467872 -0.03932456
v 0.03798895 0.1467821 0.0393384
v 0.135898 0.06873693 0.0687433
v 0.03798895 0.1467821 0.0393384
v 0.03798771 0.107447 0.1074582
v 0.1358977 0.025155 0.09390197
v 0.03798936 0.03932124 0.1467841
v 0.1358977 -0.02516721 0.0938988
v 0.0379894 -0.0393402 0.1467793
v 0.135898 -0.06874595 0.06873377
v 0.03798782 -0.1074608 0.1074439
v 0.1358974 -0.09390427 0.02515275
v 0.03798911 -0.1467871 0.03931774
v 0.03798911 -0.1467871 0.03931774
v 0.03798907 -0.1467819 -0.03934363

vn -0.007455712 0.2588807 -0.9658805
vn -0.005458192 0.7071511 -0.7070407
vn -0.005458653 0.7071522 -0.7070395
vn -0.007455033 0.25888 -0.9658807
vn -0.00199712 0.9659418 -0.2587486
vn -0.001996954 0.9659418 -0.2587485
vn 0.001999026 0.9659083 0.2588736
vn 0.001999045 0.9659082 0.2588741
vn 0.005459208 0.7070602 0.7071314
vn 0.005459156 0.7070602 0.7071316
vn 0.007456446 0.2587558 0.965914
vn 0.007456328 0.2587556 0.965914
vn 0.007455715 -0.2588824 0.96588
vn 0.007455686 -0.2588822 0.96588
vn 0.005457573 -0.7071518 0.70704
vn 0.005457674 -0.7071521 0.7070397
vn -0.007455288 -0.2587564 -0.9659137
vn -0.007455288 -0.2587563 -0.9659137
vn -0.005458089 -0.7070599 -0.7071319
vn -0.005458248 -0.7070597 -0.707132
vn -0.001998413 -0.9659081 -0.2588745
vn -0.001998505 -0.9659078 -0.2588757
vn 0.001997122 -0.9659417 0.2587489
vn 0.00199712 -0.9659418 0.2587487
vn 0.005457674 -0.7071521 0.7070397
vn 0.005457573 -0.7071518 0.70704
vn -0.9999702 1.279007E-14 0.007717404
vn -0.9999702 -1.906796E-07 0.007717434
vn -0.9999702 1.100456E-07 0.007717711
vn -0.9999702 1.701528E-16 0.007717693
vn -0.9999702 4.631389E-15 0.007717591
vn -0.9999702 -1.092686E-07 0.007717572
vn -0.9999702 -1.092686E-07 0.007717572
vn -0.9999702 -3.684734E-15 0.007717781
vn -0.9999702 1.224335E-16 0.007717694
vn -0.9999702 1.817743E-07 0.0077179
vn -0.9999702 2.202132E-07 0.0077179
vn -0.9999702 -5.934536E-07 0.007717079
vn 0.9999702 -5.738902E-14 -0.007716384
vn 0.9999702 -1.249718E-07 -0.00771853
vn 0.9999702 1.181881E-06 -0.007720794
vn 0.9999702 4.089187E-14 -0.007718632
vn 0.9999702 -3.540948E-07 -0.007718188
vn 0.9999702 -7.03467E-07 -0.007716885
vn 0.9999702 -1.782145E-07 -0.007717794
vn 0.9999702 -5.052764E-07 -0.007716574
vn 0.9999702 1.246907E-07 -0.007717665
vn 0.9999702 1.003883E-07 -0.007717574
vn 0.9999702 -2.497807E-07 -0.007716968
vn 0.9999702 8.881777E-15 -0.0077179
vn 0.9999702 -5.029331E-07 -0.00771741
vn 0.9999702 -1.820389E-07 -0.007717745
vn 0.9999702 1.606074E-07 -0.0077179
vn 0.9999702 -7.36571E-07 -0.007717436
vn 0.9999702 2.721045E-07 -0.007717707
vn 0.9999702 2.265944E-07 -0.007717792
vn 0.9999702 8.881777E-15 -0.0077179
vn 0.9999702 8.881777E-15 -0.0077179
vn 0.9999702 -1.573565E-07 -0.007717442
vn 0.9999702 -1.719324E-07 -0.007717241
vn 0.9999702 -2.171507E-07 -0.007716828
vn 0.9999702 -3.128776E-14 -0.007716981
vn 0.9999702 4.170282E-07 -0.007717561
vn 0.9999702 5.312265E-07 -0.007717726
vn 0.9999702 1.154878E-07 -0.0077179
vn 0.9999702 -4.080077E-06 -0.007718787
vn 0.9999702 -1.106694E-05 -0.00771889
vn 0.9999702 -1.091763E-05 -0.007716666
vn 0.9999702 -3.586785E-06 -0.007714906
vn 0.9999703 -1.359789E-06 -0.007712827
vn 0.9999702 8.881777E-15 -0.0077179
vn 0.9999702 8.881777E-15 -0.0077179
vn 0.9999702 8.881777E-15 -0.0077179
vn 0.9999702 -1.782584E-07 -0.007717709
vn 0.8432755 -0.3833162 0.3767692
vn 0.8443587 -0.1403281 0.5170749
vn 0.8432756 -0.3833162 0.376769
vn 0.8443587 -0.1403282 0.517075
vn 0.8414003 -0.5235939 0.1337702
vn 0.8414004 -0.5235937 0.1337698
vn 0.8443582 0.1402603 0.5170943
vn 0.8443581 0.1402605 0.5170943
vn 0.8432761 0.3832653 0.3768195
vn 0.8432762 0.3832653 0.3768193
vn 0.8414008 0.5235758 0.1338381
vn 0.8414004 -0.5235937 0.1337698
vn 0.8392349 -0.5235753 -0.1468096
vn 0.8392347 -0.5235756 -0.1468095
vn 0.8373592 -0.383266 -0.3897901
vn 0.8392347 -0.5235756 -0.1468095
vn 0.8373591 -0.3832663 -0.3897901
vn 0.8362765 -0.1402602 -0.5300646
vn 0.8362764 -0.1402601 -0.5300647
vn 0.8362765 0.1403285 -0.5300465
vn 0.8362765 0.1403285 -0.5300465
vn 0.8373594 0.3833162 -0.3897405
vn 0.8373594 0.3833162 -0.3897403
vn 0.8392352 0.523594 -0.1467414
vn 0.8392352 0.5235939 -0.1467415
vn 0.8392352 0.5235939 -0.1467415
vn 0.8414009 0.5235757 0.1338384
vn 0.8414008 0.5235758 0.1338381
vn 0.4832754 0.6172129 -0.6208803
vn 0.4815319 0.225955 -0.8468004
vn 0.4815311 0.2259566 -0.8468006
vn 0.4832757 0.6172122 -0.6208808
vn 0.4862956 0.8430874 -0.2296058
vn 0.4862955 0.8430874 -0.229606
vn 0.4815302 -0.2258452 -0.8468306
vn 0.4815298 -0.2258441 -0.8468311
vn 0.4832741 -0.6171316 -0.6209622
vn 0.4832743 -0.6171317 -0.6209617
vn 0.4862939 -0.8430585 -0.2297153
vn 0.4862944 -0.8430587 -0.2297139
vn 0.4897825 0.8430582 0.222182
vn 0.4862955 0.8430874 -0.229606
vn 0.4897824 0.843058 0.2221824
vn 0.4928023 0.6171317 0.6134279
vn 0.4897824 0.843058 0.2221824
vn 0.4928023 0.6171315 0.6134281
vn 0.4945453 0.2258452 0.8392967
vn 0.4945453 0.2258452 0.8392968
vn 0.4945451 -0.2259556 0.8392671
vn 0.4945449 -0.2259555 0.8392671
vn 0.4928012 -0.6172125 0.6133475
vn 0.4928013 -0.6172124 0.6133475
vn 0.4897814 -0.8430874 0.2220735
vn 0.4897811 -0.8430877 0.2220728
vn 0.4897811 -0.8430877 0.2220728
vn 0.4862939 -0.8430585 -0.2297153

vt 0.7592773 0.3427734
vt 0.7822266 0.3227539
vt 0.7592773 0.3227539
vt 0.7822266 0.3427734
vt 0.7822266 0.3027344
vt 0.7592773 0.3027344
vt 0.7822266 0.2827148
vt 0.7592773 0.2827148
vt 0.7822266 0.2626953
vt 0.7592773 0.2626953
vt 0.7822266 0.2426758
vt 0.7592773 0.2426758
vt 0.7822266 0.2225342
vt 0.7592773 0.2225342
vt 0.7822266 0.2025146
vt 0.7592773 0.2025146
vt 0.7592773 0.362793
vt 0.7822266 0.362793
vt 0.7592773 0.3828125
vt 0.7822266 0.3828125
vt 0.7592773 0.402832
vt 0.7822266 0.402832
vt 0.7592773 0.4230957
vt 0.7822266 0.4230957
vt 0.7592773 0.4431152
vt 0.7822266 0.4431152
vt 0.7363281 0.3596191
vt 0.7070313 0.3305664
vt 0.7363281 0.3808594
vt 0.7255859 0.3410645
vt 0.7255859 0.3994141
vt 0.6855469 0.3305664
vt 0.7070313 0.4101563
vt 0.6669922 0.3413086
vt 0.6860352 0.4104004
vt 0.65625 0.3598633
vt 0.6674805 0.3996582
vt 0.6567383 0.3811035
vt 0.6982422 0.3642578
vt 0.6948242 0.3640137
vt 0.7011719 0.3662109
vt 0.703125 0.3691406
vt 0.6918945 0.3657227
vt 0.7026367 0.3725586
vt 0.6899414 0.3686523
vt 0.7006836 0.3754883
vt 0.6899414 0.3720703
vt 0.6977539 0.3771973
vt 0.6914063 0.375
vt 0.6943359 0.3769531
vt 0.7084961 0.329834
vt 0.7143555 0.3530273
vt 0.7270508 0.3413086
vt 0.7036133 0.3461914
vt 0.7207031 0.364502
vt 0.7373047 0.3603516
vt 0.7207031 0.3774414
vt 0.7368164 0.3820801
vt 0.7138672 0.388916
vt 0.7260742 0.4008789
vt 0.7026367 0.3952637
vt 0.7070313 0.4121094
vt 0.6894531 0.3950195
vt 0.6845703 0.411377
vt 0.6782227 0.3881836
vt 0.6660156 0.3999023
vt 0.671875 0.376709
vt 0.6557617 0.3808594
vt 0.6723633 0.3637695
vt 0.6557617 0.3591309
vt 0.6787109 0.3522949
vt 0.6669922 0.3400879
vt 0.6904297 0.3459473
vt 0.6860352 0.3291016
vt 0.7143555 0.3530273
vt 0.7011719 0.3544922
vt 0.7084961 0.3588867
vt 0.7036133 0.3461914
vt 0.7207031 0.364502
vt 0.7124023 0.3664551
vt 0.6923828 0.354248
vt 0.6904297 0.3459473
vt 0.6845703 0.3586426
vt 0.6787109 0.3522949
vt 0.6801758 0.3659668
vt 0.7124023 0.3664551
vt 0.7207031 0.3774414
vt 0.7124023 0.3752441
vt 0.7138672 0.388916
vt 0.7124023 0.3752441
vt 0.7080078 0.3825684
vt 0.7026367 0.3952637
vt 0.7006836 0.3869629
vt 0.6894531 0.3950195
vt 0.6918945 0.3867188
vt 0.6782227 0.3881836
vt 0.6845703 0.3823242
vt 0.671875 0.376709
vt 0.6801758 0.3747559
vt 0.6801758 0.3747559
vt 0.6723633 0.3637695
vt 0.6801758 0.3659668
vt 0.7011719 0.3662109
vt 0.7011719 0.3544922
vt 0.6982422 0.3642578
vt 0.7084961 0.3588867
vt 0.703125 0.3691406
vt 0.7124023 0.3664551
vt 0.6923828 0.354248
vt 0.6948242 0.3640137
vt 0.6845703 0.3586426
vt 0.6918945 0.3657227
vt 0.6801758 0.3659668
vt 0.6899414 0.3686523
vt 0.7026367 0.3725586
vt 0.7124023 0.3664551
vt 0.7124023 0.3752441
vt 0.7006836 0.3754883
vt 0.7124023 0.3752441
vt 0.7080078 0.3825684
vt 0.6977539 0.3771973
vt 0.7006836 0.3869629
vt 0.6943359 0.3769531
vt 0.6918945 0.3867188
vt 0.6914063 0.375
vt 0.6845703 0.3823242
vt 0.6899414 0.3720703
vt 0.6801758 0.3747559
vt 0.6801758 0.3747559
vt 0.6801758 0.3659668

g wheel_backL_8567_615
usemtl wheel_backL_8567_615
usemap wheel_backL_8567_615
f 1/1/1 3/3/3 2/2/2
f 2/2/2 4/4/4 1/1/1
f 5/5/5 2/2/2 3/3/3
f 3/3/3 6/6/6 5/5/5
f 7/7/7 5/5/5 6/6/6
f 6/6/6 8/8/8 7/7/7
f 9/9/9 7/7/7 8/8/8
f 8/8/8 10/10/10 9/9/9
f 11/11/11 9/9/9 10/10/10
f 10/10/10 12/12/12 11/11/11
f 13/13/13 11/11/11 12/12/12
f 12/12/12 14/14/14 13/13/13
f 15/15/15 13/13/13 14/14/14
f 14/14/14 16/16/16 15/15/15
f 17/17/17 1/1/1 4/4/4
f 4/4/4 18/18/18 17/17/17
f 19/19/19 17/17/17 18/18/18
f 18/18/18 20/20/20 19/19/19
f 21/21/21 19/19/19 20/20/20
f 20/20/20 22/22/22 21/21/21
f 23/23/23 21/21/21 22/22/22
f 22/22/22 24/24/24 23/23/23
f 25/25/25 23/23/23 24/24/24
f 24/24/24 26/26/26 25/25/25
f 27/27/27 29/29/29 28/28/28
f 28/28/28 30/30/30 27/27/27
f 28/28/28 29/29/29 31/31/31
f 31/31/31 32/32/32 28/28/28
f 32/32/32 31/31/31 33/33/33
f 33/33/33 34/34/34 32/32/32
f 34/34/34 33/33/33 35/35/35
f 35/35/35 36/36/36 34/34/34
f 36/36/36 35/35/35 37/37/37
f 37/37/37 38/38/38 36/36/36
f 39/39/39 41/41/41 40/40/40
f 40/40/40 41/41/41 42/42/42
f 42/42/42 43/43/43 40/40/40
f 43/43/43 42/42/42 44/44/44
f 44/44/44 45/45/45 43/43/43
f 45/45/45 44/44/44 46/46/46
f 46/46/46 47/47/47 45/45/45
f 47/47/47 46/46/46 48/48/48
f 48/48/48 49/49/49 47/47/47
f 48/48/48 50/50/50 49/49/49
f 51/51/51 53/53/53 52/52/52
f 52/52/52 54/54/54 51/51/51
f 55/55/55 52/52/52 53/53/53
f 53/53/53 56/56/56 55/55/55
f 57/57/57 55/55/55 56/56/56
f 56/56/56 58/58/58 57/57/57
f 59/59/59 57/57/57 58/58/58
f 58/58/58 60/60/60 59/59/59
f 61/61/61 59/59/59 60/60/60
f 60/60/60 62/62/62 61/61/61
f 63/63/63 61/61/61 62/62/62
f 62/62/62 64/64/64 63/63/63
f 65/65/65 63/63/63 64/64/64
f 64/64/64 66/66/66 65/65/65
f 67/67/67 65/65/65 66/66/66
f 66/66/66 68/68/68 67/67/67
f 69/69/69 67/67/67 68/68/68
f 68/68/68 70/70/70 69/69/69
f 71/71/71 69/69/69 70/70/70
f 70/70/70 72/72/72 71/71/71
f 73/73/73 71/71/71 72/72/72
f 72/72/72 74/74/74 73/73/73
f 54/54/54 73/73/73 74/74/74
f 74/74/74 51/51/51 54/54/54
f 75/75/75 77/77/77 76/76/76
f 76/76/76 78/78/78 75/75/75
f 77/77/77 75/75/75 79/79/79
f 79/79/79 80/80/80 77/77/77
f 78/78/78 76/76/76 81/81/81
f 81/81/81 82/82/82 78/78/78
f 82/82/82 81/81/81 83/83/83
f 83/83/83 84/84/84 82/82/82
f 84/84/84 83/83/83 85/85/85
f 86/86/86 79/79/79 87/87/87
f 87/87/87 88/88/88 86/86/86
f 88/88/88 87/87/87 89/89/89
f 89/89/89 91/91/91 90/90/90
f 91/91/91 89/89/89 92/92/92
f 92/92/92 93/93/93 91/91/91
f 93/93/93 92/92/92 94/94/94
f 94/94/94 95/95/95 93/93/93
f 95/95/95 94/94/94 96/96/96
f 96/96/96 97/97/97 95/95/95
f 97/97/97 96/96/96 98/98/98
f 98/98/98 99/99/99 97/97/97
f 100/100/100 98/98/98 101/101/101
f 101/101/101 102/102/102 100/100/100
f 102/102/102 101/101/101 84/84/84
f 103/103/103 105/105/105 104/104/104
f 104/104/104 106/106/106 103/103/103
f 107/107/107 103/103/103 106/106/106
f 106/106/106 108/108/108 107/107/107
f 109/109/109 104/104/104 105/105/105
f 105/105/105 110/110/110 109/109/109
f 111/111/111 109/109/109 110/110/110
f 110/110/110 112/112/112 111/111/111
f 113/113/113 111/111/111 112/112/112
f 112/112/112 114/114/114 113/113/113
f 115/115/115 107/107/107 116/116/116
f 116/116/116 117/117/117 115/115/115
f 118/118/118 115/115/115 119/119/119
f 119/119/119 120/120/120 118/118/118
f 121/121/121 118/118/118 120/120/120
f 120/120/120 122/122/122 121/121/121
f 123/123/123 121/121/121 122/122/122
f 122/122/122 124/124/124 123/123/123
f 125/125/125 123/123/123 124/124/124
f 124/124/124 126/126/126 125/125/125
f 127/127/127 125/125/125 126/126/126
f 126/126/126 128/128/128 127/127/127
f 114/114/114 127/127/127 129/129/129
f 129/129/129 130/130/130 114/114/114
