#wheel_backR_9436_394.obj

v 0.1067733 -0.09327772 -0.343713
v 0.1067703 0.09212751 -0.3437027
v -0.1067497 0.09212707 -0.3437023
v -0.1055528 -0.09327772 -0.3437128
v -0.1067471 0.2516516 -0.2515866
v 0.106773 0.2516519 -0.2515869
v -0.1067506 0.3437463 -0.09205012
v 0.1067694 0.3437463 -0.09205048
v -0.1067464 0.3437342 0.09215885
v 0.1067737 0.3437347 0.0921585
v -0.106747 0.2516187 0.251685
v 0.106773 0.2516191 0.2516847
v -0.1067522 0.09208228 0.3437763
v 0.1067678 0.0920825 0.3437759
v -0.1055485 -0.09332741 0.3437677
v 0.1067708 -0.09332719 0.3437656
v 0.1067681 -0.2223807 -0.2516217
v -0.1356272 -0.2322776 -0.2516195
v 0.1067674 -0.2437388 -0.09209553
v -0.2067463 -0.243751 -0.09209488
v 0.1067717 -0.2437466 0.09211344
v -0.2067499 -0.2437466 0.09211557
v 0.1067681 -0.2223856 0.2516499
v -0.1356565 -0.2322936 0.2516511
v 0.1067708 -0.09332719 0.3437656
v -0.1055485 -0.09332741 0.3437677
v 0.1067681 -0.2223807 -0.2516217
v 0.1067674 -0.2437388 -0.09209553
v 0.1067717 -0.2437466 0.09211344
v 0.1067733 -0.09327772 -0.343713
v 0.1067703 0.09212751 -0.3437027
v 0.1067681 -0.2223856 0.2516499
v 0.106773 0.2516519 -0.2515869
v 0.1067708 -0.09332719 0.3437656
v 0.1067694 0.3437463 -0.09205048
v 0.1067678 0.0920825 0.3437759
v 0.1067737 0.3437347 0.0921585
v 0.106773 0.2516191 0.2516847
v -0.106749 -0.02515506 -0.0938738
v -0.10675 0.02516709 -0.09387037
v -0.106747 -0.06873731 -0.06871352
v -0.1053818 -0.0952684 -0.0251341
v -0.1067489 0.068746 -0.06870667
v -0.1053846 -0.09527174 0.02518449
v -0.1067491 0.09390406 -0.02512403
v -0.106749 -0.068746 0.06876691
v -0.1067528 0.09390095 0.02519799
v -0.1067489 -0.02516754 0.09393404
v -0.106752 0.06873687 0.0687772
v -0.1067489 0.02515483 0.09393404
v -0.1055528 -0.09327772 -0.3437128
v -0.1067497 0.09212707 -0.3437023
v -0.1067498 0.05525373 -0.2061249
v -0.1067478 -0.05522678 -0.2061318
v -0.1067506 0.1509289 -0.1508784
v -0.1067471 0.2516516 -0.2515866
v -0.1067502 0.2061629 -0.05519658
v -0.1067506 0.3437463 -0.09205012
v -0.1067488 0.2061556 0.0552862
v -0.1067464 0.3437342 0.09215885
v -0.1067464 0.1509091 0.1509612
v -0.106747 0.2516187 0.251685
v -0.1067511 0.05522655 0.2061954
v -0.1067522 0.09208228 0.3437763
v -0.1067492 -0.05525396 0.2061886
v -0.1055485 -0.09332741 0.3437677
v -0.09956239 -0.1581151 0.1509396
v -0.1356565 -0.2322936 0.2516511
v -0.1067184 -0.2061939 0.05525779
v -0.2067499 -0.2437466 0.09211557
v -0.1067129 -0.2061894 -0.05522303
v -0.2067463 -0.243751 -0.09209488
v -0.09956751 -0.1580942 -0.1508965
v -0.1356272 -0.2322776 -0.2516195
v -0.1067478 -0.05522678 -0.2061318
v -0.1067498 0.05525373 -0.2061249
v -0.06710093 0.03934029 -0.1467512
v -0.06709995 -0.03932136 -0.1467546
v -0.06709704 0.1074607 -0.1074163
v -0.1067506 0.1509289 -0.1508784
v -0.06709721 0.1467869 -0.03928941
v -0.1067502 0.2061629 -0.05519658
v -0.06710117 0.146782 0.03936963
v -0.1067488 0.2061556 0.0552862
v -0.06710038 0.1074467 0.1074931
v -0.1067464 0.1509091 0.1509612
v -0.06710137 0.03932113 0.1468191
v -0.1067511 0.05522655 0.2061954
v -0.06709941 -0.03934074 0.1468123
v -0.1067492 -0.05525396 0.2061886
v -0.06421207 -0.1103084 0.1074798
v -0.09956239 -0.1581151 0.1509396
v -0.06003663 -0.1537523 0.03935108
v -0.1067184 -0.2061939 0.05525779
v -0.06003953 -0.1537469 -0.03930991
v -0.1067129 -0.2061894 -0.05522303
v -0.06421559 -0.1102928 -0.1074315
v -0.09956751 -0.1580942 -0.1508965
v -0.06710093 0.03934029 -0.1467512
v -0.10675 0.02516709 -0.09387037
v -0.106749 -0.02515506 -0.0938738
v -0.06709995 -0.03932136 -0.1467546
v -0.06709704 0.1074607 -0.1074163
v -0.1067489 0.068746 -0.06870667
v -0.06709721 0.1467869 -0.03928941
v -0.1067491 0.09390406 -0.02512403
v -0.06710117 0.146782 0.03936963
v -0.1067528 0.09390095 0.02519799
v -0.06710038 0.1074467 0.1074931
v -0.106752 0.06873687 0.0687772
v -0.06710137 0.03932113 0.1468191
v -0.1067489 0.02515483 0.09393404
v -0.06709941 -0.03934074 0.1468123
v -0.1067489 -0.02516754 0.09393404
v -0.06421207 -0.1103084 0.1074798
v -0.106749 -0.068746 0.06876691
v -0.06003663 -0.1537523 0.03935108
v -0.1053846 -0.09527174 0.02518449
v -0.06003953 -0.1537469 -0.03930991
v -0.1053818 -0.0952684 -0.0251341
v -0.06421559 -0.1102928 -0.1074315
v -0.106747 -0.06873731 -0.06871352

vn -0.2559249 -0.2969505 -0.9199583
vn -0.2651699 0.2588815 -0.928798
vn -0.2651308 0.2594127 -0.9286609
vn -0.2542588 -0.3122685 -0.9153367
vn -0.1941092 0.7071522 -0.6798946
vn -0.1941091 0.7071526 -0.6798942
vn -0.07103704 0.9659418 -0.2488143
vn -0.07103695 0.9659419 -0.248814
vn 0.07106981 0.9659081 0.2489357
vn 0.07106987 0.9659081 0.2489359
vn 0.1941338 0.7070594 0.6799841
vn 0.1941337 0.7070595 0.679984
vn 0.2651403 0.259289 0.9286928
vn 0.2651796 0.258755 0.9288305
vn 0.267323 -0.3124629 0.9115403
vn 0.2683496 -0.2971285 0.9163533
vn -0.1249432 -0.8581907 -0.4978923
vn -0.1018967 -0.9021989 -0.4191095
vn -0.004982698 -0.9987443 -0.04983055
vn -0.004214476 -0.9991005 -0.04217503
vn 0.02206486 -0.9987463 0.04491273
vn 0.01867819 -0.9991018 0.03801189
vn 0.1567314 -0.8582669 0.488684
vn 0.1347048 -0.9022644 0.4096
vn 0.2683496 -0.2971285 0.9163533
vn 0.267323 -0.3124629 0.9115403
vn 0.9615785 -1.875662E-06 -0.2745303
vn 0.9615785 -1.875662E-06 -0.2745303
vn 0.9615785 -8.134436E-07 -0.2745302
vn 0.9615785 -9.744861E-07 -0.2745303
vn 0.9615786 -3.154219E-07 -0.27453
vn 0.9615786 -2.229317E-07 -0.27453
vn 0.9615787 -8.881776E-16 -0.2745299
vn 0.9615787 -8.881776E-16 -0.2745299
vn 0.9615787 -8.881776E-16 -0.2745299
vn 0.9615787 -8.881776E-16 -0.2745299
vn 0.9615787 -8.881776E-16 -0.2745299
vn 0.9615787 -8.881776E-16 -0.2745299
vn -0.9615782 3.789318E-07 0.2745312
vn -0.9565122 -1.270578E-06 0.2916927
vn -0.9565071 -1.272163E-06 0.2917091
vn -0.9595577 -0.00509829 0.2814661
vn -0.9595345 -0.005064743 0.2815461
vn -0.9629722 -0.007226509 0.2695045
vn -0.962995 -0.007226509 0.2694226
vn -0.9639438 -0.005077466 0.2660581
vn -0.9639351 -0.005058497 0.2660897
vn -0.9615786 8.881772E-16 0.27453
vn -0.9615786 8.881772E-16 0.27453
vn -0.9615793 -3.788814E-07 0.2745278
vn -0.948782 0.06750291 0.3086363
vn -0.9621685 -0.00201966 0.2724484
vn -0.9621685 -0.002019651 0.2724484
vn -0.948727 0.06773102 0.3087553
vn -0.9615787 8.881776E-16 0.2745299
vn -0.9615787 8.881776E-16 0.2745299
vn -0.9615787 8.881776E-16 0.2745299
vn -0.9615787 8.881776E-16 0.2745299
vn -0.9615786 8.881765E-16 0.2745302
vn -0.9615786 8.881765E-16 0.2745302
vn -0.9615785 3.354365E-07 0.2745303
vn -0.9615785 3.354367E-07 0.2745303
vn -0.9609784 -0.002027073 0.2766162
vn -0.9609784 -0.002027076 0.2766162
vn -0.9687288 0.06779955 0.2386797
vn -0.9687127 0.06757207 0.2388094
vn -0.8278104 0.5229906 0.2030034
vn -0.8820635 0.4244497 0.2044655
vn -0.4590203 0.8779388 0.1360976
vn -0.487455 0.8609481 0.1454463
vn -0.461744 0.8779066 0.1267724
vn -0.4908513 0.8608989 0.133854
vn -0.8103018 0.5228354 0.2646766
vn -0.8571208 0.4243138 0.2920642
vn -0.6688085 0.107745 0.7355856
vn -0.6643183 -0.1403283 0.7341588
vn -0.6643183 -0.1403281 0.7341589
vn -0.6688851 0.1082189 0.7354465
vn -0.7028385 -0.3833149 0.5992391
vn -0.7028385 -0.3833151 0.5992389
vn -0.7695507 -0.5235929 0.3655704
vn -0.7695508 -0.523593 0.3655702
vn -0.8465801 -0.5235754 0.09576209
vn -0.84658 -0.5235755 0.09576243
vn -0.9132874 -0.3832659 -0.1378899
vn -0.9132874 -0.3832659 -0.1378899
vn -0.951798 -0.1402599 -0.2727785
vn -0.951798 -0.14026 -0.2727786
vn -0.9563467 0.1082803 -0.2714348
vn -0.9563551 0.1078067 -0.2715934
vn -0.9208066 0.3643075 -0.1392676
vn -0.9186116 0.3716331 -0.1343185
vn -0.7983232 0.5957738 0.08793926
vn -0.8006338 0.5932327 0.08402483
vn -0.7244133 0.5957381 0.3468731
vn -0.724309 0.5931953 0.3514189
vn -0.7084748 0.3642395 0.6044774
vn -0.7092239 0.3715672 0.5991152
vn -0.9343252 0.1518502 -0.3224565
vn -0.9343252 0.1518503 -0.3224565
vn -0.9324204 -0.1588168 -0.3246071
vn -0.9322378 -0.1608572 -0.3241266
vn -0.8926441 0.4147882 -0.1764577
vn -0.8926439 0.4147886 -0.1764574
vn -0.8204534 0.5665855 0.07639836
vn -0.8204535 0.5665855 0.07639807
vn -0.737098 0.5665661 0.3683598
vn -0.737098 0.5665661 0.3683597
vn -0.6649123 0.4147359 0.6211968
vn -0.6649122 0.4147355 0.6211971
vn -0.6232394 0.1517771 0.7671613
vn -0.6232393 0.1517769 0.7671614
vn -0.6205954 -0.1609361 0.7674379
vn -0.6204966 -0.1588943 0.767943
vn -0.6588653 -0.4370612 0.6122695
vn -0.6564522 -0.4276749 0.6214213
vn -0.7290925 -0.5831463 0.3582795
vn -0.7266291 -0.5808632 0.3668889
vn -0.8083723 -0.5831285 0.08059177
vn -0.8108268 -0.5808433 0.0719763
vn -0.8828262 -0.4370044 -0.1721771
vn -0.8856077 -0.4276192 -0.18122

vt 0.894043 0.8886719
vt 0.8735352 0.8886719
vt 0.8735352 0.8657227
vt 0.894043 0.8657227
vt 0.8535156 0.8657227
vt 0.8535156 0.8886719
vt 0.8334961 0.8657227
vt 0.8334961 0.8886719
vt 0.8134766 0.8657227
vt 0.8134766 0.8886719
vt 0.793457 0.8657227
vt 0.793457 0.8886719
vt 0.7734375 0.8657227
vt 0.7734375 0.8886719
vt 0.753418 0.8657227
vt 0.753418 0.8886719
vt 0.9140625 0.8886719
vt 0.9140625 0.8657227
vt 0.934082 0.8886719
vt 0.934082 0.8657227
vt 0.9541016 0.8886719
vt 0.9541016 0.8657227
vt 0.9741211 0.8886719
vt 0.9741211 0.8657227
vt 0.9941406 0.8886719
vt 0.9941406 0.8657227
vt 0.5517578 0.7646484
vt 0.5625 0.7832031
vt 0.5625 0.8046875
vt 0.5332031 0.7539063
vt 0.5117188 0.7539063
vt 0.5522461 0.8232422
vt 0.4934082 0.7646484
vt 0.5336914 0.8339844
vt 0.482666 0.7836914
vt 0.512207 0.8339844
vt 0.482666 0.8051758
vt 0.4934082 0.8232422
vt 0.5249023 0.7875977
vt 0.527832 0.7895508
vt 0.5214844 0.7875977
vt 0.5185547 0.7890625
vt 0.5292969 0.7924805
vt 0.5166016 0.7919922
vt 0.5292969 0.7963867
vt 0.5166016 0.7954102
vt 0.5273438 0.7988281
vt 0.5180664 0.7988281
vt 0.5244141 0.8007813
vt 0.5209961 0.800293
vt 0.534668 0.753418
vt 0.5532227 0.7651367
vt 0.5410156 0.7763672
vt 0.5297852 0.7695313
vt 0.5473633 0.7880859
vt 0.5639648 0.7836914
vt 0.5473633 0.8012695
vt 0.5634766 0.8056641
vt 0.5405273 0.8125
vt 0.5527344 0.824707
vt 0.5292969 0.8188477
vt 0.5332031 0.8359375
vt 0.5161133 0.8183594
vt 0.5112305 0.8349609
vt 0.5048828 0.8115234
vt 0.4924316 0.8232422
vt 0.4985352 0.800293
vt 0.4821777 0.8041992
vt 0.4987793 0.7871094
vt 0.4824219 0.7827148
vt 0.5053711 0.7758789
vt 0.4934082 0.7636719
vt 0.5166016 0.7695313
vt 0.5126953 0.7524414
vt 0.5297852 0.7695313
vt 0.5410156 0.7763672
vt 0.534668 0.7822266
vt 0.5273438 0.777832
vt 0.5390625 0.7900391
vt 0.5473633 0.7880859
vt 0.5390625 0.7988281
vt 0.5473633 0.8012695
vt 0.534668 0.8061523
vt 0.5405273 0.8125
vt 0.5268555 0.8105469
vt 0.5292969 0.8188477
vt 0.5185547 0.8100586
vt 0.5161133 0.8183594
vt 0.5107422 0.8056641
vt 0.5048828 0.8115234
vt 0.5068359 0.7983398
vt 0.4985352 0.800293
vt 0.5068359 0.7895508
vt 0.4987793 0.7871094
vt 0.5112305 0.7822266
vt 0.5053711 0.7758789
vt 0.519043 0.777832
vt 0.5166016 0.7695313
vt 0.534668 0.7822266
vt 0.527832 0.7895508
vt 0.5249023 0.7875977
vt 0.5273438 0.777832
vt 0.5390625 0.7900391
vt 0.5292969 0.7924805
vt 0.5390625 0.7988281
vt 0.5292969 0.7963867
vt 0.534668 0.8061523
vt 0.5273438 0.7988281
vt 0.5268555 0.8105469
vt 0.5244141 0.8007813
vt 0.5185547 0.8100586
vt 0.5209961 0.800293
vt 0.5107422 0.8056641
vt 0.5180664 0.7988281
vt 0.5068359 0.7983398
vt 0.5166016 0.7954102
vt 0.5068359 0.7895508
vt 0.5166016 0.7919922
vt 0.5112305 0.7822266
vt 0.5185547 0.7890625
vt 0.519043 0.777832
vt 0.5214844 0.7875977

g wheel_backR_9436_394
usemtl wheel_backR_9436_394
usemap wheel_backR_9436_394
f 1/1/1 3/3/3 2/2/2
f 1/1/1 4/4/4 3/3/3
f 2/2/2 3/3/3 5/5/5
f 2/2/2 5/5/5 6/6/6
f 6/6/6 5/5/5 7/7/7
f 6/6/6 7/7/7 8/8/8
f 8/8/8 7/7/7 9/9/9
f 8/8/8 9/9/9 10/10/10
f 10/10/10 9/9/9 11/11/11
f 10/10/10 11/11/11 12/12/12
f 12/12/12 11/11/11 13/13/13
f 12/12/12 13/13/13 14/14/14
f 14/14/14 13/13/13 15/15/15
f 14/14/14 15/15/15 16/16/16
f 17/17/17 4/4/4 1/1/1
f 17/17/17 18/18/18 4/4/4
f 19/19/19 18/18/18 17/17/17
f 19/19/19 20/20/20 18/18/18
f 21/21/21 20/20/20 19/19/19
f 21/21/21 22/22/22 20/20/20
f 23/23/23 22/22/22 21/21/21
f 23/23/23 24/24/24 22/22/22
f 25/25/25 24/24/24 23/23/23
f 25/25/25 26/26/26 24/24/24
f 27/27/27 29/29/29 28/28/28
f 27/27/27 30/30/30 29/29/29
f 29/29/29 30/30/30 31/31/31
f 29/29/29 31/31/31 32/32/32
f 32/32/32 31/31/31 33/33/33
f 32/32/32 33/33/33 34/34/34
f 34/34/34 33/33/33 35/35/35
f 34/34/34 35/35/35 36/36/36
f 36/36/36 35/35/35 37/37/37
f 36/36/36 37/37/37 38/38/38
f 39/39/39 41/41/41 40/40/40
f 40/40/40 41/41/41 42/42/42
f 40/40/40 42/42/42 43/43/43
f 43/43/43 42/42/42 44/44/44
f 43/43/43 44/44/44 45/45/45
f 45/45/45 44/44/44 46/46/46
f 45/45/45 46/46/46 47/47/47
f 47/47/47 46/46/46 48/48/48
f 47/47/47 48/48/48 49/49/49
f 49/49/49 48/48/48 50/50/50
f 51/51/51 53/53/53 52/52/52
f 51/51/51 54/54/54 53/53/53
f 52/52/52 53/53/53 55/55/55
f 52/52/52 55/55/55 56/56/56
f 56/56/56 55/55/55 57/57/57
f 56/56/56 57/57/57 58/58/58
f 58/58/58 57/57/57 59/59/59
f 58/58/58 59/59/59 60/60/60
f 60/60/60 59/59/59 61/61/61
f 60/60/60 61/61/61 62/62/62
f 62/62/62 61/61/61 63/63/63
f 62/62/62 63/63/63 64/64/64
f 64/64/64 63/63/63 65/65/65
f 64/64/64 65/65/65 66/66/66
f 66/66/66 65/65/65 67/67/67
f 66/66/66 67/67/67 68/68/68
f 68/68/68 67/67/67 69/69/69
f 68/68/68 69/69/69 70/70/70
f 70/70/70 69/69/69 71/71/71
f 70/70/70 71/71/71 72/72/72
f 72/72/72 71/71/71 73/73/73
f 72/72/72 73/73/73 74/74/74
f 74/74/74 73/73/73 54/54/54
f 74/74/74 54/54/54 51/51/51
f 75/75/75 77/77/77 76/76/76
f 75/75/75 78/78/78 77/77/77
f 76/76/76 77/77/77 79/79/79
f 76/76/76 79/79/79 80/80/80
f 80/80/80 79/79/79 81/81/81
f 80/80/80 81/81/81 82/82/82
f 82/82/82 81/81/81 83/83/83
f 82/82/82 83/83/83 84/84/84
f 84/84/84 83/83/83 85/85/85
f 84/84/84 85/85/85 86/86/86
f 86/86/86 85/85/85 87/87/87
f 86/86/86 87/87/87 88/88/88
f 88/88/88 87/87/87 89/89/89
f 88/88/88 89/89/89 90/90/90
f 90/90/90 89/89/89 91/91/91
f 90/90/90 91/91/91 92/92/92
f 92/92/92 91/91/91 93/93/93
f 92/92/92 93/93/93 94/94/94
f 94/94/94 93/93/93 95/95/95
f 94/94/94 95/95/95 96/96/96
f 96/96/96 95/95/95 97/97/97
f 96/96/96 97/97/97 98/98/98
f 98/98/98 97/97/97 78/78/78
f 98/98/98 78/78/78 75/75/75
f 99/99/99 101/101/101 100/100/100
f 99/99/99 102/102/102 101/101/101
f 103/103/103 99/99/99 100/100/100
f 103/103/103 100/100/100 104/104/104
f 105/105/105 103/103/103 104/104/104
f 105/105/105 104/104/104 106/106/106
f 107/107/107 105/105/105 106/106/106
f 107/107/107 106/106/106 108/108/108
f 109/109/109 107/107/107 108/108/108
f 109/109/109 108/108/108 110/110/110
f 111/111/111 109/109/109 110/110/110
f 111/111/111 110/110/110 112/112/112
f 113/113/113 111/111/111 112/112/112
f 113/113/113 112/112/112 114/114/114
f 115/115/115 113/113/113 114/114/114
f 115/115/115 114/114/114 116/116/116
f 117/117/117 115/115/115 116/116/116
f 117/117/117 116/116/116 118/118/118
f 119/119/119 117/117/117 118/118/118
f 119/119/119 118/118/118 120/120/120
f 121/121/121 119/119/119 120/120/120
f 121/121/121 120/120/120 122/122/122
f 102/102/102 121/121/121 122/122/122
f 102/102/102 122/122/122 101/101/101
