#wheel_backL_8554_424.obj

v -0.1067489 -0.09327713 -0.3437174
v 0.1055758 -0.0932771 -0.343717
v 0.106774 0.09212785 -0.343704
v -0.1067477 0.09212829 -0.3437052
v 0.1067723 0.2516522 -0.251591
v -0.1067436 0.2516529 -0.2515867
v 0.1067746 0.3437471 -0.09205426
v -0.1067481 0.3437473 -0.09205212
v 0.1067738 0.3437352 0.09215762
v -0.1067478 0.3437354 0.09215636
v 0.1067715 0.2516197 0.2516811
v -0.1067434 0.25162 0.251682
v 0.1067734 0.09208325 0.3437766
v -0.1067482 0.09208346 0.3437753
v 0.1055754 -0.09332639 0.3437636
v -0.1067493 -0.09332618 0.3437631
v -0.1067465 -0.2223799 -0.2516211
v -0.1067434 -0.2437378 -0.09209797
v 0.1356539 -0.2322769 -0.2516229
v 0.2067716 -0.24375 -0.09209542
v -0.1067443 -0.2437457 0.09211387
v 0.2067714 -0.2437459 0.0921129
v -0.1067472 -0.222385 0.2516473
v 0.1356819 -0.2322928 0.2516508
v -0.1067493 -0.09332618 0.3437631
v 0.1055754 -0.09332639 0.3437636
v -0.1067465 -0.2223799 -0.2516211
v -0.1067489 -0.09327713 -0.3437174
v -0.1067443 -0.2437457 0.09211387
v -0.1067434 -0.2437378 -0.09209797
v -0.1067477 0.09212829 -0.3437052
v -0.1067472 -0.222385 0.2516473
v -0.1067436 0.2516529 -0.2515867
v -0.1067493 -0.09332618 0.3437631
v -0.1067481 0.3437473 -0.09205212
v -0.1067482 0.09208346 0.3437753
v -0.1067478 0.3437354 0.09215636
v -0.1067434 0.25162 0.251682
v 0.1067726 -0.02515432 -0.09387323
v 0.106774 -0.06873625 -0.06871691
v 0.1067768 0.02516806 -0.09387074
v 0.1054061 -0.09526737 -0.02513675
v 0.1067708 0.06874674 -0.06870724
v 0.1054084 -0.09527084 0.02518523
v 0.1067747 0.0939048 -0.02512584
v 0.1067719 -0.06874531 0.06876659
v 0.106777 0.09390178 0.02519614
v 0.1067739 -0.02516663 0.09392885
v 0.1067766 0.06873791 0.06877502
v 0.106777 0.02515575 0.09393475
v 0.1055758 -0.0932771 -0.343717
v 0.1067766 -0.05522587 -0.2061326
v 0.1067756 0.05525455 -0.2061266
v 0.106774 0.09212785 -0.343704
v 0.1067776 0.15093 -0.1508781
v 0.1067723 0.2516522 -0.251591
v 0.1067734 0.2061638 -0.05519748
v 0.1067746 0.3437471 -0.09205426
v 0.1067729 0.2061565 0.05528251
v 0.1067738 0.3437352 0.09215762
v 0.1067765 0.1509102 0.1509593
v 0.1067715 0.2516197 0.2516811
v 0.106774 0.05522753 0.2061908
v 0.1067734 0.09208325 0.3437766
v 0.106775 -0.05525288 0.2061848
v 0.1055754 -0.09332639 0.3437636
v 0.09958974 -0.1581141 0.150938
v 0.1356819 -0.2322928 0.2516508
v 0.106741 -0.2061931 0.05525534
v 0.2067714 -0.2437459 0.0921129
v 0.1067416 -0.2061886 -0.05522463
v 0.2067716 -0.24375 -0.09209542
v 0.09959083 -0.1580934 -0.1508994
v 0.1356539 -0.2322769 -0.2516229
v 0.1067766 -0.05522587 -0.2061326
v 0.06712438 -0.03932059 -0.1467562
v 0.06712542 0.03934109 -0.1467503
v 0.1067756 0.05525455 -0.2061266
v 0.06712226 0.1074614 -0.1074177
v 0.1067776 0.15093 -0.1508781
v 0.0671233 0.1467878 -0.03929323
v 0.1067734 0.2061638 -0.05519748
v 0.06712693 0.1467829 0.03937179
v 0.1067729 0.2061565 0.05528251
v 0.06712693 0.1074476 0.1074904
v 0.1067765 0.1509102 0.1509593
v 0.0671212 0.03932187 0.1468152
v 0.106774 0.05522753 0.2061908
v 0.06712696 -0.03933957 0.1468114
v 0.106775 -0.05525288 0.2061848
v 0.06423606 -0.1103076 0.107476
v 0.09958974 -0.1581141 0.150938
v 0.06005953 -0.1537514 0.03935101
v 0.106741 -0.2061931 0.05525534
v 0.06006269 -0.153746 -0.03931187
v 0.1067416 -0.2061886 -0.05522463
v 0.06423812 -0.1102917 -0.10743
v 0.09959083 -0.1580934 -0.1508994
v 0.06712542 0.03934109 -0.1467503
v 0.06712438 -0.03932059 -0.1467562
v 0.1067726 -0.02515432 -0.09387323
v 0.1067768 0.02516806 -0.09387074
v 0.06712226 0.1074614 -0.1074177
v 0.1067708 0.06874674 -0.06870724
v 0.0671233 0.1467878 -0.03929323
v 0.1067747 0.0939048 -0.02512584
v 0.06712693 0.1467829 0.03937179
v 0.106777 0.09390178 0.02519614
v 0.06712693 0.1074476 0.1074904
v 0.1067766 0.06873791 0.06877502
v 0.0671212 0.03932187 0.1468152
v 0.106777 0.02515575 0.09393475
v 0.06712696 -0.03933957 0.1468114
v 0.1067739 -0.02516663 0.09392885
v 0.06423606 -0.1103076 0.107476
v 0.1067719 -0.06874531 0.06876659
v 0.06005953 -0.1537514 0.03935101
v 0.1054084 -0.09527084 0.02518523
v 0.06006269 -0.153746 -0.03931187
v 0.1054061 -0.09526737 -0.02513675
v 0.06423812 -0.1102917 -0.10743
v 0.106774 -0.06873625 -0.06871691

vn -0.3036339 -0.287173 -0.9084811
vn -0.3029766 -0.3025206 -0.9037069
vn -0.2825211 0.2687969 -0.9208311
vn -0.2825814 0.2682674 -0.920967
vn -0.1898858 0.7137445 -0.6741742
vn -0.1898856 0.7137449 -0.6741738
vn -0.04631061 0.9679742 -0.2467372
vn -0.04631049 0.9679743 -0.2467369
vn 0.1096732 0.962836 0.246813
vn 0.1096732 0.962836 0.246813
vn 0.2362702 0.6997061 0.6742303
vn 0.2362702 0.6997061 0.6742303
vn 0.2995331 0.2496255 0.9208512
vn 0.2995587 0.2490905 0.9209877
vn 0.2695154 -0.3214488 0.907762
vn 0.271816 -0.3061817 0.9123423
vn -0.1985015 -0.8521529 -0.4841808
vn -0.05605892 -0.9974435 -0.04428848
vn -0.1757169 -0.8969302 -0.405756
vn -0.05248995 -0.9979168 -0.03747953
vn -0.02636703 -0.9984172 0.04965458
vn -0.02736048 -0.9987405 0.04203048
vn 0.1106629 -0.862346 0.4940762
vn 0.08397736 -0.9054939 0.4159649
vn 0.271816 -0.3061817 0.9123423
vn 0.2695154 -0.3214488 0.907762
vn -0.9529536 0.03125828 0.3015002
vn -0.9529536 0.03125863 0.3015
vn -0.9529536 0.03125869 0.3015
vn -0.9529536 0.03125828 0.3015002
vn -0.9529535 0.03125911 0.3015001
vn -0.9529535 0.0312592 0.3015001
vn -0.9529535 0.03125938 0.3015001
vn -0.9529535 0.03125938 0.3015001
vn -0.9529535 0.03125958 0.3015002
vn -0.9529535 0.03125958 0.3015002
vn -0.9529534 0.03125999 0.3015004
vn -0.9529534 0.03125999 0.3015004
vn 0.9529545 -0.03125772 -0.3014972
vn 0.9581979 -0.03143219 -0.2843742
vn 0.958193 -0.03143203 -0.2843907
vn 0.954926 -0.03642525 -0.2946003
vn 0.9549519 -0.03639253 -0.2945208
vn 0.9511074 -0.0384294 -0.30646
vn 0.9510814 -0.03842854 -0.3065408
vn 0.9500878 -0.03624547 -0.30987
vn 0.9500986 -0.03622684 -0.3098388
vn 0.9529538 -0.03125897 -0.3014994
vn 0.9529538 -0.03125897 -0.3014994
vn 0.9529532 -0.03125957 -0.301501
vn 0.9633042 0.03594088 -0.2659953
vn 0.9633313 0.03616816 -0.2658657
vn 0.9522311 -0.03325687 -0.3035619
vn 0.9522311 -0.03325688 -0.303562
vn 0.9529535 -0.0312591 -0.3015003
vn 0.9529535 -0.0312591 -0.3015003
vn 0.9529535 -0.03125927 -0.3015003
vn 0.9529535 -0.03125927 -0.3015003
vn 0.9529536 -0.03125944 -0.3015
vn 0.9529536 -0.03125944 -0.3015
vn 0.9529536 -0.03125911 -0.3014999
vn 0.9529536 -0.03125911 -0.3014999
vn 0.953537 -0.03330673 -0.2994289
vn 0.953537 -0.03330673 -0.2994289
vn 0.9413695 0.03695517 -0.3353474
vn 0.9414201 0.03672589 -0.3352303
vn 0.8191481 0.4963994 -0.2873734
vn 0.86195 0.3964016 -0.3160815
vn 0.4864646 0.8624529 -0.139734
vn 0.5147654 0.844525 -0.1476228
vn 0.483591 0.8625154 -0.1490141
vn 0.5112025 0.8445929 -0.1591649
vn 0.8385513 0.4956115 -0.2262748
vn 0.8894521 0.3953672 -0.2292583
vn 0.9666432 0.07610614 0.2445586
vn 0.9666458 0.07658043 0.2444002
vn 0.9539817 -0.1716854 0.2458518
vn 0.9539817 -0.1716856 0.2458518
vn 0.9037364 -0.4131577 0.1120759
vn 0.9037364 -0.4131578 0.1120759
vn 0.8259116 -0.5509635 -0.1196188
vn 0.8259116 -0.5509635 -0.1196188
vn 0.7413596 -0.5481786 -0.3871502
vn 0.7413597 -0.5481787 -0.3871503
vn 0.6727362 -0.4055486 -0.6188341
vn 0.6727362 -0.4055485 -0.6188341
vn 0.6384296 -0.1612898 -0.7525907
vn 0.6384296 -0.16129 -0.7525907
vn 0.6511094 0.08696768 -0.7539846
vn 0.6510136 0.08649728 -0.7541213
vn 0.7027491 0.3414412 -0.6241482
vn 0.7038884 0.3487338 -0.6188096
vn 0.7335089 0.572029 -0.3670785
vn 0.7331934 0.5694968 -0.3716182
vn 0.814665 0.5693379 -0.1103379
vn 0.8170011 0.5667174 -0.1064892
vn 0.9358271 0.3337465 0.1133175
vn 0.9337351 0.3411469 0.1084315
vn 0.6060493 0.1320384 -0.7843913
vn 0.5931382 -0.1804138 -0.7846256
vn 0.5930924 -0.178371 -0.7851272
vn 0.6060493 0.1320387 -0.7843912
vn 0.6604209 0.3933384 -0.6396316
vn 0.6604209 0.3933387 -0.6396313
vn 0.7446364 0.5424604 -0.388912
vn 0.7446364 0.5424604 -0.3889121
vn 0.8361303 0.5394464 -0.09941378
vn 0.8361304 0.5394464 -0.09941363
vn 0.910387 0.3851048 0.1512927
vn 0.910387 0.3851047 0.1512928
vn 0.94751 0.1207906 0.2960311
vn 0.9475101 0.1207905 0.2960312
vn 0.9352083 -0.1916859 0.2977281
vn 0.9354715 -0.189652 0.2982038
vn 0.8725036 -0.465906 0.1472029
vn 0.8758456 -0.4566244 0.1561669
vn 0.7862133 -0.6092458 -0.1033792
vn 0.7889819 -0.6070521 -0.09483947
vn 0.6991925 -0.6063801 -0.3787243
vn 0.6965632 -0.6040078 -0.3872641
vn 0.626677 -0.4578055 -0.630626
vn 0.6243173 -0.4483382 -0.6397032

vt 0.894043 0.8886719
vt 0.894043 0.8657227
vt 0.8735352 0.8657227
vt 0.8735352 0.8886719
vt 0.8535156 0.8657227
vt 0.8535156 0.8886719
vt 0.8334961 0.8657227
vt 0.8334961 0.8886719
vt 0.8134766 0.8657227
vt 0.8134766 0.8886719
vt 0.793457 0.8657227
vt 0.793457 0.8886719
vt 0.7734375 0.8657227
vt 0.7734375 0.8886719
vt 0.753418 0.8657227
vt 0.753418 0.8886719
vt 0.9140625 0.8886719
vt 0.934082 0.8886719
vt 0.9140625 0.8657227
vt 0.934082 0.8657227
vt 0.9541016 0.8886719
vt 0.9541016 0.8657227
vt 0.9741211 0.8886719
vt 0.9741211 0.8657227
vt 0.9941406 0.8886719
vt 0.9941406 0.8657227
vt 0.5517578 0.7646484
vt 0.5332031 0.7539063
vt 0.5625 0.8046875
vt 0.5625 0.7832031
vt 0.5117188 0.7539063
vt 0.5522461 0.8232422
vt 0.4934082 0.7646484
vt 0.5336914 0.8339844
vt 0.482666 0.7836914
vt 0.512207 0.8339844
vt 0.482666 0.8051758
vt 0.4934082 0.8232422
vt 0.5249023 0.7875977
vt 0.5214844 0.7875977
vt 0.527832 0.7895508
vt 0.5185547 0.7890625
vt 0.5292969 0.7924805
vt 0.5166016 0.7919922
vt 0.5292969 0.7963867
vt 0.5166016 0.7954102
vt 0.5273438 0.7988281
vt 0.5180664 0.7988281
vt 0.5244141 0.8007813
vt 0.5209961 0.800293
vt 0.534668 0.753418
vt 0.5297852 0.7695313
vt 0.5410156 0.7763672
vt 0.5532227 0.7651367
vt 0.5473633 0.7880859
vt 0.5639648 0.7836914
vt 0.5473633 0.8012695
vt 0.5634766 0.8056641
vt 0.5405273 0.8125
vt 0.5527344 0.824707
vt 0.5292969 0.8188477
vt 0.5332031 0.8359375
vt 0.5161133 0.8183594
vt 0.5112305 0.8349609
vt 0.5048828 0.8115234
vt 0.4924316 0.8232422
vt 0.4985352 0.800293
vt 0.4821777 0.8041992
vt 0.4987793 0.7871094
vt 0.4824219 0.7827148
vt 0.5053711 0.7758789
vt 0.4934082 0.7636719
vt 0.5166016 0.7695313
vt 0.5126953 0.7524414
vt 0.5297852 0.7695313
vt 0.5273438 0.777832
vt 0.534668 0.7822266
vt 0.5410156 0.7763672
vt 0.5390625 0.7900391
vt 0.5473633 0.7880859
vt 0.5390625 0.7988281
vt 0.5473633 0.8012695
vt 0.534668 0.8061523
vt 0.5405273 0.8125
vt 0.5268555 0.8105469
vt 0.5292969 0.8188477
vt 0.5185547 0.8100586
vt 0.5161133 0.8183594
vt 0.5107422 0.8056641
vt 0.5048828 0.8115234
vt 0.5068359 0.7983398
vt 0.4985352 0.800293
vt 0.5068359 0.7895508
vt 0.4987793 0.7871094
vt 0.5112305 0.7822266
vt 0.5053711 0.7758789
vt 0.519043 0.777832
vt 0.5166016 0.7695313
vt 0.534668 0.7822266
vt 0.5273438 0.777832
vt 0.5249023 0.7875977
vt 0.527832 0.7895508
vt 0.5390625 0.7900391
vt 0.5292969 0.7924805
vt 0.5390625 0.7988281
vt 0.5292969 0.7963867
vt 0.534668 0.8061523
vt 0.5273438 0.7988281
vt 0.5268555 0.8105469
vt 0.5244141 0.8007813
vt 0.5185547 0.8100586
vt 0.5209961 0.800293
vt 0.5107422 0.8056641
vt 0.5180664 0.7988281
vt 0.5068359 0.7983398
vt 0.5166016 0.7954102
vt 0.5068359 0.7895508
vt 0.5166016 0.7919922
vt 0.5112305 0.7822266
vt 0.5185547 0.7890625
vt 0.519043 0.777832
vt 0.5214844 0.7875977

g wheel_backL_8554_424
usemtl wheel_backL_8554_424
usemap wheel_backL_8554_424
f 1/1/1 3/3/3 2/2/2
f 1/1/1 4/4/4 3/3/3
f 4/4/4 5/5/5 3/3/3
f 4/4/4 6/6/6 5/5/5
f 6/6/6 7/7/7 5/5/5
f 6/6/6 8/8/8 7/7/7
f 8/8/8 9/9/9 7/7/7
f 8/8/8 10/10/10 9/9/9
f 10/10/10 11/11/11 9/9/9
f 10/10/10 12/12/12 11/11/11
f 12/12/12 13/13/13 11/11/11
f 12/12/12 14/14/14 13/13/13
f 14/14/14 15/15/15 13/13/13
f 14/14/14 16/16/16 15/15/15
f 17/17/17 1/1/1 2/2/2
f 18/18/18 17/17/17 19/19/19
f 18/18/18 19/19/19 20/20/20
f 21/21/21 18/18/18 20/20/20
f 21/21/21 20/20/20 22/22/22
f 23/23/23 21/21/21 22/22/22
f 23/23/23 22/22/22 24/24/24
f 25/25/25 23/23/23 24/24/24
f 25/25/25 24/24/24 26/26/26
f 17/17/17 2/2/2 19/19/19
f 27/27/27 29/29/29 28/28/28
f 27/27/27 30/30/30 29/29/29
f 29/29/29 31/31/31 28/28/28
f 29/29/29 32/32/32 31/31/31
f 32/32/32 33/33/33 31/31/31
f 32/32/32 34/34/34 33/33/33
f 34/34/34 35/35/35 33/33/33
f 34/34/34 36/36/36 35/35/35
f 36/36/36 37/37/37 35/35/35
f 36/36/36 38/38/38 37/37/37
f 39/39/39 41/41/41 40/40/40
f 41/41/41 42/42/42 40/40/40
f 41/41/41 43/43/43 42/42/42
f 43/43/43 44/44/44 42/42/42
f 43/43/43 45/45/45 44/44/44
f 45/45/45 46/46/46 44/44/44
f 45/45/45 47/47/47 46/46/46
f 47/47/47 48/48/48 46/46/46
f 47/47/47 49/49/49 48/48/48
f 49/49/49 50/50/50 48/48/48
f 51/51/51 53/53/53 52/52/52
f 51/51/51 54/54/54 53/53/53
f 54/54/54 55/55/55 53/53/53
f 54/54/54 56/56/56 55/55/55
f 56/56/56 57/57/57 55/55/55
f 56/56/56 58/58/58 57/57/57
f 58/58/58 59/59/59 57/57/57
f 58/58/58 60/60/60 59/59/59
f 60/60/60 61/61/61 59/59/59
f 60/60/60 62/62/62 61/61/61
f 62/62/62 63/63/63 61/61/61
f 62/62/62 64/64/64 63/63/63
f 64/64/64 65/65/65 63/63/63
f 64/64/64 66/66/66 65/65/65
f 66/66/66 67/67/67 65/65/65
f 66/66/66 68/68/68 67/67/67
f 68/68/68 69/69/69 67/67/67
f 68/68/68 70/70/70 69/69/69
f 70/70/70 71/71/71 69/69/69
f 70/70/70 72/72/72 71/71/71
f 72/72/72 73/73/73 71/71/71
f 72/72/72 74/74/74 73/73/73
f 74/74/74 52/52/52 73/73/73
f 74/74/74 51/51/51 52/52/52
f 75/75/75 77/77/77 76/76/76
f 75/75/75 78/78/78 77/77/77
f 78/78/78 79/79/79 77/77/77
f 78/78/78 80/80/80 79/79/79
f 80/80/80 81/81/81 79/79/79
f 80/80/80 82/82/82 81/81/81
f 82/82/82 83/83/83 81/81/81
f 82/82/82 84/84/84 83/83/83
f 84/84/84 85/85/85 83/83/83
f 84/84/84 86/86/86 85/85/85
f 86/86/86 87/87/87 85/85/85
f 86/86/86 88/88/88 87/87/87
f 88/88/88 89/89/89 87/87/87
f 88/88/88 90/90/90 89/89/89
f 90/90/90 91/91/91 89/89/89
f 90/90/90 92/92/92 91/91/91
f 92/92/92 93/93/93 91/91/91
f 92/92/92 94/94/94 93/93/93
f 94/94/94 95/95/95 93/93/93
f 94/94/94 96/96/96 95/95/95
f 96/96/96 97/97/97 95/95/95
f 96/96/96 98/98/98 97/97/97
f 98/98/98 76/76/76 97/97/97
f 98/98/98 75/75/75 76/76/76
f 99/99/99 101/101/101 100/100/100
f 99/99/99 102/102/102 101/101/101
f 103/103/103 102/102/102 99/99/99
f 103/103/103 104/104/104 102/102/102
f 105/105/105 104/104/104 103/103/103
f 105/105/105 106/106/106 104/104/104
f 107/107/107 106/106/106 105/105/105
f 107/107/107 108/108/108 106/106/106
f 109/109/109 108/108/108 107/107/107
f 109/109/109 110/110/110 108/108/108
f 111/111/111 110/110/110 109/109/109
f 111/111/111 112/112/112 110/110/110
f 113/113/113 112/112/112 111/111/111
f 113/113/113 114/114/114 112/112/112
f 115/115/115 114/114/114 113/113/113
f 115/115/115 116/116/116 114/114/114
f 117/117/117 116/116/116 115/115/115
f 117/117/117 118/118/118 116/116/116
f 119/119/119 118/118/118 117/117/117
f 119/119/119 120/120/120 118/118/118
f 121/121/121 120/120/120 119/119/119
f 121/121/121 122/122/122 120/120/120
f 100/100/100 122/122/122 121/121/121
f 100/100/100 101/101/101 122/122/122
