#wheel_frontR_11269_60.obj

v 0.106766 -0.09208248 -0.3437474
v -0.1067547 0.09212693 -0.343737
v -0.1067541 -0.09208248 -0.3437474
v 0.1067653 0.09212737 -0.3437352
v -0.1067536 0.2516515 -0.2516215
v 0.1067665 0.2516517 -0.2516215
v -0.1067546 0.343746 -0.09208392
v 0.1067655 0.3437465 -0.09208387
v -0.1067547 0.3437343 0.09212602
v 0.1067654 0.3437345 0.09212607
v -0.1067548 0.251619 0.2516498
v 0.1067653 0.251619 0.2516498
v -0.1067543 0.09208244 0.3437443
v 0.1067658 0.09208244 0.3437444
v -0.1067553 -0.09212762 0.3437321
v 0.1067665 -0.0921274 0.3437323
v 0.1067666 -0.251619 -0.2516528
v -0.1067535 -0.251619 -0.2516528
v 0.1067664 -0.3437343 -0.09212904
v -0.1067537 -0.3437343 -0.09212909
v 0.1067663 -0.3437465 0.0920809
v -0.1067538 -0.3437467 0.09208085
v 0.1067654 -0.2516518 0.2516168
v -0.1067529 -0.251652 0.2516168
v 0.1067665 -0.0921274 0.3437323
v -0.1067553 -0.09212762 0.3437321
v 0.1067664 -0.3437343 -0.09212904
v 0.106766 -0.09208248 -0.3437474
v 0.1067666 -0.251619 -0.2516528
v 0.1067663 -0.3437465 0.0920809
v 0.1067654 -0.2516518 0.2516168
v 0.1067653 0.09212737 -0.3437352
v 0.1067665 -0.0921274 0.3437323
v 0.1067665 0.2516517 -0.2516215
v 0.1067658 0.09208244 0.3437444
v 0.1067655 0.3437465 -0.09208387
v 0.1067653 0.251619 0.2516498
v 0.1067654 0.3437345 0.09212607
v -0.106754 -0.02515504 -0.09390626
v -0.1067542 0.02516716 -0.0939028
v -0.106755 -0.06873715 -0.06874797
v -0.1067538 0.06874579 -0.06873921
v -0.1067536 -0.0939014 -0.02516854
v -0.1067543 0.09390397 -0.02515641
v -0.1067541 -0.09390444 0.02515334
v -0.1067548 0.09390093 0.02516547
v -0.1067546 -0.06874605 0.06873613
v -0.1067551 0.0687369 0.06874479
v -0.1067541 -0.02516741 0.09389972
v -0.1067543 0.02515479 0.09390319
v -0.1067541 -0.09208248 -0.3437474
v -0.1067545 0.05525363 -0.2061571
v -0.1067541 -0.05522697 -0.206164
v -0.1067547 0.09212693 -0.343737
v -0.106755 0.1509289 -0.1509116
v -0.1067536 0.2516515 -0.2516215
v -0.106754 0.2061629 -0.05522795
v -0.1067546 0.343746 -0.09208392
v -0.1067542 0.2061557 0.05525271
v -0.1067547 0.3437343 0.09212602
v -0.1067545 0.1509091 0.1509276
v -0.1067548 0.251619 0.2516498
v -0.1067542 0.05522672 0.206161
v -0.1067543 0.09208244 0.3437443
v -0.1067538 -0.05525388 0.206154
v -0.1067553 -0.09212762 0.3437321
v -0.106755 -0.1509291 0.1509067
v -0.1067529 -0.251652 0.2516168
v -0.1067544 -0.2061631 0.05522488
v -0.1067538 -0.3437467 0.09208085
v -0.1067541 -0.2061559 -0.05525578
v -0.1067537 -0.3437343 -0.09212909
v -0.1067539 -0.1509093 -0.1509307
v -0.1067535 -0.251619 -0.2516528
v -0.1067545 0.05525363 -0.2061571
v -0.06710344 -0.03932142 -0.146789
v -0.1067541 -0.05522697 -0.206164
v -0.06710374 0.03934027 -0.1467838
v -0.106755 0.1509289 -0.1509116
v -0.06710498 0.1074607 -0.1074487
v -0.106754 0.2061629 -0.05522795
v -0.0671041 0.146787 -0.03932254
v -0.1067542 0.2061557 0.05525271
v -0.06710435 0.1467818 0.03933908
v -0.1067545 0.1509091 0.1509276
v -0.0671048 0.1074466 0.1074582
v -0.1067542 0.05522672 0.206161
v -0.06710381 0.03932117 0.1467848
v -0.1067538 -0.05525388 0.206154
v -0.06710351 -0.03934052 0.1467796
v -0.106755 -0.1509291 0.1509067
v -0.067104 -0.1074609 0.1074444
v -0.1067544 -0.2061631 0.05522488
v -0.06710499 -0.1467872 0.03931991
v -0.1067541 -0.2061559 -0.05525578
v -0.06710473 -0.1467822 -0.03934171
v -0.1067539 -0.1509093 -0.1509307
v -0.06710418 -0.1074468 -0.1074626
v -0.1067542 0.02516716 -0.0939028
v -0.06710344 -0.03932142 -0.146789
v -0.06710374 0.03934027 -0.1467838
v -0.106754 -0.02515504 -0.09390626
v -0.1067538 0.06874579 -0.06873921
v -0.06710498 0.1074607 -0.1074487
v -0.1067543 0.09390397 -0.02515641
v -0.0671041 0.146787 -0.03932254
v -0.1067548 0.09390093 0.02516547
v -0.06710435 0.1467818 0.03933908
v -0.1067551 0.0687369 0.06874479
v -0.0671048 0.1074466 0.1074582
v -0.1067543 0.02515479 0.09390319
v -0.06710381 0.03932117 0.1467848
v -0.1067541 -0.02516741 0.09389972
v -0.06710351 -0.03934052 0.1467796
v -0.1067546 -0.06874605 0.06873613
v -0.067104 -0.1074609 0.1074444
v -0.1067541 -0.09390444 0.02515334
v -0.06710499 -0.1467872 0.03931991
v -0.1067536 -0.0939014 -0.02516854
v -0.06710473 -0.1467822 -0.03934171
v -0.106755 -0.06873715 -0.06874797
v -0.06710418 -0.1074468 -0.1074626

vn 0.9643408 -0.2587565 -0.05559995
vn 0.9643075 0.2588807 -0.05559782
vn 0.9643406 -0.2587573 -0.05560052
vn 0.9643072 0.2588823 -0.05559729
vn 0.7058881 0.7071525 -0.04069905
vn 0.705888 0.7071525 -0.04069927
vn 0.2583273 0.965942 -0.0148953
vn 0.2583271 0.965942 -0.01489539
vn -0.2584524 0.9659083 0.01490002
vn -0.2584527 0.9659083 0.01490018
vn -0.7059806 0.7070599 0.04070316
vn -0.7059806 0.7070599 0.04070328
vn -0.9643413 0.2587548 0.05559967
vn -0.9643413 0.258755 0.0555997
vn -0.9643074 -0.2588817 0.05559814
vn -0.9643072 -0.2588822 0.0555981
vn 0.7059801 -0.7070603 -0.04070453
vn 0.7059801 -0.7070603 -0.04070447
vn 0.2584532 -0.9659081 -0.01490131
vn 0.2584536 -0.965908 -0.01490109
vn -0.2583266 -0.9659421 0.01489462
vn -0.2583253 -0.9659425 0.01489462
vn -0.7058886 -0.707152 0.04069908
vn -0.7058884 -0.7071522 0.04069907
vn -0.9643072 -0.2588822 0.0555981
vn -0.9643074 -0.2588817 0.05559814
vn 0.05756191 -7.454574E-07 0.9983419
vn 0.0575616 -6.323218E-07 0.9983419
vn 0.05756116 0 0.9983419
vn 0.05756147 3.644245E-14 0.9983419
vn 0.05756126 1.196122E-14 0.9983419
vn 0.05756135 -3.31322E-07 0.9983419
vn 0.05756116 0 0.9983419
vn 0.05756116 0 0.9983419
vn 0.05756116 0 0.9983419
vn 0.05756116 0 0.9983419
vn 0.05756116 0 0.9983419
vn 0.05756116 0 0.9983419
vn -0.05756116 0 -0.9983419
vn -0.05756116 0 -0.9983419
vn -0.05756116 0 -0.9983419
vn -0.05756116 0 -0.9983419
vn -0.05756116 0 -0.9983419
vn -0.05756116 0 -0.9983419
vn -0.05756116 0 -0.9983419
vn -0.05756116 0 -0.9983419
vn -0.05756116 0 -0.9983419
vn -0.05756116 0 -0.9983419
vn -0.05756116 0 -0.9983419
vn -0.05756116 0 -0.9983419
vn -0.05756205 1.007076E-07 -0.9983419
vn -0.05756145 2.443907E-07 -0.9983419
vn -0.05756206 -1.076968E-13 -0.9983419
vn -0.05756127 4.141629E-07 -0.9983419
vn -0.05756116 0 -0.9983419
vn -0.05756116 0 -0.9983419
vn -0.05756116 0 -0.9983419
vn -0.05756116 0 -0.9983419
vn -0.05756116 0 -0.9983419
vn -0.05756149 1.015757E-07 -0.9983419
vn -0.05756199 3.816961E-07 -0.9983419
vn -0.05756188 5.328299E-07 -0.9983419
vn -0.05756129 3.580474E-07 -0.9983419
vn -0.05756105 4.141758E-07 -0.9983419
vn -0.05756116 0 -0.9983419
vn -0.05756238 -3.997113E-06 -0.9983419
vn -0.05756573 -9.87374E-06 -0.9983417
vn -0.05756755 -8.657757E-06 -0.9983416
vn -0.05756545 -1.576513E-06 -0.9983417
vn -0.05756612 1.331388E-06 -0.9983416
vn -0.05756116 0 -0.9983419
vn -0.05756116 0 -0.9983419
vn -0.05756116 0 -0.9983419
vn -0.0575615 -4.044232E-14 -0.9983419
vn -0.5710796 -0.1403285 -0.8088116
vn -0.5710977 0.1402603 -0.8088105
vn -0.571098 0.1402605 -0.8088104
vn -0.5710791 -0.1403286 -0.8088117
vn -0.4310009 -0.3833156 -0.8168887
vn -0.4310005 -0.3833156 -0.8168889
vn -0.188398 -0.5235931 -0.8308766
vn -0.1883986 -0.5235934 -0.8308763
vn 0.09172438 -0.5235761 -0.8470267
vn 0.09172416 -0.5235766 -0.8470263
vn 0.3343101 -0.3832661 -0.8610131
vn 0.3343103 -0.383266 -0.8610131
vn 0.4743561 -0.1402602 -0.8690874
vn 0.4743562 -0.1402604 -0.8690873
vn 0.4743381 0.1403284 -0.8690862
vn 0.4743381 0.1403283 -0.8690862
vn 0.3342596 0.3833164 -0.8610102
vn 0.3342595 0.3833164 -0.8610102
vn 0.09165646 0.5235946 -0.8470225
vn 0.091657 0.5235947 -0.8470224
vn -0.1884675 0.5235765 -0.8308714
vn -0.1884677 0.5235765 -0.8308713
vn -0.4310527 0.383267 -0.8168842
vn -0.4310528 0.3832667 -0.8168843
vn 0.519009 0.1518518 -0.8411719
vn 0.5190288 -0.1517769 -0.8411732
vn 0.5190087 0.1518503 -0.8411724
vn 0.5190291 -0.1517767 -0.8411731
vn 0.3674286 0.4147892 -0.8324336
vn 0.3674288 0.4147881 -0.8324339
vn 0.1049061 0.5665852 -0.8172976
vn 0.1049055 0.5665858 -0.8172972
vn -0.1982186 0.5665665 -0.7998195
vn -0.198219 0.5665669 -0.7998193
vn -0.4607224 0.4147356 -0.784684
vn -0.460722 0.4147359 -0.7846842
vn -0.6122668 0.1517772 -0.7759466
vn -0.6122667 0.1517772 -0.7759466
vn -0.6122471 -0.15185 -0.7759477
vn -0.6122473 -0.1518507 -0.7759476
vn -0.4606682 -0.4147901 -0.7846869
vn -0.4606679 -0.414791 -0.7846868
vn -0.1981456 -0.5665869 -0.7998233
vn -0.1981447 -0.5665874 -0.799823
vn 0.104981 -0.5665673 -0.8173005
vn 0.1049808 -0.5665674 -0.8173004
vn 0.3674849 -0.4147359 -0.8324352
vn 0.3674844 -0.414736 -0.8324354

vt 0.894043 0.8886719
vt 0.8735352 0.8657227
vt 0.894043 0.8657227
vt 0.8735352 0.8886719
vt 0.8535156 0.8657227
vt 0.8535156 0.8886719
vt 0.8334961 0.8657227
vt 0.8334961 0.8886719
vt 0.8134766 0.8657227
vt 0.8134766 0.8886719
vt 0.793457 0.8657227
vt 0.793457 0.8886719
vt 0.7734375 0.8657227
vt 0.7734375 0.8886719
vt 0.753418 0.8657227
vt 0.753418 0.8886719
vt 0.9140625 0.8886719
vt 0.9140625 0.8657227
vt 0.934082 0.8886719
vt 0.934082 0.8657227
vt 0.9541016 0.8886719
vt 0.9541016 0.8657227
vt 0.9741211 0.8886719
vt 0.9741211 0.8657227
vt 0.9941406 0.8886719
vt 0.9941406 0.8657227
vt 0.5625 0.7832031
vt 0.5332031 0.7539063
vt 0.5517578 0.7646484
vt 0.5625 0.8046875
vt 0.5522461 0.8232422
vt 0.5117188 0.7539063
vt 0.5336914 0.8339844
vt 0.4934082 0.7646484
vt 0.512207 0.8339844
vt 0.482666 0.7836914
vt 0.4934082 0.8232422
vt 0.482666 0.8051758
vt 0.5249023 0.7875977
vt 0.527832 0.7895508
vt 0.5214844 0.7875977
vt 0.5292969 0.7924805
vt 0.5185547 0.7890625
vt 0.5292969 0.7963867
vt 0.5166016 0.7919922
vt 0.5273438 0.7988281
vt 0.5166016 0.7954102
vt 0.5244141 0.8007813
vt 0.5180664 0.7988281
vt 0.5209961 0.800293
vt 0.534668 0.753418
vt 0.5410156 0.7763672
vt 0.5297852 0.7695313
vt 0.5532227 0.7651367
vt 0.5473633 0.7880859
vt 0.5639648 0.7836914
vt 0.5473633 0.8012695
vt 0.5634766 0.8056641
vt 0.5405273 0.8125
vt 0.5527344 0.824707
vt 0.5292969 0.8188477
vt 0.5332031 0.8359375
vt 0.5161133 0.8183594
vt 0.5112305 0.8349609
vt 0.5048828 0.8115234
vt 0.4924316 0.8232422
vt 0.4985352 0.800293
vt 0.4821777 0.8041992
vt 0.4987793 0.7871094
vt 0.4824219 0.7827148
vt 0.5053711 0.7758789
vt 0.4934082 0.7636719
vt 0.5166016 0.7695313
vt 0.5126953 0.7524414
vt 0.5410156 0.7763672
vt 0.5273438 0.777832
vt 0.5297852 0.7695313
vt 0.534668 0.7822266
vt 0.5473633 0.7880859
vt 0.5390625 0.7900391
vt 0.5473633 0.8012695
vt 0.5390625 0.7988281
vt 0.5405273 0.8125
vt 0.534668 0.8061523
vt 0.5292969 0.8188477
vt 0.5268555 0.8105469
vt 0.5161133 0.8183594
vt 0.5185547 0.8100586
vt 0.5048828 0.8115234
vt 0.5107422 0.8056641
vt 0.4985352 0.800293
vt 0.5068359 0.7983398
vt 0.4987793 0.7871094
vt 0.5068359 0.7895508
vt 0.5053711 0.7758789
vt 0.5112305 0.7822266
vt 0.5166016 0.7695313
vt 0.519043 0.777832
vt 0.527832 0.7895508
vt 0.5273438 0.777832
vt 0.534668 0.7822266
vt 0.5249023 0.7875977
vt 0.5292969 0.7924805
vt 0.5390625 0.7900391
vt 0.5292969 0.7963867
vt 0.5390625 0.7988281
vt 0.5273438 0.7988281
vt 0.534668 0.8061523
vt 0.5244141 0.8007813
vt 0.5268555 0.8105469
vt 0.5209961 0.800293
vt 0.5185547 0.8100586
vt 0.5180664 0.7988281
vt 0.5107422 0.8056641
vt 0.5166016 0.7954102
vt 0.5068359 0.7983398
vt 0.5166016 0.7919922
vt 0.5068359 0.7895508
vt 0.5185547 0.7890625
vt 0.5112305 0.7822266
vt 0.5214844 0.7875977
vt 0.519043 0.777832

g wheel_frontR_11269_60
usemtl wheel_frontR_11269_60
usemap wheel_frontR_11269_60
f 1/1/1 3/3/3 2/2/2
f 2/2/2 4/4/4 1/1/1
f 4/4/4 2/2/2 5/5/5
f 5/5/5 6/6/6 4/4/4
f 6/6/6 5/5/5 7/7/7
f 7/7/7 8/8/8 6/6/6
f 8/8/8 7/7/7 9/9/9
f 9/9/9 10/10/10 8/8/8
f 10/10/10 9/9/9 11/11/11
f 11/11/11 12/12/12 10/10/10
f 12/12/12 11/11/11 13/13/13
f 13/13/13 14/14/14 12/12/12
f 14/14/14 13/13/13 15/15/15
f 15/15/15 16/16/16 14/14/14
f 3/3/3 1/1/1 17/17/17
f 17/17/17 18/18/18 3/3/3
f 18/18/18 17/17/17 19/19/19
f 19/19/19 20/20/20 18/18/18
f 20/20/20 19/19/19 21/21/21
f 21/21/21 22/22/22 20/20/20
f 22/22/22 21/21/21 23/23/23
f 23/23/23 24/24/24 22/22/22
f 24/24/24 23/23/23 25/25/25
f 25/25/25 26/26/26 24/24/24
f 27/27/27 29/29/29 28/28/28
f 28/28/28 30/30/30 27/27/27
f 31/31/31 30/30/30 28/28/28
f 28/28/28 32/32/32 31/31/31
f 33/33/33 31/31/31 32/32/32
f 32/32/32 34/34/34 33/33/33
f 35/35/35 33/33/33 34/34/34
f 34/34/34 36/36/36 35/35/35
f 37/37/37 35/35/35 36/36/36
f 36/36/36 38/38/38 37/37/37
f 39/39/39 41/41/41 40/40/40
f 42/42/42 40/40/40 41/41/41
f 41/41/41 43/43/43 42/42/42
f 44/44/44 42/42/42 43/43/43
f 43/43/43 45/45/45 44/44/44
f 46/46/46 44/44/44 45/45/45
f 45/45/45 47/47/47 46/46/46
f 48/48/48 46/46/46 47/47/47
f 47/47/47 49/49/49 48/48/48
f 48/48/48 49/49/49 50/50/50
f 51/51/51 53/53/53 52/52/52
f 52/52/52 54/54/54 51/51/51
f 54/54/54 52/52/52 55/55/55
f 55/55/55 56/56/56 54/54/54
f 56/56/56 55/55/55 57/57/57
f 57/57/57 58/58/58 56/56/56
f 58/58/58 57/57/57 59/59/59
f 59/59/59 60/60/60 58/58/58
f 60/60/60 59/59/59 61/61/61
f 61/61/61 62/62/62 60/60/60
f 62/62/62 61/61/61 63/63/63
f 63/63/63 64/64/64 62/62/62
f 64/64/64 63/63/63 65/65/65
f 65/65/65 66/66/66 64/64/64
f 66/66/66 65/65/65 67/67/67
f 67/67/67 68/68/68 66/66/66
f 68/68/68 67/67/67 69/69/69
f 69/69/69 70/70/70 68/68/68
f 70/70/70 69/69/69 71/71/71
f 71/71/71 72/72/72 70/70/70
f 72/72/72 71/71/71 73/73/73
f 73/73/73 74/74/74 72/72/72
f 74/74/74 73/73/73 53/53/53
f 53/53/53 51/51/51 74/74/74
f 75/75/75 77/77/77 76/76/76
f 76/76/76 78/78/78 75/75/75
f 79/79/79 75/75/75 78/78/78
f 78/78/78 80/80/80 79/79/79
f 81/81/81 79/79/79 80/80/80
f 80/80/80 82/82/82 81/81/81
f 83/83/83 81/81/81 82/82/82
f 82/82/82 84/84/84 83/83/83
f 85/85/85 83/83/83 84/84/84
f 84/84/84 86/86/86 85/85/85
f 87/87/87 85/85/85 86/86/86
f 86/86/86 88/88/88 87/87/87
f 89/89/89 87/87/87 88/88/88
f 88/88/88 90/90/90 89/89/89
f 91/91/91 89/89/89 90/90/90
f 90/90/90 92/92/92 91/91/91
f 93/93/93 91/91/91 92/92/92
f 92/92/92 94/94/94 93/93/93
f 95/95/95 93/93/93 94/94/94
f 94/94/94 96/96/96 95/95/95
f 97/97/97 95/95/95 96/96/96
f 96/96/96 98/98/98 97/97/97
f 77/77/77 97/97/97 98/98/98
f 98/98/98 76/76/76 77/77/77
f 99/99/99 101/101/101 100/100/100
f 100/100/100 102/102/102 99/99/99
f 101/101/101 99/99/99 103/103/103
f 103/103/103 104/104/104 101/101/101
f 104/104/104 103/103/103 105/105/105
f 105/105/105 106/106/106 104/104/104
f 106/106/106 105/105/105 107/107/107
f 107/107/107 108/108/108 106/106/106
f 108/108/108 107/107/107 109/109/109
f 109/109/109 110/110/110 108/108/108
f 110/110/110 109/109/109 111/111/111
f 111/111/111 112/112/112 110/110/110
f 112/112/112 111/111/111 113/113/113
f 113/113/113 114/114/114 112/112/112
f 114/114/114 113/113/113 115/115/115
f 115/115/115 116/116/116 114/114/114
f 116/116/116 115/115/115 117/117/117
f 117/117/117 118/118/118 116/116/116
f 118/118/118 117/117/117 119/119/119
f 119/119/119 120/120/120 118/118/118
f 120/120/120 119/119/119 121/121/121
f 121/121/121 122/122/122 120/120/120
f 122/122/122 121/121/121 102/102/102
f 102/102/102 100/100/100 122/122/122
