#wheel_backR_9814_1386.obj

v 0.1406339 -0.355772 0.09538335
v -0.08035858 -0.2604315 0.2604941
v 0.1406347 -0.2604308 0.260495
v -0.08035941 -0.355772 0.0953825
v -0.08036443 -0.09530786 0.3558143
v 0.1406357 -0.09530786 0.3558133
v -0.0803603 0.09535305 0.3558021
v 0.1406399 0.0953535 0.3558011
v -0.08035998 0.2604642 0.2604613
v 0.1406402 0.2604644 0.2604603
v -0.08036357 0.3557837 0.09533929
v 0.1406366 0.3557839 0.09533831
v -0.08035833 0.3557712 -0.09532514
v 0.140635 0.3557715 -0.09532429
v -0.08035916 0.2604298 -0.2604368
v 0.1406341 0.2604301 -0.2604359
v 0.14064 -0.3557842 -0.09527764
v -0.08036014 -0.3557842 -0.09527665
v 0.1406364 -0.2604645 -0.2603996
v -0.08036465 -0.2604645 -0.2604021
v 0.1406368 -0.09535424 -0.3557405
v -0.08036433 -0.09535446 -0.3557429
v 0.14064 0.09530668 -0.3557561
v -0.0803602 0.09530646 -0.3557551
v 0.1406341 0.2604301 -0.2604359
v -0.08035916 0.2604298 -0.2604368
v 0.1406364 -0.2604645 -0.2603996
v 0.1406339 -0.355772 0.09538335
v 0.1406368 -0.09535424 -0.3557405
v 0.14064 -0.3557842 -0.09527764
v 0.14064 0.09530668 -0.3557561
v 0.1406347 -0.2604308 0.260495
v 0.1406341 0.2604301 -0.2604359
v 0.1406357 -0.09530786 0.3558133
v 0.140635 0.3557715 -0.09532429
v 0.1406399 0.0953535 0.3558011
v 0.1406366 0.3557839 0.09533831
v 0.1406402 0.2604644 0.2604603
v -0.1406597 -0.09718982 0.02607822
v -0.1406582 -0.09719338 -0.02600608
v -0.1406589 -0.07114448 0.07118367
v -0.1406606 -0.02603634 0.09722237
v -0.1406599 -0.07115429 -0.07111496
v -0.1406615 0.0260481 0.09721892
v -0.14066 -0.02604905 -0.09716056
v -0.1406617 0.07115289 0.07117333
v -0.1406609 0.02603539 -0.09716401
v -0.1406556 0.09719221 0.02606604
v -0.1406617 0.07114352 -0.07112186
v -0.1406618 0.09718886 -0.02601986
v -0.08035941 -0.355772 0.0953825
v -0.08036195 -0.1561946 0.1562461
v -0.08035858 -0.2604315 0.2604941
v -0.08035801 -0.2133759 0.05721777
v -0.08036363 -0.05716133 0.2134119
v -0.08036443 -0.09530786 0.3558143
v -0.08035858 0.05718802 0.2134031
v -0.0803603 0.09535305 0.3558021
v -0.08036058 0.156214 0.1562236
v -0.08035998 0.2604642 0.2604613
v -0.08035849 0.2133821 0.05718836
v -0.08036357 0.3557837 0.09533929
v -0.08035973 0.2133745 -0.05716042
v -0.08035833 0.3557712 -0.09532514
v -0.08036176 0.1561935 -0.1561835
v -0.08035916 0.2604298 -0.2604368
v -0.080361 0.05716015 -0.2133527
v -0.0803602 0.09530646 -0.3557551
v -0.08035916 -0.0571892 -0.2133458
v -0.08036433 -0.09535446 -0.3557429
v -0.08036405 -0.1562151 -0.1561644
v -0.08036465 -0.2604645 -0.2604021
v -0.08035925 -0.2133828 -0.057131
v -0.08036014 -0.3557842 -0.09527665
v -0.08036195 -0.1561946 0.1562461
v -0.0393252 -0.1519229 0.04074715
v -0.03931999 -0.1112099 0.1112513
v -0.08035801 -0.2133759 0.05721777
v -0.08036363 -0.05716133 0.2134119
v -0.039321 -0.04069864 0.1519584
v -0.03932319 -0.1519278 -0.0406672
v -0.08035925 -0.2133828 -0.057131
v -0.03932336 -0.1112247 -0.11118
v -0.08036405 -0.1562151 -0.1561644
v -0.03932327 -0.04071871 -0.1518907
v -0.039321 -0.04069864 0.1519584
v -0.08035858 0.05718802 0.2134031
v -0.03932284 0.04071753 0.1519516
v -0.08036058 0.156214 0.1562236
v -0.03932284 0.04071753 0.1519516
v -0.03932275 0.1112235 0.1112409
v -0.08035849 0.2133821 0.05718836
v -0.03932292 0.1519269 0.04072808
v -0.08035973 0.2133745 -0.05716042
v -0.03932182 0.1519217 -0.04068972
v -0.08036176 0.1561935 -0.1561835
v -0.03932015 0.1112088 -0.1111957
v -0.080361 0.05716015 -0.2133527
v -0.03932511 0.04069768 -0.1518976
v -0.03932511 0.04069768 -0.1518976
v -0.08035916 -0.0571892 -0.2133458
v -0.03932327 -0.04071871 -0.1518907
v -0.1406589 -0.07114448 0.07118367
v -0.0393252 -0.1519229 0.04074715
v -0.1406597 -0.09718982 0.02607822
v -0.03931999 -0.1112099 0.1112513
v -0.1406606 -0.02603634 0.09722237
v -0.039321 -0.04069864 0.1519584
v -0.03932319 -0.1519278 -0.0406672
v -0.1406582 -0.09719338 -0.02600608
v -0.03932336 -0.1112247 -0.11118
v -0.1406599 -0.07115429 -0.07111496
v -0.03932327 -0.04071871 -0.1518907
v -0.14066 -0.02604905 -0.09716056
v -0.1406615 0.0260481 0.09721892
v -0.039321 -0.04069864 0.1519584
v -0.03932284 0.04071753 0.1519516
v -0.1406617 0.07115289 0.07117333
v -0.03932284 0.04071753 0.1519516
v -0.03932275 0.1112235 0.1112409
v -0.1406556 0.09719221 0.02606604
v -0.03932292 0.1519269 0.04072808
v -0.1406618 0.09718886 -0.02601986
v -0.03932182 0.1519217 -0.04068972
v -0.1406617 0.07114352 -0.07112186
v -0.03932015 0.1112088 -0.1111957
v -0.1406609 0.02603539 -0.09716401
v -0.03932511 0.04069768 -0.1518976
v -0.03932511 0.04069768 -0.1518976
v -0.03932327 -0.04071871 -0.1518907

vn 0.2501055 -0.9659082 0.06683268
vn 0.6831807 -0.707061 0.1825591
vn 0.6831821 -0.7070597 0.182559
vn 0.2501047 -0.9659083 0.06683309
vn 0.9331987 -0.258756 0.2493702
vn 0.9331988 -0.2587558 0.2493704
vn 0.9331661 0.258881 0.2493623
vn 0.933166 0.2588816 0.2493622
vn 0.6830924 0.7071518 0.1825378
vn 0.6830924 0.7071519 0.1825377
vn 0.2499841 0.9659418 0.06680186
vn 0.2499841 0.9659418 0.0668017
vn -0.2501071 0.9659076 -0.06683319
vn -0.250107 0.9659078 -0.06683312
vn -0.6831815 0.70706 -0.1825601
vn -0.6831818 0.7070597 -0.1825602
vn -0.2499852 -0.9659415 -0.06680117
vn -0.2499851 -0.9659415 -0.06680114
vn -0.6830921 -0.7071524 -0.1825366
vn -0.6830919 -0.7071524 -0.1825367
vn -0.9331661 -0.2588817 -0.2493616
vn -0.9331658 -0.2588831 -0.2493617
vn -0.9331987 0.2587562 -0.2493703
vn -0.9331988 0.2587557 -0.2493705
vn -0.6831818 0.7070597 -0.1825602
vn -0.6831815 0.70706 -0.1825601
vn 0.2581619 -9.934079E-07 -0.9661016
vn 0.2581618 -6.813783E-07 -0.9661016
vn 0.2581623 -2.239864E-07 -0.9661015
vn 0.2581622 1.464791E-07 -0.9661015
vn 0.2581622 8.182919E-15 -0.9661015
vn 0.258162 -3.219471E-07 -0.9661016
vn 0.2581621 1.104472E-14 -0.9661015
vn 0.2581621 1.059905E-14 -0.9661015
vn 0.2581621 1.114017E-14 -0.9661015
vn 0.2581621 1.06547E-14 -0.9661015
vn 0.2581622 9.572455E-15 -0.9661015
vn 0.258162 1.776355E-14 -0.9661016
vn -0.258162 -3.662003E-07 0.9661016
vn -0.2581621 -1.114625E-14 0.9661015
vn -0.258162 -2.014144E-07 0.9661016
vn -0.2581621 -1.133409E-14 0.9661015
vn -0.2581622 -8.875268E-15 0.9661015
vn -0.2581622 -9.047699E-15 0.9661015
vn -0.2581622 -9.047701E-15 0.9661015
vn -0.2581622 -8.875266E-15 0.9661015
vn -0.2581621 -1.133409E-14 0.9661015
vn -0.2581621 -1.114625E-14 0.9661015
vn -0.258162 -2.014142E-07 0.9661016
vn -0.258162 -3.662017E-07 0.9661016
vn -0.2581629 5.765917E-07 0.9661013
vn -0.2581625 1.39755E-07 0.9661015
vn -0.2581618 -2.485929E-14 0.9661016
vn -0.2581633 5.552365E-07 0.9661012
vn -0.2581612 7.466463E-07 0.9661018
vn -0.2581613 4.1686E-07 0.9661018
vn -0.258162 2.649479E-07 0.9661016
vn -0.2581622 -9.170345E-15 0.9661015
vn -0.2581621 -1.076604E-14 0.9661015
vn -0.2581622 3.102384E-07 0.9661015
vn -0.2581622 8.412424E-07 0.9661015
vn -0.258162 8.445581E-07 0.9661016
vn -0.258162 3.000849E-07 0.9661016
vn -0.2581618 1.337842E-07 0.9661016
vn -0.2581621 -1.103851E-14 0.9661015
vn -0.258166 -8.882907E-07 0.9661005
vn -0.2581723 -9.360049E-07 0.9660988
vn -0.2581722 1.167767E-06 0.9660988
vn -0.2581654 2.824914E-06 0.9661006
vn -0.2581634 4.799921E-06 0.9661012
vn -0.2581621 -1.076605E-14 0.9661015
vn -0.2581621 -1.076075E-14 0.9661015
vn -0.2581621 -1.124911E-14 0.9661015
vn -0.2581624 2.293815E-07 0.9661015
vn -0.5872675 0.3832653 0.7128984
vn -0.3525167 0.5235749 0.7756291
vn -0.5872674 0.3832656 0.7128983
vn -0.3525164 0.5235753 0.7756289
vn -0.7227905 0.1402606 0.6766837
vn -0.7227904 0.1402603 0.6766839
vn -0.0814385 0.5235949 0.8480657
vn -0.08143826 0.5235951 0.8480656
vn 0.1533289 0.383316 0.9108011
vn 0.1533286 0.3833157 0.9108014
vn 0.2888829 0.1403278 0.9470242
vn -0.7227904 0.1402603 0.6766839
vn -0.7227721 -0.1403276 0.6766894
vn -0.7227718 -0.1403278 0.6766896
vn -0.5872182 -0.3833148 0.7129124
vn -0.7227718 -0.1403278 0.6766896
vn -0.5872185 -0.3833149 0.7129121
vn -0.3524502 -0.523594 0.7756464
vn -0.3524507 -0.5235943 0.7756461
vn -0.08137284 -0.5235765 0.8480834
vn -0.08137278 -0.5235766 0.8480834
vn 0.1533784 -0.3832664 0.9108138
vn 0.1533782 -0.3832658 0.9108141
vn 0.2889005 -0.1402594 0.9470289
vn 0.2889003 -0.1402591 0.947029
vn 0.2889003 -0.1402591 0.947029
vn 0.2888824 0.1403281 0.9470242
vn 0.2888829 0.1403278 0.9470242
vn 0.4702947 -0.6171308 0.6308501
vn 0.09229851 -0.8430581 0.529842
vn 0.09230047 -0.8430581 0.5298415
vn 0.4702938 -0.6171313 0.6308503
vn 0.6885121 -0.2258458 0.6891626
vn 0.6885123 -0.2258455 0.6891624
vn -0.3441858 -0.8430886 0.4132022
vn -0.3441846 -0.843089 0.4132023
vn -0.7222086 -0.6172137 0.3121876
vn -0.722209 -0.6172131 0.3121879
vn -0.9404777 -0.2259551 0.2538617
vn -0.9404779 -0.2259541 0.2538621
vn 0.6884841 0.2259546 0.6891548
vn 0.6885123 -0.2258455 0.6891624
vn 0.6884841 0.2259554 0.6891546
vn 0.470216 0.6172123 0.630829
vn 0.6884841 0.2259554 0.6891546
vn 0.4702159 0.6172128 0.6308287
vn 0.09219305 0.843088 0.5298126
vn 0.09219287 0.8430881 0.5298125
vn -0.3442932 0.8430583 0.4131744
vn -0.344293 0.8430583 0.4131745
vn -0.7222872 0.6171322 0.3121665
vn -0.7222872 0.6171324 0.3121666
vn -0.9405056 0.2258472 0.2538546
vn -0.9405059 0.2258466 0.2538545
vn -0.9405059 0.2258466 0.2538545
vn -0.9404777 -0.2259551 0.2538617

vt 0.9628906 0.5917969
vt 0.9848633 0.5727539
vt 0.9628906 0.5727539
vt 0.9848633 0.5917969
vt 0.9848633 0.5532227
vt 0.9628906 0.5532227
vt 0.9848633 0.5341797
vt 0.9628906 0.5341797
vt 0.9848633 0.5151367
vt 0.9628906 0.5151367
vt 0.9848633 0.4958496
vt 0.9628906 0.4958496
vt 0.9848633 0.4768066
vt 0.9628906 0.4768066
vt 0.9848633 0.4575195
vt 0.9628906 0.4575195
vt 0.9628906 0.6108398
vt 0.9848633 0.6108398
vt 0.9628906 0.6303711
vt 0.9848633 0.6303711
vt 0.9628906 0.6494141
vt 0.9848633 0.6494141
vt 0.9628906 0.668457
vt 0.9848633 0.668457
vt 0.9628906 0.6875
vt 0.9848633 0.6875
vt 0.940918 0.6079102
vt 0.9130859 0.5800781
vt 0.940918 0.628418
vt 0.9306641 0.590332
vt 0.9306641 0.6459961
vt 0.8925781 0.5800781
vt 0.9130859 0.65625
vt 0.8745117 0.590332
vt 0.8925781 0.65625
vt 0.8647461 0.6079102
vt 0.875 0.6459961
vt 0.8647461 0.628418
vt 0.9047852 0.6123047
vt 0.9013672 0.6123047
vt 0.9072266 0.6142578
vt 0.9091797 0.6171875
vt 0.8984375 0.6137695
vt 0.9086914 0.6201172
vt 0.8969727 0.6162109
vt 0.9072266 0.6230469
vt 0.8964844 0.6196289
vt 0.9042969 0.6245117
vt 0.8979492 0.6225586
vt 0.9008789 0.6245117
vt 0.9140625 0.5791016
vt 0.9199219 0.6015625
vt 0.9321289 0.590332
vt 0.909668 0.5952148
vt 0.9262695 0.6123047
vt 0.9418945 0.6083984
vt 0.9262695 0.625
vt 0.9414063 0.6293945
vt 0.9194336 0.6357422
vt 0.9311523 0.6474609
vt 0.9086914 0.6420898
vt 0.9125977 0.6582031
vt 0.8959961 0.6416016
vt 0.8916016 0.6572266
vt 0.8852539 0.6352539
vt 0.8735352 0.6464844
vt 0.8793945 0.6240234
vt 0.8637695 0.6279297
vt 0.8793945 0.6118164
vt 0.8637695 0.6074219
vt 0.8857422 0.6010742
vt 0.8745117 0.5893555
vt 0.8969727 0.5947266
vt 0.8930664 0.5786133
vt 0.9199219 0.6015625
vt 0.9072266 0.6030273
vt 0.9140625 0.6074219
vt 0.909668 0.5952148
vt 0.9262695 0.6123047
vt 0.918457 0.6142578
vt 0.8989258 0.6025391
vt 0.8969727 0.5947266
vt 0.8916016 0.6069336
vt 0.8857422 0.6010742
vt 0.887207 0.6137695
vt 0.918457 0.6142578
vt 0.9262695 0.625
vt 0.9179688 0.6225586
vt 0.9194336 0.6357422
vt 0.9179688 0.6225586
vt 0.9140625 0.6298828
vt 0.9086914 0.6420898
vt 0.9067383 0.6337891
vt 0.8959961 0.6416016
vt 0.8984375 0.6337891
vt 0.8852539 0.6352539
vt 0.8911133 0.6293945
vt 0.8793945 0.6240234
vt 0.887207 0.6220703
vt 0.887207 0.6220703
vt 0.8793945 0.6118164
vt 0.887207 0.6137695
vt 0.9072266 0.6142578
vt 0.9072266 0.6030273
vt 0.9047852 0.6123047
vt 0.9140625 0.6074219
vt 0.9091797 0.6171875
vt 0.918457 0.6142578
vt 0.8989258 0.6025391
vt 0.9013672 0.6123047
vt 0.8916016 0.6069336
vt 0.8984375 0.6137695
vt 0.887207 0.6137695
vt 0.8969727 0.6162109
vt 0.9086914 0.6201172
vt 0.918457 0.6142578
vt 0.9179688 0.6225586
vt 0.9072266 0.6230469
vt 0.9179688 0.6225586
vt 0.9140625 0.6298828
vt 0.9042969 0.6245117
vt 0.9067383 0.6337891
vt 0.9008789 0.6245117
vt 0.8984375 0.6337891
vt 0.8979492 0.6225586
vt 0.8911133 0.6293945
vt 0.8964844 0.6196289
vt 0.887207 0.6220703
vt 0.887207 0.6220703
vt 0.887207 0.6137695

g wheel_backR_9814_1386
usemtl wheel_backR_9814_1386
usemap wheel_backR_9814_1386
f 1/1/1 3/3/3 2/2/2
f 2/2/2 4/4/4 1/1/1
f 5/5/5 2/2/2 3/3/3
f 3/3/3 6/6/6 5/5/5
f 7/7/7 5/5/5 6/6/6
f 6/6/6 8/8/8 7/7/7
f 9/9/9 7/7/7 8/8/8
f 8/8/8 10/10/10 9/9/9
f 11/11/11 9/9/9 10/10/10
f 10/10/10 12/12/12 11/11/11
f 13/13/13 11/11/11 12/12/12
f 12/12/12 14/14/14 13/13/13
f 15/15/15 13/13/13 14/14/14
f 14/14/14 16/16/16 15/15/15
f 17/17/17 1/1/1 4/4/4
f 4/4/4 18/18/18 17/17/17
f 19/19/19 17/17/17 18/18/18
f 18/18/18 20/20/20 19/19/19
f 21/21/21 19/19/19 20/20/20
f 20/20/20 22/22/22 21/21/21
f 23/23/23 21/21/21 22/22/22
f 22/22/22 24/24/24 23/23/23
f 25/25/25 23/23/23 24/24/24
f 24/24/24 26/26/26 25/25/25
f 27/27/27 29/29/29 28/28/28
f 28/28/28 30/30/30 27/27/27
f 28/28/28 29/29/29 31/31/31
f 31/31/31 32/32/32 28/28/28
f 32/32/32 31/31/31 33/33/33
f 33/33/33 34/34/34 32/32/32
f 34/34/34 33/33/33 35/35/35
f 35/35/35 36/36/36 34/34/34
f 36/36/36 35/35/35 37/37/37
f 37/37/37 38/38/38 36/36/36
f 39/39/39 41/41/41 40/40/40
f 40/40/40 41/41/41 42/42/42
f 42/42/42 43/43/43 40/40/40
f 43/43/43 42/42/42 44/44/44
f 44/44/44 45/45/45 43/43/43
f 45/45/45 44/44/44 46/46/46
f 46/46/46 47/47/47 45/45/45
f 47/47/47 46/46/46 48/48/48
f 48/48/48 49/49/49 47/47/47
f 48/48/48 50/50/50 49/49/49
f 51/51/51 53/53/53 52/52/52
f 52/52/52 54/54/54 51/51/51
f 55/55/55 52/52/52 53/53/53
f 53/53/53 56/56/56 55/55/55
f 57/57/57 55/55/55 56/56/56
f 56/56/56 58/58/58 57/57/57
f 59/59/59 57/57/57 58/58/58
f 58/58/58 60/60/60 59/59/59
f 61/61/61 59/59/59 60/60/60
f 60/60/60 62/62/62 61/61/61
f 63/63/63 61/61/61 62/62/62
f 62/62/62 64/64/64 63/63/63
f 65/65/65 63/63/63 64/64/64
f 64/64/64 66/66/66 65/65/65
f 67/67/67 65/65/65 66/66/66
f 66/66/66 68/68/68 67/67/67
f 69/69/69 67/67/67 68/68/68
f 68/68/68 70/70/70 69/69/69
f 71/71/71 69/69/69 70/70/70
f 70/70/70 72/72/72 71/71/71
f 73/73/73 71/71/71 72/72/72
f 72/72/72 74/74/74 73/73/73
f 54/54/54 73/73/73 74/74/74
f 74/74/74 51/51/51 54/54/54
f 75/75/75 77/77/77 76/76/76
f 76/76/76 78/78/78 75/75/75
f 77/77/77 75/75/75 79/79/79
f 79/79/79 80/80/80 77/77/77
f 78/78/78 76/76/76 81/81/81
f 81/81/81 82/82/82 78/78/78
f 82/82/82 81/81/81 83/83/83
f 83/83/83 84/84/84 82/82/82
f 84/84/84 83/83/83 85/85/85
f 86/86/86 79/79/79 87/87/87
f 87/87/87 88/88/88 86/86/86
f 88/88/88 87/87/87 89/89/89
f 89/89/89 91/91/91 90/90/90
f 91/91/91 89/89/89 92/92/92
f 92/92/92 93/93/93 91/91/91
f 93/93/93 92/92/92 94/94/94
f 94/94/94 95/95/95 93/93/93
f 95/95/95 94/94/94 96/96/96
f 96/96/96 97/97/97 95/95/95
f 97/97/97 96/96/96 98/98/98
f 98/98/98 99/99/99 97/97/97
f 100/100/100 98/98/98 101/101/101
f 101/101/101 102/102/102 100/100/100
f 102/102/102 101/101/101 84/84/84
f 103/103/103 105/105/105 104/104/104
f 104/104/104 106/106/106 103/103/103
f 107/107/107 103/103/103 106/106/106
f 106/106/106 108/108/108 107/107/107
f 109/109/109 104/104/104 105/105/105
f 105/105/105 110/110/110 109/109/109
f 111/111/111 109/109/109 110/110/110
f 110/110/110 112/112/112 111/111/111
f 113/113/113 111/111/111 112/112/112
f 112/112/112 114/114/114 113/113/113
f 115/115/115 107/107/107 116/116/116
f 116/116/116 117/117/117 115/115/115
f 118/118/118 115/115/115 119/119/119
f 119/119/119 120/120/120 118/118/118
f 121/121/121 118/118/118 120/120/120
f 120/120/120 122/122/122 121/121/121
f 123/123/123 121/121/121 122/122/122
f 122/122/122 124/124/124 123/123/123
f 125/125/125 123/123/123 124/124/124
f 124/124/124 126/126/126 125/125/125
f 127/127/127 125/125/125 126/126/126
f 126/126/126 128/128/128 127/127/127
f 114/114/114 127/127/127 129/129/129
f 129/129/129 130/130/130 114/114/114
