#wheel_frontL_11205_1375.obj

v -0.1406141 -0.3557717 0.09535866
v 0.08038307 -0.2604314 0.2604682
v 0.08038338 -0.3557717 0.09535247
v -0.1406144 -0.2604308 0.2604673
v 0.08038402 -0.09530783 0.3557857
v -0.1406152 -0.0953076 0.3557848
v 0.08038402 0.09535309 0.3557715
v -0.1406152 0.09535353 0.3557705
v 0.08038309 0.2604642 0.2604325
v -0.1406144 0.2604647 0.2604316
v 0.08038341 0.355784 0.09530966
v -0.1406141 0.355784 0.09530872
v 0.08038331 0.3557715 -0.09535386
v -0.1406142 0.3557715 -0.0953548
v 0.08038361 0.2604299 -0.2604625
v -0.1406156 0.2604303 -0.2604634
v -0.1406142 -0.3557842 -0.09530486
v 0.08038328 -0.3557842 -0.09530392
v -0.1406139 -0.2604644 -0.2604277
v 0.08038359 -0.2604644 -0.2604268
v -0.1406148 -0.09535398 -0.3557738
v 0.08038266 -0.09535421 -0.3557729
v -0.1406148 0.09530693 -0.3557809
v 0.08038089 0.09530671 -0.35578
v -0.1406156 0.2604303 -0.2604634
v 0.08038361 0.2604299 -0.2604625
v -0.1406139 -0.2604644 -0.2604277
v -0.1406141 -0.3557717 0.09535866
v -0.1406142 -0.3557842 -0.09530486
v -0.1406148 -0.09535398 -0.3557738
v -0.1406148 0.09530693 -0.3557809
v -0.1406144 -0.2604308 0.2604673
v -0.1406156 0.2604303 -0.2604634
v -0.1406152 -0.0953076 0.3557848
v -0.1406142 0.3557715 -0.0953548
v -0.1406152 0.09535353 0.3557705
v -0.1406141 0.355784 0.09530872
v -0.1406144 0.2604647 0.2604316
v 0.1406814 -0.09718978 0.02605166
v 0.140681 -0.07114445 0.07115777
v 0.1406813 -0.09719313 -0.02603499
v 0.1406811 -0.02603631 0.09719753
v 0.1406818 -0.07115404 -0.07114111
v 0.1406811 0.02604813 0.09719039
v 0.1406817 -0.02604902 -0.097188
v 0.140681 0.07115314 0.0711435
v 0.1406817 0.02603542 -0.097188
v 0.1406815 0.09719224 0.02603739
v 0.1406818 0.07114378 -0.07115538
v 0.1406813 0.09718889 -0.02604926
v 0.08038338 -0.3557717 0.09535247
v 0.08038286 -0.1561944 0.1562165
v 0.08038266 -0.2133756 0.05719124
v 0.08038307 -0.2604314 0.2604682
v 0.08038309 -0.05716108 0.213387
v 0.08038402 -0.09530783 0.3557857
v 0.08038309 0.05718828 0.2133799
v 0.08038402 0.09535309 0.3557715
v 0.08038288 0.156214 0.1561951
v 0.08038309 0.2604642 0.2604325
v 0.08038268 0.2133823 0.0571627
v 0.08038341 0.355784 0.09530966
v 0.08038402 0.2133747 -0.0571855
v 0.08038331 0.3557715 -0.09535386
v 0.08038381 0.1561935 -0.1562108
v 0.08038361 0.2604299 -0.2604625
v 0.08038359 0.05716018 -0.2133813
v 0.08038089 0.09530671 -0.35578
v 0.08038358 -0.05718917 -0.2133741
v 0.08038266 -0.09535421 -0.3557729
v 0.0803838 -0.1562149 -0.1561893
v 0.08038359 -0.2604644 -0.2604268
v 0.080384 -0.2133828 -0.05715696
v 0.08038328 -0.3557842 -0.09530392
v 0.08038286 -0.1561944 0.1562165
v 0.03934491 -0.1519227 0.04072085
v 0.08038266 -0.2133756 0.05719124
v 0.03934496 -0.1112099 0.111225
v 0.08038309 -0.05716108 0.213387
v 0.03934393 -0.04069861 0.1519317
v 0.03934518 -0.1519278 -0.04069975
v 0.080384 -0.2133828 -0.05715696
v 0.03934514 -0.1112246 -0.111211
v 0.0803838 -0.1562149 -0.1561893
v 0.03934439 -0.04071845 -0.1519178
v 0.08038309 0.05718828 0.2133799
v 0.03934393 -0.04069861 0.1519317
v 0.03934394 0.04071756 0.1519246
v 0.08038288 0.156214 0.1561951
v 0.03934394 0.04071756 0.1519246
v 0.03934497 0.1112235 0.1112107
v 0.08038268 0.2133823 0.0571627
v 0.03934493 0.1519271 0.04069944
v 0.08038402 0.2133747 -0.0571855
v 0.03934519 0.1519218 -0.04071403
v 0.08038381 0.1561935 -0.1562108
v 0.03934515 0.111209 -0.1112253
v 0.08038359 0.05716018 -0.2133813
v 0.03934439 0.04069772 -0.1519249
v 0.08038358 -0.05718917 -0.2133741
v 0.03934439 0.04069772 -0.1519249
v 0.03934439 -0.04071845 -0.1519178
v 0.140681 -0.07114445 0.07115777
v 0.03934491 -0.1519227 0.04072085
v 0.03934496 -0.1112099 0.111225
v 0.1406814 -0.09718978 0.02605166
v 0.1406811 -0.02603631 0.09719753
v 0.03934393 -0.04069861 0.1519317
v 0.03934518 -0.1519278 -0.04069975
v 0.1406813 -0.09719313 -0.02603499
v 0.03934514 -0.1112246 -0.111211
v 0.1406818 -0.07115404 -0.07114111
v 0.03934439 -0.04071845 -0.1519178
v 0.1406817 -0.02604902 -0.097188
v 0.03934393 -0.04069861 0.1519317
v 0.1406811 0.02604813 0.09719039
v 0.03934394 0.04071756 0.1519246
v 0.03934394 0.04071756 0.1519246
v 0.140681 0.07115314 0.0711435
v 0.03934497 0.1112235 0.1112107
v 0.1406815 0.09719224 0.02603739
v 0.03934493 0.1519271 0.04069944
v 0.1406813 0.09718889 -0.02604926
v 0.03934519 0.1519218 -0.04071403
v 0.1406818 0.07114378 -0.07115538
v 0.03934515 0.111209 -0.1112253
v 0.1406817 0.02603542 -0.097188
v 0.03934439 0.04069772 -0.1519249
v 0.03934439 0.04069772 -0.1519249
v 0.03934439 -0.04071845 -0.1519178

vn 0.0001759084 -0.9659082 0.2588808
vn 0.000481427 -0.707061 0.7071516
vn 0.000176556 -0.9659084 0.2588801
vn 0.0004809859 -0.7070599 0.7071527
vn 0.000658876 -0.2587562 0.9659424
vn 0.0006591465 -0.258756 0.9659424
vn 0.0006599766 0.2588807 0.965909
vn 0.0006597795 0.2588814 0.9659088
vn 0.0004833028 0.707152 0.7070605
vn 0.0004830572 0.7071523 0.7070603
vn 0.0001773233 0.9659418 0.2587556
vn 0.0001773727 0.9659417 0.2587559
vn -0.0001759466 0.9659078 -0.2588825
vn -0.0001759167 0.9659079 -0.2588822
vn -0.0004820019 0.7070602 -0.7071523
vn -0.0004819757 0.70706 -0.7071525
vn -0.0001763204 -0.9659414 -0.2587566
vn -0.0001764717 -0.9659415 -0.2587564
vn -0.0004824466 -0.7071525 -0.70706
vn -0.0004825456 -0.7071525 -0.70706
vn -0.0006588629 -0.2588817 -0.9659087
vn -0.0006590232 -0.2588831 -0.9659083
vn -0.0006587718 0.2587564 -0.9659423
vn -0.0006590456 0.2587559 -0.9659425
vn -0.0004819757 0.70706 -0.7071525
vn -0.0004820019 0.7070602 -0.7071523
vn -0.9999998 -9.744726E-07 0.0006813265
vn -0.9999998 -7.728158E-07 0.0006813029
vn -0.9999998 -1.464793E-07 0.0006815483
vn -0.9999998 -5.334211E-07 0.0006816096
vn -0.9999998 -2.513485E-07 0.0006816324
vn -0.9999998 -5.398508E-07 0.0006813439
vn -0.9999998 -2.197146E-07 0.0006815287
vn -0.9999998 -2.563339E-07 0.0006814921
vn -0.9999998 -1.870222E-07 0.0006815321
vn -0.9999998 0 0.0006817484
vn -0.9999998 3.192245E-07 0.0006819211
vn -0.9999998 0 0.0006817484
vn 0.9999998 3.662003E-07 -0.0006817484
vn 0.9999998 2.014145E-07 -0.0006817484
vn 0.9999998 -6.617295E-15 -0.000681597
vn 0.9999998 -6.429454E-15 -0.0006816013
vn 0.9999998 -8.888277E-15 -0.0006815451
vn 0.9999998 -8.71585E-15 -0.000681549
vn 0.9999998 -8.715845E-15 -0.000681549
vn 0.9999998 -8.888278E-15 -0.0006815451
vn 0.9999998 -6.429458E-15 -0.0006816013
vn 0.9999998 -6.617282E-15 -0.000681597
vn 0.9999998 2.01414E-07 -0.0006817484
vn 0.9999998 3.662017E-07 -0.0006817484
vn 0.9999998 5.235177E-07 -0.0006823819
vn 0.9999998 1.002862E-14 -0.0006819778
vn 0.9999998 5.208504E-07 -0.000682768
vn 0.9999998 -2.155938E-14 -0.0006812552
vn 0.9999998 7.439988E-07 -0.0006805008
vn 0.9999998 4.164669E-07 -0.0006806718
vn 0.9999998 2.820317E-07 -0.0006812569
vn 0.9999998 -8.593198E-15 -0.0006815518
vn 0.9999998 -6.997501E-15 -0.0006815883
vn 0.9999998 3.45314E-07 -0.0006817484
vn 0.9999998 9.044699E-07 -0.0006817484
vn 0.9999998 8.776009E-07 -0.0006814914
vn 0.9999998 2.656989E-07 -0.0006813606
vn 0.9999998 -2.4711E-14 -0.0006811831
vn 0.9999998 -6.725035E-15 -0.0006815945
vn 0.9999998 -9.71756E-07 -0.0006856801
vn 0.9999998 -9.777069E-07 -0.0006924631
vn 0.9999998 1.216027E-06 -0.000692311
vn 0.9999998 2.960057E-06 -0.0006850859
vn 0.9999998 5.003697E-06 -0.0006828924
vn 0.9999998 -6.9975E-15 -0.0006815883
vn 0.9999998 -7.002799E-15 -0.0006815882
vn 0.9999998 -6.514438E-15 -0.0006815994
vn 0.9999998 2.624235E-07 -0.0006817484
vn 0.8400816 0.3832646 -0.3838888
vn 0.8402473 0.5235748 -0.140901
vn 0.8402473 0.5235749 -0.1409014
vn 0.8400812 0.3832657 -0.3838886
vn 0.8399849 0.1402609 -0.5241679
vn 0.8399851 0.1402608 -0.5241676
vn 0.8404375 0.5235947 0.1396879
vn 0.8404375 0.5235949 0.1396879
vn 0.8406041 0.3833158 0.3826925
vn 0.8406044 0.3833155 0.3826923
vn 0.8406999 0.1403278 0.5230028
vn 0.8399862 -0.140328 -0.5241478
vn 0.8399851 0.1402608 -0.5241676
vn 0.8399866 -0.1403289 -0.5241472
vn 0.840082 -0.3833148 -0.3838379
vn 0.8399866 -0.1403289 -0.5241472
vn 0.8400815 -0.3833149 -0.383839
vn 0.8402465 -0.5235946 -0.1408328
vn 0.8402461 -0.5235948 -0.1408344
vn 0.8404377 -0.5235765 0.1397557
vn 0.8404377 -0.5235765 0.1397558
vn 0.8406033 -0.3832663 0.3827438
vn 0.8406036 -0.3832659 0.3827436
vn 0.8406999 -0.1402594 0.5230213
vn 0.8407001 -0.1402591 0.5230212
vn 0.8407 0.140328 0.5230026
vn 0.8407001 -0.1402591 0.5230212
vn 0.8406999 0.1403278 0.5230028
vn 0.4884731 -0.617131 0.6168813
vn 0.4882071 -0.8430582 0.2256217
vn 0.488474 -0.6171322 0.6168795
vn 0.488206 -0.8430581 0.2256243
vn 0.4886285 -0.2258461 0.8427549
vn 0.4886286 -0.2258453 0.8427551
vn 0.4878975 -0.8430884 -0.2261781
vn 0.4878971 -0.8430889 -0.2261767
vn 0.4876314 -0.6172136 -0.6174642
vn 0.4876317 -0.617213 -0.6174645
vn 0.4874775 -0.2259554 -0.8433917
vn 0.487478 -0.225954 -0.8433918
vn 0.4886286 -0.2258453 0.8427551
vn 0.4886277 0.2259544 0.8427263
vn 0.4886267 0.2259565 0.8427263
vn 0.4886267 0.2259565 0.8427263
vn 0.4884734 0.6172124 0.6167998
vn 0.4884735 0.6172123 0.6167998
vn 0.4882063 0.843088 0.2255118
vn 0.4882067 0.8430874 0.2255131
vn 0.4878983 0.8430583 -0.2262882
vn 0.4878982 0.8430582 -0.2262884
vn 0.4876314 0.6171321 -0.6175455
vn 0.4876313 0.6171322 -0.6175455
vn 0.4874777 0.2258471 -0.8434206
vn 0.4874776 0.2258464 -0.8434208
vn 0.4874776 0.2258464 -0.8434208
vn 0.4874775 -0.2259554 -0.8433917

vt 0.9628906 0.5917969
vt 0.9848633 0.5727539
vt 0.9848633 0.5917969
vt 0.9628906 0.5727539
vt 0.9848633 0.5532227
vt 0.9628906 0.5532227
vt 0.9848633 0.5341797
vt 0.9628906 0.5341797
vt 0.9848633 0.5151367
vt 0.9628906 0.5151367
vt 0.9848633 0.4958496
vt 0.9628906 0.4958496
vt 0.9848633 0.4768066
vt 0.9628906 0.4768066
vt 0.9848633 0.4575195
vt 0.9628906 0.4575195
vt 0.9628906 0.6108398
vt 0.9848633 0.6108398
vt 0.9628906 0.6303711
vt 0.9848633 0.6303711
vt 0.9628906 0.6494141
vt 0.9848633 0.6494141
vt 0.9628906 0.668457
vt 0.9848633 0.668457
vt 0.9628906 0.6875
vt 0.9848633 0.6875
vt 0.940918 0.6079102
vt 0.9130859 0.5800781
vt 0.9306641 0.590332
vt 0.940918 0.628418
vt 0.9306641 0.6459961
vt 0.8925781 0.5800781
vt 0.9130859 0.65625
vt 0.8745117 0.590332
vt 0.8925781 0.65625
vt 0.8647461 0.6079102
vt 0.875 0.6459961
vt 0.8647461 0.628418
vt 0.9047852 0.6123047
vt 0.9072266 0.6142578
vt 0.9013672 0.6123047
vt 0.9091797 0.6171875
vt 0.8984375 0.6137695
vt 0.9086914 0.6201172
vt 0.8969727 0.6162109
vt 0.9072266 0.6230469
vt 0.8964844 0.6196289
vt 0.9042969 0.6245117
vt 0.8979492 0.6225586
vt 0.9008789 0.6245117
vt 0.9140625 0.5791016
vt 0.9199219 0.6015625
vt 0.909668 0.5952148
vt 0.9321289 0.590332
vt 0.9262695 0.6123047
vt 0.9418945 0.6083984
vt 0.9262695 0.625
vt 0.9414063 0.6293945
vt 0.9194336 0.6357422
vt 0.9311523 0.6474609
vt 0.9086914 0.6420898
vt 0.9125977 0.6582031
vt 0.8959961 0.6416016
vt 0.8916016 0.6572266
vt 0.8852539 0.6352539
vt 0.8735352 0.6464844
vt 0.8793945 0.6240234
vt 0.8637695 0.6279297
vt 0.8793945 0.6118164
vt 0.8637695 0.6074219
vt 0.8857422 0.6010742
vt 0.8745117 0.5893555
vt 0.8969727 0.5947266
vt 0.8930664 0.5786133
vt 0.9199219 0.6015625
vt 0.9072266 0.6030273
vt 0.909668 0.5952148
vt 0.9140625 0.6074219
vt 0.9262695 0.6123047
vt 0.918457 0.6142578
vt 0.8989258 0.6025391
vt 0.8969727 0.5947266
vt 0.8916016 0.6069336
vt 0.8857422 0.6010742
vt 0.887207 0.6137695
vt 0.9262695 0.625
vt 0.918457 0.6142578
vt 0.9179688 0.6225586
vt 0.9194336 0.6357422
vt 0.9179688 0.6225586
vt 0.9140625 0.6298828
vt 0.9086914 0.6420898
vt 0.9067383 0.6337891
vt 0.8959961 0.6416016
vt 0.8984375 0.6337891
vt 0.8852539 0.6352539
vt 0.8911133 0.6293945
vt 0.8793945 0.6240234
vt 0.887207 0.6220703
vt 0.8793945 0.6118164
vt 0.887207 0.6220703
vt 0.887207 0.6137695
vt 0.9072266 0.6142578
vt 0.9072266 0.6030273
vt 0.9140625 0.6074219
vt 0.9047852 0.6123047
vt 0.9091797 0.6171875
vt 0.918457 0.6142578
vt 0.8989258 0.6025391
vt 0.9013672 0.6123047
vt 0.8916016 0.6069336
vt 0.8984375 0.6137695
vt 0.887207 0.6137695
vt 0.8969727 0.6162109
vt 0.918457 0.6142578
vt 0.9086914 0.6201172
vt 0.9179688 0.6225586
vt 0.9179688 0.6225586
vt 0.9072266 0.6230469
vt 0.9140625 0.6298828
vt 0.9042969 0.6245117
vt 0.9067383 0.6337891
vt 0.9008789 0.6245117
vt 0.8984375 0.6337891
vt 0.8979492 0.6225586
vt 0.8911133 0.6293945
vt 0.8964844 0.6196289
vt 0.887207 0.6220703
vt 0.887207 0.6220703
vt 0.887207 0.6137695

g wheel_frontL_11205_1375
usemtl wheel_frontL_11205_1375
usemap wheel_frontL_11205_1375
f 1/1/1 3/3/3 2/2/2
f 2/2/2 4/4/4 1/1/1
f 4/4/4 2/2/2 5/5/5
f 5/5/5 6/6/6 4/4/4
f 6/6/6 5/5/5 7/7/7
f 7/7/7 8/8/8 6/6/6
f 8/8/8 7/7/7 9/9/9
f 9/9/9 10/10/10 8/8/8
f 10/10/10 9/9/9 11/11/11
f 11/11/11 12/12/12 10/10/10
f 12/12/12 11/11/11 13/13/13
f 13/13/13 14/14/14 12/12/12
f 14/14/14 13/13/13 15/15/15
f 15/15/15 16/16/16 14/14/14
f 3/3/3 1/1/1 17/17/17
f 17/17/17 18/18/18 3/3/3
f 18/18/18 17/17/17 19/19/19
f 19/19/19 20/20/20 18/18/18
f 20/20/20 19/19/19 21/21/21
f 21/21/21 22/22/22 20/20/20
f 22/22/22 21/21/21 23/23/23
f 23/23/23 24/24/24 22/22/22
f 24/24/24 23/23/23 25/25/25
f 25/25/25 26/26/26 24/24/24
f 27/27/27 29/29/29 28/28/28
f 28/28/28 30/30/30 27/27/27
f 31/31/31 30/30/30 28/28/28
f 28/28/28 32/32/32 31/31/31
f 33/33/33 31/31/31 32/32/32
f 32/32/32 34/34/34 33/33/33
f 35/35/35 33/33/33 34/34/34
f 34/34/34 36/36/36 35/35/35
f 37/37/37 35/35/35 36/36/36
f 36/36/36 38/38/38 37/37/37
f 39/39/39 41/41/41 40/40/40
f 42/42/42 40/40/40 41/41/41
f 41/41/41 43/43/43 42/42/42
f 44/44/44 42/42/42 43/43/43
f 43/43/43 45/45/45 44/44/44
f 46/46/46 44/44/44 45/45/45
f 45/45/45 47/47/47 46/46/46
f 48/48/48 46/46/46 47/47/47
f 47/47/47 49/49/49 48/48/48
f 48/48/48 49/49/49 50/50/50
f 51/51/51 53/53/53 52/52/52
f 52/52/52 54/54/54 51/51/51
f 54/54/54 52/52/52 55/55/55
f 55/55/55 56/56/56 54/54/54
f 56/56/56 55/55/55 57/57/57
f 57/57/57 58/58/58 56/56/56
f 58/58/58 57/57/57 59/59/59
f 59/59/59 60/60/60 58/58/58
f 60/60/60 59/59/59 61/61/61
f 61/61/61 62/62/62 60/60/60
f 62/62/62 61/61/61 63/63/63
f 63/63/63 64/64/64 62/62/62
f 64/64/64 63/63/63 65/65/65
f 65/65/65 66/66/66 64/64/64
f 66/66/66 65/65/65 67/67/67
f 67/67/67 68/68/68 66/66/66
f 68/68/68 67/67/67 69/69/69
f 69/69/69 70/70/70 68/68/68
f 70/70/70 69/69/69 71/71/71
f 71/71/71 72/72/72 70/70/70
f 72/72/72 71/71/71 73/73/73
f 73/73/73 74/74/74 72/72/72
f 74/74/74 73/73/73 53/53/53
f 53/53/53 51/51/51 74/74/74
f 75/75/75 77/77/77 76/76/76
f 76/76/76 78/78/78 75/75/75
f 79/79/79 75/75/75 78/78/78
f 78/78/78 80/80/80 79/79/79
f 81/81/81 76/76/76 77/77/77
f 77/77/77 82/82/82 81/81/81
f 83/83/83 81/81/81 82/82/82
f 82/82/82 84/84/84 83/83/83
f 85/85/85 83/83/83 84/84/84
f 86/86/86 79/79/79 87/87/87
f 87/87/87 88/88/88 86/86/86
f 89/89/89 86/86/86 88/88/88
f 90/90/90 91/91/91 89/89/89
f 92/92/92 89/89/89 91/91/91
f 91/91/91 93/93/93 92/92/92
f 94/94/94 92/92/92 93/93/93
f 93/93/93 95/95/95 94/94/94
f 96/96/96 94/94/94 95/95/95
f 95/95/95 97/97/97 96/96/96
f 98/98/98 96/96/96 97/97/97
f 97/97/97 99/99/99 98/98/98
f 100/100/100 98/98/98 101/101/101
f 101/101/101 102/102/102 100/100/100
f 84/84/84 100/100/100 102/102/102
f 103/103/103 105/105/105 104/104/104
f 104/104/104 106/106/106 103/103/103
f 105/105/105 103/103/103 107/107/107
f 107/107/107 108/108/108 105/105/105
f 106/106/106 104/104/104 109/109/109
f 109/109/109 110/110/110 106/106/106
f 110/110/110 109/109/109 111/111/111
f 111/111/111 112/112/112 110/110/110
f 112/112/112 111/111/111 113/113/113
f 113/113/113 114/114/114 112/112/112
f 115/115/115 107/107/107 116/116/116
f 116/116/116 117/117/117 115/115/115
f 118/118/118 116/116/116 119/119/119
f 119/119/119 120/120/120 118/118/118
f 120/120/120 119/119/119 121/121/121
f 121/121/121 122/122/122 120/120/120
f 122/122/122 121/121/121 123/123/123
f 123/123/123 124/124/124 122/122/122
f 124/124/124 123/123/123 125/125/125
f 125/125/125 126/126/126 124/124/124
f 126/126/126 125/125/125 127/127/127
f 127/127/127 128/128/128 126/126/126
f 129/129/129 127/127/127 114/114/114
f 114/114/114 130/130/130 129/129/129
