#wheel_backL_10223_1376.obj

v -0.1406451 -0.355772 0.09537622
v 0.08034899 -0.2604315 0.2604887
v 0.08034816 -0.355772 0.09537708
v -0.1406443 -0.2604308 0.2604879
v 0.08035003 -0.09530786 0.3558071
v -0.1406501 -0.09530786 0.355808
v 0.08035416 0.09535305 0.3557949
v -0.1406469 0.0953535 0.3557924
v 0.08035357 0.2604642 0.2604506
v -0.1406466 0.2604644 0.2604516
v 0.08034997 0.3557837 0.09532859
v -0.1406502 0.3557839 0.09532958
v 0.08034925 0.3557712 -0.09533055
v -0.140644 0.3557715 -0.09533141
v 0.08034842 0.2604298 -0.2604422
v -0.1406449 0.2604301 -0.2604431
v -0.1406468 -0.3557842 -0.09528637
v 0.08035341 -0.3557842 -0.09528735
v -0.1406435 -0.2604645 -0.2604102
v 0.08034981 -0.2604645 -0.2604094
v -0.14065 -0.09535424 -0.3557492
v 0.08035014 -0.09535446 -0.3557502
v -0.1406459 0.09530668 -0.3557614
v 0.08034737 0.09530646 -0.3557605
v -0.1406449 0.2604301 -0.2604431
v 0.08034842 0.2604298 -0.2604422
v -0.1406435 -0.2604645 -0.2604102
v -0.1406451 -0.355772 0.09537622
v -0.1406468 -0.3557842 -0.09528637
v -0.14065 -0.09535424 -0.3557492
v -0.1406459 0.09530668 -0.3557614
v -0.1406443 -0.2604308 0.2604879
v -0.1406449 0.2604301 -0.2604431
v -0.1406501 -0.09530786 0.355808
v -0.140644 0.3557715 -0.09533141
v -0.1406469 0.0953535 0.3557924
v -0.1406502 0.3557839 0.09532958
v -0.1406466 0.2604644 0.2604516
v 0.1406517 -0.09718982 0.0260718
v 0.1406516 -0.07114448 0.0711738
v 0.1406523 -0.09719338 -0.02601594
v 0.1406508 -0.02603634 0.09721595
v 0.1406515 -0.07115429 -0.07112139
v 0.1406499 0.0260481 0.0972125
v 0.1406513 -0.02604905 -0.09716699
v 0.1406497 0.07115289 0.07116691
v 0.1406504 0.02603539 -0.09717043
v 0.140648 0.09719221 0.02605802
v 0.1406487 0.07114352 -0.07113173
v 0.1406495 0.09718886 -0.02602628
v 0.08034816 -0.355772 0.09537708
v 0.0803516 -0.1561946 0.1562354
v 0.08034956 -0.2133759 0.05721236
v 0.08034899 -0.2604315 0.2604887
v 0.08035084 -0.05716133 0.2134046
v 0.08035003 -0.09530786 0.3558071
v 0.080349 0.05718802 0.2133977
v 0.08035416 0.09535305 0.3557949
v 0.08035389 0.156214 0.1562163
v 0.08035357 0.2604642 0.2604506
v 0.08034909 0.2133821 0.05718295
v 0.08034997 0.3557837 0.09532859
v 0.08034785 0.2133745 -0.05716583
v 0.08034925 0.3557712 -0.09533055
v 0.08035178 0.1561935 -0.1561942
v 0.08034842 0.2604298 -0.2604422
v 0.08035346 0.05716015 -0.2133599
v 0.08034737 0.09530646 -0.3557605
v 0.08034842 -0.0571892 -0.2133512
v 0.08035014 -0.09535446 -0.3557502
v 0.08035041 -0.1562151 -0.1561716
v 0.08034981 -0.2604645 -0.2604094
v 0.08034833 -0.2133828 -0.05713642
v 0.08035341 -0.3557842 -0.09528735
v 0.0803516 -0.1561946 0.1562354
v 0.03931166 -0.1519229 0.04074166
v 0.08034956 -0.2133759 0.05721236
v 0.03930999 -0.1112099 0.1112476
v 0.08035084 -0.05716133 0.2134046
v 0.03931495 -0.04069864 0.1519495
v 0.03931275 -0.1519278 -0.04067614
v 0.08034833 -0.2133828 -0.05713642
v 0.03931259 -0.1112247 -0.111189
v 0.08035041 -0.1562151 -0.1561716
v 0.03931268 -0.04071871 -0.1518996
v 0.080349 0.05718802 0.2133977
v 0.03931495 -0.04069864 0.1519495
v 0.03931311 0.04071753 0.1519426
v 0.08035389 0.156214 0.1562163
v 0.03931311 0.04071753 0.1519426
v 0.03931319 0.1112235 0.111232
v 0.08034909 0.2133821 0.05718295
v 0.03931303 0.1519269 0.04071914
v 0.08034785 0.2133745 -0.05716583
v 0.03931504 0.1519217 -0.04069521
v 0.08035178 0.1561935 -0.1561942
v 0.03930891 0.1112088 -0.1112028
v 0.08035346 0.05716015 -0.2133599
v 0.03931083 0.04069768 -0.1519065
v 0.08034842 -0.0571892 -0.2133512
v 0.03931083 0.04069768 -0.1519065
v 0.03931268 -0.04071871 -0.1518996
v 0.1406516 -0.07114448 0.0711738
v 0.03931166 -0.1519229 0.04074166
v 0.03930999 -0.1112099 0.1112476
v 0.1406517 -0.09718982 0.0260718
v 0.1406508 -0.02603634 0.09721595
v 0.03931495 -0.04069864 0.1519495
v 0.03931275 -0.1519278 -0.04067614
v 0.1406523 -0.09719338 -0.02601594
v 0.03931259 -0.1112247 -0.111189
v 0.1406515 -0.07115429 -0.07112139
v 0.03931268 -0.04071871 -0.1518996
v 0.1406513 -0.02604905 -0.09716699
v 0.03931495 -0.04069864 0.1519495
v 0.1406499 0.0260481 0.0972125
v 0.03931311 0.04071753 0.1519426
v 0.03931311 0.04071753 0.1519426
v 0.1406497 0.07115289 0.07116691
v 0.03931319 0.1112235 0.111232
v 0.140648 0.09719221 0.02605802
v 0.03931303 0.1519269 0.04071914
v 0.1406495 0.09718886 -0.02602628
v 0.03931504 0.1519217 -0.04069521
v 0.1406487 0.07114352 -0.07113173
v 0.03930891 0.1112088 -0.1112028
v 0.1406504 0.02603539 -0.09717043
v 0.03931083 0.04069768 -0.1519065
v 0.03931083 0.04069768 -0.1519065
v 0.03931268 -0.04071871 -0.1518996

vn 0.2501052 -0.9659082 0.06683396
vn 0.6831803 -0.707061 0.1825608
vn 0.2501047 -0.9659083 0.06683309
vn 0.6831814 -0.7070597 0.1825615
vn 0.9331988 -0.2587561 0.2493699
vn 0.933199 -0.2587558 0.2493697
vn 0.9331666 0.258881 0.2493605
vn 0.9331664 0.2588817 0.2493605
vn 0.6830931 0.7071518 0.1825352
vn 0.6830929 0.7071519 0.1825353
vn 0.2499847 0.9659418 0.06680013
vn 0.2499844 0.9659418 0.06680023
vn -0.2501068 0.9659076 -0.06683431
vn -0.2501066 0.9659078 -0.06683428
vn -0.6831815 0.7070599 -0.1825604
vn -0.6831817 0.7070597 -0.1825605
vn -0.2499851 -0.9659415 -0.06680132
vn -0.2499851 -0.9659415 -0.06680114
vn -0.6830922 -0.7071524 -0.182536
vn -0.6830922 -0.7071524 -0.1825359
vn -0.9331663 -0.2588817 -0.2493611
vn -0.933166 -0.258883 -0.2493608
vn -0.9331988 0.2587563 -0.2493699
vn -0.933199 0.2587557 -0.2493696
vn -0.6831817 0.7070597 -0.1825605
vn -0.6831815 0.7070599 -0.1825604
vn -0.2581624 -9.744721E-07 0.9661015
vn -0.2581624 -7.728156E-07 0.9661015
vn -0.2581622 -1.464791E-07 0.9661015
vn -0.2581621 -5.334212E-07 0.9661015
vn -0.2581621 -2.513484E-07 0.9661015
vn -0.2581624 -5.398508E-07 0.9661015
vn -0.2581622 -2.197146E-07 0.9661015
vn -0.2581622 -2.563341E-07 0.9661015
vn -0.2581622 -1.87022E-07 0.9661015
vn -0.258162 -1.776355E-14 0.9661016
vn -0.2581618 3.192245E-07 0.9661016
vn -0.258162 -1.776355E-14 0.9661016
vn 0.258162 3.662003E-07 -0.9661016
vn 0.258162 2.014144E-07 -0.9661016
vn 0.2581621 1.114625E-14 -0.9661015
vn 0.2581621 1.133409E-14 -0.9661015
vn 0.2581622 8.875267E-15 -0.9661015
vn 0.2581622 9.047697E-15 -0.9661015
vn 0.2581622 9.047699E-15 -0.9661015
vn 0.2581622 8.875266E-15 -0.9661015
vn 0.2581621 1.133408E-14 -0.9661015
vn 0.2581621 1.114625E-14 -0.9661015
vn 0.258162 2.014142E-07 -0.9661016
vn 0.258162 3.662017E-07 -0.9661016
vn 0.2581614 5.235176E-07 -0.9661018
vn 0.2581618 2.779221E-14 -0.9661016
vn 0.258161 5.208503E-07 -0.9661018
vn 0.2581625 -3.795829E-15 -0.9661015
vn 0.2581632 7.439984E-07 -0.9661013
vn 0.258163 4.164668E-07 -0.9661013
vn 0.2581625 2.820317E-07 -0.9661015
vn 0.2581622 9.170345E-15 -0.9661015
vn 0.2581621 1.076604E-14 -0.9661015
vn 0.258162 3.453141E-07 -0.9661016
vn 0.258162 9.044693E-07 -0.9661016
vn 0.2581622 8.776003E-07 -0.9661015
vn 0.2581624 2.656991E-07 -0.9661015
vn 0.2581625 -6.947459E-15 -0.9661015
vn 0.2581621 1.103851E-14 -0.9661015
vn 0.2581582 -9.717576E-07 -0.9661026
vn 0.2581517 -9.777082E-07 -0.9661043
vn 0.2581518 1.216023E-06 -0.9661043
vn 0.2581588 2.960059E-06 -0.9661024
vn 0.2581609 5.003697E-06 -0.9661019
vn 0.2581621 1.076605E-14 -0.9661015
vn 0.2581621 1.076075E-14 -0.9661015
vn 0.2581621 1.124911E-14 -0.9661015
vn 0.258162 2.624235E-07 -0.9661016
vn -0.1533784 0.3832655 -0.9108142
vn 0.08137286 0.5235749 -0.8480843
vn 0.08137295 0.5235752 -0.8480842
vn -0.1533783 0.3832657 -0.9108142
vn -0.2889013 0.1402606 -0.9470286
vn -0.2889012 0.1402603 -0.9470286
vn 0.3524505 0.5235949 -0.7756457
vn 0.3524507 0.523595 -0.7756456
vn 0.5872182 0.383316 -0.7129117
vn 0.587218 0.3833157 -0.712912
vn 0.7227722 0.1403277 -0.6766891
vn -0.2888826 -0.1403276 -0.9470243
vn -0.2889012 0.1402603 -0.9470286
vn -0.2888823 -0.1403279 -0.9470245
vn -0.1533286 -0.3833149 -0.9108017
vn -0.2888823 -0.1403279 -0.9470245
vn -0.153329 -0.383315 -0.9108016
vn 0.08143912 -0.523594 -0.8480662
vn 0.08143854 -0.5235944 -0.848066
vn 0.3525162 -0.5235764 -0.7756284
vn 0.3525163 -0.5235765 -0.7756283
vn 0.5872673 -0.3832663 -0.712898
vn 0.5872673 -0.3832657 -0.7128983
vn 0.7227899 -0.1402595 -0.6766844
vn 0.7227898 -0.1402592 -0.6766847
vn 0.722772 0.1403281 -0.6766893
vn 0.7227898 -0.1402592 -0.6766847
vn 0.7227722 0.1403277 -0.6766891
vn 0.7222881 -0.6171306 -0.3121676
vn 0.3442922 -0.8430579 -0.4131762
vn 0.7222875 -0.6171311 -0.3121682
vn 0.3442938 -0.8430579 -0.4131748
vn 0.9405057 -0.2258456 -0.2538556
vn 0.9405057 -0.2258455 -0.2538555
vn -0.09219307 -0.8430884 -0.5298119
vn -0.09219207 -0.8430889 -0.5298114
vn -0.4702153 -0.6172137 -0.6308282
vn -0.4702156 -0.617213 -0.6308286
vn -0.6884843 -0.2259551 -0.6891544
vn -0.6884843 -0.225954 -0.6891547
vn 0.9405057 -0.2258455 -0.2538555
vn 0.9404776 0.2259546 -0.2538629
vn 0.9404775 0.2259553 -0.2538626
vn 0.9404775 0.2259553 -0.2538626
vn 0.7222096 0.6172122 -0.3121885
vn 0.7222093 0.6172126 -0.3121883
vn 0.3441861 0.8430879 -0.4132034
vn 0.344186 0.843088 -0.4132034
vn -0.09229998 0.8430582 -0.5298414
vn -0.09229983 0.8430583 -0.5298415
vn -0.4702941 0.6171321 -0.6308492
vn -0.4702938 0.6171323 -0.6308492
vn -0.688512 0.2258472 -0.6891621
vn -0.6885123 0.2258467 -0.6891621
vn -0.6885123 0.2258467 -0.6891621
vn -0.6884843 -0.2259551 -0.6891544

vt 0.9628906 0.5917969
vt 0.9848633 0.5727539
vt 0.9848633 0.5917969
vt 0.9628906 0.5727539
vt 0.9848633 0.5532227
vt 0.9628906 0.5532227
vt 0.9848633 0.5341797
vt 0.9628906 0.5341797
vt 0.9848633 0.5151367
vt 0.9628906 0.5151367
vt 0.9848633 0.4958496
vt 0.9628906 0.4958496
vt 0.9848633 0.4768066
vt 0.9628906 0.4768066
vt 0.9848633 0.4575195
vt 0.9628906 0.4575195
vt 0.9628906 0.6108398
vt 0.9848633 0.6108398
vt 0.9628906 0.6303711
vt 0.9848633 0.6303711
vt 0.9628906 0.6494141
vt 0.9848633 0.6494141
vt 0.9628906 0.668457
vt 0.9848633 0.668457
vt 0.9628906 0.6875
vt 0.9848633 0.6875
vt 0.940918 0.6079102
vt 0.9130859 0.5800781
vt 0.9306641 0.590332
vt 0.940918 0.628418
vt 0.9306641 0.6459961
vt 0.8925781 0.5800781
vt 0.9130859 0.65625
vt 0.8745117 0.590332
vt 0.8925781 0.65625
vt 0.8647461 0.6079102
vt 0.875 0.6459961
vt 0.8647461 0.628418
vt 0.9047852 0.6123047
vt 0.9072266 0.6142578
vt 0.9013672 0.6123047
vt 0.9091797 0.6171875
vt 0.8984375 0.6137695
vt 0.9086914 0.6201172
vt 0.8969727 0.6162109
vt 0.9072266 0.6230469
vt 0.8964844 0.6196289
vt 0.9042969 0.6245117
vt 0.8979492 0.6225586
vt 0.9008789 0.6245117
vt 0.9140625 0.5791016
vt 0.9199219 0.6015625
vt 0.909668 0.5952148
vt 0.9321289 0.590332
vt 0.9262695 0.6123047
vt 0.9418945 0.6083984
vt 0.9262695 0.625
vt 0.9414063 0.6293945
vt 0.9194336 0.6357422
vt 0.9311523 0.6474609
vt 0.9086914 0.6420898
vt 0.9125977 0.6582031
vt 0.8959961 0.6416016
vt 0.8916016 0.6572266
vt 0.8852539 0.6352539
vt 0.8735352 0.6464844
vt 0.8793945 0.6240234
vt 0.8637695 0.6279297
vt 0.8793945 0.6118164
vt 0.8637695 0.6074219
vt 0.8857422 0.6010742
vt 0.8745117 0.5893555
vt 0.8969727 0.5947266
vt 0.8930664 0.5786133
vt 0.9199219 0.6015625
vt 0.9072266 0.6030273
vt 0.909668 0.5952148
vt 0.9140625 0.6074219
vt 0.9262695 0.6123047
vt 0.918457 0.6142578
vt 0.8989258 0.6025391
vt 0.8969727 0.5947266
vt 0.8916016 0.6069336
vt 0.8857422 0.6010742
vt 0.887207 0.6137695
vt 0.9262695 0.625
vt 0.918457 0.6142578
vt 0.9179688 0.6225586
vt 0.9194336 0.6357422
vt 0.9179688 0.6225586
vt 0.9140625 0.6298828
vt 0.9086914 0.6420898
vt 0.9067383 0.6337891
vt 0.8959961 0.6416016
vt 0.8984375 0.6337891
vt 0.8852539 0.6352539
vt 0.8911133 0.6293945
vt 0.8793945 0.6240234
vt 0.887207 0.6220703
vt 0.8793945 0.6118164
vt 0.887207 0.6220703
vt 0.887207 0.6137695
vt 0.9072266 0.6142578
vt 0.9072266 0.6030273
vt 0.9140625 0.6074219
vt 0.9047852 0.6123047
vt 0.9091797 0.6171875
vt 0.918457 0.6142578
vt 0.8989258 0.6025391
vt 0.9013672 0.6123047
vt 0.8916016 0.6069336
vt 0.8984375 0.6137695
vt 0.887207 0.6137695
vt 0.8969727 0.6162109
vt 0.918457 0.6142578
vt 0.9086914 0.6201172
vt 0.9179688 0.6225586
vt 0.9179688 0.6225586
vt 0.9072266 0.6230469
vt 0.9140625 0.6298828
vt 0.9042969 0.6245117
vt 0.9067383 0.6337891
vt 0.9008789 0.6245117
vt 0.8984375 0.6337891
vt 0.8979492 0.6225586
vt 0.8911133 0.6293945
vt 0.8964844 0.6196289
vt 0.887207 0.6220703
vt 0.887207 0.6220703
vt 0.887207 0.6137695

g wheel_backL_10223_1376
usemtl wheel_backL_10223_1376
usemap wheel_backL_10223_1376
f 1/1/1 3/3/3 2/2/2
f 2/2/2 4/4/4 1/1/1
f 4/4/4 2/2/2 5/5/5
f 5/5/5 6/6/6 4/4/4
f 6/6/6 5/5/5 7/7/7
f 7/7/7 8/8/8 6/6/6
f 8/8/8 7/7/7 9/9/9
f 9/9/9 10/10/10 8/8/8
f 10/10/10 9/9/9 11/11/11
f 11/11/11 12/12/12 10/10/10
f 12/12/12 11/11/11 13/13/13
f 13/13/13 14/14/14 12/12/12
f 14/14/14 13/13/13 15/15/15
f 15/15/15 16/16/16 14/14/14
f 3/3/3 1/1/1 17/17/17
f 17/17/17 18/18/18 3/3/3
f 18/18/18 17/17/17 19/19/19
f 19/19/19 20/20/20 18/18/18
f 20/20/20 19/19/19 21/21/21
f 21/21/21 22/22/22 20/20/20
f 22/22/22 21/21/21 23/23/23
f 23/23/23 24/24/24 22/22/22
f 24/24/24 23/23/23 25/25/25
f 25/25/25 26/26/26 24/24/24
f 27/27/27 29/29/29 28/28/28
f 28/28/28 30/30/30 27/27/27
f 31/31/31 30/30/30 28/28/28
f 28/28/28 32/32/32 31/31/31
f 33/33/33 31/31/31 32/32/32
f 32/32/32 34/34/34 33/33/33
f 35/35/35 33/33/33 34/34/34
f 34/34/34 36/36/36 35/35/35
f 37/37/37 35/35/35 36/36/36
f 36/36/36 38/38/38 37/37/37
f 39/39/39 41/41/41 40/40/40
f 42/42/42 40/40/40 41/41/41
f 41/41/41 43/43/43 42/42/42
f 44/44/44 42/42/42 43/43/43
f 43/43/43 45/45/45 44/44/44
f 46/46/46 44/44/44 45/45/45
f 45/45/45 47/47/47 46/46/46
f 48/48/48 46/46/46 47/47/47
f 47/47/47 49/49/49 48/48/48
f 48/48/48 49/49/49 50/50/50
f 51/51/51 53/53/53 52/52/52
f 52/52/52 54/54/54 51/51/51
f 54/54/54 52/52/52 55/55/55
f 55/55/55 56/56/56 54/54/54
f 56/56/56 55/55/55 57/57/57
f 57/57/57 58/58/58 56/56/56
f 58/58/58 57/57/57 59/59/59
f 59/59/59 60/60/60 58/58/58
f 60/60/60 59/59/59 61/61/61
f 61/61/61 62/62/62 60/60/60
f 62/62/62 61/61/61 63/63/63
f 63/63/63 64/64/64 62/62/62
f 64/64/64 63/63/63 65/65/65
f 65/65/65 66/66/66 64/64/64
f 66/66/66 65/65/65 67/67/67
f 67/67/67 68/68/68 66/66/66
f 68/68/68 67/67/67 69/69/69
f 69/69/69 70/70/70 68/68/68
f 70/70/70 69/69/69 71/71/71
f 71/71/71 72/72/72 70/70/70
f 72/72/72 71/71/71 73/73/73
f 73/73/73 74/74/74 72/72/72
f 74/74/74 73/73/73 53/53/53
f 53/53/53 51/51/51 74/74/74
f 75/75/75 77/77/77 76/76/76
f 76/76/76 78/78/78 75/75/75
f 79/79/79 75/75/75 78/78/78
f 78/78/78 80/80/80 79/79/79
f 81/81/81 76/76/76 77/77/77
f 77/77/77 82/82/82 81/81/81
f 83/83/83 81/81/81 82/82/82
f 82/82/82 84/84/84 83/83/83
f 85/85/85 83/83/83 84/84/84
f 86/86/86 79/79/79 87/87/87
f 87/87/87 88/88/88 86/86/86
f 89/89/89 86/86/86 88/88/88
f 90/90/90 91/91/91 89/89/89
f 92/92/92 89/89/89 91/91/91
f 91/91/91 93/93/93 92/92/92
f 94/94/94 92/92/92 93/93/93
f 93/93/93 95/95/95 94/94/94
f 96/96/96 94/94/94 95/95/95
f 95/95/95 97/97/97 96/96/96
f 98/98/98 96/96/96 97/97/97
f 97/97/97 99/99/99 98/98/98
f 100/100/100 98/98/98 101/101/101
f 101/101/101 102/102/102 100/100/100
f 84/84/84 100/100/100 102/102/102
f 103/103/103 105/105/105 104/104/104
f 104/104/104 106/106/106 103/103/103
f 105/105/105 103/103/103 107/107/107
f 107/107/107 108/108/108 105/105/105
f 106/106/106 104/104/104 109/109/109
f 109/109/109 110/110/110 106/106/106
f 110/110/110 109/109/109 111/111/111
f 111/111/111 112/112/112 110/110/110
f 112/112/112 111/111/111 113/113/113
f 113/113/113 114/114/114 112/112/112
f 115/115/115 107/107/107 116/116/116
f 116/116/116 117/117/117 115/115/115
f 118/118/118 116/116/116 119/119/119
f 119/119/119 120/120/120 118/118/118
f 120/120/120 119/119/119 121/121/121
f 121/121/121 122/122/122 120/120/120
f 122/122/122 121/121/121 123/123/123
f 123/123/123 124/124/124 122/122/122
f 124/124/124 123/123/123 125/125/125
f 125/125/125 126/126/126 124/124/124
f 126/126/126 125/125/125 127/127/127
f 127/127/127 128/128/128 126/126/126
f 129/129/129 127/127/127 114/114/114
f 114/114/114 130/130/130 129/129/129
