#wheel_frontR_1_9997_66.obj

v 0.1067606 -0.09206737 -0.3437167
v -0.1067595 0.09214413 -0.3437055
v -0.10676 -0.09206939 -0.3437173
v 0.1067607 0.0921393 -0.3437069
v -0.1067596 0.2516668 -0.2515911
v 0.1067608 0.2516688 -0.2515905
v -0.1067598 0.3437603 -0.09205345
v 0.1067609 0.3437623 -0.09205285
v -0.1067596 0.3437499 0.09215503
v 0.1067608 0.3437519 0.09215563
v -0.1067594 0.2516367 0.2516829
v 0.1067608 0.2516318 0.2516815
v -0.1067598 0.09209675 0.3437751
v 0.1067609 0.09209878 0.3437757
v -0.1067596 -0.09210993 0.3437652
v 0.1067606 -0.09211475 0.3437638
v 0.1067605 -0.2516073 -0.2516246
v -0.1067597 -0.2516024 -0.2516232
v 0.1067605 -0.3437205 -0.0920967
v -0.1067597 -0.3437226 -0.09209729
v 0.1067609 -0.3437309 0.09211178
v -0.1067598 -0.3437329 0.09211119
v 0.1067607 -0.2516374 0.2516495
v -0.1067579 -0.2516395 0.2516489
v 0.1067606 -0.09211475 0.3437638
v -0.1067596 -0.09210993 0.3437652
v 0.1067605 -0.3437205 -0.0920967
v 0.1067606 -0.09206737 -0.3437167
v 0.1067605 -0.2516073 -0.2516246
v 0.1067609 -0.3437309 0.09211178
v 0.1067607 -0.2516374 0.2516495
v 0.1067607 0.0921393 -0.3437069
v 0.1067606 -0.09211475 0.3437638
v 0.1067608 0.2516688 -0.2515905
v 0.1067609 0.09209878 0.3437757
v 0.1067609 0.3437623 -0.09205285
v 0.1067608 0.2516318 0.2516815
v 0.1067608 0.3437519 0.09215563
v -0.1067598 -0.02513947 -0.09387665
v -0.1067596 0.02518138 -0.09387296
v -0.1067597 -0.06872242 -0.06871848
v -0.1067596 0.06876062 -0.06870912
v -0.1067597 -0.09388642 -0.02513866
v -0.1067598 0.09391747 -0.02512561
v -0.1067598 -0.09389012 0.02518335
v -0.1067599 0.09391378 0.02519641
v -0.1067597 -0.06873327 0.06876686
v -0.1067597 0.06875075 0.06877279
v -0.1067597 -0.02515402 0.0939307
v -0.1067598 0.02516781 0.09393097
v -0.10676 -0.09206939 -0.3437173
v -0.1067598 0.05526454 -0.2061262
v -0.1067598 -0.0552144 -0.206134
v -0.1067595 0.09214413 -0.3437055
v -0.1067597 0.1509442 -0.1508791
v -0.1067596 0.2516668 -0.2515911
v -0.1067596 0.2061778 -0.055197
v -0.1067598 0.3437603 -0.09205345
v -0.1067595 0.2061723 0.05528382
v -0.1067596 0.3437499 0.09215503
v -0.1067596 0.1509269 0.150958
v -0.1067594 0.2516367 0.2516829
v -0.1067596 0.05524175 0.2061918
v -0.1067598 0.09209675 0.3437751
v -0.1067598 -0.05523718 0.2061839
v -0.1067596 -0.09210993 0.3437652
v -0.1067598 -0.1509169 0.1509368
v -0.1067579 -0.2516395 0.2516489
v -0.1067597 -0.2061504 0.05525474
v -0.1067598 -0.3437329 0.09211119
v -0.1067596 -0.2061381 -0.05522412
v -0.1067597 -0.3437226 -0.09209729
v -0.1067596 -0.1508927 -0.1508983
v -0.1067597 -0.2516024 -0.2516232
v -0.1067598 0.05526454 -0.2061262
v -0.06710938 -0.03930715 -0.1467602
v -0.1067598 -0.0552144 -0.206134
v -0.06710958 0.03935244 -0.1467524
v -0.1067597 0.1509442 -0.1508791
v -0.06710956 0.1074761 -0.1074178
v -0.1067596 0.2061778 -0.055197
v -0.06710951 0.1468033 -0.03929143
v -0.1067595 0.2061723 0.05528382
v -0.06710944 0.1467984 0.03937103
v -0.1067596 0.1509269 0.150958
v -0.06710961 0.1074591 0.1074876
v -0.1067596 0.05524175 0.2061918
v -0.06710935 0.03933738 0.1468175
v -0.1067598 -0.05523718 0.2061839
v -0.06710938 -0.03932319 0.146813
v -0.1067598 -0.1509169 0.1509368
v -0.06710938 -0.1074459 0.107475
v -0.1067597 -0.2061504 0.05525474
v -0.06710943 -0.1467731 0.03934867
v -0.1067596 -0.2061381 -0.05522412
v -0.06710954 -0.1467691 -0.03931037
v -0.1067596 -0.1508927 -0.1508983
v -0.06710932 -0.1074289 -0.1074304
v -0.1067596 0.02518138 -0.09387296
v -0.06710938 -0.03930715 -0.1467602
v -0.06710958 0.03935244 -0.1467524
v -0.1067598 -0.02513947 -0.09387665
v -0.1067596 0.06876062 -0.06870912
v -0.06710956 0.1074761 -0.1074178
v -0.1067598 0.09391747 -0.02512561
v -0.06710951 0.1468033 -0.03929143
v -0.1067599 0.09391378 0.02519641
v -0.06710944 0.1467984 0.03937103
v -0.1067597 0.06875075 0.06877279
v -0.06710961 0.1074591 0.1074876
v -0.1067598 0.02516781 0.09393097
v -0.06710935 0.03933738 0.1468175
v -0.1067597 -0.02515402 0.0939307
v -0.06710938 -0.03932319 0.146813
v -0.1067597 -0.06873327 0.06876686
v -0.06710938 -0.1074459 0.107475
v -0.1067598 -0.09389012 0.02518335
v -0.06710943 -0.1467731 0.03934867
v -0.1067597 -0.09388642 -0.02513866
v -0.06710954 -0.1467691 -0.03931037
v -0.1067597 -0.06872242 -0.06871848
v -0.06710932 -0.1074289 -0.1074304

vn -0.513873 -0.008121536 -0.8578292
vn -0.01635931 0.008123743 -0.9998341
vn -0.5138738 -0.008120978 -0.8578287
vn -0.01635766 0.00812329 -0.9998342
vn 0.4855395 0.02219313 -0.873934
vn 0.4855395 0.02219335 -0.873934
vn 0.8573368 0.03031608 -0.5138645
vn 0.8573368 0.03031618 -0.5138643
vn 0.9994117 0.03031551 -0.01610513
vn 0.9994118 0.03031537 -0.0161048
vn 0.8736948 0.02219167 0.4859703
vn 0.8736949 0.02219155 0.4859703
vn 0.5138716 0.008121797 0.85783
vn 0.5138718 0.008121772 0.85783
vn 0.01635833 -0.008124108 0.9998343
vn 0.01635784 -0.008124092 0.9998343
vn -0.8736951 -0.02219028 -0.4859698
vn -0.8736951 -0.02219035 -0.4859698
vn -0.9994118 -0.03031426 0.01610421
vn -0.9994118 -0.0303145 0.01610389
vn -0.8573371 -0.03031545 0.5138638
vn -0.8573378 -0.03031554 0.5138627
vn -0.4855388 -0.02219312 0.8739344
vn -0.4855391 -0.02219312 0.8739343
vn 0.01635784 -0.008124092 0.9998343
vn 0.01635833 -0.008124108 0.9998343
vn 0.03017727 -0.9995074 -0.008616191
vn 0.03017747 -0.9995074 -0.008615924
vn 0.03017819 -0.9995074 -0.008615679
vn 0.03017811 -0.9995074 -0.008615973
vn 0.03017817 -0.9995074 -0.008615776
vn 0.03017782 -0.9995074 -0.008615772
vn 0.03017819 -0.9995074 -0.008615679
vn 0.03017819 -0.9995074 -0.008615679
vn 0.03017819 -0.9995074 -0.008615679
vn 0.03017819 -0.9995074 -0.008615679
vn 0.03017819 -0.9995074 -0.008615679
vn 0.03017819 -0.9995074 -0.008615679
vn -0.03017819 0.9995074 0.008615679
vn -0.03017819 0.9995074 0.008615679
vn -0.03017819 0.9995074 0.008615679
vn -0.03017819 0.9995074 0.008615679
vn -0.03017819 0.9995074 0.008615679
vn -0.03017819 0.9995074 0.008615679
vn -0.03017819 0.9995074 0.008615679
vn -0.03017819 0.9995074 0.008615679
vn -0.03017819 0.9995074 0.008615679
vn -0.03017819 0.9995074 0.008615679
vn -0.03017819 0.9995074 0.008615679
vn -0.03017819 0.9995074 0.008615679
vn -0.03017785 0.9995074 0.008616508
vn -0.03017788 0.9995074 0.008615893
vn -0.03017795 0.9995074 0.008616548
vn -0.03017777 0.9995074 0.008615673
vn -0.03017819 0.9995074 0.008615679
vn -0.03017819 0.9995074 0.008615679
vn -0.03017819 0.9995074 0.008615679
vn -0.03017819 0.9995074 0.008615679
vn -0.03017819 0.9995074 0.008615679
vn -0.03017801 0.9995074 0.008615972
vn -0.0301776 0.9995074 0.008616366
vn -0.03017749 0.9995074 0.008616227
vn -0.03017781 0.9995074 0.008615708
vn -0.03017783 0.9995074 0.008615458
vn -0.03017819 0.9995074 0.008615679
vn -0.0301817 0.9995072 0.008617949
vn -0.03018643 0.9995071 0.008622793
vn -0.03018476 0.9995071 0.008624204
vn -0.03017853 0.9995073 0.008620243
vn -0.03017555 0.9995074 0.008620094
vn -0.03017819 0.9995074 0.008615679
vn -0.03017819 0.9995074 0.008615679
vn -0.03017819 0.9995074 0.008615679
vn -0.0301781 0.9995074 0.008616005
vn -0.01649298 0.8355246 0.5492061
vn 0.2531877 0.8443305 0.4722316
vn 0.253188 0.8443304 0.4722317
vn -0.01649326 0.8355247 0.5492058
vn -0.2885492 0.8278993 0.4809601
vn -0.2885494 0.8278996 0.4809597
vn -0.4900834 0.8234971 0.2857821
vn -0.4900835 0.8234968 0.2857828
vn -0.5670968 0.8234968 0.01597007
vn -0.5670972 0.8234965 0.01597044
vn -0.4989517 0.8278999 -0.2561832
vn -0.4989516 0.8278999 -0.2561834
vn -0.3039078 0.8355262 -0.4577518
vn -0.303908 0.8355261 -0.4577518
vn -0.03422725 0.844332 -0.5347266
vn -0.03422742 0.844332 -0.5347265
vn 0.2378297 0.8519584 -0.4664809
vn 0.2378298 0.8519584 -0.4664808
vn 0.4393646 0.8563609 -0.2713029
vn 0.4393646 0.8563607 -0.2713034
vn 0.5163774 0.8563602 -0.001489043
vn 0.5163774 0.8563601 -0.001488894
vn 0.4482327 0.8519562 0.2706636
vn 0.4482324 0.8519562 0.2706638
vn -0.03403553 0.8142693 -0.5794892
vn -0.3258605 0.8047404 -0.496194
vn -0.03403693 0.8142698 -0.5794885
vn -0.3258604 0.8047403 -0.4961944
vn 0.2603578 0.8225226 -0.5056393
vn 0.2603566 0.8225229 -0.5056391
vn 0.47844 0.8272867 -0.2944358
vn 0.4784408 0.8272864 -0.2944353
vn 0.5617772 0.8272852 -0.00246793
vn 0.5617777 0.827285 -0.002467573
vn 0.4880365 0.8225198 0.2920312
vn 0.4880366 0.8225199 0.2920308
vn 0.276978 0.8142672 0.5101498
vn 0.276978 0.8142672 0.5101497
vn -0.01484548 0.8047382 0.5934446
vn -0.01484604 0.804738 0.5934451
vn -0.309241 0.7964858 0.5195968
vn -0.309242 0.7964856 0.5195968
vn -0.5273241 0.7917219 0.3083934
vn -0.5273247 0.7917216 0.3083927
vn -0.6106609 0.7917225 0.01642355
vn -0.6106609 0.7917224 0.01642372
vn -0.5369197 0.7964872 -0.2780758
vn -0.5369197 0.7964874 -0.2780753

vt 0.894043 0.8886719
vt 0.8735352 0.8657227
vt 0.894043 0.8657227
vt 0.8735352 0.8886719
vt 0.8535156 0.8657227
vt 0.8535156 0.8886719
vt 0.8334961 0.8657227
vt 0.8334961 0.8886719
vt 0.8134766 0.8657227
vt 0.8134766 0.8886719
vt 0.793457 0.8657227
vt 0.793457 0.8886719
vt 0.7734375 0.8657227
vt 0.7734375 0.8886719
vt 0.753418 0.8657227
vt 0.753418 0.8886719
vt 0.9140625 0.8886719
vt 0.9140625 0.8657227
vt 0.934082 0.8886719
vt 0.934082 0.8657227
vt 0.9541016 0.8886719
vt 0.9541016 0.8657227
vt 0.9741211 0.8886719
vt 0.9741211 0.8657227
vt 0.9941406 0.8886719
vt 0.9941406 0.8657227
vt 0.5625 0.7832031
vt 0.5332031 0.7539063
vt 0.5517578 0.7646484
vt 0.5625 0.8046875
vt 0.5522461 0.8232422
vt 0.5117188 0.7539063
vt 0.5336914 0.8339844
vt 0.4934082 0.7646484
vt 0.512207 0.8339844
vt 0.482666 0.7836914
vt 0.4934082 0.8232422
vt 0.482666 0.8051758
vt 0.5249023 0.7875977
vt 0.527832 0.7895508
vt 0.5214844 0.7875977
vt 0.5292969 0.7924805
vt 0.5185547 0.7890625
vt 0.5292969 0.7963867
vt 0.5166016 0.7919922
vt 0.5273438 0.7988281
vt 0.5166016 0.7954102
vt 0.5244141 0.8007813
vt 0.5180664 0.7988281
vt 0.5209961 0.800293
vt 0.534668 0.753418
vt 0.5410156 0.7763672
vt 0.5297852 0.7695313
vt 0.5532227 0.7651367
vt 0.5473633 0.7880859
vt 0.5639648 0.7836914
vt 0.5473633 0.8012695
vt 0.5634766 0.8056641
vt 0.5405273 0.8125
vt 0.5527344 0.824707
vt 0.5292969 0.8188477
vt 0.5332031 0.8359375
vt 0.5161133 0.8183594
vt 0.5112305 0.8349609
vt 0.5048828 0.8115234
vt 0.4924316 0.8232422
vt 0.4985352 0.800293
vt 0.4821777 0.8041992
vt 0.4987793 0.7871094
vt 0.4824219 0.7827148
vt 0.5053711 0.7758789
vt 0.4934082 0.7636719
vt 0.5166016 0.7695313
vt 0.5126953 0.7524414
vt 0.5410156 0.7763672
vt 0.5273438 0.777832
vt 0.5297852 0.7695313
vt 0.534668 0.7822266
vt 0.5473633 0.7880859
vt 0.5390625 0.7900391
vt 0.5473633 0.8012695
vt 0.5390625 0.7988281
vt 0.5405273 0.8125
vt 0.534668 0.8061523
vt 0.5292969 0.8188477
vt 0.5268555 0.8105469
vt 0.5161133 0.8183594
vt 0.5185547 0.8100586
vt 0.5048828 0.8115234
vt 0.5107422 0.8056641
vt 0.4985352 0.800293
vt 0.5068359 0.7983398
vt 0.4987793 0.7871094
vt 0.5068359 0.7895508
vt 0.5053711 0.7758789
vt 0.5112305 0.7822266
vt 0.5166016 0.7695313
vt 0.519043 0.777832
vt 0.527832 0.7895508
vt 0.5273438 0.777832
vt 0.534668 0.7822266
vt 0.5249023 0.7875977
vt 0.5292969 0.7924805
vt 0.5390625 0.7900391
vt 0.5292969 0.7963867
vt 0.5390625 0.7988281
vt 0.5273438 0.7988281
vt 0.534668 0.8061523
vt 0.5244141 0.8007813
vt 0.5268555 0.8105469
vt 0.5209961 0.800293
vt 0.5185547 0.8100586
vt 0.5180664 0.7988281
vt 0.5107422 0.8056641
vt 0.5166016 0.7954102
vt 0.5068359 0.7983398
vt 0.5166016 0.7919922
vt 0.5068359 0.7895508
vt 0.5185547 0.7890625
vt 0.5112305 0.7822266
vt 0.5214844 0.7875977
vt 0.519043 0.777832

g wheel_frontR_1_9997_66
usemtl wheel_frontR_1_9997_66
usemap wheel_frontR_1_9997_66
f 1/1/1 3/3/3 2/2/2
f 2/2/2 4/4/4 1/1/1
f 4/4/4 2/2/2 5/5/5
f 5/5/5 6/6/6 4/4/4
f 6/6/6 5/5/5 7/7/7
f 7/7/7 8/8/8 6/6/6
f 8/8/8 7/7/7 9/9/9
f 9/9/9 10/10/10 8/8/8
f 10/10/10 9/9/9 11/11/11
f 11/11/11 12/12/12 10/10/10
f 12/12/12 11/11/11 13/13/13
f 13/13/13 14/14/14 12/12/12
f 14/14/14 13/13/13 15/15/15
f 15/15/15 16/16/16 14/14/14
f 3/3/3 1/1/1 17/17/17
f 17/17/17 18/18/18 3/3/3
f 18/18/18 17/17/17 19/19/19
f 19/19/19 20/20/20 18/18/18
f 20/20/20 19/19/19 21/21/21
f 21/21/21 22/22/22 20/20/20
f 22/22/22 21/21/21 23/23/23
f 23/23/23 24/24/24 22/22/22
f 24/24/24 23/23/23 25/25/25
f 25/25/25 26/26/26 24/24/24
f 27/27/27 29/29/29 28/28/28
f 28/28/28 30/30/30 27/27/27
f 31/31/31 30/30/30 28/28/28
f 28/28/28 32/32/32 31/31/31
f 33/33/33 31/31/31 32/32/32
f 32/32/32 34/34/34 33/33/33
f 35/35/35 33/33/33 34/34/34
f 34/34/34 36/36/36 35/35/35
f 37/37/37 35/35/35 36/36/36
f 36/36/36 38/38/38 37/37/37
f 39/39/39 41/41/41 40/40/40
f 42/42/42 40/40/40 41/41/41
f 41/41/41 43/43/43 42/42/42
f 44/44/44 42/42/42 43/43/43
f 43/43/43 45/45/45 44/44/44
f 46/46/46 44/44/44 45/45/45
f 45/45/45 47/47/47 46/46/46
f 48/48/48 46/46/46 47/47/47
f 47/47/47 49/49/49 48/48/48
f 48/48/48 49/49/49 50/50/50
f 51/51/51 53/53/53 52/52/52
f 52/52/52 54/54/54 51/51/51
f 54/54/54 52/52/52 55/55/55
f 55/55/55 56/56/56 54/54/54
f 56/56/56 55/55/55 57/57/57
f 57/57/57 58/58/58 56/56/56
f 58/58/58 57/57/57 59/59/59
f 59/59/59 60/60/60 58/58/58
f 60/60/60 59/59/59 61/61/61
f 61/61/61 62/62/62 60/60/60
f 62/62/62 61/61/61 63/63/63
f 63/63/63 64/64/64 62/62/62
f 64/64/64 63/63/63 65/65/65
f 65/65/65 66/66/66 64/64/64
f 66/66/66 65/65/65 67/67/67
f 67/67/67 68/68/68 66/66/66
f 68/68/68 67/67/67 69/69/69
f 69/69/69 70/70/70 68/68/68
f 70/70/70 69/69/69 71/71/71
f 71/71/71 72/72/72 70/70/70
f 72/72/72 71/71/71 73/73/73
f 73/73/73 74/74/74 72/72/72
f 74/74/74 73/73/73 53/53/53
f 53/53/53 51/51/51 74/74/74
f 75/75/75 77/77/77 76/76/76
f 76/76/76 78/78/78 75/75/75
f 79/79/79 75/75/75 78/78/78
f 78/78/78 80/80/80 79/79/79
f 81/81/81 79/79/79 80/80/80
f 80/80/80 82/82/82 81/81/81
f 83/83/83 81/81/81 82/82/82
f 82/82/82 84/84/84 83/83/83
f 85/85/85 83/83/83 84/84/84
f 84/84/84 86/86/86 85/85/85
f 87/87/87 85/85/85 86/86/86
f 86/86/86 88/88/88 87/87/87
f 89/89/89 87/87/87 88/88/88
f 88/88/88 90/90/90 89/89/89
f 91/91/91 89/89/89 90/90/90
f 90/90/90 92/92/92 91/91/91
f 93/93/93 91/91/91 92/92/92
f 92/92/92 94/94/94 93/93/93
f 95/95/95 93/93/93 94/94/94
f 94/94/94 96/96/96 95/95/95
f 97/97/97 95/95/95 96/96/96
f 96/96/96 98/98/98 97/97/97
f 77/77/77 97/97/97 98/98/98
f 98/98/98 76/76/76 77/77/77
f 99/99/99 101/101/101 100/100/100
f 100/100/100 102/102/102 99/99/99
f 101/101/101 99/99/99 103/103/103
f 103/103/103 104/104/104 101/101/101
f 104/104/104 103/103/103 105/105/105
f 105/105/105 106/106/106 104/104/104
f 106/106/106 105/105/105 107/107/107
f 107/107/107 108/108/108 106/106/106
f 108/108/108 107/107/107 109/109/109
f 109/109/109 110/110/110 108/108/108
f 110/110/110 109/109/109 111/111/111
f 111/111/111 112/112/112 110/110/110
f 112/112/112 111/111/111 113/113/113
f 113/113/113 114/114/114 112/112/112
f 114/114/114 113/113/113 115/115/115
f 115/115/115 116/116/116 114/114/114
f 116/116/116 115/115/115 117/117/117
f 117/117/117 118/118/118 116/116/116
f 118/118/118 117/117/117 119/119/119
f 119/119/119 120/120/120 118/118/118
f 120/120/120 119/119/119 121/121/121
f 121/121/121 122/122/122 120/120/120
f 122/122/122 121/121/121 102/102/102
f 102/102/102 100/100/100 122/122/122
