#wheel_backL_8610_76.obj

v -0.1067701 -0.09208229 -0.3437067
v 0.1067521 0.09212706 -0.3436954
v -0.1067703 0.0921275 -0.3436954
v 0.1067512 -0.09208229 -0.34371
v 0.1067513 0.2516519 -0.2515818
v -0.1067712 0.2516519 -0.2515818
v 0.10675 0.3437461 -0.09204265
v -0.106769 0.3437465 -0.09204376
v 0.1067497 0.3437341 0.09216544
v -0.1067693 0.3437345 0.09216432
v 0.1067509 0.2516189 0.2516888
v -0.1067704 0.2516189 0.2516922
v 0.1067515 0.09208257 0.3437833
v -0.1067709 0.09208257 0.3437833
v 0.1067517 -0.09212744 0.3437721
v -0.1067708 -0.09212722 0.343772
v -0.1067696 -0.2516189 -0.2516122
v 0.1067518 -0.2516189 -0.2516155
v -0.1067684 -0.3437342 -0.09208877
v 0.1067507 -0.3437342 -0.09208766
v -0.1067687 -0.3437465 0.09211931
v 0.1067504 -0.3437467 0.09212043
v -0.1067699 -0.2516518 0.2516584
v 0.106748 -0.251652 0.2516561
v -0.1067708 -0.09212722 0.343772
v 0.1067517 -0.09212744 0.3437721
v -0.1067684 -0.3437342 -0.09208877
v -0.1067701 -0.09208229 -0.3437067
v -0.1067687 -0.3437465 0.09211931
v -0.1067696 -0.2516189 -0.2516122
v -0.1067699 -0.2516518 0.2516584
v -0.1067703 0.0921275 -0.3436954
v -0.1067708 -0.09212722 0.343772
v -0.1067712 0.2516519 -0.2515818
v -0.1067709 0.09208257 0.3437833
v -0.106769 0.3437465 -0.09204376
v -0.1067704 0.2516189 0.2516922
v -0.1067693 0.3437345 0.09216432
v 0.106751 -0.02515504 -0.09386805
v 0.1067504 -0.06873707 -0.06870864
v 0.106752 0.02516733 -0.09386466
v 0.1067502 0.06874602 -0.06869738
v 0.1067515 -0.09390114 -0.02513008
v 0.1067513 0.09390409 -0.02511883
v 0.1067514 -0.09390448 0.02519213
v 0.1067512 0.09390099 0.02520338
v 0.1067502 -0.06874596 0.06877515
v 0.106749 0.0687369 0.06878302
v 0.1067507 -0.02516727 0.09393796
v 0.1067518 0.02515488 0.09394135
v 0.1067512 -0.09208229 -0.34371
v 0.1067517 0.05525352 -0.206118
v 0.1067521 0.09212706 -0.3436954
v 0.1067496 -0.05522677 -0.2061248
v 0.1067502 0.1509289 -0.1508697
v 0.1067513 0.2516519 -0.2515818
v 0.1067509 0.2061629 -0.0551886
v 0.10675 0.3437461 -0.09204265
v 0.1067503 0.2061556 0.05529227
v 0.1067497 0.3437341 0.09216544
v 0.1067523 0.1509091 0.1509655
v 0.1067509 0.2516189 0.2516888
v 0.1067509 0.05522683 0.2062026
v 0.1067515 0.09208257 0.3437833
v 0.1067521 -0.05525368 0.2061947
v 0.1067517 -0.09212744 0.3437721
v 0.1067503 -0.1509291 0.1509475
v 0.106748 -0.251652 0.2516561
v 0.1067529 -0.2061631 0.0552653
v 0.1067504 -0.3437467 0.09212043
v 0.1067502 -0.206156 -0.0552145
v 0.1067507 -0.3437342 -0.09208766
v 0.1067505 -0.1509093 -0.1508922
v 0.1067518 -0.2516189 -0.2516155
v 0.1067517 0.05525352 -0.206118
v 0.06710007 -0.03932134 -0.1467472
v 0.06710115 0.03934031 -0.1467438
v 0.1067496 -0.05522677 -0.2061248
v 0.1067502 0.1509289 -0.1508697
v 0.06709935 0.1074607 -0.1074093
v 0.1067509 0.2061629 -0.0551886
v 0.06709989 0.1467869 -0.03928467
v 0.1067503 0.2061556 0.05529227
v 0.067102 0.146782 0.03937884
v 0.1067523 0.1509091 0.1509655
v 0.06710146 0.1074467 0.1075
v 0.1067509 0.05522683 0.2062026
v 0.0671009 0.03932118 0.1468267
v 0.1067521 -0.05525368 0.2061947
v 0.06710215 -0.03934047 0.1468188
v 0.1067503 -0.1509291 0.1509475
v 0.06710055 -0.1074609 0.1074854
v 0.1067529 -0.2061631 0.0552653
v 0.06710001 -0.1467873 0.03936081
v 0.1067502 -0.206156 -0.0552145
v 0.0671013 -0.1467822 -0.03930378
v 0.1067505 -0.1509093 -0.1508922
v 0.06709951 -0.1074469 -0.1074205
v 0.106752 0.02516733 -0.09386466
v 0.06710007 -0.03932134 -0.1467472
v 0.106751 -0.02515504 -0.09386805
v 0.06710115 0.03934031 -0.1467438
v 0.1067502 0.06874602 -0.06869738
v 0.06709935 0.1074607 -0.1074093
v 0.1067513 0.09390409 -0.02511883
v 0.06709989 0.1467869 -0.03928467
v 0.1067512 0.09390099 0.02520338
v 0.067102 0.146782 0.03937884
v 0.106749 0.0687369 0.06878302
v 0.06710146 0.1074467 0.1075
v 0.1067518 0.02515488 0.09394135
v 0.0671009 0.03932118 0.1468267
v 0.1067507 -0.02516727 0.09393796
v 0.06710215 -0.03934047 0.1468188
v 0.1067502 -0.06874596 0.06877515
v 0.06710055 -0.1074609 0.1074854
v 0.1067514 -0.09390448 0.02519213
v 0.06710001 -0.1467873 0.03936081
v 0.1067515 -0.09390114 -0.02513008
v 0.0671013 -0.1467822 -0.03930378
v 0.1067504 -0.06873707 -0.06870864
v 0.06709951 -0.1074469 -0.1074205

vn -0.9207714 -0.2587565 -0.2919344
vn -0.9207397 0.2588806 -0.2919241
vn -0.9207394 0.2588822 -0.2919236
vn -0.9207709 -0.2587572 -0.2919351
vn -0.6739956 0.7071522 -0.2136937
vn -0.6739955 0.7071522 -0.2136938
vn -0.2466556 0.9659416 -0.07820447
vn -0.2466553 0.9659417 -0.07820442
vn 0.2467758 0.9659081 0.0782401
vn 0.246776 0.9659081 0.07824024
vn 0.674084 0.7070598 0.2137205
vn 0.6740841 0.7070597 0.2137206
vn 0.9207718 0.2587548 0.2919344
vn 0.9207717 0.258755 0.2919344
vn 0.9207394 -0.2588817 0.2919246
vn 0.9207392 -0.2588822 0.2919245
vn -0.6740832 -0.7070602 -0.2137216
vn -0.6740832 -0.7070602 -0.2137216
vn -0.2467762 -0.9659078 -0.07824141
vn -0.2467765 -0.9659078 -0.07824127
vn 0.2466551 -0.9659418 0.07820367
vn 0.2466539 -0.9659422 0.07820336
vn 0.673996 -0.7071518 0.2136938
vn 0.6739958 -0.7071519 0.2136938
vn 0.9207392 -0.2588822 0.2919245
vn 0.9207394 -0.2588817 0.2919246
vn -0.3022284 -3.727289E-07 0.9532356
vn -0.3022284 -3.575703E-07 0.9532356
vn -0.3022284 -2.928689E-07 0.9532356
vn -0.3022281 0 0.9532357
vn -0.3022282 2.293471E-14 0.9532356
vn -0.3022283 -3.394418E-07 0.9532356
vn -0.3022282 -1.737805E-07 0.9532356
vn -0.3022282 -2.111349E-07 0.9532356
vn -0.3022282 -1.615953E-07 0.9532356
vn -0.3022281 1.778568E-07 0.9532357
vn -0.3022279 5.091787E-07 0.9532357
vn -0.3022281 0 0.9532357
vn 0.3022306 1.515928E-06 -0.9532349
vn 0.3022281 1.516127E-07 -0.9532357
vn 0.3022257 1.517731E-07 -0.9532365
vn 0.3022275 7.229354E-14 -0.9532359
vn 0.3022281 0 -0.9532357
vn 0.3022288 2.030704E-07 -0.9532354
vn 0.3022281 2.031156E-07 -0.9532357
vn 0.302229 4.507836E-07 -0.9532354
vn 0.3022283 4.50829E-07 -0.9532356
vn 0.3022285 4.994099E-07 -0.9532356
vn 0.3022299 4.99319E-07 -0.9532351
vn 0.3022281 0 -0.9532357
vn 0.3022289 -1.652735E-07 -0.9532354
vn 0.3022284 -3.551935E-14 -0.9532356
vn 0.3022281 3.736278E-07 -0.9532357
vn 0.302229 -4.261337E-07 -0.9532354
vn 0.3022281 6.641544E-07 -0.9532357
vn 0.3022281 5.002866E-07 -0.9532357
vn 0.3022281 2.020207E-07 -0.9532357
vn 0.3022281 0 -0.9532357
vn 0.3022281 0 -0.9532357
vn 0.3022284 1.015757E-07 -0.9532356
vn 0.3022288 3.816964E-07 -0.9532354
vn 0.3022287 5.328299E-07 -0.9532354
vn 0.3022282 3.580473E-07 -0.9532356
vn 0.3022279 4.141756E-07 -0.9532357
vn 0.3022281 0 -0.9532357
vn 0.3022292 -3.997112E-06 -0.9532353
vn 0.3022324 -9.873733E-06 -0.9532343
vn 0.3022342 -8.657754E-06 -0.9532338
vn 0.3022321 -1.576513E-06 -0.9532344
vn 0.3022328 1.331386E-06 -0.9532342
vn 0.3022281 0 -0.9532357
vn 0.3022281 0 -0.9532357
vn 0.3022281 0 -0.9532357
vn 0.3022284 -4.044228E-14 -0.9532356
vn 0.753067 -0.1403288 -0.6428047
vn 0.7530844 0.1402598 -0.6427995
vn 0.7530668 -0.1403289 -0.642805
vn 0.7530845 0.14026 -0.6427993
vn 0.6193181 -0.3833156 -0.6852109
vn 0.6193177 -0.3833155 -0.6852113
vn 0.3876761 -0.5235928 -0.7586549
vn 0.387676 -0.523593 -0.7586549
vn 0.1202093 -0.5235751 -0.8434561
vn 0.1202095 -0.5235757 -0.8434559
vn -0.1114157 -0.3832657 -0.9168936
vn -0.1114158 -0.383266 -0.9168935
vn -0.2451348 -0.1402601 -0.9592894
vn -0.2451348 -0.1402602 -0.9592894
vn -0.2451174 0.1403287 -0.9592839
vn -0.2451172 0.1403287 -0.959284
vn -0.1113678 0.383316 -0.9168784
vn -0.1113676 0.3833159 -0.9168785
vn 0.1202743 0.5235937 -0.8434353
vn 0.1202739 0.5235937 -0.8434355
vn 0.3877418 0.5235756 -0.7586333
vn 0.387742 0.5235758 -0.7586331
vn 0.6193665 0.3832669 -0.6851945
vn 0.6193665 0.3832666 -0.6851946
vn -0.2952955 0.1518511 -0.9432614
vn -0.2953144 -0.1517768 -0.9432675
vn -0.2953154 -0.1517762 -0.9432672
vn -0.2952954 0.1518504 -0.9432616
vn -0.1505647 0.4147888 -0.8973742
vn -0.1505648 0.4147886 -0.8973743
vn 0.100097 0.5665851 -0.8179006
vn 0.1000973 0.5665852 -0.8179005
vn 0.3895256 0.5665653 -0.7261357
vn 0.3895259 0.5665654 -0.7261354
vn 0.6401687 0.414735 -0.6466674
vn 0.6401687 0.4147352 -0.6466672
vn 0.7848663 0.1517768 -0.6007901
vn 0.7848663 0.1517768 -0.6007901
vn 0.7848477 -0.1518502 -0.6007958
vn 0.7848479 -0.1518504 -0.6007957
vn 0.6401175 -0.414789 -0.6466835
vn 0.6401172 -0.4147895 -0.6466833
vn 0.3894559 -0.5665858 -0.7261569
vn 0.389455 -0.5665864 -0.7261569
vn 0.1000252 -0.5665663 -0.8179224
vn 0.1000248 -0.5665666 -0.8179222
vn -0.1506198 -0.4147355 -0.8973897
vn -0.1506188 -0.414736 -0.8973896

vt 0.894043 0.8886719
vt 0.8735352 0.8657227
vt 0.8735352 0.8886719
vt 0.894043 0.8657227
vt 0.8535156 0.8657227
vt 0.8535156 0.8886719
vt 0.8334961 0.8657227
vt 0.8334961 0.8886719
vt 0.8134766 0.8657227
vt 0.8134766 0.8886719
vt 0.793457 0.8657227
vt 0.793457 0.8886719
vt 0.7734375 0.8657227
vt 0.7734375 0.8886719
vt 0.753418 0.8657227
vt 0.753418 0.8886719
vt 0.9140625 0.8886719
vt 0.9140625 0.8657227
vt 0.934082 0.8886719
vt 0.934082 0.8657227
vt 0.9541016 0.8886719
vt 0.9541016 0.8657227
vt 0.9741211 0.8886719
vt 0.9741211 0.8657227
vt 0.9941406 0.8886719
vt 0.9941406 0.8657227
vt 0.5625 0.7832031
vt 0.5332031 0.7539063
vt 0.5625 0.8046875
vt 0.5517578 0.7646484
vt 0.5522461 0.8232422
vt 0.5117188 0.7539063
vt 0.5336914 0.8339844
vt 0.4934082 0.7646484
vt 0.512207 0.8339844
vt 0.482666 0.7836914
vt 0.4934082 0.8232422
vt 0.482666 0.8051758
vt 0.5249023 0.7875977
vt 0.5214844 0.7875977
vt 0.527832 0.7895508
vt 0.5292969 0.7924805
vt 0.5185547 0.7890625
vt 0.5292969 0.7963867
vt 0.5166016 0.7919922
vt 0.5273438 0.7988281
vt 0.5166016 0.7954102
vt 0.5244141 0.8007813
vt 0.5180664 0.7988281
vt 0.5209961 0.800293
vt 0.534668 0.753418
vt 0.5410156 0.7763672
vt 0.5532227 0.7651367
vt 0.5297852 0.7695313
vt 0.5473633 0.7880859
vt 0.5639648 0.7836914
vt 0.5473633 0.8012695
vt 0.5634766 0.8056641
vt 0.5405273 0.8125
vt 0.5527344 0.824707
vt 0.5292969 0.8188477
vt 0.5332031 0.8359375
vt 0.5161133 0.8183594
vt 0.5112305 0.8349609
vt 0.5048828 0.8115234
vt 0.4924316 0.8232422
vt 0.4985352 0.800293
vt 0.4821777 0.8041992
vt 0.4987793 0.7871094
vt 0.4824219 0.7827148
vt 0.5053711 0.7758789
vt 0.4934082 0.7636719
vt 0.5166016 0.7695313
vt 0.5126953 0.7524414
vt 0.5410156 0.7763672
vt 0.5273438 0.777832
vt 0.534668 0.7822266
vt 0.5297852 0.7695313
vt 0.5473633 0.7880859
vt 0.5390625 0.7900391
vt 0.5473633 0.8012695
vt 0.5390625 0.7988281
vt 0.5405273 0.8125
vt 0.534668 0.8061523
vt 0.5292969 0.8188477
vt 0.5268555 0.8105469
vt 0.5161133 0.8183594
vt 0.5185547 0.8100586
vt 0.5048828 0.8115234
vt 0.5107422 0.8056641
vt 0.4985352 0.800293
vt 0.5068359 0.7983398
vt 0.4987793 0.7871094
vt 0.5068359 0.7895508
vt 0.5053711 0.7758789
vt 0.5112305 0.7822266
vt 0.5166016 0.7695313
vt 0.519043 0.777832
vt 0.527832 0.7895508
vt 0.5273438 0.777832
vt 0.5249023 0.7875977
vt 0.534668 0.7822266
vt 0.5292969 0.7924805
vt 0.5390625 0.7900391
vt 0.5292969 0.7963867
vt 0.5390625 0.7988281
vt 0.5273438 0.7988281
vt 0.534668 0.8061523
vt 0.5244141 0.8007813
vt 0.5268555 0.8105469
vt 0.5209961 0.800293
vt 0.5185547 0.8100586
vt 0.5180664 0.7988281
vt 0.5107422 0.8056641
vt 0.5166016 0.7954102
vt 0.5068359 0.7983398
vt 0.5166016 0.7919922
vt 0.5068359 0.7895508
vt 0.5185547 0.7890625
vt 0.5112305 0.7822266
vt 0.5214844 0.7875977
vt 0.519043 0.777832

g wheel_backL_8610_76
usemtl wheel_backL_8610_76
usemap wheel_backL_8610_76
f 1/1/1 3/3/3 2/2/2
f 2/2/2 4/4/4 1/1/1
f 5/5/5 2/2/2 3/3/3
f 3/3/3 6/6/6 5/5/5
f 7/7/7 5/5/5 6/6/6
f 6/6/6 8/8/8 7/7/7
f 9/9/9 7/7/7 8/8/8
f 8/8/8 10/10/10 9/9/9
f 11/11/11 9/9/9 10/10/10
f 10/10/10 12/12/12 11/11/11
f 13/13/13 11/11/11 12/12/12
f 12/12/12 14/14/14 13/13/13
f 15/15/15 13/13/13 14/14/14
f 14/14/14 16/16/16 15/15/15
f 17/17/17 1/1/1 4/4/4
f 4/4/4 18/18/18 17/17/17
f 19/19/19 17/17/17 18/18/18
f 18/18/18 20/20/20 19/19/19
f 21/21/21 19/19/19 20/20/20
f 20/20/20 22/22/22 21/21/21
f 23/23/23 21/21/21 22/22/22
f 22/22/22 24/24/24 23/23/23
f 25/25/25 23/23/23 24/24/24
f 24/24/24 26/26/26 25/25/25
f 27/27/27 29/29/29 28/28/28
f 28/28/28 30/30/30 27/27/27
f 28/28/28 29/29/29 31/31/31
f 31/31/31 32/32/32 28/28/28
f 32/32/32 31/31/31 33/33/33
f 33/33/33 34/34/34 32/32/32
f 34/34/34 33/33/33 35/35/35
f 35/35/35 36/36/36 34/34/34
f 36/36/36 35/35/35 37/37/37
f 37/37/37 38/38/38 36/36/36
f 39/39/39 41/41/41 40/40/40
f 40/40/40 41/41/41 42/42/42
f 42/42/42 43/43/43 40/40/40
f 43/43/43 42/42/42 44/44/44
f 44/44/44 45/45/45 43/43/43
f 45/45/45 44/44/44 46/46/46
f 46/46/46 47/47/47 45/45/45
f 47/47/47 46/46/46 48/48/48
f 48/48/48 49/49/49 47/47/47
f 48/48/48 50/50/50 49/49/49
f 51/51/51 53/53/53 52/52/52
f 52/52/52 54/54/54 51/51/51
f 55/55/55 52/52/52 53/53/53
f 53/53/53 56/56/56 55/55/55
f 57/57/57 55/55/55 56/56/56
f 56/56/56 58/58/58 57/57/57
f 59/59/59 57/57/57 58/58/58
f 58/58/58 60/60/60 59/59/59
f 61/61/61 59/59/59 60/60/60
f 60/60/60 62/62/62 61/61/61
f 63/63/63 61/61/61 62/62/62
f 62/62/62 64/64/64 63/63/63
f 65/65/65 63/63/63 64/64/64
f 64/64/64 66/66/66 65/65/65
f 67/67/67 65/65/65 66/66/66
f 66/66/66 68/68/68 67/67/67
f 69/69/69 67/67/67 68/68/68
f 68/68/68 70/70/70 69/69/69
f 71/71/71 69/69/69 70/70/70
f 70/70/70 72/72/72 71/71/71
f 73/73/73 71/71/71 72/72/72
f 72/72/72 74/74/74 73/73/73
f 54/54/54 73/73/73 74/74/74
f 74/74/74 51/51/51 54/54/54
f 75/75/75 77/77/77 76/76/76
f 76/76/76 78/78/78 75/75/75
f 77/77/77 75/75/75 79/79/79
f 79/79/79 80/80/80 77/77/77
f 80/80/80 79/79/79 81/81/81
f 81/81/81 82/82/82 80/80/80
f 82/82/82 81/81/81 83/83/83
f 83/83/83 84/84/84 82/82/82
f 84/84/84 83/83/83 85/85/85
f 85/85/85 86/86/86 84/84/84
f 86/86/86 85/85/85 87/87/87
f 87/87/87 88/88/88 86/86/86
f 88/88/88 87/87/87 89/89/89
f 89/89/89 90/90/90 88/88/88
f 90/90/90 89/89/89 91/91/91
f 91/91/91 92/92/92 90/90/90
f 92/92/92 91/91/91 93/93/93
f 93/93/93 94/94/94 92/92/92
f 94/94/94 93/93/93 95/95/95
f 95/95/95 96/96/96 94/94/94
f 96/96/96 95/95/95 97/97/97
f 97/97/97 98/98/98 96/96/96
f 98/98/98 97/97/97 78/78/78
f 78/78/78 76/76/76 98/98/98
f 99/99/99 101/101/101 100/100/100
f 100/100/100 102/102/102 99/99/99
f 103/103/103 99/99/99 102/102/102
f 102/102/102 104/104/104 103/103/103
f 105/105/105 103/103/103 104/104/104
f 104/104/104 106/106/106 105/105/105
f 107/107/107 105/105/105 106/106/106
f 106/106/106 108/108/108 107/107/107
f 109/109/109 107/107/107 108/108/108
f 108/108/108 110/110/110 109/109/109
f 111/111/111 109/109/109 110/110/110
f 110/110/110 112/112/112 111/111/111
f 113/113/113 111/111/111 112/112/112
f 112/112/112 114/114/114 113/113/113
f 115/115/115 113/113/113 114/114/114
f 114/114/114 116/116/116 115/115/115
f 117/117/117 115/115/115 116/116/116
f 116/116/116 118/118/118 117/117/117
f 119/119/119 117/117/117 118/118/118
f 118/118/118 120/120/120 119/119/119
f 121/121/121 119/119/119 120/120/120
f 120/120/120 122/122/122 121/121/121
f 101/101/101 121/121/121 122/122/122
f 122/122/122 100/100/100 101/101/101
