#wheel_frontR_9937_1380.obj

v 0.1406814 -0.3557717 0.09536827
v -0.08031639 -0.2604314 0.260476
v 0.1406829 -0.2604308 0.2604769
v -0.08031609 -0.3557717 0.09536733
v -0.08031544 -0.09530783 0.3557934
v 0.140682 -0.0953076 0.3557944
v -0.08031544 0.09535309 0.3557863
v 0.140682 0.09535353 0.3557872
v -0.08031636 0.2604642 0.2604403
v 0.1406829 0.2604647 0.2604412
v -0.08031605 0.355784 0.09531739
v 0.1406814 0.355784 0.09531833
v -0.08031615 0.3557715 -0.095339
v 0.1406813 0.3557715 -0.09534519
v -0.08031584 0.2604299 -0.2604547
v 0.1406816 0.2604303 -0.2604538
v 0.1406813 -0.3557842 -0.09529525
v -0.08031618 -0.3557842 -0.09529619
v 0.1406816 -0.2604644 -0.2604181
v -0.08031587 -0.2604644 -0.2604191
v 0.1406825 -0.09535398 -0.355757
v -0.08031502 -0.09535421 -0.355758
v 0.1406825 0.09530693 -0.3557713
v -0.08031323 0.09530671 -0.3557723
v 0.1406816 0.2604303 -0.2604538
v -0.08031584 0.2604299 -0.2604547
v 0.1406816 -0.2604644 -0.2604181
v 0.1406814 -0.3557717 0.09536827
v 0.1406825 -0.09535398 -0.355757
v 0.1406813 -0.3557842 -0.09529525
v 0.1406825 0.09530693 -0.3557713
v 0.1406829 -0.2604308 0.2604769
v 0.1406816 0.2604303 -0.2604538
v 0.140682 -0.0953076 0.3557944
v 0.1406813 0.3557715 -0.09534519
v 0.140682 0.09535353 0.3557872
v 0.1406814 0.355784 0.09531833
v 0.1406829 0.2604647 0.2604412
v -0.1406141 -0.09718979 0.02606273
v -0.1406142 -0.09719313 -0.02602392
v -0.1406146 -0.07114445 0.07116884
v -0.1406145 -0.02603631 0.09720147
v -0.1406138 -0.07115404 -0.07113003
v -0.1406145 0.02604813 0.09720147
v -0.1406138 -0.02604902 -0.09717692
v -0.1406146 0.07115314 0.07115458
v -0.1406138 0.02603542 -0.09718405
v -0.1406141 0.09719224 0.02604846
v -0.1406138 0.07114378 -0.0711443
v -0.1406142 0.09718889 -0.02603819
v -0.08031609 -0.3557717 0.09536733
v -0.0803166 -0.1561944 0.1562242
v -0.08031639 -0.2604314 0.260476
v -0.08031501 -0.2133756 0.05719897
v -0.08031636 -0.05716108 0.2133947
v -0.08031544 -0.09530783 0.3557934
v -0.08031636 0.05718828 0.2133876
v -0.08031544 0.09535309 0.3557863
v -0.08031658 0.156214 0.1562028
v -0.08031636 0.2604642 0.2604403
v -0.08031499 0.2133823 0.05717043
v -0.08031605 0.355784 0.09531739
v -0.08031544 0.2133747 -0.05717777
v -0.08031615 0.3557715 -0.095339
v -0.08031564 0.1561935 -0.156203
v -0.08031584 0.2604299 -0.2604547
v -0.08031587 0.05716018 -0.2133735
v -0.08031323 0.09530671 -0.3557723
v -0.08031587 -0.05718917 -0.2133664
v -0.08031502 -0.09535421 -0.355758
v -0.08031566 -0.1562149 -0.1561816
v -0.08031587 -0.2604644 -0.2604191
v -0.08031546 -0.2133828 -0.05714923
v -0.08031618 -0.3557842 -0.09529619
v -0.0803166 -0.1561944 0.1562242
v -0.03927797 -0.1519227 0.0407275
v -0.03927793 -0.1112099 0.1112388
v -0.08031501 -0.2133756 0.05719897
v -0.08031636 -0.05716108 0.2133947
v -0.03927717 -0.04069861 0.1519384
v -0.0392777 -0.1519278 -0.04068597
v -0.08031546 -0.2133828 -0.05714923
v -0.03927774 -0.1112246 -0.1111973
v -0.08031566 -0.1562149 -0.1561816
v -0.03927672 -0.04071845 -0.1519111
v -0.03927717 -0.04069861 0.1519384
v -0.08031636 0.05718828 0.2133876
v -0.03927716 0.04071756 0.1519312
v -0.08031658 0.156214 0.1562028
v -0.03927716 0.04071756 0.1519312
v -0.03927792 0.1112235 0.1112245
v -0.08031499 0.2133823 0.05717043
v -0.03927618 0.1519271 0.04071322
v -0.08031544 0.2133747 -0.05717777
v -0.03927769 0.1519218 -0.04070738
v -0.08031564 0.1561935 -0.156203
v -0.03927773 0.111209 -0.1112115
v -0.08031587 0.05716018 -0.2133735
v -0.03927671 0.04069771 -0.1519182
v -0.03927671 0.04069771 -0.1519182
v -0.08031587 -0.05718917 -0.2133664
v -0.03927672 -0.04071845 -0.1519111
v -0.1406146 -0.07114445 0.07116884
v -0.03927797 -0.1519227 0.0407275
v -0.1406141 -0.09718979 0.02606273
v -0.03927793 -0.1112099 0.1112388
v -0.1406145 -0.02603631 0.09720147
v -0.03927717 -0.04069861 0.1519384
v -0.0392777 -0.1519278 -0.04068597
v -0.1406142 -0.09719313 -0.02602392
v -0.03927774 -0.1112246 -0.1111973
v -0.1406138 -0.07115404 -0.07113003
v -0.03927672 -0.04071845 -0.1519111
v -0.1406138 -0.02604902 -0.09717692
v -0.1406145 0.02604813 0.09720147
v -0.03927717 -0.04069861 0.1519384
v -0.03927716 0.04071756 0.1519312
v -0.1406146 0.07115314 0.07115458
v -0.03927716 0.04071756 0.1519312
v -0.03927792 0.1112235 0.1112245
v -0.1406141 0.09719224 0.02604846
v -0.03927618 0.1519271 0.04071322
v -0.1406142 0.09718889 -0.02603819
v -0.03927769 0.1519218 -0.04070738
v -0.1406138 0.07114378 -0.0711443
v -0.03927773 0.111209 -0.1112115
v -0.1406138 0.02603542 -0.09718405
v -0.03927671 0.04069771 -0.1519182
v -0.03927671 0.04069771 -0.1519182
v -0.03927672 -0.04071845 -0.1519111

vn 0.0001771376 -0.9659082 0.2588808
vn 0.0004829436 -0.707061 0.7071516
vn 0.0004833651 -0.7070597 0.7071528
vn 0.000176556 -0.9659084 0.2588801
vn 0.0006583554 -0.2587561 0.9659424
vn 0.0006580638 -0.2587561 0.9659424
vn 0.0006571882 0.2588807 0.965909
vn 0.0006574062 0.2588814 0.9659088
vn 0.0004809224 0.707152 0.7070605
vn 0.0004811887 0.7071524 0.7070602
vn 0.000175552 0.9659418 0.2587556
vn 0.0001755029 0.9659417 0.2587559
vn -0.0001771016 0.9659078 -0.2588824
vn -0.0001771311 0.9659079 -0.2588822
vn -0.0004822773 0.7070603 -0.7071522
vn -0.0004822775 0.7070599 -0.7071526
vn -0.0001764718 -0.9659414 -0.2587566
vn -0.0001764717 -0.9659415 -0.2587565
vn -0.000481799 -0.7071525 -0.70706
vn -0.0004816788 -0.7071526 -0.7070599
vn -0.0006583228 -0.2588818 -0.9659087
vn -0.0006581408 -0.2588831 -0.9659083
vn -0.0006583569 0.2587564 -0.9659423
vn -0.0006581861 0.2587559 -0.9659425
vn -0.0004822775 0.7070599 -0.7071526
vn -0.0004822773 0.7070603 -0.7071522
vn 0.9999998 -9.934085E-07 -0.0006818537
vn 0.9999998 -6.813784E-07 -0.0006819204
vn 0.9999998 -2.239862E-07 -0.0006813703
vn 0.9999998 1.464793E-07 -0.0006815483
vn 0.9999998 -9.580623E-15 -0.0006815292
vn 0.9999998 -3.219472E-07 -0.0006817484
vn 0.9999998 -6.718831E-15 -0.0006815947
vn 0.9999998 -7.164499E-15 -0.0006815845
vn 0.9999998 -6.623376E-15 -0.0006815969
vn 0.9999998 -7.108843E-15 -0.0006815857
vn 0.9999998 -8.191087E-15 -0.000681561
vn 0.9999998 0 -0.0006817484
vn -0.9999998 -3.662003E-07 0.0006817484
vn -0.9999998 6.617296E-15 0.000681597
vn -0.9999998 -2.014145E-07 0.0006817484
vn -0.9999998 6.429454E-15 0.0006816013
vn -0.9999998 8.888277E-15 0.0006815451
vn -0.9999998 8.715852E-15 0.000681549
vn -0.9999998 8.715843E-15 0.000681549
vn -0.9999998 8.888278E-15 0.0006815451
vn -0.9999998 6.429457E-15 0.0006816013
vn -0.9999998 6.617281E-15 0.000681597
vn -0.9999998 -2.01414E-07 0.0006817484
vn -0.9999998 -3.662018E-07 0.0006817484
vn -0.9999998 5.765916E-07 0.0006807845
vn -0.9999998 1.397551E-07 0.0006812112
vn -0.9999998 -7.095733E-15 0.0006819107
vn -0.9999998 5.552366E-07 0.0006804254
vn -0.9999998 7.466466E-07 0.000682604
vn -0.9999998 4.168599E-07 0.0006824232
vn -0.9999998 2.64948E-07 0.0006817484
vn -0.9999998 8.593198E-15 0.0006815518
vn -0.9999998 6.997503E-15 0.0006815883
vn -0.9999998 3.102385E-07 0.0006815122
vn -0.9999998 8.412433E-07 0.0006815213
vn -0.9999998 8.445589E-07 0.0006817484
vn -0.9999998 3.00085E-07 0.0006817484
vn -0.9999998 1.337842E-07 0.0006819834
vn -0.9999998 6.725036E-15 0.0006815945
vn -0.9999998 -8.882894E-07 0.0006776496
vn -0.9999998 -9.360038E-07 0.0006710781
vn -0.9999998 1.167771E-06 0.0006712145
vn -0.9999998 2.824913E-06 0.000678155
vn -0.9999998 4.799921E-06 0.0006802648
vn -0.9999998 6.9975E-15 0.0006815883
vn -0.9999998 7.002799E-15 0.0006815882
vn -0.9999998 6.514437E-15 0.0006815994
vn -0.9999998 2.293815E-07 0.000681359
vn -0.8406044 0.3832646 -0.3827431
vn -0.8404388 0.5235748 -0.1397555
vn -0.840604 0.3832656 -0.3827429
vn -0.8404386 0.5235749 -0.1397558
vn -0.840699 0.140261 -0.5230221
vn -0.8406993 0.1402608 -0.5230219
vn -0.8402463 0.5235947 0.1408334
vn -0.8402462 0.5235949 0.1408335
vn -0.8400815 0.3833158 0.3838381
vn -0.8400816 0.3833155 0.383838
vn -0.8399859 0.1403278 0.5241485
vn -0.8406993 0.1402608 -0.5230219
vn -0.8407003 -0.140328 -0.5230021
vn -0.8407006 -0.1403288 -0.5230014
vn -0.8406047 -0.3833147 -0.3826922
vn -0.8407006 -0.1403288 -0.5230014
vn -0.8406042 -0.3833149 -0.3826933
vn -0.8404378 -0.5235945 -0.1396872
vn -0.8404374 -0.5235947 -0.1396888
vn -0.8402463 -0.5235765 0.1409013
vn -0.8402461 -0.5235766 0.1409013
vn -0.8400806 -0.3832664 0.3838895
vn -0.8400809 -0.3832659 0.3838893
vn -0.8399857 -0.1402594 0.5241669
vn -0.8399859 -0.140259 0.5241668
vn -0.8399859 -0.140259 0.5241668
vn -0.8399859 0.140328 0.5241483
vn -0.8399859 0.1403278 0.5241485
vn -0.4876312 -0.6171311 0.6175466
vn -0.4878986 -0.8430583 0.2262871
vn -0.4878977 -0.8430582 0.2262896
vn -0.4876319 -0.6171323 0.6175449
vn -0.4874786 -0.2258461 0.8434203
vn -0.4874786 -0.2258454 0.8434205
vn -0.4882051 -0.8430885 -0.2255128
vn -0.4882047 -0.843089 -0.2255114
vn -0.4884727 -0.6172137 -0.616799
vn -0.4884731 -0.6172131 -0.6167993
vn -0.488627 -0.2259554 -0.8427266
vn -0.4886274 -0.225954 -0.8427266
vn -0.4874777 0.2259544 0.8433918
vn -0.4874786 -0.2258454 0.8434205
vn -0.4874767 0.2259565 0.8433918
vn -0.4876316 0.6172125 0.6174651
vn -0.4874767 0.2259565 0.8433918
vn -0.4876316 0.6172124 0.6174653
vn -0.4878981 0.8430882 0.2261773
vn -0.4878986 0.8430876 0.2261785
vn -0.4882061 0.8430585 -0.225623
vn -0.4882061 0.8430585 -0.2256231
vn -0.4884728 0.6171323 -0.6168804
vn -0.4884727 0.6171324 -0.6168803
vn -0.4886271 0.2258471 -0.8427554
vn -0.488627 0.2258464 -0.8427557
vn -0.488627 0.2258464 -0.8427557
vn -0.488627 -0.2259554 -0.8427266

vt 0.9628906 0.5917969
vt 0.9848633 0.5727539
vt 0.9628906 0.5727539
vt 0.9848633 0.5917969
vt 0.9848633 0.5532227
vt 0.9628906 0.5532227
vt 0.9848633 0.5341797
vt 0.9628906 0.5341797
vt 0.9848633 0.5151367
vt 0.9628906 0.5151367
vt 0.9848633 0.4958496
vt 0.9628906 0.4958496
vt 0.9848633 0.4768066
vt 0.9628906 0.4768066
vt 0.9848633 0.4575195
vt 0.9628906 0.4575195
vt 0.9628906 0.6108398
vt 0.9848633 0.6108398
vt 0.9628906 0.6303711
vt 0.9848633 0.6303711
vt 0.9628906 0.6494141
vt 0.9848633 0.6494141
vt 0.9628906 0.668457
vt 0.9848633 0.668457
vt 0.9628906 0.6875
vt 0.9848633 0.6875
vt 0.940918 0.6079102
vt 0.9130859 0.5800781
vt 0.940918 0.628418
vt 0.9306641 0.590332
vt 0.9306641 0.6459961
vt 0.8925781 0.5800781
vt 0.9130859 0.65625
vt 0.8745117 0.590332
vt 0.8925781 0.65625
vt 0.8647461 0.6079102
vt 0.875 0.6459961
vt 0.8647461 0.628418
vt 0.9047852 0.6123047
vt 0.9013672 0.6123047
vt 0.9072266 0.6142578
vt 0.9091797 0.6171875
vt 0.8984375 0.6137695
vt 0.9086914 0.6201172
vt 0.8969727 0.6162109
vt 0.9072266 0.6230469
vt 0.8964844 0.6196289
vt 0.9042969 0.6245117
vt 0.8979492 0.6225586
vt 0.9008789 0.6245117
vt 0.9140625 0.5791016
vt 0.9199219 0.6015625
vt 0.9321289 0.590332
vt 0.909668 0.5952148
vt 0.9262695 0.6123047
vt 0.9418945 0.6083984
vt 0.9262695 0.625
vt 0.9414063 0.6293945
vt 0.9194336 0.6357422
vt 0.9311523 0.6474609
vt 0.9086914 0.6420898
vt 0.9125977 0.6582031
vt 0.8959961 0.6416016
vt 0.8916016 0.6572266
vt 0.8852539 0.6352539
vt 0.8735352 0.6464844
vt 0.8793945 0.6240234
vt 0.8637695 0.6279297
vt 0.8793945 0.6118164
vt 0.8637695 0.6074219
vt 0.8857422 0.6010742
vt 0.8745117 0.5893555
vt 0.8969727 0.5947266
vt 0.8930664 0.5786133
vt 0.9199219 0.6015625
vt 0.9072266 0.6030273
vt 0.9140625 0.6074219
vt 0.909668 0.5952148
vt 0.9262695 0.6123047
vt 0.918457 0.6142578
vt 0.8989258 0.6025391
vt 0.8969727 0.5947266
vt 0.8916016 0.6069336
vt 0.8857422 0.6010742
vt 0.887207 0.6137695
vt 0.918457 0.6142578
vt 0.9262695 0.625
vt 0.9179688 0.6225586
vt 0.9194336 0.6357422
vt 0.9179688 0.6225586
vt 0.9140625 0.6298828
vt 0.9086914 0.6420898
vt 0.9067383 0.6337891
vt 0.8959961 0.6416016
vt 0.8984375 0.6337891
vt 0.8852539 0.6352539
vt 0.8911133 0.6293945
vt 0.8793945 0.6240234
vt 0.887207 0.6220703
vt 0.887207 0.6220703
vt 0.8793945 0.6118164
vt 0.887207 0.6137695
vt 0.9072266 0.6142578
vt 0.9072266 0.6030273
vt 0.9047852 0.6123047
vt 0.9140625 0.6074219
vt 0.9091797 0.6171875
vt 0.918457 0.6142578
vt 0.8989258 0.6025391
vt 0.9013672 0.6123047
vt 0.8916016 0.6069336
vt 0.8984375 0.6137695
vt 0.887207 0.6137695
vt 0.8969727 0.6162109
vt 0.9086914 0.6201172
vt 0.918457 0.6142578
vt 0.9179688 0.6225586
vt 0.9072266 0.6230469
vt 0.9179688 0.6225586
vt 0.9140625 0.6298828
vt 0.9042969 0.6245117
vt 0.9067383 0.6337891
vt 0.9008789 0.6245117
vt 0.8984375 0.6337891
vt 0.8979492 0.6225586
vt 0.8911133 0.6293945
vt 0.8964844 0.6196289
vt 0.887207 0.6220703
vt 0.887207 0.6220703
vt 0.887207 0.6137695

g wheel_frontR_9937_1380
usemtl wheel_frontR_9937_1380
usemap wheel_frontR_9937_1380
f 1/1/1 3/3/3 2/2/2
f 2/2/2 4/4/4 1/1/1
f 5/5/5 2/2/2 3/3/3
f 3/3/3 6/6/6 5/5/5
f 7/7/7 5/5/5 6/6/6
f 6/6/6 8/8/8 7/7/7
f 9/9/9 7/7/7 8/8/8
f 8/8/8 10/10/10 9/9/9
f 11/11/11 9/9/9 10/10/10
f 10/10/10 12/12/12 11/11/11
f 13/13/13 11/11/11 12/12/12
f 12/12/12 14/14/14 13/13/13
f 15/15/15 13/13/13 14/14/14
f 14/14/14 16/16/16 15/15/15
f 17/17/17 1/1/1 4/4/4
f 4/4/4 18/18/18 17/17/17
f 19/19/19 17/17/17 18/18/18
f 18/18/18 20/20/20 19/19/19
f 21/21/21 19/19/19 20/20/20
f 20/20/20 22/22/22 21/21/21
f 23/23/23 21/21/21 22/22/22
f 22/22/22 24/24/24 23/23/23
f 25/25/25 23/23/23 24/24/24
f 24/24/24 26/26/26 25/25/25
f 27/27/27 29/29/29 28/28/28
f 28/28/28 30/30/30 27/27/27
f 28/28/28 29/29/29 31/31/31
f 31/31/31 32/32/32 28/28/28
f 32/32/32 31/31/31 33/33/33
f 33/33/33 34/34/34 32/32/32
f 34/34/34 33/33/33 35/35/35
f 35/35/35 36/36/36 34/34/34
f 36/36/36 35/35/35 37/37/37
f 37/37/37 38/38/38 36/36/36
f 39/39/39 41/41/41 40/40/40
f 40/40/40 41/41/41 42/42/42
f 42/42/42 43/43/43 40/40/40
f 43/43/43 42/42/42 44/44/44
f 44/44/44 45/45/45 43/43/43
f 45/45/45 44/44/44 46/46/46
f 46/46/46 47/47/47 45/45/45
f 47/47/47 46/46/46 48/48/48
f 48/48/48 49/49/49 47/47/47
f 48/48/48 50/50/50 49/49/49
f 51/51/51 53/53/53 52/52/52
f 52/52/52 54/54/54 51/51/51
f 55/55/55 52/52/52 53/53/53
f 53/53/53 56/56/56 55/55/55
f 57/57/57 55/55/55 56/56/56
f 56/56/56 58/58/58 57/57/57
f 59/59/59 57/57/57 58/58/58
f 58/58/58 60/60/60 59/59/59
f 61/61/61 59/59/59 60/60/60
f 60/60/60 62/62/62 61/61/61
f 63/63/63 61/61/61 62/62/62
f 62/62/62 64/64/64 63/63/63
f 65/65/65 63/63/63 64/64/64
f 64/64/64 66/66/66 65/65/65
f 67/67/67 65/65/65 66/66/66
f 66/66/66 68/68/68 67/67/67
f 69/69/69 67/67/67 68/68/68
f 68/68/68 70/70/70 69/69/69
f 71/71/71 69/69/69 70/70/70
f 70/70/70 72/72/72 71/71/71
f 73/73/73 71/71/71 72/72/72
f 72/72/72 74/74/74 73/73/73
f 54/54/54 73/73/73 74/74/74
f 74/74/74 51/51/51 54/54/54
f 75/75/75 77/77/77 76/76/76
f 76/76/76 78/78/78 75/75/75
f 77/77/77 75/75/75 79/79/79
f 79/79/79 80/80/80 77/77/77
f 78/78/78 76/76/76 81/81/81
f 81/81/81 82/82/82 78/78/78
f 82/82/82 81/81/81 83/83/83
f 83/83/83 84/84/84 82/82/82
f 84/84/84 83/83/83 85/85/85
f 86/86/86 79/79/79 87/87/87
f 87/87/87 88/88/88 86/86/86
f 88/88/88 87/87/87 89/89/89
f 89/89/89 91/91/91 90/90/90
f 91/91/91 89/89/89 92/92/92
f 92/92/92 93/93/93 91/91/91
f 93/93/93 92/92/92 94/94/94
f 94/94/94 95/95/95 93/93/93
f 95/95/95 94/94/94 96/96/96
f 96/96/96 97/97/97 95/95/95
f 97/97/97 96/96/96 98/98/98
f 98/98/98 99/99/99 97/97/97
f 100/100/100 98/98/98 101/101/101
f 101/101/101 102/102/102 100/100/100
f 102/102/102 101/101/101 84/84/84
f 103/103/103 105/105/105 104/104/104
f 104/104/104 106/106/106 103/103/103
f 107/107/107 103/103/103 106/106/106
f 106/106/106 108/108/108 107/107/107
f 109/109/109 104/104/104 105/105/105
f 105/105/105 110/110/110 109/109/109
f 111/111/111 109/109/109 110/110/110
f 110/110/110 112/112/112 111/111/111
f 113/113/113 111/111/111 112/112/112
f 112/112/112 114/114/114 113/113/113
f 115/115/115 107/107/107 116/116/116
f 116/116/116 117/117/117 115/115/115
f 118/118/118 115/115/115 119/119/119
f 119/119/119 120/120/120 118/118/118
f 121/121/121 118/118/118 120/120/120
f 120/120/120 122/122/122 121/121/121
f 123/123/123 121/121/121 122/122/122
f 122/122/122 124/124/124 123/123/123
f 125/125/125 123/123/123 124/124/124
f 124/124/124 126/126/126 125/125/125
f 127/127/127 125/125/125 126/126/126
f 126/126/126 128/128/128 127/127/127
f 114/114/114 127/127/127 129/129/129
f 129/129/129 130/130/130 114/114/114
