#wheel_backL_9132_427.obj

v -0.1067388 -0.09327787 -0.3437232
v 0.1055861 -0.09327787 -0.3437226
v 0.1067853 0.09212714 -0.3437104
v -0.1067354 0.09212758 -0.3437094
v 0.1067798 0.2516517 -0.2515936
v -0.1067418 0.2516519 -0.251596
v 0.1067816 0.3437464 -0.09205867
v -0.1067392 0.3437466 -0.09205765
v 0.1067793 0.3437344 0.0921509
v -0.1067414 0.3437346 0.09215193
v 0.1067785 0.251619 0.2516754
v -0.1067353 0.2516192 0.2516747
v 0.1067826 0.09208266 0.3437716
v -0.1067389 0.09208266 0.3437692
v 0.1055834 -0.09332703 0.3437594
v -0.1067415 -0.09332681 0.3437588
v -0.1067347 -0.2223807 -0.251627
v -0.1067355 -0.2437387 -0.09210252
v 0.1356649 -0.2322775 -0.2516286
v 0.2067795 -0.243751 -0.09210253
v -0.1067377 -0.2437465 0.09210707
v 0.2067842 -0.2437465 0.09210537
v -0.106736 -0.2223857 0.2516419
v 0.1356861 -0.2322935 0.2516422
v -0.1067415 -0.09332681 0.3437588
v 0.1055834 -0.09332703 0.3437594
v -0.1067347 -0.2223807 -0.251627
v -0.1067388 -0.09327787 -0.3437232
v -0.1067377 -0.2437465 0.09210707
v -0.1067355 -0.2437387 -0.09210252
v -0.1067354 0.09212758 -0.3437094
v -0.106736 -0.2223857 0.2516419
v -0.1067418 0.2516519 -0.251596
v -0.1067415 -0.09332681 0.3437588
v -0.1067392 0.3437466 -0.09205765
v -0.1067389 0.09208266 0.3437692
v -0.1067414 0.3437346 0.09215193
v -0.1067353 0.2516192 0.2516747
v 0.1067854 -0.02515496 -0.09387964
v 0.106782 -0.06873699 -0.06872071
v 0.1067785 0.02516741 -0.09387796
v 0.1054187 -0.09526807 -0.02514331
v 0.1067837 0.0687461 -0.06871379
v 0.1054128 -0.09527163 0.02517802
v 0.1067796 0.09390417 -0.02513011
v 0.1067809 -0.06874588 0.06876116
v 0.1067815 0.09390106 0.025193
v 0.1067792 -0.02516719 0.09392702
v 0.1067826 0.06873699 0.06876808
v 0.1067801 0.02515495 0.09393048
v 0.1055861 -0.09327787 -0.3437226
v 0.1067837 -0.05522669 -0.2061403
v 0.1067854 0.05525382 -0.2061334
v 0.1067853 0.09212714 -0.3437104
v 0.1067841 0.150929 -0.1508851
v 0.1067798 0.2516517 -0.2515936
v 0.1067817 0.206163 -0.05520221
v 0.1067816 0.3437464 -0.09205867
v 0.1067827 0.2061559 0.05527893
v 0.1067793 0.3437344 0.0921509
v 0.1067856 0.1509094 0.1509532
v 0.1067785 0.251619 0.2516754
v 0.1067809 0.05522691 0.2061877
v 0.1067826 0.09208266 0.3437716
v 0.1067792 -0.0552536 0.2061808
v 0.1055834 -0.09332703 0.3437594
v 0.09959583 -0.1581147 0.1509332
v 0.1356861 -0.2322935 0.2516422
v 0.1067535 -0.2061938 0.05524941
v 0.2067842 -0.2437465 0.09210537
v 0.1067456 -0.2061893 -0.05523005
v 0.2067795 -0.243751 -0.09210253
v 0.09959433 -0.1580941 -0.150905
v 0.1356649 -0.2322775 -0.2516286
v 0.1067837 -0.05522669 -0.2061403
v 0.06713109 -0.03932127 -0.1467613
v 0.06713194 0.03934039 -0.1467578
v 0.1067854 0.05525382 -0.2061334
v 0.0671339 0.1074608 -0.1074249
v 0.1067841 0.150929 -0.1508851
v 0.06713089 0.1467872 -0.03929619
v 0.1067817 0.206163 -0.05520221
v 0.06713311 0.1467821 0.03936273
v 0.1067827 0.2061559 0.05527893
v 0.06712842 0.1074468 0.1074845
v 0.1067856 0.1509094 0.1509532
v 0.06712869 0.03932126 0.1468105
v 0.1067809 0.05522691 0.2061877
v 0.06713478 -0.03934039 0.1468054
v 0.1067792 -0.0552536 0.2061808
v 0.0642413 -0.1103083 0.1074727
v 0.09959583 -0.1581147 0.1509332
v 0.06006872 -0.1537521 0.03934524
v 0.1067535 -0.2061938 0.05524941
v 0.06006565 -0.1537468 -0.03931714
v 0.1067456 -0.2061893 -0.05523005
v 0.06424677 -0.1102925 -0.1074368
v 0.09959433 -0.1580941 -0.150905
v 0.06713194 0.03934039 -0.1467578
v 0.06713109 -0.03932127 -0.1467613
v 0.1067854 -0.02515496 -0.09387964
v 0.1067785 0.02516741 -0.09387796
v 0.0671339 0.1074608 -0.1074249
v 0.1067837 0.0687461 -0.06871379
v 0.06713089 0.1467872 -0.03929619
v 0.1067796 0.09390417 -0.02513011
v 0.06713311 0.1467821 0.03936273
v 0.1067815 0.09390106 0.025193
v 0.06712842 0.1074468 0.1074845
v 0.1067826 0.06873699 0.06876808
v 0.06712869 0.03932126 0.1468105
v 0.1067801 0.02515495 0.09393048
v 0.06713478 -0.03934039 0.1468054
v 0.1067792 -0.02516719 0.09392702
v 0.0642413 -0.1103083 0.1074727
v 0.1067809 -0.06874588 0.06876116
v 0.06006872 -0.1537521 0.03934524
v 0.1054128 -0.09527163 0.02517802
v 0.06006565 -0.1537468 -0.03931714
v 0.1054187 -0.09526807 -0.02514331
v 0.06424677 -0.1102925 -0.1074368
v 0.106782 -0.06873699 -0.06872071

vn 0.2198328 -0.2969509 -0.9292433
vn 0.2183484 -0.3122689 -0.9245602
vn 0.2286928 0.2594126 -0.9382987
vn 0.2287265 0.2588813 -0.9384372
vn 0.1674322 0.7071519 -0.6869507
vn 0.1674321 0.7071523 -0.6869503
vn 0.06127451 0.9659415 -0.2513966
vn 0.06127441 0.9659417 -0.2513962
vn -0.06130195 0.9659079 0.251519
vn -0.06130195 0.9659079 0.251519
vn -0.1674528 0.7070596 0.6870408
vn -0.1674528 0.7070596 0.6870408
vn -0.2287008 0.2592889 0.9383309
vn -0.2287346 0.258755 0.9384699
vn -0.2315509 -0.3124622 0.9212769
vn -0.2323889 -0.2971279 0.9261262
vn 0.10542 -0.8581906 -0.502388
vn 0.0030345 -0.998744 -0.04998732
vn 0.08546512 -0.9021988 -0.4227659
vn 0.002565584 -0.9991002 -0.0423077
vn -0.02029555 -0.998746 0.04573918
vn -0.01718071 -0.9991015 0.03871139
vn -0.1375435 -0.8582663 0.4944278
vn -0.1186196 -0.9022639 0.4145446
vn -0.2323889 -0.2971279 0.9261262
vn -0.2315509 -0.3124622 0.9212769
vn -0.9715583 -1.30608E-06 -0.2368003
vn -0.9715583 -9.540125E-07 -0.2368005
vn -0.9715583 -8.910971E-07 -0.2368006
vn -0.9715583 -1.30608E-06 -0.2368003
vn -0.9715583 -4.775955E-07 -0.2368005
vn -0.9715583 -3.861481E-07 -0.2368004
vn -0.9715583 -2.026115E-07 -0.2368004
vn -0.9715583 -2.01948E-07 -0.2368004
vn -0.9715584 1.314351E-14 -0.2368003
vn -0.9715584 1.31435E-14 -0.2368003
vn -0.9715584 4.141605E-07 -0.2368001
vn -0.9715584 4.141604E-07 -0.2368001
vn 0.9715576 1.894912E-06 0.2368034
vn 0.9671611 -9.970469E-07 0.254164
vn 0.9671655 -9.942719E-07 0.2541474
vn 0.9698097 -0.005098391 0.2438097
vn 0.9697896 -0.005064841 0.2438906
vn 0.9727546 -0.007226364 0.2317247
vn 0.9727743 -0.00722636 0.231642
vn 0.973591 -0.005076952 0.2282436
vn 0.9735835 -0.00505798 0.2282756
vn 0.9715582 6.242341E-07 0.2368012
vn 0.9715582 6.242342E-07 0.2368012
vn 0.9715586 9.125501E-14 0.2367995
vn 0.9601023 0.06750283 0.2713801
vn 0.9600519 0.06773087 0.2715012
vn 0.9720666 -0.002019846 0.2346971
vn 0.9720666 -0.002019855 0.2346971
vn 0.9715584 4.825677E-07 0.2368002
vn 0.9715584 4.825674E-07 0.2368002
vn 0.9715584 3.118339E-07 0.2368002
vn 0.9715584 3.11834E-07 0.2368002
vn 0.9715583 1.453111E-07 0.2368005
vn 0.9715583 1.453111E-07 0.2368005
vn 0.9715583 4.734869E-07 0.2368007
vn 0.9715583 4.73487E-07 0.2368007
vn 0.97104 -0.002026965 0.2389085
vn 0.97104 -0.002026968 0.2389085
vn 0.9773042 0.06779915 0.2006986
vn 0.9772931 0.06757165 0.2008288
vn 0.8351018 0.5229893 0.1705483
vn 0.8893703 0.4244488 0.1698922
vn 0.4639822 0.8779379 0.1180837
vn 0.4927596 0.8609475 0.1263156
vn 0.4663386 0.8779064 0.108659
vn 0.4957002 0.8608987 0.1145994
vn 0.8200116 0.5228364 0.2328573
vn 0.8678639 0.4243144 0.2583973
vn 0.6970019 0.1077445 0.7089283
vn 0.6970732 0.1082187 0.7087862
vn 0.692459 -0.1403289 0.7076782
vn 0.692459 -0.1403291 0.7076782
vn 0.7256849 -0.3833154 0.5713586
vn 0.7256849 -0.3833155 0.5713586
vn 0.7832291 -0.5235928 0.3352644
vn 0.7832291 -0.5235929 0.3352644
vn 0.8496721 -0.523575 0.06265633
vn 0.8496722 -0.5235751 0.06265627
vn 0.9072111 -0.3832658 -0.1734209
vn 0.9072111 -0.3832657 -0.173421
vn 0.9404289 -0.1402598 -0.3097102
vn 0.9404289 -0.14026 -0.3097102
vn 0.9450266 0.10828 -0.3085446
vn 0.945029 0.1078067 -0.3087032
vn 0.9146712 0.3643064 -0.175091
vn 0.9126711 0.3716324 -0.17006
vn 0.8011469 0.5957728 0.05672197
vn 0.8033032 0.5932317 0.05272025
vn 0.7373968 0.5957376 0.3183423
vn 0.7374701 0.593195 0.3228884
vn 0.7315224 0.3642392 0.576372
vn 0.7320617 0.3715672 0.5709845
vn 0.9210317 0.1518501 -0.3586668
vn 0.9188806 -0.1608573 -0.3602541
vn 0.9190443 -0.1588171 -0.3607414
vn 0.9210316 0.1518505 -0.3586667
vn 0.8850784 0.4147887 -0.2111541
vn 0.8850783 0.4147889 -0.2111538
vn 0.8228095 0.5665854 0.04432644
vn 0.8228095 0.5665854 0.04432632
vn 0.7509103 0.5665655 0.3393178
vn 0.7509103 0.5665655 0.339318
vn 0.6886462 0.4147353 0.5947779
vn 0.6886462 0.4147352 0.5947781
vn 0.652701 0.1517767 0.7422569
vn 0.652701 0.1517766 0.7422569
vn 0.6500694 -0.1609352 0.742637
vn 0.6499905 -0.1588937 0.7431456
vn 0.6822549 -0.4370598 0.5860944
vn 0.6802008 -0.4276739 0.5953331
vn 0.7425175 -0.5831455 0.3295576
vn 0.7403921 -0.5808624 0.3382567
vn 0.8109017 -0.5831275 0.04898791
vn 0.8130181 -0.5808424 0.04028338
vn 0.8754355 -0.4370041 -0.2064933
vn 0.877862 -0.4276189 -0.215638

vt 0.894043 0.8886719
vt 0.894043 0.8657227
vt 0.8735352 0.8657227
vt 0.8735352 0.8886719
vt 0.8535156 0.8657227
vt 0.8535156 0.8886719
vt 0.8334961 0.8657227
vt 0.8334961 0.8886719
vt 0.8134766 0.8657227
vt 0.8134766 0.8886719
vt 0.793457 0.8657227
vt 0.793457 0.8886719
vt 0.7734375 0.8657227
vt 0.7734375 0.8886719
vt 0.753418 0.8657227
vt 0.753418 0.8886719
vt 0.9140625 0.8886719
vt 0.934082 0.8886719
vt 0.9140625 0.8657227
vt 0.934082 0.8657227
vt 0.9541016 0.8886719
vt 0.9541016 0.8657227
vt 0.9741211 0.8886719
vt 0.9741211 0.8657227
vt 0.9941406 0.8886719
vt 0.9941406 0.8657227
vt 0.5517578 0.7646484
vt 0.5332031 0.7539063
vt 0.5625 0.8046875
vt 0.5625 0.7832031
vt 0.5117188 0.7539063
vt 0.5522461 0.8232422
vt 0.4934082 0.7646484
vt 0.5336914 0.8339844
vt 0.482666 0.7836914
vt 0.512207 0.8339844
vt 0.482666 0.8051758
vt 0.4934082 0.8232422
vt 0.5249023 0.7875977
vt 0.5214844 0.7875977
vt 0.527832 0.7895508
vt 0.5185547 0.7890625
vt 0.5292969 0.7924805
vt 0.5166016 0.7919922
vt 0.5292969 0.7963867
vt 0.5166016 0.7954102
vt 0.5273438 0.7988281
vt 0.5180664 0.7988281
vt 0.5244141 0.8007813
vt 0.5209961 0.800293
vt 0.534668 0.753418
vt 0.5297852 0.7695313
vt 0.5410156 0.7763672
vt 0.5532227 0.7651367
vt 0.5473633 0.7880859
vt 0.5639648 0.7836914
vt 0.5473633 0.8012695
vt 0.5634766 0.8056641
vt 0.5405273 0.8125
vt 0.5527344 0.824707
vt 0.5292969 0.8188477
vt 0.5332031 0.8359375
vt 0.5161133 0.8183594
vt 0.5112305 0.8349609
vt 0.5048828 0.8115234
vt 0.4924316 0.8232422
vt 0.4985352 0.800293
vt 0.4821777 0.8041992
vt 0.4987793 0.7871094
vt 0.4824219 0.7827148
vt 0.5053711 0.7758789
vt 0.4934082 0.7636719
vt 0.5166016 0.7695313
vt 0.5126953 0.7524414
vt 0.5297852 0.7695313
vt 0.5273438 0.777832
vt 0.534668 0.7822266
vt 0.5410156 0.7763672
vt 0.5390625 0.7900391
vt 0.5473633 0.7880859
vt 0.5390625 0.7988281
vt 0.5473633 0.8012695
vt 0.534668 0.8061523
vt 0.5405273 0.8125
vt 0.5268555 0.8105469
vt 0.5292969 0.8188477
vt 0.5185547 0.8100586
vt 0.5161133 0.8183594
vt 0.5107422 0.8056641
vt 0.5048828 0.8115234
vt 0.5068359 0.7983398
vt 0.4985352 0.800293
vt 0.5068359 0.7895508
vt 0.4987793 0.7871094
vt 0.5112305 0.7822266
vt 0.5053711 0.7758789
vt 0.519043 0.777832
vt 0.5166016 0.7695313
vt 0.534668 0.7822266
vt 0.5273438 0.777832
vt 0.5249023 0.7875977
vt 0.527832 0.7895508
vt 0.5390625 0.7900391
vt 0.5292969 0.7924805
vt 0.5390625 0.7988281
vt 0.5292969 0.7963867
vt 0.534668 0.8061523
vt 0.5273438 0.7988281
vt 0.5268555 0.8105469
vt 0.5244141 0.8007813
vt 0.5185547 0.8100586
vt 0.5209961 0.800293
vt 0.5107422 0.8056641
vt 0.5180664 0.7988281
vt 0.5068359 0.7983398
vt 0.5166016 0.7954102
vt 0.5068359 0.7895508
vt 0.5166016 0.7919922
vt 0.5112305 0.7822266
vt 0.5185547 0.7890625
vt 0.519043 0.777832
vt 0.5214844 0.7875977

g wheel_backL_9132_427
usemtl wheel_backL_9132_427
usemap wheel_backL_9132_427
f 1/1/1 3/3/3 2/2/2
f 1/1/1 4/4/4 3/3/3
f 4/4/4 5/5/5 3/3/3
f 4/4/4 6/6/6 5/5/5
f 6/6/6 7/7/7 5/5/5
f 6/6/6 8/8/8 7/7/7
f 8/8/8 9/9/9 7/7/7
f 8/8/8 10/10/10 9/9/9
f 10/10/10 11/11/11 9/9/9
f 10/10/10 12/12/12 11/11/11
f 12/12/12 13/13/13 11/11/11
f 12/12/12 14/14/14 13/13/13
f 14/14/14 15/15/15 13/13/13
f 14/14/14 16/16/16 15/15/15
f 17/17/17 1/1/1 2/2/2
f 18/18/18 17/17/17 19/19/19
f 18/18/18 19/19/19 20/20/20
f 21/21/21 18/18/18 20/20/20
f 21/21/21 20/20/20 22/22/22
f 23/23/23 21/21/21 22/22/22
f 23/23/23 22/22/22 24/24/24
f 25/25/25 23/23/23 24/24/24
f 25/25/25 24/24/24 26/26/26
f 17/17/17 2/2/2 19/19/19
f 27/27/27 29/29/29 28/28/28
f 27/27/27 30/30/30 29/29/29
f 29/29/29 31/31/31 28/28/28
f 29/29/29 32/32/32 31/31/31
f 32/32/32 33/33/33 31/31/31
f 32/32/32 34/34/34 33/33/33
f 34/34/34 35/35/35 33/33/33
f 34/34/34 36/36/36 35/35/35
f 36/36/36 37/37/37 35/35/35
f 36/36/36 38/38/38 37/37/37
f 39/39/39 41/41/41 40/40/40
f 41/41/41 42/42/42 40/40/40
f 41/41/41 43/43/43 42/42/42
f 43/43/43 44/44/44 42/42/42
f 43/43/43 45/45/45 44/44/44
f 45/45/45 46/46/46 44/44/44
f 45/45/45 47/47/47 46/46/46
f 47/47/47 48/48/48 46/46/46
f 47/47/47 49/49/49 48/48/48
f 49/49/49 50/50/50 48/48/48
f 51/51/51 53/53/53 52/52/52
f 51/51/51 54/54/54 53/53/53
f 54/54/54 55/55/55 53/53/53
f 54/54/54 56/56/56 55/55/55
f 56/56/56 57/57/57 55/55/55
f 56/56/56 58/58/58 57/57/57
f 58/58/58 59/59/59 57/57/57
f 58/58/58 60/60/60 59/59/59
f 60/60/60 61/61/61 59/59/59
f 60/60/60 62/62/62 61/61/61
f 62/62/62 63/63/63 61/61/61
f 62/62/62 64/64/64 63/63/63
f 64/64/64 65/65/65 63/63/63
f 64/64/64 66/66/66 65/65/65
f 66/66/66 67/67/67 65/65/65
f 66/66/66 68/68/68 67/67/67
f 68/68/68 69/69/69 67/67/67
f 68/68/68 70/70/70 69/69/69
f 70/70/70 71/71/71 69/69/69
f 70/70/70 72/72/72 71/71/71
f 72/72/72 73/73/73 71/71/71
f 72/72/72 74/74/74 73/73/73
f 74/74/74 52/52/52 73/73/73
f 74/74/74 51/51/51 52/52/52
f 75/75/75 77/77/77 76/76/76
f 75/75/75 78/78/78 77/77/77
f 78/78/78 79/79/79 77/77/77
f 78/78/78 80/80/80 79/79/79
f 80/80/80 81/81/81 79/79/79
f 80/80/80 82/82/82 81/81/81
f 82/82/82 83/83/83 81/81/81
f 82/82/82 84/84/84 83/83/83
f 84/84/84 85/85/85 83/83/83
f 84/84/84 86/86/86 85/85/85
f 86/86/86 87/87/87 85/85/85
f 86/86/86 88/88/88 87/87/87
f 88/88/88 89/89/89 87/87/87
f 88/88/88 90/90/90 89/89/89
f 90/90/90 91/91/91 89/89/89
f 90/90/90 92/92/92 91/91/91
f 92/92/92 93/93/93 91/91/91
f 92/92/92 94/94/94 93/93/93
f 94/94/94 95/95/95 93/93/93
f 94/94/94 96/96/96 95/95/95
f 96/96/96 97/97/97 95/95/95
f 96/96/96 98/98/98 97/97/97
f 98/98/98 76/76/76 97/97/97
f 98/98/98 75/75/75 76/76/76
f 99/99/99 101/101/101 100/100/100
f 99/99/99 102/102/102 101/101/101
f 103/103/103 102/102/102 99/99/99
f 103/103/103 104/104/104 102/102/102
f 105/105/105 104/104/104 103/103/103
f 105/105/105 106/106/106 104/104/104
f 107/107/107 106/106/106 105/105/105
f 107/107/107 108/108/108 106/106/106
f 109/109/109 108/108/108 107/107/107
f 109/109/109 110/110/110 108/108/108
f 111/111/111 110/110/110 109/109/109
f 111/111/111 112/112/112 110/110/110
f 113/113/113 112/112/112 111/111/111
f 113/113/113 114/114/114 112/112/112
f 115/115/115 114/114/114 113/113/113
f 115/115/115 116/116/116 114/114/114
f 117/117/117 116/116/116 115/115/115
f 117/117/117 118/118/118 116/116/116
f 119/119/119 118/118/118 117/117/117
f 119/119/119 120/120/120 118/118/118
f 121/121/121 120/120/120 119/119/119
f 121/121/121 122/122/122 120/120/120
f 100/100/100 122/122/122 121/121/121
f 100/100/100 101/101/101 122/122/122
