#wheel_backL_8790_1381.obj

v -0.1406065 -0.3557718 0.09537624
v 0.08039069 -0.2604313 0.2604858
v 0.080391 -0.3557718 0.09537005
v -0.1406068 -0.2604306 0.2604848
v 0.08039165 -0.09530769 0.3558033
v -0.1406076 -0.09530769 0.3558024
v 0.08039165 0.09535322 0.355789
v -0.1406076 0.09535366 0.3557881
v 0.08039072 0.2604643 0.2604501
v -0.1406067 0.2604643 0.2604492
v 0.08039103 0.3557841 0.09532724
v -0.1406064 0.3557841 0.0953263
v 0.08039094 0.3557716 -0.09533629
v -0.1406065 0.3557716 -0.09533723
v 0.08039124 0.26043 -0.2604449
v -0.140608 0.2604305 -0.2604458
v -0.1406066 -0.3557841 -0.09528729
v 0.08039091 -0.3557841 -0.09528635
v -0.1406063 -0.2604643 -0.2604102
v 0.08039122 -0.2604643 -0.2604092
v -0.1406072 -0.09535407 -0.3557562
v 0.08039029 -0.09535429 -0.3557553
v -0.1406072 0.09530684 -0.3557633
v 0.08038851 0.09530662 -0.3557624
v -0.140608 0.2604305 -0.2604458
v 0.08039124 0.26043 -0.2604449
v -0.1406063 -0.2604643 -0.2604102
v -0.1406065 -0.3557718 0.09537624
v -0.1406066 -0.3557841 -0.09528729
v -0.1406072 -0.09535407 -0.3557562
v -0.1406072 0.09530684 -0.3557633
v -0.1406068 -0.2604306 0.2604848
v -0.140608 0.2604305 -0.2604458
v -0.1406076 -0.09530769 0.3558024
v -0.1406065 0.3557716 -0.09533723
v -0.1406076 0.09535366 0.3557881
v -0.1406064 0.3557841 0.0953263
v -0.1406067 0.2604643 0.2604492
v 0.1406891 -0.09718965 0.02606924
v 0.1406886 -0.07114431 0.07117534
v 0.1406889 -0.09719322 -0.02601742
v 0.1406887 -0.02603618 0.0972151
v 0.1406894 -0.07115413 -0.07112353
v 0.1406887 0.02604826 0.09720797
v 0.1406893 -0.02604889 -0.09717042
v 0.1406886 0.07115305 0.07116108
v 0.1406893 0.02603555 -0.09717043
v 0.1406891 0.09719237 0.02605497
v 0.1406894 0.07114369 -0.07113779
v 0.140689 0.09718902 -0.02603169
v 0.080391 -0.3557718 0.09537005
v 0.08039049 -0.1561945 0.1562341
v 0.08039029 -0.2133757 0.05720882
v 0.08039069 -0.2604313 0.2604858
v 0.08039072 -0.05716117 0.2134046
v 0.08039165 -0.09530769 0.3558033
v 0.08039072 0.05718819 0.2133975
v 0.08039165 0.09535322 0.355789
v 0.08039051 0.1562141 0.1562127
v 0.08039072 0.2604643 0.2604501
v 0.08039031 0.2133822 0.05718028
v 0.08039103 0.3557841 0.09532724
v 0.08039165 0.2133746 -0.05716792
v 0.08039094 0.3557716 -0.09533629
v 0.08039144 0.1561936 -0.1561932
v 0.08039124 0.26043 -0.2604449
v 0.08039122 0.05716032 -0.2133637
v 0.08038851 0.09530662 -0.3557624
v 0.08039121 -0.05718904 -0.2133566
v 0.08039029 -0.09535429 -0.3557553
v 0.08039143 -0.156215 -0.1561718
v 0.08039122 -0.2604643 -0.2604092
v 0.08039162 -0.2133826 -0.05713939
v 0.08039091 -0.3557841 -0.09528635
v 0.08039049 -0.1561945 0.1562341
v 0.03935254 -0.1519228 0.04073842
v 0.08039029 -0.2133757 0.05720882
v 0.03935258 -0.1112098 0.1112426
v 0.08039072 -0.05716117 0.2134046
v 0.03935156 -0.04069848 0.1519493
v 0.03935281 -0.1519277 -0.04068217
v 0.08039162 -0.2133826 -0.05713939
v 0.03935277 -0.1112245 -0.1111935
v 0.08039143 -0.156215 -0.1561718
v 0.03935201 -0.04071854 -0.1519002
v 0.08039072 0.05718819 0.2133975
v 0.03935156 -0.04069848 0.1519493
v 0.03935157 0.04071769 0.1519422
v 0.08039051 0.1562141 0.1562127
v 0.03935157 0.04071769 0.1519422
v 0.0393526 0.1112236 0.1112283
v 0.08039031 0.2133822 0.05718028
v 0.03935255 0.1519271 0.04071702
v 0.08039165 0.2133746 -0.05716792
v 0.03935282 0.1519219 -0.04069645
v 0.08039144 0.1561936 -0.1561932
v 0.03935278 0.1112089 -0.1112077
v 0.08039122 0.05716032 -0.2133637
v 0.03935201 0.04069785 -0.1519073
v 0.08039121 -0.05718904 -0.2133566
v 0.03935201 0.04069785 -0.1519073
v 0.03935201 -0.04071854 -0.1519002
v 0.1406886 -0.07114431 0.07117534
v 0.03935254 -0.1519228 0.04073842
v 0.03935258 -0.1112098 0.1112426
v 0.1406891 -0.09718965 0.02606924
v 0.1406887 -0.02603618 0.0972151
v 0.03935156 -0.04069848 0.1519493
v 0.03935281 -0.1519277 -0.04068217
v 0.1406889 -0.09719322 -0.02601742
v 0.03935277 -0.1112245 -0.1111935
v 0.1406894 -0.07115413 -0.07112353
v 0.03935201 -0.04071854 -0.1519002
v 0.1406893 -0.02604889 -0.09717042
v 0.03935156 -0.04069848 0.1519493
v 0.1406887 0.02604826 0.09720797
v 0.03935157 0.04071769 0.1519422
v 0.03935157 0.04071769 0.1519422
v 0.1406886 0.07115305 0.07116108
v 0.0393526 0.1112236 0.1112283
v 0.1406891 0.09719237 0.02605497
v 0.03935255 0.1519271 0.04071702
v 0.140689 0.09718902 -0.02603169
v 0.03935282 0.1519219 -0.04069645
v 0.1406894 0.07114369 -0.07113779
v 0.03935278 0.1112089 -0.1112077
v 0.1406893 0.02603555 -0.09717043
v 0.03935201 0.04069785 -0.1519073
v 0.03935201 0.04069785 -0.1519073
v 0.03935201 -0.04071854 -0.1519002

vn 0.0001758662 -0.9659082 0.258881
vn 0.0004813472 -0.707061 0.7071516
vn 0.0001765561 -0.9659083 0.2588802
vn 0.0004808883 -0.7070597 0.7071528
vn 0.0006587719 -0.2587561 0.9659424
vn 0.0006589512 -0.2587558 0.9659425
vn 0.0006595051 0.258881 0.9659089
vn 0.0006594511 0.2588817 0.9659087
vn 0.0004834526 0.7071518 0.7070608
vn 0.0004833502 0.7071519 0.7070606
vn 0.0001773401 0.9659418 0.2587557
vn 0.0001771939 0.9659418 0.2587556
vn -0.0001759467 0.9659076 -0.2588826
vn -0.0001759169 0.9659078 -0.2588824
vn -0.0004820021 0.7070599 -0.7071526
vn -0.0004819759 0.7070597 -0.7071528
vn -0.0001763204 -0.9659415 -0.2587565
vn -0.0001764717 -0.9659415 -0.2587564
vn -0.0004824467 -0.7071524 -0.7070602
vn -0.0004825457 -0.7071524 -0.7070601
vn -0.0006588629 -0.2588817 -0.9659087
vn -0.0006590232 -0.258883 -0.9659083
vn -0.0006587719 0.2587563 -0.9659424
vn -0.0006590456 0.2587557 -0.9659425
vn -0.0004819759 0.7070597 -0.7071528
vn -0.0004820021 0.7070599 -0.7071526
vn -0.9999998 -9.744721E-07 0.0006813265
vn -0.9999998 -7.728156E-07 0.0006813029
vn -0.9999998 -1.464791E-07 0.0006815483
vn -0.9999998 -5.334212E-07 0.0006816096
vn -0.9999998 -2.513484E-07 0.0006816324
vn -0.9999998 -5.398508E-07 0.0006813439
vn -0.9999998 -2.197146E-07 0.0006815287
vn -0.9999998 -2.563341E-07 0.0006814921
vn -0.9999998 -1.87022E-07 0.0006815321
vn -0.9999998 0 0.0006817484
vn -0.9999998 3.192245E-07 0.0006819211
vn -0.9999998 0 0.0006817484
vn 0.9999998 3.662003E-07 -0.0006817484
vn 0.9999998 2.014144E-07 -0.0006817484
vn 0.9999998 -6.617296E-15 -0.000681597
vn 0.9999998 -6.429455E-15 -0.0006816013
vn 0.9999998 -8.888279E-15 -0.0006815451
vn 0.9999998 -8.71585E-15 -0.000681549
vn 0.9999998 -8.715847E-15 -0.000681549
vn 0.9999998 -8.88828E-15 -0.0006815451
vn 0.9999998 -6.429463E-15 -0.0006816013
vn 0.9999998 -6.617295E-15 -0.000681597
vn 0.9999998 2.014142E-07 -0.0006817484
vn 0.9999998 3.662017E-07 -0.0006817484
vn 0.9999998 5.235176E-07 -0.0006823819
vn 0.9999998 1.002865E-14 -0.0006819778
vn 0.9999998 5.208503E-07 -0.000682768
vn 0.9999998 -2.155937E-14 -0.0006812552
vn 0.9999998 7.439984E-07 -0.0006805008
vn 0.9999998 4.164667E-07 -0.0006806718
vn 0.9999998 2.820317E-07 -0.0006812569
vn 0.9999998 -8.593201E-15 -0.0006815518
vn 0.9999998 -6.997508E-15 -0.0006815883
vn 0.9999998 3.45314E-07 -0.0006817484
vn 0.9999998 9.044693E-07 -0.0006817484
vn 0.9999998 8.776003E-07 -0.0006814914
vn 0.9999998 2.656991E-07 -0.0006813606
vn 0.9999998 -2.4711E-14 -0.0006811831
vn 0.9999998 -6.725032E-15 -0.0006815945
vn 0.9999998 -9.717576E-07 -0.0006856801
vn 0.9999998 -9.777082E-07 -0.0006924631
vn 0.9999998 1.216023E-06 -0.000692311
vn 0.9999998 2.960059E-06 -0.0006850859
vn 0.9999998 5.003697E-06 -0.0006828924
vn 0.9999998 -6.997501E-15 -0.0006815883
vn 0.9999998 -7.002799E-15 -0.0006815882
vn 0.9999998 -6.514438E-15 -0.0006815994
vn 0.9999998 2.624235E-07 -0.0006817484
vn 0.840081 0.3832655 -0.3838895
vn 0.8402472 0.5235749 -0.1409015
vn 0.840247 0.5235752 -0.1409014
vn 0.8400809 0.3832657 -0.3838894
vn 0.8399853 0.1402606 -0.5241676
vn 0.8399853 0.1402603 -0.5241674
vn 0.8404375 0.5235949 0.1396878
vn 0.8404374 0.523595 0.139688
vn 0.8406039 0.383316 0.3826927
vn 0.8406042 0.3833157 0.3826924
vn 0.8406999 0.1403277 0.5230029
vn 0.839986 -0.1403276 -0.5241483
vn 0.8399853 0.1402603 -0.5241674
vn 0.8399861 -0.1403279 -0.5241481
vn 0.8400819 -0.3833149 -0.3838382
vn 0.8399861 -0.1403279 -0.5241481
vn 0.8400816 -0.383315 -0.3838385
vn 0.8402468 -0.523594 -0.1408329
vn 0.8402465 -0.5235944 -0.1408334
vn 0.8404378 -0.5235764 0.1397557
vn 0.8404377 -0.5235765 0.1397558
vn 0.8406034 -0.3832663 0.3827436
vn 0.8406036 -0.3832657 0.3827436
vn 0.8406999 -0.1402595 0.5230212
vn 0.8407001 -0.1402592 0.523021
vn 0.8407 0.1403281 0.5230026
vn 0.8407001 -0.1402592 0.523021
vn 0.8406999 0.1403277 0.5230029
vn 0.4884739 -0.6171306 0.616881
vn 0.4882074 -0.8430579 0.2256221
vn 0.4884743 -0.6171311 0.6168802
vn 0.4882064 -0.8430579 0.2256239
vn 0.4886281 -0.2258456 0.8427553
vn 0.4886281 -0.2258455 0.8427553
vn 0.4878973 -0.8430884 -0.2261778
vn 0.4878971 -0.8430889 -0.2261767
vn 0.4876314 -0.6172137 -0.6174642
vn 0.4876316 -0.617213 -0.6174645
vn 0.4874775 -0.2259551 -0.8433917
vn 0.4874779 -0.225954 -0.8433918
vn 0.4886281 -0.2258455 0.8427553
vn 0.488628 0.2259546 0.8427262
vn 0.4886277 0.2259553 0.8427262
vn 0.4886277 0.2259553 0.8427262
vn 0.4884738 0.6172122 0.6167997
vn 0.4884735 0.6172126 0.6167995
vn 0.4882062 0.8430879 0.2255126
vn 0.4882061 0.843088 0.2255124
vn 0.4878981 0.8430582 -0.2262887
vn 0.4878981 0.8430583 -0.2262886
vn 0.4876313 0.6171321 -0.6175457
vn 0.4876313 0.6171323 -0.6175455
vn 0.4874777 0.2258472 -0.8434205
vn 0.4874777 0.2258467 -0.8434207
vn 0.4874777 0.2258467 -0.8434207
vn 0.4874775 -0.2259551 -0.8433917

vt 0.9628906 0.5917969
vt 0.9848633 0.5727539
vt 0.9848633 0.5917969
vt 0.9628906 0.5727539
vt 0.9848633 0.5532227
vt 0.9628906 0.5532227
vt 0.9848633 0.5341797
vt 0.9628906 0.5341797
vt 0.9848633 0.5151367
vt 0.9628906 0.5151367
vt 0.9848633 0.4958496
vt 0.9628906 0.4958496
vt 0.9848633 0.4768066
vt 0.9628906 0.4768066
vt 0.9848633 0.4575195
vt 0.9628906 0.4575195
vt 0.9628906 0.6108398
vt 0.9848633 0.6108398
vt 0.9628906 0.6303711
vt 0.9848633 0.6303711
vt 0.9628906 0.6494141
vt 0.9848633 0.6494141
vt 0.9628906 0.668457
vt 0.9848633 0.668457
vt 0.9628906 0.6875
vt 0.9848633 0.6875
vt 0.940918 0.6079102
vt 0.9130859 0.5800781
vt 0.9306641 0.590332
vt 0.940918 0.628418
vt 0.9306641 0.6459961
vt 0.8925781 0.5800781
vt 0.9130859 0.65625
vt 0.8745117 0.590332
vt 0.8925781 0.65625
vt 0.8647461 0.6079102
vt 0.875 0.6459961
vt 0.8647461 0.628418
vt 0.9047852 0.6123047
vt 0.9072266 0.6142578
vt 0.9013672 0.6123047
vt 0.9091797 0.6171875
vt 0.8984375 0.6137695
vt 0.9086914 0.6201172
vt 0.8969727 0.6162109
vt 0.9072266 0.6230469
vt 0.8964844 0.6196289
vt 0.9042969 0.6245117
vt 0.8979492 0.6225586
vt 0.9008789 0.6245117
vt 0.9140625 0.5791016
vt 0.9199219 0.6015625
vt 0.909668 0.5952148
vt 0.9321289 0.590332
vt 0.9262695 0.6123047
vt 0.9418945 0.6083984
vt 0.9262695 0.625
vt 0.9414063 0.6293945
vt 0.9194336 0.6357422
vt 0.9311523 0.6474609
vt 0.9086914 0.6420898
vt 0.9125977 0.6582031
vt 0.8959961 0.6416016
vt 0.8916016 0.6572266
vt 0.8852539 0.6352539
vt 0.8735352 0.6464844
vt 0.8793945 0.6240234
vt 0.8637695 0.6279297
vt 0.8793945 0.6118164
vt 0.8637695 0.6074219
vt 0.8857422 0.6010742
vt 0.8745117 0.5893555
vt 0.8969727 0.5947266
vt 0.8930664 0.5786133
vt 0.9199219 0.6015625
vt 0.9072266 0.6030273
vt 0.909668 0.5952148
vt 0.9140625 0.6074219
vt 0.9262695 0.6123047
vt 0.918457 0.6142578
vt 0.8989258 0.6025391
vt 0.8969727 0.5947266
vt 0.8916016 0.6069336
vt 0.8857422 0.6010742
vt 0.887207 0.6137695
vt 0.9262695 0.625
vt 0.918457 0.6142578
vt 0.9179688 0.6225586
vt 0.9194336 0.6357422
vt 0.9179688 0.6225586
vt 0.9140625 0.6298828
vt 0.9086914 0.6420898
vt 0.9067383 0.6337891
vt 0.8959961 0.6416016
vt 0.8984375 0.6337891
vt 0.8852539 0.6352539
vt 0.8911133 0.6293945
vt 0.8793945 0.6240234
vt 0.887207 0.6220703
vt 0.8793945 0.6118164
vt 0.887207 0.6220703
vt 0.887207 0.6137695
vt 0.9072266 0.6142578
vt 0.9072266 0.6030273
vt 0.9140625 0.6074219
vt 0.9047852 0.6123047
vt 0.9091797 0.6171875
vt 0.918457 0.6142578
vt 0.8989258 0.6025391
vt 0.9013672 0.6123047
vt 0.8916016 0.6069336
vt 0.8984375 0.6137695
vt 0.887207 0.6137695
vt 0.8969727 0.6162109
vt 0.918457 0.6142578
vt 0.9086914 0.6201172
vt 0.9179688 0.6225586
vt 0.9179688 0.6225586
vt 0.9072266 0.6230469
vt 0.9140625 0.6298828
vt 0.9042969 0.6245117
vt 0.9067383 0.6337891
vt 0.9008789 0.6245117
vt 0.8984375 0.6337891
vt 0.8979492 0.6225586
vt 0.8911133 0.6293945
vt 0.8964844 0.6196289
vt 0.887207 0.6220703
vt 0.887207 0.6220703
vt 0.887207 0.6137695

g wheel_backL_8790_1381
usemtl wheel_backL_8790_1381
usemap wheel_backL_8790_1381
f 1/1/1 3/3/3 2/2/2
f 2/2/2 4/4/4 1/1/1
f 4/4/4 2/2/2 5/5/5
f 5/5/5 6/6/6 4/4/4
f 6/6/6 5/5/5 7/7/7
f 7/7/7 8/8/8 6/6/6
f 8/8/8 7/7/7 9/9/9
f 9/9/9 10/10/10 8/8/8
f 10/10/10 9/9/9 11/11/11
f 11/11/11 12/12/12 10/10/10
f 12/12/12 11/11/11 13/13/13
f 13/13/13 14/14/14 12/12/12
f 14/14/14 13/13/13 15/15/15
f 15/15/15 16/16/16 14/14/14
f 3/3/3 1/1/1 17/17/17
f 17/17/17 18/18/18 3/3/3
f 18/18/18 17/17/17 19/19/19
f 19/19/19 20/20/20 18/18/18
f 20/20/20 19/19/19 21/21/21
f 21/21/21 22/22/22 20/20/20
f 22/22/22 21/21/21 23/23/23
f 23/23/23 24/24/24 22/22/22
f 24/24/24 23/23/23 25/25/25
f 25/25/25 26/26/26 24/24/24
f 27/27/27 29/29/29 28/28/28
f 28/28/28 30/30/30 27/27/27
f 31/31/31 30/30/30 28/28/28
f 28/28/28 32/32/32 31/31/31
f 33/33/33 31/31/31 32/32/32
f 32/32/32 34/34/34 33/33/33
f 35/35/35 33/33/33 34/34/34
f 34/34/34 36/36/36 35/35/35
f 37/37/37 35/35/35 36/36/36
f 36/36/36 38/38/38 37/37/37
f 39/39/39 41/41/41 40/40/40
f 42/42/42 40/40/40 41/41/41
f 41/41/41 43/43/43 42/42/42
f 44/44/44 42/42/42 43/43/43
f 43/43/43 45/45/45 44/44/44
f 46/46/46 44/44/44 45/45/45
f 45/45/45 47/47/47 46/46/46
f 48/48/48 46/46/46 47/47/47
f 47/47/47 49/49/49 48/48/48
f 48/48/48 49/49/49 50/50/50
f 51/51/51 53/53/53 52/52/52
f 52/52/52 54/54/54 51/51/51
f 54/54/54 52/52/52 55/55/55
f 55/55/55 56/56/56 54/54/54
f 56/56/56 55/55/55 57/57/57
f 57/57/57 58/58/58 56/56/56
f 58/58/58 57/57/57 59/59/59
f 59/59/59 60/60/60 58/58/58
f 60/60/60 59/59/59 61/61/61
f 61/61/61 62/62/62 60/60/60
f 62/62/62 61/61/61 63/63/63
f 63/63/63 64/64/64 62/62/62
f 64/64/64 63/63/63 65/65/65
f 65/65/65 66/66/66 64/64/64
f 66/66/66 65/65/65 67/67/67
f 67/67/67 68/68/68 66/66/66
f 68/68/68 67/67/67 69/69/69
f 69/69/69 70/70/70 68/68/68
f 70/70/70 69/69/69 71/71/71
f 71/71/71 72/72/72 70/70/70
f 72/72/72 71/71/71 73/73/73
f 73/73/73 74/74/74 72/72/72
f 74/74/74 73/73/73 53/53/53
f 53/53/53 51/51/51 74/74/74
f 75/75/75 77/77/77 76/76/76
f 76/76/76 78/78/78 75/75/75
f 79/79/79 75/75/75 78/78/78
f 78/78/78 80/80/80 79/79/79
f 81/81/81 76/76/76 77/77/77
f 77/77/77 82/82/82 81/81/81
f 83/83/83 81/81/81 82/82/82
f 82/82/82 84/84/84 83/83/83
f 85/85/85 83/83/83 84/84/84
f 86/86/86 79/79/79 87/87/87
f 87/87/87 88/88/88 86/86/86
f 89/89/89 86/86/86 88/88/88
f 90/90/90 91/91/91 89/89/89
f 92/92/92 89/89/89 91/91/91
f 91/91/91 93/93/93 92/92/92
f 94/94/94 92/92/92 93/93/93
f 93/93/93 95/95/95 94/94/94
f 96/96/96 94/94/94 95/95/95
f 95/95/95 97/97/97 96/96/96
f 98/98/98 96/96/96 97/97/97
f 97/97/97 99/99/99 98/98/98
f 100/100/100 98/98/98 101/101/101
f 101/101/101 102/102/102 100/100/100
f 84/84/84 100/100/100 102/102/102
f 103/103/103 105/105/105 104/104/104
f 104/104/104 106/106/106 103/103/103
f 105/105/105 103/103/103 107/107/107
f 107/107/107 108/108/108 105/105/105
f 106/106/106 104/104/104 109/109/109
f 109/109/109 110/110/110 106/106/106
f 110/110/110 109/109/109 111/111/111
f 111/111/111 112/112/112 110/110/110
f 112/112/112 111/111/111 113/113/113
f 113/113/113 114/114/114 112/112/112
f 115/115/115 107/107/107 116/116/116
f 116/116/116 117/117/117 115/115/115
f 118/118/118 116/116/116 119/119/119
f 119/119/119 120/120/120 118/118/118
f 120/120/120 119/119/119 121/121/121
f 121/121/121 122/122/122 120/120/120
f 122/122/122 121/121/121 123/123/123
f 123/123/123 124/124/124 122/122/122
f 124/124/124 123/123/123 125/125/125
f 125/125/125 126/126/126 124/124/124
f 126/126/126 125/125/125 127/127/127
f 127/127/127 128/128/128 126/126/126
f 129/129/129 127/127/127 114/114/114
f 114/114/114 130/130/130 129/129/129
