#wheel_backL_20250_343.obj

v -0.135889 0.09212727 -0.3437342
v 0.07763176 0.2516516 -0.2516207
v -0.1358892 0.2516518 -0.2516189
v 0.07763088 0.0921273 -0.3437323
v 0.07763132 0.3437462 -0.09208257
v -0.1358898 0.3437463 -0.09208085
v 0.07763098 0.3437342 0.09212789
v -0.1358887 0.3437343 0.09212609
v 0.07763172 0.251619 0.2516502
v -0.1358892 0.2516191 0.2516521
v 0.07763152 0.09208254 0.3437454
v -0.1358894 0.09208263 0.3437472
v 0.07763167 -0.09212732 0.3437333
v -0.1358895 -0.09212723 0.343735
v 0.07763159 -0.2516517 0.2516179
v -0.1358894 -0.2516516 0.2516197
v -0.135889 -0.09208277 -0.3437463
v 0.07763081 -0.0920828 -0.3437444
v -0.1358891 -0.2516191 -0.2516511
v 0.07763062 -0.2516192 -0.2516493
v -0.1358886 -0.3437344 -0.09212883
v 0.07763112 -0.3437344 -0.09212703
v -0.1358889 -0.3437463 0.09208163
v 0.0776292 -0.3437463 0.09208288
v -0.1358894 -0.2516516 0.2516197
v 0.07763159 -0.2516517 0.2516179
v -0.1358891 -0.2516191 -0.2516511
v -0.135889 0.09212727 -0.3437342
v -0.1358886 -0.3437344 -0.09212883
v -0.135889 -0.09208277 -0.3437463
v -0.1358889 -0.3437463 0.09208163
v -0.1358892 0.2516518 -0.2516189
v -0.1358894 -0.2516516 0.2516197
v -0.1358898 0.3437463 -0.09208085
v -0.1358895 -0.09212723 0.343735
v -0.1358887 0.3437343 0.09212609
v -0.1358894 0.09208263 0.3437472
v -0.1358892 0.2516191 0.2516521
v 0.1358895 0.02516721 -0.0939017
v 0.1358896 -0.02515515 -0.09390569
v 0.1358892 0.06874593 -0.06873684
v 0.135889 0.09390419 -0.02515453
v 0.1358888 -0.06873711 -0.06874505
v 0.1358891 0.09390088 0.02516737
v 0.1358889 -0.09390106 -0.02516666
v 0.1358893 0.06873699 0.06874576
v 0.1358891 -0.09390424 0.02515524
v 0.1358897 0.025155 0.0939028
v 0.1358888 -0.06874599 0.06873754
v 0.1358886 -0.02516727 0.09390241
v 0.07763088 0.0921273 -0.3437323
v 0.07763109 0.1509289 -0.1509086
v 0.07763176 0.2516516 -0.2516207
v 0.0776317 0.05525361 -0.2061566
v 0.07763149 0.206163 -0.05522747
v 0.07763132 0.3437462 -0.09208257
v 0.07763167 0.2061557 0.05525291
v 0.07763098 0.3437342 0.09212789
v 0.07763107 0.1509093 0.1509296
v 0.07763172 0.251619 0.2516502
v 0.07763164 0.0552268 0.2061619
v 0.07763152 0.09208254 0.3437454
v 0.07763064 -0.0552536 0.2061575
v 0.07763167 -0.09212732 0.3437333
v 0.07763125 -0.1509289 0.1509095
v 0.07763159 -0.2516517 0.2516179
v 0.07763062 -0.2061629 0.05522833
v 0.0776292 -0.3437463 0.09208288
v 0.07763066 -0.2061557 -0.05525197
v 0.07763112 -0.3437344 -0.09212703
v 0.07763126 -0.1509093 -0.1509287
v 0.07763062 -0.2516192 -0.2516493
v 0.07763069 -0.05522695 -0.206161
v 0.07763081 -0.0920828 -0.3437444
v 0.07763109 0.1509289 -0.1509086
v 0.03798075 0.03934033 -0.1467808
v 0.03798104 0.1074607 -0.1074463
v 0.0776317 0.05525361 -0.2061566
v 0.07763149 0.206163 -0.05522747
v 0.03798109 0.1467871 -0.03932078
v 0.03798042 -0.03932139 -0.1467849
v 0.07763069 -0.05522695 -0.206161
v 0.03798154 -0.1074468 -0.1074622
v 0.07763126 -0.1509093 -0.1509287
v 0.03798127 -0.146782 -0.0393409
v 0.03798109 0.1467871 -0.03932078
v 0.07763167 0.2061557 0.05525291
v 0.03798125 0.146782 0.03933996
v 0.07763107 0.1509093 0.1509296
v 0.03798125 0.146782 0.03933996
v 0.03798098 0.1074468 0.1074613
v 0.07763164 0.0552268 0.2061619
v 0.03798084 0.03932124 0.1467876
v 0.07763064 -0.0552536 0.2061575
v 0.03798052 -0.03934032 0.1467834
v 0.07763125 -0.1509289 0.1509095
v 0.03798148 -0.1074608 0.1074454
v 0.07763062 -0.2061629 0.05522833
v 0.03798143 -0.1467871 0.03931985
v 0.03798143 -0.1467871 0.03931985
v 0.07763066 -0.2061557 -0.05525197
v 0.03798127 -0.146782 -0.0393409
v 0.1358892 0.06874593 -0.06873684
v 0.03798075 0.03934033 -0.1467808
v 0.1358895 0.02516721 -0.0939017
v 0.03798104 0.1074607 -0.1074463
v 0.135889 0.09390419 -0.02515453
v 0.03798109 0.1467871 -0.03932078
v 0.03798042 -0.03932139 -0.1467849
v 0.1358896 -0.02515515 -0.09390569
v 0.03798154 -0.1074468 -0.1074622
v 0.1358888 -0.06873711 -0.06874505
v 0.03798127 -0.146782 -0.0393409
v 0.1358889 -0.09390106 -0.02516666
v 0.1358891 0.09390088 0.02516737
v 0.03798109 0.1467871 -0.03932078
v 0.03798125 0.146782 0.03933996
v 0.1358893 0.06873699 0.06874576
v 0.03798125 0.146782 0.03933996
v 0.03798098 0.1074468 0.1074613
v 0.1358897 0.025155 0.0939028
v 0.03798084 0.03932124 0.1467876
v 0.1358886 -0.02516727 0.09390241
v 0.03798052 -0.03934032 0.1467834
v 0.1358888 -0.06874599 0.06873754
v 0.03798148 -0.1074608 0.1074454
v 0.1358891 -0.09390424 0.02515524
v 0.03798143 -0.1467871 0.03931985
v 0.03798143 -0.1467871 0.03931985
v 0.03798127 -0.146782 -0.0393409

vn 0.9124887 0.2588809 -0.3167729
vn 0.6679569 0.7071517 -0.2318836
vn 0.6679556 0.7071528 -0.2318836
vn 0.9124892 0.2588802 -0.3167723
vn 0.2444456 0.9659426 -0.08485974
vn 0.2444456 0.9659426 -0.08485956
vn -0.2445634 0.9659091 0.08490165
vn -0.2445639 0.965909 0.08490183
vn -0.6680425 0.7070608 0.2319136
vn -0.6680427 0.7070608 0.2319136
vn -0.9125202 0.258756 0.3167844
vn -0.9125202 0.2587558 0.3167842
vn -0.9124883 -0.2588826 0.3167728
vn -0.9124883 -0.2588824 0.3167728
vn -0.6679564 -0.7071524 0.2318827
vn -0.6679561 -0.7071527 0.2318827
vn 0.9125203 -0.2587566 -0.3167832
vn 0.9125203 -0.2587565 -0.3167832
vn 0.6680434 -0.7070605 -0.2319127
vn 0.6680434 -0.7070603 -0.2319129
vn 0.2445645 -0.9659089 -0.08490136
vn 0.2445656 -0.9659085 -0.08490182
vn -0.2444459 -0.9659424 0.08485987
vn -0.2444457 -0.9659426 0.08485977
vn -0.6679561 -0.7071527 0.2318827
vn -0.6679564 -0.7071524 0.2318827
vn -0.3279519 3.410638E-14 -0.9446945
vn -0.327952 -1.906798E-07 -0.9446945
vn -0.3279522 1.100458E-07 -0.9446943
vn -0.3279522 2.148644E-14 -0.9446943
vn -0.3279521 2.594768E-14 -0.9446944
vn -0.3279521 -1.092687E-07 -0.9446944
vn -0.3279521 -1.092686E-07 -0.9446944
vn -0.3279523 1.763155E-14 -0.9446943
vn -0.3279522 2.143872E-14 -0.9446943
vn -0.3279524 1.817744E-07 -0.9446943
vn -0.3279524 2.202134E-07 -0.9446943
vn -0.3279516 -5.934541E-07 -0.9446946
vn 0.327951 -7.870538E-14 0.9446948
vn 0.327953 -1.24972E-07 0.9446941
vn 0.3279552 1.181882E-06 0.9446933
vn 0.3279531 1.957564E-14 0.944694
vn 0.3279527 -3.540951E-07 0.9446942
vn 0.3279515 -7.034675E-07 0.9446946
vn 0.3279523 -1.782146E-07 0.9446943
vn 0.3279512 -5.052768E-07 0.9446947
vn 0.3279522 1.246908E-07 0.9446943
vn 0.3279521 1.003884E-07 0.9446944
vn 0.3279515 -2.497809E-07 0.9446946
vn 0.3279524 -1.24345E-14 0.9446943
vn 0.3279519 -5.029335E-07 0.9446945
vn 0.3279523 -1.82039E-07 0.9446943
vn 0.3279524 1.606075E-07 0.9446943
vn 0.327952 -7.365716E-07 0.9446945
vn 0.3279522 2.721047E-07 0.9446943
vn 0.3279523 2.265945E-07 0.9446943
vn 0.3279524 -1.24345E-14 0.9446943
vn 0.3279524 -1.24345E-14 0.9446943
vn 0.327952 -1.573567E-07 0.9446945
vn 0.3279518 -1.719326E-07 0.9446945
vn 0.3279514 -2.17151E-07 0.9446946
vn 0.3279516 -5.260409E-14 0.9446946
vn 0.3279521 4.170286E-07 0.9446944
vn 0.3279522 5.312269E-07 0.9446943
vn 0.3279524 1.154879E-07 0.9446943
vn 0.3279532 -4.08008E-06 0.944694
vn 0.3279533 -1.106695E-05 0.944694
vn 0.3279513 -1.091764E-05 0.9446947
vn 0.3279496 -3.586788E-06 0.9446952
vn 0.3279476 -1.35979E-06 0.9446959
vn 0.3279524 -1.24345E-14 0.9446943
vn 0.3279524 -1.24345E-14 0.9446943
vn 0.3279524 -1.24345E-14 0.9446943
vn 0.3279522 -1.782585E-07 0.9446943
vn -0.08647713 -0.3833165 0.9195597
vn -0.219027 -0.1403282 0.9655751
vn -0.08647689 -0.3833165 0.9195598
vn -0.2190271 -0.1403283 0.9655751
vn 0.1430896 -0.5235943 0.8398657
vn 0.14309 -0.5235941 0.8398657
vn -0.2190455 0.1402604 0.9655808
vn -0.2190455 0.1402606 0.9655807
vn -0.08652461 0.3832656 0.9195765
vn -0.0865244 0.3832656 0.9195765
vn 0.1430254 0.5235763 0.8398879
vn 0.14309 -0.5235941 0.8398657
vn 0.4081597 -0.5235757 0.7478463
vn 0.4081595 -0.523576 0.7478461
vn 0.6377087 -0.3832663 0.6681576
vn 0.4081595 -0.523576 0.7478461
vn 0.6377087 -0.3832666 0.6681575
vn 0.7702292 -0.1402603 0.6221529
vn 0.7702292 -0.1402602 0.6221527
vn 0.7702121 0.1403286 0.6221586
vn 0.7702121 0.1403286 0.6221586
vn 0.6376618 0.3833165 0.6681737
vn 0.6376616 0.3833165 0.6681738
vn 0.4080952 0.5235944 0.7478684
vn 0.4080952 0.5235943 0.7478684
vn 0.4080952 0.5235943 0.7478684
vn 0.1430251 0.5235761 0.839888
vn 0.1430254 0.5235763 0.8398879
vn 0.7430592 0.6172134 0.258671
vn 0.9564911 0.2259552 0.1845779
vn 0.956491 0.2259568 0.1845771
vn 0.7430598 0.6172127 0.2586711
vn 0.3734134 0.8430882 0.3869944
vn 0.3734136 0.8430882 0.3869943
vn 0.9565192 -0.2258454 0.1845667
vn 0.9565195 -0.2258442 0.1845662
vn 0.7431363 -0.6171321 0.2586435
vn 0.743136 -0.6171322 0.2586439
vn 0.3735166 -0.8430592 0.3869578
vn 0.3735155 -0.8430594 0.3869587
vn -0.05340065 0.8430589 0.5351636
vn 0.3734136 0.8430882 0.3869943
vn -0.05340111 0.8430588 0.5351636
vn -0.4230195 0.6171321 0.6634775
vn -0.05340111 0.8430588 0.5351636
vn -0.4230197 0.617132 0.6634775
vn -0.6364028 0.2258454 0.7375536
vn -0.636403 0.2258454 0.7375536
vn -0.636375 -0.2259558 0.7375439
vn -0.6363751 -0.2259557 0.7375438
vn -0.4229436 -0.617213 0.6634507
vn -0.4229436 -0.6172128 0.6634507
vn -0.05329825 -0.8430881 0.5351278
vn -0.05329771 -0.8430884 0.5351273
vn -0.05329771 -0.8430884 0.5351273
vn 0.3735166 -0.8430592 0.3869578

vt 0.7592773 0.3427734
vt 0.7822266 0.3227539
vt 0.7592773 0.3227539
vt 0.7822266 0.3427734
vt 0.7822266 0.3027344
vt 0.7592773 0.3027344
vt 0.7822266 0.2827148
vt 0.7592773 0.2827148
vt 0.7822266 0.2626953
vt 0.7592773 0.2626953
vt 0.7822266 0.2426758
vt 0.7592773 0.2426758
vt 0.7822266 0.2225342
vt 0.7592773 0.2225342
vt 0.7822266 0.2025146
vt 0.7592773 0.2025146
vt 0.7592773 0.362793
vt 0.7822266 0.362793
vt 0.7592773 0.3828125
vt 0.7822266 0.3828125
vt 0.7592773 0.402832
vt 0.7822266 0.402832
vt 0.7592773 0.4230957
vt 0.7822266 0.4230957
vt 0.7592773 0.4431152
vt 0.7822266 0.4431152
vt 0.7363281 0.3596191
vt 0.7070313 0.3305664
vt 0.7363281 0.3808594
vt 0.7255859 0.3410645
vt 0.7255859 0.3994141
vt 0.6855469 0.3305664
vt 0.7070313 0.4101563
vt 0.6669922 0.3413086
vt 0.6860352 0.4104004
vt 0.65625 0.3598633
vt 0.6674805 0.3996582
vt 0.6567383 0.3811035
vt 0.6982422 0.3642578
vt 0.6948242 0.3640137
vt 0.7011719 0.3662109
vt 0.703125 0.3691406
vt 0.6918945 0.3657227
vt 0.7026367 0.3725586
vt 0.6899414 0.3686523
vt 0.7006836 0.3754883
vt 0.6899414 0.3720703
vt 0.6977539 0.3771973
vt 0.6914063 0.375
vt 0.6943359 0.3769531
vt 0.7084961 0.329834
vt 0.7143555 0.3530273
vt 0.7270508 0.3413086
vt 0.7036133 0.3461914
vt 0.7207031 0.364502
vt 0.7373047 0.3603516
vt 0.7207031 0.3774414
vt 0.7368164 0.3820801
vt 0.7138672 0.388916
vt 0.7260742 0.4008789
vt 0.7026367 0.3952637
vt 0.7070313 0.4121094
vt 0.6894531 0.3950195
vt 0.6845703 0.411377
vt 0.6782227 0.3881836
vt 0.6660156 0.3999023
vt 0.671875 0.376709
vt 0.6557617 0.3808594
vt 0.6723633 0.3637695
vt 0.6557617 0.3591309
vt 0.6787109 0.3522949
vt 0.6669922 0.3400879
vt 0.6904297 0.3459473
vt 0.6860352 0.3291016
vt 0.7143555 0.3530273
vt 0.7011719 0.3544922
vt 0.7084961 0.3588867
vt 0.7036133 0.3461914
vt 0.7207031 0.364502
vt 0.7124023 0.3664551
vt 0.6923828 0.354248
vt 0.6904297 0.3459473
vt 0.6845703 0.3586426
vt 0.6787109 0.3522949
vt 0.6801758 0.3659668
vt 0.7124023 0.3664551
vt 0.7207031 0.3774414
vt 0.7124023 0.3752441
vt 0.7138672 0.388916
vt 0.7124023 0.3752441
vt 0.7080078 0.3825684
vt 0.7026367 0.3952637
vt 0.7006836 0.3869629
vt 0.6894531 0.3950195
vt 0.6918945 0.3867188
vt 0.6782227 0.3881836
vt 0.6845703 0.3823242
vt 0.671875 0.376709
vt 0.6801758 0.3747559
vt 0.6801758 0.3747559
vt 0.6723633 0.3637695
vt 0.6801758 0.3659668
vt 0.7011719 0.3662109
vt 0.7011719 0.3544922
vt 0.6982422 0.3642578
vt 0.7084961 0.3588867
vt 0.703125 0.3691406
vt 0.7124023 0.3664551
vt 0.6923828 0.354248
vt 0.6948242 0.3640137
vt 0.6845703 0.3586426
vt 0.6918945 0.3657227
vt 0.6801758 0.3659668
vt 0.6899414 0.3686523
vt 0.7026367 0.3725586
vt 0.7124023 0.3664551
vt 0.7124023 0.3752441
vt 0.7006836 0.3754883
vt 0.7124023 0.3752441
vt 0.7080078 0.3825684
vt 0.6977539 0.3771973
vt 0.7006836 0.3869629
vt 0.6943359 0.3769531
vt 0.6918945 0.3867188
vt 0.6914063 0.375
vt 0.6845703 0.3823242
vt 0.6899414 0.3720703
vt 0.6801758 0.3747559
vt 0.6801758 0.3747559
vt 0.6801758 0.3659668

g wheel_backL_20250_343
usemtl wheel_backL_20250_343
usemap wheel_backL_20250_343
f 1/1/1 3/3/3 2/2/2
f 2/2/2 4/4/4 1/1/1
f 5/5/5 2/2/2 3/3/3
f 3/3/3 6/6/6 5/5/5
f 7/7/7 5/5/5 6/6/6
f 6/6/6 8/8/8 7/7/7
f 9/9/9 7/7/7 8/8/8
f 8/8/8 10/10/10 9/9/9
f 11/11/11 9/9/9 10/10/10
f 10/10/10 12/12/12 11/11/11
f 13/13/13 11/11/11 12/12/12
f 12/12/12 14/14/14 13/13/13
f 15/15/15 13/13/13 14/14/14
f 14/14/14 16/16/16 15/15/15
f 17/17/17 1/1/1 4/4/4
f 4/4/4 18/18/18 17/17/17
f 19/19/19 17/17/17 18/18/18
f 18/18/18 20/20/20 19/19/19
f 21/21/21 19/19/19 20/20/20
f 20/20/20 22/22/22 21/21/21
f 23/23/23 21/21/21 22/22/22
f 22/22/22 24/24/24 23/23/23
f 25/25/25 23/23/23 24/24/24
f 24/24/24 26/26/26 25/25/25
f 27/27/27 29/29/29 28/28/28
f 28/28/28 30/30/30 27/27/27
f 28/28/28 29/29/29 31/31/31
f 31/31/31 32/32/32 28/28/28
f 32/32/32 31/31/31 33/33/33
f 33/33/33 34/34/34 32/32/32
f 34/34/34 33/33/33 35/35/35
f 35/35/35 36/36/36 34/34/34
f 36/36/36 35/35/35 37/37/37
f 37/37/37 38/38/38 36/36/36
f 39/39/39 41/41/41 40/40/40
f 40/40/40 41/41/41 42/42/42
f 42/42/42 43/43/43 40/40/40
f 43/43/43 42/42/42 44/44/44
f 44/44/44 45/45/45 43/43/43
f 45/45/45 44/44/44 46/46/46
f 46/46/46 47/47/47 45/45/45
f 47/47/47 46/46/46 48/48/48
f 48/48/48 49/49/49 47/47/47
f 48/48/48 50/50/50 49/49/49
f 51/51/51 53/53/53 52/52/52
f 52/52/52 54/54/54 51/51/51
f 55/55/55 52/52/52 53/53/53
f 53/53/53 56/56/56 55/55/55
f 57/57/57 55/55/55 56/56/56
f 56/56/56 58/58/58 57/57/57
f 59/59/59 57/57/57 58/58/58
f 58/58/58 60/60/60 59/59/59
f 61/61/61 59/59/59 60/60/60
f 60/60/60 62/62/62 61/61/61
f 63/63/63 61/61/61 62/62/62
f 62/62/62 64/64/64 63/63/63
f 65/65/65 63/63/63 64/64/64
f 64/64/64 66/66/66 65/65/65
f 67/67/67 65/65/65 66/66/66
f 66/66/66 68/68/68 67/67/67
f 69/69/69 67/67/67 68/68/68
f 68/68/68 70/70/70 69/69/69
f 71/71/71 69/69/69 70/70/70
f 70/70/70 72/72/72 71/71/71
f 73/73/73 71/71/71 72/72/72
f 72/72/72 74/74/74 73/73/73
f 54/54/54 73/73/73 74/74/74
f 74/74/74 51/51/51 54/54/54
f 75/75/75 77/77/77 76/76/76
f 76/76/76 78/78/78 75/75/75
f 77/77/77 75/75/75 79/79/79
f 79/79/79 80/80/80 77/77/77
f 78/78/78 76/76/76 81/81/81
f 81/81/81 82/82/82 78/78/78
f 82/82/82 81/81/81 83/83/83
f 83/83/83 84/84/84 82/82/82
f 84/84/84 83/83/83 85/85/85
f 86/86/86 79/79/79 87/87/87
f 87/87/87 88/88/88 86/86/86
f 88/88/88 87/87/87 89/89/89
f 89/89/89 91/91/91 90/90/90
f 91/91/91 89/89/89 92/92/92
f 92/92/92 93/93/93 91/91/91
f 93/93/93 92/92/92 94/94/94
f 94/94/94 95/95/95 93/93/93
f 95/95/95 94/94/94 96/96/96
f 96/96/96 97/97/97 95/95/95
f 97/97/97 96/96/96 98/98/98
f 98/98/98 99/99/99 97/97/97
f 100/100/100 98/98/98 101/101/101
f 101/101/101 102/102/102 100/100/100
f 102/102/102 101/101/101 84/84/84
f 103/103/103 105/105/105 104/104/104
f 104/104/104 106/106/106 103/103/103
f 107/107/107 103/103/103 106/106/106
f 106/106/106 108/108/108 107/107/107
f 109/109/109 104/104/104 105/105/105
f 105/105/105 110/110/110 109/109/109
f 111/111/111 109/109/109 110/110/110
f 110/110/110 112/112/112 111/111/111
f 113/113/113 111/111/111 112/112/112
f 112/112/112 114/114/114 113/113/113
f 115/115/115 107/107/107 116/116/116
f 116/116/116 117/117/117 115/115/115
f 118/118/118 115/115/115 119/119/119
f 119/119/119 120/120/120 118/118/118
f 121/121/121 118/118/118 120/120/120
f 120/120/120 122/122/122 121/121/121
f 123/123/123 121/121/121 122/122/122
f 122/122/122 124/124/124 123/123/123
f 125/125/125 123/123/123 124/124/124
f 124/124/124 126/126/126 125/125/125
f 127/127/127 125/125/125 126/126/126
f 126/126/126 128/128/128 127/127/127
f 114/114/114 127/127/127 129/129/129
f 129/129/129 130/130/130 114/114/114
