#wheel_frontL_9929_405.obj

v -0.1067429 -0.09327763 -0.3437734
v 0.1055787 -0.09327763 -0.3437695
v 0.1067756 0.09212717 -0.343759
v -0.1067454 0.09212781 -0.3437584
v 0.1067759 0.2516517 -0.2516447
v -0.106745 0.251652 -0.2516441
v 0.1067755 0.3437465 -0.0921074
v -0.1067455 0.3437469 -0.0921068
v 0.1067749 0.3437343 0.09210393
v -0.1067461 0.3437347 0.09210453
v 0.1067762 0.2516192 0.2516257
v -0.1067448 0.2516194 0.2516263
v 0.1067753 0.09208268 0.3437228
v -0.1067457 0.0920829 0.3437234
v 0.1055754 -0.0933269 0.3437104
v -0.106744 -0.09332669 0.3437079
v -0.1067446 -0.2223804 -0.2516768
v -0.1067426 -0.2437385 -0.09215454
v 0.1420991 -0.2319105 -0.2530402
v 0.2067702 -0.24375 -0.09215076
v -0.1067439 -0.2437463 0.09205632
v 0.2067763 -0.2437465 0.09205662
v -0.1067443 -0.2223856 0.2515936
v 0.1421251 -0.2319261 0.2529543
v -0.106744 -0.09332669 0.3437079
v 0.1055754 -0.0933269 0.3437104
v -0.1067446 -0.2223804 -0.2516768
v -0.1067429 -0.09327763 -0.3437734
v -0.1067439 -0.2437463 0.09205632
v -0.1067426 -0.2437385 -0.09215454
v -0.1067454 0.09212781 -0.3437584
v -0.1067443 -0.2223856 0.2515936
v -0.106745 0.251652 -0.2516441
v -0.106744 -0.09332669 0.3437079
v -0.1067455 0.3437469 -0.0921068
v -0.1067457 0.0920829 0.3437234
v -0.1067461 0.3437347 0.09210453
v -0.1067448 0.2516194 0.2516263
v 0.1054609 -0.02515481 -0.09393258
v 0.1067769 -0.06873691 -0.06877363
v 0.1061644 0.02516739 -0.09392579
v 0.1082676 -0.09526809 -0.0251951
v 0.1067775 0.06874625 -0.06876497
v 0.1082665 -0.09527157 0.02512955
v 0.106776 0.09390441 -0.02518044
v 0.1067751 -0.06874581 0.06871329
v 0.1067742 0.09390116 0.02514374
v 0.1054602 -0.02516718 0.0938722
v 0.106775 0.06873713 0.06872148
v 0.1061638 0.02515502 0.09387899
v 0.1055787 -0.09327763 -0.3437695
v 0.1062858 -0.05522652 -0.2061398
v 0.1067215 0.05525386 -0.2061733
v 0.1067756 0.09212717 -0.343759
v 0.1067765 0.1509293 -0.1509356
v 0.1067759 0.2516517 -0.2516447
v 0.1067764 0.2061631 -0.05525288
v 0.1067755 0.3437465 -0.0921074
v 0.1067773 0.2061559 0.05522671
v 0.1067749 0.3437343 0.09210393
v 0.1067773 0.1509093 0.1509012
v 0.1067762 0.2516192 0.2516257
v 0.1067218 0.05522695 0.2061339
v 0.1067753 0.09208268 0.3437228
v 0.1062859 -0.05525364 0.2060845
v 0.1055754 -0.0933269 0.3437104
v 0.110347 -0.1581147 0.1510681
v 0.1421251 -0.2319261 0.2529543
v 0.1255009 -0.2061937 0.05520172
v 0.2067763 -0.2437465 0.09205662
v 0.1254978 -0.2061892 -0.05527928
v 0.2067702 -0.24375 -0.09215076
v 0.1103471 -0.1580941 -0.1511407
v 0.1420991 -0.2319105 -0.2530402
v 0.1062858 -0.05522652 -0.2061398
v 0.06667884 -0.03932119 -0.1468079
v 0.06700333 0.0393405 -0.1468055
v 0.1067215 0.05525386 -0.2061733
v 0.06712565 0.1074609 -0.1074715
v 0.1067765 0.1509293 -0.1509356
v 0.06712438 0.1467872 -0.03934511
v 0.1067764 0.2061631 -0.05525288
v 0.06712574 0.1467822 0.03931503
v 0.1067773 0.2061559 0.05522671
v 0.06712605 0.107447 0.1074342
v 0.1067773 0.1509093 0.1509012
v 0.06700508 0.0393214 0.1467603
v 0.1067218 0.05522695 0.2061339
v 0.06668217 -0.03934029 0.1467507
v 0.1062859 -0.05525364 0.2060845
v 0.06621904 -0.1103081 0.1074203
v 0.110347 -0.1581147 0.1510681
v 0.06538977 -0.1537519 0.03929627
v 0.1255009 -0.2061937 0.05520172
v 0.06538841 -0.1537467 -0.03936387
v 0.1254978 -0.2061892 -0.05527928
v 0.06621864 -0.1102924 -0.1074853
v 0.1103471 -0.1580941 -0.1511407
v 0.06700333 0.0393405 -0.1468055
v 0.06667884 -0.03932119 -0.1468079
v 0.1054609 -0.02515481 -0.09393258
v 0.1061644 0.02516739 -0.09392579
v 0.06712565 0.1074609 -0.1074715
v 0.1067775 0.06874625 -0.06876497
v 0.06712438 0.1467872 -0.03934511
v 0.106776 0.09390441 -0.02518044
v 0.06712574 0.1467822 0.03931503
v 0.1067742 0.09390116 0.02514374
v 0.06712605 0.107447 0.1074342
v 0.106775 0.06873713 0.06872148
v 0.06700508 0.0393214 0.1467603
v 0.1061638 0.02515502 0.09387899
v 0.06668217 -0.03934029 0.1467507
v 0.1054602 -0.02516718 0.0938722
v 0.06621904 -0.1103081 0.1074203
v 0.1067751 -0.06874581 0.06871329
v 0.06538977 -0.1537519 0.03929627
v 0.1082665 -0.09527157 0.02512955
v 0.06538841 -0.1537467 -0.03936387
v 0.1082676 -0.09526809 -0.0251951
v 0.06621864 -0.1102924 -0.1074853
v 0.1067769 -0.06873691 -0.06877363

vn -0.5240743 -0.2958103 -0.7986505
vn -0.5212555 -0.3142599 -0.7934316
vn -0.5235832 0.2594127 -0.8115209
vn -0.5236604 0.2588815 -0.8116406
vn -0.3833272 0.7071519 -0.5941343
vn -0.3833271 0.7071522 -0.594134
vn -0.1402818 0.9659416 -0.2174305
vn -0.1402815 0.9659418 -0.21743
vn 0.140352 0.9659081 0.2175344
vn 0.140352 0.9659081 0.2175345
vn 0.3833783 0.7070596 0.5942112
vn 0.3833782 0.7070597 0.5942112
vn 0.523601 0.259289 0.8115489
vn 0.5236786 0.2587552 0.8116691
vn 0.5080181 -0.3144548 0.8018952
vn 0.5116171 -0.2959891 0.8066217
vn -0.292691 -0.8580931 -0.4219083
vn -0.03425306 -0.9987172 -0.0372622
vn -0.2487752 -0.9018022 -0.3533586
vn -0.02952385 -0.999047 -0.03211423
vn 0.01981152 -0.9987193 0.04653214
vn 0.01707281 -0.9990485 0.04010671
vn 0.2636943 -0.8581685 0.4404663
vn 0.2193346 -0.9018674 0.3721909
vn 0.5116171 -0.2959891 0.8066217
vn 0.5080181 -0.3144548 0.8018952
vn -0.8402872 -1.30608E-06 0.5421415
vn -0.8402873 -9.540126E-07 0.5421413
vn -0.8402873 -8.910973E-07 0.5421413
vn -0.8402872 -1.30608E-06 0.5421415
vn -0.8402873 -4.775956E-07 0.5421414
vn -0.8402873 -3.861481E-07 0.5421414
vn -0.8402873 -2.026115E-07 0.5421415
vn -0.8402873 -2.01948E-07 0.5421415
vn -0.8402872 1.403168E-14 0.5421415
vn -0.8402872 1.403168E-14 0.5421415
vn -0.8402871 4.141607E-07 0.5421417
vn -0.8402871 4.141607E-07 0.5421417
vn 0.7963344 -0.0139811 -0.6046949
vn 0.8207245 -0.001393041 -0.5713224
vn 0.8207008 -0.001405671 -0.5713565
vn 0.8345376 0.005556186 -0.5509232
vn 0.8344639 0.005519141 -0.5510349
vn 0.8433302 0.007877579 -0.537338
vn 0.8433801 0.007877581 -0.5372598
vn 0.8484641 0.005533541 -0.529224
vn 0.8484716 0.005513594 -0.5292122
vn 0.8495097 -0.001404614 -0.5275711
vn 0.84951 -0.001404192 -0.5275705
vn 0.8402112 -0.01402336 -0.542078
vn 0.8465649 0.09067953 -0.5245045
vn 0.8465644 0.09066279 -0.5245084
vn 0.8396672 -0.002883727 -0.5430937
vn 0.8396673 -0.002883463 -0.5430936
vn 0.840308 -0.0001260168 -0.5421093
vn 0.840308 -0.0001260158 -0.5421093
vn 0.8402871 3.118338E-07 -0.5421416
vn 0.8402871 3.118341E-07 -0.5421416
vn 0.8402873 1.453112E-07 -0.5421413
vn 0.8402873 1.453112E-07 -0.5421413
vn 0.8402664 -0.0001264745 -0.5421737
vn 0.8402664 -0.0001264731 -0.5421737
vn 0.8409033 -0.002889255 -0.5411778
vn 0.8409033 -0.002888983 -0.5411779
vn 0.826812 0.09072933 -0.5551126
vn 0.8268085 0.09074692 -0.5551148
vn 0.7251559 0.5084288 -0.4643798
vn 0.757183 0.4206414 -0.4997344
vn 0.4617248 0.8425063 -0.2774739
vn 0.4943227 0.8187126 -0.2921534
vn 0.4431507 0.8424745 -0.3063542
vn 0.4699829 0.8186588 -0.330019
vn 0.722056 0.5082892 -0.4693367
vn 0.7674466 0.4205188 -0.4839309
vn 0.9894773 0.1444499 -0.008313388
vn 0.9898741 0.1417311 -0.007860184
vn 0.9897156 -0.1422179 -0.01540247
vn 0.9896756 -0.1424893 -0.01546443
vn 0.9137657 -0.383688 -0.1334757
vn 0.9137461 -0.3837241 -0.1335061
vn 0.7821704 -0.5235934 -0.3377262
vn 0.7821704 -0.5235933 -0.3377263
vn 0.6300515 -0.5235754 -0.5735009
vn 0.6300516 -0.5235754 -0.573501
vn 0.4982058 -0.3836387 -0.777568
vn 0.4982254 -0.3836747 -0.7775377
vn 0.4219479 -0.1421471 -0.8954073
vn 0.4219878 -0.1424183 -0.8953454
vn 0.4151512 0.1418061 -0.8986326
vn 0.4154007 0.1445267 -0.8980836
vn 0.4580569 0.4507626 -0.766157
vn 0.4604056 0.4656823 -0.7557554
vn 0.521005 0.6910169 -0.5010475
vn 0.5210689 0.6911367 -0.5008157
vn 0.6713033 0.6909832 -0.2681288
vn 0.6711175 0.6911038 -0.2682835
vn 0.8868903 0.450686 -0.1015246
vn 0.8783824 0.4656079 -0.1079509
vn 0.3779681 0.1457967 -0.9142666
vn 0.3778814 -0.1494998 -0.9137043
vn 0.3777797 -0.1487426 -0.91387
vn 0.3780734 0.1466499 -0.9140866
vn 0.4565193 0.4122751 -0.7884281
vn 0.4566617 0.4125469 -0.7882035
vn 0.5982677 0.5665854 -0.5666181
vn 0.5982676 0.5665854 -0.5666183
vn 0.7628769 0.5665653 -0.3114837
vn 0.7628767 0.5665654 -0.311484
vn 0.906535 0.4122201 -0.09093085
vn 0.9063892 0.412492 -0.09115314
vn 0.9887922 0.145724 0.03247434
vn 0.9886718 0.1465767 0.03230429
vn 0.9882237 -0.1495707 0.03229105
vn 0.9883328 -0.1488133 0.03245223
vn 0.9107732 -0.403577 -0.08728048
vn 0.9137982 -0.3976805 -0.08260071
vn 0.7711813 -0.5555772 -0.3108261
vn 0.774756 -0.5537166 -0.3052055
vn 0.6010085 -0.555557 -0.5745822
vn 0.5973597 -0.5536949 -0.5801575
vn 0.454882 -0.4035228 -0.7938838
vn 0.4518665 -0.3976277 -0.7985665

vt 0.894043 0.8886719
vt 0.894043 0.8657227
vt 0.8735352 0.8657227
vt 0.8735352 0.8886719
vt 0.8535156 0.8657227
vt 0.8535156 0.8886719
vt 0.8334961 0.8657227
vt 0.8334961 0.8886719
vt 0.8134766 0.8657227
vt 0.8134766 0.8886719
vt 0.793457 0.8657227
vt 0.793457 0.8886719
vt 0.7734375 0.8657227
vt 0.7734375 0.8886719
vt 0.753418 0.8657227
vt 0.753418 0.8886719
vt 0.9140625 0.8886719
vt 0.934082 0.8886719
vt 0.9140625 0.8657227
vt 0.934082 0.8657227
vt 0.9541016 0.8886719
vt 0.9541016 0.8657227
vt 0.9741211 0.8886719
vt 0.9741211 0.8657227
vt 0.9941406 0.8886719
vt 0.9941406 0.8657227
vt 0.5517578 0.7646484
vt 0.5332031 0.7539063
vt 0.5625 0.8046875
vt 0.5625 0.7832031
vt 0.5117188 0.7539063
vt 0.5522461 0.8232422
vt 0.4934082 0.7646484
vt 0.5336914 0.8339844
vt 0.482666 0.7836914
vt 0.512207 0.8339844
vt 0.482666 0.8051758
vt 0.4934082 0.8232422
vt 0.5249023 0.7875977
vt 0.5214844 0.7875977
vt 0.527832 0.7895508
vt 0.5185547 0.7890625
vt 0.5292969 0.7924805
vt 0.5166016 0.7919922
vt 0.5292969 0.7963867
vt 0.5166016 0.7954102
vt 0.5273438 0.7988281
vt 0.5180664 0.7988281
vt 0.5244141 0.8007813
vt 0.5209961 0.800293
vt 0.534668 0.753418
vt 0.5297852 0.7695313
vt 0.5410156 0.7763672
vt 0.5532227 0.7651367
vt 0.5473633 0.7880859
vt 0.5639648 0.7836914
vt 0.5473633 0.8012695
vt 0.5634766 0.8056641
vt 0.5405273 0.8125
vt 0.5527344 0.824707
vt 0.5292969 0.8188477
vt 0.5332031 0.8359375
vt 0.5161133 0.8183594
vt 0.5112305 0.8349609
vt 0.5048828 0.8115234
vt 0.4924316 0.8232422
vt 0.4985352 0.800293
vt 0.4821777 0.8041992
vt 0.4987793 0.7871094
vt 0.4824219 0.7827148
vt 0.5053711 0.7758789
vt 0.4934082 0.7636719
vt 0.5166016 0.7695313
vt 0.5126953 0.7524414
vt 0.5297852 0.7695313
vt 0.5273438 0.777832
vt 0.534668 0.7822266
vt 0.5410156 0.7763672
vt 0.5390625 0.7900391
vt 0.5473633 0.7880859
vt 0.5390625 0.7988281
vt 0.5473633 0.8012695
vt 0.534668 0.8061523
vt 0.5405273 0.8125
vt 0.5268555 0.8105469
vt 0.5292969 0.8188477
vt 0.5185547 0.8100586
vt 0.5161133 0.8183594
vt 0.5107422 0.8056641
vt 0.5048828 0.8115234
vt 0.5068359 0.7983398
vt 0.4985352 0.800293
vt 0.5068359 0.7895508
vt 0.4987793 0.7871094
vt 0.5112305 0.7822266
vt 0.5053711 0.7758789
vt 0.519043 0.777832
vt 0.5166016 0.7695313
vt 0.534668 0.7822266
vt 0.5273438 0.777832
vt 0.5249023 0.7875977
vt 0.527832 0.7895508
vt 0.5390625 0.7900391
vt 0.5292969 0.7924805
vt 0.5390625 0.7988281
vt 0.5292969 0.7963867
vt 0.534668 0.8061523
vt 0.5273438 0.7988281
vt 0.5268555 0.8105469
vt 0.5244141 0.8007813
vt 0.5185547 0.8100586
vt 0.5209961 0.800293
vt 0.5107422 0.8056641
vt 0.5180664 0.7988281
vt 0.5068359 0.7983398
vt 0.5166016 0.7954102
vt 0.5068359 0.7895508
vt 0.5166016 0.7919922
vt 0.5112305 0.7822266
vt 0.5185547 0.7890625
vt 0.519043 0.777832
vt 0.5214844 0.7875977

g wheel_frontL_9929_405
usemtl wheel_frontL_9929_405
usemap wheel_frontL_9929_405
f 1/1/1 3/3/3 2/2/2
f 1/1/1 4/4/4 3/3/3
f 4/4/4 5/5/5 3/3/3
f 4/4/4 6/6/6 5/5/5
f 6/6/6 7/7/7 5/5/5
f 6/6/6 8/8/8 7/7/7
f 8/8/8 9/9/9 7/7/7
f 8/8/8 10/10/10 9/9/9
f 10/10/10 11/11/11 9/9/9
f 10/10/10 12/12/12 11/11/11
f 12/12/12 13/13/13 11/11/11
f 12/12/12 14/14/14 13/13/13
f 14/14/14 15/15/15 13/13/13
f 14/14/14 16/16/16 15/15/15
f 17/17/17 1/1/1 2/2/2
f 18/18/18 17/17/17 19/19/19
f 18/18/18 19/19/19 20/20/20
f 21/21/21 18/18/18 20/20/20
f 21/21/21 20/20/20 22/22/22
f 23/23/23 21/21/21 22/22/22
f 23/23/23 22/22/22 24/24/24
f 25/25/25 23/23/23 24/24/24
f 25/25/25 24/24/24 26/26/26
f 17/17/17 2/2/2 19/19/19
f 27/27/27 29/29/29 28/28/28
f 27/27/27 30/30/30 29/29/29
f 29/29/29 31/31/31 28/28/28
f 29/29/29 32/32/32 31/31/31
f 32/32/32 33/33/33 31/31/31
f 32/32/32 34/34/34 33/33/33
f 34/34/34 35/35/35 33/33/33
f 34/34/34 36/36/36 35/35/35
f 36/36/36 37/37/37 35/35/35
f 36/36/36 38/38/38 37/37/37
f 39/39/39 41/41/41 40/40/40
f 41/41/41 42/42/42 40/40/40
f 41/41/41 43/43/43 42/42/42
f 43/43/43 44/44/44 42/42/42
f 43/43/43 45/45/45 44/44/44
f 45/45/45 46/46/46 44/44/44
f 45/45/45 47/47/47 46/46/46
f 47/47/47 48/48/48 46/46/46
f 47/47/47 49/49/49 48/48/48
f 49/49/49 50/50/50 48/48/48
f 51/51/51 53/53/53 52/52/52
f 51/51/51 54/54/54 53/53/53
f 54/54/54 55/55/55 53/53/53
f 54/54/54 56/56/56 55/55/55
f 56/56/56 57/57/57 55/55/55
f 56/56/56 58/58/58 57/57/57
f 58/58/58 59/59/59 57/57/57
f 58/58/58 60/60/60 59/59/59
f 60/60/60 61/61/61 59/59/59
f 60/60/60 62/62/62 61/61/61
f 62/62/62 63/63/63 61/61/61
f 62/62/62 64/64/64 63/63/63
f 64/64/64 65/65/65 63/63/63
f 64/64/64 66/66/66 65/65/65
f 66/66/66 67/67/67 65/65/65
f 66/66/66 68/68/68 67/67/67
f 68/68/68 69/69/69 67/67/67
f 68/68/68 70/70/70 69/69/69
f 70/70/70 71/71/71 69/69/69
f 70/70/70 72/72/72 71/71/71
f 72/72/72 73/73/73 71/71/71
f 72/72/72 74/74/74 73/73/73
f 74/74/74 52/52/52 73/73/73
f 74/74/74 51/51/51 52/52/52
f 75/75/75 77/77/77 76/76/76
f 75/75/75 78/78/78 77/77/77
f 78/78/78 79/79/79 77/77/77
f 78/78/78 80/80/80 79/79/79
f 80/80/80 81/81/81 79/79/79
f 80/80/80 82/82/82 81/81/81
f 82/82/82 83/83/83 81/81/81
f 82/82/82 84/84/84 83/83/83
f 84/84/84 85/85/85 83/83/83
f 84/84/84 86/86/86 85/85/85
f 86/86/86 87/87/87 85/85/85
f 86/86/86 88/88/88 87/87/87
f 88/88/88 89/89/89 87/87/87
f 88/88/88 90/90/90 89/89/89
f 90/90/90 91/91/91 89/89/89
f 90/90/90 92/92/92 91/91/91
f 92/92/92 93/93/93 91/91/91
f 92/92/92 94/94/94 93/93/93
f 94/94/94 95/95/95 93/93/93
f 94/94/94 96/96/96 95/95/95
f 96/96/96 97/97/97 95/95/95
f 96/96/96 98/98/98 97/97/97
f 98/98/98 76/76/76 97/97/97
f 98/98/98 75/75/75 76/76/76
f 99/99/99 101/101/101 100/100/100
f 99/99/99 102/102/102 101/101/101
f 103/103/103 102/102/102 99/99/99
f 103/103/103 104/104/104 102/102/102
f 105/105/105 104/104/104 103/103/103
f 105/105/105 106/106/106 104/104/104
f 107/107/107 106/106/106 105/105/105
f 107/107/107 108/108/108 106/106/106
f 109/109/109 108/108/108 107/107/107
f 109/109/109 110/110/110 108/108/108
f 111/111/111 110/110/110 109/109/109
f 111/111/111 112/112/112 110/110/110
f 113/113/113 112/112/112 111/111/111
f 113/113/113 114/114/114 112/112/112
f 115/115/115 114/114/114 113/113/113
f 115/115/115 116/116/116 114/114/114
f 117/117/117 116/116/116 115/115/115
f 117/117/117 118/118/118 116/116/116
f 119/119/119 118/118/118 117/117/117
f 119/119/119 120/120/120 118/118/118
f 121/121/121 120/120/120 119/119/119
f 121/121/121 122/122/122 120/120/120
f 100/100/100 122/122/122 121/121/121
f 100/100/100 101/101/101 122/122/122
