#wheel_frontL_9983_693.obj

v -0.1406346 -0.286203 0.095357
v 0.1110614 -0.2414624 0.2604679
v 0.1857892 -0.2862067 0.09535759
v -0.1406366 -0.2400888 0.2604688
v 0.07910193 -0.09584331 0.3557875
v -0.1406357 -0.09613942 0.3557875
v 0.08036412 0.0953531 0.3557746
v -0.140636 0.09535351 0.3557756
v 0.08036309 0.2604643 0.2604338
v -0.140637 0.2604645 0.2604347
v 0.08036164 0.3557839 0.09531108
v -0.1406353 0.3557839 0.09531103
v 0.08036233 0.3557712 -0.09535102
v -0.1406347 0.3557716 -0.09535106
v 0.08036168 0.26043 -0.2604603
v -0.1406353 0.2604302 -0.2604603
v -0.1406339 -0.2862124 -0.09530509
v 0.1857935 -0.2862124 -0.09530392
v -0.1406354 -0.2401035 -0.2604278
v 0.1110868 -0.2414806 -0.2604277
v -0.1406364 -0.0961886 -0.3557687
v 0.07909808 -0.09589187 -0.3557676
v -0.1406367 0.09530678 -0.3557805
v 0.08036029 0.09530678 -0.3557805
v -0.1406353 0.2604302 -0.2604603
v 0.08036168 0.26043 -0.2604603
v -0.1406354 -0.2401035 -0.2604278
v -0.1406346 -0.286203 0.095357
v -0.1406339 -0.2862124 -0.09530509
v -0.1406364 -0.0961886 -0.3557687
v -0.1406367 0.09530678 -0.3557805
v -0.1406366 -0.2400888 0.2604688
v -0.1406353 0.2604302 -0.2604603
v -0.1406357 -0.09613942 0.3557875
v -0.1406347 0.3557716 -0.09535106
v -0.140636 0.09535351 0.3557756
v -0.1406353 0.3557839 0.09531103
v -0.140637 0.2604645 0.2604347
v 0.1362129 -0.09679042 0.02605289
v 0.140661 -0.07114482 0.0711569
v 0.1362127 -0.09679369 -0.02603238
v 0.1406615 -0.02670547 0.09719515
v 0.1406609 -0.07115421 -0.07114131
v 0.1406605 0.02573753 0.09719203
v 0.1406616 -0.02671812 -0.09718677
v 0.1406617 0.07115297 0.07114813
v 0.1406606 0.02572487 -0.09718989
v 0.140661 0.09719224 0.02603932
v 0.1406615 0.07114379 -0.07115008
v 0.1406608 0.09718876 -0.02604595
v 0.1857892 -0.2862067 0.09535759
v 0.07279574 -0.1596737 0.1562188
v 0.08033747 -0.2112059 0.05719279
v 0.1110614 -0.2414624 0.2604679
v 0.08036297 -0.05724889 0.213386
v 0.07910193 -0.09584331 0.3557875
v 0.08036412 0.05717888 0.2133788
v 0.08036412 0.0953531 0.3557746
v 0.08036277 0.156214 0.1561982
v 0.08036309 0.2604643 0.2604338
v 0.08036276 0.2133824 0.05716432
v 0.08036164 0.3557839 0.09531108
v 0.08036348 0.2133746 -0.05718615
v 0.08036233 0.3557712 -0.09535102
v 0.08036279 0.1561936 -0.1562112
v 0.08036168 0.26043 -0.2604603
v 0.08036175 0.05715072 -0.21338
v 0.08036029 0.09530678 -0.3557805
v 0.08036108 -0.05727664 -0.2133712
v 0.07909808 -0.09589187 -0.3557676
v 0.07279576 -0.1596946 -0.1561906
v 0.1110868 -0.2414806 -0.2604277
v 0.0803418 -0.2112112 -0.0571571
v 0.1857935 -0.2862124 -0.09530392
v 0.07279574 -0.1596737 0.1562188
v 0.04009625 -0.1569699 0.0407223
v 0.08033747 -0.2112059 0.05719279
v 0.03963933 -0.1132718 0.1112277
v 0.08036297 -0.05724889 0.213386
v 0.03932519 -0.04067814 0.1519316
v 0.04009525 -0.1569752 -0.04069506
v 0.0803418 -0.2112112 -0.0571571
v 0.03963988 -0.1132877 -0.1112067
v 0.07279576 -0.1596946 -0.1561906
v 0.03932524 -0.04069814 -0.1519186
v 0.08036412 0.05717888 0.2133788
v 0.03932519 -0.04067814 0.1519316
v 0.03932324 0.04072322 0.1519254
v 0.08036277 0.156214 0.1561982
v 0.03932324 0.04072322 0.1519254
v 0.03932356 0.1112237 0.1112139
v 0.08036276 0.2133824 0.05716432
v 0.03932311 0.151927 0.04070145
v 0.08036348 0.2133746 -0.05718615
v 0.03932261 0.1519217 -0.04071435
v 0.08036279 0.1561936 -0.1562112
v 0.03932411 0.1112088 -0.1112206
v 0.08036175 0.05715072 -0.21338
v 0.03932377 0.04070323 -0.1519233
v 0.08036108 -0.05727664 -0.2133712
v 0.03932377 0.04070323 -0.1519233
v 0.03932524 -0.04069814 -0.1519186
v 0.140661 -0.07114482 0.0711569
v 0.04009625 -0.1569699 0.0407223
v 0.03963933 -0.1132718 0.1112277
v 0.1362129 -0.09679042 0.02605289
v 0.1406615 -0.02670547 0.09719515
v 0.03932519 -0.04067814 0.1519316
v 0.04009525 -0.1569752 -0.04069506
v 0.1362127 -0.09679369 -0.02603238
v 0.03963988 -0.1132877 -0.1112067
v 0.1406609 -0.07115421 -0.07114131
v 0.03932524 -0.04069814 -0.1519186
v 0.1406616 -0.02671812 -0.09718677
v 0.03932519 -0.04067814 0.1519316
v 0.1406605 0.02573753 0.09719203
v 0.03932324 0.04072322 0.1519254
v 0.03932324 0.04072322 0.1519254
v 0.1406617 0.07115297 0.07114813
v 0.03932356 0.1112237 0.1112139
v 0.140661 0.09719224 0.02603932
v 0.03932311 0.151927 0.04070145
v 0.1406608 0.09718876 -0.02604595
v 0.03932261 0.1519217 -0.04071435
v 0.1406615 0.07114379 -0.07115008
v 0.03932411 0.1112088 -0.1112206
v 0.1406606 0.02572487 -0.09718989
v 0.03932377 0.04070323 -0.1519233
v 0.03932377 0.04070323 -0.1519233
v 0.03932524 -0.04069814 -0.1519186

vn 0.127667 -0.9909347 0.04180302
vn 0.5073709 -0.8464246 0.1616757
vn 0.1068796 -0.9937046 0.03355417
vn 0.5617924 -0.8075148 0.1797438
vn 0.9093936 -0.3016808 0.2863423
vn 0.9136564 -0.2884877 0.2863685
vn 0.9214402 0.2594241 0.2892185
vn 0.9215792 0.2588812 0.2892623
vn 0.6746105 0.7071521 0.2117442
vn 0.6746103 0.7071522 0.2117443
vn 0.2468805 0.9659419 0.07748919
vn 0.2468808 0.9659418 0.07748917
vn -0.2470008 0.9659079 -0.07752901
vn -0.2470005 0.965908 -0.07752889
vn -0.674698 0.70706 -0.2117731
vn -0.6746982 0.7070599 -0.2117731
vn -0.1294828 -0.9907476 -0.04063794
vn -0.1079735 -0.9936211 -0.03250822
vn -0.5614362 -0.8091005 -0.1736218
vn -0.5062661 -0.8483299 -0.1550153
vn -0.914027 -0.2876473 -0.2860312
vn -0.9098566 -0.3005992 -0.286009
vn -0.9216107 0.2587566 -0.2892732
vn -0.9214712 0.2593018 -0.2892294
vn -0.6746982 0.7070599 -0.2117731
vn -0.674698 0.70706 -0.2117731
vn -0.299473 -1.809735E-06 0.9541048
vn -0.2994729 -8.430394E-07 0.9541048
vn -0.2994726 1.240766E-06 0.9541049
vn -0.2994725 -5.36251E-07 0.954105
vn -0.2994724 -1.013737E-07 0.954105
vn -0.2994727 -4.286873E-07 0.9541048
vn -0.2994726 -1.706938E-07 0.9541049
vn -0.2994726 -1.783591E-07 0.9541049
vn -0.2994726 -2.151889E-07 0.9541049
vn -0.2994723 -1.199736E-14 0.954105
vn -0.2994722 2.756853E-07 0.954105
vn -0.299472 4.734284E-07 0.9541051
vn 0.2950616 -0.1708467 -0.9400798
vn 0.2525992 0.01145469 -0.9675032
vn 0.316325 -0.1083114 -0.9424474
vn 0.2920633 -0.00538541 -0.9563839
vn 0.3080895 -0.0349825 -0.950714
vn 0.2994725 7.385292E-15 -0.954105
vn 0.2994725 7.393351E-15 -0.954105
vn 0.2994724 7.553982E-15 -0.954105
vn 0.2994725 5.099924E-15 -0.954105
vn 0.2994725 5.284687E-15 -0.954105
vn 0.2994726 -2.001035E-07 -0.9541049
vn 0.2994726 -3.662041E-07 -0.9541049
vn 0.1727894 0.7484957 -0.640232
vn 0.1238989 0.4275259 -0.8954722
vn 0.03619334 0.7782559 -0.6269023
vn 0.3092319 0.3595208 -0.8804091
vn 0.2602912 0.07086761 -0.9629259
vn 0.3273754 0.08598618 -0.9409739
vn 0.301693 -0.001946682 -0.9534032
vn 0.3003125 -0.003292339 -0.9538352
vn 0.2994724 -2.164335E-07 -0.954105
vn 0.2994723 2.187474E-07 -0.954105
vn 0.2994725 6.939292E-07 -0.954105
vn 0.2994726 7.792336E-07 -0.9541049
vn 0.2994726 3.530848E-07 -0.9541049
vn 0.2994728 2.453473E-07 -0.9541048
vn 0.2994722 1.739728E-14 -0.954105
vn 0.2994685 -9.60932E-07 -0.9541062
vn 0.2994618 -2.774726E-06 -0.9541083
vn 0.2975246 -0.001894732 -0.9547123
vn 0.3018587 -0.03593722 -0.952675
vn 0.3297559 0.0613959 -0.9420677
vn 0.3719242 0.2359492 -0.8977752
vn 0.3414577 0.4529772 -0.8235399
vn 0.2053141 0.7480524 -0.6310804
vn 0.1545028 0.8179237 -0.5541915
vn -0.06738883 0.3300013 -0.9415721
vn 0.1398362 0.5475994 -0.8249729
vn 0.137213 0.5700506 -0.8100705
vn -0.07724506 0.3094968 -0.9477578
vn -0.2383692 0.1171734 -0.9640802
vn -0.248356 0.1377145 -0.9588297
vn 0.3918246 0.5579793 -0.7315272
vn 0.3689075 0.5442823 -0.7534344
vn 0.5680084 0.3561974 -0.7419497
vn 0.5671026 0.3477117 -0.7466533
vn 0.7471906 0.1120077 -0.6551033
vn -0.2479166 -0.1403116 -0.9585668
vn -0.248356 0.1377145 -0.9588297
vn -0.247896 -0.1403479 -0.9585668
vn -0.1140241 -0.3833202 -0.91655
vn -0.247896 -0.1403479 -0.9585668
vn -0.1140093 -0.3833223 -0.9165511
vn 0.1178372 -0.5235941 -0.8437791
vn 0.1178354 -0.5235943 -0.8437792
vn 0.3855478 -0.5235761 -0.7597502
vn 0.3855475 -0.5235763 -0.7597502
vn 0.6173902 -0.3832596 -0.6869798
vn 0.6173921 -0.3832684 -0.6869731
vn 0.7512367 -0.1402494 -0.64496
vn 0.7512311 -0.1402968 -0.6449562
vn 0.7587677 0.1087018 -0.6422269
vn 0.7512311 -0.1402968 -0.6449562
vn 0.7471906 0.1120077 -0.6551033
vn 0.7307307 -0.6088281 -0.3088046
vn 0.3712072 -0.8179064 -0.4395826
vn 0.7456461 -0.6020097 -0.2856492
vn 0.3511076 -0.8169244 -0.4575549
vn 0.9500518 -0.2253517 -0.2159126
vn 0.9524958 -0.2192701 -0.2113583
vn -0.0566985 -0.8088467 -0.5852786
vn -0.05186553 -0.821548 -0.5677743
vn -0.433852 -0.6015165 -0.670783
vn -0.4277106 -0.6248601 -0.6531561
vn -0.6581503 -0.2210949 -0.7196913
vn -0.6581742 -0.2300347 -0.716862
vn 0.9524958 -0.2192701 -0.2113583
vn 0.9508625 0.2241025 -0.2136316
vn 0.9504833 0.2259712 -0.2133506
vn 0.9504833 0.2259712 -0.2133506
vn 0.7354867 0.6164241 -0.2812116
vn 0.7349584 0.6172222 -0.2808422
vn 0.3616369 0.8430884 -0.3980192
vn 0.3616387 0.8430876 -0.3980192
vn -0.06942733 0.8430585 -0.5333206
vn -0.06942762 0.8430584 -0.5333207
vn -0.4436809 0.6161323 -0.6507902
vn -0.4426697 0.6167674 -0.6508771
vn -0.6585264 0.2246293 -0.7182513
vn -0.6577115 0.2261085 -0.7185339
vn -0.6577115 0.2261085 -0.7185339
vn -0.6581503 -0.2210949 -0.7196913

vt 0.9628906 0.5917969
vt 0.9848633 0.5727539
vt 0.9848633 0.5917969
vt 0.9628906 0.5727539
vt 0.9848633 0.5532227
vt 0.9628906 0.5532227
vt 0.9848633 0.5341797
vt 0.9628906 0.5341797
vt 0.9848633 0.5151367
vt 0.9628906 0.5151367
vt 0.9848633 0.4958496
vt 0.9628906 0.4958496
vt 0.9848633 0.4768066
vt 0.9628906 0.4768066
vt 0.9848633 0.4575195
vt 0.9628906 0.4575195
vt 0.9628906 0.6108398
vt 0.9848633 0.6108398
vt 0.9628906 0.6303711
vt 0.9848633 0.6303711
vt 0.9628906 0.6494141
vt 0.9848633 0.6494141
vt 0.9628906 0.668457
vt 0.9848633 0.668457
vt 0.9628906 0.6875
vt 0.9848633 0.6875
vt 0.940918 0.6079102
vt 0.9130859 0.5800781
vt 0.9306641 0.590332
vt 0.940918 0.628418
vt 0.9306641 0.6459961
vt 0.8925781 0.5800781
vt 0.9130859 0.65625
vt 0.8745117 0.590332
vt 0.8925781 0.65625
vt 0.8647461 0.6079102
vt 0.875 0.6459961
vt 0.8647461 0.628418
vt 0.9047852 0.6123047
vt 0.9072266 0.6142578
vt 0.9013672 0.6123047
vt 0.9091797 0.6171875
vt 0.8984375 0.6137695
vt 0.9086914 0.6201172
vt 0.8969727 0.6162109
vt 0.9072266 0.6230469
vt 0.8964844 0.6196289
vt 0.9042969 0.6245117
vt 0.8979492 0.6225586
vt 0.9008789 0.6245117
vt 0.9140625 0.5791016
vt 0.9199219 0.6015625
vt 0.909668 0.5952148
vt 0.9321289 0.590332
vt 0.9262695 0.6123047
vt 0.9418945 0.6083984
vt 0.9262695 0.625
vt 0.9414063 0.6293945
vt 0.9194336 0.6357422
vt 0.9311523 0.6474609
vt 0.9086914 0.6420898
vt 0.9125977 0.6582031
vt 0.8959961 0.6416016
vt 0.8916016 0.6572266
vt 0.8852539 0.6352539
vt 0.8735352 0.6464844
vt 0.8793945 0.6240234
vt 0.8637695 0.6279297
vt 0.8793945 0.6118164
vt 0.8637695 0.6074219
vt 0.8857422 0.6010742
vt 0.8745117 0.5893555
vt 0.8969727 0.5947266
vt 0.8930664 0.5786133
vt 0.9199219 0.6015625
vt 0.9072266 0.6030273
vt 0.909668 0.5952148
vt 0.9140625 0.6074219
vt 0.9262695 0.6123047
vt 0.918457 0.6142578
vt 0.8989258 0.6025391
vt 0.8969727 0.5947266
vt 0.8916016 0.6069336
vt 0.8857422 0.6010742
vt 0.887207 0.6137695
vt 0.9262695 0.625
vt 0.918457 0.6142578
vt 0.9179688 0.6225586
vt 0.9194336 0.6357422
vt 0.9179688 0.6225586
vt 0.9140625 0.6298828
vt 0.9086914 0.6420898
vt 0.9067383 0.6337891
vt 0.8959961 0.6416016
vt 0.8984375 0.6337891
vt 0.8852539 0.6352539
vt 0.8911133 0.6293945
vt 0.8793945 0.6240234
vt 0.887207 0.6220703
vt 0.8793945 0.6118164
vt 0.887207 0.6220703
vt 0.887207 0.6137695
vt 0.9072266 0.6142578
vt 0.9072266 0.6030273
vt 0.9140625 0.6074219
vt 0.9047852 0.6123047
vt 0.9091797 0.6171875
vt 0.918457 0.6142578
vt 0.8989258 0.6025391
vt 0.9013672 0.6123047
vt 0.8916016 0.6069336
vt 0.8984375 0.6137695
vt 0.887207 0.6137695
vt 0.8969727 0.6162109
vt 0.918457 0.6142578
vt 0.9086914 0.6201172
vt 0.9179688 0.6225586
vt 0.9179688 0.6225586
vt 0.9072266 0.6230469
vt 0.9140625 0.6298828
vt 0.9042969 0.6245117
vt 0.9067383 0.6337891
vt 0.9008789 0.6245117
vt 0.8984375 0.6337891
vt 0.8979492 0.6225586
vt 0.8911133 0.6293945
vt 0.8964844 0.6196289
vt 0.887207 0.6220703
vt 0.887207 0.6220703
vt 0.887207 0.6137695

g wheel_frontL_9983_693
usemtl wheel_frontL_9983_693
usemap wheel_frontL_9983_693
f 1/1/1 3/3/3 2/2/2
f 2/2/2 4/4/4 1/1/1
f 4/4/4 2/2/2 5/5/5
f 5/5/5 6/6/6 4/4/4
f 6/6/6 5/5/5 7/7/7
f 7/7/7 8/8/8 6/6/6
f 8/8/8 7/7/7 9/9/9
f 9/9/9 10/10/10 8/8/8
f 10/10/10 9/9/9 11/11/11
f 11/11/11 12/12/12 10/10/10
f 12/12/12 11/11/11 13/13/13
f 13/13/13 14/14/14 12/12/12
f 14/14/14 13/13/13 15/15/15
f 15/15/15 16/16/16 14/14/14
f 3/3/3 1/1/1 17/17/17
f 17/17/17 18/18/18 3/3/3
f 18/18/18 17/17/17 19/19/19
f 19/19/19 20/20/20 18/18/18
f 20/20/20 19/19/19 21/21/21
f 21/21/21 22/22/22 20/20/20
f 22/22/22 21/21/21 23/23/23
f 23/23/23 24/24/24 22/22/22
f 24/24/24 23/23/23 25/25/25
f 25/25/25 26/26/26 24/24/24
f 27/27/27 29/29/29 28/28/28
f 28/28/28 30/30/30 27/27/27
f 31/31/31 30/30/30 28/28/28
f 28/28/28 32/32/32 31/31/31
f 33/33/33 31/31/31 32/32/32
f 32/32/32 34/34/34 33/33/33
f 35/35/35 33/33/33 34/34/34
f 34/34/34 36/36/36 35/35/35
f 37/37/37 35/35/35 36/36/36
f 36/36/36 38/38/38 37/37/37
f 39/39/39 41/41/41 40/40/40
f 42/42/42 40/40/40 41/41/41
f 41/41/41 43/43/43 42/42/42
f 44/44/44 42/42/42 43/43/43
f 43/43/43 45/45/45 44/44/44
f 46/46/46 44/44/44 45/45/45
f 45/45/45 47/47/47 46/46/46
f 48/48/48 46/46/46 47/47/47
f 47/47/47 49/49/49 48/48/48
f 48/48/48 49/49/49 50/50/50
f 51/51/51 53/53/53 52/52/52
f 52/52/52 54/54/54 51/51/51
f 54/54/54 52/52/52 55/55/55
f 55/55/55 56/56/56 54/54/54
f 56/56/56 55/55/55 57/57/57
f 57/57/57 58/58/58 56/56/56
f 58/58/58 57/57/57 59/59/59
f 59/59/59 60/60/60 58/58/58
f 60/60/60 59/59/59 61/61/61
f 61/61/61 62/62/62 60/60/60
f 62/62/62 61/61/61 63/63/63
f 63/63/63 64/64/64 62/62/62
f 64/64/64 63/63/63 65/65/65
f 65/65/65 66/66/66 64/64/64
f 66/66/66 65/65/65 67/67/67
f 67/67/67 68/68/68 66/66/66
f 68/68/68 67/67/67 69/69/69
f 69/69/69 70/70/70 68/68/68
f 70/70/70 69/69/69 71/71/71
f 71/71/71 72/72/72 70/70/70
f 72/72/72 71/71/71 73/73/73
f 73/73/73 74/74/74 72/72/72
f 74/74/74 73/73/73 53/53/53
f 53/53/53 51/51/51 74/74/74
f 75/75/75 77/77/77 76/76/76
f 76/76/76 78/78/78 75/75/75
f 79/79/79 75/75/75 78/78/78
f 78/78/78 80/80/80 79/79/79
f 81/81/81 76/76/76 77/77/77
f 77/77/77 82/82/82 81/81/81
f 83/83/83 81/81/81 82/82/82
f 82/82/82 84/84/84 83/83/83
f 85/85/85 83/83/83 84/84/84
f 86/86/86 79/79/79 87/87/87
f 87/87/87 88/88/88 86/86/86
f 89/89/89 86/86/86 88/88/88
f 90/90/90 91/91/91 89/89/89
f 92/92/92 89/89/89 91/91/91
f 91/91/91 93/93/93 92/92/92
f 94/94/94 92/92/92 93/93/93
f 93/93/93 95/95/95 94/94/94
f 96/96/96 94/94/94 95/95/95
f 95/95/95 97/97/97 96/96/96
f 98/98/98 96/96/96 97/97/97
f 97/97/97 99/99/99 98/98/98
f 100/100/100 98/98/98 101/101/101
f 101/101/101 102/102/102 100/100/100
f 84/84/84 100/100/100 102/102/102
f 103/103/103 105/105/105 104/104/104
f 104/104/104 106/106/106 103/103/103
f 105/105/105 103/103/103 107/107/107
f 107/107/107 108/108/108 105/105/105
f 106/106/106 104/104/104 109/109/109
f 109/109/109 110/110/110 106/106/106
f 110/110/110 109/109/109 111/111/111
f 111/111/111 112/112/112 110/110/110
f 112/112/112 111/111/111 113/113/113
f 113/113/113 114/114/114 112/112/112
f 115/115/115 107/107/107 116/116/116
f 116/116/116 117/117/117 115/115/115
f 118/118/118 116/116/116 119/119/119
f 119/119/119 120/120/120 118/118/118
f 120/120/120 119/119/119 121/121/121
f 121/121/121 122/122/122 120/120/120
f 122/122/122 121/121/121 123/123/123
f 123/123/123 124/124/124 122/122/122
f 124/124/124 123/123/123 125/125/125
f 125/125/125 126/126/126 124/124/124
f 126/126/126 125/125/125 127/127/127
f 127/127/127 128/128/128 126/126/126
f 129/129/129 127/127/127 114/114/114
f 114/114/114 130/130/130 129/129/129
