#windshield_10070_213.obj

v 0.7007279 0.2207727 -0.2262957
v 2.913832E-05 -0.2283968 0.2128108
v 3.051481E-05 0.2208244 -0.1717845
v 0.8171599 -0.1925543 0.1075268
v -0.7006871 0.2207727 -0.2309437
v -0.81698 -0.1925543 0.1208866
v 0.7007279 0.2207727 -0.2262957
v 2.913832E-05 -0.2283968 0.2128108
v 0.8171599 -0.1925543 0.1075268
v 3.051481E-05 0.2208244 -0.1717845
v -0.7006871 0.2207727 -0.2309437
v -0.81698 -0.1925543 0.1208866

vn -0.1146661 0.6428438 0.7573653
vn -0.1768351 0.6497472 0.7392947
vn -0.1806689 0.6503497 0.7378365
vn -0.1109559 0.6387218 0.7613947
vn -0.2344211 0.6534233 0.71978
vn -0.2307904 0.6562417 0.718388
vn 0.1146661 -0.6428438 -0.7573653
vn 0.1768351 -0.6497471 -0.7392948
vn 0.1109559 -0.6387218 -0.7613947
vn 0.1806689 -0.6503497 -0.7378365
vn 0.2344211 -0.6534233 -0.71978
vn 0.2307904 -0.6562417 -0.718388

vt 0.7397461 0.2919922
vt 0.4016113 0.01757813
vt 0.4016113 0.2905273
vt 0.7817383 0.0383606
vt 0.06359863 0.2919922
vt 0.02122498 0.0383606
vt 0.06359863 0.2919922
vt 0.4016113 0.01757813
vt 0.02122498 0.0383606
vt 0.4016113 0.2905273
vt 0.7397461 0.2919922
vt 0.7817383 0.0383606

g windshield_10070_213
usemtl windshield_10070_213
usemap windshield_10070_213
f 1/1/1 3/3/3 2/2/2
f 2/2/2 4/4/4 1/1/1
f 2/2/2 3/3/3 5/5/5
f 5/5/5 6/6/6 2/2/2
f 7/7/7 9/9/9 8/8/8
f 8/8/8 10/10/10 7/7/7
f 11/11/11 10/10/10 8/8/8
f 8/8/8 12/12/12 11/11/11
