#window04_20390_230.obj

v 0.04999943 2.343652 0.4999998
v -0.2500008 0.9436517 0.5
v -0.2500008 2.343652 0.4999999
v 0.04999943 0.9436517 0.4999999
v 0.04999967 2.243652 0.4
v 0.04999943 0.9436517 0.4999999
v 0.04999943 2.343652 0.4999998
v 0.04999967 0.9436519 0.4000001
v -0.2500001 2.343652 -0.4999998
v 0.04999934 0.9436522 -0.4999998
v 0.04999934 2.343652 -0.4999999
v -0.2500001 0.9436522 -0.4999997
v -0.2500003 2.243652 -0.4
v -0.2500001 0.9436522 -0.4999997
v -0.2500001 2.343652 -0.4999998
v -0.2500003 0.943652 -0.3999999
v -0.2500008 2.343652 0.4999999
v -0.2500006 0.9436519 0.4000002
v -0.2500006 2.243652 0.4000001
v -0.2500008 0.9436517 0.5
v 0.04999934 2.343652 -0.4999999
v 0.04999993 0.943652 -0.4
v 0.04999993 2.243652 -0.4000001
v 0.04999934 0.9436522 -0.4999998
v 0.04999993 2.243652 -0.4000001
v -0.2500006 2.243652 0.4000001
v 0.04999967 2.243652 0.4
v -0.2500003 2.243652 -0.4
v 0.04999967 2.243652 0.4
v -0.2500006 0.9436519 0.4000002
v 0.04999967 0.9436519 0.4000001
v -0.2500006 2.243652 0.4000001
v 0.04999993 0.943652 -0.4
v -0.2500003 2.243652 -0.4
v 0.04999993 2.243652 -0.4000001
v -0.2500003 0.943652 -0.3999999
v 0.04999934 2.343652 -0.4999999
v -0.2500008 2.343652 0.4999999
v -0.2500001 2.343652 -0.4999998
v 0.04999943 2.343652 0.4999998
v 0.04999967 2.243652 0.4
v 0.04999934 2.343652 -0.4999999
v 0.04999993 2.243652 -0.4000001
v 0.04999943 2.343652 0.4999998
v -0.2500006 2.243652 0.4000001
v -0.2500001 2.343652 -0.4999998
v -0.2500008 2.343652 0.4999999
v -0.2500003 2.243652 -0.4
v -0.2500001 2.443652 0.5499998
v -0.1000002 2.443652 -0.5500001
v -0.1000004 2.443652 0.5500002
v -0.25 2.443652 -0.5499997
v -0.2500008 2.343652 0.4999999
v -0.1000004 2.443652 0.5500002
v -0.1000003 2.343652 0.5000003
v -0.2500001 2.443652 0.5499998
v -0.1000004 2.343652 -0.5000002
v -0.25 2.443652 -0.5499997
v -0.2500001 2.343652 -0.4999998
v -0.1000002 2.443652 -0.5500001
v -0.2500001 2.343652 -0.4999998
v -0.2500001 2.443652 0.5499998
v -0.2500008 2.343652 0.4999999
v -0.25 2.443652 -0.5499997
v 0.1000001 0.8436521 -0.4999997
v 0.09999933 0.9436517 0.5
v 0.1000001 0.9436522 -0.4999997
v 0.09999933 0.8436518 0.5
v -0.3000007 0.8436518 0.4999999
v -0.3 0.9436522 -0.4999998
v -0.3000007 0.9436517 0.4999999
v -0.3 0.8436521 -0.4999998
v -0.3 0.8436521 -0.4999998
v 0.1000001 0.9436522 -0.4999997
v -0.3 0.9436522 -0.4999998
v 0.1000001 0.8436521 -0.4999997
v -0.3 0.9436522 -0.4999998
v 0.09999933 0.9436517 0.5
v -0.3000007 0.9436517 0.4999999
v 0.1000001 0.9436522 -0.4999997
v -0.3000007 0.9436517 0.4999999
v 0.09999933 0.8436518 0.5
v -0.3000007 0.8436518 0.4999999
v 0.09999933 0.9436517 0.5
v -0.3 0.8436521 -0.4999998
v 0.09999933 0.8436518 0.5
v 0.1000001 0.8436521 -0.4999997
v -0.3000007 0.8436518 0.4999999
v -0.1500005 2.243653 -0.3999997
v -0.1500006 2.193653 0.3499996
v -0.1500008 2.243653 0.4000004
v -0.1500006 2.193653 -0.3499998
v -0.1500008 1.568653 0.3999996
v -0.1500006 2.193653 0.3499996
v -0.1500006 1.618653 0.3499997
v -0.1500008 2.243653 0.4000004
v -0.2500014 2.243653 0.4000001
v -0.2500013 2.193653 -0.3500001
v -0.2500011 2.243653 -0.4
v -0.2500013 2.193653 0.3500002
v -0.2500011 1.568654 -0.3999999
v -0.2500013 2.193653 -0.3500001
v -0.2500013 1.618654 -0.35
v -0.2500011 2.243653 -0.4
v -0.1500005 1.568654 -0.3999997
v -0.1500006 1.618653 0.3499997
v -0.1500006 1.618654 -0.3499998
v -0.1500008 1.568653 0.3999996
v -0.2500014 1.568653 0.4000002
v -0.2500013 1.618654 -0.35
v -0.2500013 1.618653 0.3500002
v -0.2500011 1.568654 -0.3999999
v -0.2500013 2.193653 0.3500002
v -0.1500006 2.193653 -0.3499998
v -0.2500013 2.193653 -0.3500001
v -0.1500006 2.193653 0.3499996
v -0.2500013 2.193653 -0.3500001
v -0.1500006 1.618654 -0.3499998
v -0.2500013 1.618654 -0.35
v -0.1500006 2.193653 -0.3499998
v -0.2500013 1.618654 -0.35
v -0.1500006 1.618653 0.3499997
v -0.2500013 1.618653 0.3500002
v -0.1500006 1.618654 -0.3499998
v -0.2500013 1.618653 0.3500002
v -0.1500006 2.193653 0.3499996
v -0.2500013 2.193653 0.3500002
v -0.1500006 1.618653 0.3499997
v -0.2500011 1.568654 -0.3999999
v -0.1500008 1.568653 0.3999996
v -0.1500005 1.568654 -0.3999997
v -0.2500014 1.568653 0.4000002
v -0.2500014 1.568653 0.4000002
v -0.2500013 2.193653 0.3500002
v -0.2500014 2.243653 0.4000001
v -0.2500013 1.618653 0.3500002
v -0.1500005 1.568654 -0.3999997
v -0.1500006 2.193653 -0.3499998
v -0.1500005 2.243653 -0.3999997
v -0.1500006 1.618654 -0.3499998

vn -1 -4.371139E-08 2.205372E-06
vn -1 -4.371139E-08 2.205372E-06
vn -1 -4.371139E-08 2.205372E-06
vn -1 -4.371139E-08 2.205372E-06
vn 2.205372E-06 7.105427E-15 1
vn 2.396107E-06 1.544271E-14 1
vn 2.205372E-06 7.105427E-15 1
vn 2.396107E-06 1.544271E-14 1
vn 1 4.371139E-08 -2.205372E-06
vn 1 4.371139E-08 -2.205372E-06
vn 1 4.371139E-08 -2.205372E-06
vn 1 4.371139E-08 -2.205372E-06
vn -2.205372E-06 -7.105427E-15 -1
vn -2.205372E-06 -7.105427E-15 -1
vn -2.205372E-06 -7.105427E-15 -1
vn -2.205372E-06 -7.105427E-15 -1
vn -2.205372E-06 -7.105427E-15 -1
vn -2.396107E-06 -1.544271E-14 -1
vn -2.205372E-06 -7.105427E-15 -1
vn -2.396107E-06 -1.544271E-14 -1
vn 2.205372E-06 7.105427E-15 1
vn 2.205372E-06 7.105427E-15 1
vn 2.205372E-06 7.105427E-15 1
vn 2.205372E-06 7.105427E-15 1
vn 4.371139E-08 -1 -9.237056E-14
vn 4.371139E-08 -1 -9.237056E-14
vn 4.371139E-08 -1 -9.237056E-14
vn 4.371139E-08 -1 -9.237056E-14
vn 1 4.371139E-08 -2.205372E-06
vn 1 4.371139E-08 -2.205372E-06
vn 1 4.371139E-08 -2.205372E-06
vn 1 4.371139E-08 -2.205372E-06
vn -1 -4.371139E-08 2.205372E-06
vn -1 -4.371139E-08 2.205372E-06
vn -1 -4.371139E-08 2.205372E-06
vn -1 -4.371139E-08 2.205372E-06
vn -3.488872E-07 1 7.653967E-13
vn -3.488872E-07 1 7.653966E-13
vn -3.488872E-07 1 7.653966E-13
vn -3.488872E-07 1 7.653966E-13
vn 2.205372E-06 7.105427E-15 1
vn 2.205372E-06 7.105427E-15 1
vn 2.205372E-06 7.105427E-15 1
vn 2.205372E-06 7.105427E-15 1
vn -2.205372E-06 -7.105427E-15 -1
vn -2.205372E-06 -7.105427E-15 -1
vn -2.205372E-06 -7.105427E-15 -1
vn -2.205372E-06 -7.105427E-15 -1
vn -3.211439E-07 1 7.042124E-13
vn -3.211439E-07 1 7.042124E-13
vn -3.211439E-07 1 7.042124E-13
vn -3.211439E-07 1 7.042124E-13
vn -0.8944272 -0.4472136 1.972545E-06
vn -0.8944272 -0.4472136 1.972545E-06
vn -0.8944272 -0.4472136 1.972545E-06
vn -0.8944272 -0.4472136 1.972545E-06
vn 0.8944272 -0.4472136 -1.972545E-06
vn 0.8944272 -0.4472136 -1.972545E-06
vn 0.8944272 -0.4472136 -1.972545E-06
vn 0.8944272 -0.4472136 -1.972545E-06
vn -2.205372E-06 -7.105427E-15 -1
vn -2.205372E-06 -7.105427E-15 -1
vn -2.205372E-06 -7.105427E-15 -1
vn -2.205372E-06 -7.105427E-15 -1
vn 2.205372E-06 7.105427E-15 1
vn 2.205372E-06 7.105427E-15 1
vn 2.205372E-06 7.105427E-15 1
vn 2.205372E-06 7.105427E-15 1
vn -2.205372E-06 -7.105427E-15 -1
vn -2.205372E-06 -7.105427E-15 -1
vn -2.205372E-06 -7.105427E-15 -1
vn -2.205372E-06 -7.105427E-15 -1
vn 1 4.371139E-08 -2.205372E-06
vn 1 4.371139E-08 -2.205372E-06
vn 1 4.371139E-08 -2.205372E-06
vn 1 4.371139E-08 -2.205372E-06
vn -6.540629E-07 1 1.438423E-12
vn -6.540629E-07 1 1.438423E-12
vn -6.540629E-07 1 1.438423E-12
vn -6.540629E-07 1 1.438423E-12
vn -1 -4.371139E-08 2.205372E-06
vn -1 -4.371139E-08 2.205372E-06
vn -1 -4.371139E-08 2.205372E-06
vn -1 -4.371139E-08 2.205372E-06
vn 5.01475E-07 -1 -1.10191E-12
vn 5.01475E-07 -1 -1.10191E-12
vn 5.01475E-07 -1 -1.10191E-12
vn 5.01475E-07 -1 -1.10191E-12
vn 2.205372E-06 7.105427E-15 1
vn 2.205372E-06 7.105427E-15 1
vn 2.205372E-06 7.105427E-15 1
vn 2.205372E-06 7.105427E-15 1
vn 2.205372E-06 7.105427E-15 1
vn 2.205372E-06 7.105427E-15 1
vn 2.205372E-06 7.105427E-15 1
vn 2.205372E-06 7.105427E-15 1
vn -2.205372E-06 -7.105427E-15 -1
vn -2.205372E-06 -7.105427E-15 -1
vn -2.205372E-06 -7.105427E-15 -1
vn -2.205372E-06 -7.105427E-15 -1
vn -2.205372E-06 -7.105427E-15 -1
vn -2.205372E-06 -7.105427E-15 -1
vn -2.205372E-06 -7.105427E-15 -1
vn -2.205372E-06 -7.105427E-15 -1
vn 2.205372E-06 7.105427E-15 1
vn 2.205372E-06 7.105427E-15 1
vn 2.205372E-06 7.105427E-15 1
vn 2.205372E-06 7.105427E-15 1
vn -2.205372E-06 -7.105427E-15 -1
vn -2.205372E-06 -7.105427E-15 -1
vn -2.205372E-06 -7.105427E-15 -1
vn -2.205372E-06 -7.105427E-15 -1
vn 4.371139E-08 -1 -9.237056E-14
vn 4.371139E-08 -1 -9.237056E-14
vn 4.371139E-08 -1 -9.237056E-14
vn 4.371139E-08 -1 -9.237056E-14
vn -1 -4.371139E-08 2.205372E-06
vn -1 -4.371139E-08 2.205372E-06
vn -1 -4.371139E-08 2.205372E-06
vn -1 -4.371139E-08 2.205372E-06
vn -4.796768E-07 1 1.053836E-12
vn -4.796768E-07 1 1.053836E-12
vn -4.796768E-07 1 1.053836E-12
vn -4.796768E-07 1 1.053836E-12
vn 1 4.371139E-08 -2.205372E-06
vn 1 4.371139E-08 -2.205372E-06
vn 1 4.371139E-08 -2.205372E-06
vn 1 4.371139E-08 -2.205372E-06
vn 4.251811E-07 -1 -9.336531E-13
vn 4.251811E-07 -1 -9.336531E-13
vn 4.251811E-07 -1 -9.336531E-13
vn 4.251811E-07 -1 -9.336531E-13
vn -2.205372E-06 -7.105427E-15 -1
vn -2.205372E-06 -7.105427E-15 -1
vn -2.205372E-06 -7.105427E-15 -1
vn -2.205372E-06 -7.105427E-15 -1
vn 2.205372E-06 7.105427E-15 1
vn 2.205372E-06 7.105427E-15 1
vn 2.205372E-06 7.105427E-15 1
vn 2.205372E-06 7.105427E-15 1

vt 0.3862305 0.9887695
vt 0.3483887 0.8120117
vt 0.3483887 0.9887695
vt 0.3862305 0.8120117
vt 0.3886719 0.9848633
vt 0.4013672 0.8208008
vt 0.4013672 0.9975586
vt 0.3886719 0.8208008
vt 0.3483887 0.9887695
vt 0.3862305 0.8120117
vt 0.3862305 0.9887695
vt 0.3483887 0.8120117
vt 0.3886719 0.9848633
vt 0.4013672 0.8208008
vt 0.4013672 0.9975586
vt 0.3886719 0.8208008
vt 0.4013672 0.9975586
vt 0.3886719 0.8208008
vt 0.3886719 0.9848633
vt 0.4013672 0.8208008
vt 0.4013672 0.9975586
vt 0.3886719 0.8208008
vt 0.3886719 0.9848633
vt 0.4013672 0.8208008
vt 0.3491211 0.8256836
vt 0.3869629 0.9267578
vt 0.3491211 0.9267578
vt 0.3869629 0.8256836
vt 0.3483887 0.9833984
vt 0.3862305 0.8193359
vt 0.3483887 0.8193359
vt 0.3862305 0.9833984
vt 0.3483887 0.8193359
vt 0.3862305 0.9833984
vt 0.3483887 0.9833984
vt 0.3862305 0.8193359
vt 0.3869629 0.8256836
vt 0.3491211 0.9521484
vt 0.3491211 0.8256836
vt 0.3869629 0.9521484
vt 0.4182129 0.9819336
vt 0.4057617 0.8686523
vt 0.4182129 0.8808594
vt 0.4057617 0.9946289
vt 0.4182129 0.9819336
vt 0.4057617 0.8681641
vt 0.4057617 0.9946289
vt 0.4182129 0.8808594
vt 0.3552246 0.8344727
vt 0.3742676 0.9741211
vt 0.3742676 0.8344727
vt 0.3552246 0.9741211
vt 0.3552246 0.8217773
vt 0.3742676 0.8344727
vt 0.3742676 0.8217773
vt 0.3552246 0.8344727
vt 0.3742676 0.9868164
vt 0.3552246 0.9741211
vt 0.3552246 0.9868164
vt 0.3742676 0.9741211
vt 0.4174805 0.9790039
vt 0.407959 0.8793945
vt 0.4174805 0.8837891
vt 0.407959 0.9838867
vt 0.388916 0.9506836
vt 0.4016113 0.8242188
vt 0.4016113 0.9506836
vt 0.388916 0.8242188
vt 0.388916 0.8242188
vt 0.4006348 0.9506836
vt 0.4006348 0.8242188
vt 0.388916 0.9506836
vt 0.361084 0.9257813
vt 0.3483887 0.8754883
vt 0.3483887 0.9257813
vt 0.361084 0.8754883
vt 0.354248 0.9438477
vt 0.3745117 0.8173828
vt 0.354248 0.8173828
vt 0.3745117 0.9438477
vt 0.3483887 0.8754883
vt 0.361084 0.9257813
vt 0.361084 0.8754883
vt 0.3483887 0.9257813
vt 0.3745117 0.9438477
vt 0.3547363 0.8173828
vt 0.3547363 0.9438477
vt 0.3745117 0.8173828
vt 0.4938965 0.7666016
vt 0.3981934 0.7602539
vt 0.3918457 0.7666016
vt 0.4875488 0.7602539
vt 0.4833984 0.7792969
vt 0.4038086 0.7856445
vt 0.4770508 0.7856445
vt 0.3972168 0.7792969
vt 0.3918457 0.7792969
vt 0.4875488 0.7856445
vt 0.4938965 0.7792969
vt 0.3981934 0.7856445
vt 0.3972168 0.7792969
vt 0.4770508 0.7856445
vt 0.4038086 0.7856445
vt 0.4833984 0.7792969
vt 0.3920898 0.7666016
vt 0.4873047 0.7602539
vt 0.3984375 0.7602539
vt 0.4936523 0.7666016
vt 0.4936523 0.7792969
vt 0.3984375 0.7856445
vt 0.4873047 0.7856445
vt 0.3920898 0.7792969
vt 0.3918457 0.7666016
vt 0.4824219 0.7792969
vt 0.4824219 0.7666016
vt 0.3918457 0.7792969
vt 0.4660645 0.7792969
vt 0.3918457 0.7666016
vt 0.3918457 0.7792969
vt 0.4660645 0.7666016
vt 0.3918457 0.7666016
vt 0.4824219 0.7792969
vt 0.4824219 0.7666016
vt 0.3918457 0.7792969
vt 0.3918457 0.7666016
vt 0.4660645 0.7792969
vt 0.4660645 0.7666016
vt 0.3918457 0.7792969
vt 0.3920898 0.7792969
vt 0.4936523 0.7666016
vt 0.3920898 0.7666016
vt 0.4936523 0.7792969
vt 0.3972168 0.7792969
vt 0.4770508 0.7856445
vt 0.4833984 0.7792969
vt 0.4038086 0.7856445
vt 0.3972168 0.7792969
vt 0.4770508 0.7856445
vt 0.4833984 0.7792969
vt 0.4038086 0.7856445

g window04_20390_230
usemtl window04_20390_230
usemap window04_20390_230
f 1/1/1 3/3/3 2/2/2
f 2/2/2 4/4/4 1/1/1
f 5/5/5 7/7/7 6/6/6
f 6/6/6 8/8/8 5/5/5
f 9/9/9 11/11/11 10/10/10
f 10/10/10 12/12/12 9/9/9
f 13/13/13 15/15/15 14/14/14
f 14/14/14 16/16/16 13/13/13
f 17/17/17 19/19/19 18/18/18
f 18/18/18 20/20/20 17/17/17
f 21/21/21 23/23/23 22/22/22
f 22/22/22 24/24/24 21/21/21
f 25/25/25 27/27/27 26/26/26
f 26/26/26 28/28/28 25/25/25
f 29/29/29 31/31/31 30/30/30
f 30/30/30 32/32/32 29/29/29
f 33/33/33 35/35/35 34/34/34
f 34/34/34 36/36/36 33/33/33
f 37/37/37 39/39/39 38/38/38
f 38/38/38 40/40/40 37/37/37
f 41/41/41 43/43/43 42/42/42
f 42/42/42 44/44/44 41/41/41
f 45/45/45 47/47/47 46/46/46
f 46/46/46 48/48/48 45/45/45
f 49/49/49 51/51/51 50/50/50
f 50/50/50 52/52/52 49/49/49
f 53/53/53 55/55/55 54/54/54
f 54/54/54 56/56/56 53/53/53
f 57/57/57 59/59/59 58/58/58
f 58/58/58 60/60/60 57/57/57
f 61/61/61 63/63/63 62/62/62
f 62/62/62 64/64/64 61/61/61
f 65/65/65 67/67/67 66/66/66
f 66/66/66 68/68/68 65/65/65
f 69/69/69 71/71/71 70/70/70
f 70/70/70 72/72/72 69/69/69
f 73/73/73 75/75/75 74/74/74
f 74/74/74 76/76/76 73/73/73
f 77/77/77 79/79/79 78/78/78
f 78/78/78 80/80/80 77/77/77
f 81/81/81 83/83/83 82/82/82
f 82/82/82 84/84/84 81/81/81
f 85/85/85 87/87/87 86/86/86
f 86/86/86 88/88/88 85/85/85
f 89/89/89 91/91/91 90/90/90
f 90/90/90 92/92/92 89/89/89
f 93/93/93 95/95/95 94/94/94
f 94/94/94 96/96/96 93/93/93
f 97/97/97 99/99/99 98/98/98
f 98/98/98 100/100/100 97/97/97
f 101/101/101 103/103/103 102/102/102
f 102/102/102 104/104/104 101/101/101
f 105/105/105 107/107/107 106/106/106
f 106/106/106 108/108/108 105/105/105
f 109/109/109 111/111/111 110/110/110
f 110/110/110 112/112/112 109/109/109
f 113/113/113 115/115/115 114/114/114
f 114/114/114 116/116/116 113/113/113
f 117/117/117 119/119/119 118/118/118
f 118/118/118 120/120/120 117/117/117
f 121/121/121 123/123/123 122/122/122
f 122/122/122 124/124/124 121/121/121
f 125/125/125 127/127/127 126/126/126
f 126/126/126 128/128/128 125/125/125
f 129/129/129 131/131/131 130/130/130
f 130/130/130 132/132/132 129/129/129
f 133/133/133 135/135/135 134/134/134
f 134/134/134 136/136/136 133/133/133
f 137/137/137 139/139/139 138/138/138
f 138/138/138 140/140/140 137/137/137
