#windshield_9813_212.obj

v 0.700716 0.2207724 -0.2263386
v 2.025439E-05 -0.2283971 0.2127701
v 1.852784E-05 0.2208242 -0.1718265
v 0.8171459 -0.1925546 0.1074841
v -0.7007006 0.2207724 -0.2309867
v -0.8169913 -0.1925546 0.1208446
v 0.700716 0.2207724 -0.2263386
v 2.025439E-05 -0.2283971 0.2127701
v 0.8171459 -0.1925546 0.1074841
v 1.852784E-05 0.2208242 -0.1718265
v -0.7007006 0.2207724 -0.2309867
v -0.8169913 -0.1925546 0.1208446

vn -0.1202885 0.642844 0.7564929
vn -0.1823215 0.6497473 0.737961
vn -0.1861444 0.6503498 0.7364745
vn -0.1166083 0.6387219 0.7605497
vn -0.239761 0.6534234 0.7180191
vn -0.2361201 0.6562418 0.716654
vn 0.1202885 -0.642844 -0.7564929
vn 0.1823215 -0.6497473 -0.7379611
vn 0.1166083 -0.6387219 -0.7605497
vn 0.1861444 -0.6503498 -0.7364745
vn 0.239761 -0.6534234 -0.7180191
vn 0.2361201 -0.6562418 -0.716654

vt 0.7397461 0.2919922
vt 0.4016113 0.01757813
vt 0.4016113 0.2905273
vt 0.7817383 0.0383606
vt 0.06359863 0.2919922
vt 0.02122498 0.0383606
vt 0.06359863 0.2919922
vt 0.4016113 0.01757813
vt 0.02122498 0.0383606
vt 0.4016113 0.2905273
vt 0.7397461 0.2919922
vt 0.7817383 0.0383606

g windshield_9813_212
usemtl windshield_9813_212
usemap windshield_9813_212
f 1/1/1 3/3/3 2/2/2
f 2/2/2 4/4/4 1/1/1
f 2/2/2 3/3/3 5/5/5
f 5/5/5 6/6/6 2/2/2
f 7/7/7 9/9/9 8/8/8
f 8/8/8 10/10/10 7/7/7
f 11/11/11 10/10/10 8/8/8
f 8/8/8 12/12/12 11/11/11
