#window01_shutterR_19986_224.obj

v -0.02499918 -1.134614E-07 0.4500005
v 0.02500097 1.247849E-07 -1.370377E-07
v -0.02499976 1.247849E-07 -2.568817E-07
v 0.02500072 -1.134614E-07 0.4500006
v -0.02499918 1.4 0.4500003
v 0.02500097 1.4 4.659597E-07
v 0.02500072 1.4 0.4500004
v -0.02499976 1.4 3.461157E-07
v -0.02499976 1.4 3.461157E-07
v 0.02500097 1.247849E-07 -1.370377E-07
v 0.02500097 1.4 4.659597E-07
v -0.02499976 1.247849E-07 -2.568817E-07
v -0.02499918 1.4 0.4500003
v -0.02499976 1.247849E-07 -2.568817E-07
v -0.02499976 1.4 3.461157E-07
v -0.02499918 -1.134614E-07 0.4500005
v 0.02500072 1.4 0.4500004
v -0.02499918 -1.134614E-07 0.4500005
v -0.02499918 1.4 0.4500003
v 0.02500072 -1.134614E-07 0.4500006
v 0.02500097 1.4 4.659597E-07
v 0.02500072 -1.134614E-07 0.4500006
v 0.02500072 1.4 0.4500004
v 0.02500097 1.247849E-07 -1.370377E-07

vn 6.71547E-07 -1 -1.476982E-12
vn 6.71547E-07 -1 -1.476982E-12
vn 6.715471E-07 -1 -1.476982E-12
vn 6.715471E-07 -1 -1.476982E-12
vn -8.41089E-07 1 1.850885E-12
vn -8.41089E-07 1 1.850885E-12
vn -8.410891E-07 1 1.850885E-12
vn -8.410891E-07 1 1.850885E-12
vn 1 3.264077E-07 -2.205372E-06
vn 1 3.264077E-07 -2.205372E-06
vn 1 3.264077E-07 -2.205372E-06
vn 1 3.264077E-07 -2.205372E-06
vn -2.03583E-06 2.051649E-14 -1
vn -2.03583E-06 2.051649E-14 -1
vn -2.03583E-06 2.051649E-14 -1
vn -2.03583E-06 2.051649E-14 -1
vn -1 -3.264077E-07 2.205372E-06
vn -1 -3.264077E-07 2.205372E-06
vn -1 -3.264077E-07 2.205372E-06
vn -1 -3.264077E-07 2.205372E-06
vn 2.03583E-06 -2.051649E-14 1
vn 2.03583E-06 -2.051649E-14 1
vn 2.03583E-06 -2.051649E-14 1
vn 2.03583E-06 -2.051649E-14 1

vt 0.4875488 0.8105469
vt 0.4304199 0.8041992
vt 0.4304199 0.8105469
vt 0.4875488 0.8041992
vt 0.4875488 0.987793
vt 0.4304199 0.9941406
vt 0.4875488 0.9941406
vt 0.4304199 0.987793
vt 0.4304199 0.987793
vt 0.4243164 0.8105469
vt 0.4243164 0.987793
vt 0.4304199 0.8105469
vt 0.4875488 0.987793
vt 0.4304199 0.8105469
vt 0.4304199 0.987793
vt 0.4875488 0.8105469
vt 0.4938965 0.987793
vt 0.4875488 0.8105469
vt 0.4875488 0.987793
vt 0.4938965 0.8105469
vt 0.4304199 0.987793
vt 0.4875488 0.8105469
vt 0.4875488 0.987793
vt 0.4304199 0.8105469

g window01_shutterR_19986_224
usemtl window01_shutterR_19986_224
usemap window01_shutterR_19986_224
f 1/1/1 3/3/3 2/2/2
f 2/2/2 4/4/4 1/1/1
f 5/5/5 7/7/7 6/6/6
f 6/6/6 8/8/8 5/5/5
f 9/9/9 11/11/11 10/10/10
f 10/10/10 12/12/12 9/9/9
f 13/13/13 15/15/15 14/14/14
f 14/14/14 16/16/16 13/13/13
f 17/17/17 19/19/19 18/18/18
f 18/18/18 20/20/20 17/17/17
f 21/21/21 23/23/23 22/22/22
f 22/22/22 24/24/24 21/21/21
