#yellow_pole_4_9450_674.obj

v 0.2088 0.1499994 -0.1102325
v 0.158801 0.8499994 -0.1968353
v 0.158801 0.1499996 -0.1968353
v 0.2088 0.8499994 -0.1102325
v 0.05879894 0.8499994 -0.1968357
v 0.05879894 0.1499996 -0.1968357
v 0.1588005 0.1499994 -0.02363023
v 0.1588005 0.8499994 -0.02363023
v 0.05879845 0.1499994 -0.02363067
v 0.05879845 0.8499994 -0.02363067
v 0.008799437 0.1499994 -0.1102334
v 0.008799437 0.8499994 -0.1102334
v 0.05879894 0.1499996 -0.1968357
v 0.05879894 0.8499994 -0.1968357
v 0.1374027 0.9064195 -0.1597724
v 0.05159534 0.9064195 -0.1102328
v 0.08019656 0.9064195 -0.1597722
v 0.1374029 0.9064195 -0.06069372
v 0.08019673 0.9064195 -0.06069351
v 0.1660041 0.9064195 -0.1102332
v 0.2088 0.8499994 -0.1102325
v 0.158801 0.8499994 -0.1968353
v 0.05879894 0.8499994 -0.1968357
v 0.008799437 0.8499994 -0.1102334
v 0.05879845 0.8499994 -0.02363067
v 0.1588005 0.8499994 -0.02363023

vn 0.9999998 -1.694064E-21 -0.0006817484
vn 0.4776861 0.2917237 -0.8286815
vn 0.4994092 2.030362E-07 -0.8663662
vn 0.9565023 0.2917234 -0.0006518433
vn -0.478816 0.2917242 -0.8280292
vn -0.5005904 2.030362E-07 -0.8656844
vn 0.5005904 -1.948152E-07 0.8656844
vn 0.4788159 0.2917233 0.8280295
vn -0.4994091 -1.912376E-07 0.8663662
vn -0.4776862 0.2917239 0.8286813
vn -0.9999998 1.694064E-21 0.0006817484
vn -0.9565023 0.2917238 0.000652395
vn -0.5005904 2.030362E-07 -0.8656844
vn -0.478816 0.2917242 -0.8280292
vn 0.273353 0.8369019 -0.4742064
vn -0.5473512 0.8369019 0.0003739006
vn -0.2739973 0.8369025 -0.4738334
vn 0.2740001 0.8369016 0.4738334
vn -0.2733514 0.8369021 0.4742068
vn 0.5473511 0.8369021 -0.0003725611
vn 0.9565023 0.2917234 -0.0006518433
vn 0.4776861 0.2917237 -0.8286815
vn -0.478816 0.2917242 -0.8280292
vn -0.9565023 0.2917238 0.000652395
vn -0.4776862 0.2917239 0.8286813
vn 0.4788159 0.2917233 0.8280295

vt 0.5444336 0.3549805
vt 0.5551758 0.4299316
vt 0.5551758 0.3549805
vt 0.5444336 0.4299316
vt 0.565918 0.4299316
vt 0.565918 0.3549805
vt 0.5341797 0.3549805
vt 0.5341797 0.4299316
vt 0.5234375 0.3549805
vt 0.5234375 0.4299316
vt 0.5126953 0.3549805
vt 0.5126953 0.4299316
vt 0.5019531 0.3549805
vt 0.5019531 0.4299316
vt 0.5317383 0.4516602
vt 0.5249023 0.4445801
vt 0.5263672 0.4501953
vt 0.5341797 0.4418945
vt 0.5288086 0.4404297
vt 0.5361328 0.4475098
vt 0.543457 0.4492188
vt 0.5341797 0.4587402
vt 0.5209961 0.4555664
vt 0.5175781 0.4428711
vt 0.5268555 0.4333496
vt 0.5395508 0.4365234

g yellow_pole_4_9450_674
usemtl yellow_pole_4_9450_674
usemap yellow_pole_4_9450_674
f 1/1/1 3/3/3 2/2/2
f 2/2/2 4/4/4 1/1/1
f 5/5/5 2/2/2 3/3/3
f 3/3/3 6/6/6 5/5/5
f 7/7/7 1/1/1 4/4/4
f 4/4/4 8/8/8 7/7/7
f 9/9/9 7/7/7 8/8/8
f 8/8/8 10/10/10 9/9/9
f 11/11/11 9/9/9 10/10/10
f 10/10/10 12/12/12 11/11/11
f 13/13/13 11/11/11 12/12/12
f 12/12/12 14/14/14 13/13/13
f 15/15/15 17/17/17 16/16/16
f 15/15/15 16/16/16 18/18/18
f 16/16/16 19/19/19 18/18/18
f 20/20/20 15/15/15 18/18/18
f 15/15/15 20/20/20 21/21/21
f 21/21/21 22/22/22 15/15/15
f 17/17/17 15/15/15 22/22/22
f 22/22/22 23/23/23 17/17/17
f 16/16/16 17/17/17 23/23/23
f 23/23/23 24/24/24 16/16/16
f 19/19/19 16/16/16 24/24/24
f 24/24/24 25/25/25 19/19/19
f 18/18/18 19/19/19 25/25/25
f 25/25/25 26/26/26 18/18/18
f 26/26/26 21/21/21 20/20/20
f 20/20/20 18/18/18 26/26/26
